<svg width="24" height="24" viewBox="0 0 24 24" fill="none" xmlns="http://www.w3.org/2000/svg">
<path d="M14.3369 5.62891C14.3511 5.6391 16.707 7.34127 16.707 10.1973V20.7646C16.707 20.7646 15.9219 23.3916 13.1104 22.4922C10.2986 21.5928 4.52051 20.0957 4.52051 20.0957C4.5115 20.0916 1.7998 18.8568 1.7998 15.1982V4.19922L3.0166 2.24512L14.3369 5.62891ZM12.5996 12C11.937 12.0001 11.3994 12.5375 11.3994 13.2002C11.3994 13.8629 11.937 14.4003 12.5996 14.4004C13.2624 14.4004 13.7998 13.8629 13.7998 13.2002C13.7998 12.5375 13.2623 12 12.5996 12Z" fill="currentColor"/>
<path d="M2.55173 2.1555L13.9953 5.47029C14.7708 5.72983 15.448 6.22816 15.9337 6.89654C16.4194 7.56493 16.6896 8.37043 16.7071 9.20196V20.4076C16.7398 20.7614 16.6873 21.1179 16.5545 21.4464C16.4215 21.7749 16.212 22.0655 15.9442 22.293C15.6764 22.5205 15.3582 22.6781 15.0171 22.7522C14.6762 22.8262 14.3226 22.8145 13.9869 22.7181L4.52073 20.0952C3.7452 19.8494 3.06523 19.361 2.57705 18.6996C2.08886 18.0381 1.81721 17.2369 1.80054 16.4094V4.19939C1.78335 3.42493 2.0674 2.67497 2.59071 2.11311C3.11403 1.55125 3.83414 1.22308 4.59397 1.2002H19.0611C19.8936 1.2002 20.692 1.53719 21.2806 2.13704C21.8692 2.73689 22.1998 3.55045 22.1998 4.39877V13.9444C22.1961 14.3756 22.109 14.8018 21.9434 15.1986C21.7778 15.5955 21.5369 15.9551 21.2347 16.2569C20.9323 16.5587 20.5746 16.7968 20.1818 16.9574C19.7892 17.118 19.3692 17.1982 18.946 17.1931H16.7071" stroke="currentColor" stroke-linecap="round" stroke-linejoin="round"/>
<path d="M22.2002 9.19618H16.7075" stroke="currentColor" stroke-linecap="round" stroke-linejoin="round"/>
</svg>
