<svg width="24" height="24" viewBox="0 0 24 24" fill="none" xmlns="http://www.w3.org/2000/svg">
<path d="M12.6811 12.0001H5.33789" stroke="currentColor" stroke-linecap="round" stroke-linejoin="round"/>
<path d="M9.34326 16.0001H5.33789" stroke="currentColor" stroke-linecap="round" stroke-linejoin="round"/>
<path d="M17.354 8.00011H5.33789" stroke="currentColor" stroke-linecap="round" stroke-linejoin="round"/>
<path d="M8.00806 22H3.33512C2.59776 22 2 21.403 2 20.6667V3.33333C2 2.59695 2.59776 2 3.33512 2H16.6864C17.0344 1.99977 17.3691 2.13348 17.6209 2.37333L20.2912 4.94222C20.548 5.19215 20.6925 5.53526 20.6917 5.89333V9.33333" stroke="currentColor" stroke-linecap="round" stroke-linejoin="round"/>
<path fill-rule="evenodd" clip-rule="evenodd" d="M17.0158 21.0576C16.7552 21.3176 16.333 21.3176 16.0723 21.0576L13.2419 18.222C12.9816 17.9618 12.9816 17.5401 13.2419 17.2798L15.0754 15.4398C15.1644 15.3509 14.9152 15.5198 19.873 12.3732C20.1386 12.2119 20.4801 12.2523 20.7008 12.4709L21.8045 13.6087C22.0269 13.8282 22.0641 14.1737 21.8935 14.4354C18.7782 19.3776 18.9384 19.1109 18.8494 19.2176L17.0158 21.0576Z" stroke="currentColor" stroke-linecap="round" stroke-linejoin="round"/>
<path d="M15.6004 20.5866L14.1851 21.9999H10.6782L13.7134 18.7021" stroke="currentColor" stroke-linecap="round" stroke-linejoin="round"/>
</svg>
