<svg width="24" height="24" viewBox="0 0 24 24" fill="none" xmlns="http://www.w3.org/2000/svg">
<g clip-path="url(#clip0_12_78114)">
<path d="M11 23.25L16.834 17.416" stroke="currentColor" stroke-linecap="round" stroke-linejoin="round"/>
<path d="M23.178 11.0523C22.4335 10.9722 21.6825 10.9722 20.938 11.0523L18.938 14.2323L17.709 11.9433C13.25 14.1323 11.509 19.4213 13.158 21.0733C15.37 23.2893 24.128 19.4083 23.178 11.0523Z" stroke="currentColor" stroke-linecap="round" stroke-linejoin="round"/>
<path d="M8.25 20.25H2.25C1.85218 20.25 1.47064 20.092 1.18934 19.8107C0.908035 19.5294 0.75 19.1478 0.75 18.75V2.25C0.75 1.85218 0.908035 1.47064 1.18934 1.18934C1.47064 0.908035 1.85218 0.75 2.25 0.75H12.879C13.2765 0.750085 13.6578 0.907982 13.939 1.189L16.811 4.061C17.092 4.3422 17.2499 4.72345 17.25 5.121V8.25" stroke="currentColor" stroke-linecap="round" stroke-linejoin="round"/>
</g>
<defs>
<clipPath id="clip0_12_78114">
<rect width="24" height="24" fill="white"/>
</clipPath>
</defs>
</svg>
