<svg width="24" height="24" viewBox="0 0 24 24" fill="none" xmlns="http://www.w3.org/2000/svg">
<path d="M12.7356 12H4.80493" stroke="currentColor" stroke-linecap="round" stroke-linejoin="round"/>
<path d="M9.13073 16.3201H4.80493" stroke="currentColor" stroke-linecap="round" stroke-linejoin="round"/>
<path d="M17.7823 7.67995H4.80493" stroke="currentColor" stroke-linecap="round" stroke-linejoin="round"/>
<path d="M7.68865 22.8H2.64189C1.84553 22.8 1.19995 22.1552 1.19995 21.36V2.63995C1.19995 1.84466 1.84553 1.19995 2.64189 1.19995H17.0612C17.4371 1.1997 17.7986 1.34411 18.0706 1.60315L20.9544 4.37755C21.2318 4.64748 21.3878 5.01803 21.387 5.40475V9.11995" stroke="currentColor" stroke-linecap="round" stroke-linejoin="round"/>
<path fill-rule="evenodd" clip-rule="evenodd" d="M17.4166 21.7824C17.1351 22.0632 16.6791 22.0632 16.3976 21.7824L13.3407 18.72C13.0596 18.4389 13.0596 17.9835 13.3407 17.7024L15.321 15.7152C15.4171 15.6192 15.148 15.8016 20.5023 12.4032C20.7892 12.2291 21.158 12.2727 21.3963 12.5088L22.5883 13.7376C22.8285 13.9747 22.8687 14.3478 22.6845 14.6304C19.32 19.968 19.493 19.68 19.3969 19.7952L17.4166 21.7824Z" stroke="currentColor" stroke-linecap="round" stroke-linejoin="round"/>
<path d="M15.8882 21.2735L14.3597 22.7999H10.5723L13.8503 19.2383" stroke="currentColor" stroke-linecap="round" stroke-linejoin="round"/>
</svg>
