<svg width="24" height="24" viewBox="0 0 24 24" fill="none" xmlns="http://www.w3.org/2000/svg">
<path d="M7.50098 12C7.50098 13.1935 7.97508 14.3381 8.819 15.182C9.66291 16.0259 10.8075 16.5 12.001 16.5C13.1945 16.5 14.339 16.0259 15.183 15.182C16.0269 14.3381 16.501 13.1935 16.501 12C16.501 10.8065 16.0269 9.66193 15.183 8.81802C14.339 7.97411 13.1945 7.5 12.001 7.5C10.8075 7.5 9.66291 7.97411 8.819 8.81802C7.97508 9.66193 7.50098 10.8065 7.50098 12V12Z" stroke="currentColor" stroke-linecap="round" stroke-linejoin="round"/>
<path d="M12.001 1.5V4.5" stroke="currentColor" stroke-linecap="round" stroke-linejoin="round"/>
<path d="M12.001 19.5V22.5" stroke="currentColor" stroke-linecap="round" stroke-linejoin="round"/>
<path d="M22.501 12H19.501" stroke="currentColor" stroke-linecap="round" stroke-linejoin="round"/>
<path d="M4.50098 12H1.50098" stroke="currentColor" stroke-linecap="round" stroke-linejoin="round"/>
<path d="M19.425 4.57593L17.304 6.69693" stroke="currentColor" stroke-linecap="round" stroke-linejoin="round"/>
<path d="M6.69693 17.304L4.57593 19.425" stroke="currentColor" stroke-linecap="round" stroke-linejoin="round"/>
<path d="M19.425 19.425L17.304 17.304" stroke="currentColor" stroke-linecap="round" stroke-linejoin="round"/>
<path d="M6.69693 6.69693L4.57593 4.57593" stroke="currentColor" stroke-linecap="round" stroke-linejoin="round"/>
</svg>
