<svg width="24" height="24" viewBox="0 0 24 24" fill="none" xmlns="http://www.w3.org/2000/svg">
<path d="M10.5 19H13.5" stroke="currentColor" stroke-linecap="round" stroke-linejoin="round"/>
<path fill-rule="evenodd" clip-rule="evenodd" d="M11.9951 4.97241C12.2712 4.97248 12.4951 5.19631 12.4951 5.47241V12.2654L15.2666 9.4939C15.4618 9.29869 15.7784 9.29865 15.9736 9.4939C16.1688 9.68914 16.1688 10.0057 15.9736 10.2009L12.3486 13.8259C12.3099 13.8647 12.2651 13.8934 12.2187 13.9167C12.1794 13.9366 12.1382 13.9537 12.0937 13.9626C12.0287 13.9757 11.9615 13.9757 11.8964 13.9626C11.8453 13.9524 11.7981 13.9325 11.7539 13.908C11.714 13.8858 11.6754 13.8598 11.6416 13.8259L8.01656 10.2009C7.8213 10.0057 7.8213 9.68916 8.01656 9.4939C8.21183 9.29869 8.52835 9.29865 8.7236 9.4939L11.4951 12.2654V5.47241C11.4951 5.19627 11.7189 4.97241 11.9951 4.97241Z" fill="currentColor"/>
<path d="M17.5 1H14.1254H6.5C5.5 1 4.5 2 4.5 3V11.375V21C4.5 22 5.5 23 6.5 23H12H17.5C18.5 23 19.5 22 19.5 21V11.375V3C19.5 2 18.5 1 17.5 1Z" stroke="currentColor" stroke-linecap="round" stroke-linejoin="round"/>
</svg>
