<svg width="24" height="24" viewBox="0 0 24 24" fill="none" xmlns="http://www.w3.org/2000/svg">
<path d="M17.0039 12.5H7.00391C6.72776 12.5 6.50391 12.7239 6.50391 13V20C6.50391 20.2761 6.72776 20.5 7.00391 20.5H17.0039C17.28 20.5 17.5039 20.2761 17.5039 20V13C17.5039 12.7239 17.28 12.5 17.0039 12.5Z" stroke="currentColor" stroke-linecap="round" stroke-linejoin="round"/>
<path d="M6.50391 14.5H17.5039" stroke="currentColor" stroke-linecap="round" stroke-linejoin="round"/>
<path d="M9.50391 12.5V20.5" stroke="currentColor" stroke-linecap="round" stroke-linejoin="round"/>
<path d="M12.5039 12.5V20.5" stroke="currentColor" stroke-linecap="round" stroke-linejoin="round"/>
<path d="M20.5 22.5C20.5 22.7652 20.3946 23.0196 20.2071 23.2071C20.0196 23.3946 19.7652 23.5 19.5 23.5H4.5C4.23478 23.5 3.98043 23.3946 3.79289 23.2071C3.60536 23.0196 3.5 22.7652 3.5 22.5V1.5C3.5 1.23478 3.60536 0.98043 3.79289 0.792893C3.98043 0.605357 4.23478 0.5 4.5 0.5H13.5L20.5 7.5V22.5Z" stroke="currentColor" stroke-linecap="round" stroke-linejoin="round"/>
<path d="M13.5 0.5V6.5C13.5 6.76522 13.6054 7.01957 13.7929 7.20711C13.9804 7.39464 14.2348 7.5 14.5 7.5H20.5" stroke="currentColor" stroke-linecap="round" stroke-linejoin="round"/>
</svg>
