<svg width="24" height="24" viewBox="0 0 24 24" fill="none" xmlns="http://www.w3.org/2000/svg">
<path d="M4.9001 22.3H1.7001C1.4001 22.3 1.1001 22 1.1001 21.7V14.1C1.1001 13.8 1.4001 13.5 1.7001 13.5H4.9001C5.2001 13.5 5.5001 13.8 5.5001 14.1V21.7C5.5001 22 5.2001 22.3 4.9001 22.3Z" stroke="currentColor" stroke-linecap="round" stroke-linejoin="round"/>
<path d="M11.2998 2.30029C12.5158 2.30029 13.6039 2.84461 14.3369 3.69971C14.9395 3.44228 15.6031 3.30029 16.2998 3.30029C19.0612 3.30029 21.2998 5.53887 21.2998 8.30029C21.2998 11.0617 19.0612 13.3003 16.2998 13.3003C14.2413 13.3003 12.4737 12.0561 11.707 10.2788C11.573 10.2924 11.4372 10.3003 11.2998 10.3003C9.09067 10.3003 7.2998 8.50943 7.2998 6.30029C7.2998 4.09115 9.09067 2.30029 11.2998 2.30029ZM16.2998 4.30029C14.0907 4.30029 12.2998 6.09115 12.2998 8.30029C12.2998 10.5094 14.0907 12.3003 16.2998 12.3003C18.5089 12.3003 20.2998 10.5094 20.2998 8.30029C20.2998 6.09115 18.5089 4.30029 16.2998 4.30029ZM11.2998 3.30029C9.64295 3.30029 8.2998 4.64344 8.2998 6.30029C8.2998 7.95715 9.64295 9.30029 11.2998 9.30029C11.3332 9.30029 11.3663 9.29842 11.3994 9.29736C11.3342 8.97515 11.2998 8.64174 11.2998 8.30029C11.2998 6.60259 12.1459 5.1025 13.4395 4.19873C12.8947 3.64407 12.1377 3.30029 11.2998 3.30029Z" fill="currentColor"/>
<path d="M5.69995 14.8999H8.19995L11.3 16.3999H14.7C14.7 16.3999 15.9 16.2999 15.9 17.8999C15.9 19.1999 14.7 19.0999 14.7 19.0999H9.99995" stroke="currentColor" stroke-linecap="round" stroke-linejoin="round"/>
<path d="M5.69995 20.9H6.69995L11.6 22.9H13.4L22.2 19.5C22.2 19.5 23.7 18.9 23.2 17.7C22.9 17.1 22.2 16.7 21.3 17C20.4 17.3 15 19.1 15 19.1H10.4" stroke="currentColor" stroke-linecap="round" stroke-linejoin="round"/>
</svg>
