<svg width="24" height="24" viewBox="0 0 24 24" fill="none" xmlns="http://www.w3.org/2000/svg">
<path d="M17.3651 19.9258C17.6663 19.9258 17.8889 19.9901 17.9999 20.166C18.3804 20.7097 17.5559 21.9411 16.1767 22.9326C14.7974 23.9241 13.3706 24.2918 12.9901 23.748C12.6099 23.2042 13.4342 21.9729 14.8134 20.9814C15.7643 20.2941 16.731 19.91 17.3651 19.9258ZM11.1503 17.9434C11.9905 17.9434 12.5775 18.1516 12.7519 18.5674C13.1319 19.5109 11.2774 21.1736 8.59853 22.293C5.91923 23.3964 3.43019 23.5402 3.0497 22.5967C2.66963 21.6531 4.52402 19.9905 7.20302 18.8711C8.67724 18.2475 10.104 17.9275 11.1503 17.9434ZM20.7587 16.3604C20.7902 16.3604 20.8219 16.3601 20.8534 16.376C21.1388 16.5199 20.9959 17.3834 20.5204 18.2949C20.045 19.2061 19.427 19.8301 19.1415 19.6709C18.8562 19.527 18.999 18.6634 19.4745 17.752C19.9026 16.9363 20.4416 16.3444 20.7587 16.3604ZM16.9061 14.8408C17.334 14.8409 17.683 14.9853 17.8573 15.2891C18.1739 15.8648 17.6985 16.7605 16.7792 17.2881C15.8598 17.8158 14.8612 17.7992 14.5282 17.2236C14.2112 16.648 14.686 15.7524 15.6054 15.2246C16.0493 14.9687 16.5098 14.8408 16.9061 14.8408ZM19.7909 13.418C19.8701 13.418 19.9336 13.4339 19.997 13.4658C20.2982 13.6417 20.3143 14.1534 20.0448 14.6172C19.7911 15.0808 19.3311 15.336 19.0458 15.1602C18.745 14.984 18.7295 14.4723 18.9989 14.0088C19.2208 13.6574 19.5374 13.4182 19.7909 13.418ZM11.1347 9.75586C12.8627 9.75586 14.2577 10.7633 14.2577 12.0107C14.2574 13.2739 12.8623 14.2816 11.1503 14.2656C9.42264 14.2654 8.02758 13.2578 8.02724 12.0107C8.02724 10.7634 9.42255 9.75595 11.1347 9.75586ZM16.7157 11.0029C17.3498 11.003 17.8572 11.4502 17.8573 12.0098C17.8573 12.5695 17.334 13.0175 16.7157 13.0176C16.0974 13.0176 15.5897 12.5695 15.5897 12.0098C15.5899 11.4661 16.0975 11.0029 16.7157 11.0029ZM19.2841 8.7793C19.5536 8.7794 19.871 9.00336 20.077 9.37109C20.3306 9.83472 20.3143 10.3464 20.0292 10.5225C19.7439 10.6823 19.2997 10.4431 19.0302 9.97949C18.7765 9.51572 18.7927 9.00306 19.078 8.82715C19.1413 8.79523 19.205 8.76334 19.2841 8.7793ZM15.5263 6.31738C15.9226 6.31738 16.3822 6.44531 16.8261 6.70117C17.7456 7.22892 18.2371 8.12447 17.9042 8.7002C17.571 9.27547 16.5725 9.29128 15.6532 8.76367C14.7337 8.23593 14.2422 7.34037 14.5751 6.76465C14.7336 6.46082 15.0983 6.31741 15.5263 6.31738ZM19.2362 4.30176C19.5533 4.30176 20.0924 4.87775 20.5204 5.69336C20.9959 6.60485 21.1388 7.45239 20.8534 7.6123C20.5681 7.75607 19.95 7.14849 19.4745 6.2373C18.9989 5.32574 18.8561 4.47731 19.1415 4.31738C19.173 4.3016 19.2047 4.30176 19.2362 4.30176ZM4.65029 0.767578C5.69664 0.767578 7.10827 1.08761 8.59853 1.69531C11.2777 2.81477 13.1323 4.47836 12.7519 5.42188C12.355 6.36499 9.88195 6.23649 7.20302 5.11719C4.52389 3.99776 2.66934 2.33513 3.0497 1.3916C3.22407 0.975856 3.81021 0.767632 4.65029 0.767578ZM13.6083 0C14.2425 6.03665e-05 15.2099 0.384041 16.161 1.05566C17.54 2.04705 18.3645 3.2785 17.9843 3.82227C17.6038 4.366 16.1761 3.99836 14.7968 3.00684C13.418 2.01561 12.5938 0.784184 12.9735 0.240234C13.0845 0.0803116 13.3071 0 13.6083 0Z" fill="currentColor"/>
</svg>
