<svg width="24" height="24" viewBox="0 0 24 24" fill="none" xmlns="http://www.w3.org/2000/svg">
<path d="M19.8724 8.25805C20.9018 8.47856 21.8234 9.04469 22.4822 9.86122C23.1409 10.6778 23.4966 11.6949 23.4894 12.7414L23.5 13.6404C23.4956 14.0436 23.3326 14.429 23.0457 14.7141C22.7589 14.9992 22.3711 15.1613 21.9654 15.1656L18.1043 15.1434C17.7007 15.1405 17.3145 14.9799 17.0291 14.6962C16.7437 14.4126 16.5821 14.0287 16.5791 13.6276C16.5742 13.2253 16.4111 12.8408 16.1249 12.5563C15.8386 12.2717 15.4517 12.1097 15.0469 12.1048L8.95195 12.1036C8.75 12.1021 8.54976 12.1405 8.36289 12.2166C8.17602 12.2927 8.00624 12.405 7.86344 12.5469C7.72063 12.6889 7.60766 12.8576 7.53107 13.0433C7.45449 13.2291 7.41584 13.4281 7.41736 13.6288C7.41413 14.0295 7.25252 14.4129 6.96741 14.6962C6.6823 14.9796 6.29653 15.1402 5.89334 15.1434L2.03341 15.1434C1.62817 15.1388 1.24084 14.9768 0.954278 14.692C0.667711 14.4071 0.504659 14.0222 0.5 13.6194L0.510559 12.7204C0.503596 11.6742 0.859259 10.6575 1.51776 9.84126C2.17626 9.02499 3.09744 8.45893 4.12645 8.23823C9.32799 7.24769 14.6721 7.25402 19.8712 8.25688L19.8724 8.25805Z" stroke="currentColor" stroke-linecap="round" stroke-linejoin="round"/>
</svg>
