<svg width="24" height="24" viewBox="0 0 24 24" fill="none" xmlns="http://www.w3.org/2000/svg">
<path d="M15.1501 2.92798C18.532 3.80817 21.0487 6.65084 21.5208 10.1237C21.9928 13.5966 20.3267 17.0115 17.3032 18.768V22.8" stroke="currentColor" stroke-linecap="round" stroke-linejoin="round"/>
<ellipse cx="12.9972" cy="11.2801" rx="3.58846" ry="3.6" stroke="currentColor" stroke-linecap="round" stroke-linejoin="round"/>
<path d="M10.844 8.39995V1.91995C10.844 1.52231 11.1653 1.19995 11.5617 1.19995H14.4325C14.8267 1.20512 15.145 1.52447 15.1501 1.91995V8.39995" stroke="currentColor" stroke-linecap="round" stroke-linejoin="round"/>
<path d="M3.48516 15.3888C3.03219 15.2745 2.66298 14.9462 2.49543 14.5088C2.32789 14.0714 2.38296 13.5796 2.64307 13.1904L4.34639 10.5696V9.84955C4.34639 6.45115 7.08319 3.59995 10.8056 2.84155" stroke="currentColor" stroke-linecap="round" stroke-linejoin="round"/>
<path d="M8.69086 22.8V21.3696" stroke="currentColor" stroke-linecap="round" stroke-linejoin="round"/>
<path d="M12.9587 11.28C12.9587 13.1896 12.2026 15.0209 10.8567 16.3712C9.51074 17.7215 7.68526 18.48 5.78182 18.48H4.34644" stroke="currentColor" stroke-linecap="round" stroke-linejoin="round"/>
</svg>
