<svg width="24" height="24" viewBox="0 0 24 24" fill="none" xmlns="http://www.w3.org/2000/svg">
<path d="M4.19995 6.5425C4.19995 6.24412 4.46337 6 4.78532 6H9.61459C9.93654 6 10.2 6.24412 10.2 6.5425V17.4575C10.2 17.7559 9.93654 18 9.61459 18H4.78532C4.46337 18 4.19995 17.7559 4.19995 17.4575V6.5425Z" stroke="currentColor" stroke-linecap="round" stroke-linejoin="round"/>
<path d="M13.8 7.52569C13.8 7.34667 14.0635 7.2002 14.3854 7.2002H19.2147C19.5366 7.2002 19.8 7.34667 19.8 7.52569V14.0747C19.8 14.2537 19.5366 14.4002 19.2147 14.4002H14.3854C14.0635 14.4002 13.8 14.2537 13.8 14.0747V7.52569Z" stroke="currentColor" stroke-linecap="round" stroke-linejoin="round"/>
<path d="M7.16553 2.3999V5.87481" stroke="currentColor" stroke-linecap="round" stroke-linejoin="round"/>
<path d="M7.16553 18.6914V22.1663" stroke="currentColor" stroke-linecap="round" stroke-linejoin="round"/>
<path d="M16.8 2.3999V6.5999" stroke="currentColor" stroke-linecap="round" stroke-linejoin="round"/>
<path d="M16.8 14.3999L16.7654 20.9662" stroke="currentColor" stroke-linecap="round" stroke-linejoin="round"/>
</svg>
