<svg width="24" height="24" viewBox="0 0 24 24" fill="none" xmlns="http://www.w3.org/2000/svg">
<path d="M10.248 19.7144H3.77309C3.23096 19.7143 2.73008 19.4201 2.459 18.9428C2.18793 18.4655 2.18781 17.8774 2.4587 17.3999L5.3467 12.4126" stroke="currentColor" stroke-linecap="round" stroke-linejoin="round"/>
<path d="M18.6557 10.4541L22.5969 17.4006C22.8678 17.8781 22.8677 18.4662 22.5966 18.9435C22.3255 19.4208 21.8246 19.715 21.2825 19.7151H14.8047" stroke="currentColor" stroke-linecap="round" stroke-linejoin="round"/>
<path d="M7.27466 8.91304L11.2111 1.97142C11.4826 1.49413 11.9837 1.2002 12.526 1.2002C13.0682 1.2002 13.5694 1.49413 13.8408 1.97142L16.6722 6.95678" stroke="currentColor" stroke-linecap="round" stroke-linejoin="round"/>
<path d="M17.8396 16.6284L14.8047 19.7141L17.8396 22.7998" stroke="currentColor" stroke-linecap="round" stroke-linejoin="round"/>
<path d="M17.7849 2.74023L16.6741 6.95636L12.5283 5.82692" stroke="currentColor" stroke-linecap="round" stroke-linejoin="round"/>
<path d="M1.19995 13.542L5.34665 12.4126L6.45749 16.6287" stroke="currentColor" stroke-linecap="round" stroke-linejoin="round"/>
</svg>
