<svg width="24" height="24" viewBox="0 0 24 24" fill="none" xmlns="http://www.w3.org/2000/svg">
<g clip-path="url(#clip0_12_79313)">
<path d="M23.1429 10.7173V18C23.1429 18.5143 22.8 18.8572 22.2857 18.8572H1.71432C1.20003 18.8572 0.857178 18.5143 0.857178 18V4.28573C0.857178 3.77145 1.20003 3.42859 1.71432 3.42859H6.94653" stroke="currentColor" stroke-linecap="round" stroke-linejoin="round"/>
<path d="M10.2858 18.8572L8.57153 23.1429" stroke="currentColor" stroke-linecap="round" stroke-linejoin="round"/>
<path d="M13.7144 18.8572L15.4286 23.1429" stroke="currentColor" stroke-linecap="round" stroke-linejoin="round"/>
<path d="M6.85718 23.1428H17.1429" stroke="currentColor" stroke-linecap="round" stroke-linejoin="round"/>
<path d="M11.3142 3.42857C14.5714 0.171433 19.8857 0.171433 23.1428 3.42857" stroke="currentColor" stroke-linecap="round" stroke-linejoin="round"/>
<path d="M14.4092 6.05622C15.8811 4.58429 18.4045 4.58429 19.8764 6.05622" stroke="currentColor" stroke-linecap="round" stroke-linejoin="round"/>
<path d="M17.1429 9.981C16.9535 9.981 16.8 9.82751 16.8 9.63815C16.8 9.44879 16.9535 9.29529 17.1429 9.29529" stroke="currentColor" stroke-linecap="round" stroke-linejoin="round"/>
<path d="M17.1426 9.98112C17.3319 9.98112 17.4855 9.82763 17.4855 9.63827C17.4855 9.44891 17.3319 9.29541 17.1426 9.29541" stroke="currentColor" stroke-linecap="round" stroke-linejoin="round"/>
</g>
<defs>
<clipPath id="clip0_12_79313">
<rect width="24" height="24" fill="white"/>
</clipPath>
</defs>
</svg>
