<svg width="24" height="24" viewBox="0 0 24 24" fill="none" xmlns="http://www.w3.org/2000/svg">
<path d="M6 0.5H7.27246C7.58035 0.5 7.87212 0.640438 8.06445 0.880859C10.0823 3.40249 13.9177 3.40249 15.9355 0.880859C16.1279 0.640437 16.4196 0.5 16.7275 0.5H18C18.8284 0.5 19.5 1.17157 19.5 2V22C19.5 22.8284 18.8284 23.5 18 23.5H16.7275C16.4196 23.5 16.1279 23.3596 15.9355 23.1191C13.9177 20.5975 10.0823 20.5975 8.06445 23.1191C7.87212 23.3596 7.58035 23.5 7.27246 23.5H6C5.17157 23.5 4.5 22.8284 4.5 22V2C4.5 1.17157 5.17157 0.5 6 0.5Z" stroke="currentColor"/>
<path d="M5 8L19 8" stroke="currentColor" stroke-width="0.5" stroke-dasharray="2.4 2.4"/>
</svg>
