<svg width="24" height="24" viewBox="0 0 24 24" fill="none" xmlns="http://www.w3.org/2000/svg">
<g clip-path="url(#clip0_12_79953)">
<path d="M23.1369 14.6103C21.4411 15.8298 19.4475 16.4928 17.3546 16.5005C14.6505 16.4852 12.0611 15.3725 10.2126 13.3985C8.34883 11.4093 7.42458 8.69607 7.63081 5.98283C7.76831 4.11557 8.48632 2.34739 9.60917 0.853578C9.92235 0.442019 9.41057 -0.114348 8.9599 0.0152166C5.7594 0.922171 2.99428 3.11715 1.4284 6.05142C-0.152763 9.03141 -0.450663 12.6287 0.679827 15.8145C1.74157 18.8174 3.97964 21.3706 6.85933 22.7653C9.87652 24.2286 13.459 24.4192 16.5984 23.2073C20.1426 21.8431 22.8848 18.8936 23.9847 15.2582C24.1146 14.8085 23.557 14.3131 23.1369 14.6103ZM17.1712 21.7135C14.4367 23.0778 11.1827 23.215 8.31827 22.1556C5.59135 21.1419 3.36092 19.0232 2.14641 16.4014C0.86315 13.6424 0.824958 10.388 1.97073 7.58333C3.04775 4.94631 5.15596 2.82754 7.73775 1.6767C6.39339 4.21464 6.08021 7.24799 6.94335 10.007C7.81414 12.7812 9.81541 15.1667 12.4278 16.4776C13.9554 17.2474 15.6435 17.6437 17.3546 17.6513C19.0808 17.6437 20.7689 17.2321 22.2966 16.4623C21.2349 18.7183 19.4246 20.5856 17.1712 21.7135Z" fill="currentColor"/>
</g>
<defs>
<clipPath id="clip0_12_79953">
<rect width="24" height="24" fill="white"/>
</clipPath>
</defs>
</svg>
