<svg width="24" height="24" viewBox="0 0 24 24" fill="none" xmlns="http://www.w3.org/2000/svg">
<path d="M20.55 16.2999C22.15 15.4999 23.25 13.8999 23.25 11.9999C23.25 9.29991 21.05 7.0999 18.35 7.0999C17.35 7.0999 16.35 7.39991 15.55 7.99991C14.95 4.49991 11.95 1.8999 8.25 1.8999C4.15 1.8999 0.75 5.2999 0.75 9.3999C0.75 12.1999 2.25 14.5999 4.45 15.8999" stroke="currentColor" stroke-miterlimit="10" stroke-linecap="round" stroke-linejoin="round"/>
<path d="M11.45 14.1001H17.45" stroke="currentColor" stroke-miterlimit="10" stroke-linecap="round" stroke-linejoin="round"/>
<path d="M8.94995 14.1001H7.94995" stroke="currentColor" stroke-miterlimit="10" stroke-linecap="round" stroke-linejoin="round"/>
<path d="M14.95 11.6001L17.45 14.1001L14.95 16.6001" stroke="currentColor" stroke-miterlimit="10" stroke-linecap="round" stroke-linejoin="round"/>
<path d="M13.45 19.6001H7.44995" stroke="currentColor" stroke-miterlimit="10" stroke-linecap="round" stroke-linejoin="round"/>
<path d="M15.95 19.6001H16.95" stroke="currentColor" stroke-miterlimit="10" stroke-linecap="round" stroke-linejoin="round"/>
<path d="M9.94995 17.1001L7.44995 19.6001L9.94995 22.1001" stroke="currentColor" stroke-miterlimit="10" stroke-linecap="round" stroke-linejoin="round"/>
</svg>
