<svg width="24" height="24" viewBox="0 0 24 24" fill="none" xmlns="http://www.w3.org/2000/svg">
<path d="M12 9.75098C5.787 9.75098 0.75 7.73598 0.75 5.25098C0.75 2.76598 5.787 0.750977 12 0.750977C18.213 0.750977 23.25 2.76498 23.25 5.25098C23.25 6.57398 21.822 7.76398 19.55 8.58798" stroke="currentColor" stroke-linecap="round" stroke-linejoin="round"/>
<path d="M23.25 9.01598V5.25098" stroke="currentColor" stroke-linecap="round" stroke-linejoin="round"/>
<path d="M0.75 5.25098V11.251C0.75 13.318 4.236 15.06 8.985 15.587" stroke="currentColor" stroke-linecap="round" stroke-linejoin="round"/>
<path d="M0.75 11.251V17.251C0.75 19.211 3.884 20.879 8.258 21.496" stroke="currentColor" stroke-linecap="round" stroke-linejoin="round"/>
<path d="M15 18.751H11.25V22.501" stroke="currentColor" stroke-linecap="round" stroke-linejoin="round"/>
<path d="M22.667 19.484C22.2698 20.6447 21.5006 21.6419 20.4788 22.3209C19.457 22.9999 18.2397 23.3226 17.0157 23.2391C15.7917 23.1555 14.6295 22.6704 13.7094 21.8589C12.7894 21.0474 12.1628 19.9549 11.927 18.751" stroke="currentColor" stroke-linecap="round" stroke-linejoin="round"/>
<path d="M19.5 15.751H23.25V12.001" stroke="currentColor" stroke-linecap="round" stroke-linejoin="round"/>
<path d="M11.833 15.017C12.2309 13.8569 13.0004 12.8605 14.0222 12.1822C15.0439 11.5039 16.2609 11.1815 17.4845 11.2652C18.7081 11.3488 19.8699 11.8337 20.7899 12.6447C21.7099 13.4557 22.3366 14.5476 22.573 15.751" stroke="currentColor" stroke-linecap="round" stroke-linejoin="round"/>
</svg>
