<svg width="24" height="24" viewBox="0 0 24 24" fill="none" xmlns="http://www.w3.org/2000/svg">
<path d="M6.75 20.25L14.25 12.75" stroke="currentColor" stroke-linecap="round" stroke-linejoin="round"/>
<path d="M10.5 23.25L17.25 16.5" stroke="currentColor" stroke-linecap="round" stroke-linejoin="round"/>
<path d="M17.25 22.08C17.2581 22.2258 17.2374 22.3718 17.1889 22.5096C17.1405 22.6474 17.0654 22.7742 16.9678 22.8829C16.8703 22.9916 16.7523 23.08 16.6205 23.143C16.4887 23.206 16.3459 23.2423 16.2 23.25H7.80002C7.51442 23.2221 7.25075 23.0846 7.06431 22.8665C6.87786 22.6483 6.78314 22.3665 6.80002 22.08V13.92C6.78314 13.6335 6.87786 13.3517 7.06431 13.1335C7.25075 12.9154 7.51442 12.7779 7.80002 12.75H16.2C16.3459 12.7577 16.4887 12.794 16.6205 12.857C16.7523 12.92 16.8703 13.0084 16.9678 13.1171C17.0654 13.2258 17.1405 13.3526 17.1889 13.4904C17.2374 13.6282 17.2581 13.7742 17.25 13.92V22.08Z" stroke="currentColor" stroke-linecap="round" stroke-linejoin="round"/>
<path d="M3 8.10986L8.47 12.7499" stroke="currentColor" stroke-linecap="round" stroke-linejoin="round"/>
<path d="M21 8.10986L15.53 12.7499" stroke="currentColor" stroke-linecap="round" stroke-linejoin="round"/>
<path d="M21.87 8.11C22.0549 8.11322 22.2339 8.04519 22.37 7.92C22.4268 7.86801 22.4674 7.80073 22.4869 7.72622C22.5064 7.65172 22.504 7.57317 22.48 7.5C21.26 4 17 0.75 12 0.75C6.99999 0.75 2.73999 4 1.51999 7.5C1.49595 7.57317 1.49354 7.65172 1.51305 7.72622C1.53256 7.80073 1.57317 7.86801 1.62999 7.92C1.76608 8.04519 1.94511 8.11322 2.12999 8.11H21.87Z" stroke="currentColor" stroke-linecap="round" stroke-linejoin="round"/>
<path d="M12 12.7499V8.10986" stroke="currentColor" stroke-linecap="round" stroke-linejoin="round"/>
</svg>
