<svg width="24" height="24" viewBox="0 0 24 24" fill="none" xmlns="http://www.w3.org/2000/svg">
<path d="M9.60059 2.4C9.60059 3.72548 10.6751 4.8 12.0006 4.8C13.3261 4.8 14.4006 3.72548 14.4006 2.4C14.4006 1.07452 13.3261 0 12.0006 0C10.6751 0 9.60059 1.07452 9.60059 2.4Z" fill="currentColor"/>
<path d="M9.60059 12.0001C9.60059 13.3256 10.6751 14.4001 12.0006 14.4001C13.3261 14.4001 14.4006 13.3256 14.4006 12.0001C14.4006 10.6746 13.3261 9.6001 12.0006 9.6001C10.6751 9.6001 9.60059 10.6746 9.60059 12.0001Z" fill="currentColor"/>
<path d="M9.60059 21.6C9.60059 22.9254 10.6751 24 12.0006 24C13.3261 24 14.4006 22.9254 14.4006 21.6C14.4006 20.2745 13.3261 19.2 12.0006 19.2C10.6751 19.2 9.60059 20.2745 9.60059 21.6Z" fill="currentColor"/>
</svg>
