<svg width="24" height="24" viewBox="0 0 24 24" fill="none" xmlns="http://www.w3.org/2000/svg">
<path d="M21.6 9.6001C20.2745 9.6001 19.2 10.6746 19.2 12.0001C19.2 13.3256 20.2745 14.4001 21.6 14.4001C22.9255 14.4001 24 13.3256 24 12.0001C24 10.6746 22.9255 9.6001 21.6 9.6001Z" fill="currentColor"/>
<path d="M11.9994 9.6001C10.6739 9.6001 9.59941 10.6746 9.59941 12.0001C9.59941 13.3256 10.6739 14.4001 11.9994 14.4001C13.3249 14.4001 14.3994 13.3256 14.3994 12.0001C14.3994 10.6746 13.3249 9.6001 11.9994 9.6001Z" fill="currentColor"/>
<path d="M2.40005 9.6001C1.07457 9.6001 4.86374e-05 10.6746 4.86374e-05 12.0001C4.86374e-05 13.3256 1.07457 14.4001 2.40005 14.4001C3.72553 14.4001 4.80005 13.3256 4.80005 12.0001C4.80005 10.6746 3.72553 9.6001 2.40005 9.6001Z" fill="currentColor"/>
</svg>
