<svg width="24" height="24" viewBox="0 0 24 24" fill="none" xmlns="http://www.w3.org/2000/svg">
<g clip-path="url(#clip0_12_79922)">
<path d="M1.45312 12C1.45313 14.7972 2.56431 17.4798 4.54223 19.4578C6.52016 21.4357 9.20279 22.5469 12 22.5469C14.7972 22.5469 17.4798 21.4357 19.4578 19.4578C21.4357 17.4798 22.5469 14.7972 22.5469 12C22.5469 9.20279 21.4357 6.52016 19.4578 4.54223C17.4798 2.56431 14.7972 1.45313 12 1.45312C9.20279 1.45313 6.52016 2.56431 4.54223 4.54223C2.56431 6.52016 1.45313 9.20279 1.45312 12Z" stroke="currentColor" stroke-linecap="round" stroke-linejoin="round"/>
<path d="M10.0125 22.3594C8.54063 20.2969 7.54688 16.425 7.54688 12.0469C7.54688 7.66875 8.54063 3.70312 10.0125 1.6875" stroke="currentColor" stroke-linecap="round" stroke-linejoin="round"/>
<path d="M13.9875 22.3594C15.4594 20.2969 16.4532 16.425 16.4532 12.0469C16.4532 7.66875 15.4594 3.70312 13.9875 1.6875" stroke="currentColor" stroke-linecap="round" stroke-linejoin="round"/>
<path d="M1.45312 12H22.5469" stroke="currentColor" stroke-linecap="round" stroke-linejoin="round"/>
<path d="M2.67188 16.9219H21.3281" stroke="currentColor" stroke-linecap="round" stroke-linejoin="round"/>
<path d="M2.67188 7.07812H21.3281" stroke="currentColor" stroke-linecap="round" stroke-linejoin="round"/>
</g>
<defs>
<clipPath id="clip0_12_79922">
<rect width="24" height="24" fill="white"/>
</clipPath>
</defs>
</svg>
