<svg width="24" height="24" viewBox="0 0 24 24" fill="none" xmlns="http://www.w3.org/2000/svg">
<g clip-path="url(#clip0_12_78977)">
<path d="M11.249 17.252C11.249 18.0399 11.4042 18.8201 11.7057 19.5481C12.0073 20.276 12.4492 20.9374 13.0064 21.4946C13.5635 22.0517 14.225 22.4937 14.9529 22.7952C15.6809 23.0968 16.4611 23.252 17.249 23.252C18.037 23.252 18.8172 23.0968 19.5451 22.7952C20.2731 22.4937 20.9345 22.0517 21.4917 21.4946C22.0488 20.9374 22.4908 20.276 22.7923 19.5481C23.0938 18.8201 23.249 18.0399 23.249 17.252C23.249 16.464 23.0938 15.6838 22.7923 14.9559C22.4908 14.2279 22.0488 13.5665 21.4917 13.0093C20.9345 12.4522 20.2731 12.0102 19.5451 11.7087C18.8172 11.4071 18.037 11.252 17.249 11.252C16.4611 11.252 15.6809 11.4071 14.9529 11.7087C14.225 12.0102 13.5635 12.4522 13.0064 13.0093C12.4492 13.5665 12.0073 14.2279 11.7057 14.9559C11.4042 15.6838 11.249 16.464 11.249 17.252Z" stroke="currentColor" stroke-linecap="round" stroke-linejoin="round"/>
<path d="M14.249 17.252H20.249" stroke="currentColor" stroke-linecap="round" stroke-linejoin="round"/>
<path d="M20.249 17.252L17.999 19.502" stroke="currentColor" stroke-linecap="round" stroke-linejoin="round"/>
<path d="M20.249 17.252L17.999 15.002" stroke="currentColor" stroke-linecap="round" stroke-linejoin="round"/>
<path d="M8.24902 15.752H2.24902C1.8512 15.752 1.46967 15.5939 1.18836 15.3126C0.907059 15.0313 0.749023 14.6498 0.749023 14.252V2.25195C0.749023 1.85413 0.907059 1.4726 1.18836 1.19129C1.46967 0.909988 1.8512 0.751953 2.24902 0.751953H20.249C20.6468 0.751953 21.0284 0.909988 21.3097 1.19129C21.591 1.4726 21.749 1.85413 21.749 2.25195V8.99995" stroke="currentColor" stroke-linecap="round" stroke-linejoin="round"/>
<path d="M21.4089 1.30005L13.2649 7.56605C12.6868 8.01083 11.9778 8.25198 11.2484 8.25198C10.519 8.25198 9.81001 8.01083 9.23189 7.56605L1.08789 1.30005" stroke="currentColor" stroke-linecap="round" stroke-linejoin="round"/>
</g>
<defs>
<clipPath id="clip0_12_78977">
<rect width="24" height="24" fill="white"/>
</clipPath>
</defs>
</svg>
