<svg width="32" height="32" viewBox="0 0 32 32" fill="none" xmlns="http://www.w3.org/2000/svg">
<path d="M4 19V14C4 13.4477 4.44772 13 5 13H28C28.5523 13 29 13.4477 29 14V19" stroke="currentColor" stroke-linecap="square"/>
<path d="M1.35352 19.5H30.6465C30.9827 19.5003 31.2229 19.8261 31.124 20.1475L27.7393 31.1475C27.6746 31.3569 27.481 31.4999 27.2617 31.5H4.73828C4.51904 31.4999 4.32539 31.3569 4.26074 31.1475L0.875977 20.1475C0.789449 19.8662 0.962593 19.5815 1.23242 19.5146L1.35352 19.5Z" stroke="currentColor" stroke-linecap="square"/>
<path d="M16 7L15.5 3" stroke="currentColor" stroke-linecap="round"/>
<path d="M12 8L11 7" stroke="currentColor" stroke-linecap="round"/>
<path d="M20 8L21 6.5" stroke="currentColor" stroke-linecap="round"/>
</svg>
