<svg width="24" height="24" viewBox="0 0 24 24" fill="none" xmlns="http://www.w3.org/2000/svg">
<path d="M12 0.5C12.755 0.5 13.5026 0.573429 14.2432 0.720703C14.9836 0.867994 15.7029 1.08612 16.4004 1.375C17.0981 1.66398 17.7608 2.01895 18.3887 2.43848C19.0166 2.85803 19.5978 3.33417 20.1318 3.86816C20.6658 4.40216 21.142 4.98342 21.5615 5.61133C21.981 6.23921 22.336 6.90195 22.625 7.59961C22.9139 8.29714 23.132 9.01636 23.2793 9.75684C23.4266 10.4974 23.5 11.245 23.5 12L23.4863 12.5654C23.4587 13.1287 23.3897 13.6879 23.2793 14.2432C23.132 14.9836 22.9139 15.7029 22.625 16.4004C22.336 17.0981 21.9811 17.7608 21.5615 18.3887C21.142 19.0166 20.6658 19.5978 20.1318 20.1318C19.5978 20.6658 19.0166 21.142 18.3887 21.5615C17.7608 21.981 17.0981 22.336 16.4004 22.625C15.7029 22.9139 14.9836 23.132 14.2432 23.2793C13.5026 23.4266 12.755 23.5 12 23.5L11.4346 23.4863C10.8713 23.4587 10.3121 23.3897 9.75684 23.2793C9.01636 23.132 8.29714 22.9139 7.59961 22.625C6.90195 22.336 6.23921 21.9811 5.61133 21.5615C4.98342 21.142 4.40216 20.6658 3.86816 20.1318C3.33417 19.5978 2.85803 19.0166 2.43848 18.3887C2.01895 17.7608 1.66398 17.0981 1.375 16.4004C1.08612 15.7029 0.867994 14.9836 0.720703 14.2432C0.573429 13.5026 0.5 12.755 0.5 12L0.513672 11.4346C0.541297 10.8713 0.610283 10.3121 0.720703 9.75684C0.867994 9.01636 1.08612 8.29714 1.375 7.59961C1.66398 6.90195 2.01895 6.23921 2.43848 5.61133C2.85803 4.98342 3.33417 4.40216 3.86816 3.86816C4.40216 3.33417 4.98342 2.85803 5.61133 2.43848C6.23921 2.01895 6.90195 1.66398 7.59961 1.375C8.29714 1.08612 9.01636 0.867994 9.75684 0.720703C10.4974 0.573429 11.245 0.5 12 0.5Z" stroke="currentColor" stroke-linecap="round" stroke-linejoin="round"/>
<path d="M7.10864 7.10864L16.8913 16.8913" stroke="currentColor" stroke-linecap="round" stroke-linejoin="round"/>
<path d="M16.8913 7.10864L7.10864 16.8913" stroke="currentColor" stroke-linecap="round" stroke-linejoin="round"/>
</svg>
