<svg width="24" height="24" viewBox="0 0 24 24" fill="none" xmlns="http://www.w3.org/2000/svg">
<g clip-path="url(#clip0_12_80111)">
<path d="M0.75 8.24805V2.24805C0.75 1.85022 0.908035 1.46869 1.18934 1.18739C1.47064 0.906082 1.85218 0.748047 2.25 0.748047H8.25" stroke="currentColor" stroke-linecap="round" stroke-linejoin="round"/>
<path d="M23.25 8.24805V2.24805C23.25 1.85022 23.092 1.46869 22.8107 1.18739C22.5294 0.906082 22.1478 0.748047 21.75 0.748047H15.75" stroke="currentColor" stroke-linecap="round" stroke-linejoin="round"/>
<path d="M0.75 15.748V21.748C0.75 22.1459 0.908035 22.5274 1.18934 22.8087C1.47064 23.09 1.85218 23.248 2.25 23.248H8.25" stroke="currentColor" stroke-linecap="round" stroke-linejoin="round"/>
<path d="M23.25 15.748V21.748C23.25 22.1459 23.092 22.5274 22.8107 22.8087C22.5294 23.09 22.1478 23.248 21.75 23.248H15.75" stroke="currentColor" stroke-linecap="round" stroke-linejoin="round"/>
<path d="M5.25 5.24805H18.75V18.748H5.25V5.24805Z" stroke="currentColor" stroke-linecap="round" stroke-linejoin="round"/>
</g>
<defs>
<clipPath id="clip0_12_80111">
<rect width="24" height="24" fill="white"/>
</clipPath>
</defs>
</svg>
