<svg width="24" height="24" viewBox="0 0 24 24" fill="none" xmlns="http://www.w3.org/2000/svg">
<g clip-path="url(#clip0_12_80367)">
<path d="M9.3645 14.4179L22.7812 1.21875" stroke="currentColor" stroke-linecap="round" stroke-linejoin="round"/>
<path d="M22.7812 8.76179V1.21875H15.1145" stroke="currentColor" stroke-linecap="round" stroke-linejoin="round"/>
<path d="M17.5812 11.7385C18.1748 13.5187 18.1549 15.4463 17.5249 17.2139C16.8948 18.9814 15.6909 20.487 14.1052 21.4903C12.5194 22.4936 10.6433 22.9369 8.77625 22.7494C6.90917 22.5618 5.1587 21.7543 3.8042 20.4556C2.4497 19.157 1.56922 17.4421 1.30328 15.5845C1.03733 13.727 1.40125 11.8339 2.33696 10.2074C3.27266 8.58082 4.72622 7.31458 6.46568 6.6107C8.20514 5.90681 10.1302 5.80586 11.9338 6.32395" stroke="currentColor" stroke-linecap="round" stroke-linejoin="round"/>
</g>
<defs>
<clipPath id="clip0_12_80367">
<rect width="24" height="24" fill="white"/>
</clipPath>
</defs>
</svg>
