<svg width="20" height="21" viewBox="0 0 20 21" fill="none" xmlns="http://www.w3.org/2000/svg">
<path fill-rule="evenodd" clip-rule="evenodd" d="M17.8682 8.41759C18.1979 6.21788 16.5208 5.03483 14.2313 4.24554L14.9744 1.26471L13.1605 0.813535L12.4368 3.71552C11.9601 3.59584 11.4712 3.48457 10.9822 3.37331L11.712 0.452446L9.89818 0L9.15508 2.97981L9.03259 2.95149C8.67941 2.87111 8.33338 2.79149 7.99653 2.70676L5.49672 2.07288L5.01391 4.01051C5.01391 4.01051 6.36027 4.31903 6.33169 4.33792C7.06663 4.52165 7.19933 5.00753 7.17687 5.39388L6.33067 8.78914C6.35925 8.79628 6.39192 8.80522 6.42764 8.8167L6.32761 8.8019L5.1415 13.5586C5.05168 13.7811 4.82405 14.1159 4.30959 13.9888C4.31674 13.9993 4.10748 13.9488 3.85332 13.8845C3.47258 13.788 2.99079 13.6604 2.99079 13.6604L2.09049 15.7363L4.4525 16.3253L4.93429 16.4491L5.20887 16.5205L5.74374 16.6591L4.99349 19.6734L6.80634 20.1248L7.54944 17.144C7.81688 17.2159 8.08023 17.2853 8.34052 17.3524L8.99584 17.5186L8.25478 20.4869L10.0686 20.9383L10.8189 17.9302C13.9128 18.5158 16.2391 18.2795 17.218 15.4814C18.007 13.2289 17.1792 11.9284 15.5511 11.0815C16.7372 10.8087 17.6293 10.0288 17.8682 8.41759ZM8.49465 15.0504C9.97372 15.4416 13.2095 16.2965 13.7229 14.229C14.2506 12.117 11.1149 11.4125 9.58277 11.0682L9.30819 11.0057L9.1367 10.9649L8.13943 14.9585C8.24151 14.9838 8.36094 15.0152 8.49465 15.0504ZM14.2823 8.38467C13.8148 10.2628 11.1251 9.545 9.89104 9.21556L9.59094 9.13721L10.4933 5.51612C10.5964 5.54189 10.7229 5.56996 10.8669 5.6016C12.1448 5.88409 14.762 6.46286 14.2823 8.38467Z" fill="white"/>
</svg>
