<svg width="20" height="20" viewBox="0 0 20 20" fill="none" xmlns="http://www.w3.org/2000/svg">
<path d="M13.9062 3.125C12.293 3.125 10.8805 3.81875 10 4.99141C9.11953 3.81875 7.70703 3.125 6.09375 3.125C4.80955 3.12645 3.57837 3.63723 2.6703 4.5453C1.76223 5.45337 1.25145 6.68455 1.25 7.96875C1.25 13.4375 9.35859 17.8648 9.70391 18.0469C9.79492 18.0958 9.89665 18.1215 10 18.1215C10.1033 18.1215 10.2051 18.0958 10.2961 18.0469C10.6414 17.8648 18.75 13.4375 18.75 7.96875C18.7486 6.68455 18.2378 5.45337 17.3297 4.5453C16.4216 3.63723 15.1904 3.12645 13.9062 3.125ZM10 16.7813V8.125C10.0002 7.21708 10.3299 6.34009 10.9277 5.65677C11.5255 4.97346 12.3509 4.53024 13.2508 4.40938C13.4686 4.38697 13.6873 4.3755 13.9062 4.375C14.859 4.37624 15.7724 4.75526 16.446 5.42896C17.1197 6.10265 17.4988 7.01601 17.5 7.96875C17.5 12.157 11.4258 15.9492 10 16.7813Z" fill="currentColor"/>
</svg>
