<svg width="24" height="24" viewBox="0 0 24 24" fill="none" xmlns="http://www.w3.org/2000/svg">
<path d="M16.3069 5.67188C16.8663 5.67187 17.4029 5.44964 17.7984 5.05405C18.194 4.65847 18.4163 4.12194 18.4163 3.5625C18.4163 3.00306 18.194 2.46653 17.7984 2.07095C17.4029 1.67536 16.8663 1.45313 16.3069 1.45312C15.7474 1.45313 15.2109 1.67536 14.8153 2.07095C14.4197 2.46653 14.1975 3.00306 14.1975 3.5625C14.1975 4.12194 14.4197 4.65847 14.8153 5.05405C15.2109 5.44964 15.7474 5.67187 16.3069 5.67188Z" stroke="currentColor" stroke-linecap="round" stroke-linejoin="round"/>
<path d="M15.6038 9.8907C16.3497 9.8907 17.0651 9.59439 17.5925 9.06694C18.1199 8.5395 18.4163 7.82412 18.4163 7.0782V3.56445" stroke="currentColor" stroke-linecap="round" stroke-linejoin="round"/>
<path d="M14.374 22.543H19.6465" stroke="currentColor" stroke-linecap="round" stroke-linejoin="round"/>
<path d="M17.01 22.545V14.6363C17.0102 14.537 16.9823 14.4396 16.9295 14.3555C16.8768 14.2713 16.8013 14.2038 16.7119 14.1606C16.6224 14.1175 16.5225 14.1006 16.4238 14.1117C16.3251 14.1229 16.2316 14.1618 16.1541 14.2238L14.3728 15.646" stroke="currentColor" stroke-linecap="round" stroke-linejoin="round"/>
<path d="M7.16626 4.96875V19.0312" stroke="currentColor" stroke-linecap="round" stroke-linejoin="round"/>
<path d="M4.35376 16.2188L7.16626 19.0312L9.97876 16.2188" stroke="currentColor" stroke-linecap="round" stroke-linejoin="round"/>
</svg>
