<svg width="24" height="24" viewBox="0 0 24 24" fill="none" xmlns="http://www.w3.org/2000/svg">
<path d="M20.4615 11.881V8.84131M2 8.84131V19.4803C2 19.6819 2.03904 19.8757 2.11711 20.0619C2.19518 20.2481 2.30635 20.4125 2.4506 20.555C2.59486 20.6975 2.76123 20.8073 2.94972 20.8845C3.1382 20.9616 3.33445 21.0002 3.53846 21.0002H18.9231C19.1271 21.0002 19.3233 20.9616 19.5118 20.8845C19.7003 20.8073 19.8667 20.6975 20.0109 20.555C20.1552 20.4125 20.2664 20.2481 20.3444 20.0619C20.4225 19.8757 20.4615 19.6819 20.4615 19.4803V15.6807" stroke="currentColor" stroke-linecap="round" stroke-linejoin="round"/>
<path fill-rule="evenodd" clip-rule="evenodd" d="M16.6155 11.8809H22.0001V15.6805H16.6155V11.8809Z" stroke="currentColor" stroke-linecap="round" stroke-linejoin="round"/>
<path d="M9.7207 1.65181L14.2212 6.15234" stroke="currentColor" stroke-linecap="round" stroke-linejoin="round"/>
<path d="M9.72026 1.65181L5.21973 6.15234" stroke="currentColor" stroke-linecap="round" stroke-linejoin="round"/>
<path d="M9.7207 12.3164V1.65641" stroke="currentColor" stroke-linecap="round" stroke-linejoin="round"/>
</svg>
