<svg width="24" height="24" viewBox="0 0 24 24" fill="none" xmlns="http://www.w3.org/2000/svg">
<g clip-path="url(#clip0_12_79301)">
<path d="M17.25 23.25C20.5637 23.25 23.25 20.5637 23.25 17.25C23.25 13.9363 20.5637 11.25 17.25 11.25C13.9363 11.25 11.25 13.9363 11.25 17.25C11.25 20.5637 13.9363 23.25 17.25 23.25Z" stroke="currentColor" stroke-linecap="round" stroke-linejoin="round"/>
<path d="M19.5 15L15 19.5" stroke="currentColor" stroke-linecap="round" stroke-linejoin="round"/>
<path d="M15 15L19.5 19.5" stroke="currentColor" stroke-linecap="round" stroke-linejoin="round"/>
<path d="M12 1.74996C10.859 1.09471 9.56589 0.750722 8.25014 0.752448C6.93438 0.754174 5.64217 1.10155 4.5029 1.75979C3.36364 2.41804 2.4173 3.36404 1.75866 4.50308C1.10002 5.64212 0.752187 6.93421 0.75 8.24996" stroke="currentColor" stroke-linecap="round" stroke-linejoin="round"/>
<path d="M15.7399 7.92C15.7045 6.9998 15.4976 6.09429 15.1299 5.25" stroke="currentColor" stroke-linecap="round" stroke-linejoin="round"/>
<path d="M8.25 23.25C8.6214 23.249 8.99229 23.2223 9.36 23.17" stroke="currentColor" stroke-linecap="round" stroke-linejoin="round"/>
<path d="M0.750003 12.75V15.75C0.748808 17.2104 1.17399 18.6393 1.97337 19.8615C2.77275 21.0837 3.91155 22.0459 5.25 22.63" stroke="currentColor" stroke-linecap="round" stroke-linejoin="round"/>
<path d="M12.75 9.49996V8.24996C12.7505 7.4598 12.5429 6.68343 12.1482 5.99894C11.7534 5.31446 11.1854 4.74598 10.5013 4.35068C9.81708 3.95538 9.04088 3.7472 8.25072 3.74707C7.46056 3.74694 6.6843 3.95488 6 4.34996" stroke="currentColor" stroke-linecap="round" stroke-linejoin="round"/>
<path d="M3.75 8.25V15.75C3.75 16.9435 4.22411 18.0881 5.06802 18.932C5.91193 19.7759 7.05653 20.25 8.25 20.25" stroke="currentColor" stroke-linecap="round" stroke-linejoin="round"/>
<path d="M9.75 11.25V8.25C9.75 7.85218 9.59196 7.47064 9.31066 7.18934C9.02936 6.90804 8.64782 6.75 8.25 6.75C7.85218 6.75 7.47064 6.90804 7.18934 7.18934C6.90804 7.47064 6.75 7.85218 6.75 8.25V11.25" stroke="currentColor" stroke-linecap="round" stroke-linejoin="round"/>
<path d="M6.75 15.75C6.75 16.1478 6.90804 16.5294 7.18934 16.8107C7.47064 17.092 7.85218 17.25 8.25 17.25" stroke="currentColor" stroke-linecap="round" stroke-linejoin="round"/>
</g>
<defs>
<clipPath id="clip0_12_79301">
<rect width="24" height="24" fill="white"/>
</clipPath>
</defs>
</svg>
