<svg width="24" height="24" viewBox="0 0 24 24" fill="none" xmlns="http://www.w3.org/2000/svg">
<g clip-path="url(#clip0_12_79460)">
<path d="M10.6991 5.56021L6.45071 12.6228C6.25563 12.9471 6.36092 13.3703 6.68523 13.5653L17.8676 20.2919C18.5162 20.6821 19.3626 20.4715 19.7527 19.8229L23.2931 13.9375C23.6832 13.2889 23.4726 12.4425 22.824 12.0523L11.6417 5.3257C11.3174 5.13062 10.8942 5.23591 10.6991 5.56021Z" stroke="currentColor" stroke-miterlimit="10"/>
<path d="M5.04659 2.96308C4.72229 2.768 4.29909 2.87329 4.10402 3.1976L1.27176 7.90596C1.07668 8.23026 1.18197 8.65346 1.50627 8.84854L6.21464 11.6808L9.75496 5.79534L5.04659 2.96308Z" stroke="currentColor" stroke-miterlimit="10"/>
<path d="M2.58177 6.59885L2.01099 7.54773L4.28109 8.91328L4.85188 7.9644L2.58177 6.59885Z" fill="currentColor"/>
<path d="M3.35214 5.31667L2.78857 6.25354L5.05868 7.61909L5.62224 6.68222L3.35214 5.31667Z" fill="currentColor"/>
<path d="M4.13329 4.01975L3.5625 4.96863L5.83261 6.33418L6.40339 5.3853L4.13329 4.01975Z" fill="currentColor"/>
</g>
<defs>
<clipPath id="clip0_12_79460">
<rect width="24" height="24" fill="white"/>
</clipPath>
</defs>
</svg>
