<svg width="24" height="24" viewBox="0 0 24 24" fill="none" xmlns="http://www.w3.org/2000/svg">
<path d="M4.90067 10.726H2.5C1.67157 10.726 1 11.3976 1 12.226L1 21.5C1 22.3284 1.67157 23 2.5 23H6.18886C7.01729 23 7.68886 22.3284 7.68886 21.5V11.4091C7.68886 11.1641 7.74885 10.9229 7.8636 10.7064L12.5871 1.79736C12.8472 1.30677 13.3571 1 13.9124 1L14.4775 1C15.4273 1 16.1379 1.87147 15.9469 2.80179L14.6894 8.92424C14.4983 9.85456 15.209 10.726 16.1587 10.726H21.2324C22.1582 10.726 22.863 11.5566 22.7124 12.4701L21.1829 21.7441C21.0634 22.4685 20.4371 23 19.7029 23H10.3725" stroke="currentColor" stroke-linecap="round"/>
</svg>
