<svg width="48" height="48" viewBox="0 0 48 48" fill="none" xmlns="http://www.w3.org/2000/svg">
<rect width="48" height="48" rx="24" fill="currentColor"/>
<g clip-path="url(#clip0_12_78864)">
<path d="M27.8572 20.5714C29.7895 20.5714 31.6426 21.339 33.009 22.7053C34.3753 24.0717 35.1429 25.9248 35.1429 27.8571C35.1475 29.2912 34.7236 30.694 33.9258 31.8857L35.1429 35.1428L31.0458 34.4057C30.0604 34.8862 28.9794 35.1381 27.8831 35.1428C26.7869 35.1474 25.7037 34.9046 24.7144 34.4324C23.725 33.9603 22.8549 33.2709 22.169 32.4158C21.4831 31.5606 20.999 30.5617 20.7528 29.4935C20.5066 28.4252 20.5046 27.3152 20.747 26.2461C20.9894 25.1769 21.47 24.1763 22.1528 23.3187C22.8357 22.4611 23.7033 21.7687 24.691 21.293C25.6787 20.8174 26.7609 20.5707 27.8572 20.5714V20.5714Z" stroke="white" stroke-linecap="round" stroke-linejoin="round"/>
<path d="M28.9032 16.3027C27.7487 14.8337 26.1649 13.7612 24.3723 13.2346C22.5797 12.708 20.6675 12.7534 18.9019 13.3645C17.1364 13.9757 15.6053 15.1222 14.5219 16.6444C13.4385 18.1665 12.8567 19.9887 12.8575 21.857C12.8521 23.633 13.3775 25.3702 14.366 26.8456L12.8575 30.857L16.4917 30.2056" stroke="white" stroke-linecap="round" stroke-linejoin="round"/>
</g>
<defs>
<clipPath id="clip0_12_78864">
<rect width="24" height="24" fill="white" transform="translate(12 12)"/>
</clipPath>
</defs>
</svg>
