<svg width="24" height="24" viewBox="0 0 24 24" fill="none" xmlns="http://www.w3.org/2000/svg">
<g clip-path="url(#clip0_12_79056)">
<path d="M15.8572 8.57153C17.7895 8.57153 19.6426 9.33913 21.009 10.7055C22.3753 12.0718 23.1429 13.925 23.1429 15.8572C23.1475 17.2914 22.7236 18.6941 21.9258 19.8858L23.1429 23.143L19.0458 22.4058C18.0604 22.8863 16.9794 23.1383 15.8831 23.1429C14.7869 23.1475 13.7037 22.9047 12.7144 22.4325C11.725 21.9604 10.8549 21.271 10.169 20.4159C9.4831 19.5607 8.999 18.5618 8.75278 17.4936C8.50657 16.4253 8.5046 15.3153 8.74701 14.2462C8.98942 13.1771 9.46996 12.1764 10.1528 11.3189C10.8357 10.4613 11.7033 9.76884 12.691 9.29316C13.6787 8.81747 14.7609 8.57081 15.8572 8.57153V8.57153Z" stroke="currentColor" stroke-linecap="round" stroke-linejoin="round"/>
<path d="M16.9032 4.30274C15.7487 2.83372 14.1649 1.76123 12.3723 1.2346C10.5797 0.707958 8.66751 0.753382 6.90193 1.36454C5.13635 1.97571 3.60528 3.12219 2.52188 4.64437C1.43848 6.16655 0.856669 7.98867 0.857462 9.85703C0.852148 11.633 1.37746 13.3702 2.36603 14.8456L0.857462 18.857L4.49175 18.2056" stroke="currentColor" stroke-linecap="round" stroke-linejoin="round"/>
</g>
<defs>
<clipPath id="clip0_12_79056">
<rect width="24" height="24" fill="white"/>
</clipPath>
</defs>
</svg>
