<svg width="24" height="24" viewBox="0 0 24 24" fill="none" xmlns="http://www.w3.org/2000/svg">
<g clip-path="url(#clip0_12_79062)">
<path d="M22.986 13.6C23.3153 12.1594 23.3368 10.6654 23.0491 9.21591C22.7613 7.76641 22.1709 6.39397 21.3163 5.18833C20.4617 3.9827 19.3623 2.97103 18.0899 2.21949C16.8175 1.46794 15.4008 0.993453 13.9324 0.827041C12.464 0.66063 10.977 0.806049 9.56871 1.25379C8.16039 1.70153 6.86243 2.4415 5.75974 3.42532C4.65704 4.40913 3.77443 5.61464 3.16962 6.96299C2.56482 8.31134 2.25145 9.77217 2.25 11.25C2.24983 13.2036 2.79832 15.1179 3.833 16.775L0.75 23.25L7.224 20.167C7.491 20.332 7.764 20.486 8.046 20.628" stroke="currentColor" stroke-linecap="round" stroke-linejoin="round"/>
<path d="M17.25 21C17.0429 21 16.875 20.8321 16.875 20.625C16.875 20.4179 17.0429 20.25 17.25 20.25" stroke="currentColor"/>
<path d="M17.25 21C17.4571 21 17.625 20.8321 17.625 20.625C17.625 20.4179 17.4571 20.25 17.25 20.25" stroke="currentColor"/>
<path d="M17.25 18V15" stroke="currentColor" stroke-linecap="round" stroke-linejoin="round"/>
<path d="M23.0616 20.682C23.1972 20.9524 23.2615 21.253 23.2481 21.5552C23.2347 21.8574 23.1443 22.1512 22.9853 22.4086C22.8264 22.666 22.6042 22.8784 22.3399 23.0257C22.0757 23.173 21.7781 23.2502 21.4756 23.25H13.0236C12.7211 23.2501 12.4236 23.1728 12.1594 23.0256C11.8951 22.8783 11.6729 22.6659 11.5139 22.4086C11.3549 22.1512 11.2643 21.8575 11.2508 21.5553C11.2372 21.2531 11.3012 20.9525 11.4366 20.682L15.6626 12.231C15.8099 11.9361 16.0364 11.6882 16.3167 11.5149C16.597 11.3416 16.92 11.2498 17.2496 11.2498C17.5792 11.2498 17.9022 11.3416 18.1825 11.5149C18.4628 11.6882 18.6893 11.9361 18.8366 12.231L23.0616 20.682Z" stroke="currentColor" stroke-linecap="round" stroke-linejoin="round"/>
</g>
<defs>
<clipPath id="clip0_12_79062">
<rect width="24" height="24" fill="white"/>
</clipPath>
</defs>
</svg>
