<svg width="24" height="24" viewBox="0 0 24 24" fill="none" xmlns="http://www.w3.org/2000/svg">
<g clip-path="url(#clip0_12_79059)">
<path d="M18.8572 9.42861C21.2242 9.42861 23.143 7.50983 23.143 5.14289C23.143 2.77596 21.2242 0.857178 18.8572 0.857178C16.4903 0.857178 14.5715 2.77596 14.5715 5.14289C14.5715 7.50983 16.4903 9.42861 18.8572 9.42861Z" stroke="currentColor" stroke-linecap="round" stroke-linejoin="round"/>
<path d="M23.1431 13.7143V19.7143C23.1431 20.169 22.9625 20.605 22.641 20.9265C22.3195 21.248 21.8835 21.4286 21.4289 21.4286H7.71456L0.857422 23.1429L2.57171 18V2.57146C2.57171 2.11681 2.75232 1.68077 3.07381 1.35928C3.3953 1.03779 3.83134 0.857178 4.28599 0.857178H9.42885" stroke="currentColor" stroke-linecap="round" stroke-linejoin="round"/>
</g>
<defs>
<clipPath id="clip0_12_79059">
<rect width="24" height="24" fill="white"/>
</clipPath>
</defs>
</svg>
