<svg width="24" height="24" viewBox="0 0 24 24" fill="none" xmlns="http://www.w3.org/2000/svg">
<g clip-path="url(#clip0_12_79045)">
<path d="M7.71456 17.2857H2.57171C2.11705 17.2857 1.68102 17.1051 1.35952 16.7836C1.03803 16.4622 0.857422 16.0261 0.857422 15.5715V2.57146C0.857422 2.11681 1.03803 1.68077 1.35952 1.35928C1.68102 1.03779 2.11705 0.857178 2.57171 0.857178H19.7146C20.1692 0.857178 20.6053 1.03779 20.9267 1.35928C21.2482 1.68077 21.4289 2.11681 21.4289 2.57146V8.57146" stroke="currentColor" stroke-linecap="round" stroke-linejoin="round"/>
<path d="M0.857422 3.01709L11.1431 10.2857L21.4289 3.01709" stroke="currentColor" stroke-linecap="round" stroke-linejoin="round"/>
<path d="M20.2765 17.6451C20.2828 17.9912 20.2201 18.335 20.092 18.6566C19.9639 18.9782 19.7731 19.271 19.5305 19.518C19.288 19.765 18.9987 19.9612 18.6795 20.0951C18.3603 20.229 18.0176 20.298 17.6715 20.298C17.3253 20.298 16.9827 20.229 16.6635 20.0951C16.3443 19.9612 16.055 19.765 15.8125 19.518C15.5699 19.271 15.3791 18.9782 15.251 18.6566C15.1229 18.335 15.0602 17.9912 15.0665 17.6451C15.079 16.9624 15.3589 16.312 15.8461 15.8336C16.3333 15.3552 16.9887 15.0872 17.6715 15.0872C18.3543 15.0872 19.0097 15.3552 19.4969 15.8336C19.9841 16.312 20.264 16.9624 20.2765 17.6451ZM20.2765 17.6451L20.2764 18.774C20.2764 21.805 25.0269 18.9477 22.5344 14.8312C22.0325 13.9741 21.3162 13.2623 20.4559 12.7659C19.5956 12.2695 18.6208 12.0055 17.6276 12C16.7931 12.0026 15.9696 12.1901 15.2164 12.5491C14.4631 12.9081 13.7988 13.4297 13.2712 14.0762C12.7437 14.7228 12.366 15.4782 12.1655 16.2882C11.9649 17.0982 11.9464 17.9426 12.1113 18.7606C12.2762 19.5786 12.6204 20.3498 13.1192 21.0189C13.6179 21.6879 14.2588 22.238 14.9956 22.6296C15.7324 23.0213 16.5469 23.2447 17.3805 23.2838C18.214 23.3229 19.0459 23.1767 19.8161 22.8558" stroke="currentColor" stroke-linecap="round" stroke-linejoin="round"/>
</g>
<defs>
<clipPath id="clip0_12_79045">
<rect width="24" height="24" fill="white"/>
</clipPath>
</defs>
</svg>
