<svg width="24" height="24" viewBox="0 0 24 24" fill="none" xmlns="http://www.w3.org/2000/svg">
<path d="M15.25 18.9535L16.93 21.1135C16.9863 21.1865 17.0582 21.2459 17.1405 21.2874C17.2228 21.3288 17.3134 21.3513 17.4056 21.3531C17.4977 21.3548 17.5891 21.3359 17.6729 21.2976C17.7568 21.2593 17.831 21.2027 17.89 21.1319L23.25 14.6458" stroke="currentColor" stroke-linecap="round" stroke-linejoin="round"/>
<path d="M11.7146 19.2857H2.57171C2.11705 19.2857 1.68102 19.1051 1.35952 18.7836C1.03803 18.4622 0.857422 18.0261 0.857422 17.5715V5.57146C0.857422 5.11681 1.03803 4.68077 1.35952 4.35928C1.68102 4.03779 2.11705 3.85718 2.57171 3.85718H19.7146C20.1692 3.85718 20.6053 4.03779 20.9267 4.35928C21.2482 4.68077 21.4289 5.11681 21.4289 5.57146V11.5715" stroke="currentColor" stroke-linecap="round" stroke-linejoin="round"/>
<path d="M0.857422 6.01709L11.1431 13.2857L21.4289 6.01709" stroke="currentColor" stroke-linecap="round" stroke-linejoin="round"/>
</svg>
