<svg width="24" height="24" viewBox="0 0 24 24" fill="none" xmlns="http://www.w3.org/2000/svg">
<g clip-path="url(#clip0_12_79275)">
<path d="M8.80762 11.7441C8.80612 11.7047 8.80469 11.6655 8.80469 11.627C8.80476 10.7498 9.1287 10.0461 9.64648 9.55957C10.1674 9.07011 10.9118 8.77545 11.79 8.77539C13.0463 8.77539 13.8967 9.33603 14.4639 10.3379C14.793 10.9193 15.027 11.6539 15.1709 12.5186C15.0432 11.8116 14.8517 11.1738 14.582 10.6338C14.3079 10.0848 13.9448 9.61979 13.4717 9.29199C12.994 8.96106 12.43 8.78809 11.79 8.78809C10.9487 8.78814 10.1978 9.06936 9.6543 9.59375C9.10902 10.12 8.80667 10.8588 8.80664 11.7051C8.80664 11.718 8.80745 11.7312 8.80762 11.7441ZM8.80762 11.7441C8.8088 11.7754 8.80945 11.807 8.81152 11.8389C8.81019 11.8072 8.80802 11.7757 8.80762 11.7441ZM12.7588 22.6875C12.6793 22.7761 12.5997 22.8612 12.5186 22.9414L12.3672 23.085C12.359 23.0924 12.3535 23.0941 12.3516 23.0947C12.3506 23.095 12.3496 23.0946 12.3486 23.0947C12.3526 23.0888 12.3584 23.0799 12.3691 23.0703V23.0693C12.502 22.95 12.6317 22.8223 12.7588 22.6875ZM11.7314 19.3525C11.2363 20.8339 10.2873 22.0398 9.50098 22.6172L9.49707 22.6211C9.47571 22.6371 9.4579 22.6433 9.44629 22.6465L9.44434 22.6426V22.6377C9.44592 22.6299 9.45235 22.6127 9.47363 22.5957C10.3267 21.9528 11.1084 20.9618 11.7354 19.3232C11.7343 19.3332 11.7337 19.3431 11.7314 19.3525ZM16.5156 8.31055C16.5216 8.31237 16.5569 8.32486 16.5996 8.39355L16.6016 8.39648C17.5673 9.92907 18.2178 11.9828 18.2178 14.9688C18.2177 17.8332 17.4166 20.5749 16.1318 22.3291C16.1293 22.3296 16.1258 22.33 16.1221 22.3301L16.0947 22.3252C16.0952 22.315 16.098 22.3002 16.1045 22.2822C16.1112 22.2638 16.1208 22.2456 16.1328 22.2295L16.1318 22.2285C17.4528 20.5003 18.2041 17.7782 18.2041 15.002C18.2041 12.4127 17.6728 10.0668 16.5312 8.39453H16.5322C16.5121 8.36318 16.5041 8.33873 16.501 8.32422C16.4998 8.31886 16.4992 8.31467 16.499 8.31152C16.5056 8.3086 16.5102 8.30895 16.5156 8.31055ZM8.98242 12.8975C9.04062 13.1383 9.10379 13.3796 9.16504 13.6182C9.3133 14.1957 9.4574 14.8255 9.49805 15.5713L9.50879 15.8984C9.51847 18.3088 8.5887 20.4251 6.95508 21.7402L6.94727 21.7461L6.94043 21.752C6.92835 21.7625 6.91864 21.767 6.91309 21.7695C6.91233 21.7686 6.91101 21.7678 6.91016 21.7666V21.7646L6.90234 21.7529C6.9028 21.7519 6.90421 21.7508 6.90527 21.749C6.90918 21.7426 6.92029 21.728 6.94434 21.709L6.9502 21.7041C8.59949 20.3579 9.49509 18.2444 9.4834 15.8906V15.8857L9.47168 15.5732C9.42634 14.8484 9.26831 14.1459 9.12305 13.5176C9.0728 13.3003 9.02528 13.0939 8.98242 12.8975ZM5.79492 19.2529C5.41931 19.7298 5.02477 20.0852 4.7334 20.2373C4.71758 20.2455 4.7036 20.2478 4.69336 20.251C4.69491 20.2487 4.69623 20.2458 4.69824 20.2432C4.71135 20.2257 4.7367 20.1989 4.78223 20.167L4.78125 20.166C5.15725 19.9095 5.49976 19.6074 5.79492 19.2529ZM11.7119 3.26172C14.5646 3.26172 16.8607 4.3833 18.4521 6.30371C20.0513 8.23355 20.9687 11.0077 20.9688 14.3447C20.9688 16.7496 20.5549 18.6415 20.0957 19.9229V19.9248C20.0923 19.9261 20.0866 19.927 20.0801 19.9268C20.0776 19.9267 20.0756 19.926 20.0742 19.9258V19.9248C20.0721 19.9185 20.0672 19.8965 20.083 19.8574L20.085 19.8506C20.5492 18.6677 20.9078 16.9609 20.9414 14.793L20.9443 14.3535C20.9328 11.1351 20.0694 8.3702 18.4717 6.39941C16.8651 4.41787 14.5426 3.27539 11.7119 3.27539C7.13744 3.27562 3.28223 7.13005 3.28223 11.6943C3.28224 12.3296 3.34745 12.8461 3.43555 13.2969C3.33364 12.8066 3.25783 12.2822 3.25781 11.6943C3.25781 7.12673 7.12047 3.26195 11.7119 3.26172ZM6.70898 17.5293L6.65039 17.7344C6.57732 17.958 6.47003 18.1941 6.33984 18.4316C6.48306 18.1552 6.60357 17.8562 6.69629 17.5322C6.69982 17.5216 6.7045 17.5137 6.70801 17.5068C6.70871 17.5128 6.71149 17.5203 6.70898 17.5293ZM3.92676 16.4277C3.83873 17.1999 3.50616 17.917 2.97363 18.3584L2.96484 18.3662C2.95251 18.3769 2.94306 18.3814 2.93848 18.3828C2.93534 18.3838 2.93266 18.3827 2.93066 18.3828C2.9286 18.3757 2.92407 18.3661 2.92578 18.3535C2.92832 18.3351 2.93676 18.3213 2.94824 18.3115L2.95312 18.3076C3.49607 17.8325 3.82718 17.1423 3.92676 16.4277ZM11.9326 12.1221L11.9775 12.21C12.5158 13.6986 12.6495 15.604 12.3506 16.9268C12.3387 16.9774 12.3196 16.9955 12.3135 17.001C12.6206 15.571 12.4891 13.7626 11.9102 12.165C11.9039 12.1454 11.9032 12.1335 11.9033 12.1289C11.905 12.1279 11.9075 12.1264 11.9111 12.125C11.9199 12.1226 11.9268 12.1217 11.9316 12.1211L11.9326 12.1221ZM3.66113 14.2402C3.76316 14.6242 3.85355 14.9689 3.90527 15.3486C3.84844 14.9781 3.75515 14.6064 3.66113 14.2402ZM11.8457 6.00195C12.2372 6.00195 12.6261 6.04313 12.9961 6.11914C12.6484 6.05322 12.2781 6.02637 11.8457 6.02637C8.5174 6.0265 6.04492 8.50077 6.04492 11.8389C6.04492 13.1485 6.51847 14.272 6.82227 15.0635V15.0645C6.83756 15.1059 6.83327 15.1309 6.83105 15.1396C6.81338 15.1457 6.80349 15.1474 6.7998 15.1475C6.7925 15.1411 6.77612 15.1234 6.75879 15.083C6.32675 14.0229 6.02051 12.9581 6.02051 11.8389C6.02051 8.48378 8.50297 6.00209 11.8457 6.00195ZM0.542969 10.8252C0.509749 12.3449 0.644975 13.7489 0.949219 14.8848V14.8857C0.960883 14.9295 0.95823 14.9549 0.956055 14.9668C0.954942 14.9661 0.950879 14.9633 0.945312 14.9561C0.939348 14.9482 0.929412 14.9327 0.920898 14.9053C0.561705 13.5791 0.453934 12.049 0.517578 10.8145C0.518102 10.8099 0.518853 10.8061 0.519531 10.8027C0.524858 10.8022 0.53154 10.8007 0.540039 10.8008L0.542969 10.8252ZM11.8457 0.5C13.4332 0.5 14.7345 0.754293 15.8818 1.25781C14.7598 0.796467 13.4323 0.536133 11.8457 0.536133C7.29768 0.536234 2.78629 3.11396 0.950195 8.4082C0.94184 8.43175 0.93225 8.44431 0.926758 8.4502C0.921039 8.45623 0.915178 8.46027 0.90918 8.46289C0.902762 8.46568 0.895932 8.46756 0.889648 8.46777L0.886719 8.4668C0.882031 8.46431 0.878175 8.46287 0.875 8.4541C0.869733 8.43934 0.854164 8.37466 0.901367 8.24316L0.900391 8.24219C2.7946 3.02275 7.17248 0.500096 11.8457 0.5ZM19.1689 3.20605L19.1729 3.20898C20.6435 4.46298 21.781 6.03329 22.5391 8.03516C21.765 6.08418 20.5976 4.52042 19.1543 3.20508L19.1475 3.19922L19.1348 3.18457C19.1437 3.18914 19.1558 3.19467 19.1689 3.20605ZM13.458 6.2373C13.8807 6.36202 14.2676 6.52884 14.5898 6.72852L14.5977 6.7334C14.5986 6.73397 14.5996 6.73478 14.6006 6.73535C14.2011 6.51951 13.8406 6.35442 13.458 6.2373Z" fill="currentColor" stroke="currentColor"/>
</g>
<defs>
<clipPath id="clip0_12_79275">
<rect width="24" height="24" fill="white"/>
</clipPath>
</defs>
</svg>
