<svg width="24" height="24" viewBox="0 0 24 24" fill="none" xmlns="http://www.w3.org/2000/svg">
<g clip-path="url(#clip0_12_79293)">
<path d="M20.25 0.75H3.75C2.09315 0.75 0.75 2.09315 0.75 3.75V20.25C0.75 21.9069 2.09315 23.25 3.75 23.25H20.25C21.9069 23.25 23.25 21.9069 23.25 20.25V3.75C23.25 2.09315 21.9069 0.75 20.25 0.75Z" stroke="currentColor" stroke-linecap="round" stroke-linejoin="round"/>
<path d="M0.75 8.24995H6.75L7.915 5.92095C7.94623 5.85888 7.99409 5.8067 8.05324 5.77024C8.11239 5.73378 8.18051 5.71448 8.25 5.71448C8.31949 5.71448 8.38761 5.73378 8.44676 5.77024C8.50591 5.8067 8.55377 5.85888 8.585 5.92095L10.937 10.621C10.9673 10.6817 11.0135 10.7331 11.0707 10.7696C11.1279 10.8062 11.194 10.8265 11.2618 10.8284C11.3297 10.8304 11.3968 10.8139 11.456 10.7807C11.5152 10.7475 11.5643 10.6989 11.598 10.64L13.949 6.52495C13.9807 6.46937 14.0261 6.42281 14.0808 6.38972C14.1356 6.35663 14.1979 6.3381 14.2619 6.33589C14.3258 6.33369 14.3893 6.34788 14.4462 6.37712C14.5031 6.40637 14.5516 6.44968 14.587 6.50295L15.75 8.24995H23.25" stroke="currentColor" stroke-linecap="round" stroke-linejoin="round"/>
<path d="M0.75 17.25H4.5L5.25 15.75L6.75 18.75L7.5 17.25H15.75L16.5 15.75L18 18.75L18.75 17.25H23.25" stroke="currentColor" stroke-linecap="round" stroke-linejoin="round"/>
</g>
<defs>
<clipPath id="clip0_12_79293">
<rect width="24" height="24" fill="white"/>
</clipPath>
</defs>
</svg>
