<svg width="24" height="24" viewBox="0 0 24 24" fill="none" xmlns="http://www.w3.org/2000/svg">
<path d="M9.39966 21.1513C9.5301 21.6241 9.78068 22.0082 10.1514 22.3035C10.5221 22.5988 10.9391 22.7465 11.4022 22.7465C11.8653 22.7465 12.2822 22.5988 12.6529 22.3035C13.0236 22.0082 13.2742 21.6241 13.4047 21.1513" stroke="currentColor" stroke-linecap="round" stroke-linejoin="round"/>
<path fill-rule="evenodd" clip-rule="evenodd" d="M11.4004 1.19995C11.8928 1.19995 12.3806 1.25107 12.8636 1.35329C13.3466 1.45552 13.8155 1.6069 14.2705 1.80743C14.7255 2.00796 15.1577 2.25378 15.5672 2.5449C15.9766 2.83602 16.3555 3.16685 16.7037 3.53737C17.0519 3.9079 17.3628 4.31101 17.6364 4.74671C17.91 5.1824 18.141 5.64231 18.3295 6.12642C18.5179 6.61054 18.6602 7.10957 18.7563 7.6235C18.8524 8.13744 18.9004 8.65641 18.9004 9.18041C18.9004 16.6778 20.4004 17.9589 20.4004 17.9589H2.40039C2.40039 17.9589 3.90039 15.9202 3.90039 9.18041C3.90039 8.65641 3.94843 8.13744 4.0445 7.6235C4.14058 7.10957 4.28284 6.61054 4.47129 6.12642C4.65975 5.64231 4.89077 5.1824 5.16437 4.74671C5.43796 4.31101 5.74887 3.9079 6.09709 3.53737C6.44531 3.16685 6.82415 2.83602 7.23361 2.5449C7.64308 2.25378 8.07529 2.00796 8.53027 1.80743C8.98524 1.6069 9.45422 1.45552 9.93721 1.35329C10.4202 1.25107 10.9079 1.19995 11.4004 1.19995Z" stroke="currentColor" stroke-linecap="round" stroke-linejoin="round"/>
</svg>
