<svg width="26" height="24" viewBox="0 0 26 24" fill="none" xmlns="http://www.w3.org/2000/svg">
<path fill-rule="evenodd" clip-rule="evenodd" d="M8 10C8 10.5304 8.10149 11.0407 8.30448 11.5307C8.50747 12.0208 8.7965 12.4534 9.17157 12.8284C9.54665 13.2035 9.97921 13.4925 10.4693 13.6955C10.9593 13.8985 11.4696 14 12 14C12.5304 14 13.0407 13.8985 13.5307 13.6955C14.0208 13.4925 14.4534 13.2035 14.8284 12.8284C15.2035 12.4534 15.4925 12.0208 15.6955 11.5307C15.8985 11.0407 16 10.5304 16 10C16 9.46957 15.8985 8.95932 15.6955 8.46927C15.4925 7.97921 15.2035 7.54664 14.8284 7.17157C14.4534 6.7965 14.0208 6.50747 13.5307 6.30448C13.0407 6.10149 12.5304 6 12 6C11.4696 6 10.9593 6.10149 10.4693 6.30448C9.97921 6.50747 9.54665 6.7965 9.17157 7.17157C8.7965 7.54664 8.50747 7.97921 8.30448 8.46927C8.10149 8.95932 8 9.46957 8 10Z" stroke="currentColor" stroke-linecap="round" stroke-linejoin="round"/>
<path d="M18.1452 19.887C17.7427 19.482 17.3043 19.1204 16.8302 18.8021C16.3561 18.4838 15.8554 18.215 15.3281 17.9957C14.8008 17.7764 14.2571 17.6108 13.6971 17.499C13.137 17.3872 12.5715 17.3313 12.0004 17.3313C11.4292 17.3313 10.8637 17.3872 10.3036 17.499C9.74357 17.6108 9.1999 17.7764 8.67261 17.9957C8.14531 18.215 7.64461 18.4838 7.17049 18.8021C6.69638 19.1204 6.25804 19.482 5.85547 19.887" stroke="currentColor" stroke-linecap="round" stroke-linejoin="round"/>
<path fill-rule="evenodd" clip-rule="evenodd" d="M2 12C1.99977 12.6565 2.06363 13.3068 2.19156 13.9507C2.31949 14.5947 2.50904 15.22 2.76021 15.8266C3.01139 16.4332 3.31935 17.0095 3.6841 17.5554C4.04886 18.1014 4.4634 18.6065 4.92771 19.0709C5.39203 19.5352 5.8972 19.9497 6.44322 20.3146C6.98924 20.6794 7.56563 20.9874 8.17237 21.2387C8.77911 21.49 9.40454 21.6797 10.0487 21.8078C10.6928 21.9359 11.3432 22 12 22C12.6568 22 13.3072 21.9359 13.9513 21.8078C14.5955 21.6797 15.2209 21.49 15.8276 21.2387C16.4344 20.9874 17.0108 20.6794 17.5568 20.3146C18.1028 19.9497 18.608 19.5352 19.0723 19.0709C19.5366 18.6065 19.9511 18.1014 20.3159 17.5554C20.6806 17.0095 20.9886 16.4332 21.2398 15.8266C21.491 15.22 21.6805 14.5947 21.8084 13.9507C21.9364 13.3068 22.0002 12.6565 22 12C22.0002 11.3435 21.9364 10.6932 21.8084 10.0493C21.6805 9.40533 21.491 8.78004 21.2398 8.17343C20.9886 7.56681 20.6806 6.99052 20.3159 6.44456C19.9511 5.8986 19.5366 5.39346 19.0723 4.92914C18.608 4.46483 18.1028 4.05026 17.5568 3.68544C17.0108 3.32062 16.4344 3.01257 15.8276 2.76127C15.2209 2.50998 14.5955 2.32028 13.9513 2.19217C13.3072 2.06406 12.6568 2 12 2C11.3432 2 10.6928 2.06406 10.0487 2.19217C9.40454 2.32028 8.77911 2.50998 8.17237 2.76127C7.56563 3.01257 6.98924 3.32062 6.44322 3.68544C5.8972 4.05026 5.39203 4.46483 4.92771 4.92914C4.4634 5.39346 4.04886 5.8986 3.6841 6.44456C3.31935 6.99052 3.01139 7.56681 2.76021 8.17343C2.50904 8.78004 2.31949 9.40533 2.19156 10.0493C2.06363 10.6932 1.99977 11.3435 2 12Z" stroke="currentColor" stroke-linecap="round" stroke-linejoin="round"/>
<rect x="18" y="1" width="8" height="8" rx="4" fill="currentColor"/>
</svg>
