<svg width="24" height="24" viewBox="0 0 24 24" fill="none" xmlns="http://www.w3.org/2000/svg">
<path d="M10.5996 21.1513C10.7301 21.6241 10.9806 22.0082 11.3514 22.3035C11.7221 22.5988 12.139 22.7465 12.6021 22.7465C13.0652 22.7465 13.4821 22.5988 13.8529 22.3035C14.2236 22.0082 14.4742 21.6241 14.6046 21.1513" stroke="currentColor" stroke-linecap="round" stroke-linejoin="round"/>
<path fill-rule="evenodd" clip-rule="evenodd" d="M12.5996 1.19995C13.0921 1.19995 13.5798 1.25107 14.0628 1.35329C14.5458 1.45552 15.0148 1.6069 15.4697 1.80743C15.9247 2.00796 16.3569 2.25378 16.7664 2.5449C17.1758 2.83602 17.5547 3.16685 17.9029 3.53737C18.2511 3.9079 18.562 4.31101 18.8356 4.74671C19.1092 5.1824 19.3402 5.64231 19.5287 6.12642C19.7172 6.61054 19.8594 7.10957 19.9555 7.6235C20.0516 8.13744 20.0996 8.65641 20.0996 9.18041C20.0996 16.6778 21.5996 17.9589 21.5996 17.9589H3.59961C3.59961 17.9589 5.09961 15.9202 5.09961 9.18041C5.09961 8.65641 5.14765 8.13744 5.24372 7.6235C5.33979 7.10957 5.48206 6.61054 5.67051 6.12642C5.85897 5.64231 6.08999 5.1824 6.36359 4.74671C6.63718 4.31101 6.94809 3.9079 7.29631 3.53737C7.64453 3.16685 8.02337 2.83602 8.43283 2.5449C8.8423 2.25378 9.27451 2.00796 9.72948 1.80743C10.1845 1.6069 10.6534 1.45552 11.1364 1.35329C11.6194 1.25107 12.1072 1.19995 12.5996 1.19995Z" stroke="currentColor" stroke-linecap="round" stroke-linejoin="round"/>
</svg>
