<svg width="24" height="24" viewBox="0 0 24 24" fill="none" xmlns="http://www.w3.org/2000/svg">
<rect x="0.5" y="0.5" width="23" height="23" rx="3.5" stroke="currentColor"/>
<path d="M6.23622 15.4875V10.3052L6.34154 10.4129C6.19154 10.4129 6.04633 10.4129 5.9059 10.4129C5.76547 10.4129 5.60909 10.4129 5.43675 10.4129C5.26441 10.4129 5.05218 10.4129 4.80005 10.4129V9.57493H4.97718C5.26122 9.57493 5.49899 9.53748 5.69047 9.46258C5.88516 9.38768 6.03835 9.2722 6.15005 9.11616C6.26175 8.96011 6.33356 8.75881 6.36547 8.51226H7.28941V15.4875H6.23622Z" fill="currentColor"/>
<path d="M8.3809 15.4875V14.6496L10.9469 12.4165C11.2373 12.1575 11.4703 11.9297 11.6458 11.7331C11.8245 11.5333 11.9554 11.3445 12.0383 11.1666C12.1213 10.9856 12.1628 10.7937 12.1628 10.5908C12.1628 10.3224 12.1102 10.093 12.0048 9.90263C11.8995 9.70914 11.7463 9.56089 11.5453 9.4579C11.3442 9.35179 11.0969 9.29873 10.8032 9.29873C10.516 9.29873 10.2671 9.36115 10.0564 9.48599C9.84899 9.61083 9.68941 9.78716 9.57771 10.015C9.46601 10.2428 9.41016 10.5112 9.41016 10.8202H8.38569C8.38569 10.3333 8.48462 9.90888 8.6825 9.54685C8.88356 9.1817 9.16441 8.89925 9.52505 8.69951C9.88569 8.49977 10.3118 8.3999 10.8032 8.3999C11.3011 8.3999 11.7272 8.49041 12.0814 8.67142C12.4389 8.85244 12.7118 9.10835 12.9 9.43917C13.0915 9.76687 13.1873 10.1539 13.1873 10.6002C13.1873 10.8842 13.1394 11.1479 13.0437 11.3913C12.9479 11.6316 12.7868 11.8813 12.5602 12.1403C12.3368 12.3963 12.0304 12.6912 11.641 13.0251L9.86016 14.57V14.5887H13.1633V15.4875H8.3809Z" fill="currentColor"/>
<path d="M16.6389 15.5999C16.1091 15.5999 15.6511 15.4985 15.2649 15.2956C14.8788 15.0928 14.5804 14.815 14.3697 14.4623C14.1591 14.1065 14.0538 13.7039 14.0538 13.2545H15.1213C15.1213 13.5604 15.1804 13.8241 15.2985 14.0457C15.4165 14.2641 15.5873 14.4311 15.8107 14.5466C16.0373 14.6621 16.307 14.7198 16.6197 14.7198C16.9197 14.7198 17.183 14.6699 17.4096 14.57C17.6362 14.4701 17.8133 14.3328 17.941 14.158C18.0687 13.9801 18.1325 13.7788 18.1325 13.5541C18.1325 13.3107 18.0639 13.1 17.9266 12.9221C17.7894 12.7411 17.5995 12.6007 17.357 12.5008C17.1144 12.4009 16.8304 12.351 16.5048 12.351H15.9064V11.4896H16.5048C16.7921 11.4896 17.0426 11.4428 17.2564 11.3492C17.4735 11.2556 17.641 11.126 17.7591 10.9606C17.8804 10.7952 17.941 10.6002 17.941 10.3755C17.941 10.157 17.8852 9.96505 17.7735 9.79964C17.6618 9.63423 17.5054 9.50471 17.3043 9.41109C17.1032 9.31746 16.8671 9.27064 16.5958 9.27064C16.3181 9.27064 16.0772 9.3237 15.8729 9.42981C15.6719 9.5328 15.5155 9.68105 15.4038 9.87454C15.2953 10.068 15.241 10.299 15.241 10.5674H14.2022C14.2022 10.1429 14.3027 9.76843 14.5038 9.44386C14.7048 9.11616 14.9841 8.86024 15.3415 8.67611C15.7022 8.49197 16.1219 8.3999 16.6006 8.3999C17.0538 8.3999 17.4591 8.48261 17.8165 8.64802C18.1772 8.81343 18.4612 9.03969 18.6687 9.32682C18.8761 9.61083 18.9798 9.93228 18.9798 10.2912C18.9798 10.6751 18.8602 11.009 18.6208 11.293C18.3846 11.5739 18.0671 11.7674 17.6681 11.8735V11.8875C17.9809 11.9344 18.2522 12.0374 18.482 12.1965C18.7118 12.3557 18.8889 12.5554 19.0133 12.7957C19.1378 13.0329 19.2001 13.2951 19.2001 13.5822C19.2001 13.9661 19.0883 14.311 18.8649 14.6168C18.6447 14.9195 18.3415 15.1599 17.9554 15.3377C17.5724 15.5125 17.1336 15.5999 16.6389 15.5999Z" fill="currentColor"/>
</svg>
