<svg width="24" height="24" viewBox="0 0 24 24" fill="none" xmlns="http://www.w3.org/2000/svg">
<path d="M12 0.5C12.7554 0.5 13.5033 0.573359 14.2441 0.720703C14.9848 0.868007 15.7037 1.0861 16.4014 1.375C17.0992 1.66402 17.7626 2.01889 18.3906 2.43848C19.0184 2.85792 19.599 3.33438 20.1328 3.86816C20.6668 4.40218 21.144 4.98342 21.5635 5.61133C21.9829 6.2392 22.3371 6.90199 22.626 7.59961C22.9148 8.2972 23.1322 9.01633 23.2793 9.75684C23.4264 10.4974 23.5003 11.245 23.5 12L23.4863 12.5654C23.4589 13.1288 23.3896 13.6879 23.2793 14.2432C23.1322 14.9837 22.9148 15.7028 22.626 16.4004C22.3371 17.098 21.9829 17.7608 21.5635 18.3887C21.144 19.0166 20.6668 19.5978 20.1328 20.1318C19.599 20.6656 19.0184 21.1421 18.3906 21.5615C17.7626 21.9811 17.0992 22.336 16.4014 22.625C15.7037 22.9139 14.9848 23.132 14.2441 23.2793C13.5033 23.4266 12.7554 23.5 12 23.5L11.4346 23.4863C10.8709 23.4587 10.3114 23.3898 9.75586 23.2793C9.01523 23.132 8.29628 22.9139 7.59863 22.625C6.9008 22.336 6.23737 21.9811 5.60938 21.5615C4.98163 21.1421 4.40102 20.6656 3.86719 20.1318C3.33317 19.5978 2.85603 19.0166 2.43652 18.3887C2.01706 17.7608 1.66287 17.098 1.37402 16.4004C1.08521 15.7028 0.867818 14.9837 0.720703 14.2432C0.573594 13.5026 0.499739 12.755 0.5 12L0.513672 11.4346C0.541115 10.8712 0.610397 10.3121 0.720703 9.75684C0.867818 9.01633 1.0852 8.2972 1.37402 7.59961C1.66287 6.90199 2.01706 6.2392 2.43652 5.61133C2.85603 4.98342 3.33317 4.40218 3.86719 3.86816C4.40102 3.33438 4.98163 2.85792 5.60938 2.43848C6.23737 2.01889 6.9008 1.66402 7.59863 1.375C8.29628 1.0861 9.01523 0.868007 9.75586 0.720703C10.3114 0.610215 10.8709 0.541302 11.4346 0.513672L12 0.5Z" stroke="currentColor" stroke-linecap="round" stroke-linejoin="round"/>
<path d="M9.39648 16V15.125L12.1035 12.3203C12.3926 12.0156 12.6309 11.7487 12.8184 11.5195C13.0085 11.2878 13.1504 11.0677 13.2441 10.8594C13.3379 10.651 13.3848 10.4297 13.3848 10.1953C13.3848 9.92969 13.3223 9.70052 13.1973 9.50781C13.0723 9.3125 12.9017 9.16276 12.6855 9.05859C12.4694 8.95182 12.2259 8.89844 11.9551 8.89844C11.6686 8.89844 11.4186 8.95703 11.2051 9.07422C10.9915 9.19141 10.8275 9.35677 10.7129 9.57031C10.5983 9.78385 10.541 10.0339 10.541 10.3203H9.38867C9.38867 9.83333 9.50065 9.40755 9.72461 9.04297C9.94857 8.67839 10.2559 8.39583 10.6465 8.19531C11.0371 7.99219 11.4811 7.89062 11.9785 7.89062C12.4811 7.89062 12.9238 7.99089 13.3066 8.19141C13.6921 8.38932 13.9928 8.66016 14.209 9.00391C14.4251 9.34505 14.5332 9.73047 14.5332 10.1602C14.5332 10.457 14.4772 10.7474 14.3652 11.0312C14.2559 11.3151 14.0645 11.6315 13.791 11.9805C13.5176 12.3268 13.1374 12.7474 12.6504 13.2422L11.0605 14.9062V14.9648H14.6621V16H9.39648Z" fill="currentColor"/>
</svg>
