<svg width="24" height="24" viewBox="0 0 24 24" fill="none" xmlns="http://www.w3.org/2000/svg">
<g clip-path="url(#clip0_12_78060)">
<path d="M9 11V19.5" stroke="currentColor" stroke-linecap="round" stroke-linejoin="round"/>
<path d="M4.5 15.25H19.5" stroke="currentColor" stroke-linecap="round" stroke-linejoin="round"/>
<path d="M22.81 5.56C23.0914 5.84103 23.2496 6.22231 23.25 6.62V21C23.25 21.5967 23.0129 22.169 22.591 22.591C22.169 23.0129 21.5967 23.25 21 23.25H3C2.40326 23.25 1.83097 23.0129 1.40901 22.591C0.987053 22.169 0.75 21.5967 0.75 21V3C0.75 2.40326 0.987053 1.83097 1.40901 1.40901C1.83097 0.987053 2.40326 0.75 3 0.75H17.38C17.7777 0.75035 18.159 0.908615 18.44 1.19L22.81 5.56Z" stroke="currentColor" stroke-linecap="round" stroke-linejoin="round"/>
<path d="M17.25 0.75V5.25C17.25 5.64782 17.408 6.02936 17.6893 6.31066C17.9706 6.59196 18.3522 6.75 18.75 6.75H23.25" stroke="currentColor" stroke-linecap="round" stroke-linejoin="round"/>
<path d="M19.5 18.75C19.4974 18.9481 19.4176 19.1374 19.2775 19.2775C19.1374 19.4176 18.9481 19.4974 18.75 19.5H5.25C5.05189 19.4974 4.86263 19.4176 4.72253 19.2775C4.58244 19.1374 4.50259 18.9481 4.5 18.75V11H18.75C18.9481 11.0026 19.1374 11.0824 19.2775 11.2225C19.4176 11.3626 19.4974 11.5519 19.5 11.75V18.75Z" stroke="currentColor" stroke-linecap="round" stroke-linejoin="round"/>
<path d="M13.5 11H4.5V7.75C4.50259 7.55189 4.58244 7.36263 4.72253 7.22253C4.86263 7.08244 5.05189 7.00259 5.25 7H13.5" stroke="currentColor" stroke-linecap="round" stroke-linejoin="round"/>
</g>
<defs>
<clipPath id="clip0_12_78060">
<rect width="24" height="24" fill="white"/>
</clipPath>
</defs>
</svg>
