<svg width="24" height="24" viewBox="0 0 24 24" fill="none" xmlns="http://www.w3.org/2000/svg">
<path fill-rule="evenodd" clip-rule="evenodd" d="M22.1895 6.58735L12.6608 1.66057C12.2463 1.44648 11.7537 1.44648 11.3392 1.66057L1.81055 6.58735C1.61978 6.68616 1.5 6.8831 1.5 7.09796C1.5 7.31281 1.61978 7.50975 1.81055 7.60856L11.3392 12.5381C11.7537 12.7522 12.2463 12.7522 12.6608 12.5381L22.1895 7.61416C22.3802 7.51535 22.5 7.31841 22.5 7.10356C22.5 6.8887 22.3802 6.69176 22.1895 6.59296V6.58735Z" stroke="currentColor" stroke-linecap="round" stroke-linejoin="round"/>
<path d="M5.55984 9.55103L1.81055 11.4907C1.61978 11.5896 1.5 11.7865 1.5 12.0013C1.5 12.2162 1.61978 12.4131 1.81055 12.5119L11.3392 17.4415C11.7537 17.6556 12.2463 17.6556 12.6608 17.4415L22.1895 12.5119C22.3802 12.4131 22.5 12.2162 22.5 12.0013C22.5 11.7865 22.3802 11.5896 22.1895 11.4907L18.4402 9.55103" stroke="currentColor" stroke-linecap="round" stroke-linejoin="round"/>
<path d="M5.55984 14.4517L1.81055 16.3886C1.61978 16.4874 1.5 16.6843 1.5 16.8992C1.5 17.114 1.61978 17.311 1.81055 17.4098L11.3392 22.3394C11.7537 22.5535 12.2463 22.5535 12.6608 22.3394L22.1895 17.4154C22.3802 17.3166 22.5 17.1196 22.5 16.9048C22.5 16.6899 22.3802 16.493 22.1895 16.3942L18.4402 14.4517" stroke="currentColor" stroke-linecap="round" stroke-linejoin="round"/>
</svg>
