<svg width="24" height="24" viewBox="0 0 24 24" fill="none" xmlns="http://www.w3.org/2000/svg">
<path d="M4.83802 2.75403L10.227 4.80003C10.5606 4.92511 10.8388 5.16486 11.0118 5.47635C11.1848 5.78784 11.2412 6.15072 11.171 6.50003L10.857 8.06903C10.8013 8.34749 10.6677 8.60442 10.4718 8.80994C10.2758 9.01547 10.0255 9.16114 9.75002 9.23003L7.67102 9.75003L6.51702 12.634C6.29328 13.1972 5.90375 13.6792 5.40002 14.016L3.41602 15.3" stroke="currentColor" stroke-linecap="round" stroke-linejoin="round"/>
<path d="M16.9081 3.43005L15.9321 4.74505C15.6443 5.13241 15.4543 5.58346 15.378 6.05994C15.3018 6.53641 15.3416 7.02425 15.4941 7.48205L15.7501 8.25005" stroke="currentColor" stroke-linecap="round" stroke-linejoin="round"/>
<path d="M21 11.25H15C14.1716 11.25 13.5 11.9216 13.5 12.75V21.75C13.5 22.5784 14.1716 23.25 15 23.25H21C21.8284 23.25 22.5 22.5784 22.5 21.75V12.75C22.5 11.9216 21.8284 11.25 21 11.25Z" stroke="currentColor" stroke-linecap="round" stroke-linejoin="round"/>
<path d="M9 18.626C7.37189 18.3504 5.85097 17.6322 4.60374 16.5501C3.35651 15.4679 2.43103 14.0635 1.92863 12.4905C1.42623 10.9175 1.36626 9.23661 1.7553 7.63182C2.14433 6.02704 2.96737 4.56021 4.13432 3.39192C5.30126 2.22362 6.76713 1.39889 8.37147 1.008C9.9758 0.617109 11.6568 0.675132 13.2303 1.17572C14.8039 1.6763 16.2094 2.60015 17.293 3.84613C18.3766 5.09211 19.0965 6.6122 19.374 8.23999" stroke="currentColor" stroke-linecap="round" stroke-linejoin="round"/>
<path d="M18 19.5C19.2426 19.5 20.25 18.4926 20.25 17.25C20.25 16.0074 19.2426 15 18 15C16.7574 15 15.75 16.0074 15.75 17.25C15.75 18.4926 16.7574 19.5 18 19.5Z" stroke="currentColor" stroke-linecap="round" stroke-linejoin="round"/>
</svg>
