<svg width="24" height="24" viewBox="0 0 24 24" fill="none" xmlns="http://www.w3.org/2000/svg">
<path d="M6.25 2.04102C9.80811 -0.0132615 14.1919 -0.0132615 17.75 2.04102C21.308 4.09531 23.5 7.8915 23.5 12C23.5 18.3513 18.3513 23.5 12 23.5C5.64872 23.5 0.5 18.3513 0.5 12L0.506836 11.6162C0.638628 7.65619 2.80304 4.03118 6.25 2.04102Z" stroke="currentColor" stroke-linecap="round"/>
<path fill-rule="evenodd" clip-rule="evenodd" d="M6.49512 11.6484C6.26074 11.6484 6.14355 11.7656 6.14355 12C6.14355 12.2344 6.26074 12.3516 6.49512 12.3516C6.72949 12.3516 6.84668 12.2344 6.84668 12C6.84668 11.7656 6.72949 11.6484 6.49512 11.6484Z" fill="currentColor"/>
<path d="M6.49512 11.6484C6.26074 11.6484 6.14355 11.7656 6.14355 12C6.14355 12.2344 6.26074 12.3516 6.49512 12.3516C6.72949 12.3516 6.84668 12.2344 6.84668 12C6.84668 11.7656 6.72949 11.6484 6.49512 11.6484V11.6484" stroke="currentColor" stroke-linecap="round" stroke-linejoin="round"/>
<path fill-rule="evenodd" clip-rule="evenodd" d="M12 11.6484C11.7656 11.6484 11.6484 11.7656 11.6484 12C11.6484 12.2344 11.7656 12.3516 12 12.3516C12.2344 12.3516 12.3516 12.2344 12.3516 12C12.3516 11.7656 12.2344 11.6484 12 11.6484Z" fill="currentColor"/>
<path d="M12 11.6484C11.7656 11.6484 11.6484 11.7656 11.6484 12C11.6484 12.2344 11.7656 12.3516 12 12.3516C12.2344 12.3516 12.3516 12.2344 12.3516 12C12.3516 11.7656 12.2344 11.6484 12 11.6484V11.6484" stroke="currentColor" stroke-linecap="round" stroke-linejoin="round"/>
<path fill-rule="evenodd" clip-rule="evenodd" d="M17.5049 11.6484C17.2705 11.6484 17.1533 11.7656 17.1533 12C17.1533 12.2344 17.2705 12.3516 17.5049 12.3516C17.7393 12.3516 17.8564 12.2344 17.8564 12C17.8564 11.7656 17.7393 11.6484 17.5049 11.6484Z" fill="currentColor"/>
<path d="M17.5049 11.6484C17.2705 11.6484 17.1533 11.7656 17.1533 12C17.1533 12.2344 17.2705 12.3516 17.5049 12.3516C17.7393 12.3516 17.8564 12.2344 17.8564 12C17.8564 11.7656 17.7393 11.6484 17.5049 11.6484V11.6484" stroke="currentColor" stroke-linecap="round" stroke-linejoin="round"/>
</svg>
