<svg width="24" height="24" viewBox="0 0 24 24" fill="none" xmlns="http://www.w3.org/2000/svg">
<path d="M5.79321 5.17236L18.207 18.8275" stroke="currentColor" stroke-linecap="round" stroke-linejoin="round"/>
<path d="M16.3449 16.8416V18.2071C16.3449 18.5364 16.2141 18.8521 15.9813 19.0849C15.7485 19.3177 15.4328 19.4485 15.1035 19.4485H8.89665C8.56742 19.4485 8.25167 19.3177 8.01887 19.0849C7.78606 18.8521 7.65527 18.5364 7.65527 18.2071V7.3916" stroke="currentColor" stroke-linecap="round" stroke-linejoin="round"/>
<path d="M10.6318 4.55176H15.1034C15.4326 4.55176 15.7484 4.68255 15.9812 4.91535C16.214 5.14815 16.3448 5.4639 16.3448 5.79314V11.1593" stroke="currentColor" stroke-linecap="round" stroke-linejoin="round"/>
<path d="M8.35352 2.25H14.6466C16.8558 2.25 18.6466 4.04086 18.6466 6.25V13.7069" stroke="currentColor" stroke-linecap="round"/>
<path d="M14.5088 21.75H9.35362C7.14448 21.75 5.35362 19.9591 5.35362 17.75V12.4138" stroke="currentColor" stroke-linecap="round"/>
</svg>
