<svg width="24" height="24" viewBox="0 0 24 24" fill="none" xmlns="http://www.w3.org/2000/svg">
<g clip-path="url(#clip0_12_79633)">
<path d="M18.8574 14.1428H5.14314C2.7762 14.1428 0.857422 16.0616 0.857422 18.4285C0.857422 20.7955 2.7762 22.7143 5.14314 22.7143H18.8574C21.2243 22.7143 23.1431 20.7955 23.1431 18.4285C23.1431 16.0616 21.2243 14.1428 18.8574 14.1428Z" stroke="currentColor" stroke-linecap="round" stroke-linejoin="round"/>
<path d="M5.99972 19.2856C6.4731 19.2856 6.85686 18.9017 6.85686 18.4284C6.85686 17.9551 6.4731 17.5713 5.99972 17.5713C5.52634 17.5713 5.14258 17.9551 5.14258 18.4284C5.14258 18.9017 5.52634 19.2856 5.99972 19.2856Z" fill="currentColor" stroke="currentColor" stroke-linecap="round" stroke-linejoin="round"/>
<path d="M5.14314 9.85707H18.8574C21.2243 9.85707 23.1431 7.93829 23.1431 5.57136C23.1431 3.20443 21.2243 1.28564 18.8574 1.28564H5.14314C2.7762 1.28564 0.857422 3.20443 0.857422 5.57136C0.857422 7.93829 2.7762 9.85707 5.14314 9.85707Z" stroke="currentColor" stroke-linecap="round" stroke-linejoin="round"/>
<path d="M17.9997 6.42864C18.473 6.42864 18.8569 6.04488 18.8569 5.5715C18.8569 5.09812 18.473 4.71436 17.9997 4.71436C17.5264 4.71436 17.1426 5.09812 17.1426 5.5715C17.1426 6.04488 17.5264 6.42864 17.9997 6.42864Z" fill="currentColor" stroke="currentColor" stroke-linecap="round" stroke-linejoin="round"/>
</g>
<defs>
<clipPath id="clip0_12_79633">
<rect width="24" height="24" fill="white"/>
</clipPath>
</defs>
</svg>
