<svg width="24" height="24" viewBox="0 0 24 24" fill="none" xmlns="http://www.w3.org/2000/svg">
<g clip-path="url(#clip0_12_79583)">
<path d="M23.1429 18V21.4286C23.1429 21.8832 22.9622 22.3193 22.6407 22.6407C22.3193 22.9622 21.8832 23.1429 21.4286 23.1429H18" stroke="currentColor" stroke-linecap="round" stroke-linejoin="round"/>
<path d="M18 0.857178H21.4286C21.8832 0.857178 22.3193 1.03779 22.6407 1.35928C22.9622 1.68077 23.1429 2.1168 23.1429 2.57146V6.00003" stroke="currentColor" stroke-linecap="round" stroke-linejoin="round"/>
<path d="M0.857178 6.00003V2.57146C0.857178 2.1168 1.03779 1.68077 1.35928 1.35928C1.68077 1.03779 2.1168 0.857178 2.57146 0.857178H6.00003" stroke="currentColor" stroke-linecap="round" stroke-linejoin="round"/>
<path d="M6.00003 23.1429H2.57146C2.1168 23.1429 1.68077 22.9622 1.35928 22.6407C1.03779 22.3193 0.857178 21.8832 0.857178 21.4286V18" stroke="currentColor" stroke-linecap="round" stroke-linejoin="round"/>
<path d="M11.9996 11.1428C13.8931 11.1428 15.4282 9.60773 15.4282 7.7142C15.4282 5.82067 13.8931 4.28564 11.9996 4.28564C10.1061 4.28564 8.57104 5.82067 8.57104 7.7142C8.57104 9.60773 10.1061 11.1428 11.9996 11.1428Z" stroke="currentColor" stroke-linecap="round" stroke-linejoin="round"/>
<path d="M18.52 18.8572C18.0771 17.476 17.2071 16.2714 16.0354 15.4166C14.8637 14.5619 13.4508 14.1013 12.0005 14.1013C10.5501 14.1013 9.13727 14.5619 7.96556 15.4166C6.79384 16.2714 5.92384 17.476 5.48096 18.8572H18.52Z" stroke="currentColor" stroke-linecap="round" stroke-linejoin="round"/>
</g>
<defs>
<clipPath id="clip0_12_79583">
<rect width="24" height="24" fill="white"/>
</clipPath>
</defs>
</svg>
