<svg width="24" height="24" viewBox="0 0 24 24" fill="none" xmlns="http://www.w3.org/2000/svg">
<path fill-rule="evenodd" clip-rule="evenodd" d="M10.2477 0.285546C11.3506 0.838066 12.6495 0.838066 13.7523 0.285354C14.2605 0.019258 14.7498 -0.0672027 15.2011 0.0535735C15.6524 0.174541 16.0327 0.494127 16.3397 0.978596C17.0185 2.00865 18.1435 2.65819 19.3751 2.73103C19.9481 2.75461 20.4151 2.92427 20.7454 3.25459C21.0757 3.58491 21.2454 4.05191 21.269 4.62495C21.3418 5.85651 21.9914 6.98148 23.0214 7.66032C23.5062 7.96725 23.8256 8.34761 23.9464 8.79888C24.0674 9.25017 23.9807 9.73942 23.7145 10.2477C23.1619 11.3506 23.1619 12.6494 23.7146 13.7523C23.9807 14.2605 24.0672 14.7498 23.9464 15.2011C23.8255 15.6524 23.5059 16.0327 23.0214 16.3397C21.9914 17.0185 21.3418 18.1435 21.269 19.3751C21.2454 19.9481 21.0757 20.4151 20.7454 20.7454C20.4151 21.0757 19.9481 21.2454 19.3751 21.269C18.1435 21.3418 17.0185 21.9914 16.3397 23.0214C16.0327 23.5062 15.6524 23.8256 15.2011 23.9464C14.7498 24.0674 14.2606 23.9807 13.7523 23.7145C12.6494 23.1619 11.3506 23.1619 10.2477 23.7146C9.73947 23.9807 9.25021 24.0672 8.79889 23.9464C8.3476 23.8255 7.96726 23.5059 7.66033 23.0214C6.98148 21.9914 5.85651 21.3418 4.62495 21.269C4.05191 21.2454 3.58493 21.0757 3.25459 20.7454C2.92427 20.4151 2.75458 19.9481 2.73103 19.3751C2.65817 18.1435 2.00865 17.0185 0.978596 16.3397C0.493759 16.0327 0.174355 15.6524 0.0535736 15.2011C-0.0673939 14.7498 0.0192573 14.2606 0.285546 13.7523C0.838066 12.6494 0.838066 11.3505 0.285354 10.2477C0.019258 9.73947 -0.0672025 9.25021 0.0535736 8.79889C0.174541 8.3476 0.494127 7.96726 0.978596 7.66032C2.00865 6.98148 2.65819 5.85651 2.73103 4.62495C2.75461 4.05191 2.92427 3.58493 3.25459 3.25459C3.58491 2.92427 4.05191 2.75458 4.62495 2.73103C5.85651 2.65817 6.98148 2.00865 7.66033 0.978596C7.96725 0.493759 8.34761 0.174355 8.79888 0.0535736C9.25017 -0.0673939 9.73942 0.0192573 10.2477 0.285546Z" fill="currentColor"/>
<path fill-rule="evenodd" clip-rule="evenodd" d="M8.90621 8.60355L15.0934 14.7907L8.90621 8.60355Z" fill="white"/>
<path d="M8.90621 8.60355L15.0934 14.7907" stroke="white" stroke-linecap="round" stroke-linejoin="round"/>
<path d="M8.90629 14.7907L15.0935 8.60356" stroke="white" stroke-linecap="round" stroke-linejoin="round"/>
</svg>
