<svg width="24" height="24" viewBox="0 0 24 24" fill="none" xmlns="http://www.w3.org/2000/svg">
<path d="M12 1.21875V22.7812" stroke="currentColor" stroke-linecap="round" stroke-linejoin="round"/>
<path d="M20.625 11.2812H3.375" stroke="currentColor" stroke-linecap="round" stroke-linejoin="round"/>
<path d="M3.37503 4.25948V11.5562C3.37503 16.2779 5.56387 20.5109 9.97028 22.2062L10.9679 22.5895C11.6323 22.8451 12.3678 22.8451 13.0322 22.5895L14.0298 22.2062C18.4362 20.5109 20.625 16.2779 20.625 11.5562V4.25948C20.6269 3.9849 20.5493 3.71564 20.4018 3.48408C20.2542 3.25252 20.0429 3.06853 19.7932 2.95423C17.3723 1.75904 14.6994 1.16378 12 1.21869C9.30071 1.16378 6.62779 1.75904 4.20687 2.95423C3.9572 3.06853 3.74587 3.25252 3.5983 3.48408C3.45073 3.71564 3.3732 3.9849 3.37503 4.25948Z" stroke="currentColor" stroke-linecap="round" stroke-linejoin="round"/>
</svg>
