<svg width="24" height="24" viewBox="0 0 24 24" fill="none" xmlns="http://www.w3.org/2000/svg">
<g clip-path="url(#clip0_12_80573)">
<path d="M0.857178 6.85693V2.57122C0.857178 2.11656 1.03779 1.68053 1.35928 1.35904C1.68077 1.03755 2.11681 0.856934 2.57146 0.856934H6.85718" stroke="currentColor" stroke-linecap="round" stroke-linejoin="round"/>
<path d="M23.1428 6.85693V2.57122C23.1428 2.11656 22.9622 1.68053 22.6407 1.35904C22.3192 1.03755 21.8832 0.856934 21.4285 0.856934H17.1428" stroke="currentColor" stroke-linecap="round" stroke-linejoin="round"/>
<path d="M0.857178 17.1431V21.4288C0.857178 21.8834 1.03779 22.3195 1.35928 22.641C1.68077 22.9625 2.11681 23.1431 2.57146 23.1431H6.85718" stroke="currentColor" stroke-linecap="round" stroke-linejoin="round"/>
<path d="M23.1428 17.1431V21.4288C23.1428 21.8834 22.9622 22.3195 22.6407 22.641C22.3192 22.9625 21.8832 23.1431 21.4285 23.1431H17.1428" stroke="currentColor" stroke-linecap="round" stroke-linejoin="round"/>
<path d="M1.71436 12.8571H6.00007L8.5715 6L12.0001 15.4286L15.4286 8.57143L18.0001 12.8571H22.2858" stroke="currentColor" stroke-linecap="round" stroke-linejoin="round"/>
</g>
<defs>
<clipPath id="clip0_12_80573">
<rect width="24" height="24" fill="white"/>
</clipPath>
</defs>
</svg>
