<svg width="24" height="24" viewBox="0 0 24 24" fill="none" xmlns="http://www.w3.org/2000/svg">
<path d="M8.5 17.5H2.5C2.10217 17.5 1.72064 17.342 1.43934 17.0607C1.15803 16.7794 1 16.3979 1 16V4C1 3.60217 1.15803 3.22064 1.43934 2.93934C1.72064 2.65803 2.10217 2.5 2.5 2.5H16C16.3979 2.5 16.7793 2.65803 17.0606 2.93934C17.3419 3.22064 17.5 3.60217 17.5 4V8.5" stroke="currentColor" stroke-linecap="round" stroke-linejoin="round"/>
<path d="M1 7H17.5" stroke="currentColor" stroke-linecap="round" stroke-linejoin="round"/>
<path d="M5.5 4V1" stroke="currentColor" stroke-linecap="round" stroke-linejoin="round"/>
<path d="M13 4V1" stroke="currentColor" stroke-linecap="round" stroke-linejoin="round"/>
<path d="M15.25 19H11.5V22.75" stroke="currentColor" stroke-linecap="round" stroke-linejoin="round"/>
<path d="M22.9168 19.734C22.5189 20.8941 21.7494 21.8905 20.7276 22.5688C19.7059 23.2472 18.4889 23.5695 17.2653 23.4859C16.0417 23.4022 14.8799 22.9173 13.9599 22.1063C13.04 21.2953 12.4132 20.2035 12.1768 19" stroke="currentColor" stroke-linecap="round" stroke-linejoin="round"/>
<path d="M19.75 16H23.5V12.25" stroke="currentColor" stroke-linecap="round" stroke-linejoin="round"/>
<path d="M12.083 15.2671C12.4801 14.1063 13.2493 13.1091 14.2711 12.4302C15.2929 11.7512 16.5103 11.4285 17.7343 11.512C18.9582 11.5955 20.1204 12.0807 21.0405 12.8922C21.9606 13.7037 22.5872 14.7961 22.823 16.0001" stroke="currentColor" stroke-linecap="round" stroke-linejoin="round"/>
</svg>
