<svg width="24" height="24" viewBox="0 0 24 24" fill="none" xmlns="http://www.w3.org/2000/svg">
<g clip-path="url(#clip0_12_79340)">
<path d="M5.25195 5.62427C5.04485 5.62427 4.87695 5.45637 4.87695 5.24927C4.87695 5.04216 5.04485 4.87427 5.25195 4.87427" stroke="currentColor"/>
<path d="M5.25195 5.62427C5.45906 5.62427 5.62695 5.45637 5.62695 5.24927C5.62695 5.04216 5.45906 4.87427 5.25195 4.87427" stroke="currentColor"/>
<path d="M5.25195 14.6243C5.04485 14.6243 4.87695 14.4564 4.87695 14.2493C4.87695 14.0422 5.04485 13.8743 5.25195 13.8743" stroke="currentColor"/>
<path d="M5.25195 14.6243C5.45906 14.6243 5.62695 14.4564 5.62695 14.2493C5.62695 14.0422 5.45906 13.8743 5.25195 13.8743" stroke="currentColor"/>
<path d="M12.751 9.74927H5.25098C4.0575 9.74927 2.91291 9.27516 2.069 8.43125C1.22508 7.58733 0.750977 6.44274 0.750977 5.24927C0.750977 4.05579 1.22508 2.9112 2.069 2.06729C2.91291 1.22337 4.0575 0.749268 5.25098 0.749268H17.251C18.1596 0.749173 19.0469 1.02412 19.7962 1.53794C20.5456 2.05175 21.1219 2.78037 21.4492 3.62794C21.7766 4.4755 21.8397 5.40231 21.6303 6.28644C21.4209 7.17056 20.9487 7.97059 20.276 8.58127" stroke="currentColor" stroke-linecap="round" stroke-linejoin="round"/>
<path d="M8.25 18.7493H5.25C4.05653 18.7493 2.91193 18.2752 2.06802 17.4312C1.22411 16.5873 0.75 15.4427 0.75 14.2493C0.75 13.0558 1.22411 11.9112 2.06802 11.0673C2.91193 10.2234 4.05653 9.74927 5.25 9.74927" stroke="currentColor" stroke-linecap="round" stroke-linejoin="round"/>
<path d="M10.502 5.24927H17.252" stroke="currentColor" stroke-linecap="round" stroke-linejoin="round"/>
<path d="M15 18.6503H11.25V22.4003" stroke="currentColor" stroke-linecap="round" stroke-linejoin="round"/>
<path d="M22.6677 19.3834C22.2705 20.5441 21.5013 21.5413 20.4795 22.2203C19.4577 22.8992 18.2404 23.222 17.0164 23.1385C15.7924 23.0549 14.6302 22.5698 13.7101 21.7583C12.79 20.9468 12.1635 19.8543 11.9277 18.6504" stroke="currentColor" stroke-linecap="round" stroke-linejoin="round"/>
<path d="M19.5 15.6503H23.25V11.9003" stroke="currentColor" stroke-linecap="round" stroke-linejoin="round"/>
<path d="M11.833 14.9173C12.2302 13.7566 12.9994 12.7594 14.0212 12.0804C15.043 11.4014 16.2604 11.0787 17.4843 11.1622C18.7083 11.2458 19.8705 11.7309 20.7906 12.5424C21.7107 13.3539 22.3372 14.4464 22.573 15.6503" stroke="currentColor" stroke-linecap="round" stroke-linejoin="round"/>
</g>
<defs>
<clipPath id="clip0_12_79340">
<rect width="24" height="24" fill="white"/>
</clipPath>
</defs>
</svg>
