<svg width="24" height="24" viewBox="0 0 24 24" fill="none" xmlns="http://www.w3.org/2000/svg">
<path d="M14.9316 1.02441C15.3827 0.525222 16.0992 0.363535 16.7207 0.621094C17.3033 0.862694 17.6841 1.42387 17.7012 2.04688L17.7002 2.17188L17.624 3.66602C17.5873 4.39637 17.8613 5.10843 18.3779 5.62598C18.8947 6.14354 19.6064 6.41848 20.3369 6.38281H20.3379L21.8311 6.30664C22.5023 6.27364 23.1219 6.6669 23.3789 7.28809C23.6358 7.90945 23.4742 8.62529 22.9756 9.07617L21.8643 10.0791V10.0801C21.3203 10.5715 21.0098 11.2699 21.0098 12.0029C21.0098 12.6445 21.2469 13.2603 21.6709 13.7334L21.8643 13.9268L22.9756 14.9297C23.4747 15.3807 23.6362 16.0971 23.3789 16.7188C23.1213 17.3405 22.5 17.7334 21.8281 17.6992L20.334 17.623H20.333C19.6018 17.5859 18.889 17.8602 18.3711 18.3779C17.853 18.8961 17.5778 19.61 17.6152 20.3418L17.6914 21.8369C17.7197 22.5041 17.3279 23.1183 16.7109 23.374C16.0937 23.6297 15.3825 23.4725 14.9307 22.9805H14.9316L13.9277 21.8701C13.4366 21.3262 12.7377 21.0157 12.0049 21.0156C11.2724 21.0156 10.5741 21.3258 10.083 21.8691L9.07422 22.9795C8.62311 23.4754 7.90947 23.635 7.29004 23.3789C6.67083 23.1227 6.27888 22.5056 6.30957 21.8359L6.30859 21.835L6.38574 20.3447C6.42338 19.6127 6.14905 18.8992 5.63086 18.3809C5.1126 17.8625 4.39898 17.5874 3.66699 17.625L2.17285 17.7012C1.50134 17.7362 0.880185 17.3447 0.62207 16.7236C0.364062 16.1028 0.524354 15.3869 1.02246 14.9355L2.13379 13.9316C2.67752 13.4403 2.9882 12.7417 2.98828 12.0088C2.98828 11.3671 2.75022 10.7514 2.32617 10.2783L2.13379 10.085L1.02344 9.07715C0.526576 8.62637 0.365715 7.91203 0.62207 7.29199C0.878396 6.67228 1.49639 6.27902 2.16602 6.31055V6.31152L3.65918 6.38672V6.3877C4.39249 6.42613 5.10797 6.15138 5.62695 5.63184C6.08116 5.17712 6.34763 4.57199 6.38086 3.93652V3.66309L6.30957 2.16992C6.27845 1.50008 6.67061 0.882445 7.29004 0.625977C7.90946 0.369738 8.62302 0.529512 9.07422 1.02539V1.02441L10.0762 2.13086V2.13184C10.567 2.67663 11.2658 2.98727 11.999 2.9873C12.7323 2.9873 13.4311 2.67658 13.9219 2.13184L13.9209 2.13086L14.9297 1.02637L14.9316 1.02441Z" stroke="currentColor" stroke-linecap="round" stroke-linejoin="round"/>
<path fill-rule="evenodd" clip-rule="evenodd" d="M7.677 12.0033C7.677 14.3906 9.612 16.3259 11.9989 16.3259C14.3859 16.3259 16.3209 14.3906 16.3209 12.0033C16.3209 9.61595 14.3859 7.68066 11.9989 7.68066C9.612 7.68066 7.677 9.61595 7.677 12.0033H7.677Z" stroke="currentColor" stroke-linecap="round" stroke-linejoin="round"/>
</svg>
