<svg width="24" height="24" viewBox="0 0 24 24" fill="none" xmlns="http://www.w3.org/2000/svg">
<path d="M8.9375 21.6143H22.5399" stroke="currentColor" stroke-width="1.5" stroke-linecap="round" stroke-linejoin="round"/>
<path d="M2.9221 9.70247C1.71049 8.66664 1.17868 8.03359 1.02089 6.51324C0.871352 5.07233 1.5396 3.58662 2.54429 2.82767C3.94146 1.77226 5.60054 2.76525 6.52829 4.16518C7.53367 5.68224 8.40303 10.0678 8.46954 11.9486C8.54506 14.0841 8.19777 16.0242 7.30417 17.8804C6.69127 19.1534 5.78567 20.6542 4.58031 21.1625C3.48797 21.6232 2.30094 21.4515 2.08109 19.8929C1.81163 17.9827 2.5541 16.1216 3.3658 14.5429C4.442 12.4498 5.80107 10.7168 7.68326 9.70247C14.9412 5.79081 10.6554 18.3862 13.0625 18.3862C15.4696 18.3862 15.625 12.1986 17.3125 13.1877C19 14.1768 15.7738 20.3197 21.8125 16.4377" stroke="currentColor" stroke-width="1.5" stroke-linecap="round" stroke-linejoin="round"/>
</svg>
