<svg width="24" height="24" viewBox="0 0 24 24" fill="none" xmlns="http://www.w3.org/2000/svg">
<g clip-path="url(#clip0_12_79042)">
<path d="M17.2282 12.0001C17.2407 12.6833 17.1169 13.3621 16.8641 13.9969C16.6113 14.6317 16.2345 15.2097 15.7558 15.6972C15.2771 16.1848 14.706 16.572 14.076 16.8364C13.4459 17.1007 12.7695 17.2369 12.0862 17.2369C11.4029 17.2369 10.7265 17.1007 10.0965 16.8364C9.4664 16.572 8.89534 16.1848 8.41662 15.6972C7.93791 15.2097 7.56114 14.6317 7.30833 13.9969C7.05552 13.3621 6.93174 12.6833 6.94422 12.0001C6.96882 10.6527 7.52138 9.36867 8.48302 8.42443C9.44465 7.4802 10.7385 6.95117 12.0862 6.95117C13.4339 6.95117 14.7278 7.4802 15.6894 8.42443C16.6511 9.36867 17.2036 10.6527 17.2282 12.0001Z" stroke="currentColor" stroke-linecap="round" stroke-linejoin="round"/>
<path d="M17.2286 12V14.2286C17.2286 20.2115 26.6058 14.5715 21.6858 6.44575C20.6951 4.75383 19.2811 3.34887 17.5829 2.36901C15.8846 1.38915 13.9606 0.868131 12 0.857178C10.3529 0.862265 8.72737 1.23246 7.24046 1.94112C5.75354 2.64977 4.44223 3.67926 3.4009 4.95549C2.35957 6.23171 1.61413 7.72292 1.21824 9.32179C0.822348 10.9207 0.785845 12.5874 1.11136 14.2021C1.43688 15.8167 2.11632 17.3392 3.10077 18.6598C4.08523 19.9803 5.35022 21.0663 6.80468 21.8393C8.25915 22.6124 9.86691 23.0534 11.5123 23.1306C13.1576 23.2078 14.7996 22.9193 16.32 22.2857" stroke="currentColor" stroke-linecap="round" stroke-linejoin="round"/>
</g>
<defs>
<clipPath id="clip0_12_79042">
<rect width="24" height="24" fill="white"/>
</clipPath>
</defs>
</svg>
