<svg width="24" height="24" viewBox="0 0 24 24" fill="none" xmlns="http://www.w3.org/2000/svg">
<g clip-path="url(#clip0_12_80004)">
<path d="M20.75 11.75V20.25C20.75 21.0456 20.4339 21.8087 19.8713 22.3713C19.3087 22.9339 18.5456 23.25 17.75 23.25H3.75C2.95435 23.25 2.19129 22.9339 1.62868 22.3713C1.06607 21.8087 0.75 21.0456 0.75 20.25V6.25C0.75 5.45435 1.06607 4.69129 1.62868 4.12868C2.19129 3.56607 2.95435 3.25 3.75 3.25H12.25" stroke="currentColor" stroke-linecap="round" stroke-linejoin="round"/>
<path d="M19.25 8.75C21.4591 8.75 23.25 6.95914 23.25 4.75C23.25 2.54086 21.4591 0.75 19.25 0.75C17.0409 0.75 15.25 2.54086 15.25 4.75C15.25 6.95914 17.0409 8.75 19.25 8.75Z" stroke="currentColor" stroke-linecap="round" stroke-linejoin="round"/>
</g>
<defs>
<clipPath id="clip0_12_80004">
<rect width="24" height="24" fill="white"/>
</clipPath>
</defs>
</svg>
