<svg width="24" height="24" viewBox="0 0 24 24" fill="none" xmlns="http://www.w3.org/2000/svg">
<path d="M12 7.27197V12.9957" stroke="currentColor" stroke-linecap="round" stroke-linejoin="round"/>
<path d="M11.9997 19.7147C16.2603 19.7147 19.7142 16.2608 19.7142 12.0002C19.7142 7.73957 16.2603 4.28564 11.9997 4.28564C7.73908 4.28564 4.28516 7.73957 4.28516 12.0002C4.28516 16.2608 7.73908 19.7147 11.9997 19.7147Z" stroke="currentColor" stroke-linecap="round" stroke-linejoin="round"/>
<path d="M19.615 20.2124C20.7457 19.1641 21.6478 17.8936 22.2647 16.4804C22.8816 15.0673 23.2 13.542 23.2 12.0001C23.2 10.4582 22.8816 8.9329 22.2647 7.51977C21.6478 6.10665 20.7457 4.83614 19.615 3.78784" stroke="currentColor" stroke-linecap="round" stroke-linejoin="round"/>
<path d="M4.3848 3.78784C3.25407 4.83614 2.35201 6.10665 1.73512 7.51977C1.11823 8.9329 0.799805 10.4582 0.799805 12.0001C0.799805 13.542 1.11823 15.0673 1.73512 16.4804C2.35201 17.8936 3.25407 19.1641 4.3848 20.2124" stroke="currentColor" stroke-linecap="round" stroke-linejoin="round"/>
<path d="M11.9954 16.7285C11.7892 16.7285 11.6221 16.5614 11.6221 16.3552C11.6221 16.1491 11.7892 15.9819 11.9954 15.9819" stroke="currentColor"/>
<path d="M11.9951 16.7285C12.2013 16.7285 12.3684 16.5614 12.3684 16.3552C12.3684 16.1491 12.2013 15.9819 11.9951 15.9819" stroke="currentColor"/>
</svg>
