<svg width="24" height="24" viewBox="0 0 24 24" fill="none" xmlns="http://www.w3.org/2000/svg">
<g clip-path="url(#clip0_12_79192)">
<path d="M6.75 8.25V5.25" stroke="currentColor" stroke-linecap="round" stroke-linejoin="round"/>
<path d="M9.75 8.25V5.25" stroke="currentColor" stroke-linecap="round" stroke-linejoin="round"/>
<path d="M3.75 11.25H0.75" stroke="currentColor" stroke-linecap="round" stroke-linejoin="round"/>
<path d="M3.75 17.25H0.75" stroke="currentColor" stroke-linecap="round" stroke-linejoin="round"/>
<path d="M3.75 14.25H0.75" stroke="currentColor" stroke-linecap="round" stroke-linejoin="round"/>
<path d="M9.75 23.25V20.25" stroke="currentColor" stroke-linecap="round" stroke-linejoin="round"/>
<path d="M18.75 17.25H15.75" stroke="currentColor" stroke-linecap="round" stroke-linejoin="round"/>
<path d="M6.75 23.25V20.25" stroke="currentColor" stroke-linecap="round" stroke-linejoin="round"/>
<path d="M12.75 23.25V20.25" stroke="currentColor" stroke-linecap="round" stroke-linejoin="round"/>
<path d="M15.75 14.25V18.75C15.75 19.1478 15.592 19.5294 15.3107 19.8107C15.0294 20.092 14.6478 20.25 14.25 20.25H5.25C4.85218 20.25 4.47064 20.092 4.18934 19.8107C3.90804 19.5294 3.75 19.1478 3.75 18.75V9.75C3.75 9.35218 3.90804 8.97064 4.18934 8.68934C4.47064 8.40804 4.85218 8.25 5.25 8.25H12" stroke="currentColor" stroke-linecap="round" stroke-linejoin="round"/>
<path d="M6.75 11.25H12.75V17.25H6.75V11.25Z" stroke="currentColor" stroke-linecap="round" stroke-linejoin="round"/>
<path d="M18.312 0.75C18.8872 1.43586 19.2381 2.28164 19.3175 3.17323C19.3969 4.06481 19.2009 4.9593 18.756 5.736C18.3621 5.76649 17.9713 5.64619 17.6627 5.39945C17.3542 5.15272 17.1509 4.79797 17.094 4.407C16.5041 4.72918 16.0185 5.21323 15.6945 5.80213C15.3704 6.39102 15.2214 7.06025 15.265 7.731C15.265 8.78895 15.6853 9.80357 16.4333 10.5516C17.1814 11.2997 18.196 11.72 19.254 11.72C20.3075 11.7058 21.3139 11.2809 22.0589 10.5359C22.8039 9.79089 23.2288 8.78452 23.243 7.731C23.3763 6.17274 22.9546 4.6175 22.0523 3.34007C21.1499 2.06265 19.8252 1.14526 18.312 0.75Z" stroke="currentColor" stroke-linecap="round" stroke-linejoin="round"/>
</g>
<defs>
<clipPath id="clip0_12_79192">
<rect width="24" height="24" fill="white"/>
</clipPath>
</defs>
</svg>
