<svg width="24" height="24" viewBox="0 0 24 24" fill="none" xmlns="http://www.w3.org/2000/svg">
<path d="M4.5 8.25C4.5 10.2391 5.29018 12.1468 6.6967 13.5533C8.10322 14.9598 10.0109 15.75 12 15.75C13.9891 15.75 15.8968 14.9598 17.3033 13.5533C18.7098 12.1468 19.5 10.2391 19.5 8.25C19.5 6.26088 18.7098 4.35322 17.3033 2.9467C15.8968 1.54018 13.9891 0.75 12 0.75C10.0109 0.75 8.10322 1.54018 6.6967 2.9467C5.29018 4.35322 4.5 6.26088 4.5 8.25Z" stroke="currentColor" stroke-linecap="round" stroke-linejoin="round"/>
<path d="M4.5 8.25H19.5" stroke="currentColor" stroke-linecap="round" stroke-linejoin="round"/>
<path d="M8.25 14.745L15.75 1.755" stroke="currentColor" stroke-linecap="round" stroke-linejoin="round"/>
<path d="M15.75 14.745L8.25 1.755" stroke="currentColor" stroke-linecap="round" stroke-linejoin="round"/>
<path d="M18 23.25C17.3014 22.3185 16.3955 21.5625 15.3541 21.0418C14.3127 20.5211 13.1643 20.25 12 20.25C10.8357 20.25 9.68731 20.5211 8.6459 21.0418C7.60448 21.5625 6.6986 22.3185 6 23.25H18Z" stroke="currentColor" stroke-linecap="round" stroke-linejoin="round"/>
<path d="M12 15.75V20.25" stroke="currentColor" stroke-linecap="round" stroke-linejoin="round"/>
</svg>
