<svg width="24" height="24" viewBox="0 0 24 24" fill="none" xmlns="http://www.w3.org/2000/svg">
<g clip-path="url(#clip0_12_80977)">
<path d="M0.721924 20.2529H8.22192" stroke="currentColor" stroke-linecap="round" stroke-linejoin="round"/>
<path d="M14.8719 17.2529L17.9719 22.5249C18.0723 22.6959 18.2055 22.8453 18.3639 22.9644C18.5224 23.0836 18.7028 23.1701 18.8949 23.2191C19.087 23.2681 19.2869 23.2785 19.483 23.2498C19.6791 23.2211 19.8676 23.1537 20.0376 23.0517C20.2076 22.9497 20.3556 22.815 20.4732 22.6554C20.5908 22.4958 20.6756 22.3145 20.7226 22.1219C20.7697 21.9294 20.7782 21.7294 20.7475 21.5335C20.7168 21.3377 20.6476 21.1499 20.5439 20.9809L17.0079 14.9809C16.8746 14.7589 16.6862 14.5752 16.4608 14.4476C16.2354 14.32 15.9809 14.2529 15.7219 14.2529H10.6489L8.06393 9.08193C7.94956 8.85326 7.77864 8.65761 7.56739 8.51357C7.35614 8.36953 7.11158 8.28187 6.85693 8.25893C6.60194 8.23408 6.34487 8.27584 6.11086 8.38014C5.87685 8.48444 5.67392 8.64769 5.52193 8.85393L1.02193 14.8539C0.783235 15.1722 0.680745 15.5722 0.737006 15.9661C0.793267 16.3599 1.00367 16.7152 1.32193 16.9539C1.64019 17.1926 2.04024 17.2951 2.43406 17.2389C2.82789 17.1826 3.18323 16.9722 3.42193 16.6539L6.46593 12.5999L8.37993 16.4239C8.50456 16.6731 8.69613 16.8827 8.93316 17.0291C9.17019 17.1755 9.44332 17.253 9.72193 17.2529H11.2219V21.7529C11.2219 22.1508 11.38 22.5323 11.6613 22.8136C11.9426 23.0949 12.3241 23.2529 12.7219 23.2529C13.1198 23.2529 13.5013 23.0949 13.7826 22.8136C14.0639 22.5323 14.2219 22.1508 14.2219 21.7529V17.2529H14.8719Z" stroke="currentColor" stroke-linecap="round" stroke-linejoin="round"/>
<path d="M4.84692 3.75195C4.84692 4.09667 4.91482 4.43802 5.04674 4.7565C5.17866 5.07498 5.37201 5.36435 5.61577 5.60811C5.85952 5.85186 6.1489 6.04522 6.46738 6.17714C6.78586 6.30906 7.1272 6.37695 7.47192 6.37695C7.81664 6.37695 8.15799 6.30906 8.47647 6.17714C8.79495 6.04522 9.08433 5.85186 9.32808 5.60811C9.57183 5.36435 9.76519 5.07498 9.89711 4.7565C10.029 4.43802 10.0969 4.09667 10.0969 3.75195C10.0969 3.40723 10.029 3.06589 9.89711 2.74741C9.76519 2.42893 9.57183 2.13955 9.32808 1.8958C9.08433 1.65204 8.79495 1.45869 8.47647 1.32677C8.15799 1.19485 7.81664 1.12695 7.47192 1.12695C7.1272 1.12695 6.78586 1.19485 6.46738 1.32677C6.1489 1.45869 5.85952 1.65204 5.61577 1.8958C5.37201 2.13955 5.17866 2.42893 5.04674 2.74741C4.91482 3.06589 4.84692 3.40723 4.84692 3.75195Z" stroke="currentColor" stroke-linecap="round" stroke-linejoin="round"/>
<path d="M22.4281 0.75C23.8651 3.623 20.2771 3.131 22.4281 6" stroke="currentColor" stroke-linecap="round" stroke-linejoin="round"/>
<path d="M18.6781 0.75C20.1151 3.623 16.5271 3.131 18.6781 6" stroke="currentColor" stroke-linecap="round" stroke-linejoin="round"/>
<path d="M14.9281 0.75C16.3651 3.623 12.7771 3.131 14.9281 6" stroke="currentColor" stroke-linecap="round" stroke-linejoin="round"/>
</g>
<defs>
<clipPath id="clip0_12_80977">
<rect width="24" height="24" fill="white"/>
</clipPath>
</defs>
</svg>
