<svg width="24" height="24" viewBox="0 0 24 24" fill="none" xmlns="http://www.w3.org/2000/svg">
<g clip-path="url(#clip0_12_80984)">
<path d="M8.24991 15.418V3.75C8.24991 2.95435 7.93384 2.19129 7.37123 1.62868C6.80862 1.06607 6.04556 0.75 5.24991 0.75C4.45426 0.75 3.6912 1.06607 3.12859 1.62868C2.56598 2.19129 2.24991 2.95435 2.24991 3.75V15.418C1.69334 15.9193 1.27093 16.5518 1.02113 17.258C0.771318 17.9642 0.702035 18.7217 0.819579 19.4615C0.937123 20.2012 1.23776 20.8999 1.69415 21.4939C2.15054 22.0879 2.74819 22.5583 3.43275 22.8624C4.1173 23.1666 4.86703 23.2947 5.61373 23.2352C6.36043 23.1757 7.08041 22.9305 7.70818 22.5218C8.33595 22.1132 8.85158 21.554 9.20816 20.8953C9.56475 20.2365 9.75098 19.4991 9.74991 18.75C9.74857 18.1203 9.61425 17.498 9.35576 16.9238C9.09727 16.3496 8.72043 15.8365 8.24991 15.418Z" stroke="currentColor" stroke-linecap="round" stroke-linejoin="round"/>
<path d="M5.25 5.25V17.25" stroke="currentColor" stroke-linecap="round" stroke-linejoin="round"/>
<path d="M3.75 18.75C3.75 19.1478 3.90804 19.5294 4.18934 19.8107C4.47064 20.092 4.85218 20.25 5.25 20.25C5.64782 20.25 6.02936 20.092 6.31066 19.8107C6.59196 19.5294 6.75 19.1478 6.75 18.75C6.75 18.3522 6.59196 17.9706 6.31066 17.6893C6.02936 17.408 5.64782 17.25 5.25 17.25C4.85218 17.25 4.47064 17.408 4.18934 17.6893C3.90804 17.9706 3.75 18.3522 3.75 18.75Z" stroke="currentColor" stroke-linecap="round" stroke-linejoin="round"/>
<path d="M11.25 6.75C11.25 8.3413 11.8821 9.86742 13.0074 10.9926C14.1326 12.1179 15.6587 12.75 17.25 12.75C18.8413 12.75 20.3674 12.1179 21.4926 10.9926C22.6179 9.86742 23.25 8.3413 23.25 6.75C23.25 5.1587 22.6179 3.63258 21.4926 2.50736C20.3674 1.38214 18.8413 0.75 17.25 0.75C15.6587 0.75 14.1326 1.38214 13.0074 2.50736C11.8821 3.63258 11.25 5.1587 11.25 6.75Z" stroke="currentColor" stroke-linecap="round" stroke-linejoin="round"/>
<path d="M17.25 9.75V3.75" stroke="currentColor" stroke-linecap="round" stroke-linejoin="round"/>
<path d="M17.25 3.75L15 6" stroke="currentColor" stroke-linecap="round" stroke-linejoin="round"/>
<path d="M17.25 3.75L19.5 6" stroke="currentColor" stroke-linecap="round" stroke-linejoin="round"/>
</g>
<defs>
<clipPath id="clip0_12_80984">
<rect width="24" height="24" fill="white"/>
</clipPath>
</defs>
</svg>
