<svg width="24" height="24" viewBox="0 0 24 24" fill="none" xmlns="http://www.w3.org/2000/svg">
<path d="M19.25 0.748047H4.75C4.19772 0.748047 3.75 1.19576 3.75 1.74805V22.248C3.75 22.8003 4.19772 23.248 4.75 23.248H19.25C19.8023 23.248 20.25 22.8003 20.25 22.248V1.74805C20.25 1.19576 19.8023 0.748047 19.25 0.748047Z" stroke="currentColor" stroke-linecap="round" stroke-linejoin="round"/>
<path d="M20.0671 22.8251L17.4921 20.1601C17.2817 19.948 17.0309 19.7801 16.7546 19.6664C16.4782 19.5527 16.1819 19.4955 15.8831 19.4981H8.11811C7.81914 19.4954 7.52265 19.5526 7.24613 19.6663C6.96962 19.78 6.71867 19.9479 6.50811 20.1601L3.93311 22.8251" stroke="currentColor" stroke-linecap="round" stroke-linejoin="round"/>
<path d="M12 6.74805C12.8284 6.74805 13.5 6.07647 13.5 5.24805C13.5 4.41962 12.8284 3.74805 12 3.74805C11.1716 3.74805 10.5 4.41962 10.5 5.24805C10.5 6.07647 11.1716 6.74805 12 6.74805Z" stroke="currentColor" stroke-linecap="round" stroke-linejoin="round"/>
<path d="M12 15.748C12.8284 15.748 13.5 15.0765 13.5 14.248C13.5 13.4196 12.8284 12.748 12 12.748C11.1716 12.748 10.5 13.4196 10.5 14.248C10.5 15.0765 11.1716 15.748 12 15.748Z" stroke="currentColor" stroke-linecap="round" stroke-linejoin="round"/>
<path d="M12 6.74805V12.748" stroke="currentColor" stroke-linecap="round" stroke-linejoin="round"/>
<path d="M15.75 7.49968H16.919C17.2337 7.49972 17.5405 7.40076 17.7959 7.2168C18.0513 7.03285 18.2423 6.77322 18.342 6.47468L20.1 1.22168" stroke="currentColor" stroke-linecap="round" stroke-linejoin="round"/>
<path d="M3.90479 1.21289L5.65779 6.47289C5.75711 6.77181 5.94801 7.03187 6.20343 7.2162C6.45884 7.40054 6.7658 7.49979 7.08079 7.49989H8.24979" stroke="currentColor" stroke-linecap="round" stroke-linejoin="round"/>
</svg>
