<svg width="26" height="26" viewBox="0 0 26 26" fill="none" xmlns="http://www.w3.org/2000/svg">
<g clip-path="url(#clip0_12_80333)">
<path d="M13.7333 22.5333C11.7778 22.5333 9.92 21.9467 8.35556 20.9689L2 24L5.03112 17.6444C4.05334 16.08 3.46667 14.2222 3.46667 12.2667C3.46667 6.59555 8.06222 2 13.7333 2C19.4044 2 24 6.59555 24 12.2667" stroke="currentColor" stroke-width="1.01701" stroke-miterlimit="10" stroke-linecap="round" stroke-linejoin="round"/>
<mask id="mask0_12_80333" style="mask-type:alpha" maskUnits="userSpaceOnUse" x="16" y="13" width="9" height="10">
<path d="M23.5812 14.7436C22.2207 17.6119 22.3609 19.1436 23.9289 21.7345C21.3314 20.1774 19.7991 20.0437 16.9366 21.4163C18.2971 18.5481 18.157 17.0163 16.5889 14.4254C19.1864 15.9825 20.7187 16.1162 23.5812 14.7436Z" fill="currentColor" stroke="currentColor" stroke-width="0.94168" stroke-linecap="round" stroke-linejoin="round"/>
</mask>
<g mask="url(#mask0_12_80333)">
<path opacity="0.7" d="M21.9551 16.273C21.1083 18.0487 21.1932 18.9981 22.1614 20.6057C20.5539 19.6374 19.6044 19.5525 17.8288 20.3994C18.6757 18.6237 18.5908 17.6743 17.6225 16.0667C19.2301 17.035 20.1795 17.1199 21.9551 16.273Z" fill="currentColor" stroke="currentColor" stroke-width="0.94168" stroke-linecap="round" stroke-linejoin="round"/>
<g filter="url(#filter0_f_12_80333)">
<rect x="19.5" y="40.689" width="8" height="35.6296" transform="rotate(-135 19.5 40.689)" fill="white" style="mix-blend-mode:lighten"/>
</g>
</g>
</g>
<defs>
<filter id="filter0_f_12_80333" x="12.1433" y="8.13838" width="34.2506" height="34.2506" filterUnits="userSpaceOnUse" color-interpolation-filters="sRGB">
<feFlood flood-opacity="0" result="BackgroundImageFix"/>
<feBlend mode="normal" in="SourceGraphic" in2="BackgroundImageFix" result="shape"/>
<feGaussianBlur stdDeviation="0.85" result="effect1_foregroundBlur_12_80333"/>
</filter>
<clipPath id="clip0_12_80333">
<rect width="26" height="26" fill="white"/>
</clipPath>
</defs>
</svg>
