<svg width="24" height="24" viewBox="0 0 24 24" fill="none" xmlns="http://www.w3.org/2000/svg">
<g clip-path="url(#clip0_12_78022)">
<path d="M1.70905 21.6744L1.0062 9.67438C0.991581 9.55349 1.00289 9.43088 1.03937 9.3147C1.07585 9.19853 1.13667 9.09146 1.21777 9.00063C1.29887 8.9098 1.39839 8.83729 1.5097 8.78793C1.62102 8.73857 1.74157 8.7135 1.86334 8.71438H9.7662C9.95834 8.71557 10.1447 8.78002 10.2966 8.89777C10.4484 9.01552 10.5572 9.18001 10.6062 9.36581L11.2919 12.1429H22.4348C22.5533 12.1426 22.6707 12.1668 22.7794 12.2141C22.8882 12.2614 22.9859 12.3307 23.0665 12.4177C23.147 12.5047 23.2086 12.6075 23.2475 12.7196C23.2863 12.8316 23.3014 12.9505 23.2919 13.0687L22.6233 21.6401C22.5888 22.0706 22.393 22.4722 22.0752 22.7646C21.7574 23.057 21.3409 23.2186 20.9091 23.2172H3.42334C2.99688 23.2194 2.58494 23.0625 2.26795 22.7772C1.95096 22.4919 1.75169 22.0987 1.70905 21.6744Z" stroke="currentColor" stroke-linecap="round" stroke-linejoin="round"/>
<path d="M6.14917 5.28571V1.85714C6.14917 1.62981 6.23948 1.4118 6.40022 1.25105C6.56097 1.09031 6.77898 1 7.00631 1H21.5777C21.8051 1 22.0231 1.09031 22.1838 1.25105C22.3446 1.4118 22.4349 1.62981 22.4349 1.85714V8.71429" stroke="currentColor" stroke-linecap="round" stroke-linejoin="round"/>
<path d="M13.0061 5.28564H18.149" stroke="currentColor" stroke-linecap="round" stroke-linejoin="round"/>
</g>
<defs>
<clipPath id="clip0_12_78022">
<rect width="24" height="24" fill="white"/>
</clipPath>
</defs>
</svg>
