<svg width="20" height="20" viewBox="0 0 20 20" fill="none" xmlns="http://www.w3.org/2000/svg">
<path d="M1.60043 6.76778C1.08499 6.56943 0.823499 5.9879 1.07231 5.49483C1.88321 3.88787 3.11612 2.52359 4.6469 1.55344C6.46027 0.4042 8.59535 -0.130944 10.7364 0.0271506C12.8774 0.185245 14.9108 1.02818 16.5357 2.4313C18.1606 3.83443 19.2908 5.72323 19.7591 7.81839C20.2275 9.91355 20.0091 12.1038 19.1364 14.0653C18.2636 16.0267 16.7828 17.6553 14.9129 18.71C13.0429 19.7647 10.8832 20.1897 8.75311 19.922C6.95494 19.696 5.25846 18.9866 3.84048 17.8779C3.4054 17.5377 3.39438 16.9001 3.7763 16.5012C4.15821 16.1022 4.78803 16.0943 5.23148 16.4235C6.3327 17.241 7.6306 17.7652 9.00249 17.9376C10.7066 18.1517 12.4344 17.8118 13.9303 16.968C15.4262 16.1242 16.6109 14.8214 17.3091 13.2522C18.0073 11.6831 18.182 9.93084 17.8073 8.25471C17.4326 6.57859 16.5285 5.06754 15.2285 3.94504C13.9286 2.82255 12.3019 2.1482 10.5891 2.02172C8.87628 1.89525 7.16822 2.32336 5.71752 3.24275C4.54964 3.98291 3.59848 5.00984 2.95018 6.21844C2.68912 6.70513 2.11587 6.96612 1.60043 6.76778Z" fill="currentColor"/>
<path d="M1.13262 11.5393C0.588471 11.6338 0.065479 11.269 0.0258134 10.7182C-0.093925 9.05529 0.203742 7.3831 0.898969 5.85618C1.7328 4.02485 3.09971 2.48767 4.82105 1.44556C6.5424 0.403438 8.53809 -0.0951399 10.5473 0.0149878C12.5565 0.125115 14.4857 0.838825 16.0829 2.06283C17.68 3.28684 18.8707 4.96421 19.4994 6.8757C20.1281 8.78719 20.1655 10.8439 19.6067 12.777C19.0479 14.71 17.9189 16.4296 16.3674 17.7108C15.0737 18.7791 13.5364 19.5013 11.8995 19.8179C11.3573 19.9228 10.8691 19.5127 10.8189 18.9627C10.7686 18.4127 11.1761 17.9323 11.7155 17.8139C12.9516 17.5425 14.1107 16.9805 15.0939 16.1687C16.3352 15.1437 17.2383 13.768 17.6854 12.2216C18.1324 10.6751 18.1025 9.02975 17.5995 7.50056C17.0966 5.97137 16.144 4.62948 14.8663 3.65027C13.5886 2.67106 12.0452 2.10009 10.4378 2.01199C8.83047 1.92389 7.23392 2.32275 5.85684 3.15645C4.47977 3.99014 3.38624 5.21988 2.71918 6.68495C2.19081 7.84539 1.94948 9.11071 2.00878 10.3749C2.03466 10.9266 1.67676 11.4449 1.13262 11.5393Z" fill="currentColor"/>
<path d="M1 10C0.447715 10 -0.00518052 9.55118 0.0499562 9.00165C0.19172 7.58874 0.633246 6.21819 1.34946 4.98321C2.23339 3.45903 3.50434 2.19546 5.03364 1.32041C6.56293 0.445367 8.29628 -0.0100843 10.0582 0.000169335C11.8201 0.010423 13.548 0.486017 15.067 1.3788C16.5861 2.27159 17.8422 3.54987 18.7083 5.08423C19.5745 6.61859 20.0198 8.35456 19.9993 10.1164C19.9788 11.8782 19.4932 13.6033 18.5916 15.1171C17.861 16.3437 16.8784 17.3962 15.7129 18.2075C15.2597 18.523 14.6472 18.3456 14.3785 17.8631C14.1098 17.3806 14.2878 16.7764 14.7331 16.4497C15.5943 15.8176 16.3231 15.0173 16.8733 14.0937C17.5945 12.8827 17.9831 11.5026 17.9995 10.0931C18.0159 8.68365 17.6596 7.29488 16.9667 6.06739C16.2738 4.8399 15.2688 3.81727 14.0536 3.10304C12.8384 2.38881 11.4561 2.00834 10.0466 2.00014C8.63702 1.99193 7.25035 2.35629 6.02691 3.05633C4.80347 3.75637 3.78671 4.76723 3.07957 5.98657C2.54024 6.91654 2.19561 7.94261 2.06242 9.00258C1.99356 9.55056 1.55228 10 1 10Z" fill="currentColor"/>
<path d="M1.1908 11.8434C0.650221 11.9565 0.115001 11.6099 0.0564172 11.0608C-0.0730923 9.84672 0.0205302 8.61631 0.33564 7.43092C0.736603 5.92258 1.48505 4.52903 2.5211 3.36177C3.55715 2.19452 4.85203 1.28597 6.30213 0.708836C7.75223 0.131698 9.31728 -0.0980083 10.8721 0.0380975C12.4268 0.174203 13.9282 0.672342 15.256 1.49265C16.5837 2.31297 17.701 3.43268 18.5185 4.76219C19.336 6.0917 19.8309 7.5941 19.9637 9.14917C20.0681 10.3713 19.9465 11.5992 19.608 12.7723C19.4549 13.3029 18.8676 13.5512 18.3549 13.3459C17.8422 13.1406 17.5997 12.5593 17.7395 12.025C17.9697 11.1453 18.0488 10.2303 17.971 9.31934C17.8648 8.07528 17.4688 6.87336 16.8148 5.80975C16.1608 4.74614 15.267 3.85037 14.2048 3.19412C13.1426 2.53787 11.9415 2.13936 10.6977 2.03048C9.45383 1.92159 8.20178 2.10536 7.0417 2.56707C5.88162 3.02878 4.84572 3.75562 4.01688 4.68942C3.18804 5.62322 2.58928 6.73806 2.26851 7.94474C2.03364 8.82829 1.95258 9.74312 2.02641 10.6495C2.07124 11.1999 1.73137 11.7302 1.1908 11.8434Z" fill="currentColor"/>
</svg>
