<svg width="132" height="36" viewBox="0 0 132 36" fill="none" xmlns="http://www.w3.org/2000/svg">
<path d="M18 0.5H114C123.665 0.5 131.5 8.33502 131.5 18C131.5 27.665 123.665 35.5 114 35.5H18C8.33502 35.5 0.5 27.665 0.5 18C0.5 8.33502 8.33502 0.5 18 0.5Z" stroke="currentColor"/>
<path d="M18.0679 23L21.8447 17.6108V18.7217L18.3091 13.542H20.0229L21.2671 15.3955C21.466 15.6917 21.6289 15.9478 21.7559 16.1636C21.8828 16.3794 21.9992 16.591 22.105 16.7983C22.2108 17.0015 22.3314 17.2321 22.4668 17.4902H22.1431C22.2743 17.2363 22.3927 17.0078 22.4985 16.8047C22.6086 16.5973 22.7292 16.3857 22.8604 16.1699C22.9915 15.9499 23.1566 15.6917 23.3555 15.3955L24.6187 13.542H26.2944L22.7905 18.6519V17.5728L26.5103 23H24.7837L23.2539 20.7529C23.0762 20.4906 22.9281 20.2663 22.8096 20.0801C22.6953 19.8896 22.5874 19.7056 22.4858 19.5278C22.3885 19.3459 22.2785 19.1343 22.1558 18.8931H22.4287C22.3102 19.1258 22.2002 19.3332 22.0986 19.5151C21.9971 19.6929 21.887 19.877 21.7686 20.0674C21.6501 20.2578 21.4977 20.4863 21.3115 20.7529L19.7627 23H18.0679ZM27.2085 23L30.9854 17.6108V18.7217L27.4497 13.542H29.1636L30.4077 15.3955C30.6066 15.6917 30.7695 15.9478 30.8965 16.1636C31.0234 16.3794 31.1398 16.591 31.2456 16.7983C31.3514 17.0015 31.472 17.2321 31.6074 17.4902H31.2837C31.4149 17.2363 31.5334 17.0078 31.6392 16.8047C31.7492 16.5973 31.8698 16.3857 32.001 16.1699C32.1322 15.9499 32.2972 15.6917 32.4961 15.3955L33.7593 13.542H35.4351L31.9312 18.6519V17.5728L35.6509 23H33.9243L32.3945 20.7529C32.2168 20.4906 32.0687 20.2663 31.9502 20.0801C31.8359 19.8896 31.728 19.7056 31.6265 19.5278C31.5291 19.3459 31.4191 19.1343 31.2964 18.8931H31.5693C31.4508 19.1258 31.3408 19.3332 31.2393 19.5151C31.1377 19.6929 31.0277 19.877 30.9092 20.0674C30.7907 20.2578 30.6383 20.4863 30.4521 20.7529L28.9033 23H27.2085Z" fill="currentColor"/>
<g clip-path="url(#clip0_12_78849)">
<circle cx="54" cy="18" r="9.58333" stroke="currentColor" stroke-width="0.833333"/>
<path d="M53.9993 8.41699C55.1687 8.41699 56.335 9.35586 57.2336 11.1182C58.1207 12.8579 58.6819 15.2904 58.6819 18C58.6819 20.7096 58.1207 23.1421 57.2336 24.8818C56.335 26.6441 55.1687 27.583 53.9993 27.583C52.8299 27.5828 51.6634 26.6441 50.7649 24.8818C49.8779 23.1421 49.3176 20.7096 49.3176 18C49.3176 15.2904 49.8779 12.8579 50.7649 11.1182C51.6634 9.35594 52.8299 8.41715 53.9993 8.41699Z" stroke="currentColor" stroke-width="0.833333"/>
<path d="M60.4455 25.4734C59.3503 23.9313 56.8763 22.8555 53.9997 22.8555C51.1232 22.8555 48.6491 23.9313 47.554 25.4734" stroke="currentColor" stroke-width="0.833333"/>
<path d="M60.4152 10.4353C59.32 11.9774 56.846 13.0532 53.9695 13.0532C51.0929 13.0532 48.6189 11.9774 47.5237 10.4353" stroke="currentColor" stroke-width="0.833333"/>
<path d="M54.0154 8L53.5987 8L53.5987 28L54.0154 28L54.432 28L54.432 8L54.0154 8Z" fill="currentColor"/>
<path d="M44 18.0153H64" stroke="currentColor" stroke-width="0.833333"/>
</g>
<path d="M80 8V28" stroke="currentColor"/>
<g clip-path="url(#clip1_12_78849)">
<path d="M102.251 18C102.251 18.9946 102.646 19.9484 103.349 20.6517C104.052 21.3549 105.006 21.75 106.001 21.75C106.995 21.75 107.949 21.3549 108.652 20.6517C109.356 19.9484 109.751 18.9946 109.751 18C109.751 17.0054 109.356 16.0516 108.652 15.3483C107.949 14.6451 106.995 14.25 106.001 14.25C105.006 14.25 104.052 14.6451 103.349 15.3483C102.646 16.0516 102.251 17.0054 102.251 18V18Z" stroke="currentColor" stroke-width="0.833333" stroke-linecap="round" stroke-linejoin="round"/>
<path d="M106.001 9.25V11.75" stroke="currentColor" stroke-width="0.833333" stroke-linecap="round" stroke-linejoin="round"/>
<path d="M106.001 24.25V26.75" stroke="currentColor" stroke-width="0.833333" stroke-linecap="round" stroke-linejoin="round"/>
<path d="M114.751 18H112.251" stroke="currentColor" stroke-width="0.833333" stroke-linecap="round" stroke-linejoin="round"/>
<path d="M99.7507 18H97.2507" stroke="currentColor" stroke-width="0.833333" stroke-linecap="round" stroke-linejoin="round"/>
<path d="M112.187 11.8134L110.42 13.5809" stroke="currentColor" stroke-width="0.833333" stroke-linecap="round" stroke-linejoin="round"/>
<path d="M101.581 22.42L99.8132 24.1875" stroke="currentColor" stroke-width="0.833333" stroke-linecap="round" stroke-linejoin="round"/>
<path d="M112.187 24.1875L110.42 22.42" stroke="currentColor" stroke-width="0.833333" stroke-linecap="round" stroke-linejoin="round"/>
<path d="M101.581 13.5809L99.8132 11.8134" stroke="currentColor" stroke-width="0.833333" stroke-linecap="round" stroke-linejoin="round"/>
</g>
<defs>
<clipPath id="clip0_12_78849">
<rect width="20" height="20" fill="white" transform="translate(44 8)"/>
</clipPath>
<clipPath id="clip1_12_78849">
<rect width="20" height="20" fill="white" transform="translate(96 8)"/>
</clipPath>
</defs>
</svg>
