<svg width="24" height="24" viewBox="0 0 24 24" fill="none" xmlns="http://www.w3.org/2000/svg">
<path d="M5.25 14.248V18.748H0.75" stroke="currentColor" stroke-linecap="round" stroke-linejoin="round"/>
<path d="M18.75 9.74805V5.24805H23.25" stroke="currentColor" stroke-linecap="round" stroke-linejoin="round"/>
<path d="M19.0321 5.24512C20.5838 6.86169 21.5314 8.96331 21.7156 11.1965C21.8998 13.4297 21.3094 15.6582 20.0435 17.5072C18.7777 19.3561 16.9138 20.7128 14.7652 21.3489C12.6166 21.9851 10.3145 21.8619 8.24609 21.0001" stroke="currentColor" stroke-linecap="round" stroke-linejoin="round"/>
<path d="M4.96708 18.751C3.41876 17.1336 2.47409 15.0327 2.2917 12.8011C2.10931 10.5696 2.70031 8.34316 3.96545 6.49582C5.23059 4.64848 7.09283 3.2927 9.23947 2.65613C11.3861 2.01957 13.6864 2.14099 15.7541 3" stroke="currentColor" stroke-linecap="round" stroke-linejoin="round"/>
</svg>
