<svg width="24" height="24" viewBox="0 0 24 24" fill="none" xmlns="http://www.w3.org/2000/svg">
<path d="M23.1429 8.57145C23.1429 8.11679 22.9623 7.68075 22.6408 7.35926C22.3193 7.03777 21.8833 6.85716 21.4286 6.85716H18L15.4286 3.42859H8.57146L6.00003 6.85716H2.57146C2.11681 6.85716 1.68077 7.03777 1.35928 7.35926C1.03779 7.68075 0.857178 8.11679 0.857178 8.57145V18.8572C0.857178 19.3118 1.03779 19.7479 1.35928 20.0693C1.68077 20.3908 2.11681 20.5714 2.57146 20.5714H21.4286C21.8833 20.5714 22.3193 20.3908 22.6408 20.0693C22.9623 19.7479 23.1429 19.3118 23.1429 18.8572V8.57145Z" stroke="currentColor" stroke-linecap="round" stroke-linejoin="round"/>
<path d="M12 16.7143C13.0229 16.7143 14.004 16.3079 14.7274 15.5846C15.4507 14.8612 15.8571 13.8801 15.8571 12.8571C15.8571 11.8342 15.4507 10.8531 14.7274 10.1297C14.004 9.40638 13.0229 9 12 9C10.977 9 9.99591 9.40638 9.27255 10.1297C8.5492 10.8531 8.14282 11.8342 8.14282 12.8571C8.14282 13.8801 8.5492 14.8612 9.27255 15.5846C9.99591 16.3079 10.977 16.7143 12 16.7143Z" stroke="currentColor" stroke-linecap="round" stroke-linejoin="round"/>
</svg>
