<svg width="24" height="24" viewBox="0 0 24 24" fill="none" xmlns="http://www.w3.org/2000/svg">
<path d="M18.7584 5.99115C18.6183 5.9179 18.4818 5.83759 18.3496 5.75054C17.9651 5.4935 17.6125 5.19063 17.2995 4.84846C16.5165 3.94244 16.224 3.0233 16.1163 2.37977H16.1206C16.0306 1.84561 16.0678 1.5 16.0734 1.5H12.5067V15.4459C12.5067 15.6332 12.5067 15.8182 12.4989 16.0011C12.4989 16.0238 12.4967 16.0448 12.4954 16.0693C12.4954 16.0794 12.4954 16.0899 12.4932 16.1004C12.4932 16.103 12.4932 16.1056 12.4932 16.1083C12.4556 16.6086 12.297 17.092 12.0313 17.5159C11.7656 17.9397 11.401 18.291 10.9695 18.5389C10.5197 18.7976 10.0111 18.9333 9.49369 18.9326C7.83188 18.9326 6.48504 17.5624 6.48504 15.8703C6.48504 14.1781 7.83188 12.8079 9.49369 12.8079C9.80826 12.8076 10.1209 12.8577 10.42 12.9562L10.4243 9.28405C9.51634 9.16545 8.59391 9.23842 7.71522 9.49834C6.83653 9.75827 6.02065 10.1995 5.31905 10.7942C4.70428 11.3343 4.18745 11.9788 3.7918 12.6986C3.64124 12.9611 3.07317 14.0158 3.00437 15.7277C2.96111 16.6993 3.24969 17.7059 3.38727 18.122V18.1307C3.4738 18.3757 3.8091 19.2117 4.35554 19.9165C4.79617 20.4819 5.31675 20.9785 5.90053 21.3904V21.3816L5.90918 21.3904C7.63589 22.5768 9.55036 22.499 9.55036 22.499C9.88177 22.4854 10.992 22.499 12.2527 21.8948C13.651 21.225 14.4471 20.2271 14.4471 20.2271C14.9557 19.6309 15.3601 18.9514 15.6429 18.2178C15.9657 17.3599 16.0734 16.3309 16.0734 15.9197V8.52109C16.1167 8.54734 16.693 8.93275 16.693 8.93275C16.693 8.93275 17.5232 9.47085 18.8186 9.82127C19.7479 10.0706 21 10.1231 21 10.1231V6.54281C20.5613 6.59093 19.6705 6.45094 18.7584 5.99115Z" stroke="currentColor" stroke-linecap="round" stroke-linejoin="round"/>
</svg>
