<svg width="24" height="24" viewBox="0 0 24 24" fill="none" xmlns="http://www.w3.org/2000/svg">
<path d="M9.88351 3C10.9272 4.16143 11.2229 6.01703 11.3669 7.52685C11.511 9.03667 11.3074 10.6847 10.5 12C9.78525 12.0516 9.0599 11.9178 8.5 11.5C7.9401 11.0822 7.43547 10.2782 7.33224 9.61613C6.26182 10.1617 5.38075 10.9814 4.79277 11.9786C4.2048 12.9759 3.93441 14.1092 4.01346 15.245C4.01346 17.0365 4.77605 18.7547 6.13347 20.0215C7.49089 21.2883 9.33195 22 11.2516 22C13.1633 21.9759 14.9894 21.2565 16.3412 19.9949C17.6931 18.7332 18.9304 16.6379 18.9562 14.8538C19.1981 12.2151 18.4328 9.58141 16.7956 7.41822C15.1583 5.25502 12.6292 3.66934 9.88351 3Z" stroke="currentColor" stroke-width="1.25" stroke-linecap="round" stroke-linejoin="round"/>
</svg>
