<svg width="24" height="24" viewBox="0 0 24 24" fill="none" xmlns="http://www.w3.org/2000/svg">
<path d="M0.75 3.74805C0.75 2.09119 2.09315 0.748047 3.75 0.748047C5.40685 0.748047 6.75 2.09119 6.75 3.74805C6.75 5.4049 5.40685 6.74805 3.75 6.74805C2.09315 6.74805 0.75 5.4049 0.75 3.74805Z" stroke="currentColor" stroke-linecap="round" stroke-linejoin="round"/>
<path d="M1 11.748C1 10.0912 2.34315 8.74805 4 8.74805C5.65685 8.74805 7 10.0912 7 11.748C7 13.4049 5.65685 14.748 4 14.748C2.34315 14.748 1 13.4049 1 11.748Z" stroke="currentColor" stroke-width="0.5" stroke-linecap="round" stroke-linejoin="round" stroke-dasharray="1.5 1.5"/>
<path d="M1 19.748C1 18.0912 2.34315 16.748 4 16.748C5.65685 16.748 7 18.0912 7 19.748C7 21.4049 5.65685 22.748 4 22.748C2.34315 22.748 1 21.4049 1 19.748Z" stroke="currentColor" stroke-width="0.5" stroke-linecap="round" stroke-linejoin="round" stroke-dasharray="1.5 1.5"/>
<path d="M16 7L12 4L16 1" stroke="currentColor" stroke-linecap="round" stroke-linejoin="round"/>
<path d="M12 4H16.125C17.9484 4 19.697 4.84285 20.9864 6.34315C22.2757 7.84344 23 9.87827 23 12C23 14.1217 22.2757 16.1566 20.9864 17.6569C19.697 19.1571 17.9484 20 16.125 20H12" stroke="currentColor" stroke-linecap="round" stroke-linejoin="round"/>
</svg>
