<svg width="24" height="24" viewBox="0 0 24 24" fill="none" xmlns="http://www.w3.org/2000/svg">
<g clip-path="url(#clip0_12_80598)">
<path d="M0.75 17.248H6.75V23.248H0.75V17.248Z" stroke="currentColor" stroke-linecap="round" stroke-linejoin="round"/>
<path d="M0.75 13.498V14.248H2.25" stroke="currentColor" stroke-linecap="round" stroke-linejoin="round"/>
<path d="M2.25 9.74805H0.75V10.498" stroke="currentColor" stroke-linecap="round" stroke-linejoin="round"/>
<path d="M6.75 10.498V9.74805H5.25" stroke="currentColor" stroke-linecap="round" stroke-linejoin="round"/>
<path d="M2.25 0.748047H0.75V2.24805" stroke="currentColor" stroke-linecap="round" stroke-linejoin="round"/>
<path d="M6.75 2.24805V0.748047H5.25" stroke="currentColor" stroke-linecap="round" stroke-linejoin="round"/>
<path d="M5.25 14.248H6.75V13.498" stroke="currentColor" stroke-linecap="round" stroke-linejoin="round"/>
<path d="M0.75 5.24805V6.74805H2.25" stroke="currentColor" stroke-linecap="round" stroke-linejoin="round"/>
<path d="M5.25 6.74805H6.75V5.24805" stroke="currentColor" stroke-linecap="round" stroke-linejoin="round"/>
<path d="M15 8.24805L11.25 4.49805L15 0.748047" stroke="currentColor" stroke-linecap="round" stroke-linejoin="round"/>
<path d="M11.25 4.5H15.75C17.7391 4.5 19.6468 5.29018 21.0533 6.6967C22.4598 8.10322 23.25 10.0109 23.25 12C23.25 13.9891 22.4598 15.8968 21.0533 17.3033C19.6468 18.7098 17.7391 19.5 15.75 19.5H11.25" stroke="currentColor" stroke-linecap="round" stroke-linejoin="round"/>
</g>
<defs>
<clipPath id="clip0_12_80598">
<rect width="24" height="24" fill="white"/>
</clipPath>
</defs>
</svg>
