<svg width="32" height="32" viewBox="0 0 32 32" fill="none" xmlns="http://www.w3.org/2000/svg">
<g clip-path="url(#clip0_12_78611)">
<path d="M32 15.9982C32 17.8693 31.6781 19.6662 31.0839 21.3322H0.912568C0.321875 19.6662 0 17.8693 0 15.9982C0 14.1271 0.321875 12.3303 0.912568 10.6643H31.0839C31.6781 12.3303 32 14.1271 32 15.9982Z" fill="white"/>
<path d="M31.0839 10.6678H0.912598C1.24155 9.73406 1.65539 8.84271 2.1435 8.00089C4.91658 3.22228 10.0878 0 15.9983 0C21.9087 0 27.0764 3.22228 29.8495 7.99735C30.3376 8.84271 30.7514 9.73052 31.0804 10.6643L31.0839 10.6678Z" fill="currentColor"/>
<path d="M31.0838 21.3322C30.7549 22.2624 30.341 23.1537 29.8529 23.9956C27.0798 28.7742 21.9086 31.9965 16.0017 31.9965C10.0947 31.9965 4.91999 28.7742 2.14692 23.9956C1.6588 23.1502 1.24496 22.2624 0.916016 21.3322H31.0873H31.0838Z" fill="currentColor"/>
<path d="M17.222 13.0518L16.649 14.2933C16.6207 14.2827 16.5924 14.2721 16.5605 14.2615L17.657 11.927C17.6677 11.9023 17.6889 11.9094 17.696 11.9129C17.703 11.9164 17.7207 11.927 17.7136 11.9518L16.8329 14.3747C16.8081 14.3606 16.7798 14.3464 16.7515 14.3358L17.2255 13.0483L17.222 13.0518Z" fill="currentColor"/>
<path d="M16.2881 14.2014C16.2916 13.9007 16.3164 13.5293 16.4402 13.2075C16.4614 13.1579 16.4862 13.1084 16.5145 13.0554C16.5392 13.0094 16.564 12.9599 16.5852 12.9033C16.6347 12.7795 16.6666 12.6557 16.6842 12.5248C16.6949 12.4576 16.6949 12.3798 16.6913 12.3126C16.6878 12.2595 16.6878 12.2029 16.6913 12.1463C16.6984 12.0615 16.7231 11.9766 16.7621 11.9058C16.8151 11.8174 16.8682 11.7573 16.9106 11.7396H16.9071C16.8965 11.7714 16.8788 11.7997 16.8576 11.8315C16.8257 11.8811 16.7939 11.9341 16.7833 11.9978C16.7691 12.0615 16.7868 12.1782 16.801 12.2949C16.8151 12.3833 16.8293 12.4824 16.8293 12.546C16.8257 12.6804 16.7585 12.9351 16.6595 13.1686C16.5958 13.3277 16.5534 13.4975 16.5321 13.7027C16.5215 13.7876 16.518 13.8831 16.518 13.9786C16.518 14.0741 16.5038 14.166 16.4791 14.2332C16.4614 14.2297 16.4402 14.2226 16.419 14.2191C16.426 14.1872 16.4296 14.1413 16.4331 14.0882C16.4402 14.0281 16.4437 13.9573 16.4473 13.8831C16.4473 13.8088 16.4473 13.7274 16.4508 13.6496C16.4543 13.5718 16.4649 13.4904 16.4826 13.4197C16.4968 13.349 16.518 13.2782 16.5357 13.2216C16.5569 13.1686 16.5746 13.1226 16.5852 13.0872C16.5958 13.0624 16.6029 13.0448 16.6029 13.0377C16.5993 13.0448 16.5923 13.0624 16.5817 13.0837C16.5675 13.1155 16.5498 13.1615 16.5251 13.2181C16.5038 13.2747 16.4791 13.3419 16.4579 13.4126C16.4402 13.4834 16.4225 13.5647 16.4119 13.6461C16.4013 13.7239 16.4013 13.8088 16.3942 13.8795C16.3907 13.9538 16.3801 14.0245 16.373 14.0811C16.3659 14.1271 16.3553 14.1696 16.3518 14.2049C16.3305 14.2014 16.3093 14.1943 16.2881 14.1943V14.2014Z" fill="currentColor"/>
<path d="M15.8496 14.1837L15.9699 11.6052C15.9699 11.5804 15.9946 11.5769 16.0017 11.5769C16.0088 11.5769 16.03 11.5804 16.03 11.6052L16.1503 14.1837C16.1184 14.1802 16.0901 14.1802 16.0583 14.1766L16.0052 12.8113L15.9522 14.1766C15.9204 14.1802 15.8885 14.1802 15.8567 14.1837H15.8496Z" fill="currentColor"/>
<path d="M15.2307 12.3303C15.2059 12.2807 15.1847 12.2312 15.167 12.1782C15.1423 12.0968 15.1317 12.0084 15.1423 11.927C15.1564 11.828 15.1812 11.7502 15.213 11.7184C15.213 11.7537 15.2059 11.7856 15.1989 11.8209C15.1918 11.8811 15.1812 11.9447 15.1918 12.0049C15.2059 12.0685 15.2625 12.1711 15.3262 12.2737C15.3757 12.3515 15.4217 12.4364 15.45 12.4965C15.496 12.6203 15.5314 12.8821 15.5314 13.1332C15.5314 13.303 15.5597 13.4798 15.6163 13.6744C15.6445 13.7593 15.6728 13.8477 15.7082 13.9361C15.7436 14.021 15.7648 14.113 15.7719 14.1872C15.7507 14.1908 15.7294 14.1943 15.7082 14.1978C15.7011 14.1625 15.6905 14.1236 15.6764 14.0705C15.6587 14.0139 15.6339 13.9432 15.6092 13.876C15.5809 13.8052 15.549 13.731 15.5243 13.6567C15.4995 13.5824 15.4783 13.5046 15.4677 13.4338C15.4535 13.3596 15.4465 13.2888 15.4429 13.2287C15.4394 13.1721 15.4394 13.1226 15.4359 13.0837C15.4323 13.119 15.4323 13.1686 15.4323 13.2322C15.4323 13.2888 15.4359 13.3631 15.4429 13.4374C15.45 13.5081 15.4642 13.593 15.4889 13.6673C15.5066 13.7451 15.5384 13.8229 15.5597 13.8937C15.5809 13.9609 15.5986 14.0316 15.6127 14.0882C15.6233 14.1342 15.6339 14.1731 15.641 14.2085C15.6198 14.212 15.5986 14.2191 15.5773 14.2226C15.4677 13.9467 15.3474 13.593 15.3404 13.2464C15.3368 13.1933 15.3439 13.1403 15.3474 13.0801C15.3545 13.0235 15.358 12.9705 15.358 12.9104C15.358 12.7795 15.3404 12.6521 15.3085 12.5248C15.2908 12.4541 15.2625 12.3869 15.2342 12.3232L15.2307 12.3303Z" fill="currentColor"/>
<path d="M14.7781 13.0518L15.2521 14.3393C15.2238 14.3499 15.1955 14.3641 15.1672 14.3782L14.29 11.9553C14.2794 11.9306 14.3006 11.92 14.3077 11.9164C14.3112 11.9129 14.3325 11.9058 14.3466 11.9306L15.4396 14.2651C15.4113 14.2757 15.383 14.2863 15.3512 14.2969L14.7817 13.0554L14.7781 13.0518Z" fill="currentColor"/>
<path d="M14.6367 14.0458C14.6862 14.1094 14.7393 14.1731 14.7888 14.2262C14.8383 14.2827 14.8807 14.3358 14.9161 14.3853C14.9444 14.4242 14.9692 14.4596 14.9868 14.4844C14.9692 14.4985 14.9515 14.5091 14.9338 14.5233C14.7251 14.3075 14.481 14.0316 14.3396 13.7133C14.3183 13.6638 14.3007 13.6107 14.283 13.5541C14.2688 13.5011 14.2511 13.448 14.2299 13.3949C14.1804 13.2711 14.1167 13.1615 14.0354 13.0589C13.9929 13.0023 13.9399 12.9528 13.8868 12.9033C13.8479 12.8644 13.8055 12.829 13.7736 12.7866C13.717 12.7229 13.6781 12.6451 13.6534 12.5673C13.6286 12.4718 13.6215 12.3939 13.6392 12.348C13.6498 12.3798 13.6569 12.4116 13.6675 12.447C13.6781 12.5036 13.6923 12.5673 13.7276 12.6203C13.763 12.6734 13.8585 12.7441 13.954 12.8149C14.0248 12.8714 14.1061 12.928 14.1486 12.9776C14.2405 13.0695 14.3749 13.2994 14.4704 13.5329C14.5341 13.6921 14.6296 13.8406 14.7569 13.9998C14.8135 14.067 14.8737 14.1377 14.9444 14.2085C15.0081 14.2721 15.0682 14.35 15.1 14.4136C15.1 14.4136 15.0647 14.4348 15.047 14.449C15.0258 14.4207 15.001 14.3853 14.9656 14.3464C14.9303 14.3004 14.8843 14.2474 14.8277 14.1908C14.7711 14.1342 14.718 14.0847 14.665 14.021C14.6119 13.9644 14.5659 13.8972 14.5235 13.8371C14.4846 13.7734 14.4527 13.7097 14.428 13.6602C14.3997 13.6072 14.382 13.5612 14.3679 13.5258C14.3537 13.4975 14.3466 13.4798 14.3466 13.4763C14.3466 13.4834 14.3537 13.5011 14.3643 13.5258C14.3749 13.5576 14.3926 13.6036 14.4174 13.6638C14.4386 13.7168 14.4669 13.784 14.5023 13.8477C14.5412 13.9149 14.5836 13.9856 14.6367 14.0458Z" fill="currentColor"/>
<path d="M13.745 13.7451L14.6753 14.7496C14.6541 14.7709 14.6328 14.7921 14.6116 14.8168L12.8749 12.9139C12.8572 12.8927 12.8714 12.875 12.8749 12.8715C12.8785 12.8644 12.8961 12.8502 12.9174 12.8679L14.8239 14.6082C14.7991 14.6294 14.7743 14.6506 14.7531 14.6718L13.7486 13.7416L13.745 13.7451Z" fill="currentColor"/>
<path d="M13.4764 14.3995C13.4446 14.357 13.4092 14.3146 13.3668 14.2721C13.2748 14.1837 13.1722 14.0988 13.059 14.0351C12.9989 13.9962 12.9317 13.9715 12.8645 13.9503C12.815 13.929 12.7619 13.9113 12.7124 13.8866C12.6346 13.8477 12.5638 13.7946 12.5179 13.7274C12.4577 13.6496 12.4224 13.5789 12.4224 13.5293C12.4436 13.5541 12.4648 13.5824 12.486 13.6107C12.5179 13.6602 12.5532 13.7097 12.6098 13.7486C12.6664 13.784 12.7761 13.8123 12.8928 13.8406C12.9812 13.8618 13.0767 13.8866 13.1333 13.9113C13.2607 13.9644 13.4693 14.1271 13.6462 14.304C13.7629 14.4278 13.9115 14.5303 14.0919 14.6258C14.1661 14.6683 14.251 14.7072 14.343 14.7461C14.4244 14.7815 14.5092 14.831 14.5623 14.8805H14.5658C14.5517 14.8982 14.5375 14.9159 14.5269 14.93C14.4986 14.9159 14.4597 14.8911 14.4137 14.8699C14.3607 14.8416 14.3006 14.8098 14.2263 14.7815C14.1591 14.7496 14.0813 14.7213 14.0141 14.6895C13.9433 14.6541 13.8726 14.6152 13.8124 14.5692C13.7523 14.5268 13.6993 14.4844 13.6533 14.4419C13.6073 14.403 13.5719 14.3676 13.5472 14.3429C13.533 14.3287 13.5224 14.3181 13.5153 14.3146C13.5189 14.3181 13.5295 14.3323 13.5472 14.3464C13.5684 14.3712 13.6037 14.4065 13.6497 14.449C13.6922 14.4914 13.7417 14.5374 13.8018 14.5869C13.862 14.6329 13.9292 14.6789 13.9999 14.7213C14.0671 14.7602 14.1449 14.7921 14.2086 14.8275C14.2723 14.8593 14.3359 14.8947 14.3854 14.923C14.4279 14.9477 14.4633 14.9725 14.488 14.9902C14.4774 15.0078 14.4668 15.0255 14.4562 15.0432C14.1803 14.923 13.8478 14.7638 13.5931 14.5233C13.5542 14.4844 13.5189 14.4419 13.4835 14.3959L13.4764 14.3995Z" fill="currentColor"/>
<path d="M14.265 15.4394L11.927 14.3464C11.9058 14.3323 11.9093 14.311 11.9128 14.304C11.9164 14.3004 11.927 14.2792 11.9517 14.2863L14.3746 15.167C14.3605 15.1953 14.3499 15.2236 14.3357 15.2519L13.0553 14.7779L14.2933 15.3474C14.2827 15.3757 14.2721 15.4075 14.265 15.4358V15.4394Z" fill="currentColor"/>
<path d="M11.9094 15.2307C11.8245 15.1812 11.7608 15.1281 11.7432 15.0857H11.7467C11.775 15.0998 11.8033 15.1175 11.8351 15.1352C11.8846 15.167 11.9377 15.2024 12.0014 15.213C12.065 15.2236 12.1818 15.2095 12.2985 15.1918C12.3905 15.1776 12.486 15.1635 12.5496 15.167C12.684 15.167 12.9422 15.2342 13.1721 15.3333C13.3313 15.3969 13.5011 15.4394 13.7062 15.4641C13.7947 15.4712 13.8866 15.4747 13.9821 15.4747C14.0741 15.4783 14.1696 15.4889 14.2368 15.5136C14.2333 15.5349 14.2262 15.5526 14.2227 15.5738C14.1908 15.5702 14.1484 15.5632 14.0918 15.5596C14.0352 15.5526 13.9645 15.549 13.8866 15.549C13.8124 15.5455 13.731 15.549 13.6532 15.5455C13.5754 15.5384 13.494 15.5278 13.4233 15.5101C13.3525 15.496 13.2818 15.4747 13.2287 15.4571C13.1721 15.4394 13.1262 15.4217 13.0908 15.4075C13.0696 15.4005 13.0554 15.3934 13.0448 15.3934C13.0519 15.3969 13.0696 15.4005 13.0873 15.4111C13.1191 15.4252 13.1651 15.4464 13.2217 15.4677C13.2783 15.4889 13.3455 15.5136 13.4162 15.5349C13.4869 15.5561 13.5718 15.5702 13.6497 15.5809C13.7275 15.5915 13.8124 15.595 13.8831 15.5985C13.9574 15.6056 14.0281 15.6127 14.0847 15.6233C14.1342 15.6304 14.1731 15.6374 14.2085 15.6445C14.205 15.6657 14.2014 15.6834 14.1979 15.7047C13.8972 15.7011 13.5259 15.6799 13.204 15.5526C13.1545 15.5313 13.1049 15.5066 13.0519 15.4818C13.0059 15.4535 12.9564 15.4288 12.8998 15.4075C12.7795 15.3616 12.6522 15.3262 12.5284 15.3085C12.4577 15.2979 12.3798 15.3014 12.3126 15.3014C12.2596 15.305 12.1994 15.3085 12.1464 15.3014C12.0615 15.2979 11.9766 15.2731 11.9059 15.2307H11.9094Z" fill="currentColor"/>
<path d="M11.6085 15.9664L14.1835 15.8461C14.18 15.878 14.18 15.9098 14.18 15.9416L12.8111 15.9947L14.18 16.0442C14.18 16.076 14.18 16.1079 14.1835 16.1397L11.6085 16.0194C11.5802 16.0194 11.5767 15.9982 11.5767 15.9912C11.5767 15.9841 11.5802 15.9593 11.6085 15.9593V15.9664Z" fill="currentColor"/>
<path d="M11.7219 16.7835C11.7538 16.787 11.7856 16.7905 11.821 16.7976C11.8811 16.8082 11.9448 16.8188 12.0084 16.8047C12.0721 16.7941 12.1711 16.734 12.2737 16.6703C12.3515 16.6243 12.4364 16.5748 12.4965 16.55C12.6203 16.5005 12.8856 16.4651 13.1332 16.4651C13.3065 16.4651 13.4798 16.4368 13.6779 16.3802C13.7593 16.3555 13.8477 16.3236 13.9397 16.2883C14.021 16.2529 14.1165 16.2317 14.1873 16.2246C14.1908 16.2458 14.1943 16.2671 14.1979 16.2883C14.166 16.2954 14.1236 16.3095 14.0741 16.3236C14.0175 16.3413 13.9467 16.3626 13.8795 16.3909C13.8088 16.4191 13.7345 16.451 13.6602 16.4757C13.5895 16.5005 13.5081 16.5182 13.4374 16.5323C13.3631 16.5429 13.2924 16.55 13.2358 16.5536C13.1757 16.5571 13.1261 16.5606 13.0872 16.5606H13.0342C13.0342 16.5606 13.0554 16.5642 13.0872 16.5642C13.1226 16.5642 13.1721 16.5677 13.2358 16.5677C13.2924 16.5642 13.3667 16.5642 13.4409 16.5536C13.5152 16.5465 13.5966 16.5323 13.6709 16.5111C13.7487 16.4899 13.8265 16.4616 13.8972 16.4368C13.9644 16.4156 14.0352 16.3979 14.0918 16.3838C14.1377 16.3732 14.1767 16.3661 14.212 16.359C14.2156 16.3802 14.2226 16.3979 14.2262 16.4191C13.9503 16.5288 13.5966 16.6526 13.2535 16.6597C13.1969 16.6597 13.1438 16.6561 13.0837 16.6491C13.0306 16.6455 12.974 16.642 12.9139 16.6384C12.783 16.642 12.6557 16.6561 12.5284 16.688C12.4576 16.7057 12.3904 16.7375 12.3268 16.7658C12.2772 16.787 12.2277 16.8118 12.1747 16.8259C12.0933 16.8542 12.0049 16.8613 11.9235 16.8507C11.8245 16.8365 11.7467 16.8118 11.7148 16.7799H11.7184L11.7219 16.7835Z" fill="currentColor"/>
<path d="M11.9518 17.7102C11.927 17.7173 11.9164 17.6996 11.9129 17.6925C11.9094 17.6854 11.9023 17.6642 11.927 17.6536L14.2651 16.5571C14.2721 16.5889 14.2827 16.6172 14.2933 16.6455L13.0554 17.215L14.3358 16.741C14.3499 16.7693 14.3606 16.7976 14.3747 16.8259L11.9518 17.7067V17.7102Z" fill="currentColor"/>
<path d="M12.974 17.8481C13.0695 17.7562 13.2994 17.6218 13.5293 17.5298C13.6884 17.4626 13.837 17.3671 13.9962 17.2398C14.0669 17.1867 14.1341 17.1266 14.2049 17.0523C14.2685 16.9886 14.3463 16.932 14.41 16.9002H14.4136C14.4136 16.9002 14.4348 16.9356 14.4454 16.9532C14.4171 16.9709 14.3853 16.9992 14.3428 17.0311C14.2968 17.07 14.2473 17.116 14.1872 17.169C14.1341 17.2221 14.0811 17.2787 14.0209 17.3317C13.9608 17.3848 13.8971 17.4308 13.8335 17.4732C13.7733 17.5121 13.7132 17.5439 13.6566 17.5722C13.6036 17.597 13.5576 17.6182 13.5222 17.6324C13.501 17.643 13.4833 17.6501 13.4762 17.6501C13.4833 17.6501 13.501 17.643 13.5257 17.6359C13.5576 17.6218 13.6036 17.6041 13.6602 17.5828C13.7132 17.5581 13.7804 17.5298 13.8476 17.4944C13.9113 17.4591 13.982 17.4131 14.0422 17.3636C14.1058 17.314 14.1695 17.2574 14.2225 17.2079C14.2791 17.1619 14.3322 17.1195 14.3817 17.0806C14.4242 17.0523 14.456 17.0311 14.4843 17.0134C14.4949 17.0275 14.5055 17.0452 14.5197 17.0629C14.3039 17.2716 14.028 17.5156 13.7097 17.6607C13.6602 17.6819 13.6106 17.696 13.5505 17.7137C13.501 17.7314 13.4479 17.7456 13.3913 17.7668C13.2711 17.8198 13.1579 17.887 13.0553 17.9613C12.9987 18.0038 12.9492 18.0568 12.8997 18.1134C12.8643 18.1523 12.8254 18.1912 12.7865 18.2301C12.7193 18.2832 12.6415 18.3256 12.5637 18.3469C12.4611 18.3716 12.3833 18.3752 12.3408 18.361H12.3444C12.3762 18.3469 12.408 18.3398 12.4434 18.3327C12.5 18.3186 12.5637 18.3044 12.6167 18.269C12.6733 18.2337 12.7405 18.1417 12.8148 18.0462C12.8678 17.9719 12.9244 17.8941 12.974 17.8481Z" fill="currentColor"/>
<path d="M13.7452 18.2514L14.7497 17.3246C14.7709 17.3459 14.7957 17.3671 14.8204 17.3848L12.9139 19.125C12.8927 19.1427 12.875 19.1286 12.8715 19.1215C12.868 19.1179 12.8538 19.1003 12.8715 19.0826L14.6082 17.1761C14.6294 17.2008 14.6507 17.2221 14.6719 17.2468L13.7416 18.2478L13.7452 18.2514Z" fill="currentColor"/>
<path d="M15.0432 17.551C14.9229 17.8269 14.7637 18.1594 14.5232 18.4105C14.4843 18.4494 14.4454 18.4848 14.3994 18.5202C14.357 18.5556 14.3145 18.5909 14.2721 18.6298C14.1837 18.7218 14.1023 18.8279 14.0351 18.9376C13.9997 18.9977 13.975 19.0684 13.9502 19.1356C13.9325 19.1852 13.9113 19.2347 13.8865 19.2877C13.8476 19.362 13.7946 19.4327 13.7274 19.4823C13.646 19.5424 13.5717 19.5778 13.5293 19.5778C13.5541 19.553 13.5824 19.5353 13.6106 19.5141C13.6602 19.4787 13.7097 19.4434 13.7486 19.3868C13.784 19.3337 13.8123 19.2205 13.8406 19.1038C13.8618 19.0154 13.8865 18.9234 13.9113 18.8633C13.9644 18.7395 14.1271 18.5308 14.3039 18.3539C14.4277 18.2301 14.5303 18.0887 14.6258 17.9083C14.6682 17.8304 14.7071 17.7456 14.7461 17.6571C14.7814 17.5722 14.8309 17.4909 14.8805 17.4343C14.8981 17.4484 14.9158 17.4591 14.93 17.4732C14.9158 17.5015 14.8946 17.5369 14.8699 17.5829C14.8416 17.6359 14.8097 17.7031 14.7814 17.7703C14.7496 17.8375 14.7248 17.9153 14.6895 17.9861C14.6541 18.0533 14.6152 18.124 14.5692 18.1842C14.5268 18.2443 14.4843 18.2973 14.4419 18.3469C14.403 18.3893 14.3676 18.4247 14.3464 18.4494C14.3287 18.4671 14.3145 18.4813 14.311 18.4883C14.3145 18.4813 14.3287 18.4707 14.3464 18.453C14.3711 18.4282 14.41 18.3964 14.4489 18.3539C14.4914 18.3115 14.5374 18.262 14.5869 18.1983C14.6329 18.1417 14.6788 18.071 14.7213 18.0038C14.7602 17.933 14.7956 17.8587 14.8274 17.7915C14.8592 17.7279 14.8946 17.6642 14.9264 17.6147C14.9512 17.5722 14.9724 17.5404 14.9901 17.5121C15.0078 17.5227 15.0255 17.5369 15.0432 17.5475V17.551Z" fill="currentColor"/>
<path d="M14.7778 18.9446L15.3472 17.7031C15.3791 17.7137 15.4074 17.7243 15.4357 17.7349L14.3427 20.0694C14.3286 20.0942 14.3073 20.0871 14.3038 20.0836C14.2967 20.08 14.2755 20.0729 14.2861 20.0447L15.1633 17.6217C15.1916 17.6359 15.2199 17.65 15.2482 17.6607L14.7742 18.9446H14.7778Z" fill="currentColor"/>
<path d="M15.0894 20.2533C15.1035 20.2215 15.1212 20.1932 15.1389 20.1649C15.1707 20.1119 15.2061 20.0623 15.2167 19.9951C15.2308 19.9315 15.2132 19.8183 15.1955 19.698C15.1813 19.6096 15.1707 19.5141 15.1707 19.4469C15.1742 19.3125 15.2415 19.0578 15.337 18.8244C15.4042 18.6687 15.4431 18.4954 15.4678 18.2903C15.4749 18.2054 15.482 18.1134 15.482 18.0144C15.482 17.9224 15.4961 17.8269 15.5173 17.7597C15.5386 17.7632 15.5598 17.7703 15.5775 17.7739C15.5739 17.8092 15.5669 17.8517 15.5633 17.9047C15.5598 17.9649 15.5527 18.0391 15.5527 18.1134C15.5527 18.1877 15.5527 18.269 15.5527 18.3469C15.5456 18.4211 15.535 18.5025 15.5209 18.5732C15.5032 18.644 15.482 18.7147 15.4643 18.7713C15.4466 18.8279 15.4289 18.8703 15.4148 18.9093C15.4077 18.9305 15.4006 18.9482 15.3971 18.9552C15.4006 18.9482 15.4077 18.9305 15.4183 18.9093C15.4325 18.8774 15.4537 18.8314 15.4749 18.7748C15.4997 18.7218 15.5209 18.651 15.5421 18.5803C15.5633 18.5096 15.581 18.4282 15.5881 18.3504C15.5987 18.269 15.6022 18.1877 15.6058 18.1134C15.6128 18.0427 15.6235 17.9719 15.6305 17.9118C15.6376 17.8658 15.6447 17.8269 15.6518 17.7915C15.673 17.7951 15.6907 17.7986 15.7119 17.8022C15.7119 18.0993 15.6871 18.4707 15.5598 18.7925C15.5421 18.8456 15.5138 18.8916 15.489 18.9446C15.4643 18.9941 15.436 19.0437 15.4183 19.0967C15.3688 19.2205 15.3334 19.3443 15.3157 19.4752C15.3051 19.5459 15.3087 19.6202 15.3122 19.691C15.3122 19.744 15.3157 19.7971 15.3122 19.8537C15.3051 19.9385 15.2804 20.0234 15.2379 20.0942C15.1884 20.1826 15.1353 20.2427 15.0929 20.264L15.0894 20.2533Z" fill="currentColor"/>
<path d="M15.9665 20.3913L15.8462 17.8128C15.878 17.8163 15.9099 17.8198 15.9417 17.8198L15.9947 19.1851L16.0478 17.8198C16.0796 17.8198 16.1079 17.8163 16.1398 17.8128L16.0195 20.3913C16.0195 20.4161 15.9983 20.4196 15.9912 20.4196C15.9841 20.4196 15.9594 20.4161 15.9594 20.3913H15.9665Z" fill="currentColor"/>
<path d="M16.2882 18.0568C16.2563 17.9719 16.2316 17.88 16.228 17.8057C16.2492 17.8021 16.2669 17.8021 16.2882 17.7986C16.2988 17.8304 16.3094 17.8729 16.3235 17.9224C16.3412 17.979 16.3624 18.0497 16.3907 18.1205C16.419 18.1877 16.4509 18.262 16.4756 18.3362C16.5004 18.4105 16.5181 18.4883 16.5322 18.5626C16.5428 18.6334 16.5499 18.7041 16.5534 18.7642C16.557 18.8208 16.5605 18.8703 16.5605 18.9092C16.5605 18.9482 16.5641 18.9623 16.5641 18.9623V18.9092C16.5641 18.8739 16.5676 18.8244 16.5676 18.7642C16.5676 18.7041 16.5641 18.6298 16.557 18.5591C16.5464 18.4848 16.5322 18.4034 16.511 18.3256C16.4898 18.2478 16.4615 18.17 16.4403 18.1028C16.4155 18.0321 16.3978 17.9648 16.3837 17.9083C16.373 17.8587 16.366 17.8198 16.3589 17.7845C16.3801 17.7809 16.4013 17.7774 16.419 17.7703C16.5322 18.0497 16.6525 18.3999 16.6596 18.7465C16.6596 18.7996 16.656 18.8527 16.6489 18.9163C16.6454 18.9694 16.6383 19.0224 16.6383 19.0826C16.6419 19.2134 16.6596 19.3443 16.6878 19.4716C16.7055 19.5389 16.7374 19.6061 16.7657 19.6697C16.7869 19.7192 16.8116 19.7688 16.8258 19.8218C16.8541 19.9032 16.8612 19.9951 16.8506 20.073C16.8399 20.172 16.8116 20.2533 16.7833 20.2852C16.7833 20.2498 16.7869 20.2144 16.794 20.1791C16.8046 20.1189 16.8152 20.0553 16.801 19.9951C16.7904 19.9315 16.7338 19.8324 16.6666 19.7299C16.6206 19.6485 16.5747 19.5671 16.5499 19.507C16.5004 19.3797 16.465 19.1179 16.465 18.8668C16.465 18.697 16.4403 18.5202 16.3801 18.3256C16.3554 18.2407 16.3271 18.1523 16.2882 18.0639V18.0568Z" fill="currentColor"/>
<path d="M17.6502 20.0694L16.5537 17.7349C16.5855 17.7243 16.6138 17.7137 16.6421 17.7031L17.2151 18.9446L16.7412 17.6607C16.7695 17.65 16.7978 17.6359 16.8261 17.6217L17.7033 20.0447C17.7103 20.0729 17.6927 20.08 17.6856 20.0836C17.6785 20.0871 17.6573 20.0942 17.6467 20.0694H17.6502Z" fill="currentColor"/>
<path d="M17.0521 17.788C16.9884 17.7243 16.9319 17.6465 16.9 17.5828H16.8965C16.9177 17.5722 16.9354 17.5616 16.9531 17.551C16.9708 17.5758 16.9991 17.6111 17.0309 17.65C17.0698 17.696 17.1158 17.7491 17.1688 17.8057C17.2219 17.8587 17.2785 17.9118 17.3351 17.9755C17.3846 18.0321 17.4306 18.0993 17.473 18.1594C17.5119 18.2231 17.5473 18.2867 17.5721 18.3398C17.5968 18.3928 17.618 18.4353 17.6322 18.4707C17.6393 18.4919 17.6463 18.506 17.6499 18.5131C17.6499 18.506 17.6428 18.4919 17.6357 18.4707C17.6216 18.4388 17.6039 18.3928 17.5827 18.3327C17.5615 18.2796 17.5296 18.2124 17.4943 18.1488C17.4589 18.0851 17.4164 18.0144 17.3634 17.9507C17.3139 17.887 17.2608 17.8269 17.2077 17.7703C17.1618 17.7137 17.1193 17.6607 17.0804 17.6111C17.0521 17.5722 17.0309 17.5369 17.0132 17.5121C17.0309 17.498 17.045 17.4873 17.0627 17.4767C17.275 17.689 17.519 17.9684 17.6605 18.2832C17.6817 18.3327 17.6994 18.3858 17.7136 18.4424C17.7312 18.4954 17.7454 18.5485 17.7666 18.6015C17.8197 18.7253 17.8869 18.835 17.9611 18.9375C18.0036 18.9941 18.0602 19.0437 18.1132 19.0967C18.1521 19.1321 18.1911 19.171 18.2264 19.2099C18.283 19.2736 18.3219 19.3549 18.3467 19.4327C18.3714 19.5247 18.375 19.6061 18.3608 19.6485C18.3467 19.6202 18.3396 19.5848 18.3325 19.5495C18.3184 19.4929 18.3078 19.4292 18.2724 19.3761C18.2335 19.3231 18.1415 19.2523 18.046 19.1816C17.9718 19.125 17.8939 19.072 17.848 19.0224C17.756 18.9269 17.6216 18.697 17.5296 18.4636C17.466 18.3079 17.3669 18.1559 17.2396 17.9967C17.1865 17.9295 17.1264 17.8587 17.0521 17.788Z" fill="currentColor"/>
<path d="M18.2551 18.2513L17.3248 17.2504C17.346 17.2256 17.3673 17.2044 17.385 17.1796L19.1252 19.0826C19.1429 19.1038 19.1287 19.1215 19.1217 19.125C19.1181 19.1321 19.1004 19.1462 19.0828 19.1285L17.1763 17.3883C17.201 17.3706 17.2223 17.3494 17.247 17.3282L18.2515 18.2549L18.2551 18.2513Z" fill="currentColor"/>
<path d="M17.6608 17.2504C17.5759 17.215 17.4946 17.169 17.438 17.116C17.4521 17.0983 17.4627 17.0841 17.4769 17.0664C17.5052 17.0841 17.5441 17.1053 17.5865 17.1301C17.6396 17.1549 17.7068 17.1867 17.774 17.2185C17.8448 17.2468 17.919 17.2751 17.9898 17.3105C18.0605 17.3423 18.1242 17.3848 18.1878 17.4237C18.248 17.4661 18.301 17.5121 18.3506 17.5546C18.393 17.5935 18.4284 17.6253 18.4531 17.6501C18.4708 17.6642 18.4814 17.6748 18.4885 17.6819C18.4814 17.6748 18.4708 17.6607 18.4567 17.6465C18.4319 17.6218 18.4001 17.5864 18.3541 17.5439C18.3116 17.5015 18.2621 17.4555 18.1985 17.406C18.1419 17.36 18.0711 17.314 18.0039 17.2716C17.9332 17.2327 17.8589 17.2008 17.7917 17.1655C17.728 17.1336 17.6644 17.1018 17.6148 17.07C17.5759 17.0452 17.5406 17.0205 17.5123 17.0028C17.5264 16.9886 17.537 16.9709 17.5476 16.9532C17.8235 17.07 18.156 17.2327 18.4071 17.4697C18.4461 17.5086 18.4814 17.551 18.5168 17.597C18.5522 17.6394 18.5875 17.6819 18.6264 17.7243C18.7184 17.8163 18.8245 17.8976 18.9342 17.9613C18.9943 18.0002 19.065 18.025 19.1323 18.0497C19.1818 18.0674 19.2348 18.0851 19.2843 18.1099C19.3586 18.1488 19.4294 18.2018 19.4789 18.269C19.539 18.3469 19.5709 18.4211 19.5744 18.4671C19.5496 18.4424 19.5319 18.4141 19.5107 18.3858C19.4753 18.3398 19.44 18.2867 19.3869 18.2514C19.3339 18.2124 19.2207 18.1842 19.1075 18.1559C19.0191 18.1346 18.9236 18.1134 18.8634 18.0851C18.7432 18.0321 18.5309 17.8694 18.3541 17.6925C18.2338 17.5722 18.0888 17.4661 17.9084 17.3706C17.8306 17.3317 17.7457 17.2928 17.6573 17.2504H17.6608Z" fill="currentColor"/>
<path d="M20.0692 17.6501C20.094 17.6607 20.0869 17.6819 20.0834 17.689C20.0834 17.696 20.0728 17.7137 20.048 17.7067L17.6216 16.8259C17.6357 16.7976 17.6499 16.7693 17.664 16.741L18.9445 17.215L17.7029 16.6455C17.7135 16.6172 17.7242 16.5854 17.7348 16.5571L20.0692 17.6536V17.6501Z" fill="currentColor"/>
<path d="M20.087 16.7658C20.1755 16.8153 20.2391 16.8684 20.2568 16.9143C20.2568 16.9108 20.2568 16.9108 20.2568 16.9108C20.2285 16.9002 20.1967 16.8825 20.1684 16.8613C20.1189 16.8294 20.0658 16.7976 19.9986 16.7835C19.935 16.7729 19.8218 16.787 19.705 16.8047C19.6131 16.8188 19.5176 16.833 19.4539 16.833C19.316 16.8294 19.0613 16.7622 18.8278 16.6632C18.6722 16.5995 18.4989 16.5571 18.2973 16.5359C18.2089 16.5253 18.1169 16.5217 18.0179 16.5217C17.9294 16.5217 17.8339 16.5076 17.7667 16.4828H17.7632C17.7703 16.4616 17.7738 16.4439 17.7809 16.4227C17.8127 16.4262 17.8551 16.4333 17.9047 16.4368C17.9648 16.4439 18.0391 16.4474 18.1134 16.451C18.1876 16.451 18.269 16.4474 18.3468 16.4545C18.4246 16.4581 18.5024 16.4687 18.5767 16.4863C18.6475 16.5005 18.7147 16.5217 18.7713 16.5394C18.8278 16.5606 18.8738 16.5783 18.9092 16.5889C18.934 16.5995 18.9481 16.6031 18.9552 16.6066C18.9481 16.6031 18.934 16.596 18.9092 16.5854C18.8774 16.5712 18.8349 16.55 18.7748 16.5288C18.7217 16.5076 18.651 16.4828 18.5802 16.4616C18.5095 16.4404 18.4282 16.4262 18.3503 16.4156C18.269 16.405 18.1876 16.405 18.1134 16.3979C18.0426 16.3908 17.9719 16.3838 17.9117 16.3732C17.8658 16.3661 17.8269 16.359 17.7915 16.3519C17.795 16.3343 17.7986 16.313 17.8021 16.2918C18.0992 16.2953 18.4706 16.3166 18.7925 16.4439C18.8455 16.4651 18.8915 16.4899 18.9446 16.5182C18.9941 16.5429 19.0436 16.5677 19.0967 16.5889C19.2205 16.6384 19.3443 16.6703 19.4751 16.688C19.5459 16.6986 19.6202 16.695 19.6909 16.695C19.7439 16.6915 19.8005 16.6915 19.8536 16.695C19.9385 16.7021 20.0269 16.7269 20.0941 16.7658H20.087Z" fill="currentColor"/>
<path d="M20.3914 15.9664C20.4197 15.9664 20.4197 15.9912 20.4197 15.9982C20.4197 16.0053 20.4197 16.0265 20.3914 16.0265L17.8164 16.1468C17.8164 16.115 17.8199 16.0831 17.8199 16.0513L19.1888 16.0018L17.8199 15.9487C17.8199 15.9169 17.8164 15.885 17.8164 15.8532L20.3914 15.9735V15.9664Z" fill="currentColor"/>
<path d="M20.2781 15.213C20.2462 15.213 20.2109 15.2059 20.1755 15.1988C20.1189 15.1882 20.0517 15.1812 19.9916 15.1918C19.9279 15.2059 19.8289 15.2625 19.7263 15.3262C19.6485 15.3722 19.5636 15.4217 19.5034 15.45C19.3761 15.496 19.1144 15.5313 18.8632 15.5313C18.6934 15.5313 18.5201 15.5596 18.3221 15.6162C18.2372 15.641 18.1523 15.6728 18.0603 15.7082C17.9754 15.7436 17.8835 15.7648 17.8127 15.7719H17.8092C17.8092 15.7506 17.8056 15.7294 17.8021 15.7082C17.8339 15.7011 17.8764 15.6905 17.9294 15.6728C17.986 15.6551 18.0532 15.6339 18.124 15.6056C18.1912 15.5809 18.269 15.549 18.3397 15.5243C18.414 15.496 18.4918 15.4783 18.5661 15.4677C18.6369 15.4535 18.7076 15.4464 18.7677 15.4429C18.8279 15.4394 18.8738 15.4394 18.9127 15.4358H18.9658C18.9658 15.4358 18.9481 15.4358 18.9127 15.4323H18.7677C18.7076 15.4323 18.6369 15.4358 18.5626 15.4429C18.4883 15.45 18.4069 15.4641 18.3291 15.4854C18.2513 15.5066 18.1735 15.5349 18.1063 15.5596C18.0356 15.5809 17.9683 15.5985 17.9118 15.6127C17.8622 15.6233 17.8233 15.6339 17.788 15.6374C17.7844 15.6198 17.7809 15.5985 17.7773 15.5773C18.0532 15.4677 18.4034 15.3474 18.75 15.3368C18.8066 15.3368 18.8597 15.3439 18.9198 15.3474C18.9729 15.3545 19.0295 15.358 19.0861 15.358C19.2205 15.358 19.3478 15.3403 19.4751 15.3085C19.5423 15.2908 19.6131 15.2625 19.6768 15.2307C19.7227 15.2095 19.7758 15.1882 19.8289 15.1705C19.9102 15.1458 19.9986 15.1352 20.0764 15.1458C20.179 15.1599 20.2568 15.1847 20.2887 15.2165H20.2851L20.2781 15.213Z" fill="currentColor"/>
<path d="M20.0445 14.2863C20.0728 14.2792 20.0834 14.3004 20.0834 14.304C20.0869 14.311 20.094 14.3323 20.0692 14.3464L17.7348 15.4394C17.7242 15.4111 17.7135 15.3792 17.7029 15.3509L18.9445 14.7815L17.664 15.2554C17.6499 15.2271 17.6357 15.1989 17.6216 15.1706L20.0445 14.2898V14.2863Z" fill="currentColor"/>
<path d="M17.5827 15.0998C17.5721 15.0821 17.5615 15.0644 17.5508 15.0468C17.5756 15.0255 17.611 14.9972 17.6499 14.9654C17.6959 14.93 17.7489 14.8841 17.8055 14.8275C17.8621 14.7709 17.9116 14.7178 17.9753 14.6648C18.0319 14.6117 18.0991 14.5657 18.1592 14.5233C18.2229 14.4844 18.2866 14.4525 18.3396 14.4278C18.3927 14.3995 18.4386 14.3818 18.4705 14.3676C18.4952 14.357 18.5094 14.35 18.5165 14.3464C18.5094 14.3464 18.4952 14.3535 18.4705 14.3641C18.4386 14.3747 18.3927 14.3924 18.3361 14.4172C18.2795 14.4384 18.2123 14.4667 18.1486 14.502C18.0849 14.5374 18.0142 14.5834 17.9505 14.6365C17.8869 14.6824 17.8267 14.739 17.7701 14.7886C17.7171 14.8381 17.6605 14.877 17.611 14.9159C17.5721 14.9442 17.5402 14.9689 17.5119 14.9866C17.5013 14.9689 17.4872 14.9513 17.4766 14.9336C17.6888 14.7249 17.9682 14.4808 18.283 14.3393C18.3325 14.3146 18.3856 14.3004 18.4457 14.2828C18.4952 14.2686 18.5483 14.2509 18.6014 14.2297C18.7216 14.1802 18.8383 14.1165 18.9409 14.0352C18.9975 13.9927 19.047 13.9397 19.0965 13.8866C19.1319 13.8477 19.1708 13.8052 19.2133 13.7734C19.2805 13.7168 19.3583 13.6744 19.4361 13.6531C19.5316 13.6249 19.6165 13.6213 19.6554 13.6355C19.6236 13.6496 19.5917 13.6567 19.5564 13.6638C19.4962 13.6779 19.4326 13.6921 19.3795 13.7274C19.3265 13.7628 19.2557 13.8583 19.185 13.9538C19.1319 14.0245 19.0753 14.1059 19.0258 14.1483C18.9303 14.2403 18.7004 14.3747 18.4669 14.4702C18.3113 14.5339 18.1592 14.6294 18.0001 14.7567C17.9328 14.8133 17.8621 14.877 17.7949 14.9442C17.7277 15.0079 17.6499 15.068 17.5862 15.0998H17.5827Z" fill="currentColor"/>
<path d="M18.255 13.7451L17.2504 14.6754C17.2257 14.6541 17.2044 14.6329 17.1797 14.6117L19.0826 12.875C19.1039 12.8538 19.1215 12.8679 19.1251 12.875C19.1322 12.8785 19.1463 12.8962 19.1286 12.9174L17.3884 14.8204C17.3707 14.7992 17.3495 14.7744 17.3282 14.7532L18.2585 13.7487L18.255 13.7451Z" fill="currentColor"/>
<path d="M17.0733 14.3747C17.0485 14.4172 17.0273 14.4525 17.0096 14.4773C16.9919 14.4667 16.9742 14.4561 16.9565 14.4454C17.0768 14.1696 17.236 13.8335 17.4765 13.5824C17.5119 13.5435 17.5543 13.5081 17.6038 13.4727C17.6427 13.4374 17.6852 13.402 17.7276 13.3631C17.8196 13.2711 17.9009 13.165 17.9681 13.0554C18.0035 12.9952 18.0283 12.9245 18.053 12.8608C18.0707 12.8078 18.0919 12.7583 18.1132 12.7087C18.1521 12.6309 18.2087 12.5602 18.2759 12.5142C18.3537 12.4505 18.428 12.4152 18.474 12.4152H18.4704C18.4492 12.4399 18.4209 12.4611 18.3891 12.4824C18.3431 12.5142 18.29 12.5496 18.2547 12.6062C18.2157 12.6592 18.191 12.7724 18.1592 12.8891C18.1379 12.9776 18.1167 13.0695 18.0919 13.1297C18.0389 13.257 17.8762 13.4621 17.6958 13.639C17.5755 13.7628 17.4694 13.9043 17.3775 14.0847C17.335 14.1625 17.2961 14.2474 17.2537 14.3358C17.2183 14.4207 17.1723 14.502 17.1228 14.5586H17.1192C17.1192 14.5586 17.0874 14.5339 17.0697 14.5233C17.0874 14.4914 17.1086 14.4561 17.1334 14.4101C17.1617 14.357 17.19 14.2898 17.2218 14.2226C17.2501 14.1554 17.2784 14.0776 17.3138 14.0104C17.3456 13.9396 17.3881 13.8689 17.4341 13.8088C17.473 13.7486 17.5189 13.6956 17.5614 13.6496C17.6003 13.6036 17.6321 13.5683 17.6569 13.5435C17.6746 13.5258 17.6852 13.5117 17.6923 13.5081C17.6852 13.5117 17.6746 13.5223 17.6533 13.54C17.6286 13.5647 17.5932 13.6001 17.5508 13.639C17.5119 13.6814 17.4623 13.7345 17.4128 13.7946C17.3668 13.8512 17.3209 13.922 17.2784 13.9927C17.2395 14.0599 17.2077 14.1377 17.1758 14.2014C17.1405 14.2651 17.1086 14.3287 17.0768 14.3782L17.0733 14.3747Z" fill="currentColor"/>
<path d="M17.6499 18.5096L17.6534 18.5166C17.6534 18.5166 17.6534 18.5131 17.6499 18.5096Z" fill="currentColor"/>
<path d="M16.6632 15.6516C16.7834 15.6905 16.8506 15.7825 16.8506 15.7825C16.7764 15.8426 16.7268 15.878 16.6313 15.8815C16.6844 15.8674 16.7233 15.8178 16.7233 15.7577C16.7233 15.7117 16.6986 15.6728 16.6632 15.6516Z" fill="currentColor"/>
<path d="M16.3872 15.7683C16.3872 15.7683 16.4509 15.6622 16.557 15.641C16.511 15.6587 16.4756 15.7011 16.4756 15.7542C16.4756 15.8002 16.5004 15.8391 16.5393 15.8603C16.4403 15.832 16.3872 15.7648 16.3872 15.7648V15.7683Z" fill="currentColor"/>
<path d="M16.5997 15.6021C16.4087 15.6021 16.292 15.7719 16.292 15.7719C16.292 15.7719 16.5396 16.0761 16.9464 15.7931C16.9464 15.7931 16.7943 15.6021 16.6033 15.6021H16.5997ZM16.5396 15.8674C16.4405 15.8391 16.3875 15.7719 16.3875 15.7719C16.3875 15.7719 16.4512 15.6657 16.5573 15.641C16.5113 15.6587 16.4795 15.7047 16.4795 15.7613C16.4795 15.8072 16.5042 15.8461 16.5396 15.8674ZM16.6316 15.878C16.6846 15.8638 16.7235 15.8178 16.7235 15.7577C16.7235 15.7117 16.6988 15.6728 16.6634 15.6516C16.7836 15.687 16.8509 15.7825 16.8509 15.7825C16.7766 15.8426 16.7271 15.878 16.6316 15.878Z" fill="currentColor"/>
<path d="M16.2209 15.8461C16.2245 15.8214 16.2634 15.8143 16.2811 15.8214C16.2952 15.8284 16.3058 15.8391 16.3164 15.8461C16.327 15.8567 16.3412 15.8638 16.3518 15.8744C16.3518 15.8744 16.6454 16.0831 16.9177 15.8567C16.9177 15.8567 16.8399 16.0088 16.5817 15.9912C16.4756 15.9841 16.3589 15.9629 16.2704 15.9027C16.2563 15.8921 16.2174 15.8674 16.2209 15.8497V15.8461Z" fill="currentColor"/>
<path d="M16.2598 15.7436C16.2421 15.7506 16.2245 15.7506 16.2068 15.7436C16.1962 15.74 16.1785 15.7365 16.1749 15.7223C16.1714 15.6905 16.2386 15.6905 16.2563 15.6834C16.2917 15.6693 16.3093 15.6304 16.3376 15.6056C16.4367 15.5101 16.5888 15.4924 16.7197 15.5349C16.8045 15.5596 16.8824 15.6056 16.946 15.6657C16.9672 15.687 16.9885 15.7047 17.0097 15.7259C17.0132 15.7294 17.0309 15.7471 17.0309 15.7506C17.0309 15.7506 17.0309 15.7683 16.9991 15.7506C16.9779 15.74 16.9602 15.7188 16.9389 15.7047C16.9213 15.6905 16.9036 15.6799 16.8824 15.6657C16.8045 15.6198 16.709 15.5809 16.6171 15.5738C16.5711 15.5702 16.5251 15.5738 16.4756 15.5915C16.4296 15.6127 16.3942 15.6516 16.3483 15.6799C16.3306 15.694 16.3093 15.7047 16.2952 15.7188C16.2811 15.7259 16.274 15.74 16.2598 15.7471V15.7436Z" fill="currentColor"/>
<path d="M16.0798 15.8072C16.0763 15.8709 16.0798 15.9346 16.0975 15.9947C16.1081 16.0371 16.1222 16.076 16.147 16.115C16.1541 16.1326 16.1682 16.1432 16.1824 16.1574C16.1895 16.1645 16.2142 16.1822 16.2107 16.1928C16.2107 16.1998 16.2036 16.2034 16.2001 16.2069C16.1647 16.2281 16.1364 16.214 16.1152 16.1822C16.0303 16.0336 16.0409 15.8674 16.0515 15.7011C16.0586 15.6268 16.0692 15.5455 16.1081 15.4783C16.1329 15.4323 16.1718 15.404 16.2177 15.3757C16.3133 15.3191 16.4264 15.2873 16.5361 15.2908C16.6846 15.2943 16.8191 15.3545 16.9393 15.4429C16.9994 15.4853 17.0702 15.5349 17.1126 15.6056C17.0914 15.595 17.0702 15.5773 17.0525 15.5667C17.0313 15.5526 17.0101 15.5419 16.9888 15.5313C16.9535 15.5101 16.9181 15.4924 16.8792 15.4747C16.6528 15.3722 16.3522 15.3686 16.1647 15.549C16.1364 15.5773 16.1116 15.5985 16.101 15.6374C16.0869 15.694 16.0833 15.7577 16.0833 15.8143L16.0798 15.8072Z" fill="currentColor"/>
<path d="M15.9985 17.0912C15.8711 17.0912 15.7685 17.1831 15.7544 17.3069V17.2787C15.7544 17.1442 15.8605 17.0346 15.9985 17.0346C16.1364 17.0346 16.2425 17.1442 16.2425 17.2787C16.2425 17.2893 16.239 17.2999 16.239 17.3069C16.2248 17.1831 16.1258 17.0912 15.9985 17.0912Z" fill="currentColor"/>
<path d="M15.7789 16.8577C15.7436 16.8259 15.6941 16.8118 15.6445 16.8047V16.7976C15.8037 16.7799 15.8921 16.7976 15.9416 16.8153C15.977 16.8259 16.0124 16.8259 16.0478 16.8153C16.0973 16.7976 16.1928 16.7799 16.3484 16.7976V16.8047C16.2989 16.8118 16.2529 16.8259 16.214 16.8577C16.1928 16.8754 16.1751 16.8966 16.1503 16.9143C16.1079 16.9462 16.0513 16.9674 15.9947 16.9674C15.9381 16.9674 15.8851 16.9462 15.8355 16.9143C15.8143 16.8966 15.7966 16.8754 15.7754 16.8577H15.7789Z" fill="currentColor"/>
<path d="M15.6836 16.4934C15.5916 16.4828 15.5704 16.3307 15.6801 16.2494C15.6801 16.2494 15.627 16.3696 15.7084 16.405C15.7862 16.4404 15.818 16.3342 15.818 16.3342C15.818 16.3342 15.8888 16.4298 15.9984 16.4298C16.1081 16.4298 16.1788 16.3342 16.1788 16.3342C16.1788 16.3342 16.2071 16.4404 16.2885 16.405C16.3698 16.3696 16.3168 16.2494 16.3168 16.2494C16.4264 16.3307 16.4052 16.4828 16.3132 16.4934C16.193 16.5076 16.1823 16.4545 16.1611 16.3979C16.1611 16.4015 16.154 16.4121 16.154 16.4121C16.1505 16.4156 16.147 16.4191 16.1434 16.4227L16.1222 16.4439C16.1045 16.4545 16.0904 16.4616 16.0727 16.4687C16.0479 16.4793 16.0232 16.4863 15.9984 16.4863H15.9878C15.956 16.4828 15.9277 16.4722 15.9029 16.4616C15.8746 16.4474 15.8499 16.4262 15.8357 16.3979C15.8145 16.4545 15.8039 16.5076 15.6836 16.4934Z" fill="currentColor"/>
<path d="M15.6481 16.7976C15.6481 16.7976 15.8072 16.7304 15.9558 16.7728C15.9841 16.7799 16.0124 16.7799 16.0371 16.7728C16.1928 16.7304 16.3484 16.7976 16.3484 16.7976C16.1892 16.7799 16.0973 16.7976 16.0478 16.8153C16.0159 16.8259 15.9806 16.8259 15.9416 16.8153C15.8921 16.7976 15.8002 16.7799 15.6445 16.7976H15.6481Z" fill="currentColor"/>
<path d="M15.6479 16.8047C15.6196 16.7976 15.5877 16.7976 15.563 16.7976C15.5913 16.7941 15.6479 16.7799 15.7257 16.7127C15.754 16.688 15.7894 16.6703 15.8247 16.6667C15.899 16.6632 15.9556 16.7021 16.0016 16.7021C16.044 16.7021 16.1006 16.6632 16.1749 16.6667C16.2138 16.6703 16.2492 16.688 16.2739 16.7127C16.3482 16.7799 16.4119 16.7941 16.4402 16.7976C16.4119 16.7976 16.3836 16.7976 16.3553 16.8047V16.7976C16.3553 16.7976 16.1961 16.7304 16.044 16.7729C16.0193 16.7799 15.991 16.7799 15.9627 16.7729C15.8106 16.7304 15.655 16.7976 15.655 16.7976V16.8047H15.6479Z" fill="currentColor"/>
<path d="M15.542 16.7976H15.5597C15.5844 16.7976 15.6163 16.7976 15.6446 16.8047C15.6906 16.8118 15.7401 16.8259 15.779 16.8577C15.8002 16.8754 15.8179 16.8966 15.8391 16.9143C15.8851 16.9462 15.9417 16.9674 15.9983 16.9674C16.0513 16.9674 16.1079 16.9462 16.1539 16.9143C16.1787 16.8966 16.1964 16.8754 16.2176 16.8577C16.2529 16.8259 16.2989 16.8118 16.352 16.8047C16.3803 16.7976 16.4086 16.7976 16.4369 16.7976H16.4546C16.4546 16.7976 16.2883 16.8224 16.2176 16.932C16.1468 17.0346 15.9983 17.0275 15.9983 17.0275C15.9983 17.0275 15.8497 17.0346 15.779 16.932C15.7082 16.8259 15.542 16.7976 15.542 16.7976Z" fill="currentColor"/>
<path d="M15.5421 16.7976C15.5421 16.7976 15.6058 16.7976 15.6553 16.7163C15.7048 16.6314 15.7968 16.5854 15.8569 16.5854C15.8852 16.5854 15.9206 16.5995 15.9489 16.6137C15.9736 16.6278 15.9949 16.642 15.9949 16.642C15.9949 16.642 16.0727 16.5854 16.1363 16.5854C16.1929 16.5854 16.2884 16.6278 16.338 16.7163C16.3875 16.7976 16.4511 16.7976 16.4511 16.7976H16.4335C16.4052 16.7941 16.345 16.7799 16.2672 16.7127C16.2425 16.688 16.2071 16.6703 16.1682 16.6667C16.0974 16.6632 16.0373 16.7021 15.9949 16.7021C15.9489 16.7021 15.8958 16.6632 15.818 16.6667C15.7826 16.6703 15.7473 16.688 15.719 16.7127C15.6447 16.7799 15.5846 16.7941 15.5563 16.7976H15.5386H15.5421Z" fill="currentColor"/>
<path d="M15.5208 15.7577C15.5208 15.7046 15.489 15.6622 15.4395 15.6445C15.542 15.6622 15.6128 15.7719 15.6128 15.7719C15.6128 15.7719 15.5633 15.8391 15.4607 15.8674C15.496 15.8461 15.5208 15.8072 15.5208 15.7612V15.7577Z" fill="currentColor"/>
<path d="M15.4146 15.9876C15.1529 16.0053 15.0786 15.8532 15.0786 15.8532C15.351 16.0796 15.641 15.8709 15.641 15.8709C15.6552 15.8603 15.6658 15.8532 15.6799 15.8426C15.6905 15.8355 15.7011 15.8249 15.7153 15.8178C15.733 15.8108 15.7719 15.8178 15.7754 15.8426C15.7754 15.8603 15.74 15.8851 15.7259 15.8957C15.6375 15.9558 15.5207 15.977 15.4146 15.9841V15.9876Z" fill="currentColor"/>
<path d="M15.1494 15.7789C15.1494 15.7789 15.2166 15.6905 15.3369 15.6481C15.3015 15.6693 15.2767 15.7082 15.2767 15.7542C15.2767 15.8108 15.3157 15.8603 15.3652 15.878C15.2732 15.8744 15.2272 15.8391 15.1494 15.7789Z" fill="currentColor"/>
<path d="M15.3968 15.6021C15.2058 15.6021 15.0537 15.7931 15.0537 15.7931C15.464 16.0761 15.7116 15.7719 15.7116 15.7719C15.7116 15.7719 15.5913 15.6021 15.4003 15.6021H15.3968ZM15.1492 15.7789C15.1492 15.7789 15.2164 15.687 15.3367 15.6481C15.3013 15.6693 15.2765 15.7082 15.2765 15.7542C15.2765 15.8108 15.3155 15.8568 15.365 15.8744C15.273 15.8744 15.227 15.8391 15.1492 15.7789ZM15.4605 15.8674C15.4958 15.8461 15.5206 15.8072 15.5206 15.7613C15.5206 15.7082 15.4888 15.6622 15.4428 15.641C15.5489 15.6622 15.6126 15.7719 15.6126 15.7719C15.6126 15.7719 15.5631 15.8391 15.4605 15.8674Z" fill="currentColor"/>
<path d="M14.8877 15.5985C14.9301 15.5313 14.9938 15.4783 15.061 15.4358C15.1813 15.3509 15.3157 15.2873 15.4607 15.2837C15.5739 15.2802 15.6871 15.312 15.7826 15.3686C15.8286 15.3969 15.8639 15.4252 15.8922 15.4712C15.9311 15.5384 15.9382 15.6198 15.9453 15.694C15.9594 15.8603 15.9665 16.0265 15.8816 16.1751C15.8639 16.2069 15.8356 16.2211 15.8003 16.1998C15.7932 16.1963 15.7897 16.1928 15.7861 16.1857C15.7861 16.1751 15.8109 16.1574 15.8179 16.1503C15.8321 16.1362 15.8427 16.1256 15.8533 16.1079C15.8781 16.0725 15.8922 16.0336 15.9028 15.9876C15.917 15.9275 15.9205 15.8638 15.9205 15.8002C15.917 15.7436 15.917 15.6799 15.8993 15.6233C15.8887 15.5844 15.8675 15.5632 15.8392 15.5349C15.6517 15.3509 15.3511 15.3545 15.1247 15.4606C15.0858 15.4783 15.0504 15.496 15.015 15.5172C14.9938 15.5278 14.9726 15.5384 14.9514 15.5526C14.9301 15.5632 14.9125 15.5809 14.8912 15.5915L14.8877 15.5985Z" fill="currentColor"/>
<path d="M15.9984 14.2757C15.047 14.2757 14.2759 15.0467 14.2759 15.9982C14.2759 16.9497 15.047 17.7172 15.9984 17.7172C16.9499 17.7172 17.7175 16.9462 17.7175 15.9982C17.7175 15.0503 16.9464 14.2757 15.9984 14.2757ZM16.1788 16.3307C16.1788 16.3307 16.2071 16.4368 16.2885 16.4015C16.3628 16.3696 16.3239 16.26 16.3168 16.2458C16.4229 16.3307 16.4052 16.4793 16.3132 16.4899C16.193 16.504 16.1824 16.451 16.1611 16.3944C16.1611 16.3979 16.1541 16.405 16.1541 16.4085C16.1505 16.4121 16.147 16.4156 16.1435 16.4191C16.1364 16.4262 16.1293 16.4333 16.1187 16.4404C16.1046 16.451 16.0869 16.4616 16.0727 16.4687C16.048 16.4757 16.0232 16.4828 15.9984 16.4828H15.9843C15.9595 16.4793 15.9277 16.4722 15.9029 16.458C15.8746 16.4439 15.8499 16.4227 15.8357 16.3944C15.8145 16.451 15.8039 16.504 15.6836 16.4899C15.5917 16.4793 15.5705 16.3307 15.6766 16.2458C15.673 16.26 15.6341 16.3696 15.7084 16.4015C15.7862 16.4368 15.818 16.3307 15.818 16.3307C15.818 16.3307 15.8888 16.4262 15.9984 16.4262C16.1081 16.4262 16.1788 16.3307 16.1788 16.3307ZM14.8878 15.5985C14.9302 15.5313 14.9939 15.4783 15.0611 15.4358C15.1814 15.3509 15.3158 15.2873 15.4608 15.2837C15.574 15.2802 15.6872 15.3156 15.7827 15.3686C15.8287 15.3969 15.8676 15.4252 15.8923 15.4712C15.9312 15.5384 15.9383 15.6198 15.9454 15.694C15.9595 15.8567 15.9701 16.0265 15.8817 16.1751C15.864 16.2069 15.8357 16.2211 15.7968 16.1998C15.7933 16.1963 15.7898 16.1928 15.7862 16.1857C15.7827 16.1751 15.811 16.1574 15.818 16.1503C15.8322 16.1362 15.8428 16.1256 15.8534 16.1079C15.8746 16.0725 15.8923 16.0336 15.9029 15.9876C15.9171 15.9275 15.9206 15.8603 15.9206 15.8001C15.9171 15.7436 15.9171 15.6799 15.8994 15.6233C15.8888 15.5844 15.8676 15.5632 15.8393 15.5349C15.6518 15.3474 15.3476 15.3545 15.1248 15.4606C15.0859 15.4783 15.0505 15.496 15.0151 15.5172C14.9939 15.5278 14.9727 15.5384 14.9515 15.5526C14.9302 15.5632 14.9126 15.5808 14.8913 15.5915L14.8878 15.5985ZM14.9691 15.7471C14.9691 15.7471 14.9868 15.7294 14.9904 15.7223C15.0116 15.7011 15.0293 15.6834 15.0505 15.6622C15.1177 15.6056 15.1955 15.5596 15.2769 15.5313C15.4113 15.4924 15.5563 15.5101 15.6624 15.6021C15.6872 15.6268 15.7084 15.6657 15.7438 15.6764C15.7615 15.687 15.8287 15.687 15.8251 15.7188C15.8216 15.7329 15.8039 15.74 15.7933 15.7436C15.7756 15.7471 15.7579 15.7471 15.7402 15.74C15.7261 15.7329 15.719 15.7188 15.7049 15.7117C15.6872 15.6976 15.666 15.687 15.6518 15.6728C15.6094 15.6445 15.574 15.6056 15.5209 15.5844C15.4785 15.5667 15.4325 15.5632 15.3794 15.5667C15.2875 15.5738 15.1955 15.6127 15.1177 15.6587C15.0965 15.6728 15.0788 15.6834 15.0576 15.6976C15.0399 15.7117 15.0222 15.7329 14.9974 15.7436C14.9691 15.7612 14.9691 15.7436 14.9691 15.7436V15.7471ZM15.3971 15.6021C15.5917 15.6021 15.7084 15.7719 15.7084 15.7719C15.7084 15.7719 15.4608 16.076 15.0505 15.7931C15.0505 15.7931 15.2061 15.6021 15.3936 15.6021H15.3971ZM15.0753 15.8603C15.3476 16.0796 15.6377 15.8744 15.6377 15.8744C15.6518 15.8638 15.6624 15.8567 15.6766 15.8461C15.6872 15.8391 15.6978 15.8284 15.7119 15.8214C15.7296 15.8143 15.7685 15.8214 15.7721 15.8461C15.7721 15.8638 15.7367 15.8886 15.7225 15.8992C15.6341 15.9593 15.5174 15.9805 15.4113 15.9876C15.1672 16.0053 15.0859 15.8744 15.0753 15.8567V15.8603ZM16.239 17.3069C16.2248 17.1831 16.1258 17.0912 15.9984 17.0912C15.8711 17.0912 15.7685 17.1831 15.7579 17.3069C15.7544 17.2999 15.7544 17.2893 15.7544 17.2786C15.7544 17.1442 15.8605 17.0346 15.9984 17.0346C16.1364 17.0346 16.2425 17.1442 16.2425 17.2786C16.2425 17.2893 16.239 17.2999 16.239 17.3069ZM16.2177 16.9249C16.147 17.0311 15.9984 17.024 15.9984 17.024C15.9984 17.024 15.8499 17.0311 15.7791 16.9249C15.7084 16.8224 15.5422 16.7941 15.5422 16.7941C15.5422 16.7941 15.6058 16.7941 15.6553 16.7092C15.7049 16.6278 15.7968 16.5818 15.857 16.5818C15.8853 16.5818 15.9206 16.596 15.9489 16.6066C15.9737 16.6243 15.9949 16.6384 15.9949 16.6384C15.9949 16.6384 16.0727 16.5818 16.1364 16.5818C16.193 16.5818 16.2885 16.6243 16.338 16.7092C16.3875 16.7941 16.4512 16.7941 16.4512 16.7941C16.4512 16.7941 16.2849 16.8188 16.2142 16.9249H16.2177ZM16.5856 15.9876C16.4795 15.9805 16.3628 15.9593 16.2743 15.8992C16.2602 15.8886 16.2213 15.8638 16.2248 15.8461C16.2283 15.8214 16.2673 15.8143 16.2849 15.8214C16.2991 15.8284 16.3062 15.8391 16.3203 15.8461C16.3309 15.8567 16.3451 15.8638 16.3557 15.8744C16.3557 15.8744 16.6457 16.0796 16.9181 15.8603C16.911 15.8744 16.8297 16.0088 16.5856 15.9912V15.9876ZM16.292 15.7683C16.292 15.7683 16.4123 15.5985 16.5997 15.5985C16.7872 15.5985 16.9428 15.7895 16.9428 15.7895C16.5361 16.0725 16.2885 15.7683 16.2885 15.7683H16.292ZM16.9994 15.7471C16.9782 15.7365 16.9605 15.7153 16.9393 15.7011C16.9216 15.687 16.9039 15.6763 16.8827 15.6622C16.8049 15.6162 16.7129 15.5773 16.6174 15.5702C16.5714 15.5667 16.5219 15.5702 16.4795 15.5879C16.43 15.6091 16.3946 15.6481 16.3486 15.6764C16.3309 15.6905 16.3097 15.7011 16.2956 15.7153C16.2814 15.7223 16.2743 15.7365 16.2602 15.7436C16.2425 15.7506 16.2213 15.7506 16.2071 15.7471C16.1965 15.7436 16.1788 15.7365 16.1753 15.7223C16.1718 15.6905 16.239 15.6905 16.2566 15.6799C16.292 15.6693 16.3097 15.6304 16.3345 15.6056C16.437 15.5136 16.5891 15.496 16.7235 15.5349C16.8049 15.5596 16.8827 15.6056 16.9464 15.6657C16.9676 15.687 16.9888 15.7046 17.01 15.7259C17.0136 15.7329 17.0313 15.7471 17.0313 15.7506C17.0313 15.7506 17.0313 15.7683 16.9994 15.7506V15.7471ZM17.0525 15.5596C17.0313 15.5455 17.01 15.5349 16.9888 15.5243C16.9535 15.503 16.9181 15.4853 16.8792 15.4677C16.6528 15.3651 16.3486 15.358 16.1647 15.5419C16.1364 15.5702 16.1116 15.5915 16.101 15.6304C16.0869 15.6834 16.0833 15.7506 16.0833 15.8072C16.0798 15.8674 16.0869 15.9346 16.0975 15.9947C16.1081 16.0371 16.1258 16.076 16.1505 16.1149C16.1611 16.1326 16.1718 16.1432 16.1859 16.1574C16.193 16.1645 16.2177 16.1822 16.2142 16.1928C16.2142 16.1998 16.2071 16.2034 16.2036 16.2069C16.1682 16.2281 16.1399 16.214 16.1187 16.1822C16.0338 16.0336 16.0444 15.8638 16.055 15.7011C16.0656 15.6268 16.0727 15.5455 16.1116 15.4783C16.1364 15.4323 16.1753 15.404 16.2213 15.3757C16.3132 15.3226 16.43 15.2873 16.5396 15.2908C16.6882 15.2943 16.8226 15.3545 16.9428 15.4429C17.003 15.4853 17.0737 15.5349 17.1162 15.6056C17.0949 15.595 17.0737 15.5773 17.056 15.5667L17.0525 15.5596Z" fill="currentColor"/>
<path d="M15.0572 15.7011C15.0395 15.7153 15.0183 15.7365 14.997 15.7471C14.9688 15.7648 14.9688 15.7471 14.9688 15.7471C14.9688 15.7436 14.9864 15.7259 14.99 15.7223C15.0077 15.7011 15.0289 15.6834 15.0501 15.6622C15.1173 15.6056 15.1951 15.5596 15.2765 15.5313C15.4109 15.4889 15.5594 15.5066 15.662 15.6021C15.6868 15.6268 15.708 15.6657 15.7398 15.6799C15.7611 15.687 15.8283 15.687 15.8247 15.7188C15.8212 15.7329 15.8035 15.7365 15.7929 15.74C15.7752 15.7471 15.7575 15.7471 15.7398 15.74C15.7257 15.7329 15.7186 15.7188 15.7045 15.7117C15.6868 15.6976 15.6691 15.687 15.6514 15.6728C15.609 15.6445 15.5736 15.6056 15.5205 15.5844C15.4781 15.5667 15.4286 15.5632 15.3791 15.5667C15.2871 15.5738 15.1951 15.6127 15.1173 15.6587C15.0961 15.6728 15.0784 15.6834 15.0572 15.6976V15.7011Z" fill="currentColor"/>
<path d="M20.3949 15.8886L18.0746 15.786C18.0746 15.786 18.0817 15.7825 18.0852 15.7825C18.1736 15.7471 18.2585 15.7188 18.3399 15.694C18.5309 15.6374 18.7007 15.6091 18.8598 15.6091C19.0791 15.6091 19.3692 15.5844 19.5283 15.5243C19.5955 15.496 19.6804 15.4464 19.7618 15.3969C19.8573 15.3403 19.9528 15.2837 20.0023 15.2696C20.0518 15.259 20.1013 15.2696 20.1579 15.2767C20.1968 15.2837 20.2358 15.2908 20.2782 15.2908C20.3136 15.2943 20.3489 15.2731 20.356 15.2378C20.3631 15.2165 20.356 15.1953 20.3419 15.1741C20.2994 15.121 20.2075 15.0892 20.0801 15.0715C19.9917 15.0609 19.8891 15.068 19.7972 15.0998C19.7441 15.114 19.691 15.1387 19.638 15.1635C19.5743 15.1918 19.5106 15.2201 19.4505 15.2342C19.3267 15.2661 19.2029 15.2802 19.0791 15.2837C19.0296 15.2837 18.973 15.2767 18.92 15.2731C18.8634 15.2661 18.7997 15.2625 18.7431 15.2625C18.4566 15.2696 18.1701 15.3474 17.919 15.4394L20.0978 14.4207C20.1544 14.3924 20.165 14.3287 20.1473 14.2792C20.1296 14.2332 20.0766 14.1979 20.0129 14.2191L17.827 15.0078C17.827 15.0078 17.8341 15.0043 17.8376 15.0008C17.9048 14.9336 17.9685 14.8734 18.0392 14.8168C18.1913 14.693 18.3363 14.6046 18.4884 14.5445C18.69 14.4596 18.9483 14.3216 19.065 14.2085C19.118 14.1554 19.1746 14.0776 19.2348 13.9998C19.2984 13.9149 19.3692 13.8229 19.4116 13.7946C19.4541 13.7663 19.5036 13.7557 19.5602 13.7416C19.5955 13.7345 19.6344 13.7274 19.6734 13.7133C19.7087 13.6956 19.7299 13.6638 19.7264 13.6319C19.7229 13.6107 19.7087 13.5895 19.6875 13.5789C19.6274 13.547 19.5283 13.547 19.4045 13.5824C19.3161 13.6072 19.2277 13.6496 19.1534 13.7203C19.111 13.7557 19.0721 13.7982 19.0296 13.8371C18.9836 13.8866 18.9376 13.9361 18.8846 13.9786C18.7855 14.0493 18.6759 14.1165 18.5627 14.1625C18.5167 14.1837 18.4637 14.1979 18.4142 14.2155C18.3576 14.2297 18.301 14.2474 18.2408 14.2721C17.9791 14.3853 17.7456 14.5728 17.5476 14.7532L19.1746 12.9705C19.2171 12.921 19.2065 12.8608 19.1676 12.8219C19.1357 12.7866 19.0721 12.7724 19.019 12.8184L17.307 14.3818C17.307 14.3818 17.3106 14.3747 17.3106 14.3712C17.3495 14.2863 17.3849 14.2049 17.4308 14.1306C17.5193 13.9538 17.6218 13.8158 17.735 13.7027C17.8907 13.5435 18.0746 13.3171 18.1453 13.1686C18.1736 13.1014 18.1984 13.0059 18.2196 12.9139C18.2479 12.8113 18.2727 12.6981 18.3045 12.6557C18.3293 12.6132 18.3717 12.5849 18.4177 12.5531C18.446 12.5319 18.4778 12.5107 18.5061 12.4824C18.5344 12.4541 18.545 12.4187 18.5273 12.3869C18.5167 12.3692 18.4955 12.355 18.4707 12.3515C18.4035 12.348 18.3116 12.3833 18.209 12.4611C18.1383 12.5177 18.0746 12.5956 18.0286 12.684C18.0039 12.7335 17.9826 12.7866 17.9649 12.8431C17.9402 12.9068 17.9154 12.974 17.8871 13.0271C17.8235 13.1332 17.7421 13.2322 17.6572 13.3207C17.6218 13.3596 17.5794 13.3914 17.537 13.4232C17.491 13.4621 17.4485 13.501 17.4025 13.5435C17.2045 13.7522 17.0595 14.0139 16.9427 14.2544L17.7669 11.9872C17.7881 11.9235 17.7527 11.874 17.7067 11.8492C17.6608 11.8315 17.6006 11.8422 17.5653 11.9023L16.5819 14.0068V13.9927C16.5855 13.8972 16.589 13.8088 16.5961 13.7239C16.6138 13.5258 16.6562 13.3596 16.7199 13.211C16.8012 13.0094 16.8897 12.73 16.8932 12.5602C16.8967 12.4894 16.8826 12.3904 16.8649 12.2984C16.8508 12.1923 16.8331 12.0791 16.8437 12.0261C16.8543 11.9801 16.8826 11.9341 16.9144 11.8846C16.9321 11.8528 16.9533 11.8209 16.9675 11.7856C16.9852 11.7502 16.9781 11.7113 16.9498 11.6901C16.9321 11.6759 16.9074 11.6724 16.8861 11.6794C16.8225 11.7007 16.7517 11.7679 16.6881 11.8846C16.6421 11.9624 16.6138 12.0579 16.6067 12.1534C16.6032 12.2135 16.6032 12.2737 16.6067 12.3267C16.6067 12.3975 16.6102 12.4647 16.6032 12.5283C16.5855 12.6557 16.5501 12.7724 16.5041 12.8891C16.4864 12.9386 16.4617 12.9846 16.4369 13.0342C16.4086 13.0837 16.3839 13.1367 16.3626 13.1969C16.2601 13.4621 16.2212 13.7557 16.207 14.0245L16.1009 11.6193C16.0974 11.5556 16.0443 11.5203 15.9948 11.5203C15.97 11.5203 15.9453 11.5274 15.924 11.545C15.9028 11.5627 15.8887 11.5875 15.8851 11.6193L15.7826 13.9432C15.7826 13.9432 15.779 13.9326 15.779 13.929C15.7437 13.8441 15.7154 13.7557 15.6906 13.6744C15.634 13.4869 15.6092 13.3171 15.6092 13.1544C15.6092 12.9351 15.5809 12.6451 15.5208 12.4894C15.4925 12.4222 15.4465 12.3373 15.3935 12.2525C15.3369 12.1605 15.2768 12.065 15.2661 12.0119C15.2555 11.966 15.2661 11.9129 15.2768 11.8563C15.2803 11.8209 15.2874 11.782 15.2874 11.7431C15.2909 11.7042 15.2697 11.6688 15.2379 11.6618C15.2166 11.6547 15.1919 11.6618 15.1706 11.6759C15.1211 11.7219 15.0858 11.8103 15.0681 11.9377C15.0575 12.0296 15.0645 12.1287 15.0964 12.2242C15.1141 12.2772 15.1353 12.3303 15.16 12.3833C15.1883 12.447 15.2166 12.5071 15.2343 12.5708C15.2626 12.6911 15.2768 12.8149 15.2803 12.9387C15.2803 12.9917 15.2732 13.0448 15.2697 13.1014C15.2626 13.1579 15.2591 13.2145 15.2591 13.2782C15.2661 13.5612 15.344 13.8477 15.4359 14.0988L14.4172 11.9235C14.389 11.8634 14.3253 11.8528 14.2758 11.8705C14.2298 11.8917 14.1944 11.9412 14.2192 12.0084L15.0079 14.1908C15.0079 14.1908 15.0009 14.1837 14.9973 14.1837C14.9301 14.1165 14.87 14.0458 14.8134 13.9786C14.6896 13.8265 14.6012 13.6814 14.541 13.5329C14.4562 13.3277 14.3182 13.0695 14.2015 12.9528C14.152 12.9033 14.0742 12.8431 13.9963 12.783C13.9079 12.7194 13.8159 12.6486 13.7876 12.6062C13.7594 12.5673 13.7487 12.5142 13.7381 12.4576C13.7275 12.4222 13.7204 12.3833 13.7063 12.348C13.6921 12.3126 13.6568 12.2878 13.6285 12.2914C13.6037 12.2949 13.5825 12.309 13.5719 12.3338C13.5401 12.3904 13.5401 12.4894 13.5719 12.6132C13.5966 12.7017 13.6391 12.7936 13.7098 12.8644C13.7452 12.9068 13.7876 12.9493 13.8301 12.9882C13.8831 13.0342 13.9327 13.0801 13.9716 13.1332C14.0459 13.2322 14.1095 13.3419 14.159 13.4551C14.1767 13.5046 14.1909 13.5541 14.2086 13.6072C14.2262 13.6602 14.2439 13.7239 14.2652 13.7769C14.3854 14.0387 14.5658 14.2721 14.7427 14.4667L12.9635 12.8467C12.914 12.8007 12.8539 12.8149 12.8149 12.8502C12.7796 12.8856 12.769 12.9457 12.8114 12.9988L14.3783 14.7143C14.3783 14.7143 14.3713 14.7107 14.3677 14.7107C14.2793 14.6718 14.1979 14.6329 14.1237 14.5905C13.9504 14.4985 13.8124 14.3959 13.6957 14.2827C13.5365 14.1271 13.3137 13.9432 13.1616 13.8724C13.0979 13.8477 12.9989 13.8229 12.9069 13.7982C12.8043 13.7734 12.6912 13.7451 12.6487 13.7168C12.6063 13.6885 12.578 13.6496 12.5461 13.6036C12.5249 13.5718 12.5037 13.54 12.4754 13.5117C12.4506 13.4834 12.4117 13.4763 12.3834 13.4904C12.3622 13.501 12.3481 13.5258 12.3481 13.547C12.341 13.6178 12.3764 13.7062 12.4577 13.8088C12.5108 13.8795 12.5921 13.9467 12.677 13.9892C12.7265 14.0139 12.7831 14.0351 12.8362 14.0564C12.8998 14.0776 12.967 14.1023 13.0201 14.1342C13.1262 14.1979 13.2288 14.2757 13.3172 14.3606C13.3526 14.3959 13.3844 14.4384 13.4198 14.4844C13.4552 14.5268 13.4941 14.5728 13.5401 14.6152C13.7487 14.8168 14.0069 14.9583 14.2475 15.075L11.9802 14.2509C11.9201 14.2297 11.867 14.2651 11.8423 14.311C11.8246 14.357 11.8352 14.4207 11.8953 14.4525L13.9999 15.4358H13.9893C13.8938 15.4358 13.8018 15.4323 13.7169 15.4217C13.5224 15.404 13.3526 15.3616 13.2076 15.2979C13.0024 15.2165 12.723 15.1281 12.5532 15.1246C12.4825 15.1246 12.3834 15.1387 12.2915 15.1529C12.1853 15.167 12.0722 15.1847 12.0191 15.1741C11.9731 15.1635 11.9307 15.1387 11.8776 15.1069C11.8458 15.0857 11.814 15.0644 11.7786 15.0503C11.7432 15.0361 11.7043 15.0432 11.6795 15.068C11.6654 15.0857 11.6619 15.1104 11.6689 15.1352C11.6902 15.1988 11.7574 15.2661 11.8741 15.3333C11.9519 15.3792 12.0474 15.4075 12.1464 15.4146C12.203 15.4181 12.2596 15.4146 12.3198 15.4146C12.387 15.4111 12.4577 15.4075 12.5178 15.4181C12.6452 15.4358 12.7619 15.4677 12.8786 15.5136C12.9281 15.5349 12.9741 15.5596 13.0236 15.5809C13.0732 15.6091 13.1262 15.6374 13.1863 15.6587C13.4516 15.7612 13.7452 15.8002 14.0105 15.8108L11.6123 15.9169C11.5451 15.9239 11.5098 15.977 11.5098 16.0265C11.5098 16.076 11.5451 16.1256 11.6123 16.1326L13.9327 16.2352L13.9221 16.2387C13.8336 16.2741 13.7487 16.3024 13.6638 16.3272C13.4764 16.3838 13.3066 16.4121 13.1439 16.4121C12.9246 16.4121 12.6346 16.4404 12.4789 16.5005C12.4117 16.5253 12.3268 16.5748 12.2455 16.6243C12.1535 16.6809 12.0545 16.7375 12.0014 16.7516C11.9554 16.7622 11.8988 16.7516 11.8458 16.7446C11.8104 16.7375 11.7715 16.7304 11.7326 16.7304C11.6937 16.7304 11.6583 16.7516 11.6512 16.7835C11.6442 16.8047 11.6512 16.8294 11.6689 16.8471C11.7114 16.9002 11.7998 16.9356 11.9307 16.9497C11.9519 16.9532 11.9802 16.9568 12.005 16.9568C12.0722 16.9568 12.1464 16.9426 12.2136 16.9249C12.2667 16.9073 12.3198 16.8825 12.3728 16.8577C12.4365 16.8294 12.4966 16.8047 12.5603 16.787C12.6841 16.7552 12.8043 16.741 12.9281 16.741C12.9812 16.741 13.0342 16.7446 13.0908 16.7481C13.1474 16.7552 13.2111 16.7622 13.2677 16.7587C13.5542 16.7516 13.8407 16.6738 14.0918 16.5818L11.913 17.6005C11.8529 17.6324 11.8423 17.6925 11.8599 17.742C11.8776 17.7809 11.913 17.8092 11.9554 17.8092C11.9696 17.8092 11.9837 17.8057 11.9943 17.8021L14.1767 17.0134C14.1767 17.0134 14.1732 17.0204 14.1697 17.0204C14.1024 17.0876 14.0352 17.1513 13.968 17.2044C13.8124 17.3282 13.6674 17.4166 13.5188 17.4803C13.3172 17.5616 13.059 17.6996 12.9387 17.8163C12.8892 17.8658 12.8291 17.9472 12.769 18.0214C12.7053 18.1063 12.6381 18.2018 12.5921 18.2266C12.5532 18.2549 12.5001 18.269 12.4436 18.2796C12.4082 18.2867 12.3728 18.2973 12.3339 18.3115C12.2985 18.3256 12.2738 18.3575 12.2773 18.3893C12.2808 18.4141 12.295 18.4317 12.3198 18.4424C12.3481 18.4565 12.3834 18.4671 12.4294 18.4671C12.4789 18.4671 12.532 18.4565 12.5992 18.4388C12.6912 18.4176 12.7796 18.3716 12.8539 18.3044C12.8963 18.2655 12.9352 18.2231 12.9741 18.1806C13.0236 18.1311 13.0661 18.0816 13.1227 18.0391C13.2217 17.9684 13.3314 17.9012 13.441 17.8552C13.4905 17.834 13.5436 17.8198 13.5931 17.8021C13.6497 17.788 13.7063 17.7703 13.7629 17.7455C14.0246 17.6324 14.2616 17.4484 14.4562 17.268L12.8326 19.0472C12.7902 19.0967 12.8008 19.1604 12.8362 19.1958C12.8539 19.217 12.8822 19.2311 12.9105 19.2311C12.9352 19.2311 12.96 19.2205 12.9812 19.1993L14.6967 17.6359C14.6967 17.6359 14.6931 17.643 14.6931 17.6465C14.6542 17.7314 14.6153 17.8128 14.5729 17.8906C14.4809 18.0639 14.3783 18.2018 14.2652 18.3186C14.1095 18.4742 13.9256 18.7006 13.8584 18.8527C13.8301 18.9163 13.8053 19.0118 13.7806 19.1038C13.7558 19.2099 13.7275 19.3195 13.6992 19.3655C13.6709 19.4044 13.632 19.4327 13.586 19.4646C13.5542 19.4893 13.5224 19.5106 13.4941 19.5353C13.4658 19.5636 13.4587 19.599 13.4728 19.6308C13.487 19.6485 13.5082 19.6626 13.533 19.6662H13.5471C13.6108 19.6662 13.6957 19.6273 13.7912 19.5565C13.8655 19.4999 13.9291 19.4221 13.9751 19.3337C13.9963 19.2842 14.0176 19.2311 14.0388 19.1745C14.0635 19.1109 14.0848 19.0472 14.1166 18.9906C14.1803 18.8845 14.2581 18.7854 14.343 18.697C14.3819 18.6581 14.4208 18.6263 14.4632 18.5944C14.5057 18.5555 14.5517 18.5202 14.5976 18.4742C14.7957 18.2655 14.9372 18.0073 15.0504 17.7668L14.2298 20.0305C14.2086 20.0942 14.2439 20.1437 14.2899 20.1684C14.3041 20.1755 14.3182 20.1755 14.3324 20.1755C14.3713 20.1755 14.4066 20.1578 14.4279 20.1154L15.4112 18.0108V18.025C15.4112 18.1169 15.4076 18.2124 15.397 18.2938C15.3793 18.4919 15.3404 18.6581 15.2768 18.8067C15.1919 19.0118 15.1034 19.2877 15.1034 19.4575C15.0999 19.5282 15.1141 19.6273 15.1282 19.7192C15.1424 19.8254 15.16 19.9385 15.1494 19.9916C15.1388 20.0376 15.1141 20.0836 15.0822 20.1331C15.0645 20.1649 15.0433 20.2003 15.0292 20.2321C15.0115 20.2675 15.0186 20.3064 15.0433 20.3276C15.0539 20.3382 15.0716 20.3418 15.0858 20.3418C15.0928 20.3418 15.1034 20.3418 15.1105 20.3382C15.1742 20.3205 15.2449 20.2498 15.3086 20.1366C15.3546 20.0553 15.3829 19.9598 15.3899 19.8643C15.3935 19.8077 15.3935 19.7511 15.3899 19.6909C15.3864 19.6202 15.3864 19.553 15.3935 19.4893C15.4112 19.3655 15.4465 19.2453 15.489 19.1285C15.5102 19.079 15.535 19.033 15.5597 18.9835C15.5845 18.934 15.6128 18.881 15.634 18.8244C15.7366 18.5555 15.7755 18.2655 15.7861 17.9967L15.8922 20.3984C15.8993 20.4656 15.9523 20.4974 16.0019 20.4974C16.0266 20.4974 16.0514 20.4903 16.0726 20.4726C16.0903 20.455 16.1044 20.4302 16.108 20.3984L16.2106 18.078C16.2106 18.078 16.2141 18.0851 16.2141 18.0886C16.253 18.1771 16.2813 18.262 16.3025 18.3433C16.3626 18.5308 16.3874 18.7041 16.3874 18.8633C16.3874 19.0826 16.4157 19.3726 16.4758 19.5318C16.5006 19.5954 16.5501 19.6839 16.5996 19.7652C16.6527 19.8572 16.7128 19.9562 16.7234 20.0057C16.734 20.0517 16.7234 20.1048 16.7164 20.1614C16.7128 20.2003 16.7057 20.2357 16.7022 20.2746C16.7022 20.317 16.7234 20.3488 16.7553 20.3559C16.7588 20.3595 16.7659 20.3595 16.7729 20.3595C16.7871 20.3595 16.8048 20.3524 16.8189 20.3418C16.872 20.2993 16.9074 20.2074 16.925 20.08C16.9357 19.9881 16.925 19.889 16.8967 19.7971C16.8791 19.744 16.8543 19.6909 16.8295 19.6343C16.8012 19.5742 16.7765 19.5106 16.7588 19.4504C16.7305 19.3266 16.7164 19.2028 16.7128 19.079C16.7128 19.026 16.7199 18.9729 16.7234 18.9199C16.727 18.8633 16.734 18.7996 16.7305 18.7395C16.7234 18.453 16.6456 18.17 16.5536 17.9189L17.5723 20.0942C17.5935 20.1366 17.6325 20.1543 17.6678 20.1543C17.682 20.1543 17.6961 20.1543 17.7103 20.1472C17.7563 20.126 17.7916 20.0765 17.7704 20.0093L16.9816 17.8269C16.9816 17.8269 16.9887 17.834 16.9887 17.8375C17.0559 17.9012 17.1196 17.9719 17.1726 18.0391C17.2964 18.1912 17.3884 18.3362 17.4485 18.4883C17.5299 18.6899 17.6714 18.9482 17.7846 19.0649C17.8341 19.1179 17.9154 19.1745 17.9897 19.2347C18.0746 19.2983 18.1701 19.3691 18.1984 19.4115C18.2232 19.454 18.2373 19.5035 18.2479 19.5601C18.2585 19.5954 18.2656 19.6343 18.2797 19.6697C18.2939 19.7051 18.3187 19.7263 18.3505 19.7263H18.3576C18.3823 19.7228 18.4 19.7086 18.4142 19.6874C18.4425 19.6273 18.4424 19.5282 18.4106 19.4044C18.3859 19.316 18.3399 19.2276 18.2727 19.1533C18.2373 19.1109 18.1949 19.072 18.1489 19.0295C18.0994 18.9835 18.0534 18.9375 18.0109 18.8845C17.9366 18.7854 17.873 18.6758 17.8235 18.5626C17.8022 18.5131 17.7881 18.4636 17.7739 18.4105C17.7563 18.3575 17.7386 18.2973 17.7138 18.2407C17.6006 17.979 17.4202 17.7491 17.2398 17.551L19.0155 19.171C19.0402 19.1922 19.0614 19.2028 19.0862 19.2028C19.1145 19.2028 19.1428 19.1887 19.1605 19.1675C19.1994 19.1356 19.21 19.072 19.1676 19.0189L17.6006 17.3069C17.6006 17.3069 17.6077 17.3105 17.6112 17.3105C17.6961 17.3459 17.781 17.3848 17.8553 17.4237C18.0286 17.5156 18.1666 17.6182 18.2833 17.7314C18.4389 17.887 18.6653 18.071 18.8174 18.1417C18.881 18.17 18.9801 18.1912 19.0685 18.216C19.1746 18.2407 19.2843 18.269 19.3303 18.2973C19.3692 18.3256 19.3975 18.3681 19.4293 18.4105C19.4541 18.4424 19.4753 18.4742 19.5 18.5025C19.5177 18.5202 19.5425 18.5308 19.5637 18.5308C19.5743 18.5308 19.5849 18.5272 19.5955 18.5237C19.6168 18.5131 19.6274 18.4919 19.6309 18.4671C19.638 18.3999 19.5991 18.3079 19.5213 18.2054C19.4647 18.1346 19.3869 18.071 19.2984 18.025C19.2489 18.0002 19.1958 17.979 19.1393 17.9613C19.0756 17.9365 19.0119 17.9118 18.9553 17.88C18.8492 17.8163 18.7502 17.7385 18.6617 17.6536C18.6264 17.6182 18.591 17.5758 18.5592 17.5333C18.5203 17.4873 18.4849 17.4414 18.4389 17.3989C18.2302 17.2008 17.972 17.0558 17.7315 16.9426L19.9988 17.7632C19.9988 17.7632 20.02 17.7703 20.0341 17.7703C20.0801 17.7703 20.1155 17.742 20.1296 17.7031C20.1473 17.6571 20.1367 17.597 20.0766 17.5616L17.9756 16.5783H17.9862C18.0817 16.5783 18.1736 16.5818 18.2585 16.5925C18.4531 16.6101 18.6193 16.6526 18.7679 16.7163C18.973 16.7976 19.2524 16.886 19.4187 16.8896C19.4894 16.8896 19.5885 16.8754 19.684 16.8613C19.7901 16.8471 19.8997 16.8294 19.9528 16.8401C20.0023 16.8507 20.0447 16.879 20.0978 16.9073C20.1261 16.9285 20.1615 16.9497 20.1968 16.9639C20.2075 16.9709 20.2216 16.9709 20.2322 16.9709C20.257 16.9709 20.2782 16.9639 20.2888 16.9462C20.303 16.9285 20.31 16.9037 20.2994 16.8825C20.2817 16.8153 20.2145 16.7481 20.0978 16.6844C20.0165 16.6384 19.921 16.6101 19.8254 16.5995C19.7689 16.596 19.7123 16.5995 19.6521 16.5995C19.5814 16.6031 19.5142 16.6066 19.4505 16.596C19.3267 16.5783 19.2065 16.5465 19.0897 16.5005C19.0438 16.4828 18.9942 16.458 18.9447 16.4333C18.8952 16.405 18.8421 16.3767 18.7855 16.359C18.5167 16.2564 18.2267 16.214 17.9579 16.2034L20.3595 16.0973C20.4268 16.0902 20.4586 16.0407 20.4586 15.9912C20.4586 15.9416 20.4268 15.8886 20.3595 15.8815L20.3949 15.8886ZM18.7466 15.3368C18.8032 15.3368 18.8563 15.3403 18.9164 15.3474C18.9695 15.3509 19.0261 15.358 19.0827 15.358C19.2135 15.3545 19.3444 15.3403 19.4717 15.3085C19.5389 15.2908 19.6097 15.2625 19.6734 15.2307C19.7193 15.2095 19.7724 15.1882 19.8219 15.1705C19.9068 15.1423 19.9952 15.1352 20.073 15.1458C20.1721 15.1599 20.2499 15.1847 20.2853 15.2165H20.2817C20.2499 15.2165 20.2145 15.2095 20.1792 15.2024C20.1226 15.1918 20.0554 15.1847 19.9952 15.1953C19.9316 15.2095 19.829 15.2661 19.7299 15.3297C19.6521 15.3757 19.5672 15.4252 19.5071 15.45C19.3798 15.4995 19.118 15.5349 18.8669 15.5349C18.6971 15.5349 18.5238 15.5632 18.3257 15.6198C18.2408 15.6445 18.1559 15.6764 18.064 15.7117C17.9791 15.7471 17.8871 15.7683 17.8128 15.7754C17.8093 15.7542 17.8093 15.7329 17.8058 15.7117C17.8376 15.7046 17.8801 15.694 17.9296 15.6764C17.9897 15.6587 18.0569 15.6374 18.1276 15.6091C18.1984 15.5844 18.2691 15.549 18.3434 15.5278C18.4177 15.503 18.4955 15.4818 18.5698 15.4712C18.6405 15.4571 18.7113 15.45 18.7714 15.4464C18.8315 15.4429 18.8775 15.4394 18.9164 15.4394H18.973C18.973 15.4394 18.9518 15.4358 18.9164 15.4358H18.7714C18.7113 15.4358 18.6405 15.4358 18.5662 15.4464C18.492 15.4535 18.4106 15.4677 18.3328 15.4889C18.255 15.5101 18.1772 15.5384 18.11 15.5632C18.0392 15.5844 17.972 15.6021 17.9154 15.6162C17.8694 15.6268 17.827 15.6374 17.7952 15.641C17.7881 15.6233 17.7846 15.6021 17.781 15.5809C18.0569 15.4712 18.4106 15.3509 18.7537 15.3403L18.7466 15.3368ZM20.0447 14.2863C20.073 14.2792 20.0837 14.3004 20.0837 14.304C20.0872 14.311 20.0943 14.3323 20.0695 14.3464L17.735 15.4394C17.7244 15.4111 17.7138 15.3792 17.7032 15.3509L18.9447 14.7815L17.6643 15.2554C17.6501 15.2271 17.636 15.1988 17.6218 15.1705L20.0447 14.2898V14.2863ZM18.2833 14.3358C18.3328 14.311 18.3859 14.2969 18.4424 14.2792C18.4955 14.2651 18.5486 14.2474 18.6052 14.2261C18.7254 14.1766 18.8386 14.113 18.9412 14.0316C18.9978 13.9892 19.0473 13.9361 19.0968 13.8831C19.1322 13.8406 19.1711 13.8017 19.2135 13.7699C19.2807 13.7133 19.3586 13.6708 19.4364 13.6461C19.5319 13.6213 19.6132 13.6178 19.6557 13.6319C19.6238 13.6461 19.592 13.6531 19.5566 13.6602C19.4965 13.6744 19.4328 13.6885 19.3833 13.7239C19.3267 13.7593 19.256 13.8512 19.1852 13.9467C19.1322 14.021 19.0756 14.1024 19.0261 14.1448C18.9306 14.2368 18.7007 14.3712 18.4672 14.4667C18.3116 14.5303 18.1595 14.6258 18.0003 14.7532C17.9331 14.8062 17.8624 14.8734 17.7952 14.9406C17.728 15.0043 17.6501 15.0644 17.5865 15.0963C17.5759 15.0786 17.5653 15.0609 17.5546 15.0432C17.5829 15.022 17.6148 14.9972 17.6537 14.9619C17.6997 14.923 17.7527 14.8805 17.8093 14.8239C17.8659 14.7673 17.9154 14.7143 17.9791 14.6612C18.0357 14.6082 18.1029 14.5622 18.163 14.5197C18.2267 14.4808 18.2904 14.449 18.3434 14.4242C18.3965 14.3959 18.4389 14.3747 18.4743 14.3606C18.492 14.357 18.5061 14.3499 18.5132 14.3464C18.5061 14.3499 18.492 14.3535 18.4743 14.3606C18.4424 14.3712 18.3965 14.3889 18.3363 14.4136C18.2833 14.4348 18.2232 14.4631 18.1524 14.4985C18.0887 14.5374 18.018 14.5799 17.9543 14.6329C17.8942 14.6789 17.8305 14.7355 17.7775 14.785C17.7209 14.8345 17.6643 14.8734 17.6148 14.9123C17.5759 14.9406 17.544 14.9654 17.5157 14.9831C17.5051 14.9654 17.491 14.9477 17.4804 14.93C17.6926 14.7213 17.972 14.4773 18.2868 14.3358H18.2833ZM19.0827 12.8714C19.1039 12.8538 19.1216 12.8679 19.1251 12.8714C19.1322 12.875 19.1463 12.8927 19.1286 12.9139L17.3884 14.8168C17.3672 14.7921 17.3495 14.7709 17.3283 14.7496L18.255 13.7451L17.254 14.6754C17.2328 14.6541 17.208 14.6329 17.1832 14.6117L19.0862 12.875L19.0827 12.8714ZM17.4733 13.5859C17.5122 13.547 17.5546 13.5117 17.6006 13.4763C17.6431 13.4409 17.6855 13.4055 17.728 13.3666C17.8199 13.2747 17.9013 13.1721 17.9685 13.0589C18.0039 12.9988 18.0286 12.928 18.0534 12.8644C18.0711 12.8113 18.0923 12.7618 18.1135 12.7123C18.1524 12.6345 18.209 12.5637 18.2762 12.5177C18.354 12.4541 18.4318 12.4222 18.4743 12.4187H18.4707C18.4495 12.4435 18.4212 12.4611 18.3929 12.4824C18.3434 12.5177 18.2939 12.5531 18.255 12.6097C18.2161 12.6663 18.1913 12.7759 18.1595 12.8927C18.1383 12.9811 18.117 13.0766 18.0923 13.1332C18.0357 13.2605 17.8765 13.4657 17.6961 13.6425C17.5759 13.7663 17.4733 13.9078 17.3742 14.0882C17.3353 14.166 17.2964 14.2509 17.254 14.3429C17.2186 14.4242 17.1726 14.5056 17.1231 14.5622H17.1196C17.1196 14.5622 17.0877 14.5374 17.0701 14.5268C17.0877 14.495 17.109 14.4596 17.1337 14.4136C17.162 14.3606 17.1903 14.2934 17.2222 14.2261C17.2505 14.1589 17.2787 14.0811 17.3141 14.0139C17.3495 13.9432 17.3884 13.8724 17.4344 13.8123C17.4733 13.7522 17.5193 13.6991 17.5617 13.6531C17.5971 13.6072 17.6325 13.5718 17.6572 13.547C17.6749 13.5293 17.6855 13.5152 17.6926 13.5117C17.6855 13.5152 17.6749 13.5258 17.6537 13.5435C17.6289 13.5683 17.5935 13.6036 17.5511 13.6425C17.5087 13.685 17.4627 13.7345 17.4132 13.7982C17.3672 13.8548 17.3212 13.9255 17.2787 13.9962C17.2398 14.0634 17.208 14.1413 17.1726 14.2049C17.1408 14.2686 17.109 14.3323 17.0771 14.3818C17.0524 14.4242 17.0312 14.4596 17.0135 14.4844C16.9958 14.4737 16.9781 14.4631 16.9604 14.4525C17.0736 14.1766 17.2398 13.8406 17.4768 13.5895L17.4733 13.5859ZM17.6501 11.927C17.6608 11.9023 17.682 11.9094 17.6891 11.9129C17.6961 11.9129 17.7138 11.9235 17.7067 11.9518L16.8295 14.3747C16.8012 14.3606 16.7729 14.3464 16.7411 14.3358L17.2186 13.0483L16.6456 14.2898C16.6173 14.2792 16.589 14.2686 16.5572 14.258L17.6537 11.9235L17.6501 11.927ZM16.4369 13.2039C16.4581 13.1544 16.4829 13.1049 16.5112 13.0518C16.536 13.0023 16.5607 12.9563 16.5819 12.8997C16.6315 12.7759 16.6633 12.6557 16.6845 12.5213C16.6916 12.4505 16.6916 12.3763 16.6881 12.309C16.6845 12.2525 16.6845 12.1994 16.6881 12.1428C16.6951 12.0579 16.7199 11.973 16.7588 11.9023C16.8119 11.8139 16.8614 11.7537 16.9074 11.7325C16.8932 11.7679 16.8755 11.7962 16.8543 11.828C16.8225 11.8775 16.7906 11.927 16.78 11.9942C16.7659 12.0579 16.7836 12.1746 16.8012 12.2914C16.8119 12.3798 16.826 12.4788 16.826 12.5425C16.8225 12.6769 16.7553 12.9316 16.6562 13.165C16.5926 13.3242 16.5501 13.494 16.5289 13.6991C16.5183 13.784 16.5147 13.8795 16.5147 13.975C16.5147 14.067 16.5006 14.1625 16.4794 14.2332C16.4581 14.2261 16.4369 14.2191 16.4157 14.2155C16.4192 14.1802 16.4263 14.1413 16.4298 14.0847C16.4369 14.0281 16.4405 13.9538 16.444 13.8795C16.444 13.8052 16.444 13.7203 16.4475 13.6461C16.4511 13.5683 16.4617 13.4869 16.4794 13.4162C16.4971 13.3454 16.5147 13.2747 16.5324 13.2181C16.5536 13.165 16.5713 13.119 16.5819 13.0801C16.5819 13.0695 16.5926 13.0624 16.5926 13.0518C16.589 13.0589 16.5855 13.0695 16.5784 13.0801C16.5643 13.112 16.543 13.1579 16.5218 13.2145C16.5006 13.2711 16.4758 13.3383 16.4546 13.4091C16.4369 13.4834 16.4192 13.5647 16.4086 13.6425C16.4016 13.7203 16.398 13.8052 16.3909 13.876C16.3874 13.9467 16.3768 14.021 16.3697 14.0776C16.3626 14.1271 16.352 14.166 16.3485 14.2014C16.3273 14.1979 16.3061 14.1908 16.2848 14.1872C16.2884 13.8901 16.3096 13.5187 16.4369 13.1969V13.2039ZM15.9665 11.6052C15.97 11.5804 15.9913 11.5769 15.9983 11.5769C16.0054 11.5769 16.0266 11.5804 16.0266 11.6052L16.1469 14.1837C16.115 14.1802 16.0868 14.1802 16.0549 14.1766L16.0019 12.8113L15.9488 14.1766C15.917 14.1802 15.8851 14.1802 15.8568 14.1837L15.97 11.6052H15.9665ZM15.3404 13.2499C15.3369 13.1969 15.344 13.1438 15.3475 13.0837C15.351 13.0271 15.3581 12.974 15.3581 12.9139C15.3546 12.783 15.3404 12.6557 15.3086 12.5283C15.2909 12.4576 15.2626 12.3904 15.2343 12.3267C15.2096 12.2772 15.1883 12.2277 15.1706 12.1746C15.1459 12.0933 15.1353 12.0049 15.1459 11.9235C15.16 11.8245 15.1848 11.7467 15.2166 11.7113C15.2166 11.7502 15.2096 11.782 15.206 11.8174C15.1954 11.8775 15.1848 11.9412 15.1954 12.0049C15.2096 12.065 15.2661 12.1676 15.3298 12.2701C15.3758 12.348 15.4253 12.4328 15.4536 12.493C15.4996 12.6168 15.535 12.8785 15.535 13.1297C15.535 13.2994 15.5633 13.4763 15.6199 13.6708C15.6482 13.7557 15.6764 13.8441 15.7118 13.9326C15.7472 14.0175 15.7684 14.1094 15.7755 14.1802C15.7543 14.1872 15.733 14.1872 15.7118 14.1908C15.7047 14.1589 15.6941 14.12 15.6764 14.067C15.6623 14.0104 15.6375 13.9396 15.6128 13.8724C15.5845 13.8017 15.5527 13.7274 15.5279 13.6531C15.5031 13.5789 15.4819 13.501 15.4713 13.4303C15.4572 13.356 15.4536 13.2853 15.4465 13.2252C15.443 13.1686 15.443 13.119 15.443 13.0801C15.4395 13.0483 15.4395 13.0271 15.4395 13.0271V13.0801C15.4395 13.1155 15.4359 13.165 15.4359 13.2252C15.4359 13.2853 15.4395 13.3596 15.4465 13.4303C15.4572 13.5046 15.4678 13.5895 15.4925 13.6638C15.5102 13.7416 15.542 13.8194 15.5633 13.8901C15.5845 13.9573 15.6022 14.0281 15.6163 14.0847C15.6269 14.1306 15.6375 14.1696 15.6446 14.2049C15.6234 14.2085 15.6022 14.2155 15.5809 14.2191C15.4713 13.9396 15.351 13.5895 15.344 13.2428L15.3404 13.2499ZM14.2899 11.9518C14.2793 11.9235 14.3005 11.9129 14.3041 11.9129C14.3111 11.9094 14.3324 11.9023 14.3465 11.927L15.443 14.2615C15.4112 14.2721 15.3793 14.2827 15.351 14.2934L14.7816 13.0518L15.2555 14.3393C15.2272 14.3499 15.1989 14.3641 15.1706 14.3782L14.2935 11.9553L14.2899 11.9518ZM14.3359 13.7133C14.3111 13.6638 14.297 13.6142 14.2793 13.5541C14.2652 13.5046 14.2475 13.448 14.2262 13.3949C14.1767 13.2747 14.1131 13.1615 14.0317 13.0589C13.9893 13.0023 13.9362 12.9528 13.8831 12.8997C13.8442 12.8679 13.8018 12.829 13.77 12.7866C13.7134 12.7229 13.6709 12.6451 13.6462 12.5673C13.6249 12.4718 13.6179 12.3939 13.6356 12.348C13.6462 12.3798 13.6532 12.4116 13.6603 12.447C13.6745 12.5036 13.6886 12.5673 13.724 12.6203C13.7594 12.6734 13.8549 12.7441 13.9504 12.8149C14.0246 12.8714 14.1024 12.928 14.1484 12.9776C14.2369 13.0731 14.3713 13.2994 14.4668 13.5329C14.5304 13.692 14.6259 13.8406 14.7533 13.9998C14.8099 14.067 14.87 14.1377 14.9407 14.2085C15.0044 14.2721 15.0645 14.3499 15.0964 14.4136C15.0964 14.4136 15.061 14.4348 15.0433 14.449C15.0221 14.4207 14.9973 14.3853 14.962 14.3464C14.9231 14.3004 14.8806 14.2509 14.824 14.1908C14.7745 14.1377 14.7144 14.0847 14.6613 14.0245C14.6083 13.9644 14.5658 13.8972 14.5198 13.8371C14.4809 13.7734 14.4491 13.7133 14.4243 13.6602C14.396 13.6072 14.3783 13.5612 14.3642 13.5258C14.3571 13.5081 14.35 13.494 14.343 13.4834C14.3465 13.4904 14.3536 13.5081 14.3607 13.5258C14.3748 13.5576 14.389 13.6072 14.4137 13.6638C14.4349 13.7168 14.4632 13.784 14.4986 13.8477C14.5375 13.9149 14.58 13.9856 14.633 14.0458C14.6825 14.1094 14.7356 14.1696 14.7851 14.2261C14.8346 14.2827 14.8771 14.3358 14.9124 14.3853C14.9407 14.4242 14.9655 14.4596 14.9832 14.4844C14.9655 14.4985 14.9478 14.5091 14.9301 14.5233C14.7214 14.3075 14.4774 14.0316 14.3359 13.7133ZM12.8715 12.9139C12.8539 12.8927 12.868 12.875 12.8715 12.8714C12.8786 12.8679 12.8928 12.8538 12.914 12.8714L14.8169 14.6082C14.7957 14.6294 14.771 14.6506 14.7497 14.6718L13.7452 13.7416L14.6755 14.7461C14.6542 14.7673 14.633 14.7885 14.6118 14.8133L12.8751 12.9104L12.8715 12.9139ZM13.586 14.5233C13.5471 14.4844 13.5153 14.4419 13.4764 14.3959C13.441 14.3535 13.4092 14.311 13.3667 14.2686C13.2783 14.1766 13.1722 14.0953 13.059 14.0316C12.9989 13.9962 12.9317 13.9679 12.8645 13.9432C12.8149 13.9255 12.7619 13.9078 12.7124 13.8831C12.6346 13.8441 12.5674 13.7911 12.5178 13.7239C12.4577 13.6461 12.4223 13.5753 12.4223 13.5258C12.4471 13.5506 12.4648 13.5789 12.4825 13.6072C12.5178 13.6567 12.5567 13.7062 12.6098 13.7451C12.6664 13.7805 12.7796 13.8088 12.8928 13.8371C12.9812 13.8583 13.0767 13.8831 13.1333 13.9078C13.2606 13.9609 13.4693 14.1236 13.6426 14.3004C13.7664 14.4242 13.9114 14.5268 14.0883 14.6223C14.1697 14.6647 14.251 14.7001 14.343 14.7426C14.4243 14.7779 14.5092 14.8275 14.5623 14.877H14.5658C14.5517 14.8947 14.5375 14.9088 14.5269 14.9265C14.4951 14.9088 14.4597 14.8911 14.4137 14.8664C14.3607 14.8381 14.3005 14.8062 14.2262 14.7779C14.159 14.7461 14.0812 14.7178 14.014 14.6824C13.9433 14.6506 13.8725 14.6117 13.8124 14.5692C13.7523 14.5268 13.6992 14.4808 13.6532 14.4419C13.6108 14.403 13.5719 14.3676 13.5471 14.3464C13.5401 14.3358 13.5365 14.3323 13.5294 14.3252C13.533 14.3323 13.5365 14.3393 13.5436 14.3464C13.5683 14.3712 13.6037 14.4065 13.6426 14.449C13.6851 14.4914 13.7381 14.5374 13.7983 14.5869C13.8549 14.6329 13.9256 14.6789 13.9963 14.7213C14.0671 14.7602 14.1414 14.7921 14.205 14.8275C14.2722 14.8593 14.3324 14.8947 14.3819 14.923C14.4243 14.9477 14.4597 14.9725 14.4845 14.9902C14.4738 15.0078 14.4632 15.022 14.4526 15.0432C14.1767 14.923 13.8442 14.7638 13.5896 14.5233H13.586ZM11.9307 14.3464C11.9059 14.3323 11.913 14.311 11.913 14.304C11.9165 14.3004 11.9271 14.2792 11.9519 14.2863L14.3783 15.167C14.3642 15.1953 14.35 15.2236 14.3359 15.2519L13.0555 14.7779L14.2935 15.3474C14.2828 15.3757 14.2758 15.4075 14.2652 15.4358L11.9307 14.3429V14.3464ZM13.2076 15.5596C13.1545 15.5384 13.105 15.5136 13.0519 15.4889C13.006 15.4606 12.9564 15.4358 12.8998 15.4146C12.7796 15.3686 12.6558 15.3333 12.5284 15.3156C12.4577 15.305 12.3799 15.3085 12.3127 15.312C12.2596 15.312 12.1995 15.3156 12.1464 15.312C12.0616 15.305 11.9767 15.2802 11.9059 15.2378C11.821 15.1882 11.7574 15.1352 11.7397 15.0927C11.7715 15.1069 11.7998 15.121 11.8316 15.1423C11.8812 15.1741 11.9342 15.2095 11.9979 15.2201C12.0615 15.2307 12.1783 15.2165 12.295 15.1988C12.3834 15.1847 12.4825 15.1706 12.5461 15.1741C12.6805 15.1741 12.9387 15.2413 13.1687 15.3403C13.3278 15.404 13.4976 15.4464 13.7028 15.4712C13.7912 15.4783 13.8831 15.4818 13.9787 15.4818C14.0706 15.4854 14.1661 15.4995 14.2333 15.5207H14.2369C14.2298 15.5384 14.2262 15.5596 14.2192 15.5809C14.1838 15.5773 14.1449 15.5702 14.0883 15.5667C14.0317 15.5596 13.961 15.5561 13.8831 15.5526C13.8089 15.5526 13.7275 15.5561 13.6497 15.549C13.5719 15.5455 13.4905 15.5349 13.4198 15.5207C13.349 15.503 13.2783 15.4818 13.2217 15.4641C13.1687 15.4429 13.1227 15.4288 13.0873 15.4146C13.0661 15.4075 13.0519 15.4005 13.0413 15.4005C13.0484 15.404 13.0661 15.4111 13.0873 15.4181C13.1156 15.4323 13.1616 15.4535 13.2182 15.4747C13.2748 15.4995 13.342 15.5207 13.4163 15.5419C13.487 15.5632 13.5683 15.5773 13.6462 15.5879C13.724 15.5985 13.8089 15.6021 13.8796 15.6056C13.9539 15.6127 14.0246 15.6198 14.0812 15.6304C14.1307 15.6374 14.1697 15.6445 14.205 15.6516C14.2015 15.6728 14.1979 15.6905 14.1944 15.7117C13.8938 15.7082 13.5259 15.687 13.204 15.5596H13.2076ZM11.6088 16.0301C11.5805 16.0301 11.5805 16.0088 11.5805 16.0018C11.5805 15.9947 11.5805 15.9699 11.6088 15.9699L14.1838 15.8497C14.1803 15.8815 14.1803 15.9133 14.1767 15.9452L12.8114 15.9982L14.1767 16.0513C14.1803 16.0796 14.1803 16.1114 14.1838 16.1432L11.6088 16.023V16.0301ZM13.2535 16.6597C13.197 16.6597 13.1439 16.6561 13.0838 16.6491C13.0307 16.6455 12.9741 16.6384 12.914 16.6384C12.7831 16.642 12.6558 16.6561 12.5284 16.6915C12.4612 16.7056 12.3905 16.7375 12.3268 16.7658C12.2773 16.787 12.2278 16.8082 12.1747 16.8259C12.0934 16.8542 12.005 16.8613 11.9271 16.8507C11.8246 16.8365 11.7468 16.8118 11.7185 16.7835C11.7503 16.7835 11.7821 16.787 11.821 16.7941C11.8776 16.8047 11.9413 16.8118 12.005 16.8011C12.0686 16.7905 12.1677 16.7304 12.2702 16.6667C12.3481 16.6208 12.4329 16.5712 12.4931 16.5465C12.6169 16.497 12.8822 16.4616 13.1297 16.4616C13.3031 16.4616 13.4764 16.4333 13.6709 16.3767C13.7558 16.3519 13.8442 16.3201 13.9362 16.2847C14.0211 16.2494 14.1131 16.2281 14.1838 16.2211C14.1873 16.2423 14.1909 16.2635 14.1944 16.2847C14.1626 16.2918 14.1201 16.3024 14.0706 16.3201C14.014 16.3378 13.9468 16.359 13.8761 16.3873C13.8053 16.4121 13.7311 16.4474 13.6568 16.4722C13.586 16.497 13.5047 16.5146 13.4339 16.5288C13.3597 16.5394 13.2889 16.5465 13.2323 16.55C13.1722 16.5535 13.1227 16.5571 13.0873 16.5571H13.0307C13.0307 16.5571 13.0519 16.5606 13.0873 16.5606C13.1191 16.5606 13.1687 16.5642 13.2323 16.5642C13.296 16.5642 13.3632 16.5606 13.4375 16.55C13.5118 16.5429 13.5931 16.5288 13.6674 16.5076C13.7452 16.4863 13.823 16.458 13.8938 16.4333C13.961 16.4121 14.0317 16.3944 14.0883 16.3802C14.1343 16.3696 14.1732 16.3625 14.2086 16.3555C14.2121 16.3767 14.2192 16.3944 14.2227 16.4156C13.9468 16.5253 13.5931 16.6491 13.25 16.6561L13.2535 16.6597ZM11.9519 17.7102C11.9271 17.7172 11.9165 17.6996 11.913 17.6925C11.913 17.6854 11.9059 17.6642 11.9271 17.6536L14.2652 16.5571C14.2758 16.5889 14.2828 16.6172 14.2935 16.6455L13.0555 17.215L14.3359 16.741C14.35 16.7728 14.3642 16.8011 14.3783 16.8259L11.9519 17.7066V17.7102ZM13.7134 17.6642C13.6638 17.6854 13.6143 17.6996 13.5542 17.7172C13.5047 17.7349 13.4516 17.7491 13.395 17.7703C13.2748 17.8234 13.1616 17.8835 13.059 17.9648C13.0024 18.0073 12.9529 18.0603 12.9034 18.1134C12.868 18.1558 12.8291 18.1948 12.7831 18.2266C12.7194 18.2867 12.6416 18.3256 12.5638 18.3504C12.4648 18.3751 12.387 18.3787 12.3445 18.3645C12.3728 18.3504 12.4082 18.3433 12.4436 18.3362C12.5001 18.3221 12.5674 18.3079 12.6169 18.2761C12.6735 18.2372 12.7442 18.1452 12.8114 18.0497C12.868 17.9755 12.9246 17.8941 12.9741 17.8517C13.0696 17.7597 13.2995 17.6253 13.5294 17.5333C13.6886 17.4661 13.8407 17.3706 13.9963 17.2433C14.0635 17.1902 14.1343 17.1301 14.205 17.0558C14.2687 16.9921 14.3465 16.932 14.4102 16.9037H14.4137C14.4243 16.9214 14.4349 16.9356 14.4455 16.9568C14.4172 16.9745 14.3819 17.0028 14.343 17.0346C14.297 17.0735 14.2475 17.1195 14.1873 17.1725C14.1343 17.2256 14.0812 17.2822 14.0211 17.3388C13.961 17.3883 13.8973 17.4343 13.8336 17.4767C13.77 17.5156 13.7134 17.551 13.6568 17.5722C13.6037 17.6005 13.5577 17.6217 13.5224 17.6359C13.5118 17.6394 13.5011 17.6465 13.4941 17.65C13.5011 17.6465 13.5118 17.643 13.5259 17.6394C13.5542 17.6253 13.6037 17.6076 13.6603 17.5864C13.7169 17.5616 13.7806 17.5333 13.8478 17.498C13.9114 17.4626 13.9822 17.4201 14.0459 17.3635C14.106 17.3176 14.1697 17.261 14.2227 17.2114C14.2793 17.1655 14.3324 17.123 14.3819 17.0841C14.4208 17.0558 14.4562 17.0311 14.4845 17.0169C14.4951 17.0311 14.5057 17.0487 14.5198 17.0664C14.3041 17.2751 14.0282 17.5227 13.7098 17.6642H13.7134ZM12.914 19.1285C12.8928 19.1462 12.8786 19.1321 12.8715 19.125C12.868 19.1215 12.8539 19.1038 12.8715 19.0826L14.6083 17.1796C14.6295 17.2044 14.6507 17.2256 14.6719 17.2504L13.7417 18.2513L14.7462 17.3246C14.7674 17.3423 14.7922 17.3635 14.8134 17.3848L12.9105 19.125L12.914 19.1285ZM14.5234 18.4105C14.488 18.4494 14.4455 18.4848 14.3996 18.5202C14.3571 18.5555 14.3147 18.5909 14.2722 18.6298C14.1838 18.7218 14.0989 18.8279 14.0352 18.9375C13.9999 18.9977 13.9716 19.0684 13.9504 19.1356C13.9327 19.1851 13.9114 19.2347 13.8867 19.2842C13.8513 19.362 13.7947 19.4327 13.7275 19.4787C13.6462 19.5424 13.5719 19.5778 13.5294 19.5778C13.5542 19.553 13.5825 19.5353 13.6108 19.5141C13.6603 19.4787 13.7098 19.4433 13.7487 19.3868C13.7841 19.3337 13.8124 19.2205 13.8407 19.1038C13.8619 19.0189 13.8867 18.9234 13.9114 18.8633C13.9645 18.7395 14.1272 18.5308 14.3041 18.3539C14.4279 18.2301 14.5304 18.0886 14.6259 17.9083C14.6684 17.8304 14.7038 17.7455 14.7462 17.6571C14.7816 17.5722 14.8311 17.4909 14.8806 17.4343C14.8983 17.4484 14.916 17.459 14.9301 17.4697C14.916 17.5015 14.8948 17.5404 14.87 17.5828C14.8417 17.6359 14.8099 17.7031 14.7816 17.7703C14.7497 17.8375 14.7214 17.9153 14.6896 17.9825C14.6542 18.0533 14.6153 18.124 14.5693 18.1841C14.5269 18.2443 14.4845 18.2973 14.442 18.3433C14.4031 18.3893 14.3713 18.4247 14.3465 18.4494C14.3288 18.4671 14.3147 18.4813 14.3111 18.4883C14.3147 18.4813 14.3288 18.4706 14.3465 18.453C14.3748 18.4282 14.4102 18.3964 14.4491 18.3539C14.4915 18.3115 14.5375 18.262 14.5906 18.1983C14.633 18.1417 14.679 18.071 14.7214 18.0002C14.7603 17.933 14.7957 17.8587 14.8275 17.7915C14.8594 17.7279 14.8948 17.6642 14.9231 17.6147C14.9513 17.5722 14.9726 17.5404 14.9903 17.5121C15.0079 17.5262 15.0221 17.5369 15.0433 17.5475C14.9231 17.8234 14.7639 18.1558 14.5234 18.407V18.4105ZM14.3465 20.0694C14.3324 20.0942 14.3111 20.0871 14.3041 20.0836C14.3005 20.0836 14.2793 20.0729 14.2899 20.0447L15.1671 17.6217C15.1954 17.6359 15.2237 17.65 15.252 17.6642L14.778 18.9446L15.3475 17.7031C15.3758 17.7137 15.4076 17.7243 15.4395 17.7349L14.343 20.0694H14.3465ZM15.5597 18.789C15.542 18.8385 15.5137 18.888 15.489 18.9411C15.4607 18.9906 15.4395 19.0401 15.4182 19.0932C15.3687 19.217 15.3334 19.3408 15.3157 19.4716C15.3051 19.5424 15.3086 19.6167 15.3121 19.6874C15.3121 19.7405 15.3157 19.7935 15.3121 19.8501C15.3051 19.935 15.2803 20.0199 15.2414 20.0906C15.1883 20.1791 15.1353 20.2392 15.0928 20.2604C15.107 20.225 15.1247 20.1967 15.1424 20.1684C15.1742 20.1189 15.2096 20.0659 15.2202 19.9987C15.2343 19.935 15.2166 19.8218 15.1989 19.7016C15.1848 19.6131 15.1742 19.5141 15.1742 19.454C15.1742 19.316 15.2449 19.0613 15.344 18.8279C15.4076 18.6723 15.4465 18.4989 15.4713 18.2973C15.4784 18.2089 15.4819 18.1134 15.4854 18.0179C15.4854 17.9259 15.4996 17.8304 15.5208 17.7632C15.542 17.7703 15.5597 17.7738 15.5809 17.7774C15.5774 17.8128 15.5703 17.8552 15.5668 17.9083C15.5597 17.9684 15.5597 18.0427 15.5562 18.1134C15.5562 18.1912 15.5597 18.2726 15.5562 18.3469C15.5527 18.4247 15.5385 18.506 15.5244 18.5768C15.5067 18.6475 15.4854 18.7182 15.4678 18.7748C15.4501 18.8314 15.4324 18.8739 15.4182 18.9128C15.4112 18.9305 15.4076 18.9446 15.4041 18.9517C15.4076 18.9446 15.4147 18.9305 15.4218 18.9128C15.4359 18.881 15.4572 18.8385 15.4784 18.7784C15.5031 18.7253 15.5244 18.6546 15.5456 18.5838C15.5668 18.5131 15.5845 18.4317 15.5916 18.3504C15.6022 18.2726 15.6057 18.1912 15.6092 18.1169C15.6163 18.0462 15.6269 17.9755 15.634 17.9153C15.6411 17.8693 15.6482 17.8304 15.6552 17.7951C15.6764 17.7986 15.6941 17.8021 15.7154 17.8057C15.7154 18.1028 15.6906 18.4742 15.5633 18.7961L15.5597 18.789ZM16.0302 20.3913C16.0302 20.4196 16.0089 20.4196 16.0019 20.4196C15.9948 20.4196 15.9736 20.4196 15.97 20.3913L15.8568 17.8128C15.8851 17.8163 15.917 17.8198 15.9488 17.8198L16.0019 19.1851L16.0549 17.8198C16.0868 17.8198 16.115 17.8163 16.1469 17.8128L16.0266 20.3913H16.0302ZM15.9983 17.7208C15.0468 17.7208 14.2758 16.9497 14.2758 16.0018C14.2758 15.0538 15.0468 14.2792 15.9983 14.2792C16.9498 14.2792 17.7173 15.0503 17.7173 16.0018C17.7173 16.9532 16.9463 17.7208 15.9983 17.7208ZM16.6598 18.7465C16.6598 18.7996 16.6562 18.8527 16.6491 18.9163C16.6456 18.9694 16.6385 19.0224 16.6385 19.0826C16.6421 19.2134 16.6598 19.3443 16.6916 19.4716C16.7093 19.5388 16.7376 19.6061 16.7659 19.6733C16.7871 19.7192 16.8119 19.7688 16.8295 19.8218C16.8543 19.9032 16.8614 19.9951 16.8508 20.0729C16.8366 20.172 16.8119 20.2498 16.7836 20.2852C16.7836 20.2463 16.7871 20.2144 16.7942 20.1791C16.8048 20.1225 16.8154 20.0553 16.8048 19.9951C16.7906 19.9315 16.7305 19.8289 16.6668 19.7263C16.6209 19.652 16.5749 19.5671 16.5501 19.507C16.5006 19.3797 16.4652 19.1179 16.4652 18.8668C16.4652 18.697 16.4405 18.5237 16.3803 18.3256C16.3556 18.2407 16.3237 18.1523 16.2884 18.0639C16.2565 17.979 16.2318 17.8835 16.2247 17.8128C16.2495 17.8092 16.2707 17.8092 16.2884 17.8057C16.299 17.8375 16.3096 17.88 16.3237 17.9295C16.3414 17.9896 16.3626 18.0568 16.3909 18.1276C16.4157 18.1983 16.4511 18.269 16.4758 18.3433C16.5006 18.4176 16.5183 18.4954 16.5324 18.5662C16.543 18.6404 16.5501 18.7112 16.5536 18.7713C16.5572 18.8314 16.5607 18.8774 16.5607 18.9163C16.5607 18.9552 16.5643 18.9694 16.5643 18.9694V18.9163C16.5643 18.881 16.5678 18.835 16.5678 18.7713C16.5678 18.7076 16.5643 18.6369 16.5572 18.5662C16.5466 18.4919 16.5324 18.4105 16.5112 18.3327C16.49 18.2549 16.4617 18.1771 16.4405 18.1063C16.4157 18.0391 16.4016 17.9719 16.3874 17.9153C16.3733 17.8693 16.3662 17.8269 16.3591 17.7915C16.3803 17.788 16.4016 17.7809 16.4192 17.7774C16.5289 18.0568 16.6527 18.407 16.6598 18.7536V18.7465ZM17.7103 20.0447C17.7173 20.0729 17.6997 20.0836 17.6926 20.0836C17.6855 20.0871 17.6643 20.0942 17.6537 20.0694L16.5572 17.7349C16.589 17.7243 16.6173 17.7137 16.6456 17.7031L17.2186 18.9446L16.7411 17.6642C16.7729 17.65 16.8012 17.6359 16.8295 17.6217L17.7067 20.0447H17.7103ZM17.6643 18.2832C17.6855 18.3327 17.6997 18.3858 17.7173 18.4424C17.735 18.4989 17.7492 18.5485 17.7739 18.6051C17.8235 18.7253 17.8871 18.8385 17.9649 18.9411C18.0074 18.9941 18.064 19.0437 18.117 19.0967C18.1559 19.1321 18.1949 19.1675 18.2302 19.2099C18.2868 19.2736 18.3257 19.3549 18.3505 19.4327C18.3752 19.5247 18.3788 19.6025 18.3646 19.6485C18.3505 19.6202 18.3434 19.5848 18.3363 19.5495C18.3257 19.4929 18.3116 19.4292 18.2762 19.3761C18.2373 19.3231 18.1453 19.2523 18.0498 19.1816C17.9756 19.1285 17.8977 19.072 17.8518 19.0224C17.7598 18.9269 17.6254 18.697 17.5334 18.4636C17.4698 18.3044 17.3707 18.1558 17.2469 17.9967C17.1903 17.9295 17.1267 17.8587 17.0559 17.788C16.9922 17.7243 16.9357 17.6465 16.9038 17.5828C16.9215 17.5687 16.9392 17.5616 16.9569 17.551C16.9746 17.5758 17.0029 17.6111 17.0347 17.65C17.0736 17.696 17.1196 17.7491 17.1726 17.8057C17.2257 17.8587 17.2823 17.9118 17.3389 17.9755C17.3884 18.0321 17.4344 18.0993 17.4768 18.1594C17.5157 18.2231 17.5511 18.2867 17.5759 18.3398C17.6006 18.3928 17.6218 18.4353 17.636 18.4706C17.6466 18.4919 17.6501 18.506 17.6537 18.5166C17.6537 18.506 17.6466 18.4919 17.6395 18.4706C17.6254 18.4388 17.6077 18.3928 17.5865 18.3327C17.5653 18.2796 17.5334 18.2124 17.498 18.1488C17.4627 18.0851 17.4202 18.0108 17.3672 17.9507C17.3177 17.887 17.2646 17.8269 17.2115 17.7703C17.1656 17.7137 17.1231 17.6607 17.0842 17.6111C17.0559 17.5722 17.0347 17.5369 17.017 17.5121C17.0347 17.498 17.0488 17.4873 17.0665 17.4767C17.2787 17.689 17.5228 17.9684 17.6643 18.2832ZM19.1286 19.0826C19.1463 19.1038 19.1322 19.1215 19.1251 19.125C19.1216 19.1321 19.1039 19.1462 19.0827 19.1285L17.1797 17.3883C17.2045 17.3671 17.2292 17.3459 17.2505 17.3282L18.2514 18.2549L17.3247 17.2539C17.346 17.2291 17.3672 17.2079 17.3849 17.1832L19.1251 19.0861L19.1286 19.0826ZM18.4106 17.4732C18.4495 17.5121 18.4849 17.5545 18.5273 17.6005C18.5592 17.643 18.5945 17.6854 18.6335 17.7279C18.7254 17.8198 18.8315 17.9012 18.9412 17.9684C19.0013 18.0038 19.0721 18.0285 19.1393 18.0533C19.1888 18.071 19.2418 18.0922 19.2878 18.1134C19.3656 18.1523 19.4364 18.2054 19.4859 18.2761C19.546 18.3504 19.5779 18.4211 19.5814 18.4706C19.5566 18.4459 19.5389 18.4176 19.5177 18.3893C19.4824 18.3398 19.447 18.2938 19.3939 18.2549C19.3409 18.216 19.2277 18.1912 19.1145 18.1594C19.0261 18.1382 18.9306 18.1134 18.8704 18.0886C18.7502 18.0356 18.5415 17.8764 18.3611 17.696C18.2408 17.5722 18.0958 17.4697 17.9154 17.3742C17.8376 17.3352 17.7527 17.2963 17.6643 17.2539C17.5794 17.2185 17.498 17.1725 17.4415 17.123C17.4556 17.1018 17.4698 17.0876 17.4804 17.07C17.5087 17.0876 17.5476 17.1089 17.59 17.1336C17.6431 17.1584 17.7103 17.1902 17.7775 17.2221C17.8482 17.2504 17.9225 17.2787 17.9932 17.314C18.064 17.3459 18.1276 17.3848 18.1913 17.4272C18.2514 17.4697 18.3045 17.5156 18.354 17.5581C18.3965 17.5935 18.4354 17.6288 18.4566 17.6536C18.4672 17.6607 18.4743 17.6677 18.4778 17.6713C18.4743 17.6642 18.4672 17.6607 18.4601 17.65C18.4354 17.6253 18.4035 17.5899 18.3576 17.5475C18.3151 17.505 18.2656 17.459 18.2055 17.4095C18.1453 17.3635 18.0746 17.3176 18.0074 17.2751C17.9366 17.2362 17.8624 17.2044 17.7952 17.169C17.7315 17.1372 17.6714 17.1053 17.6183 17.0735C17.5794 17.0487 17.544 17.0275 17.5157 17.0063C17.5299 16.9921 17.5405 16.9745 17.5511 16.9568C17.827 17.0735 18.1595 17.2362 18.4106 17.4732ZM20.0695 17.65C20.0943 17.6607 20.0872 17.6819 20.0837 17.689C20.0837 17.696 20.073 17.7137 20.0447 17.7066L17.6218 16.8259C17.636 16.8011 17.6501 16.7728 17.6643 16.741L18.9447 17.215L17.7032 16.6455C17.7138 16.6172 17.7244 16.5889 17.735 16.5571L20.0695 17.6536V17.65ZM18.7891 16.4368C18.8421 16.458 18.8881 16.4828 18.9447 16.5076C18.9907 16.5359 19.0402 16.5606 19.0933 16.5818C19.2171 16.6278 19.3409 16.6632 19.4717 16.6844C19.5425 16.6915 19.6168 16.6915 19.6875 16.688C19.7406 16.6844 19.7972 16.6844 19.8502 16.688C19.9351 16.695 20.0235 16.7198 20.0907 16.7587C20.1792 16.8082 20.2428 16.8613 20.2605 16.9073C20.2322 16.8931 20.2004 16.8754 20.1721 16.8542C20.1226 16.8224 20.0695 16.7905 20.0023 16.7764C19.9386 16.7658 19.8254 16.7799 19.7087 16.7976C19.6168 16.8118 19.5213 16.8259 19.4576 16.8224C19.3196 16.8224 19.065 16.7552 18.8351 16.6561C18.6759 16.5925 18.5026 16.55 18.301 16.5288C18.2125 16.5182 18.1206 16.5146 18.0215 16.5146C17.9296 16.5111 17.8376 16.5005 17.7704 16.4793H17.7669C17.7739 16.458 17.7775 16.4368 17.7846 16.4156C17.8164 16.4191 17.8588 16.4262 17.9084 16.4298C17.9685 16.4368 18.0428 16.4404 18.117 16.4439C18.1913 16.4439 18.2727 16.4404 18.3469 16.4474C18.4283 16.451 18.5061 16.4616 18.5769 16.4793C18.6511 16.4934 18.7183 16.5146 18.7749 16.5323C18.8315 16.5535 18.874 16.5712 18.9129 16.5818C18.9376 16.5925 18.9518 16.596 18.9589 16.5995C18.9518 16.596 18.9376 16.5889 18.9129 16.5783C18.881 16.5642 18.8386 16.5429 18.7785 16.5217C18.7254 16.5005 18.6547 16.4757 18.5839 16.4545C18.5132 16.4333 18.4318 16.4191 18.3505 16.4085C18.2727 16.3979 18.1913 16.3944 18.1206 16.3908C18.0463 16.3838 17.9756 16.3767 17.9154 16.3696C17.8694 16.359 17.8305 16.3519 17.7952 16.3449C17.7987 16.3272 17.8022 16.306 17.8058 16.2847C18.1064 16.2883 18.4743 16.3095 18.7962 16.4368H18.7891ZM20.3914 16.0301L17.8128 16.1503C17.8164 16.1185 17.8199 16.0867 17.8199 16.0584L19.1852 16.0053L17.8199 15.9522C17.8199 15.9204 17.8164 15.8886 17.8128 15.8567L20.3914 15.977C20.4197 15.977 20.4197 16.0018 20.4197 16.0088C20.4197 16.0159 20.4197 16.0371 20.3914 16.0371V16.0301Z" fill="currentColor"/>
</g>
<defs>
<clipPath id="clip0_12_78611">
<rect width="32" height="32" fill="white"/>
</clipPath>
</defs>
</svg>
