<svg width="32" height="32" viewBox="0 0 32 32" fill="none" xmlns="http://www.w3.org/2000/svg">
<g clip-path="url(#clip0_12_78674)">
<path d="M0 15.9982C0 22.9521 4.45673 28.8803 10.6678 31.0804V0.916107C4.45673 3.11617 0 9.04786 0 15.9982Z" fill="black"/>
<path d="M31.9999 15.9982C31.9999 9.04433 27.5396 3.11617 21.332 0.916107V31.0839C27.5361 28.8838 31.9999 22.9521 31.9999 16.0018V15.9982Z" fill="currentColor"/>
<path d="M15.9985 0C14.1274 0 12.3341 0.321875 10.6646 0.916105V31.0839C12.3341 31.6781 14.1274 32 15.9985 32C17.8696 32 19.6629 31.6781 21.3324 31.0839V0.916105C19.6629 0.321875 17.8661 0 15.9985 0Z" fill="currentColor"/>
</g>
<defs>
<clipPath id="clip0_12_78674">
<rect width="32" height="32" fill="white"/>
</clipPath>
</defs>
</svg>
