<svg width="24" height="24" viewBox="0 0 24 24" fill="none" xmlns="http://www.w3.org/2000/svg">
<g clip-path="url(#clip0_12_81065)">
<path d="M6.66431 21.5107C8.22839 22.4983 10.0814 23.0699 12.068 23.0699C14.0545 23.0699 15.9076 22.4983 17.4717 21.5107" stroke="currentColor" stroke-linecap="round" stroke-linejoin="round"/>
<path d="M1.93115 12.935C1.93115 9.02496 4.14536 5.63209 7.38831 3.94189" stroke="currentColor" stroke-linecap="round" stroke-linejoin="round"/>
<path d="M22.203 12.935C22.203 9.02496 19.9888 5.63209 16.7458 3.94189" stroke="currentColor" stroke-linecap="round" stroke-linejoin="round"/>
<path d="M10.0183 0.930664H14.1189V5.03124H10.0183V0.930664Z" stroke="currentColor" stroke-linejoin="round"/>
<path d="M20.9863 19.6665C22.1187 19.6665 23.0366 18.7485 23.0366 17.6162C23.0366 16.4839 22.1187 15.5659 20.9863 15.5659C19.854 15.5659 18.936 16.4839 18.936 17.6162C18.936 18.7485 19.854 19.6665 20.9863 19.6665Z" stroke="currentColor"/>
<path d="M0.963379 19.1098L3.57667 15.0361L6.18996 19.1098H0.963379Z" stroke="currentColor" stroke-linecap="round" stroke-linejoin="round"/>
<path d="M9.58203 10.922C9.58203 12.2936 10.6939 13.4055 12.0655 13.4055C12.4123 13.4055 12.7424 13.3344 13.0422 13.2061C13.9283 12.8267 14.5491 11.9468 14.5491 10.922C14.5491 9.55038 13.4372 8.43848 12.0655 8.43848C10.6939 8.43848 9.58203 9.55038 9.58203 10.922Z" stroke="currentColor" stroke-linecap="round" stroke-linejoin="round"/>
<path d="M8.29175 15.8642C8.68638 15.1136 9.24102 14.4933 9.90232 14.0628C10.5636 13.6323 11.3094 13.4062 12.0679 13.4062C12.8264 13.4062 13.5721 13.6323 14.2334 14.0628C14.8947 14.4933 15.4494 15.1136 15.844 15.8642" stroke="currentColor" stroke-linecap="round" stroke-linejoin="round"/>
</g>
<defs>
<clipPath id="clip0_12_81065">
<rect width="24" height="24" fill="white"/>
</clipPath>
</defs>
</svg>
