<svg width="24" height="24" viewBox="0 0 24 24" fill="none" xmlns="http://www.w3.org/2000/svg">
<g clip-path="url(#clip0_12_79494)">
<path d="M0.75 17.2501C0.75076 16.1342 1.02804 15.0359 1.55706 14.0533C2.08607 13.0708 2.85033 12.2347 3.78149 11.6197C4.71265 11.0047 5.7817 10.6301 6.89305 10.5293C8.00439 10.4285 9.12339 10.6047 10.15 11.0421" stroke="currentColor" stroke-linecap="round" stroke-linejoin="round"/>
<path d="M3.375 4.875C3.375 5.96902 3.8096 7.01823 4.58318 7.79182C5.35677 8.5654 6.40598 9 7.5 9C8.59402 9 9.64323 8.5654 10.4168 7.79182C11.1904 7.01823 11.625 5.96902 11.625 4.875C11.625 3.78098 11.1904 2.73177 10.4168 1.95818C9.64323 1.1846 8.59402 0.75 7.5 0.75C6.40598 0.75 5.35677 1.1846 4.58318 1.95818C3.8096 2.73177 3.375 3.78098 3.375 4.875Z" stroke="currentColor" stroke-linecap="round" stroke-linejoin="round"/>
<path d="M15 17.25C15 17.8467 15.2371 18.419 15.659 18.841C16.081 19.2629 16.6533 19.5 17.25 19.5C17.8467 19.5 18.419 19.2629 18.841 18.841C19.2629 18.419 19.5 17.8467 19.5 17.25C19.5 16.6533 19.2629 16.081 18.841 15.659C18.419 15.2371 17.8467 15 17.25 15C16.6533 15 16.081 15.2371 15.659 15.659C15.2371 16.081 15 16.6533 15 17.25Z" stroke="currentColor" stroke-linecap="round" stroke-linejoin="round"/>
<path d="M19.5005 17.25V18.375C19.5005 18.8722 19.698 19.3492 20.0497 19.7008C20.4013 20.0524 20.8782 20.25 21.3755 20.25C21.8727 20.2497 22.3494 20.0521 22.701 19.7005C23.0526 19.3489 23.2502 18.8722 23.2505 18.375V17.528C23.2762 15.9293 22.6818 14.3827 21.5921 13.2126C20.5024 12.0426 19.002 11.3399 17.4055 11.252C15.9198 11.2055 14.4698 11.7121 13.3364 12.6736C12.2029 13.6351 11.4667 14.9831 11.2704 16.4565C11.074 17.9298 11.4315 19.4236 12.2737 20.6484C13.1158 21.8732 14.3825 22.7418 15.8285 23.086C16.8053 23.3167 17.8238 23.304 18.7945 23.049" stroke="currentColor" stroke-linecap="round" stroke-linejoin="round"/>
</g>
<defs>
<clipPath id="clip0_12_79494">
<rect width="24" height="24" fill="white"/>
</clipPath>
</defs>
</svg>
