<svg width="24" height="24" viewBox="0 0 24 24" fill="none" xmlns="http://www.w3.org/2000/svg">
<g clip-path="url(#clip0_12_79531)">
<path d="M0.75 17.2499C0.751544 14.9833 1.89011 12.8686 3.78149 11.6195C5.67287 10.3704 8.06476 10.1534 10.15 11.0419" stroke="currentColor" stroke-linecap="round" stroke-linejoin="round"/>
<path fill-rule="evenodd" clip-rule="evenodd" d="M3.375 4.875C3.375 7.15317 5.22183 9 7.5 9C9.77817 9 11.625 7.15317 11.625 4.875C11.625 2.59683 9.77817 0.75 7.5 0.75C5.22183 0.75 3.375 2.59683 3.375 4.875Z" stroke="currentColor" stroke-linecap="round" stroke-linejoin="round"/>
<path fill-rule="evenodd" clip-rule="evenodd" d="M11.25 17.25C11.25 20.5637 13.9363 23.25 17.25 23.25C20.5637 23.25 23.25 20.5637 23.25 17.25C23.25 13.9363 20.5637 11.25 17.25 11.25C13.9363 11.25 11.25 13.9363 11.25 17.25Z" stroke="currentColor" stroke-linecap="round" stroke-linejoin="round"/>
<path d="M19.901 17.2499H17.25V14.5979" stroke="currentColor" stroke-linecap="round" stroke-linejoin="round"/>
</g>
<defs>
<clipPath id="clip0_12_79531">
<rect width="24" height="24" fill="white"/>
</clipPath>
</defs>
</svg>
