<svg width="24" height="24" viewBox="0 0 24 24" fill="none" xmlns="http://www.w3.org/2000/svg">
<g clip-path="url(#clip0_12_80157)">
<path fill-rule="evenodd" clip-rule="evenodd" d="M13.0501 19.1401L9.33008 19.6701L9.86008 16.0001L19.4101 6.46008C20.2966 5.634 21.6781 5.65838 22.5349 6.51521C23.3918 7.37205 23.4162 8.75355 22.5901 9.64008L13.0501 19.1401Z" stroke="currentColor" stroke-linecap="round" stroke-linejoin="round"/>
<rect x="4.75" y="0.75" width="8.5" height="4" rx="0.75" stroke="currentColor" stroke-linecap="round" stroke-linejoin="round"/>
<path d="M13.25 2.75H15.75C16.5784 2.75 17.25 3.42157 17.25 4.25" stroke="currentColor" stroke-linecap="round" stroke-linejoin="round"/>
<path d="M17.25 18.75V21.75C17.25 22.5784 16.5784 23.25 15.75 23.25H2.25C1.42157 23.25 0.75 22.5784 0.75 21.75V4.25C0.75 3.42157 1.42157 2.75 2.25 2.75H4.75" stroke="currentColor" stroke-linecap="round" stroke-linejoin="round"/>
<path d="M5.25 8.75H12.25" stroke="currentColor" stroke-linecap="round" stroke-linejoin="round"/>
<path d="M5.25 13.25H7.75" stroke="currentColor" stroke-linecap="round" stroke-linejoin="round"/>
</g>
<defs>
<clipPath id="clip0_12_80157">
<rect width="24" height="24" fill="white"/>
</clipPath>
</defs>
</svg>
