<svg width="24" height="24" viewBox="0 0 24 24" fill="none" xmlns="http://www.w3.org/2000/svg">
<g clip-path="url(#clip0_12_80938)">
<path d="M17.6169 7.35675C17.7619 7.30649 17.8927 7.22214 17.9983 7.1108C18.1039 6.99946 18.1813 6.86439 18.2238 6.71694C18.2663 6.56949 18.2729 6.41398 18.2428 6.26349C18.2127 6.11301 18.1469 5.97194 18.051 5.85216C16.8134 4.30245 15.1255 3.17486 13.2201 2.62488C11.3146 2.07491 9.28549 2.12964 7.41246 2.78153C5.53943 3.43342 3.91477 4.65036 2.76253 6.26454C1.6103 7.87871 0.987232 9.81061 0.979259 11.7938C0.978542 11.9471 1.01462 12.0984 1.08447 12.2349C1.15432 12.3714 1.2559 12.4891 1.38067 12.5782C1.50545 12.6673 1.64978 12.7252 1.80155 12.7469C1.95332 12.7687 2.1081 12.7537 2.25288 12.7033L17.6169 7.35675Z" stroke="currentColor" stroke-linecap="round" stroke-linejoin="round"/>
<path d="M7.41525 2.7893L6.78467 0.979004" stroke="currentColor" stroke-linecap="round" stroke-linejoin="round"/>
<path d="M9.93481 10.0298L11.1116 13.4108" stroke="currentColor" stroke-linecap="round" stroke-linejoin="round"/>
<path d="M15.9856 19.8489C15.8962 19.9427 15.7887 20.0173 15.6696 20.0684C15.5505 20.1195 15.4223 20.1458 15.2927 20.146H2.91105C2.40272 20.146 1.91521 19.944 1.55576 19.5846C1.19632 19.2251 0.994385 18.7376 0.994385 18.2293C0.994385 17.721 1.19632 17.2334 1.55576 16.874C1.91521 16.5146 2.40272 16.3126 2.91105 16.3126H13.6607C13.7921 16.3126 13.9221 16.2855 14.0426 16.2331C14.1631 16.1806 14.2716 16.104 14.3612 16.0079L19.6483 11.3657C20.002 10.9895 20.4906 10.7693 21.0067 10.7534C21.2622 10.7455 21.5168 10.788 21.7559 10.8785C21.995 10.969 22.2139 11.1058 22.4002 11.2809C22.5865 11.456 22.7364 11.6661 22.8415 11.8992C22.9465 12.1322 23.0047 12.3837 23.0125 12.6392C23.0204 12.8948 22.9779 13.1494 22.8874 13.3885C22.7969 13.6276 22.6601 13.8465 22.485 14.0327L15.9856 19.8489Z" stroke="currentColor" stroke-linecap="round" stroke-linejoin="round"/>
<path d="M4.82788 23.021L6.72921 20.146" stroke="currentColor" stroke-linecap="round" stroke-linejoin="round"/>
<path d="M16.2875 23.021L14.3958 20.146" stroke="currentColor" stroke-linecap="round" stroke-linejoin="round"/>
</g>
<defs>
<clipPath id="clip0_12_80938">
<rect width="24" height="24" fill="white"/>
</clipPath>
</defs>
</svg>
