<svg width="24" height="24" viewBox="0 0 24 24" fill="none" xmlns="http://www.w3.org/2000/svg">
<g clip-path="url(#clip0_12_80823)">
<path d="M1.45312 22.5469L22.5469 5.20312" stroke="currentColor" stroke-linecap="round" stroke-linejoin="round"/>
<path d="M1.45312 12.7031L19.2656 22.5469" stroke="currentColor" stroke-linecap="round" stroke-linejoin="round"/>
<path d="M1.45302 12.7031C1.41116 14.7725 2.18908 16.7745 3.61719 18.2727C5.04529 19.7709 7.00777 20.6437 9.07677 20.7009C13.6105 20.7009 22.5468 12.0328 22.5468 5.20312" stroke="currentColor" stroke-linecap="round" stroke-linejoin="round"/>
<path d="M13.0454 3.5871C11.9869 1.51241 8.60442 1.11772 5.49098 2.70585C2.37754 4.29397 0.712543 7.26491 1.77192 9.3396L2.09161 9.96585L13.365 4.21897L13.0454 3.5871Z" stroke="currentColor" stroke-linecap="round" stroke-linejoin="round"/>
<path d="M9.93372 11.4122L7.72778 7.09033" stroke="currentColor" stroke-linecap="round" stroke-linejoin="round"/>
<path d="M4.85254 1.45312L5.49098 2.70563" stroke="currentColor" stroke-linecap="round" stroke-linejoin="round"/>
</g>
<defs>
<clipPath id="clip0_12_80823">
<rect width="24" height="24" fill="white"/>
</clipPath>
</defs>
</svg>
