<svg width="24" height="24" viewBox="0 0 24 24" fill="none" xmlns="http://www.w3.org/2000/svg">
<g clip-path="url(#clip0_12_81048)">
<path d="M19.2881 12.0498C13.6071 17.7498 10.143 21.2717 6.15625 22.6717" stroke="currentColor" stroke-miterlimit="10" stroke-linecap="round" stroke-linejoin="round"/>
<path d="M21.6801 2.25C19.6868 0.25 16.2981 0.25 14.3047 2.25L11.813 4.75L13.009 5.95C13.7067 6.65 14.803 6.65 15.5007 5.95L16.6967 4.75C17.3944 4.05 18.4908 4.05 19.1884 4.75C19.8861 5.45 19.8861 6.55 19.1884 7.25L17.9924 8.45C17.2947 9.15 17.2947 10.25 17.9924 10.95L19.1884 12.15L21.6801 9.65C23.7732 7.55 23.7732 4.25 21.6801 2.25Z" stroke="currentColor" stroke-miterlimit="10" stroke-linecap="round" stroke-linejoin="round"/>
<path d="M4.23837 23.25C2.3118 23.25 0.75 21.683 0.75 19.75C0.75 17.817 2.3118 16.25 4.23837 16.25C6.16495 16.25 7.72674 17.817 7.72674 19.75C7.72674 21.683 6.16495 23.25 4.23837 23.25Z" stroke="currentColor" stroke-miterlimit="10" stroke-linecap="round" stroke-linejoin="round"/>
<path d="M11.9127 4.6499C6.23166 10.3499 2.71566 13.8124 1.32031 17.8124" stroke="currentColor" stroke-miterlimit="10" stroke-linecap="round" stroke-linejoin="round"/>
</g>
<defs>
<clipPath id="clip0_12_81048">
<rect width="24" height="24" fill="white"/>
</clipPath>
</defs>
</svg>
