<svg width="24" height="24" viewBox="0 0 24 24" fill="none" xmlns="http://www.w3.org/2000/svg">
<path fill-rule="evenodd" clip-rule="evenodd" d="M8.39995 10.5H2.63995C2.24231 10.5 1.90289 10.6464 1.62172 10.9393C1.34054 11.2322 1.19995 11.5858 1.19995 12V18H8.39995V10.5Z" stroke="currentColor" stroke-linecap="round" stroke-linejoin="round"/>
<path fill-rule="evenodd" clip-rule="evenodd" d="M21.3601 12H15.6001V18H22.8001V13.5C22.8001 13.0858 22.6595 12.7322 22.3783 12.4393C22.0972 12.1464 21.7577 12 21.3601 12Z" stroke="currentColor" stroke-linecap="round" stroke-linejoin="round"/>
<path fill-rule="evenodd" clip-rule="evenodd" d="M14.1599 6H9.8399C9.44226 6 9.10285 6.14645 8.82167 6.43934C8.54049 6.73223 8.3999 7.08579 8.3999 7.5V18H15.5999V7.5C15.5999 7.08579 15.4593 6.73223 15.1781 6.43934C14.897 6.14645 14.5575 6 14.1599 6Z" stroke="currentColor" stroke-linecap="round" stroke-linejoin="round"/>
<path d="M4.79998 13.8752C4.55998 13.8752 4.43998 14.0002 4.43998 14.2502C4.43998 14.5002 4.55998 14.6252 4.79998 14.6252C5.03998 14.6252 5.15998 14.5002 5.15998 14.2502C5.15998 14.0002 5.03998 13.8752 4.79998 13.8752" stroke="currentColor" stroke-linecap="round" stroke-linejoin="round"/>
<path d="M19.1999 14.6252C18.9599 14.6252 18.8399 14.7502 18.8399 15.0002C18.8399 15.2502 18.9599 15.3752 19.1999 15.3752C19.4399 15.3752 19.5599 15.2502 19.5599 15.0002C19.5599 14.7502 19.4399 14.6252 19.1999 14.6252" stroke="currentColor" stroke-linecap="round" stroke-linejoin="round"/>
<path d="M11.9999 11.2502C11.7599 11.2502 11.6399 11.3752 11.6399 11.6252C11.6399 11.8752 11.7599 12.0002 11.9999 12.0002C12.2399 12.0002 12.3599 11.8752 12.3599 11.6252C12.3599 11.3752 12.2399 11.2502 11.9999 11.2502" stroke="currentColor" stroke-linecap="round" stroke-linejoin="round"/>
</svg>
