<svg width="24" height="24" viewBox="0 0 24 24" fill="none" xmlns="http://www.w3.org/2000/svg">
<g clip-path="url(#clip0_12_80868)">
<path d="M17.249 23.2539C20.5627 23.2539 23.249 20.5676 23.249 17.2539C23.249 13.9402 20.5627 11.2539 17.249 11.2539C13.9353 11.2539 11.249 13.9402 11.249 17.2539C11.249 20.5676 13.9353 23.2539 17.249 23.2539Z" stroke="currentColor" stroke-linecap="round" stroke-linejoin="round"/>
<path d="M19.499 15.0029L14.999 19.5029" stroke="currentColor" stroke-linecap="round" stroke-linejoin="round"/>
<path d="M14.999 15.0029L19.499 19.5029" stroke="currentColor" stroke-linecap="round" stroke-linejoin="round"/>
<path d="M8.24805 19.0352H5.24805C4.85022 19.0352 4.46869 18.8771 4.18739 18.5958C3.90608 18.3145 3.74805 17.933 3.74805 17.5352V10.0352" stroke="currentColor" stroke-linecap="round" stroke-linejoin="round"/>
<path d="M0.748047 8.53499L9.52905 1.10499C9.79989 0.87578 10.1432 0.75 10.498 0.75C10.8529 0.75 11.1962 0.87578 11.467 1.10499L18.752 7.26899" stroke="currentColor" stroke-linecap="round" stroke-linejoin="round"/>
<path d="M15.748 1.03516H18.748V4.03516" stroke="currentColor" stroke-linecap="round" stroke-linejoin="round"/>
</g>
<defs>
<clipPath id="clip0_12_80868">
<rect width="24" height="24" fill="white"/>
</clipPath>
</defs>
</svg>
