<svg width="24" height="24" viewBox="0 0 24 24" fill="none" xmlns="http://www.w3.org/2000/svg">
<g clip-path="url(#clip0_12_80881)">
<path d="M3.95581 11.437L11.1722 4.21448C11.2791 4.10822 11.4059 4.02406 11.5453 3.96682C11.6848 3.90958 11.8341 3.88037 11.9849 3.88087C12.1356 3.88136 12.2847 3.91156 12.4238 3.96972C12.5628 4.02788 12.6891 4.11287 12.7953 4.21984L20.0178 11.437" stroke="currentColor" stroke-linecap="round" stroke-linejoin="round"/>
<path d="M17.7233 9.14396V18.3207H6.25049V9.14014" stroke="currentColor" stroke-linecap="round" stroke-linejoin="round"/>
<path d="M14.2815 18.3205V14.8786C14.2815 14.27 14.0398 13.6864 13.6095 13.2561C13.1791 12.8258 12.5955 12.584 11.987 12.584C11.3784 12.584 10.7948 12.8258 10.3644 13.2561C9.93413 13.6864 9.69238 14.27 9.69238 14.8786V18.3205" stroke="currentColor" stroke-linecap="round" stroke-linejoin="round"/>
<path d="M1.09157 6.02593L0.914795 3.37428L3.56645 3.55106L3.38967 0.899414L6.04132 1.07619" stroke="currentColor" stroke-linecap="round" stroke-linejoin="round"/>
<path d="M17.9587 1.07619L20.6104 0.899414L20.4336 3.55106L23.0853 3.37428L22.9085 6.02593" stroke="currentColor" stroke-linecap="round" stroke-linejoin="round"/>
<path d="M1.09157 17.9741L0.914795 20.6258L3.56645 20.449L3.38967 23.1007L6.04132 22.9239" stroke="currentColor" stroke-linecap="round" stroke-linejoin="round"/>
<path d="M17.9587 22.9243L20.6104 23.1011L20.4336 20.4494L23.0853 20.6262L22.9085 17.9746" stroke="currentColor" stroke-linecap="round" stroke-linejoin="round"/>
</g>
<defs>
<clipPath id="clip0_12_80881">
<rect width="24" height="24" fill="white"/>
</clipPath>
</defs>
</svg>
