<svg width="24" height="24" viewBox="0 0 24 24" fill="none" xmlns="http://www.w3.org/2000/svg">
<path d="M9.34766 13.1561L14.6517 7.85205" stroke="currentColor" stroke-linecap="round" stroke-linejoin="round"/>
<path d="M9.34766 7.85205L14.6517 13.1561" stroke="currentColor" stroke-linecap="round" stroke-linejoin="round"/>
<path d="M21 9.75391C21 17.6539 14.068 22.0849 12.371 23.0539C12.2579 23.1185 12.1298 23.1525 11.9995 23.1525C11.8692 23.1525 11.7411 23.1185 11.628 23.0539C9.931 22.0839 3 17.6519 3 9.75391C3 7.36696 3.94821 5.07777 5.63604 3.38995C7.32387 1.70212 9.61305 0.753906 12 0.753906C14.3869 0.753906 16.6761 1.70212 18.364 3.38995C20.0518 5.07777 21 7.36696 21 9.75391Z" stroke="currentColor" stroke-linecap="round" stroke-linejoin="round"/>
</svg>
