<svg width="24" height="24" viewBox="0 0 24 24" fill="none" xmlns="http://www.w3.org/2000/svg">
<g clip-path="url(#clip0_12_80897)">
<path d="M15.5 20.75C18.3995 20.75 20.75 18.3995 20.75 15.5C20.75 12.6005 18.3995 10.25 15.5 10.25C12.6005 10.25 10.25 12.6005 10.25 15.5C10.25 18.3995 12.6005 20.75 15.5 20.75Z" stroke="currentColor" stroke-linecap="round" stroke-linejoin="round"/>
<path d="M13.8999 17.0999L17.0999 13.8999" stroke="currentColor" stroke-linecap="round" stroke-linejoin="round"/>
<path d="M13.8999 13.8999L17.0999 17.0999" stroke="currentColor" stroke-linecap="round" stroke-linejoin="round"/>
<path d="M23.0001 22.9998L19.2361 19.2358" stroke="currentColor" stroke-linecap="round" stroke-linejoin="round"/>
<path d="M8.75 20H5.75C5.35218 20 4.97064 19.842 4.68934 19.5607C4.40804 19.2794 4.25 18.8978 4.25 18.5V11" stroke="currentColor" stroke-linecap="round" stroke-linejoin="round"/>
<path d="M1.25 9.5L11 1.25L20.75 9.5" stroke="currentColor" stroke-linecap="round" stroke-linejoin="round"/>
<path d="M16.25 2H19.25V5" stroke="currentColor" stroke-linecap="round" stroke-linejoin="round"/>
</g>
<defs>
<clipPath id="clip0_12_80897">
<rect width="24" height="24" fill="white"/>
</clipPath>
</defs>
</svg>
