<svg width="24" height="24" viewBox="0 0 24 24" fill="none" xmlns="http://www.w3.org/2000/svg">
<path d="M16.3201 13.9005C16.3201 13.9005 16.9086 12.0764 21.9495 11.8844C22.1566 11.8647 22.363 11.9285 22.5227 12.0618C22.6825 12.195 22.7823 12.3866 22.8001 12.5938V20.0822C22.7611 20.4947 22.4047 20.8038 21.9908 20.784C16.9172 20.9635 16.3201 22.8001 16.3201 22.8001V13.9005C16.3201 13.9005 15.7316 12.0764 10.6906 11.8844C10.4836 11.8647 10.2772 11.9285 10.1175 12.0618C9.95772 12.195 9.85785 12.3866 9.84009 12.5938V20.0822C9.8791 20.4947 10.2355 20.8038 10.6494 20.784C15.723 20.9635 16.3201 22.8001 16.3201 22.8001" stroke="currentColor" stroke-linecap="round" stroke-linejoin="round"/>
<path d="M6.95995 21.3608H3.82363C3.12788 21.3611 2.46053 21.0849 1.96847 20.593C1.4764 20.1011 1.19995 19.4338 1.19995 18.738V3.82375C1.19995 2.37467 2.37461 1.19995 3.82363 1.19995H9.83995C11.4305 1.19995 12.72 2.48943 12.72 4.08008V9.11934" stroke="currentColor" stroke-linecap="round" stroke-linejoin="round"/>
<path d="M1.19995 17.0407H6.95995" stroke="currentColor" stroke-linecap="round" stroke-linejoin="round"/>
</svg>
