<svg width="24" height="24" viewBox="0 0 24 24" fill="none" xmlns="http://www.w3.org/2000/svg">
<path d="M8.35303 0.75L12.755 3.685L8.84203 7.109" stroke="currentColor" stroke-linecap="round" stroke-linejoin="round"/>
<path d="M20.0659 18.6751C19.1602 20.1156 17.8944 21.2951 16.3936 22.0969C14.8927 22.8987 13.2086 23.2952 11.5077 23.2472C9.80673 23.1991 8.14772 22.7083 6.69447 21.8231C5.24122 20.9379 4.044 19.6889 3.22102 18.1995C2.39803 16.7102 1.97776 15.0319 2.0017 13.3304C2.02564 11.629 2.49296 9.96319 3.35751 8.49756C4.22207 7.03192 5.45396 5.81714 6.93153 4.97316C8.40911 4.12919 10.0813 3.6852 11.7829 3.68506H12.7549" stroke="currentColor" stroke-linecap="round" stroke-linejoin="round"/>
<path d="M21.5651 13.4668C21.5657 14.2922 21.4622 15.1143 21.2571 15.9138" stroke="currentColor" stroke-linecap="round" stroke-linejoin="round"/>
<path d="M20.0649 8.25977C20.5125 8.96956 20.8664 9.73423 21.1179 10.5348" stroke="currentColor" stroke-linecap="round" stroke-linejoin="round"/>
<path d="M16.3101 4.79297C16.9653 5.13571 17.5796 5.55171 18.1411 6.03297" stroke="currentColor" stroke-linecap="round" stroke-linejoin="round"/>
<path d="M14.8149 15.75V18C14.8149 18.1989 14.7359 18.3897 14.5953 18.5303C14.4546 18.671 14.2639 18.75 14.0649 18.75H9.56494C9.36603 18.75 9.17526 18.671 9.03461 18.5303C8.89396 18.3897 8.81494 18.1989 8.81494 18V15.75" stroke="currentColor" stroke-linecap="round" stroke-linejoin="round"/>
<path d="M7.31494 13.5L11.8149 9.75L16.3149 13.5" stroke="currentColor" stroke-linecap="round" stroke-linejoin="round"/>
</svg>
