<svg width="24" height="24" viewBox="0 0 24 24" fill="none" xmlns="http://www.w3.org/2000/svg">
<path d="M8.9375 21.6143H22.5399" stroke="currentColor" stroke-linecap="round" stroke-linejoin="round"/>
<path d="M2.9221 9.70199C1.71049 8.66616 1.17868 8.0331 1.02089 6.51275C0.871352 5.07184 1.5396 3.58613 2.54429 2.82719C3.94146 1.77177 5.60054 2.76476 6.52829 4.16469C7.53367 5.68175 8.40303 10.0674 8.46954 11.9482C8.54506 14.0837 8.19777 16.0238 7.30417 17.88C6.69127 19.153 5.78567 20.6538 4.58031 21.1621C3.48797 21.6228 2.30094 21.4511 2.08109 19.8925C1.81163 17.9823 2.5541 16.1212 3.3658 14.5425C4.442 12.4494 5.80107 10.7164 7.68326 9.70199C14.9412 5.79033 10.6554 18.3858 13.0625 18.3858C15.4696 18.3858 15.625 12.1982 17.3125 13.1873C19 14.1764 15.7738 20.3193 21.8125 16.4373" stroke="currentColor" stroke-linecap="round" stroke-linejoin="round"/>
</svg>
