<svg width="24" height="24" viewBox="0 0 24 24" fill="none" xmlns="http://www.w3.org/2000/svg">
<path d="M3.48668 12.7692L3.91676 11.6411L2.91259 9.00671C2.76406 8.61524 2.90782 8.17314 3.25819 7.94393L5.61789 6.40304L6.35422 3.68225C6.46382 3.27798 6.84022 3.00466 7.25855 3.02558L10.0733 3.16863L12.2679 1.39733C12.5942 1.13416 13.0599 1.13416 13.3863 1.39733L15.5809 3.16863L18.3956 3.02846C18.8139 3.00754 19.1903 3.28086 19.2999 3.68513L20.0362 6.40592L22.3959 7.94681C22.7466 8.17579 22.8905 8.61813 22.7415 9.00959L21.7383 11.644L22.7415 14.2774C22.8906 14.6691 22.7468 15.1118 22.3959 15.3411L20.0362 16.8772L19.2961 19.599C19.1872 20.0038 18.8105 20.2778 18.3918 20.2566L15.577 20.1164L13.3824 21.8839" stroke="currentColor" stroke-linecap="round" stroke-linejoin="round"/>
<path d="M1.19995 19.4597L2.78972 21.9645" stroke="currentColor" stroke-linecap="round" stroke-linejoin="round"/>
<path d="M9.9917 8.302L16.034 17.8219" stroke="currentColor" stroke-linecap="round" stroke-linejoin="round"/>
<path fill-rule="evenodd" clip-rule="evenodd" d="M15.7163 17.3208L2.47207 21.4644L1.51782 19.961L10.3096 8.80322L15.7163 17.3208Z" stroke="currentColor" stroke-linecap="round" stroke-linejoin="round"/>
<path d="M5.33374 20.5686L6.17471 21.8608C6.45574 22.3216 6.91438 22.646 7.4424 22.7576C7.97043 22.8692 8.5211 22.758 8.96449 22.4503C9.89557 21.7802 10.1427 20.5003 9.52801 19.5317L9.37153 19.3052" stroke="currentColor" stroke-linecap="round" stroke-linejoin="round"/>
</svg>
