<svg width="24" height="24" viewBox="0 0 24 24" fill="none" xmlns="http://www.w3.org/2000/svg">
<g clip-path="url(#clip0_12_79265)">
<path d="M12 15.751V23.251" stroke="currentColor" stroke-linecap="round" stroke-linejoin="round"/>
<path d="M4.5 23.251H19.5" stroke="currentColor" stroke-linecap="round" stroke-linejoin="round"/>
<path d="M1.125 23.25C0.917893 23.25 0.75 23.0821 0.75 22.875C0.75 22.6679 0.917893 22.5 1.125 22.5" stroke="currentColor"/>
<path d="M1.125 23.25C1.33211 23.25 1.5 23.0821 1.5 22.875C1.5 22.6679 1.33211 22.5 1.125 22.5" stroke="currentColor"/>
<path d="M22.875 23.25C22.6679 23.25 22.5 23.0821 22.5 22.875C22.5 22.6679 22.6679 22.5 22.875 22.5" stroke="currentColor"/>
<path d="M22.875 23.25C23.0821 23.25 23.25 23.0821 23.25 22.875C23.25 22.6679 23.0821 22.5 22.875 22.5" stroke="currentColor"/>
<path d="M12 6.75098C15.7279 6.75098 18.75 5.40783 18.75 3.75098C18.75 2.09412 15.7279 0.750977 12 0.750977C8.27208 0.750977 5.25 2.09412 5.25 3.75098C5.25 5.40783 8.27208 6.75098 12 6.75098Z" stroke="currentColor" stroke-linecap="round" stroke-linejoin="round"/>
<path d="M5.25 3.75098V8.25098C5.25 9.90798 8.272 11.251 12 11.251C15.728 11.251 18.75 9.90798 18.75 8.25098V3.75098" stroke="currentColor" stroke-linecap="round" stroke-linejoin="round"/>
<path d="M5.25 8.25098V12.751C5.25 14.408 8.272 15.751 12 15.751C15.728 15.751 18.75 14.408 18.75 12.751V8.25098" stroke="currentColor" stroke-linecap="round" stroke-linejoin="round"/>
</g>
<defs>
<clipPath id="clip0_12_79265">
<rect width="24" height="24" fill="white"/>
</clipPath>
</defs>
</svg>
