<svg width="24" height="24" viewBox="0 0 24 24" fill="none" xmlns="http://www.w3.org/2000/svg">
<g clip-path="url(#clip0_12_80402)">
<path d="M17.25 23.25C20.5637 23.25 23.25 20.5637 23.25 17.25C23.25 13.9363 20.5637 11.25 17.25 11.25C13.9363 11.25 11.25 13.9363 11.25 17.25C11.25 20.5637 13.9363 23.25 17.25 23.25Z" stroke="currentColor" stroke-linecap="round" stroke-linejoin="round"/>
<path d="M17.25 20.25V17.25" stroke="currentColor" stroke-linecap="round" stroke-linejoin="round"/>
<path d="M17.25 15C17.0429 15 16.875 14.8321 16.875 14.625C16.875 14.4179 17.0429 14.25 17.25 14.25" stroke="currentColor"/>
<path d="M17.25 15C17.4571 15 17.625 14.8321 17.625 14.625C17.625 14.4179 17.4571 14.25 17.25 14.25" stroke="currentColor"/>
<path d="M8.25 17.25H2.25C1.85218 17.25 1.47064 17.092 1.18934 16.8107C0.908035 16.5294 0.75 16.1478 0.75 15.75V3.76501C0.75 3.36718 0.908035 2.98565 1.18934 2.70435C1.47064 2.42304 1.85218 2.26501 2.25 2.26501H15.75C16.1478 2.26501 16.5294 2.42304 16.8107 2.70435C17.092 2.98565 17.25 3.36718 17.25 3.76501V8.25001" stroke="currentColor" stroke-linecap="round" stroke-linejoin="round"/>
<path d="M0.75 6.75H17.25" stroke="currentColor" stroke-linejoin="round"/>
<path d="M5.24292 3.75V0.75" stroke="currentColor" stroke-linecap="round" stroke-linejoin="round"/>
<path d="M12.7429 3.75V0.75" stroke="currentColor" stroke-linecap="round" stroke-linejoin="round"/>
</g>
<defs>
<clipPath id="clip0_12_80402">
<rect width="24" height="24" fill="white"/>
</clipPath>
</defs>
</svg>
