<svg width="24" height="24" viewBox="0 0 24 24" fill="none" xmlns="http://www.w3.org/2000/svg">
<path d="M10.8939 4.80474L4.87677 1.32908C4.41763 1.06387 3.83045 1.22108 3.56524 1.6802L1.64109 5.01133C1.37588 5.47045 1.53309 6.05763 1.99222 6.32285L8.00934 9.79851C8.46847 10.0637 9.05566 9.90652 9.32086 9.44739L11.245 6.11627C11.5102 5.65714 11.353 5.06996 10.8939 4.80474Z" stroke="currentColor" stroke-linecap="round" stroke-linejoin="round"/>
<path d="M16.5285 13.7108L22.2002 9.26106C22.6175 8.93378 22.6902 8.3303 22.363 7.91314L19.9885 4.88653C19.6612 4.46938 19.0577 4.39652 18.6406 4.7238L12.9688 9.17359C12.5517 9.50087 12.4788 10.1043 12.8061 10.5215L15.1806 13.5481C15.5078 13.9653 16.1113 14.0381 16.5285 13.7108Z" stroke="currentColor" stroke-linecap="round" stroke-linejoin="round"/>
<path d="M11.9619 19.9202V1.375" stroke="currentColor" stroke-linecap="round" stroke-linejoin="round"/>
<path d="M17.4294 9.61798C17.2305 9.61798 17.0693 9.4568 17.0693 9.25797C17.0693 9.05914 17.2305 8.89795 17.4294 8.89795" stroke="currentColor"/>
<path d="M17.4294 9.61798C17.6283 9.61798 17.7895 9.4568 17.7895 9.25797C17.7895 9.05914 17.6283 8.89795 17.4294 8.89795" stroke="currentColor"/>
<path d="M6.37637 5.77326C6.17755 5.77326 6.01636 5.61207 6.01636 5.41324C6.01636 5.2144 6.17755 5.05322 6.37637 5.05322" stroke="currentColor"/>
<path d="M6.37646 5.77326C6.5753 5.77326 6.73648 5.61207 6.73648 5.41324C6.73648 5.2144 6.5753 5.05322 6.37646 5.05322" stroke="currentColor"/>
<path d="M9.08169 22.8006L8.32325 20.5531C8.29902 20.4808 8.29234 20.4038 8.30376 20.3285C8.31518 20.2532 8.34438 20.1815 8.38895 20.1197C8.43351 20.0579 8.49216 20.0076 8.56004 19.9729C8.62791 19.9383 8.70307 19.9202 8.77928 19.9204H15.1347C15.211 19.9202 15.2861 19.9383 15.354 19.9729C15.4219 20.0076 15.4806 20.0579 15.5251 20.1197C15.5696 20.1815 15.5988 20.2532 15.6103 20.3285C15.6217 20.4038 15.6151 20.4808 15.5908 20.5531L14.8419 22.8006" stroke="currentColor" stroke-linecap="round" stroke-linejoin="round"/>
<path d="M11.4986 13.891L7.03025 12.1373C6.78347 12.0405 6.5049 12.162 6.40804 12.4087L5.44347 14.8664C5.34661 15.1132 5.46815 15.3917 5.71493 15.4886L10.1833 17.2424C10.4301 17.3392 10.7087 17.2177 10.8056 16.9709L11.7701 14.5132C11.867 14.2665 11.7454 13.9879 11.4986 13.891Z" stroke="currentColor" stroke-linecap="round" stroke-linejoin="round"/>
</svg>
