<svg width="24" height="24" viewBox="0 0 24 24" fill="none" xmlns="http://www.w3.org/2000/svg">
<path d="M12 0.5C18.3513 0.5 23.5 5.64873 23.5 12C23.5 18.3513 18.3513 23.5 12 23.5C5.64873 23.5 0.5 18.3513 0.5 12C0.5 5.64873 5.64873 0.5 12 0.5Z" stroke="currentColor" stroke-linecap="round" stroke-linejoin="round"/>
<path d="M6.24008 14.2799C6.04125 14.2799 5.88008 14.1188 5.88008 13.9199C5.88008 13.7211 6.04125 13.5599 6.24008 13.5599" stroke="currentColor"/>
<path d="M6.23994 14.2799C6.43877 14.2799 6.59994 14.1188 6.59994 13.9199C6.59994 13.7211 6.43877 13.5599 6.23994 13.5599" stroke="currentColor"/>
<path d="M14.8799 13.9201L19.1999 9.6001" stroke="currentColor" stroke-linecap="round" stroke-linejoin="round"/>
<path d="M8.15991 12.0001L10.5599 9.6001L12.9599 12.0001" stroke="currentColor" stroke-linecap="round" stroke-linejoin="round"/>
</svg>
