<svg width="24" height="24" viewBox="0 0 24 24" fill="none" xmlns="http://www.w3.org/2000/svg">
<path fill-rule="evenodd" clip-rule="evenodd" d="M9.12012 5.35375C9.12012 6.98511 10.4095 8.30759 12.0001 8.30759C13.5907 8.30759 14.8801 6.98511 14.8801 5.35375C14.8801 3.72238 13.5907 2.3999 12.0001 2.3999C10.4095 2.3999 9.12012 3.72238 9.12012 5.35375Z" stroke="currentColor" stroke-linecap="round" stroke-linejoin="round"/>
<path fill-rule="evenodd" clip-rule="evenodd" d="M1.19995 18.6462C1.19995 20.2776 2.48937 21.6001 4.07995 21.6001C5.67053 21.6001 6.95995 20.2776 6.95995 18.6462C6.95995 17.0149 5.67053 15.6924 4.07995 15.6924C2.48937 15.6924 1.19995 17.0149 1.19995 18.6462Z" stroke="currentColor" stroke-linecap="round" stroke-linejoin="round"/>
<path fill-rule="evenodd" clip-rule="evenodd" d="M17.04 18.6462C17.04 20.2776 18.3295 21.6001 19.92 21.6001C21.5106 21.6001 22.8 20.2776 22.8 18.6462C22.8 17.0149 21.5106 15.6924 19.92 15.6924C18.3295 15.6924 17.04 17.0149 17.04 18.6462Z" stroke="currentColor" stroke-linecap="round" stroke-linejoin="round"/>
<path d="M6.95996 18.6461H17.04" stroke="currentColor" stroke-linecap="round" stroke-linejoin="round"/>
<path d="M13.5925 7.81543L18.6632 15.9877" stroke="currentColor" stroke-linecap="round" stroke-linejoin="round"/>
<path d="M10.4074 7.81543L5.33667 15.9877" stroke="currentColor" stroke-linecap="round" stroke-linejoin="round"/>
</svg>
