<svg width="24" height="24" viewBox="0 0 24 24" fill="none" xmlns="http://www.w3.org/2000/svg">
<g clip-path="url(#clip0_12_79408)">
<path d="M21.4282 15.7371H15.4282C14.4814 15.7371 13.7139 16.5046 13.7139 17.4513V21.4285C13.7139 22.3753 14.4814 23.1428 15.4282 23.1428H21.4282C22.3749 23.1428 23.1424 22.3753 23.1424 21.4285V17.4513C23.1424 16.5046 22.3749 15.7371 21.4282 15.7371Z" stroke="currentColor" stroke-linecap="round" stroke-linejoin="round"/>
<path d="M21.7886 15.7714V14.28C21.6312 13.5049 21.2107 12.8081 20.5984 12.3076C19.986 11.8071 19.2195 11.5337 18.4286 11.5337C17.6377 11.5337 16.8712 11.8071 16.2588 12.3076C15.6465 12.8081 15.226 13.5049 15.0686 14.28V15.7714" stroke="currentColor" stroke-linecap="round" stroke-linejoin="round"/>
<path d="M9.42885 12.8572H2.57171C2.11705 12.8572 1.68102 12.6766 1.35952 12.3551C1.03803 12.0336 0.857422 11.5975 0.857422 11.1429V2.57146C0.857422 2.11681 1.03803 1.68077 1.35952 1.35928C1.68102 1.03779 2.11705 0.857178 2.57171 0.857178H18.0003C18.4549 0.857178 18.891 1.03779 19.2125 1.35928C19.534 1.68077 19.7146 2.11681 19.7146 2.57146V6.00003" stroke="currentColor" stroke-linecap="round" stroke-linejoin="round"/>
<path d="M6.85714 7.71429C7.33053 7.71429 7.71429 7.33053 7.71429 6.85714C7.71429 6.38376 7.33053 6 6.85714 6C6.38376 6 6 6.38376 6 6.85714C6 7.33053 6.38376 7.71429 6.85714 7.71429Z" fill="currentColor" stroke="currentColor" stroke-linecap="round" stroke-linejoin="round"/>
<path d="M13.7146 7.71429C14.188 7.71429 14.5717 7.33053 14.5717 6.85714C14.5717 6.38376 14.188 6 13.7146 6C13.2412 6 12.8574 6.38376 12.8574 6.85714C12.8574 7.33053 13.2412 7.71429 13.7146 7.71429Z" fill="currentColor" stroke="currentColor" stroke-linecap="round" stroke-linejoin="round"/>
</g>
<defs>
<clipPath id="clip0_12_79408">
<rect width="24" height="24" fill="white"/>
</clipPath>
</defs>
</svg>
