<svg width="24" height="24" viewBox="0 0 24 24" fill="none" xmlns="http://www.w3.org/2000/svg">
<ellipse cx="6.95995" cy="4.0802" rx="5.76" ry="2.88" stroke="currentColor" stroke-linecap="round" stroke-linejoin="round"/>
<path d="M12.72 7.92008V4.08008" stroke="currentColor" stroke-linecap="round" stroke-linejoin="round"/>
<path d="M1.19995 4.08008V18.4801C1.19995 20.0737 3.78235 21.3601 6.95995 21.3601C7.50286 21.362 8.04516 21.3235 8.58235 21.2449" stroke="currentColor" stroke-linecap="round" stroke-linejoin="round"/>
<path d="M1.19995 14.8799C1.19995 16.4735 3.78235 17.7599 6.95995 17.7599C7.51584 17.7584 8.07089 17.7167 8.62075 17.6351" stroke="currentColor" stroke-linecap="round" stroke-linejoin="round"/>
<path d="M1.19995 11.2798C1.19995 12.8734 3.78235 14.1598 6.95995 14.1598C7.50286 14.1617 8.04516 14.1232 8.58235 14.0446" stroke="currentColor" stroke-linecap="round" stroke-linejoin="round"/>
<path d="M1.19995 7.68018C1.19995 9.27378 3.78235 10.5602 6.95995 10.5602C7.51584 10.5587 8.07089 10.517 8.62075 10.4354" stroke="currentColor" stroke-linecap="round" stroke-linejoin="round"/>
<ellipse cx="17.04" cy="12.9601" rx="5.76" ry="2.88" stroke="currentColor" stroke-linecap="round" stroke-linejoin="round"/>
<path d="M11.28 12.96V19.92C11.28 21.5136 13.8624 22.8 17.04 22.8C20.2176 22.8 22.8 21.5136 22.8 19.92V12.96" stroke="currentColor" stroke-linecap="round" stroke-linejoin="round"/>
<path d="M22.8 16.3198C22.8 17.9134 20.2176 19.1998 17.04 19.1998C13.8624 19.1998 11.28 17.9134 11.28 16.3198" stroke="currentColor" stroke-linecap="round" stroke-linejoin="round"/>
</svg>
