<svg width="24" height="24" viewBox="0 0 24 24" fill="none" xmlns="http://www.w3.org/2000/svg">
<path d="M4.28563 13.7142L1.23421 18.0857C1.09656 18.3537 1.03201 18.6533 1.04706 18.9543C1.06211 19.2553 1.15622 19.5469 1.31992 19.7999C1.47433 20.047 1.68915 20.2506 1.9441 20.3916C2.19905 20.5326 2.48573 20.6062 2.77706 20.6057H21.2228C21.5141 20.6062 21.8008 20.5326 22.0557 20.3916C22.3107 20.2506 22.5255 20.047 22.6799 19.7999C22.8304 19.5393 22.9096 19.2437 22.9096 18.9428C22.9096 18.6419 22.8304 18.3463 22.6799 18.0857L19.7142 13.7142" stroke="currentColor" stroke-linecap="round" stroke-linejoin="round"/>
<path d="M6.00042 3.42847C5.54576 3.42847 5.10973 3.60908 4.78824 3.93057C4.46674 4.25206 4.28613 4.6881 4.28613 5.14275V13.7142H19.7147V5.14275C19.7147 4.6881 19.5341 4.25206 19.2126 3.93057C18.8911 3.60908 18.4551 3.42847 18.0004 3.42847H6.00042Z" stroke="currentColor" stroke-linecap="round" stroke-linejoin="round"/>
</svg>
