<svg width="24" height="24" viewBox="0 0 24 24" fill="none" xmlns="http://www.w3.org/2000/svg">
<g clip-path="url(#clip0_12_80485)">
<path d="M13.033 1.00893C13.2724 1.03585 13.5138 1.0695 13.7474 1.11181" stroke="currentColor" stroke-linecap="round" stroke-linejoin="round"/>
<path d="M17.7205 2.73401L18.3109 3.14845" stroke="currentColor" stroke-linecap="round" stroke-linejoin="round"/>
<path d="M21.1985 6.32461C21.3197 6.5323 21.4332 6.74481 21.5409 6.9602" stroke="currentColor" stroke-linecap="round" stroke-linejoin="round"/>
<path d="M8.91073 22.1685C8.67735 22.1108 8.44826 22.0369 8.22514 21.9473" stroke="currentColor" stroke-linecap="round" stroke-linejoin="round"/>
<path d="M4.5693 19.7029L4.05486 19.1991" stroke="currentColor" stroke-linecap="round" stroke-linejoin="round"/>
<path d="M1.72603 15.5951C1.64013 15.3688 1.56224 15.1409 1.49237 14.9114" stroke="currentColor" stroke-linecap="round" stroke-linejoin="round"/>
<ellipse cx="16.8926" cy="16.8104" rx="5.76936" ry="5.76936" stroke="currentColor" stroke-linecap="round" stroke-linejoin="round"/>
<path d="M19.4638 15.1323L16.6705 18.8574C16.5448 19.0245 16.3529 19.129 16.1443 19.1438C15.9357 19.1585 15.7309 19.0821 15.583 18.9343L14.1406 17.492" stroke="currentColor" stroke-linecap="round" stroke-linejoin="round"/>
<ellipse cx="6.76936" cy="6.71418" rx="5.76936" ry="5.76936" stroke="currentColor" stroke-linecap="round" stroke-linejoin="round"/>
</g>
<defs>
<clipPath id="clip0_12_80485">
<rect width="24" height="24" fill="white"/>
</clipPath>
</defs>
</svg>
