<svg width="24" height="24" viewBox="0 0 24 24" fill="none" xmlns="http://www.w3.org/2000/svg">
<path fill-rule="evenodd" clip-rule="evenodd" d="M6.32722 11.2798H17.6727C17.9548 11.2798 18.2261 11.3346 18.4867 11.4442C18.7474 11.5538 18.9774 11.7099 19.1769 11.9124C19.3764 12.115 19.5301 12.3486 19.638 12.6132C19.746 12.8778 19.7999 13.1534 19.8 13.4398V20.6398C19.7999 20.9262 19.746 21.2017 19.638 21.4664C19.5301 21.731 19.3764 21.9646 19.1769 22.1671C18.9774 22.3697 18.7474 22.5257 18.4867 22.6354C18.2261 22.745 17.9548 22.7998 17.6727 22.7998H6.32722C6.04513 22.7998 5.77377 22.745 5.51315 22.6354C5.25253 22.5257 5.02249 22.3697 4.82301 22.1671C4.62354 21.9646 4.46983 21.731 4.36188 21.4664C4.25393 21.2017 4.19995 20.9262 4.19995 20.6398V13.4398C4.19995 13.1534 4.25393 12.8778 4.36188 12.6132C4.46983 12.3486 4.62354 12.115 4.82301 11.9124C5.02249 11.7099 5.25253 11.5538 5.51315 11.4442C5.77377 11.3346 6.04513 11.2798 6.32722 11.2798Z" stroke="currentColor" stroke-linecap="round" stroke-linejoin="round"/>
<path d="M7.03638 11.2802V6.2402C7.03638 5.57185 7.16232 4.92894 7.41421 4.31147C7.6661 3.694 8.02476 3.14897 8.49019 2.67638C8.95562 2.20379 9.4924 1.83961 10.1005 1.58384C10.7086 1.32808 11.3418 1.2002 12 1.2002C12.6582 1.2002 13.2914 1.32808 13.8995 1.58384C14.5076 1.83961 15.0444 2.20379 15.5098 2.67638C15.9753 3.14897 16.3339 3.694 16.5858 4.31147C16.8377 4.92894 16.9636 5.57185 16.9636 6.2402V11.2802" stroke="currentColor" stroke-linecap="round" stroke-linejoin="round"/>
<path d="M4.19995 17.04H19.8" stroke="currentColor" stroke-linecap="round" stroke-linejoin="round"/>
<path d="M7.74538 13.8001C7.98174 13.8001 8.09992 13.9201 8.09992 14.1601C8.09992 14.4001 7.98174 14.5201 7.74538 14.5201C7.50901 14.5201 7.39083 14.4001 7.39083 14.1601C7.39083 13.9201 7.50901 13.8001 7.74538 13.8001" stroke="currentColor" stroke-linecap="round" stroke-linejoin="round"/>
<path d="M7.74538 19.5599C7.98174 19.5599 8.09992 19.6799 8.09992 19.9199C8.09992 20.1599 7.98174 20.2799 7.74538 20.2799C7.50901 20.2799 7.39083 20.1599 7.39083 19.9199C7.39083 19.6799 7.50901 19.5599 7.74538 19.5599" stroke="currentColor" stroke-linecap="round" stroke-linejoin="round"/>
</svg>
