<svg width="24" height="24" viewBox="0 0 24 24" fill="none" xmlns="http://www.w3.org/2000/svg">
<path d="M1.19995 17.0413C1.20143 14.8652 2.29446 12.8349 4.11018 11.6356C5.92591 10.4364 8.22212 10.2281 10.224 11.0811" stroke="currentColor" stroke-linecap="round" stroke-linejoin="round"/>
<path fill-rule="evenodd" clip-rule="evenodd" d="M3.71948 5.1603C3.71948 7.34755 5.49243 9.12066 7.67948 9.12066C9.86653 9.12066 11.6395 7.34755 11.6395 5.1603C11.6395 2.97306 9.86653 1.19995 7.67948 1.19995C5.49243 1.19995 3.71948 2.97306 3.71948 5.1603H3.71948Z" stroke="currentColor" stroke-linecap="round" stroke-linejoin="round"/>
<path fill-rule="evenodd" clip-rule="evenodd" d="M11.2805 17.0396C11.2805 20.221 13.8594 22.8001 17.0405 22.8001C20.2217 22.8001 22.8005 20.221 22.8005 17.0396C22.8005 13.8581 20.2217 11.2791 17.0405 11.2791C13.8594 11.2791 11.2805 13.8581 11.2805 17.0396Z" stroke="currentColor" stroke-linecap="round" stroke-linejoin="round"/>
<path d="M19.2004 14.8784L14.8804 19.1988" stroke="currentColor" stroke-linecap="round" stroke-linejoin="round"/>
<path d="M14.8804 14.8784L19.2004 19.1988" stroke="currentColor" stroke-linecap="round" stroke-linejoin="round"/>
</svg>
