<svg width="24" height="24" viewBox="0 0 24 24" fill="none" xmlns="http://www.w3.org/2000/svg">
<path d="M4.90067 13.274H2.5C1.67157 13.274 1 12.6024 1 11.774L1 2.5C1 1.67157 1.67157 1 2.5 1H6.18886C7.01729 1 7.68886 1.67157 7.68886 2.5V12.5909C7.68886 12.8359 7.74885 13.0771 7.8636 13.2936L12.5871 22.2026C12.8472 22.6932 13.3571 23 13.9124 23L14.4775 23C15.4273 23 16.1379 22.1285 15.9469 21.1982L14.6894 15.0758C14.4983 14.1454 15.209 13.274 16.1587 13.274H21.2324C22.1582 13.274 22.863 12.4434 22.7124 11.5299L21.1829 2.25592C21.0634 1.53148 20.4371 1 19.7029 1H10.3725" stroke="currentColor" stroke-linecap="round"/>
</svg>
