<svg width="24" height="24" viewBox="0 0 24 24" fill="none" xmlns="http://www.w3.org/2000/svg">
<g clip-path="url(#clip0_12_78971)">
<path d="M12.4913 12.73L6.73234 6.72203C6.22684 6.21608 5.89317 5.56402 5.7785 4.85807C5.66384 4.15211 5.77397 3.42797 6.09334 2.78803C6.33462 2.30488 6.68727 1.88598 7.12223 1.56586C7.55718 1.24575 8.06198 1.03359 8.59503 0.946862C9.12807 0.860137 9.67409 0.901334 10.1881 1.06706C10.7021 1.23278 11.1693 1.51828 11.5513 1.90003L12.4913 2.84003L13.4323 1.90003C13.814 1.51817 14.281 1.23249 14.7948 1.06654C15.3086 0.900587 15.8544 0.859118 16.3874 0.945551C16.9204 1.03198 17.4251 1.24384 17.8601 1.56366C18.2951 1.88349 18.6479 2.30211 18.8893 2.78503C19.2091 3.4248 19.3196 4.14896 19.2051 4.85498C19.0906 5.561 18.7569 6.21312 18.2513 6.71903L12.4913 12.73Z" stroke="currentColor" stroke-linecap="round" stroke-linejoin="round"/>
<path d="M3.75 23.0999L1.736 20.7149C1.09688 19.916 0.749096 18.9231 0.750002 17.8999V12.7319C0.750002 12.3341 0.908037 11.9526 1.18934 11.6713C1.47065 11.39 1.85218 11.2319 2.25 11.2319C2.64783 11.2319 3.02936 11.39 3.31066 11.6713C3.59197 11.9526 3.75 12.3341 3.75 12.7319V16.4819" stroke="currentColor" stroke-linecap="round" stroke-linejoin="round"/>
<path d="M8.24934 23.1V20.1C8.24974 19.2102 7.98631 18.3402 7.49234 17.6L6.35034 15.886C6.25282 15.7236 6.12335 15.5827 5.96978 15.4718C5.81621 15.3609 5.64173 15.2823 5.4569 15.2408C5.27207 15.1993 5.08073 15.1957 4.89449 15.2303C4.70824 15.2649 4.53095 15.3369 4.37334 15.442C4.0896 15.6312 3.88467 15.9175 3.79702 16.2471C3.70938 16.5767 3.74505 16.9269 3.89734 17.232L5.24934 19.482" stroke="currentColor" stroke-linecap="round" stroke-linejoin="round"/>
<path d="M20.25 23.0999L22.264 20.7189C22.904 19.9189 23.2518 18.9244 23.25 17.8999V12.7319C23.25 12.3341 23.092 11.9526 22.8107 11.6713C22.5294 11.39 22.1478 11.2319 21.75 11.2319C21.3522 11.2319 20.9706 11.39 20.6893 11.6713C20.408 11.9526 20.25 12.3341 20.25 12.7319V16.4819" stroke="currentColor" stroke-linecap="round" stroke-linejoin="round"/>
<path d="M15.75 23.1V20.1C15.7496 19.2102 16.013 18.3402 16.507 17.6L17.649 15.888C17.7465 15.7256 17.876 15.5847 18.0296 15.4738C18.1831 15.3629 18.3576 15.2843 18.5424 15.2428C18.7273 15.2013 18.9186 15.1977 19.1049 15.2323C19.2911 15.2669 19.4684 15.3389 19.626 15.444C19.9097 15.6332 20.1147 15.9195 20.2023 16.249C20.29 16.5786 20.2543 16.9289 20.102 17.234L18.75 19.484" stroke="currentColor" stroke-linecap="round" stroke-linejoin="round"/>
</g>
<defs>
<clipPath id="clip0_12_78971">
<rect width="24" height="24" fill="white"/>
</clipPath>
</defs>
</svg>
