<svg width="24" height="24" viewBox="0 0 24 24" fill="none" xmlns="http://www.w3.org/2000/svg">
<path fill-rule="evenodd" clip-rule="evenodd" d="M12.6836 16.0948L9.12012 16.5893L9.62892 13.1219L18.7931 4.21453C19.3394 3.68414 20.1354 3.47736 20.8812 3.67207C21.6269 3.86678 22.2091 4.43341 22.4085 5.1585C22.6079 5.8836 22.3942 6.657 21.8478 7.18739L12.6836 16.0948Z" stroke="currentColor" stroke-linecap="round" stroke-linejoin="round"/>
<path d="M5.51995 14.8013H2.63995C1.84466 14.8013 1.19995 15.4279 1.19995 16.2009V19.0002C1.19995 19.7732 1.84466 20.3999 2.63995 20.3999H21.36C22.1552 20.3999 22.8 19.7732 22.8 19.0002V16.2009C22.8 15.4279 22.1552 14.8013 21.36 14.8013H18.48" stroke="currentColor" stroke-linecap="round" stroke-linejoin="round"/>
</svg>
