<svg width="24" height="24" viewBox="0 0 24 24" fill="none" xmlns="http://www.w3.org/2000/svg">
<g clip-path="url(#clip0_12_79006)">
<path d="M19.337 8.82056L23.25 11.5108V21.7825C23.25 22.1877 23.1067 22.5336 22.8202 22.8201C22.5337 23.1066 22.1878 23.2499 21.7826 23.2499H2.21739C1.81218 23.2499 1.46631 23.1066 1.17979 22.8201C0.893263 22.5336 0.75 22.1877 0.75 21.7825V11.5108L4.66304 8.82056" stroke="currentColor" stroke-linecap="round" stroke-linejoin="round"/>
<path d="M3.68481 20.3151L8.57612 16.4021H15.4239L20.3152 20.3151" stroke="currentColor" stroke-linecap="round" stroke-linejoin="round"/>
<path d="M23.2504 11.511L17.3809 15.424" stroke="currentColor" stroke-linecap="round" stroke-linejoin="round"/>
<path d="M0.75 11.511L6.61956 15.424" stroke="currentColor" stroke-linecap="round" stroke-linejoin="round"/>
<path d="M19.337 13.9565V1.72826C19.337 1.45812 19.2415 1.22754 19.0505 1.03653C18.8595 0.845509 18.6289 0.75 18.3587 0.75H5.64135C5.37121 0.75 5.14063 0.845509 4.94961 1.03653C4.75859 1.22754 4.66309 1.45812 4.66309 1.72826V13.9565" stroke="currentColor" stroke-linecap="round" stroke-linejoin="round"/>
<path d="M7.5979 3.68471H9.55442" stroke="currentColor" stroke-linecap="round" stroke-linejoin="round"/>
<path d="M9.55469 6.61952H16.4025" stroke="currentColor" stroke-linecap="round" stroke-linejoin="round"/>
<path d="M7.5979 9.55434H16.4022" stroke="currentColor" stroke-linecap="round" stroke-linejoin="round"/>
<path d="M7.5979 12.4892H16.4022" stroke="currentColor" stroke-linecap="round" stroke-linejoin="round"/>
</g>
<defs>
<clipPath id="clip0_12_79006">
<rect width="24" height="24" fill="white"/>
</clipPath>
</defs>
</svg>
