<svg width="24" height="24" viewBox="0 0 24 24" fill="none" xmlns="http://www.w3.org/2000/svg">
<path d="M5.52004 5.16004C5.32122 5.16004 5.16004 5.32122 5.16004 5.52004C5.16004 5.71886 5.32122 5.88004 5.52004 5.88004C5.71886 5.88004 5.88004 5.71886 5.88004 5.52004C5.88004 5.32122 5.71886 5.16004 5.52004 5.16004V5.16004" stroke="currentColor" stroke-linecap="round" stroke-linejoin="round"/>
<path d="M5.52004 13.8001C5.32122 13.8001 5.16004 13.9612 5.16004 14.1601C5.16004 14.3589 5.32122 14.5201 5.52004 14.5201C5.71886 14.5201 5.88004 14.3589 5.88004 14.1601C5.88004 13.9612 5.71886 13.8001 5.52004 13.8001V13.8001" stroke="currentColor" stroke-linecap="round" stroke-linejoin="round"/>
<path d="M12.72 9.83995H5.51995C3.13408 9.83995 1.19995 7.90582 1.19995 5.51995C1.19995 3.13408 3.13408 1.19995 5.51995 1.19995H17.04C18.9521 1.19955 20.637 2.45626 21.1818 4.28918C21.7266 6.1221 21.0016 8.09509 19.3996 9.13915" stroke="currentColor" stroke-linecap="round" stroke-linejoin="round"/>
<path d="M8.39995 18.48H5.51995C3.13408 18.48 1.19995 16.5458 1.19995 14.16C1.19995 11.7741 3.13408 9.83997 5.51995 9.83997" stroke="currentColor" stroke-linecap="round" stroke-linejoin="round"/>
<path d="M10.5601 5.52004H17.0401" stroke="currentColor" stroke-linecap="round" stroke-linejoin="round"/>
<path fill-rule="evenodd" clip-rule="evenodd" d="M11.2805 17.0399C11.2805 19.0978 12.3784 20.9993 14.1605 22.0282C15.9427 23.0571 18.1384 23.0571 19.9205 22.0282C21.7027 20.9993 22.8005 19.0978 22.8005 17.0399C22.8005 14.9821 21.7027 13.0805 19.9205 12.0516C18.1384 11.0227 15.9427 11.0227 14.1605 12.0516C12.3784 13.0805 11.2805 14.9821 11.2805 17.0399V17.0399Z" stroke="currentColor" stroke-linecap="round" stroke-linejoin="round"/>
<path d="M19.2004 14.879L14.8804 19.199" stroke="currentColor" stroke-linecap="round" stroke-linejoin="round"/>
<path d="M14.8804 14.879L19.2004 19.199" stroke="currentColor" stroke-linecap="round" stroke-linejoin="round"/>
</svg>
