<svg width="20" height="20" viewBox="0 0 20 20" fill="none" xmlns="http://www.w3.org/2000/svg">
<path d="M18.7272 9.76554L17.4444 2.89054C17.4131 2.72296 17.3478 2.56356 17.2526 2.42215C17.1573 2.28074 17.0342 2.1603 16.8907 2.06824C16.7472 1.97619 16.5864 1.91446 16.4181 1.88686C16.2499 1.85925 16.0778 1.86635 15.9124 1.90773L15.8882 1.91476L11.7851 3.12491H8.21474L4.11162 1.91866L4.0874 1.91163C3.92201 1.87026 3.7499 1.86316 3.58166 1.89076C3.41343 1.91837 3.25261 1.98009 3.10912 2.07215C2.96562 2.16421 2.84247 2.28464 2.74724 2.42605C2.65201 2.56747 2.58671 2.72686 2.55537 2.89444L1.27256 9.76554C1.2177 10.0407 1.25842 10.3264 1.38798 10.5753C1.51754 10.8242 1.72818 11.0214 1.98506 11.1343C2.14956 11.2097 2.32829 11.2492 2.50927 11.2499C2.72589 11.2498 2.93851 11.1915 3.1249 11.0812V14.3749C3.1249 15.2037 3.45414 15.9986 4.04019 16.5846C4.62624 17.1707 5.4211 17.4999 6.2499 17.4999H13.7499C14.5787 17.4999 15.3736 17.1707 15.9596 16.5846C16.5457 15.9986 16.8749 15.2037 16.8749 14.3749V11.0819C17.0611 11.1921 17.2734 11.2504 17.4897 11.2507C17.6709 11.2502 17.8499 11.211 18.0147 11.1358C18.2719 11.0229 18.4828 10.8254 18.6124 10.5762C18.742 10.327 18.7825 10.041 18.7272 9.76554ZM13.7499 16.2499H10.6249V15.2585L11.6921 14.1921C11.8094 14.0748 11.8752 13.9158 11.8752 13.7499C11.8752 13.5841 11.8094 13.425 11.6921 13.3077C11.5748 13.1905 11.4158 13.1246 11.2499 13.1246C11.084 13.1246 10.925 13.1905 10.8077 13.3077L9.9999 14.1163L9.19209 13.3077C9.07481 13.1905 8.91575 13.1246 8.7499 13.1246C8.58405 13.1246 8.42499 13.1905 8.30771 13.3077C8.19044 13.425 8.12455 13.5841 8.12455 13.7499C8.12455 13.9158 8.19044 14.0748 8.30771 14.1921L9.3749 15.2585V16.2499H6.2499C5.75262 16.2499 5.2757 16.0524 4.92407 15.7007C4.57244 15.3491 4.3749 14.8722 4.3749 14.3749V9.61788L8.43193 4.37491H11.5679L15.6249 9.61788V14.3749C15.6249 14.8722 15.4274 15.3491 15.0757 15.7007C14.7241 16.0524 14.2472 16.2499 13.7499 16.2499ZM8.1249 10.9374C8.1249 11.1228 8.06992 11.3041 7.9669 11.4583C7.86389 11.6124 7.71747 11.7326 7.54616 11.8035C7.37486 11.8745 7.18636 11.8931 7.0045 11.8569C6.82264 11.8207 6.6556 11.7314 6.52449 11.6003C6.39337 11.4692 6.30409 11.3022 6.26791 11.1203C6.23174 10.9385 6.2503 10.75 6.32126 10.5786C6.39222 10.4073 6.51238 10.2609 6.66655 10.1579C6.82072 10.0549 7.00198 9.99991 7.1874 9.99991C7.43604 9.99991 7.6745 10.0987 7.85031 10.2745C8.02613 10.4503 8.1249 10.6888 8.1249 10.9374ZM13.7499 10.9374C13.7499 11.1228 13.6949 11.3041 13.5919 11.4583C13.4889 11.6124 13.3425 11.7326 13.1712 11.8035C12.9999 11.8745 12.8114 11.8931 12.6295 11.8569C12.4476 11.8207 12.2806 11.7314 12.1495 11.6003C12.0184 11.4692 11.9291 11.3022 11.8929 11.1203C11.8567 10.9385 11.8753 10.75 11.9463 10.5786C12.0172 10.4073 12.1374 10.2609 12.2916 10.1579C12.4457 10.0549 12.627 9.99991 12.8124 9.99991C13.061 9.99991 13.2995 10.0987 13.4753 10.2745C13.6511 10.4503 13.7499 10.6888 13.7499 10.9374Z" fill="currentColor"/>
</svg>
