<svg width="20" height="20" viewBox="0 0 20 20" fill="none" xmlns="http://www.w3.org/2000/svg">
<g clip-path="url(#clip0_12_81228)">
<path d="M13.75 3.75H6.25C4.5924 3.75 3.00269 4.40848 1.83058 5.58058C0.65848 6.75269 0 8.3424 0 10C0 11.6576 0.65848 13.2473 1.83058 14.4194C3.00269 15.5915 4.5924 16.25 6.25 16.25H13.75C15.4076 16.25 16.9973 15.5915 18.1694 14.4194C19.3415 13.2473 20 11.6576 20 10C20 8.3424 19.3415 6.75269 18.1694 5.58058C16.9973 4.40848 15.4076 3.75 13.75 3.75ZM9.64766 7.71953L7.77266 12.7195C7.72826 12.8391 7.64832 12.9423 7.54358 13.0151C7.43883 13.088 7.3143 13.127 7.18672 13.127C7.05913 13.127 6.93461 13.088 6.82986 13.0151C6.72512 12.9423 6.64518 12.8391 6.60078 12.7195L4.72578 7.71953C4.66756 7.56413 4.67345 7.39197 4.74217 7.24091C4.81088 7.08986 4.93679 6.97229 5.09219 6.91406C5.24759 6.85584 5.41975 6.86173 5.57081 6.93045C5.72186 6.99916 5.83943 7.12507 5.89766 7.28047L7.1875 10.718L8.47734 7.28047C8.50617 7.20352 8.54988 7.13301 8.60596 7.07295C8.66204 7.01289 8.7294 6.96447 8.80419 6.93045C8.87899 6.89642 8.95975 6.87746 9.04187 6.87465C9.12399 6.87184 9.20587 6.88523 9.28281 6.91406C9.35976 6.94289 9.43027 6.98659 9.49033 7.04268C9.55039 7.09876 9.59881 7.16612 9.63283 7.24091C9.66686 7.31571 9.68582 7.39647 9.68863 7.47859C9.69144 7.56071 9.67805 7.64258 9.64922 7.71953H9.64766ZM14.9219 12.1875C15.0041 12.3315 15.0258 12.5023 14.9822 12.6623C14.9385 12.8223 14.8331 12.9584 14.6891 13.0406C14.5451 13.1229 14.3743 13.1446 14.2143 13.1009C14.0543 13.0572 13.9182 12.9518 13.8359 12.8078L12.9422 11.2453C12.9008 11.2453 12.8586 11.2492 12.8164 11.2492H11.875V12.4992C11.875 12.665 11.8092 12.8239 11.6919 12.9412C11.5747 13.0584 11.4158 13.1242 11.25 13.1242C11.0842 13.1242 10.9253 13.0584 10.8081 12.9412C10.6908 12.8239 10.625 12.665 10.625 12.4992V7.5C10.625 7.33424 10.6908 7.17527 10.8081 7.05806C10.9253 6.94085 11.0842 6.875 11.25 6.875H12.8125C13.2709 6.87543 13.7176 7.01985 14.0894 7.28786C14.4613 7.55587 14.7396 7.93393 14.885 8.36865C15.0304 8.80337 15.0355 9.27277 14.8997 9.71058C14.7639 10.1484 14.494 10.5325 14.1281 10.8086L14.9219 12.1875ZM13.75 9.0625C13.75 9.31114 13.6512 9.5496 13.4754 9.72541C13.2996 9.90123 13.0611 10 12.8125 10H11.875V8.125H12.8125C13.0611 8.125 13.2996 8.22377 13.4754 8.39959C13.6512 8.5754 13.75 8.81386 13.75 9.0625Z" fill="currentColor"/>
</g>
<defs>
<clipPath id="clip0_12_81228">
<rect width="20" height="20" fill="white"/>
</clipPath>
</defs>
</svg>
