<svg width="24" height="24" viewBox="0 0 24 24" fill="none" xmlns="http://www.w3.org/2000/svg">
<rect x="1.19995" y="1.19995" width="14.4002" height="15.8403" rx="0.800014" stroke="currentColor" stroke-linecap="round" stroke-linejoin="round"/>
<path d="M15.6002 12.7202H1.19995" stroke="currentColor" stroke-linecap="round" stroke-linejoin="round"/>
<path d="M18.485 6.46191L22.3078 7.73586C22.489 7.79631 22.6387 7.92626 22.7241 8.09712C22.8094 8.26799 22.8234 8.46576 22.7629 8.64691L18.2095 22.3079C18.1491 22.4891 18.0191 22.6388 17.8482 22.7242C17.6774 22.8095 17.4796 22.8235 17.2985 22.763L6.96484 19.3185" stroke="currentColor" stroke-linecap="round" stroke-linejoin="round"/>
<path d="M5.52002 12.7201L9.50409 7.02528C9.7577 6.66191 10.1645 6.43554 10.607 6.41154C11.0494 6.38754 11.4783 6.56859 11.7697 6.9024L15.6002 11.2801" stroke="currentColor" stroke-linecap="round" stroke-linejoin="round"/>
<circle cx="5.34048" cy="5.34048" r="1.62051" stroke="currentColor" stroke-linecap="round" stroke-linejoin="round"/>
</svg>
