<svg width="24" height="24" viewBox="0 0 24 24" fill="none" xmlns="http://www.w3.org/2000/svg">
<path fill-rule="evenodd" clip-rule="evenodd" d="M21.5332 11.2666H2.46655V21.5333C2.46655 22.3433 3.1232 22.9999 3.93322 22.9999H20.0666C20.8766 22.9999 21.5332 22.3433 21.5332 21.5333V11.2666Z" stroke="currentColor" stroke-linecap="round" stroke-linejoin="round"/>
<path fill-rule="evenodd" clip-rule="evenodd" d="M21.5333 6.8667H2.46667C1.65665 6.8667 1 7.52335 1 8.33337V10.5334C1 10.9384 1.32832 11.2667 1.73333 11.2667H22.2667C22.6717 11.2667 23 10.9384 23 10.5334V8.33337C23 7.52335 22.3434 6.8667 21.5333 6.8667Z" stroke="currentColor" stroke-linecap="round" stroke-linejoin="round"/>
<path d="M11.267 6.86667C8.02664 6.86667 4.66699 4.24036 4.66699 1" stroke="currentColor" stroke-linecap="round" stroke-linejoin="round"/>
<path d="M4.66699 1C7.90735 1 11.267 3.62631 11.267 6.86667" stroke="currentColor" stroke-linecap="round" stroke-linejoin="round"/>
<path d="M12.7334 6.86667C15.9738 6.86667 19.3334 4.24036 19.3334 1" stroke="currentColor" stroke-linecap="round" stroke-linejoin="round"/>
<path d="M19.3334 1C16.093 1 12.7334 3.62631 12.7334 6.86667" stroke="currentColor" stroke-linecap="round" stroke-linejoin="round"/>
<path fill-rule="evenodd" clip-rule="evenodd" d="M9.80005 6.8667H14.2V23H9.80005V6.8667Z" stroke="currentColor" stroke-linecap="round" stroke-linejoin="round"/>
</svg>
