<svg width="24" height="24" viewBox="0 0 24 24" fill="none" xmlns="http://www.w3.org/2000/svg">
<path d="M12.0001 1.50415V22.4959" stroke="currentColor" stroke-linecap="round" stroke-linejoin="round"/>
<path d="M12 11.7002L16 15.6988" stroke="currentColor" stroke-linecap="round" stroke-linejoin="round"/>
<path d="M8 15.6988L12 11.7002" stroke="currentColor" stroke-linecap="round" stroke-linejoin="round"/>
<path fill-rule="evenodd" clip-rule="evenodd" d="M12 11.7002L15.4741 8.2273C15.7144 7.98702 15.9972 7.81755 16.3225 7.71889C16.6477 7.62024 16.977 7.60404 17.3104 7.67031C17.6437 7.73658 17.9418 7.87749 18.2045 8.09304C18.4672 8.30858 18.6636 8.57331 18.7937 8.88722C18.9238 9.20107 18.9722 9.52704 18.9389 9.86514C18.9056 10.2032 18.7945 10.5135 18.6056 10.796C18.4168 11.0785 18.1724 11.2998 17.8726 11.46C17.5728 11.6202 17.253 11.7002 16.9131 11.7002H12Z" stroke="currentColor" stroke-linecap="round" stroke-linejoin="round"/>
<path fill-rule="evenodd" clip-rule="evenodd" d="M12.0001 11.7002L8.52596 8.2273C8.28566 7.98702 8.00288 7.81755 7.67764 7.71889C7.35239 7.62024 7.02309 7.60404 6.68973 7.67031C6.35638 7.73658 6.05833 7.87749 5.79559 8.09304C5.53285 8.30858 5.33645 8.57331 5.20639 8.88722C5.07629 9.20107 5.0279 9.52704 5.06121 9.86514C5.09453 10.2032 5.20561 10.5135 5.39447 10.796C5.58333 11.0785 5.82765 11.2998 6.12745 11.46C6.42725 11.6202 6.74711 11.7002 7.08703 11.7002H12.0001Z" stroke="currentColor" stroke-linecap="round" stroke-linejoin="round"/>
<path d="M12 0.5C12.7554 0.5 13.5033 0.573359 14.2441 0.720703C14.9848 0.868007 15.7037 1.0861 16.4014 1.375C17.0992 1.66402 17.7626 2.01889 18.3906 2.43848C19.0184 2.85792 19.599 3.33438 20.1328 3.86816C20.6668 4.40218 21.144 4.98342 21.5635 5.61133C21.9829 6.2392 22.3371 6.90199 22.626 7.59961C22.9148 8.2972 23.1322 9.01633 23.2793 9.75684C23.4264 10.4974 23.5003 11.245 23.5 12L23.4863 12.5654C23.4589 13.1288 23.3896 13.6879 23.2793 14.2432C23.1322 14.9837 22.9148 15.7028 22.626 16.4004C22.3371 17.098 21.9829 17.7608 21.5635 18.3887C21.144 19.0166 20.6668 19.5978 20.1328 20.1318C19.599 20.6656 19.0184 21.1421 18.3906 21.5615C17.7626 21.9811 17.0992 22.336 16.4014 22.625C15.7037 22.9139 14.9848 23.132 14.2441 23.2793C13.5033 23.4266 12.7554 23.5 12 23.5L11.4346 23.4863C10.8709 23.4587 10.3114 23.3898 9.75586 23.2793C9.01523 23.132 8.29628 22.9139 7.59863 22.625C6.9008 22.336 6.23737 21.9811 5.60938 21.5615C4.98163 21.1421 4.40102 20.6656 3.86719 20.1318C3.33317 19.5978 2.85603 19.0166 2.43652 18.3887C2.01706 17.7608 1.66287 17.098 1.37402 16.4004C1.08521 15.7028 0.867818 14.9837 0.720703 14.2432C0.573594 13.5026 0.499739 12.755 0.5 12L0.513672 11.4346C0.541115 10.8712 0.610397 10.3121 0.720703 9.75684C0.867818 9.01633 1.0852 8.2972 1.37402 7.59961C1.66287 6.90199 2.01706 6.2392 2.43652 5.61133C2.85603 4.98342 3.33317 4.40218 3.86719 3.86816C4.40102 3.33438 4.98163 2.85792 5.60938 2.43848C6.23737 2.01889 6.9008 1.66402 7.59863 1.375C8.29628 1.0861 9.01523 0.868007 9.75586 0.720703C10.3114 0.610215 10.8709 0.541302 11.4346 0.513672L12 0.5Z" stroke="currentColor" stroke-linecap="round" stroke-linejoin="round"/>
</svg>
