<svg width="24" height="24" viewBox="0 0 24 24" fill="none" xmlns="http://www.w3.org/2000/svg">
<path d="M20.8064 9.38184C21.439 9.9382 21.9717 10.4782 22.3712 10.9037C22.9431 11.5265 22.9431 12.4736 22.3712 13.0964C20.6233 14.9455 16.6446 18.5455 12.0001 18.5455H11.3342" stroke="currentColor" stroke-linecap="round" stroke-linejoin="round"/>
<path d="M6.78943 17.1219C4.86109 16.0603 3.11871 14.7011 1.62884 13.0964C1.05699 12.4736 1.05699 11.5265 1.62884 10.9037C3.37678 9.05459 7.35543 5.45459 12 5.45459C13.8308 5.4922 15.6225 5.98176 17.2105 6.87823" stroke="currentColor" stroke-linecap="round" stroke-linejoin="round"/>
<path d="M21.1555 3L2.84375 21" stroke="currentColor" stroke-linecap="round" stroke-linejoin="round"/>
<path d="M9.65307 14.3073C9.02783 13.6964 8.67462 12.8666 8.6709 12C8.6709 10.1925 10.1615 8.72729 12.0003 8.72729C12.8819 8.73095 13.726 9.07815 14.3475 9.69275" stroke="currentColor" stroke-linecap="round" stroke-linejoin="round"/>
<path d="M14.8965 13.6364C14.6002 14.1344 14.1752 14.5465 13.6647 14.831" stroke="currentColor" stroke-linecap="round" stroke-linejoin="round"/>
</svg>
