<svg width="64" height="64" viewBox="0 0 64 64" fill="none" xmlns="http://www.w3.org/2000/svg">
<rect width="64" height="64" rx="32" fill="currentColor"/>
<g clip-path="url(#clip0_12_76567)">
<path d="M37.3262 33.499C37.1119 33.6742 36.9726 33.9268 36.7305 34.0624C36.4192 34.0821 36.4726 34.5112 36.1967 34.5497C36.0588 34.5674 36.0236 34.656 36.0117 34.7744C35.8678 35.1447 35.4669 35.4409 35.0835 35.6127C35.3262 35.9993 34.9153 36.1696 34.8037 36.4943C34.4055 37.0105 34.102 37.7301 34.1659 38.3748C34.4871 38.7378 34.154 39.0065 34.1915 39.3656C34.1131 39.6264 33.8282 39.7522 33.6206 39.9038C33.1549 40.1356 32.6092 39.6754 32.2856 39.3607C32.2256 39.227 32.1806 39.073 31.9972 39.0789C31.848 39.0596 31.6385 39.1456 31.606 38.9452C31.4935 38.7207 31.2569 38.6078 31.2014 38.3196C30.5178 38.4905 30.637 38.1347 30.2075 37.7531C29.9601 37.7406 29.9229 37.4603 29.6815 37.4706C29.2657 37.515 29.2049 37.4494 28.8774 37.3221C28.4785 37.3634 28.5373 36.7689 28.0746 36.987C27.7179 37.0835 27.7058 36.6556 27.5236 36.4858C27.0658 36.0632 26.3547 35.8726 25.8976 35.4083C25.6869 35.1911 25.7928 34.8744 25.4429 34.7471C25.2976 34.4805 25.2219 34.1108 24.8549 34.0537C24.0926 34.1891 24.4429 33.6775 23.9744 33.3874C23.7333 33.1935 23.7313 32.802 23.6486 32.501C23.6108 32.3467 23.7598 32.1307 23.5861 32.0305C23.4407 31.92 23.2075 31.7813 23.3257 31.5673C23.4012 31.4332 23.1788 31.3273 23.1077 31.4699C22.9843 31.6255 22.9388 30.5811 22.8066 30.7297L22.4473 30.0247C22.5964 29.9128 22.7959 29.542 22.6836 29.3568C22.4999 29.0398 22.9585 28.6249 22.6414 28.267C22.5493 28.0856 22.7445 27.9122 22.7928 27.7193C22.6281 27.5295 22.4169 27.0433 22.6738 26.862C23.1163 26.6578 23.211 26.1304 23.5136 25.8046C24.2886 25.2368 23.5908 25.3119 24.7945 24.8603C24.9214 24.6716 25.1748 24.8789 25.3534 24.8743C25.5624 24.8624 25.7529 24.706 25.9915 24.7642C26.1827 24.8224 26.2315 24.6364 26.4008 24.6132C26.7 24.6651 26.9684 24.4983 27.2466 24.5519C27.3794 24.6533 27.5699 24.5443 27.6617 24.7018C27.8739 24.9557 28.2247 24.5904 28.4844 24.7259C28.8178 24.9112 29.0474 25.225 29.4027 25.3644C29.6366 25.3003 29.9441 25.6497 30.0981 25.4116C30.2115 25.0397 30.6729 25.1311 30.839 24.79C31.0486 24.4703 31.35 24.2095 31.3806 23.8003C31.7311 23.3852 32.1856 23.1119 32.5946 22.7693C32.7085 22.7021 32.8661 22.6708 32.9215 22.5406C33.1742 21.8546 33.7626 22.4321 34.2043 22.4977C34.7704 22.5933 35.4892 22.2842 35.959 22.7025C36.3012 23.1636 37.2213 22.8829 37.3069 23.597C37.8751 23.5502 38.2856 23.9983 38.5773 24.364C38.909 24.4132 38.5974 24.8587 39.095 24.8795C39.355 24.9692 38.9928 25.3429 39.3337 25.3926C39.5287 25.4974 39.409 25.7151 39.4228 25.885C39.5204 26.0698 39.5895 26.1891 39.5368 26.4099C39.6125 26.7075 40.0272 26.9604 39.8602 27.2972C39.8267 27.9092 39.607 28.4825 39.6747 29.1155C39.6486 29.3046 39.981 29.4529 39.8001 29.6391C39.4484 30.298 40.1541 29.8665 39.295 30.7067C38.6773 31.49 37.9559 32.4935 37.3261 33.499H37.3262ZM33.1287 36.7895C33.2915 36.2337 33.7341 33.8845 33.3068 35.3307C33.2698 35.4532 33.2545 35.4646 33.1245 35.4558C32.4587 35.4407 33.3365 35.5348 33.2313 35.8149C33.2457 36.0628 33.0365 37.317 33.1287 36.7895ZM33.8223 33.4843C34.1039 33.6569 34.5963 33.2327 34.621 32.9661C34.6116 32.885 34.6455 32.8272 34.7389 32.8082C35.6435 32.5506 35.9244 31.5319 36.4306 30.8559C35.6978 31.3336 35.2225 32.062 34.4109 32.4213C34.1547 33.0458 34.6026 32.837 33.8221 33.4845L33.8223 33.4843ZM28.4759 35.8112C28.6262 35.4072 28.7172 34.8748 28.5903 34.4725C28.1535 35.0086 27.0741 35.6976 28.4759 35.8112ZM33.7794 30.3345C35.1354 29.591 34.2383 29.0544 35.0325 29.1389C35.5221 28.9895 34.8223 28.8604 34.6079 28.9208C34.1895 29.1919 33.7858 29.8131 33.7794 30.3347V30.3345ZM29.3723 36.5387C29.3342 36.1446 29.9543 35.3773 29.82 35.3107C29.389 35.4923 29.0515 35.9315 28.5655 35.923C28.7785 36.2788 28.9391 36.5367 29.3723 36.5387ZM30.1651 32.3622C29.7239 32.4355 29.9756 33.5232 29.0957 33.5786C28.8319 33.5955 29.024 33.9442 28.9955 34.146C29.2235 33.9998 29.504 33.9867 29.6187 33.7469C29.7935 33.2799 30.0093 32.8362 30.1651 32.3622ZM36.5614 30.7133C37.5813 30.0932 37.3959 28.5619 36.9844 29.3404C36.8594 29.8041 36.8566 30.3065 36.5614 30.7133ZM33.793 25.318C34.598 25.4712 34.4278 25.2578 34.6628 24.6756C34.4291 24.1647 34.0529 25.081 33.793 25.318ZM28.0846 27.2088C28.7128 27.6886 29.6695 28.091 30.2856 28.7223C30.423 28.8466 30.4235 28.8486 30.6141 28.7422C30.1285 28.6702 29.8425 28.1136 29.4417 27.8494C29.0494 27.5455 28.5288 27.4322 28.0844 27.209L28.0846 27.2088ZM36.3402 28.063C35.9951 27.8961 35.4656 28.3628 35.2855 28.67C35.2756 28.9354 36.0868 28.1683 36.3402 28.063ZM24.1007 29.0345C24.0968 29.2816 24.1501 29.4995 24.2534 29.7085C24.2766 29.408 24.6492 28.8986 24.1007 29.0345ZM37.3596 27.8884C37.3727 27.5413 37.336 27.1998 37.2356 26.8423C36.9907 27.1969 37.2828 27.5337 37.3596 27.8884ZM25.5996 32.7533C25.6882 32.9832 25.8926 33.2394 25.9831 33.2863C26.1665 32.9261 25.9214 32.8594 25.5996 32.7533ZM25.4193 27.1239C25.1333 27.2064 24.8249 27.4602 24.7206 27.6777C24.9777 27.4897 25.1958 27.3322 25.4193 27.1239ZM37.0437 26.3328C36.9763 26.0967 36.7522 25.7394 36.6122 25.6453C36.8419 26.1381 36.9141 26.253 37.0437 26.3328ZM32.6193 36.3589C32.4738 36.4619 32.4746 36.5404 32.6193 36.6055V36.3589ZM31.3898 28.1114C31.4769 28.0282 31.5628 27.9405 31.613 27.8042C31.4683 27.8722 31.4114 27.9774 31.3898 28.1114ZM31.4187 33.7127C31.2613 33.7 31.2458 33.7103 31.2022 33.8576C31.2773 33.8079 31.3605 33.7876 31.4187 33.7127ZM36.047 25.1316C36.078 25.0786 35.803 24.9058 35.7656 24.9526C35.8594 25.0123 35.9533 25.0719 36.047 25.1316ZM33.1226 30.7717C33.0626 30.6719 32.9595 30.7734 32.9821 30.8807C33.0289 30.8445 33.0759 30.808 33.1226 30.7717ZM32.339 26.8563C32.3919 26.7808 32.4166 26.7366 32.4595 26.6422C32.3212 26.6747 32.3504 26.7781 32.339 26.8563ZM33.2514 25.8224C33.1921 25.8289 33.1562 25.8442 33.1589 25.9106C33.2311 25.9186 33.2613 25.8974 33.2514 25.8224ZM32.5786 26.3265C32.5208 26.2911 32.5236 26.3539 32.5083 26.3965C32.5488 26.4324 32.5574 26.3519 32.5786 26.3265Z" fill="currentColor"/>
<path d="M15.2517 33.6033C15.6513 33.4448 16.0276 33.279 16.4156 33.1475C16.6535 33.0669 16.9337 33.0873 17.1526 32.9779C17.8107 32.649 18.4571 32.2939 19.0901 31.9186C19.437 31.7127 19.7319 31.2742 20.0781 31.2421C20.7757 31.1775 21.0052 30.5567 21.5001 30.2681C21.8212 30.0808 22.1257 29.6887 22.2179 29.3316C22.3231 28.9244 22.1846 28.454 22.1509 28.0113C22.1472 27.9629 22.1119 27.8973 22.1321 27.8699C22.3717 27.5465 22.227 27.2417 22.0927 26.9389C21.8837 26.4674 22.4012 26.4321 22.557 26.1833C22.8743 25.6766 23.2482 25.2046 23.6152 24.7311C23.683 24.6436 23.8233 24.5959 23.9393 24.5656C24.2537 24.4832 24.5727 24.4184 24.8906 24.3493C25.2672 24.2676 25.6534 24.2158 26.018 24.0978C26.2143 24.0342 27.2781 24.0941 27.4772 24.1963C27.6098 24.2644 27.8059 24.1954 27.9665 24.2258C28.1853 24.2672 28.4076 24.3215 28.61 24.4118C29.0527 24.6096 29.4831 24.835 29.9211 25.0435C29.9463 25.0554 30.0056 25.0271 30.0323 25.0007C30.44 24.5983 30.8677 24.2127 31.2417 23.7806C31.4414 23.5502 31.5123 23.2105 31.7056 22.9723C31.902 22.7305 32.181 22.557 32.4171 22.3464C32.6705 22.1202 32.943 21.9079 33.1593 21.6493C33.4874 21.257 33.7677 21.5896 34.0707 21.6587C34.3556 21.7237 34.6525 21.8467 34.9293 21.8149C35.5321 21.7454 36.0602 21.7625 36.5553 22.2053C36.7953 22.4198 37.3317 22.3758 37.4767 22.6088C37.7956 23.1219 38.4454 22.9915 38.759 23.4184C38.9366 23.66 39.0824 23.9247 39.252 24.1725C39.29 24.2282 39.3817 24.2457 39.4239 24.3C39.5169 24.4201 39.5946 24.5521 39.6771 24.6801C39.6824 24.6884 39.6725 24.7057 39.6765 24.7162C39.7933 25.012 39.9196 25.3041 40.0257 25.6037C40.1077 25.8354 40.1152 26.1068 40.2408 26.3072C40.6484 26.9566 40.2233 27.5695 40.2171 28.1975C40.2134 28.5662 40.3384 28.9345 40.3766 29.306C40.3869 29.4066 40.2331 29.531 40.2535 29.6226C40.4154 30.3521 39.6426 30.5675 39.464 31.1016C39.4281 31.209 39.4474 31.335 39.4414 31.4523C39.5176 31.4042 39.6014 31.365 39.669 31.3068C40.0876 30.9471 40.511 30.5924 40.916 30.2178C41.2946 29.8675 41.6327 29.4717 42.0243 29.1379C42.4632 28.7636 42.9354 28.427 43.4055 28.0918C43.8694 27.761 44.3321 27.422 44.8277 27.1443C45.1829 26.9452 45.5888 26.8339 45.9767 26.6964C46.2969 26.5827 46.622 26.4818 46.9482 26.3866C47.2334 26.3032 47.5286 26.2514 47.8101 26.1573C48.274 26.0022 48.7279 25.8168 49.1907 25.6584C49.5622 25.5311 49.9342 25.3691 50.3182 25.3228C50.8536 25.2584 51.2006 25.6216 51.3948 26.3094C51.4181 26.3914 51.5035 26.4557 51.5602 26.528C51.6219 26.4778 51.6766 26.4133 51.7464 26.38C52.0322 26.2437 52.3153 26.0568 52.6157 26.0196C52.7184 26.0068 52.8875 26.3682 52.9938 26.5752C53.2798 27.1325 53.2925 27.7441 53.14 28.3176C53.0312 28.7272 52.7022 29.073 52.5282 29.4719C52.3262 29.9349 52.1919 30.4272 52.0177 30.9027C51.8569 31.3414 51.6821 31.7747 51.5131 32.2105C51.425 32.4374 51.382 32.6987 51.24 32.8843C50.7751 33.493 50.7462 34.263 50.4333 34.9242C50.4029 34.9884 50.3302 35.0406 50.32 35.1052C50.3003 35.2292 50.2567 35.4122 50.3193 35.4756C50.6213 35.7809 50.9847 36.0281 51.272 36.3452C51.8359 36.9679 51.7087 37.3437 51.0956 37.7714C50.5766 38.1335 50.0037 38.1944 49.414 37.8128C48.8703 37.4609 48.557 37.9428 48.362 38.2915C48.0572 38.836 47.804 39.3792 47.2274 39.7103C47.0953 39.786 47.1089 40.0836 47.004 40.2457C46.8459 40.4895 46.6362 40.6993 46.4599 40.9324C46.3045 41.1379 46.1721 41.361 46.017 41.5667C45.6807 42.0127 45.4875 42.5376 44.8735 42.8C44.4975 42.9608 44.3056 43.5271 43.9963 43.8809C43.8586 44.0384 43.6184 44.1021 43.4577 44.2454C43.3617 44.3308 43.3575 44.5163 43.2639 44.6076C42.9482 44.9163 42.6169 45.2099 42.2806 45.4962C41.8613 45.8537 41.4556 46.2351 40.9996 46.5397C40.337 46.9825 39.6287 47.3561 38.9513 47.7777C38.4089 48.1153 38.0826 47.788 37.7001 47.4624C37.2244 47.0572 37.0783 46.4786 37.0323 45.9574C36.9822 45.3883 37.1665 44.7763 37.3468 44.2148C37.5966 43.4371 37.9194 42.6803 38.2503 41.9321C38.3728 41.6549 38.6102 41.4295 38.789 41.1761C39.0568 40.7961 39.2959 40.393 39.5905 40.0353C39.878 39.6862 40.2183 39.3801 40.5384 39.0582C40.8014 38.7935 41.0517 38.5127 41.3379 38.2756C41.9081 37.8036 42.469 37.3086 43.0934 36.9185C43.4527 36.694 43.9411 36.6874 44.3483 36.5249C44.656 36.4021 44.9092 36.1395 45.2185 36.0247C45.7605 35.8236 46.3179 35.6293 46.8857 35.5421C47.4445 35.4562 47.9421 35.424 48.1861 34.7787C48.4452 34.0936 48.8162 33.4516 49.1044 32.7762C49.2709 32.3862 49.2517 31.828 49.5272 31.5928C49.9998 31.1893 49.5458 30.6399 49.8961 30.278C49.9073 30.2664 49.8729 30.1782 49.855 30.1766C49.806 30.1719 49.7423 30.1793 49.7059 30.2088C48.8944 30.8605 48.0905 31.5221 47.2704 32.1628C47.1669 32.2436 46.9546 32.177 46.8378 32.2504C46.6273 32.3829 46.4666 32.5934 46.2575 32.7289C45.7916 33.0311 45.308 33.3063 44.8334 33.5954C44.7916 33.6208 44.7323 33.668 44.7326 33.7046C44.7374 34.1956 44.3571 34.1759 44.0363 34.2503C43.9081 34.28 43.7847 34.3464 43.67 34.4146C42.9355 34.8505 42.2031 35.2899 41.4722 35.7317C41.2464 35.8682 40.464 35.6155 40.1775 35.4417C39.553 35.0625 39.3732 34.4879 39.2627 33.8321C39.2513 33.7637 38.8927 33.7455 38.6933 33.7201C38.562 33.7033 38.3785 33.7718 38.3017 33.7055C37.8328 33.3017 37.636 33.7825 37.3743 33.9835C37.0442 34.2369 36.7464 34.5326 36.4363 34.8116C36.3976 34.8465 36.3695 34.8925 36.3343 34.9315C36.0512 35.2448 35.7689 35.5584 35.4833 35.8691C35.4413 35.9148 35.3357 35.9723 35.3402 35.9804C35.5742 36.4095 35.126 36.6014 35.0134 36.9051C34.8414 37.369 34.5484 37.7981 34.4403 38.2725C34.3536 38.6526 34.4867 39.078 34.4845 39.483C34.4795 40.3814 33.6924 40.9007 32.9646 40.4722C32.725 40.3311 32.56 40.0644 32.357 39.8589C32.2988 39.8 32.2237 39.7044 32.1631 39.7092C31.6124 39.7532 31.5161 39.2871 31.2911 38.9615C31.2596 38.916 31.1747 38.8644 31.1321 38.8766C30.8124 38.9686 30.6423 38.8322 30.4505 38.5729C30.1382 38.1504 29.7277 37.8543 29.1374 37.9292C28.9866 37.9484 28.7424 37.8859 28.6724 37.7767C28.351 37.2754 27.537 37.5789 27.3118 36.89C27.2453 36.6865 26.8829 36.5881 26.672 36.4216C26.2363 36.0774 25.6921 35.9439 25.397 35.3177C25.1908 34.88 24.9664 34.052 24.0881 34.2308C24.0381 34.2409 23.9355 34.0674 23.8806 33.9669C23.6648 33.5713 23.3835 33.1904 23.2716 32.7659C23.1773 32.4083 23.2441 32.0132 22.859 31.7849C22.8542 31.7821 22.8511 31.7753 22.8489 31.7698C22.6946 31.3775 22.7069 31.3895 22.3594 31.7427C21.8139 32.2972 21.2605 32.8451 20.6903 33.374C20.3102 33.7265 19.9275 34.0967 19.4857 34.356C19.0998 34.5824 18.6261 34.6555 18.1985 34.8155C18.032 34.8779 17.8934 35.0126 17.7282 35.0807C17.3827 35.2234 17.0351 35.3713 16.6751 35.4664C16.1959 35.5929 15.7055 35.7336 15.2169 35.7457C14.9351 35.7527 14.654 35.499 14.3607 35.3966C13.5649 35.1187 13.226 34.3739 12.8312 33.7593C12.5553 33.33 12.6984 32.6529 12.4984 32.1482C12.2813 31.6003 12.7183 31.2134 12.6674 30.7143C12.5947 29.9992 12.8977 29.4045 13.3805 28.8483C13.6877 28.4946 13.7949 27.9719 14.0235 27.5417C14.0848 27.4262 14.2553 27.3562 14.3898 27.2977C14.4598 27.2671 14.6218 27.3378 14.6362 27.3093C14.6855 27.2117 14.7456 27.0454 14.6988 26.9853C14.336 26.5197 14.6837 26.1969 14.9143 25.8669C15.3581 25.2315 15.8239 24.6114 16.2839 23.9875C16.3517 23.8956 16.4486 23.8245 16.5123 23.7305C16.5817 23.6282 16.6283 23.5103 16.6849 23.399C16.5316 23.3954 16.378 23.3847 16.2252 23.3915C16.1552 23.3946 16.088 23.4397 16.0172 23.4525C15.4671 23.5514 14.9165 23.6468 14.3662 23.7436C13.8154 23.8405 13.2647 24.0149 12.7139 24.0151C12.0358 24.0155 11.7917 23.3992 12.1997 22.853C12.4026 22.5812 12.615 22.3152 12.8411 22.0627C12.9021 21.9946 13.0268 21.9775 13.1258 21.9504C13.2925 21.9051 13.466 21.8823 13.6295 21.8287C13.7916 21.7756 13.9481 21.6314 14.1016 21.639C14.9916 21.6826 15.7732 21.3526 16.5655 21.0152C16.8768 20.8826 17.2385 20.8653 17.5792 20.8056C18.2652 20.6855 18.8249 20.3787 19.2402 19.798C19.4046 19.5682 19.6781 19.4192 19.8615 19.1993C20.1094 18.9023 20.3103 18.5665 20.5455 18.2582C20.8756 17.8253 21.1947 17.3774 21.5848 17.0052C21.6358 16.9565 22.2012 17.2612 22.312 17.5017C22.5062 17.9229 22.5922 18.4201 22.6027 18.8883C22.6075 19.1052 22.345 19.3424 22.1737 19.545C21.9995 19.7511 21.7813 19.9192 21.5993 20.1196C21.5636 20.159 21.5839 20.3231 21.6161 20.3362C21.7047 20.3719 21.8201 20.3835 21.9126 20.3588C22.1529 20.2946 22.3818 20.1824 22.624 20.1307C23.4616 19.952 24.3022 19.7875 25.1431 19.6249C25.4944 19.557 25.8499 19.5109 26.2024 19.4485C26.9236 19.3207 27.6437 19.1874 28.365 19.0601C28.447 19.0457 28.5487 19.026 28.615 19.0599C29.1152 19.3161 29.5513 19.0588 30.0203 18.9352C30.5577 18.7936 31.1205 18.7498 31.671 18.657C32.2104 18.566 32.7473 18.4588 33.2876 18.3754C33.4856 18.3448 33.7285 18.2886 33.8863 18.3697C34.537 18.7035 35.019 18.1339 35.5849 18.105C36.2153 18.0728 36.868 18.0744 37.4805 18.2046C38.1419 18.3453 38.673 19.2299 38.6894 19.9251C38.7012 20.4229 38.3597 20.6014 37.9899 20.6036C36.9818 20.6095 35.9733 20.5226 34.9648 20.5167C34.3619 20.5132 33.7561 20.5732 33.1556 20.6399C32.2463 20.7408 31.3362 20.9828 30.4345 20.9495C29.8857 20.9292 29.4827 21.0789 29.0393 21.2927C28.9229 21.3489 28.7601 21.3001 28.622 21.3217C28.1997 21.3878 27.7805 21.476 27.3569 21.5296C27.2427 21.5441 27.1099 21.4218 26.9972 21.4388C26.27 21.5489 25.5442 21.6701 24.8215 21.8077C24.12 21.9412 23.4213 22.0898 22.725 22.2478C21.996 22.4134 21.2783 22.641 20.5428 22.7613C19.9114 22.8646 19.809 23.3898 19.5094 23.788C19.0696 24.3724 18.5177 24.8715 18.0689 25.4499C17.6497 25.9901 17.3016 26.5855 16.9245 27.1581C16.5217 27.7695 16.1169 28.3798 15.7228 28.9968C15.5828 29.2159 15.525 29.5248 15.3355 29.667C14.9745 29.9379 14.9336 30.2651 14.8616 30.6721C14.7903 31.074 14.3837 31.4097 14.2802 31.8143C14.1642 32.2678 14.1209 32.7971 14.2526 33.2306C14.3122 33.4271 14.8704 33.472 15.2526 33.603L15.2517 33.6033ZM34.0644 23.9388C33.4801 23.9079 33.2025 24.2103 33.2843 24.7204C33.2915 24.7657 33.292 24.8243 33.2694 24.8602C33.0764 25.1661 32.8591 25.458 32.6837 25.7735C32.3195 26.429 32.1754 27.2242 31.4498 27.6485C31.3732 27.6933 31.362 27.8572 31.3294 27.9684C31.1657 28.5281 30.6189 28.6898 30.2108 28.2752C29.5857 27.6402 28.891 27.1249 28.024 26.8741C27.1306 26.6157 26.2851 26.1667 25.286 26.5669C24.0651 27.056 23.3286 28.5507 23.8252 29.7113C23.8894 29.8616 23.9088 30.0312 23.9719 30.1821C24.3246 31.0245 24.6629 31.8736 25.0508 32.6996C25.2329 33.0873 25.6211 33.3989 25.7309 33.796C26.0353 34.8977 26.8941 35.4754 27.7271 36.078C28.2409 36.4498 28.7899 36.7885 29.3616 37.0609C30.3225 37.5189 31.3025 37.9428 32.2981 38.3189C32.7408 38.4861 33.0541 38.2854 33.2129 37.7686C33.6147 36.4588 33.4348 34.9796 34.3598 33.8225C34.5794 33.5479 34.7188 33.1228 34.9978 32.9998C35.6368 32.718 35.9744 32.2121 36.3201 31.672C36.573 31.2766 36.8262 30.8718 37.142 30.5289C37.5415 30.0953 37.9179 29.6867 37.7461 29.0332C37.7273 28.9616 37.7594 28.8763 37.7693 28.7975C37.9373 27.4787 37.91 26.1908 37.0164 25.0978C36.2418 24.1504 35.1967 23.8414 34.0641 23.9387L34.0644 23.9388ZM38.3899 44.5666C38.4645 44.7796 38.5305 45.0489 38.6649 45.2776C38.6898 45.3198 39.0067 45.2259 39.1651 45.1471C39.6368 44.9121 40.099 44.6581 40.56 44.4025C40.9044 44.2113 41.278 44.0491 41.5725 43.7968C42.0421 43.3943 42.4639 42.9345 42.8928 42.4864C43.4197 41.9358 43.9339 41.3728 44.4518 40.8134C44.5048 40.7562 44.5547 40.6917 44.589 40.6221C44.7087 40.3779 44.7923 40.1114 44.9411 39.8873C45.3527 39.267 45.7909 38.664 46.2166 38.053C46.2459 38.011 46.259 37.9576 46.2798 37.9093C46.2303 37.8918 46.182 37.8662 46.1308 37.8581C45.7378 37.7957 45.405 37.8414 45.0314 38.0765C44.6345 38.3263 44.0899 38.3279 43.6523 38.5298C43.0394 38.8127 42.4296 39.1307 41.8858 39.5265C41.3587 39.9101 40.9084 40.4024 40.4405 40.8632C40.13 41.1687 39.7898 41.4674 39.566 41.8324C39.2454 42.3556 39.0052 42.9304 38.7572 43.4949C38.6156 43.8172 38.5264 44.1627 38.3903 44.5667L38.3899 44.5666ZM49.5539 28.283C49.383 28.1925 49.3147 28.1266 49.2764 28.1408C49.0732 28.2165 48.8782 28.3137 48.6793 28.401C47.8957 28.7454 47.0933 29.0531 46.3347 29.4456C45.8349 29.7042 45.4037 30.0933 44.9314 30.408C44.3219 30.814 43.593 31.1042 43.1155 31.6269C42.5672 32.2269 41.734 32.5904 41.4819 33.4479C41.4362 33.6031 41.4559 33.7777 41.4454 33.9435C41.7862 33.8052 42.1331 33.6803 42.4657 33.5247C42.8188 33.3595 43.0525 32.9976 43.5449 33.0486C43.8116 33.0762 44.1369 32.8735 44.3833 32.7002C45.1059 32.1921 45.8161 31.6639 46.5051 31.1108C47.0673 30.6594 47.5918 30.1615 48.1329 29.6837C48.3847 29.4614 48.6447 29.2472 48.8848 29.0128C49.1014 28.8012 49.2957 28.5669 49.5541 28.2833L49.5539 28.283Z" fill="white"/>
<path d="M24.2957 43.5889H24.0207C23.8189 42.9963 23.6165 42.4014 23.4139 41.8064C23.401 41.8082 23.3881 41.81 23.3752 41.8119C23.3618 42.1073 23.3717 42.4036 23.3693 42.6994C23.3669 42.9922 23.3671 43.285 23.366 43.5871H23.0785C23.0699 42.8325 23.0741 42.0872 23.0756 41.3364C23.1238 41.3281 23.1529 41.319 23.182 41.3185C23.2916 41.3168 23.4014 41.3178 23.5238 41.3178C23.7528 41.9402 23.9485 42.5649 24.1572 43.1904C24.2366 43.1703 24.2299 43.1044 24.246 43.0583C24.4345 42.5136 24.6207 41.9681 24.8078 41.4227C24.8176 41.3944 24.8303 41.3669 24.8456 41.3294C24.9727 41.3045 25.0979 41.3196 25.2202 41.331C25.2592 41.4981 25.2627 43.4084 25.225 43.5861H24.9583V41.8285C24.8745 41.8924 24.866 41.9616 24.8451 42.0222C24.6741 42.5148 24.5047 43.008 24.3344 43.5009C24.3246 43.529 24.3102 43.5557 24.2957 43.5885V43.5889Z" fill="white"/>
<path d="M33.832 46.6607C34.0916 46.8787 34.4568 47.3874 34.5638 47.6756H34.2108C34.1066 47.5134 34.0034 47.347 33.894 47.1848C33.8154 47.068 33.7323 46.9537 33.6439 46.8443C33.5544 46.7336 33.436 46.678 33.2894 46.6837C33.1684 46.6883 33.0471 46.6846 32.9062 46.6846C32.887 47.0198 32.9075 47.3428 32.8913 47.6697C32.8436 47.6763 32.8086 47.6841 32.7732 47.6857C32.7192 47.6881 32.6653 47.6863 32.615 47.6863C32.5806 47.5205 32.5771 45.612 32.6086 45.4269C32.6347 45.4212 32.664 45.4087 32.6929 45.4091C33.0852 45.4148 33.4778 45.4153 33.8697 45.431C34.306 45.4485 34.4767 45.8811 34.3987 46.1776C34.3504 46.361 34.246 46.4968 34.0703 46.5719C33.9977 46.603 33.922 46.6271 33.8318 46.6603L33.832 46.6607ZM32.9075 46.413C33.0165 46.413 33.1012 46.4148 33.1859 46.4126C33.3819 46.4072 33.5782 46.4067 33.7732 46.3914C33.95 46.3776 34.0846 46.2358 34.0979 46.0708C34.1123 45.8901 34.0034 45.738 33.8198 45.6918C33.7552 45.6756 33.6868 45.6682 33.62 45.6667C33.424 45.6625 33.2281 45.6625 33.0321 45.6623C32.9968 45.6623 32.9614 45.6687 32.9082 45.6739C32.8924 45.917 32.8905 46.1525 32.9076 46.413H32.9075Z" fill="white"/>
<path d="M17.6454 45.4177C17.7189 45.4149 17.7964 45.4085 17.8738 45.4101C17.9427 45.4118 17.9773 45.4626 18.0128 45.516C18.3217 45.9805 18.6325 46.4435 18.943 46.9068C18.9902 46.9772 19.0381 47.0468 19.0828 47.1125C19.104 47.1055 19.1101 47.1046 19.1151 47.1017C19.1197 47.0989 19.1265 47.0939 19.1265 47.0901C19.127 46.539 19.127 45.9882 19.127 45.4392C19.2337 45.3906 19.3202 45.4016 19.4167 45.4313V47.6752C19.33 47.6787 19.2462 47.6914 19.165 47.6816C19.1244 47.6768 19.0797 47.6378 19.053 47.6022C18.983 47.5094 18.9215 47.4102 18.857 47.3133C18.5922 46.9153 18.3277 46.5171 18.0624 46.1197C18.0301 46.0713 17.9926 46.0263 17.9401 45.9853C17.9191 46.2691 17.9215 46.5477 17.9213 46.8263C17.9213 47.1019 17.9213 47.3774 17.9213 47.6544C17.8299 47.7138 17.7403 47.6768 17.6561 47.686C17.6213 47.533 17.6128 45.6322 17.6456 45.418L17.6454 45.4177Z" fill="white"/>
<path d="M14.4799 46.0416C14.4004 46.0635 14.3272 46.0836 14.2492 46.1049C14.2261 46.067 14.2066 46.0438 14.1963 46.0169C14.0823 45.7184 13.8294 45.6151 13.5311 45.6272C13.0047 45.6488 12.7988 45.971 12.7541 46.355C12.7399 46.4757 12.7406 46.6003 12.7524 46.7213C12.7965 47.1764 13.1038 47.453 13.5617 47.4578C13.7764 47.46 13.9716 47.3954 14.1541 47.2847C14.2118 47.2497 14.2442 47.2059 14.2429 47.1364C14.2409 47.0328 14.2423 46.9289 14.2423 46.8072C14.0256 46.7626 13.8099 46.809 13.5893 46.7757V46.563C13.7521 46.5248 14.3552 46.5256 14.5169 46.565C14.5208 46.6084 14.5285 46.6558 14.5285 46.7031C14.5285 46.881 14.5225 47.0589 14.5265 47.2366C14.5285 47.3243 14.5046 47.3878 14.4313 47.44C14.0278 47.7276 13.5895 47.7956 13.1221 47.6381C12.781 47.5234 12.5727 47.2722 12.4869 46.9296C12.4027 46.5937 12.422 46.2602 12.5767 45.9429C12.6893 45.7119 12.8637 45.5464 13.1057 45.4587C13.3854 45.3574 13.6698 45.3465 13.9541 45.4394C14.2399 45.5325 14.4147 45.7263 14.4799 46.0416Z" fill="currentColor"/>
<path d="M16.0369 47.7241C15.5277 47.715 15.1511 47.4134 15.0222 46.9222C14.9513 46.6524 14.9649 46.3868 15.0386 46.1227C15.2087 45.513 15.8189 45.2844 16.2909 45.392C16.7795 45.5034 17.0965 45.8371 17.1504 46.4474C17.1686 46.6528 17.1362 46.8528 17.0677 47.0447C16.9108 47.4843 16.5287 47.7329 16.0369 47.7242V47.7241ZM16.0799 45.6389C15.7436 45.6308 15.445 45.8236 15.3552 46.1249C15.2752 46.3931 15.2601 46.6669 15.3445 46.9397C15.4369 47.2392 15.7154 47.455 16.0264 47.4668C16.3552 47.4793 16.6556 47.2942 16.7631 46.9926C16.867 46.7014 16.8723 46.403 16.7574 46.1119C16.6373 45.8071 16.408 45.6498 16.0797 45.6387L16.0799 45.6389Z" fill="white"/>
<path d="M30.3931 45.4379C30.5277 45.3988 31.86 45.3957 32.0246 45.436V45.6701C31.9694 45.6751 31.9172 45.6837 31.8651 45.6841C31.5461 45.6856 31.2272 45.6852 30.9082 45.6854C30.8417 45.6854 30.7752 45.6854 30.6947 45.6854C30.6691 45.9195 30.6774 46.1362 30.6863 46.3668C30.754 46.3729 30.8071 46.3814 30.8601 46.3815C31.1546 46.3825 31.4489 46.3808 31.7434 46.3814C31.8027 46.3814 31.8622 46.3869 31.9299 46.3902V46.6392C31.7213 46.6409 31.5213 46.6429 31.3215 46.6436C31.1198 46.6444 30.918 46.6436 30.7216 46.6436C30.669 46.7895 30.6625 47.2225 30.7097 47.4114C30.9294 47.4271 31.1546 47.4171 31.3795 47.419C31.6054 47.4208 31.8314 47.4193 32.0701 47.4193V47.6825C31.5134 47.6902 30.9583 47.6899 30.4062 47.6854C30.3708 47.535 30.3621 45.6766 30.3927 45.4375L30.3931 45.4379Z" fill="white"/>
<path d="M16.5124 42.4434C16.527 42.6946 16.4732 42.9066 16.3666 43.1044C16.1923 43.4272 15.9166 43.5977 15.5535 43.6206C15.4323 43.6281 15.3067 43.627 15.1884 43.6033C14.8536 43.5357 14.61 43.3395 14.4772 43.0252C14.3118 42.6338 14.3129 42.2362 14.4973 41.8509C14.6514 41.5286 14.9177 41.3493 15.2721 41.3051C15.4433 41.2837 15.614 41.2872 15.7811 41.3399C16.2537 41.4889 16.4721 41.8953 16.5117 42.3031C16.517 42.3576 16.5124 42.4132 16.5124 42.4434ZM14.6444 42.4524C14.6597 42.6241 14.6735 42.7883 14.7483 42.9416C14.8805 43.2121 15.0918 43.3653 15.3978 43.3802C15.7102 43.3955 15.9592 43.2742 16.0982 42.9977C16.2796 42.6371 16.2765 42.2611 16.0826 41.9021C15.94 41.6384 15.6942 41.5255 15.4061 41.5412C15.0976 41.5581 14.8483 41.6979 14.7398 42.0064C14.6899 42.1485 14.6752 42.3031 14.6444 42.452V42.4524Z" fill="currentColor"/>
<path d="M20.035 45.4189H20.3169C20.3206 45.4964 20.326 45.5618 20.3267 45.6273C20.3311 46.0262 20.3342 46.4252 20.3381 46.8241C20.3385 46.867 20.3405 46.9101 20.344 46.9528C20.3696 47.2708 20.5313 47.4348 20.8477 47.4475C20.9569 47.4519 21.0709 47.4432 21.1764 47.4162C21.3818 47.3633 21.4669 47.2009 21.4912 47.0064C21.507 46.8789 21.5068 46.7491 21.5074 46.6204C21.5092 46.2277 21.5081 45.8353 21.5081 45.4399C21.6033 45.3839 21.6976 45.4054 21.8046 45.4262C21.8087 45.4699 21.8155 45.5106 21.8157 45.5515C21.8162 45.9627 21.8181 46.374 21.8142 46.7852C21.8131 46.895 21.8032 47.0066 21.7816 47.1141C21.7184 47.4278 21.5287 47.6267 21.2146 47.6959C21.0147 47.7399 20.8118 47.7401 20.6118 47.6959C20.2952 47.6259 20.1129 47.4235 20.0571 47.1069C20.0411 47.0165 20.0285 46.9242 20.0278 46.8329C20.0239 46.3909 20.0243 45.9491 20.0239 45.5071C20.0239 45.4833 20.0296 45.4596 20.035 45.4191V45.4189Z" fill="white"/>
<path d="M27.9264 45.4395C27.9264 45.6119 27.9264 45.7771 27.9264 45.9421C27.9264 46.2058 27.9318 46.4697 27.9239 46.7333C27.9196 46.8731 27.8988 47.0134 27.874 47.1515C27.8198 47.4517 27.6253 47.6233 27.3389 47.6909C27.1157 47.7436 26.8888 47.7423 26.6658 47.6801C26.3905 47.6033 26.2295 47.4176 26.1739 47.1414C26.1546 47.0456 26.1433 46.9467 26.1424 46.8493C26.1382 46.4016 26.1387 45.9537 26.1382 45.506C26.1382 45.482 26.1435 45.4583 26.1481 45.4207H26.4294C26.4317 45.4959 26.4351 45.5614 26.4358 45.627C26.4393 46.0257 26.4415 46.4242 26.4461 46.8228C26.447 46.8961 26.454 46.9699 26.4647 47.0427C26.4951 47.2511 26.6248 47.3826 26.8281 47.4303C26.9826 47.4664 27.1353 47.4493 27.2839 47.416C27.4145 47.3867 27.5216 47.3042 27.5542 47.1664C27.5865 47.0305 27.6146 46.8902 27.6176 46.7513C27.6261 46.3712 27.6202 45.9907 27.62 45.6106C27.62 45.5557 27.62 45.5006 27.62 45.4478C27.7041 45.4155 27.8063 45.4127 27.9266 45.4395H27.9264Z" fill="white"/>
<path d="M20.8091 41.3325H21.0962C21.0962 41.4063 21.0962 41.4663 21.0962 41.5266C21.0968 41.8945 21.0951 42.2627 21.0995 42.6306C21.1008 42.7404 21.1099 42.8518 21.1307 42.9594C21.1765 43.1977 21.3274 43.3332 21.5699 43.3616C21.7117 43.3782 21.8509 43.3601 21.9869 43.3134C22.1134 43.2697 22.1974 43.1831 22.2285 43.0574C22.2546 42.9511 22.2697 42.8399 22.2718 42.7305C22.2788 42.3503 22.2773 41.97 22.281 41.5897C22.2817 41.5054 22.2898 41.4212 22.2948 41.3341H22.5683C22.5791 41.3621 22.5874 41.3733 22.5872 41.3844C22.5813 41.8931 22.5893 42.4025 22.5637 42.9102C22.5408 43.3601 22.2847 43.5929 21.8334 43.6288C21.6611 43.6425 21.4907 43.638 21.3228 43.5909C21.0844 43.5237 20.9279 43.3714 20.8623 43.1347C20.8297 43.0174 20.803 42.8942 20.801 42.7732C20.7929 42.3257 20.796 41.8778 20.7959 41.4301C20.7959 41.4008 20.8038 41.3717 20.8093 41.3325H20.8091Z" fill="white"/>
<path d="M17.2145 42.6718V43.5865H16.925C16.9062 43.4012 16.9177 43.2125 16.9158 43.0246C16.9138 42.8344 16.9149 42.6439 16.9149 42.4537C16.9149 42.2695 16.9123 42.0854 16.9162 41.9012C16.9201 41.7132 16.8963 41.5235 16.9359 41.3283C16.9777 41.3242 17.0132 41.3178 17.0488 41.3178C17.3127 41.3178 17.5768 41.3152 17.8405 41.3211C17.9503 41.3235 18.0615 41.3358 18.1687 41.3592C18.4403 41.4185 18.6043 41.6016 18.6461 41.8774C18.7048 42.2644 18.4755 42.594 18.088 42.6474C17.8827 42.6758 17.6718 42.6655 17.4633 42.6714C17.391 42.6734 17.3186 42.6718 17.2145 42.6718ZM17.2278 42.4088C17.4031 42.4088 17.5611 42.4123 17.719 42.4075C17.8227 42.4043 17.9285 42.3996 18.0293 42.3769C18.2455 42.3281 18.3582 42.1594 18.3337 41.9417C18.3109 41.7384 18.1656 41.6078 17.9453 41.6021C17.749 41.597 17.5527 41.5988 17.3563 41.5997C17.3156 41.5999 17.2749 41.6098 17.2278 41.6161V42.4086V42.4088Z" fill="white"/>
<path d="M12.3712 41.3397H14.1155V41.5841C13.8748 41.5891 13.6392 41.5941 13.3902 41.5992C13.3869 41.6808 13.3821 41.7465 13.3819 41.8123C13.3819 42.3156 13.383 42.8188 13.3829 43.3221C13.3829 43.4063 13.3771 43.4902 13.3738 43.5814H13.1046C13.1011 43.5085 13.0952 43.4431 13.0952 43.3775C13.0941 42.8558 13.0944 42.3342 13.0933 41.8125C13.0933 41.7469 13.0869 41.6814 13.0825 41.5966H12.4031C12.3632 41.5206 12.3526 41.435 12.3712 41.3397Z" fill="currentColor"/>
<path d="M28.5034 45.4172H28.8016C28.8049 45.4915 28.8104 45.5565 28.8104 45.6215C28.8112 46.1371 28.8108 46.6526 28.8108 47.1683C28.8108 47.2412 28.8108 47.3141 28.8108 47.3863C28.9439 47.4421 29.0675 47.4129 29.1874 47.4182C29.3038 47.4234 29.4206 47.4195 29.5371 47.4195C29.6587 47.4195 29.7801 47.4195 29.9158 47.4195C29.9206 47.5099 29.9243 47.581 29.929 47.6731C29.4567 47.7 28.9937 47.6812 28.5089 47.6882C28.4986 46.928 28.5134 46.1821 28.5034 45.4172Z" fill="white"/>
<path d="M22.704 47.4174H23.8016V47.6749H22.4272C22.3806 47.5233 22.3625 46.1511 22.3983 45.4396C22.4879 45.3809 22.5826 45.4109 22.6931 45.4279C22.7159 45.5912 22.7003 45.7546 22.7034 45.9168C22.7065 46.0822 22.704 46.2476 22.704 46.413C22.704 46.5723 22.704 46.7314 22.704 46.8907C22.704 47.0555 22.704 47.2205 22.704 47.4176V47.4174Z" fill="white"/>
<path d="M24.5574 47.4165C24.9392 47.4235 25.2975 47.4161 25.6651 47.4211V47.6778H24.2839C24.2474 47.5329 24.2336 45.7408 24.2671 45.424H24.5491C24.5642 45.6439 24.5544 45.8621 24.5563 46.0796C24.5581 46.294 24.5574 46.5084 24.5576 46.7228C24.5576 46.9426 24.5576 47.1627 24.5576 47.4165H24.5574Z" fill="white"/>
<path d="M19.0326 41.3289H19.3121C19.3346 41.9948 19.3075 42.6526 19.3276 43.33H20.4267V43.5882H19.0467C19.0075 43.4387 18.9944 41.5955 19.0326 41.3289Z" fill="white"/>
<path d="M35.0353 45.4163C35.1287 45.4113 35.212 45.4069 35.2834 45.4032C35.3002 45.4177 35.3051 45.4211 35.3088 45.4255C35.3129 45.4301 35.3178 45.4352 35.3186 45.4408C35.3225 45.4647 35.3278 45.489 35.3278 45.5131C35.3278 46.2122 35.3269 46.9113 35.3256 47.6104C35.3256 47.6277 35.3162 47.6451 35.3079 47.6742H35.0352V45.4161L35.0353 45.4163Z" fill="white"/>
<path d="M35.3185 44.9608V45.2483H35.043V44.9336C35.1476 44.9262 35.2374 44.9 35.3185 44.9608Z" fill="white"/>
<path d="M20.4924 44.9636H20.7616V45.2682C20.6787 45.2722 20.5975 45.2761 20.5104 45.2803C20.4679 45.172 20.4697 45.0737 20.4924 44.9634V44.9636Z" fill="white"/>
<path d="M16.2061 45.2691V44.9666H16.469C16.5202 45.0605 16.4957 45.159 16.4764 45.2691H16.2061Z" fill="white"/>
<path d="M21.0811 44.9603H21.3367V45.2487C21.2587 45.272 21.168 45.2748 21.0647 45.257C21.0562 45.1599 21.0359 45.0606 21.0811 44.9603Z" fill="white"/>
<path d="M27.4484 45.269H27.195C27.1427 45.1751 27.1802 45.0746 27.1712 44.9639H27.4484V45.269Z" fill="white"/>
<path d="M15.6357 45.2638V44.9644H15.8967C15.9427 45.057 15.9203 45.1526 15.9136 45.2638H15.6359H15.6357Z" fill="white"/>
<path d="M26.8707 44.968V45.2652H26.6021V44.968H26.8707Z" fill="white"/>
</g>
<defs>
<clipPath id="clip0_12_76567">
<rect width="41.2365" height="30.92" fill="white" transform="translate(12 17)"/>
</clipPath>
</defs>
</svg>
