<svg width="24" height="24" viewBox="0 0 24 24" fill="none" xmlns="http://www.w3.org/2000/svg">
<g clip-path="url(#clip0_12_80148)">
<path d="M7.3501 17.1738C7.98579 17.7533 8.70468 18.1983 9.50675 18.509C10.3088 18.8197 11.1399 18.9751 12.0001 18.9751C12.8602 18.9751 13.6914 18.8197 14.4934 18.509C15.2955 18.1983 16.0144 17.7533 16.6501 17.1738" stroke="currentColor" stroke-linecap="round" stroke-linejoin="round"/>
<path d="M6.57496 6.57495V8.89995" stroke="currentColor" stroke-linecap="round" stroke-linejoin="round"/>
<path d="M17.4251 6.57495V8.89995" stroke="currentColor" stroke-linecap="round" stroke-linejoin="round"/>
<path d="M12 6.57495V12C12 12.428 11.8487 12.7933 11.5461 13.096C11.2434 13.3986 10.8781 13.55 10.45 13.55H9.67505" stroke="currentColor" stroke-linecap="round" stroke-linejoin="round"/>
<path d="M23.6251 18.9751V22.0751C23.6251 22.5031 23.4738 22.8685 23.1711 23.1711C22.8685 23.4738 22.5031 23.6251 22.0751 23.6251H18.9751" stroke="currentColor" stroke-linecap="round" stroke-linejoin="round"/>
<path d="M18.9751 0.375H22.0751C22.5031 0.375 22.8685 0.526328 23.1711 0.828984C23.4738 1.13164 23.6251 1.49698 23.6251 1.925V5.025" stroke="currentColor" stroke-linecap="round" stroke-linejoin="round"/>
<path d="M0.375 5.025V1.925C0.375 1.49698 0.526328 1.13164 0.828984 0.828984C1.13164 0.526328 1.49698 0.375 1.925 0.375H5.025" stroke="currentColor" stroke-linecap="round" stroke-linejoin="round"/>
<path d="M5.025 23.6251H1.925C1.49698 23.6251 1.13164 23.4738 0.828984 23.1711C0.526328 22.8685 0.375 22.5031 0.375 22.0751V18.9751" stroke="currentColor" stroke-linecap="round" stroke-linejoin="round"/>
</g>
<defs>
<clipPath id="clip0_12_80148">
<rect width="24" height="24" fill="white"/>
</clipPath>
</defs>
</svg>
