<svg width="24" height="24" viewBox="0 0 24 24" fill="none" xmlns="http://www.w3.org/2000/svg">
<path fill-rule="evenodd" clip-rule="evenodd" d="M5.87988 8.8499C5.87988 9.7252 6.36019 10.534 7.13988 10.9717C7.91957 11.4093 8.88019 11.4093 9.65988 10.9717C10.4396 10.534 10.9199 9.7252 10.9199 8.8499C10.9199 7.9746 10.4396 7.16579 9.65988 6.72814C8.88019 6.29049 7.91957 6.29049 7.13988 6.72814C6.36019 7.16579 5.87988 7.9746 5.87988 8.8499H5.87988Z" stroke="currentColor" stroke-linecap="round" stroke-linejoin="round"/>
<path fill-rule="evenodd" clip-rule="evenodd" d="M4.08008 16.2C4.08008 13.8804 6.01421 12 8.40008 12C10.7859 12 12.7201 13.8804 12.7201 16.2H4.08008Z" stroke="currentColor" stroke-linecap="round" stroke-linejoin="round"/>
<path d="M14.1599 9.20007H18.4799" stroke="currentColor" stroke-linecap="round" stroke-linejoin="round"/>
<path d="M14.1599 12.0001H19.9199" stroke="currentColor" stroke-linecap="round" stroke-linejoin="round"/>
<path fill-rule="evenodd" clip-rule="evenodd" d="M21.36 3.6001H2.63995C1.84466 3.6001 1.19995 4.2269 1.19995 5.0001V19.0001C1.19995 19.7733 1.84466 20.4001 2.63995 20.4001H5.51995C5.51995 19.6269 6.16466 19.0001 6.95995 19.0001C7.75524 19.0001 8.39995 19.6269 8.39995 20.4001H15.6C15.6 19.6269 16.2447 19.0001 17.04 19.0001C17.8352 19.0001 18.48 19.6269 18.48 20.4001H21.36C22.1552 20.4001 22.8 19.7733 22.8 19.0001V5.0001C22.8 4.2269 22.1552 3.6001 21.36 3.6001Z" stroke="currentColor" stroke-linecap="round" stroke-linejoin="round"/>
</svg>
