<svg width="24" height="24" viewBox="0 0 24 24" fill="none" xmlns="http://www.w3.org/2000/svg">
<path d="M14.3994 16.7984H13.5994C13.1576 16.7984 12.7805 16.6423 12.468 16.33C12.1556 16.0176 11.9994 15.6407 11.9994 15.199V11.2004C11.9994 10.9795 11.9213 10.791 11.7651 10.6349C11.6089 10.4787 11.4203 10.4006 11.1994 10.4006H10.3994" stroke="currentColor" stroke-linecap="round" stroke-linejoin="round"/>
<circle cx="11.9601" cy="7.40005" r="0.6" fill="currentColor" stroke="currentColor"/>
<path d="M12 0.5C12.7554 0.5 13.5033 0.573359 14.2441 0.720703C14.9848 0.868007 15.7037 1.0861 16.4014 1.375C17.0992 1.66402 17.7626 2.01889 18.3906 2.43848C19.0184 2.85792 19.599 3.33438 20.1328 3.86816C20.6668 4.40218 21.144 4.98342 21.5635 5.61133C21.9829 6.2392 22.3371 6.90199 22.626 7.59961C22.9148 8.2972 23.1322 9.01633 23.2793 9.75684C23.4264 10.4974 23.5003 11.245 23.5 12L23.4863 12.5654C23.4589 13.1288 23.3896 13.6879 23.2793 14.2432C23.1322 14.9837 22.9148 15.7028 22.626 16.4004C22.3371 17.098 21.9829 17.7608 21.5635 18.3887C21.144 19.0166 20.6668 19.5978 20.1328 20.1318C19.599 20.6656 19.0184 21.1421 18.3906 21.5615C17.7626 21.9811 17.0992 22.336 16.4014 22.625C15.7037 22.9139 14.9848 23.132 14.2441 23.2793C13.5033 23.4266 12.7554 23.5 12 23.5L11.4346 23.4863C10.8709 23.4587 10.3114 23.3898 9.75586 23.2793C9.01523 23.132 8.29628 22.9139 7.59863 22.625C6.9008 22.336 6.23737 21.9811 5.60938 21.5615C4.98163 21.1421 4.40102 20.6656 3.86719 20.1318C3.33317 19.5978 2.85603 19.0166 2.43652 18.3887C2.01706 17.7608 1.66287 17.098 1.37402 16.4004C1.08521 15.7028 0.867818 14.9837 0.720703 14.2432C0.573594 13.5026 0.499739 12.755 0.5 12L0.513672 11.4346C0.541115 10.8712 0.610397 10.3121 0.720703 9.75684C0.867818 9.01632 1.0852 8.2972 1.37402 7.59961C1.66287 6.90199 2.01706 6.2392 2.43652 5.61133C2.85603 4.98342 3.33317 4.40218 3.86719 3.86816C4.40102 3.33438 4.98163 2.85792 5.60938 2.43848C6.23737 2.01889 6.9008 1.66402 7.59863 1.375C8.29628 1.0861 9.01523 0.868007 9.75586 0.720703C10.3114 0.610215 10.8709 0.541302 11.4346 0.513672L12 0.5Z" stroke="currentColor" stroke-linecap="round" stroke-linejoin="round"/>
</svg>
