<svg width="24" height="24" viewBox="0 0 24 24" fill="none" xmlns="http://www.w3.org/2000/svg">
<g clip-path="url(#clip0_12_79183)">
<path d="M19.9576 15.1826H21.5494C22.4284 15.1826 23.1411 14.4699 23.1411 13.5909V2.44889C23.1411 1.56981 22.4284 0.857178 21.5494 0.857178H5.63224C4.75316 0.857178 4.04053 1.56981 4.04053 2.44889V4.83645" stroke="currentColor" stroke-linecap="round" stroke-linejoin="round"/>
<path d="M2.45319 17.5714L1.0712 20.761C0.464845 21.8222 1.23104 23.1423 2.45319 23.1423H15.1845C16.4067 23.1423 17.1729 21.8222 16.5665 20.761L15.1845 17.5714" stroke="currentColor" stroke-linecap="round" stroke-linejoin="round"/>
<path d="M2.45068 17.5712V11.2044C2.45068 10.3253 3.16331 9.61267 4.0424 9.61267H13.5927C14.4717 9.61267 15.1844 10.3253 15.1844 11.2044V17.5712H2.45068Z" stroke="currentColor" stroke-linecap="round" stroke-linejoin="round"/>
</g>
<defs>
<clipPath id="clip0_12_79183">
<rect width="24" height="24" fill="white"/>
</clipPath>
</defs>
</svg>
