<svg width="24" height="24" viewBox="0 0 24 24" fill="none" xmlns="http://www.w3.org/2000/svg">
<g clip-path="url(#clip0_12_79851)">
<path d="M12 23.1429C18.1541 23.1429 23.1429 18.1541 23.1429 12C23.1429 5.846 18.1541 0.857178 12 0.857178C5.846 0.857178 0.857178 5.846 0.857178 12C0.857178 18.1541 5.846 23.1429 12 23.1429Z" stroke="currentColor" stroke-linecap="round" stroke-linejoin="round"/>
<path d="M1.71436 16.2856H4.71436C5.51 16.2856 6.27307 15.9696 6.83568 15.4069C7.39828 14.8443 7.71436 14.0813 7.71436 13.2856V10.7142C7.71436 9.91854 8.03043 9.15548 8.59304 8.59287C9.15564 8.03026 9.91871 7.71419 10.7144 7.71419C11.51 7.71419 12.2731 7.39812 12.8357 6.83551C13.3983 6.2729 13.7144 5.50984 13.7144 4.71419V0.977051" stroke="currentColor" stroke-linecap="round" stroke-linejoin="round"/>
<path d="M23.1429 11.8285C22.2846 11.3832 21.3328 11.1482 20.3658 11.1428H16.7144C15.9187 11.1428 15.1556 11.4589 14.593 12.0215C14.0304 12.5841 13.7144 13.3472 13.7144 14.1428C13.7144 14.9385 14.0304 15.7015 14.593 16.2641C15.1556 16.8268 15.9187 17.1428 16.7144 17.1428C17.2827 17.1428 17.8277 17.3686 18.2296 17.7705C18.6314 18.1723 18.8572 18.7174 18.8572 19.2857V20.7771" stroke="currentColor" stroke-linecap="round" stroke-linejoin="round"/>
</g>
<defs>
<clipPath id="clip0_12_79851">
<rect width="24" height="24" fill="white"/>
</clipPath>
</defs>
</svg>
