<svg width="24" height="24" viewBox="0 0 24 24" fill="none" xmlns="http://www.w3.org/2000/svg">
<g clip-path="url(#clip0_12_79847)">
<path d="M12.0003 23.1429C18.1543 23.1429 23.1431 18.1541 23.1431 12C23.1431 5.846 18.1543 0.857178 12.0003 0.857178C5.84625 0.857178 0.857422 5.846 0.857422 12C0.857422 18.1541 5.84625 23.1429 12.0003 23.1429Z" stroke="currentColor" stroke-linecap="round" stroke-linejoin="round"/>
<path d="M0.857422 12H23.1431" stroke="currentColor" stroke-linecap="round" stroke-linejoin="round"/>
<path d="M16.2853 12C16.0748 16.0749 14.5739 19.9772 11.9996 23.1429C9.42527 19.9772 7.92438 16.0749 7.71387 12C7.92438 7.92519 9.42527 4.02287 11.9996 0.857178C14.5739 4.02287 16.0748 7.92519 16.2853 12V12Z" stroke="currentColor" stroke-linecap="round" stroke-linejoin="round"/>
</g>
<defs>
<clipPath id="clip0_12_79847">
<rect width="24" height="24" fill="white"/>
</clipPath>
</defs>
</svg>
