<svg width="24" height="24" viewBox="0 0 24 24" fill="none" xmlns="http://www.w3.org/2000/svg">
<g clip-path="url(#clip0_12_79840)">
<circle cx="12" cy="12" r="11.5" stroke="currentColor"/>
<path d="M12 0.5C13.4032 0.500224 14.8026 1.62754 15.8809 3.74219C16.9453 5.82983 17.6182 8.74863 17.6182 12C17.6182 15.2514 16.9453 18.1702 15.8809 20.2578C14.8026 22.3725 13.4032 23.4998 12 23.5C10.5966 23.5 9.19651 22.3727 8.11816 20.2578C7.05379 18.1702 6.38086 15.2513 6.38086 12C6.38086 8.74866 7.05379 5.82983 8.11816 3.74219C9.19651 1.62733 10.5966 0.5 12 0.5Z" stroke="currentColor"/>
<path d="M19.7345 20.9682C18.4203 19.1176 15.4515 17.8267 11.9996 17.8267C8.5477 17.8267 5.57887 19.1176 4.26465 20.9682" stroke="currentColor"/>
<path d="M19.6984 2.92241C18.3841 4.77302 15.4153 6.06396 11.9634 6.06396C8.51157 6.06396 5.54274 4.77302 4.22852 2.92241" stroke="currentColor"/>
<path d="M12.0186 0L11.5186 5.983e-07L11.5186 24L12.0186 24L12.5186 24L12.5186 -5.983e-07L12.0186 0Z" fill="currentColor"/>
<path d="M0 12.0183H24" stroke="currentColor"/>
</g>
<defs>
<clipPath id="clip0_12_79840">
<rect width="24" height="24" fill="white"/>
</clipPath>
</defs>
</svg>
