<svg width="24" height="24" viewBox="0 0 24 24" fill="none" xmlns="http://www.w3.org/2000/svg">
<g clip-path="url(#clip0_12_80810)">
<path d="M21.1406 18.3281H11.2969L5.67188 22.5469V18.3281H2.85938C2.48642 18.3281 2.12873 18.18 1.86501 17.9163C1.60128 17.6526 1.45312 17.2948 1.45312 16.9219V2.85938C1.45312 2.48642 1.60128 2.12873 1.86501 1.86501C2.12873 1.60128 2.48642 1.45312 2.85938 1.45312H21.1406C21.5136 1.45312 21.8713 1.60128 22.135 1.86501C22.3987 2.12873 22.5469 2.48642 22.5469 2.85938V16.9219C22.5469 17.2948 22.3987 17.6526 22.135 17.9163C21.8713 18.18 21.5136 18.3281 21.1406 18.3281Z" stroke="currentColor" stroke-linecap="round" stroke-linejoin="round"/>
<path d="M12 14.8125C11.8058 14.8125 11.6484 14.6551 11.6484 14.4609C11.6484 14.2668 11.8058 14.1094 12 14.1094" stroke="currentColor"/>
<path d="M12 14.8125C12.1942 14.8125 12.3516 14.6551 12.3516 14.4609C12.3516 14.2668 12.1942 14.1094 12 14.1094" stroke="currentColor"/>
<path d="M12 11.2969V5.67188" stroke="currentColor" stroke-linecap="round" stroke-linejoin="round"/>
</g>
<defs>
<clipPath id="clip0_12_80810">
<rect width="24" height="24" fill="white"/>
</clipPath>
</defs>
</svg>
