<svg width="24" height="24" viewBox="0 0 24 24" fill="none" xmlns="http://www.w3.org/2000/svg">
<mask id="mask0_12_81183" style="mask-type:luminance" maskUnits="userSpaceOnUse" x="0" y="0" width="24" height="24">
<path d="M0 12C0 18.6274 5.37258 24 12 24C18.6274 24 24 18.6274 24 12C24 5.37258 18.6274 0 12 0C5.37258 0 0 5.37258 0 12Z" fill="white"/>
</mask>
<g mask="url(#mask0_12_81183)">
<path d="M22.5399 24H1.48989C0.669886 24 0.0198859 23.34 0.0198859 22.53V1.47C0.0098859 0.66 0.679886 0 1.48989 0H22.5499C23.3699 0 24.0199 0.66 24.0199 1.47V22.53C24.0199 23.35 23.3599 24 22.5499 24H22.5399Z" fill="currentColor"/>
<path d="M16.5 7.49999C16.5 7.56999 16.5 7.63999 16.5 7.70999C15.96 7.58999 15.39 7.49999 14.8 7.41999C14.76 5.90999 13.52 4.68999 12 4.68999C10.48 4.68999 9.23999 5.89999 9.19999 7.41999C8.60999 7.48999 8.04999 7.58999 7.49999 7.70999C7.49999 7.63999 7.49999 7.56999 7.49999 7.49999C7.49999 5.00999 9.50999 2.98999 12 2.98999C14.48 2.98999 16.5 5.01999 16.5 7.49999ZM12.02 21.02C19.97 17.67 18.76 9.14999 18.76 9.14999C16.91 8.45999 14.56 8.03999 12.01 8.03999C9.45999 8.03999 7.11999 8.44999 5.25999 9.14999C5.25999 9.14999 4.04999 17.67 12 21.02H12.02Z" fill="white"/>
<path d="M14.2098 15.65C14.2098 15.75 14.2098 15.84 14.1898 15.94H9.8198C9.8098 15.85 9.7998 15.75 9.7998 15.65C9.7998 14.66 10.4598 13.82 11.3598 13.54C10.7498 13.29 10.3198 12.69 10.3198 11.98C10.3198 11.05 11.0698 10.3 11.9998 10.3C12.9298 10.3 13.6798 11.05 13.6798 11.98C13.6798 12.68 13.2498 13.28 12.6398 13.54C13.5498 13.81 14.1998 14.66 14.1998 15.65H14.2098Z" fill="currentColor"/>
</g>
</svg>
