<svg width="24" height="24" viewBox="0 0 24 24" fill="none" xmlns="http://www.w3.org/2000/svg">
<g clip-path="url(#clip0_12_79381)">
<path d="M11.25 17.25C11.25 18.8413 11.8821 20.3674 13.0074 21.4926C14.1326 22.6179 15.6587 23.25 17.25 23.25C18.8413 23.25 20.3674 22.6179 21.4926 21.4926C22.6179 20.3674 23.25 18.8413 23.25 17.25C23.25 15.6587 22.6179 14.1326 21.4926 13.0074C20.3674 11.8821 18.8413 11.25 17.25 11.25C15.6587 11.25 14.1326 11.8821 13.0074 13.0074C11.8821 14.1326 11.25 15.6587 11.25 17.25Z" stroke="currentColor" stroke-linecap="round" stroke-linejoin="round"/>
<path d="M13.0081 21.4911L21.4921 13.0081" stroke="currentColor" stroke-linecap="round" stroke-linejoin="round"/>
<path d="M10.454 23.145C8.37862 22.8569 6.42493 21.9951 4.81298 20.6566C3.20103 19.3181 1.99486 17.5561 1.33035 15.569C0.665843 13.582 0.569398 11.4488 1.05188 9.40991C1.53437 7.37099 2.57661 5.5073 4.0612 4.02879C5.54578 2.55028 7.41373 1.5157 9.45462 1.04159C11.4955 0.567474 13.6282 0.672672 15.6126 1.34533C17.5969 2.01799 19.3539 3.23137 20.6858 4.84881C22.0177 6.46624 22.8715 8.42345 23.151 10.5" stroke="currentColor" stroke-linecap="round" stroke-linejoin="round"/>
<path d="M9.289 22.921C7.768 20.689 6.75 16.633 6.75 12C6.75 7.36698 7.768 3.31098 9.289 1.07898" stroke="currentColor" stroke-linecap="round" stroke-linejoin="round"/>
<path d="M0.774902 11.25H10.4999" stroke="currentColor" stroke-linecap="round" stroke-linejoin="round"/>
<path d="M2.99902 5.25H21" stroke="currentColor" stroke-linecap="round" stroke-linejoin="round"/>
<path d="M2.0481 17.25H7.2141" stroke="currentColor" stroke-linecap="round" stroke-linejoin="round"/>
<path d="M14.7109 1.07898C16.0051 3.26446 16.7934 5.71202 17.0179 8.24198" stroke="currentColor" stroke-linecap="round" stroke-linejoin="round"/>
</g>
<defs>
<clipPath id="clip0_12_79381">
<rect width="24" height="24" fill="white"/>
</clipPath>
</defs>
</svg>
