<svg width="24" height="24" viewBox="0 0 24 24" fill="none" xmlns="http://www.w3.org/2000/svg">
<path fill-rule="evenodd" clip-rule="evenodd" d="M22 14.0697C22 13.8731 21.961 13.684 21.8829 13.5024C21.8048 13.3207 21.6936 13.1604 21.5494 13.0214C21.4051 12.8824 21.2388 12.7752 21.0503 12.7C20.8618 12.6248 20.6655 12.5872 20.4615 12.5872H15.8462V14.0697H8.15385V12.5872H3.53846C3.33445 12.5872 3.1382 12.6248 2.94972 12.7C2.76123 12.7752 2.59486 12.8824 2.4506 13.0214C2.30635 13.1604 2.19518 13.3207 2.11711 13.5024C2.03904 13.684 2 13.8731 2 14.0697V18.5174C2 18.714 2.03904 18.9031 2.11711 19.0847C2.19518 19.2664 2.30635 19.4267 2.4506 19.5657C2.59486 19.7047 2.76123 19.8119 2.94972 19.8871C3.1382 19.9623 3.33445 19.9999 3.53846 19.9999H20.4615C20.6655 19.9999 20.8618 19.9623 21.0503 19.8871C21.2388 19.8119 21.4051 19.7047 21.5494 19.5657C21.6936 19.4267 21.8048 19.2664 21.8829 19.0847C21.961 18.9031 22 18.714 22 18.5174V14.0697Z" stroke="currentColor" stroke-linecap="round" stroke-linejoin="round"/>
<path d="M3.53809 8.13961H20.4612" stroke="currentColor" stroke-linecap="round" stroke-linejoin="round"/>
<path d="M3.53809 3.69186H20.4612" stroke="currentColor" stroke-linecap="round" stroke-linejoin="round"/>
</svg>
