<svg width="24" height="24" viewBox="0 0 24 24" fill="none" xmlns="http://www.w3.org/2000/svg">
<path d="M9.86646 21.1506C10.0056 21.6235 10.2729 22.0077 10.6683 22.3031C11.0638 22.5985 11.5085 22.7462 12.0025 22.7462C12.4964 22.7462 12.9411 22.5985 13.3366 22.3031C13.732 22.0077 13.9993 21.6235 14.1385 21.1506" stroke="currentColor" stroke-linecap="round" stroke-linejoin="round"/>
<path d="M11.9998 2.39995V1.19995" stroke="currentColor" stroke-linecap="round" stroke-linejoin="round"/>
<path fill-rule="evenodd" clip-rule="evenodd" d="M11.9999 2.39478C12.5252 2.39478 13.0454 2.4459 13.5606 2.54816C14.0758 2.65041 14.5761 2.80182 15.0614 3.0024C15.5467 3.20298 16.0077 3.44886 16.4445 3.74005C16.8812 4.03125 17.2853 4.36215 17.6568 4.73277C18.0282 5.10339 18.3598 5.5066 18.6517 5.9424C18.9435 6.3782 19.1899 6.83821 19.3909 7.32245C19.592 7.80669 19.7437 8.30583 19.8462 8.8199C19.9487 9.33396 19.9999 9.85305 19.9999 10.3772C19.9999 17.8764 21.5999 19.1578 21.5999 19.1578H2.3999C2.3999 19.1578 3.9999 17.1186 3.9999 10.3772C3.9999 9.85305 4.05114 9.33396 4.15362 8.8199C4.2561 8.30583 4.40785 7.80669 4.60887 7.32245C4.80989 6.83822 5.05631 6.3782 5.34815 5.9424C5.63998 5.5066 5.97161 5.10339 6.34305 4.73277C6.71448 4.36215 7.11858 4.03125 7.55534 3.74005C7.9921 3.44886 8.45313 3.20298 8.93844 3.0024C9.42374 2.80182 9.92399 2.65041 10.4392 2.54816C10.9544 2.4459 11.4746 2.39478 11.9999 2.39478Z" stroke="currentColor" stroke-linecap="round" stroke-linejoin="round"/>
</svg>
