<svg width="24" height="24" viewBox="0 0 24 24" fill="none" xmlns="http://www.w3.org/2000/svg">
<path d="M22.8 11.2675C22.8 13.1903 22.8 14.8745 22.8 18.7201C22.8 18.9429 22.7634 19.1572 22.6903 19.363C22.6173 19.5688 22.5132 19.7505 22.3782 19.908C22.2432 20.0656 22.0874 20.187 21.911 20.2722C21.7346 20.3575 21.5509 20.4001 21.36 20.4001H2.63995C2.449 20.4001 2.26531 20.3575 2.08889 20.2722C1.91247 20.187 1.75674 20.0656 1.62172 19.908C1.48669 19.7505 1.38264 19.5688 1.30956 19.363C1.23649 19.1572 1.19995 18.9429 1.19995 18.7201V5.2801C1.19995 5.05731 1.23649 4.84301 1.30956 4.63719C1.38264 4.43136 1.48669 4.24969 1.62172 4.09216C1.75674 3.93463 1.91247 3.81323 2.08889 3.72798C2.26531 3.64273 2.449 3.6001 2.63995 3.6001C8.67164 3.6001 8.98411 3.6001 12 3.6001" stroke="currentColor" stroke-linecap="round" stroke-linejoin="round"/>
<path d="M16.2 9.6001L19.8 13.8001" stroke="currentColor" stroke-linecap="round" stroke-linejoin="round"/>
<path d="M7.80005 9.6001L4.20005 13.8001" stroke="currentColor" stroke-linecap="round" stroke-linejoin="round"/>
<path d="M2.10229 4.73096L9.82464 10.3767C11.1125 11.3376 12.8812 11.3287 14.1593 10.3548L16.1384 8.75188" stroke="currentColor" stroke-linecap="round"/>
<circle cx="19.7996" cy="4.2" r="4.2" fill="currentColor"/>
</svg>
