<svg width="24" height="24" viewBox="0 0 24 24" fill="none" xmlns="http://www.w3.org/2000/svg">
<path d="M15.3623 1.45312H21.9248C21.9248 1.45312 22.8623 1.45312 22.8623 2.39062V8.95312C22.8623 8.95312 22.8623 9.89062 21.9248 9.89062H15.3623C15.3623 9.89062 14.4248 9.89062 14.4248 8.95312V2.39062C14.4248 2.39062 14.4248 1.45312 15.3623 1.45312Z" stroke="currentColor" stroke-linecap="round" stroke-linejoin="round"/>
<path d="M15.8311 22.3281C15.4581 22.3281 15.1004 22.18 14.8367 21.9162C14.573 21.6525 14.4248 21.2948 14.4248 20.9219" stroke="currentColor" stroke-linecap="round" stroke-linejoin="round"/>
<path d="M14.4248 15.2969C14.4248 14.9239 14.573 14.5662 14.8367 14.3025C15.1004 14.0388 15.4581 13.8906 15.8311 13.8906" stroke="currentColor" stroke-linecap="round" stroke-linejoin="round"/>
<path d="M21.4561 22.3281C21.829 22.3281 22.1867 22.18 22.4504 21.9162C22.7141 21.6525 22.8623 21.2948 22.8623 20.9219" stroke="currentColor" stroke-linecap="round" stroke-linejoin="round"/>
<path d="M22.8623 15.2969C22.8623 14.9239 22.7141 14.5662 22.4504 14.3025C22.1867 14.0388 21.829 13.8906 21.4561 13.8906" stroke="currentColor" stroke-linecap="round" stroke-linejoin="round"/>
<path d="M17.9404 22.3281H19.3467" stroke="currentColor" stroke-linecap="round" stroke-linejoin="round"/>
<path d="M17.9404 13.8906H19.3467" stroke="currentColor" stroke-linecap="round" stroke-linejoin="round"/>
<path d="M14.4248 17.4062V18.8125" stroke="currentColor" stroke-linecap="round" stroke-linejoin="round"/>
<path d="M22.8623 17.4062V18.8125" stroke="currentColor" stroke-linecap="round" stroke-linejoin="round"/>
<path d="M7.16602 4.96875V19.0312" stroke="currentColor" stroke-linecap="round" stroke-linejoin="round"/>
<path d="M4.35352 16.2188L7.16602 19.0312L9.97852 16.2188" stroke="currentColor" stroke-linecap="round" stroke-linejoin="round"/>
</svg>
