<svg width="24" height="24" viewBox="0 0 24 24" fill="none" xmlns="http://www.w3.org/2000/svg">
<path fill-rule="evenodd" clip-rule="evenodd" d="M14.9625 9.52493V11.2429L17.4737 13.2832L19.9875 11.2235V9.52493H14.9625ZM16.702 13.9124L14.3176 11.9752C14.2112 11.8887 14.1281 11.7793 14.072 11.6578C14.0159 11.5363 13.9875 11.4043 13.9875 11.2718V9.44368C13.9875 9.21867 14.0697 8.99581 14.2267 8.82575C14.3848 8.65439 14.6081 8.54993 14.85 8.54993H20.1C20.3419 8.54993 20.5652 8.65439 20.7234 8.82575C20.8804 8.99581 20.9625 9.21867 20.9625 9.44368V11.2535L20.9625 11.2549C20.9622 11.3865 20.9338 11.5176 20.8781 11.6382C20.8224 11.7589 20.74 11.8677 20.6346 11.9539L18.2443 13.9123L20.6346 15.87C20.6345 15.8699 20.6347 15.87 20.6346 15.87C20.7401 15.9564 20.8229 16.0656 20.8785 16.1866C20.9342 16.3076 20.9625 16.4391 20.9625 16.5711V18.3812C20.9625 18.6062 20.8804 18.829 20.7234 18.9991C20.5652 19.1705 20.3419 19.2749 20.1 19.2749H14.85C14.6081 19.2749 14.3848 19.1705 14.2267 18.9991C14.0697 18.829 13.9875 18.6062 13.9875 18.3812V16.5531C13.9875 16.4205 14.0159 16.2885 14.072 16.1671C14.1281 16.0455 14.2112 15.9362 14.3176 15.8497L16.702 13.9124ZM17.4738 14.5416L14.9625 16.582V18.2999H19.9875V16.6003L17.4738 14.5416ZM20.0174 16.6247C20.0173 16.6246 20.0174 16.6248 20.0174 16.6247V16.6247Z" fill="currentColor"/>
<path d="M3 5.25C3 4.93934 3.25184 4.6875 3.5625 4.6875H20.4375C20.7482 4.6875 21 4.93934 21 5.25C21 5.56066 20.7482 5.8125 20.4375 5.8125H3.5625C3.25184 5.8125 3 5.56066 3 5.25Z" fill="currentColor"/>
<path d="M3 18.7501C3 18.4394 3.25184 18.1876 3.5625 18.1875L10.6875 18.1875C10.9982 18.1875 11.25 18.4393 11.25 18.75C11.25 19.0607 10.9982 19.3125 10.6875 19.3125L3.5625 19.3126C3.25184 19.3126 3 19.0607 3 18.7501Z" fill="currentColor"/>
<path d="M3 12.0001C3 11.6894 3.25184 11.4376 3.5625 11.4376L10.6875 11.4375C10.9982 11.4375 11.25 11.6893 11.25 12C11.25 12.3107 10.9982 12.5625 10.6875 12.5625L3.5625 12.5626C3.25184 12.5626 3 12.3107 3 12.0001Z" fill="currentColor"/>
</svg>
