<svg width="24" height="24" viewBox="0 0 24 24" fill="none" xmlns="http://www.w3.org/2000/svg">
<path d="M21.36 12.7284V1.7998" stroke="currentColor" stroke-linecap="round" stroke-linejoin="round"/>
<path fill-rule="evenodd" clip-rule="evenodd" d="M19.9199 14.1857C19.9199 14.588 20.0605 14.9315 20.3417 15.216C20.6229 15.5005 20.9623 15.6428 21.3599 15.6428C21.7576 15.6428 22.097 15.5005 22.3782 15.216C22.6593 14.9315 22.7999 14.588 22.7999 14.1857C22.7999 13.7833 22.6593 13.4398 22.3782 13.1553C22.097 12.8708 21.7576 12.7285 21.3599 12.7285C20.9623 12.7285 20.6229 12.8708 20.3417 13.1553C20.0605 13.4398 19.9199 13.7833 19.9199 14.1857Z" stroke="currentColor" stroke-linecap="round" stroke-linejoin="round"/>
<path d="M21.36 15.6431V20.0145C21.36 20.3043 21.3052 20.5832 21.1956 20.8509C21.086 21.1187 20.9299 21.3551 20.7274 21.56C20.5248 21.765 20.2913 21.9229 20.0266 22.0338C19.762 22.1447 19.4865 22.2002 19.2 22.2002C18.9136 22.2002 18.6381 22.1447 18.3734 22.0338C18.1088 21.9229 17.8752 21.765 17.6727 21.56C17.4701 21.3551 17.3141 21.1187 17.2045 20.8509C17.0948 20.5832 17.04 20.3043 17.04 20.0145V19.2859" stroke="currentColor" stroke-linecap="round" stroke-linejoin="round"/>
<path fill-rule="evenodd" clip-rule="evenodd" d="M12 7.62842C8.90981 7.62842 6.24005 9.81413 4.80005 11.2713C6.24005 12.7284 8.90981 14.9141 12 14.9141C13.9882 14.9141 16.32 13.2831 16.32 11.2713C16.32 9.25945 13.9882 7.62842 12 7.62842Z" stroke="currentColor" stroke-linecap="round" stroke-linejoin="round"/>
<path fill-rule="evenodd" clip-rule="evenodd" d="M2.42875 8.87197C2.20184 8.64265 1.94028 8.59016 1.64406 8.71451C1.34784 8.83885 1.19981 9.06328 1.19995 9.3878V13.155C1.19981 13.4795 1.34784 13.7039 1.64406 13.8283C1.94028 13.9526 2.20184 13.9002 2.42875 13.6708L4.79995 11.2714L2.42875 8.87197Z" stroke="currentColor" stroke-linecap="round" stroke-linejoin="round"/>
<path d="M12.7201 10.907C12.9601 10.907 13.0801 11.0284 13.0801 11.2713" stroke="currentColor" stroke-linecap="round" stroke-linejoin="round"/>
<path d="M12.36 11.2713C12.36 11.0284 12.48 10.907 12.72 10.907" stroke="currentColor" stroke-linecap="round" stroke-linejoin="round"/>
<path d="M12.72 11.6356C12.48 11.6356 12.36 11.5141 12.36 11.2713" stroke="currentColor" stroke-linecap="round" stroke-linejoin="round"/>
<path d="M13.0801 11.2713C13.0801 11.5141 12.9601 11.6356 12.7201 11.6356" stroke="currentColor" stroke-linecap="round" stroke-linejoin="round"/>
</svg>
