<svg width="24" height="24" viewBox="0 0 24 24" fill="none" xmlns="http://www.w3.org/2000/svg">
<rect x="3.5" y="3.5" width="2" height="2" stroke="currentColor" stroke-width="2"/>
<rect x="3.5" y="8.5" width="2" height="2" stroke="currentColor" stroke-width="2"/>
<rect x="3.5" y="13.5" width="2" height="2" stroke="currentColor" stroke-width="2"/>
<rect x="3.5" y="18.5" width="2" height="2" stroke="currentColor" stroke-width="2"/>
<rect x="8.5" y="3.5" width="2" height="2" stroke="currentColor" stroke-width="2"/>
<rect x="8.5" y="8.5" width="2" height="2" stroke="currentColor" stroke-width="2"/>
<rect x="8.5" y="13.5" width="2" height="2" stroke="currentColor" stroke-width="2"/>
<rect x="8.5" y="18.5" width="2" height="2" stroke="currentColor" stroke-width="2"/>
<rect x="13.5" y="3.5" width="2" height="2" stroke="currentColor" stroke-width="2"/>
<rect x="13.5" y="8.5" width="2" height="2" stroke="currentColor" stroke-width="2"/>
<rect x="13.5" y="13.5" width="2" height="2" stroke="currentColor" stroke-width="2"/>
<rect x="13.5" y="18.5" width="2" height="2" stroke="currentColor" stroke-width="2"/>
<rect x="18.5" y="3.5" width="2" height="2" stroke="currentColor" stroke-width="2"/>
<rect x="18.5" y="8.5" width="2" height="2" stroke="currentColor" stroke-width="2"/>
<rect x="18.5" y="13.5" width="2" height="2" stroke="currentColor" stroke-width="2"/>
<rect x="18.5" y="18.5" width="2" height="2" stroke="currentColor" stroke-width="2"/>
</svg>
