<svg width="24" height="24" viewBox="0 0 24 24" fill="none" xmlns="http://www.w3.org/2000/svg">
<path d="M11.996 15.6001V18.4801" stroke="currentColor" stroke-linecap="round" stroke-linejoin="round"/>
<path fill-rule="evenodd" clip-rule="evenodd" d="M18.2627 22.8C17.3238 20.6424 14.8126 19.2 11.9956 19.2C9.17854 19.2 6.66742 20.6424 5.72852 22.8H18.2627Z" stroke="currentColor" stroke-linecap="round" stroke-linejoin="round"/>
<path fill-rule="evenodd" clip-rule="evenodd" d="M18 1.54053V6.2401C18 11.4095 15.3137 15.6001 12 15.6001C8.68629 15.6001 6 11.4095 6 6.2401L6 1.54053H12L18 1.54053Z" stroke="currentColor" stroke-linecap="round" stroke-linejoin="round"/>
<path d="M18.2627 4.93188H21.8584C21.9114 4.93188 21.9549 4.96984 21.9569 5.02282C21.9845 5.77507 22.0743 11.0051 19.3704 13.5984" stroke="currentColor" stroke-linecap="round"/>
<path d="M5.4043 4.93188H1.80857C1.75555 4.93188 1.71208 4.96984 1.71013 5.02282C1.68247 5.77507 1.59267 11.0051 4.29663 13.5984" stroke="currentColor" stroke-linecap="round"/>
</svg>
