<svg width="24" height="24" viewBox="0 0 24 24" fill="none" xmlns="http://www.w3.org/2000/svg">
<path d="M1.33325 14.1347C1.33325 19.608 5.79279 24 11.3389 24C16.885 24 21.3333 19.608 21.3333 14.1347C21.3333 13.5996 20.9484 13.2095 20.3938 13.2095C19.8618 13.2095 19.511 13.5996 19.511 14.1347C19.511 18.6159 15.8777 22.2053 11.3389 22.2053C6.80014 22.2053 3.15555 18.6159 3.15555 14.1347C3.15555 9.66465 6.80014 6.08639 11.3389 6.08639C12.1991 6.08639 13.0027 6.15327 13.6705 6.30934L10.2863 9.60892C10.1165 9.78727 10.026 10.0102 10.026 10.2443C10.026 10.7571 10.4108 11.1361 10.9201 11.1361C11.2031 11.1361 11.4181 11.0469 11.5766 10.8797L16.2399 6.26475C16.4436 6.07524 16.5228 5.8523 16.5228 5.59591C16.5228 5.35067 16.421 5.10543 16.2399 4.92708L11.5766 0.267534C11.4181 0.0891779 11.1918 0 10.9201 0C10.4108 0 10.026 0.4013 10.026 0.914073C10.026 1.14817 10.1165 1.37111 10.275 1.54947L13.2857 4.48119C12.6971 4.36972 12.0293 4.29169 11.3389 4.29169C5.79279 4.29169 1.33325 8.67255 1.33325 14.1347Z" fill="currentColor"/>
</svg>
