<svg width="24" height="24" viewBox="0 0 24 24" fill="none" xmlns="http://www.w3.org/2000/svg">
<path d="M17.75 11.2812H6.25C5.67813 11.2813 5.12968 11.5084 4.7253 11.9128C4.32093 12.3172 4.09375 12.8656 4.09375 13.4375V20.625C4.09375 21.1969 4.32093 21.7453 4.7253 22.1497C5.12968 22.5541 5.67813 22.7812 6.25 22.7812H17.75C18.3219 22.7812 18.8703 22.5541 19.2747 22.1497C19.6791 21.7453 19.9062 21.1969 19.9062 20.625V13.4375C19.9062 12.8656 19.6791 12.3172 19.2747 11.9128C18.8703 11.5084 18.3219 11.2813 17.75 11.2812Z" stroke="currentColor" stroke-linecap="round" stroke-linejoin="round"/>
<path d="M6.96875 11.2812V6.25C6.96875 4.91563 7.49883 3.63591 8.44237 2.69237C9.38591 1.74883 10.6656 1.21875 12 1.21875C13.3344 1.21875 14.6141 1.74883 15.5576 2.69237C16.5012 3.63591 17.0312 4.91563 17.0312 6.25V11.2812" stroke="currentColor" stroke-linecap="round" stroke-linejoin="round"/>
<path d="M4.09375 17.0312H19.9062" stroke="currentColor" stroke-linecap="round" stroke-linejoin="round"/>
<path d="M7.6875 14.5156C7.59219 14.5156 7.50078 14.4778 7.43338 14.4104C7.36599 14.343 7.32812 14.2516 7.32812 14.1562C7.32812 14.0609 7.36599 13.9695 7.43338 13.9021C7.50078 13.8347 7.59219 13.7969 7.6875 13.7969" stroke="currentColor"/>
<path d="M7.6875 14.5156C7.78281 14.5156 7.87422 14.4778 7.94162 14.4104C8.00901 14.343 8.04688 14.2516 8.04688 14.1562C8.04688 14.0609 8.00901 13.9695 7.94162 13.9021C7.87422 13.8347 7.78281 13.7969 7.6875 13.7969" stroke="currentColor"/>
<path d="M7.6875 20.2656C7.59219 20.2656 7.50078 20.2278 7.43338 20.1604C7.36599 20.093 7.32812 20.0016 7.32812 19.9062C7.32812 19.8109 7.36599 19.7195 7.43338 19.6521C7.50078 19.5847 7.59219 19.5469 7.6875 19.5469" stroke="currentColor"/>
<path d="M7.6875 20.2656C7.78281 20.2656 7.87422 20.2278 7.94162 20.1604C8.00901 20.093 8.04688 20.0016 8.04688 19.9062C8.04688 19.8109 8.00901 19.7195 7.94162 19.6521C7.87422 19.5847 7.78281 19.5469 7.6875 19.5469" stroke="currentColor"/>
</svg>
