<svg width="24" height="24" viewBox="0 0 24 24" fill="none" xmlns="http://www.w3.org/2000/svg">
<g clip-path="url(#clip0_12_79277)">
<path d="M12.751 9.75024H5.25098C4.0575 9.75024 2.91291 9.27614 2.069 8.43222C1.22508 7.58831 0.750977 6.44372 0.750977 5.25024C0.750977 4.05677 1.22508 2.91218 2.069 2.06826C2.91291 1.22435 4.0575 0.750244 5.25098 0.750244H17.251C18.2209 0.75004 19.1649 1.0632 19.9423 1.64307C20.7198 2.22295 21.2891 3.03849 21.5654 3.96819C21.8418 4.89789 21.8103 5.89199 21.4758 6.80236C21.1412 7.71274 20.5215 8.49067 19.709 9.02024" stroke="currentColor" stroke-linecap="round" stroke-linejoin="round"/>
<path d="M8.25098 18.7502H5.25098C4.0575 18.7502 2.91291 18.2761 2.069 17.4322C1.22508 16.5883 0.750977 15.4437 0.750977 14.2502C0.750977 13.0568 1.22508 11.9122 2.069 11.0683C2.91291 10.2244 4.0575 9.75024 5.25098 9.75024" stroke="currentColor" stroke-linecap="round" stroke-linejoin="round"/>
<path d="M10.501 5.25024H17.251" stroke="currentColor" stroke-linecap="round" stroke-linejoin="round"/>
<path d="M17.251 23.2493C20.5647 23.2493 23.251 20.563 23.251 17.2493C23.251 13.9356 20.5647 11.2493 17.251 11.2493C13.9373 11.2493 11.251 13.9356 11.251 17.2493C11.251 20.563 13.9373 23.2493 17.251 23.2493Z" stroke="currentColor" stroke-linecap="round" stroke-linejoin="round"/>
<path d="M13.009 21.4902L21.493 13.0062" stroke="currentColor" stroke-linecap="round" stroke-linejoin="round"/>
<path d="M5.25098 14.6252C5.04387 14.6252 4.87598 14.4574 4.87598 14.2502C4.87598 14.0431 5.04387 13.8752 5.25098 13.8752" stroke="currentColor"/>
<path d="M5.25098 14.6252C5.45808 14.6252 5.62598 14.4574 5.62598 14.2502C5.62598 14.0431 5.45808 13.8752 5.25098 13.8752" stroke="currentColor"/>
<path d="M5.25098 5.62524C5.04387 5.62524 4.87598 5.45735 4.87598 5.25024C4.87598 5.04314 5.04387 4.87524 5.25098 4.87524" stroke="currentColor"/>
<path d="M5.25098 5.62524C5.45808 5.62524 5.62598 5.45735 5.62598 5.25024C5.62598 5.04314 5.45808 4.87524 5.25098 4.87524" stroke="currentColor"/>
</g>
<defs>
<clipPath id="clip0_12_79277">
<rect width="24" height="24" fill="white"/>
</clipPath>
</defs>
</svg>
