<svg width="24" height="24" viewBox="0 0 24 24" fill="none" xmlns="http://www.w3.org/2000/svg">
<g clip-path="url(#clip0_12_79215)">
<path d="M10.501 5.25024H17.251" stroke="currentColor" stroke-linecap="round" stroke-linejoin="round"/>
<path d="M11.936 9.75025H5.25098C4.0575 9.75025 2.91291 9.27614 2.069 8.43223C1.22508 7.58831 0.750977 6.44372 0.750977 5.25025C0.750977 4.05677 1.22508 2.91218 2.069 2.06827C2.91291 1.22435 4.0575 0.750246 5.25098 0.750246H17.251C18.1574 0.749506 19.043 1.02254 19.7917 1.53358C20.5403 2.04462 21.1172 2.76985 21.4467 3.61429C21.7763 4.45873 21.8431 5.383 21.6385 6.26607C21.4339 7.14913 20.9673 7.94981 20.3 8.56325" stroke="currentColor" stroke-linecap="round" stroke-linejoin="round"/>
<path d="M8.25098 18.7502H5.25098C4.0575 18.7502 2.91291 18.2761 2.069 17.4322C1.22508 16.5883 0.750977 15.4437 0.750977 14.2502C0.750977 13.0568 1.22508 11.9122 2.069 11.0683C2.91291 10.2244 4.0575 9.75024 5.25098 9.75024" stroke="currentColor" stroke-linecap="round" stroke-linejoin="round"/>
<path d="M17.251 23.2502C20.5647 23.2502 23.251 20.564 23.251 17.2502C23.251 13.9365 20.5647 11.2502 17.251 11.2502C13.9373 11.2502 11.251 13.9365 11.251 17.2502C11.251 20.564 13.9373 23.2502 17.251 23.2502Z" stroke="currentColor" stroke-linecap="round" stroke-linejoin="round"/>
<path d="M19.903 17.2502H17.251V14.2502" stroke="currentColor" stroke-linecap="round" stroke-linejoin="round"/>
<path d="M5.25098 5.62524C5.04387 5.62524 4.87598 5.45735 4.87598 5.25024C4.87598 5.04314 5.04387 4.87524 5.25098 4.87524" stroke="currentColor"/>
<path d="M5.25098 5.62524C5.45808 5.62524 5.62598 5.45735 5.62598 5.25024C5.62598 5.04314 5.45808 4.87524 5.25098 4.87524" stroke="currentColor"/>
<path d="M5.25098 14.6252C5.04387 14.6252 4.87598 14.4574 4.87598 14.2502C4.87598 14.0431 5.04387 13.8752 5.25098 13.8752" stroke="currentColor"/>
<path d="M5.25098 14.6252C5.45808 14.6252 5.62598 14.4574 5.62598 14.2502C5.62598 14.0431 5.45808 13.8752 5.25098 13.8752" stroke="currentColor"/>
</g>
<defs>
<clipPath id="clip0_12_79215">
<rect width="24" height="24" fill="white"/>
</clipPath>
</defs>
</svg>
