<svg width="24" height="24" viewBox="0 0 24 24" fill="none" xmlns="http://www.w3.org/2000/svg">
<g clip-path="url(#clip0_12_78913)">
<path d="M22.968 9.00603C22.6442 7.50986 21.9972 6.10259 21.0722 4.88281C20.1473 3.66302 18.9668 2.66024 17.6135 1.9447C16.2603 1.22916 14.7669 0.818185 13.238 0.74056C11.7092 0.662935 10.1819 0.920539 8.76307 1.49533C7.34427 2.07011 6.06831 2.94818 5.02458 4.068C3.98085 5.18783 3.19461 6.52233 2.72092 7.97801C2.24724 9.43369 2.09758 10.9753 2.28243 12.4949C2.46728 14.0146 2.98216 15.4754 3.79101 16.775L0.708008 23.25L7.18301 20.166C7.74473 20.5155 8.33799 20.8114 8.95501 21.05" stroke="currentColor" stroke-linecap="round" stroke-linejoin="round"/>
<path d="M23.208 17.248C23.208 18.4347 22.8561 19.5948 22.1968 20.5815C21.5375 21.5682 20.6005 22.3372 19.5041 22.7913C18.4078 23.2454 17.2014 23.3643 16.0375 23.1328C14.8736 22.9012 13.8045 22.3298 12.9654 21.4907C12.1263 20.6516 11.5548 19.5825 11.3233 18.4186C11.0918 17.2547 11.2106 16.0483 11.6647 14.9519C12.1189 13.8556 12.8879 12.9185 13.8746 12.2592C14.8613 11.5999 16.0213 11.248 17.208 11.248" stroke="currentColor" stroke-linecap="round" stroke-linejoin="round"/>
<path d="M23.208 12.748L17.738 18.218C17.5973 18.3583 17.4067 18.437 17.208 18.437C17.0093 18.437 16.8188 18.3583 16.678 18.218L14.958 16.498" stroke="currentColor" stroke-linecap="round" stroke-linejoin="round"/>
</g>
<defs>
<clipPath id="clip0_12_78913">
<rect width="24" height="24" fill="white"/>
</clipPath>
</defs>
</svg>
