<svg width="24" height="24" viewBox="0 0 24 24" fill="none" xmlns="http://www.w3.org/2000/svg">
<g clip-path="url(#clip0_12_78907)">
<path d="M21.75 15.75H15.75C14.9216 15.75 14.25 16.4216 14.25 17.25V21.75C14.25 22.5784 14.9216 23.25 15.75 23.25H21.75C22.5784 23.25 23.25 22.5784 23.25 21.75V17.25C23.25 16.4216 22.5784 15.75 21.75 15.75Z" stroke="currentColor" stroke-linecap="round" stroke-linejoin="round"/>
<path d="M18.75 11.25C17.9544 11.25 17.1913 11.5661 16.6287 12.1287C16.0661 12.6913 15.75 13.4544 15.75 14.25V15.75H21.75V14.25C21.75 13.4544 21.4339 12.6913 20.8713 12.1287C20.3087 11.5661 19.5456 11.25 18.75 11.25Z" stroke="currentColor" stroke-linecap="round" stroke-linejoin="round"/>
<path d="M18.75 19.9041C18.5429 19.9041 18.375 19.7362 18.375 19.5291C18.375 19.322 18.5429 19.1541 18.75 19.1541" stroke="currentColor"/>
<path d="M18.75 19.9041C18.9571 19.9041 19.125 19.7362 19.125 19.5291C19.125 19.322 18.9571 19.1541 18.75 19.1541" stroke="currentColor"/>
<path d="M23.25 10.5629C23.146 8.97079 22.6799 7.42335 21.887 6.03814C21.0941 4.65293 19.9953 3.46642 18.6742 2.56878C17.353 1.67115 15.8443 1.08602 14.2626 0.857871C12.681 0.629721 11.0681 0.764556 9.54647 1.25213C8.02486 1.7397 6.63461 2.56717 5.4814 3.67166C4.32818 4.77614 3.44235 6.12856 2.89123 7.62612C2.34011 9.12369 2.13821 10.727 2.30088 12.3141C2.46355 13.9013 2.98651 15.4305 3.83 16.7856L0.75 23.25L7.221 20.1711C8.43441 20.9266 9.78991 21.426 11.204 21.6386" stroke="currentColor" stroke-linecap="round" stroke-linejoin="round"/>
</g>
<defs>
<clipPath id="clip0_12_78907">
<rect width="24" height="24" fill="white"/>
</clipPath>
</defs>
</svg>
