<svg width="24" height="24" viewBox="0 0 24 24" fill="none" xmlns="http://www.w3.org/2000/svg">
<g clip-path="url(#clip0_12_80013)">
<path d="M16.629 23.25C17.0265 23.2499 17.4078 23.092 17.689 22.811L22.811 17.689C23.092 17.4078 23.2499 17.0265 23.25 16.629V2.25C23.25 1.85218 23.092 1.47064 22.8107 1.18934C22.5294 0.908035 22.1478 0.75 21.75 0.75H7.371C6.97345 0.750085 6.5922 0.907982 6.311 1.189L1.189 6.311C0.907982 6.5922 0.750085 6.97345 0.75 7.371V21.75C0.75 22.1478 0.908035 22.5294 1.18934 22.8107C1.47064 23.092 1.85218 23.25 2.25 23.25H16.629Z" stroke="currentColor" stroke-linecap="round" stroke-linejoin="round"/>
<path d="M17.25 23.115V6.75" stroke="currentColor" stroke-linecap="round" stroke-linejoin="round"/>
<path d="M6.75 17.25H23.115" stroke="currentColor" stroke-linecap="round" stroke-linejoin="round"/>
<path d="M1.18945 22.811L6.75045 17.25" stroke="currentColor" stroke-linecap="round" stroke-linejoin="round"/>
<path d="M17.25 6.74996L22.811 1.18896" stroke="currentColor" stroke-linecap="round" stroke-linejoin="round"/>
<path d="M17.25 6.75H0.88501" stroke="currentColor" stroke-linecap="round" stroke-linejoin="round"/>
<path d="M6.75 0.88501V17.25" stroke="currentColor" stroke-linecap="round" stroke-linejoin="round"/>
</g>
<defs>
<clipPath id="clip0_12_80013">
<rect width="24" height="24" fill="white"/>
</clipPath>
</defs>
</svg>
