<svg width="24" height="24" viewBox="0 0 24 24" fill="none" xmlns="http://www.w3.org/2000/svg">
<g clip-path="url(#clip0_12_79757)">
<path d="M8.75 0.75H1.75C1.19772 0.75 0.75 1.19772 0.75 1.75V8.75C0.75 9.30229 1.19772 9.75 1.75 9.75H8.75C9.30229 9.75 9.75 9.30229 9.75 8.75V1.75C9.75 1.19772 9.30229 0.75 8.75 0.75Z" stroke="currentColor" stroke-linecap="round" stroke-linejoin="round"/>
<path d="M18.75 9.75C21.2353 9.75 23.25 7.73528 23.25 5.25C23.25 2.76472 21.2353 0.75 18.75 0.75C16.2647 0.75 14.25 2.76472 14.25 5.25C14.25 7.73528 16.2647 9.75 18.75 9.75Z" stroke="currentColor" stroke-linecap="round" stroke-linejoin="round"/>
<path d="M18.7859 13.9771C18.7111 13.8333 18.5982 13.7127 18.4596 13.6286C18.321 13.5445 18.162 13.5 17.9999 13.5C17.8378 13.5 17.6787 13.5445 17.5401 13.6286C17.4016 13.7127 17.2887 13.8333 17.2139 13.9771L12.8769 21.7841C12.7948 21.9334 12.7512 22.1008 12.75 22.2712C12.7488 22.4416 12.79 22.6096 12.8699 22.7601C12.9452 22.906 13.0587 23.0287 13.1984 23.1151C13.3381 23.2014 13.4987 23.2481 13.6629 23.2501H22.3369C22.5011 23.2481 22.6616 23.2014 22.8013 23.1151C22.941 23.0287 23.0546 22.906 23.1299 22.7601C23.2098 22.6096 23.251 22.4416 23.2497 22.2712C23.2485 22.1008 23.2049 21.9334 23.1229 21.7841L18.7859 13.9771Z" stroke="currentColor" stroke-linecap="round" stroke-linejoin="round"/>
<path d="M5.85108 13.034C5.77808 12.9455 5.68644 12.8743 5.58272 12.8254C5.47899 12.7766 5.36574 12.7512 5.25108 12.7512C5.13641 12.7512 5.02316 12.7766 4.91944 12.8254C4.81571 12.8743 4.72407 12.9455 4.65108 13.034L0.941077 17.471C0.817448 17.6195 0.749756 17.8067 0.749756 18C0.749756 18.1932 0.817448 18.3804 0.941077 18.529L4.64908 22.966C4.72207 23.0544 4.81371 23.1256 4.91744 23.1745C5.02116 23.2234 5.13441 23.2487 5.24908 23.2487C5.36374 23.2487 5.47699 23.2234 5.58072 23.1745C5.68444 23.1256 5.77608 23.0544 5.84908 22.966L9.55708 18.529C9.68071 18.3804 9.7484 18.1932 9.7484 18C9.7484 17.8067 9.68071 17.6195 9.55708 17.471L5.85108 13.034Z" stroke="currentColor" stroke-linecap="round" stroke-linejoin="round"/>
</g>
<defs>
<clipPath id="clip0_12_79757">
<rect width="24" height="24" fill="white"/>
</clipPath>
</defs>
</svg>
