<svg width="24" height="24" viewBox="0 0 24 24" fill="none" xmlns="http://www.w3.org/2000/svg">
<g clip-path="url(#clip0_12_78917)">
<path d="M2.25 3.75C2.25 4.54565 2.56607 5.30871 3.12868 5.87132C3.69129 6.43393 4.45435 6.75 5.25 6.75C6.04565 6.75 6.80871 6.43393 7.37132 5.87132C7.93393 5.30871 8.25 4.54565 8.25 3.75C8.25 2.95435 7.93393 2.19129 7.37132 1.62868C6.80871 1.06607 6.04565 0.75 5.25 0.75C4.45435 0.75 3.69129 1.06607 3.12868 1.62868C2.56607 2.19129 2.25 2.95435 2.25 3.75Z" stroke="currentColor" stroke-linecap="round" stroke-linejoin="round"/>
<path d="M7.5 23.25L8.25 15.75H9.75V12.75C9.75 11.5565 9.27589 10.4119 8.43198 9.56802C7.58807 8.72411 6.44347 8.25 5.25 8.25C4.05653 8.25 2.91193 8.72411 2.06802 9.56802C1.22411 10.4119 0.75 11.5565 0.75 12.75V15.75H2.25L3 23.25H7.5Z" stroke="currentColor" stroke-linecap="round" stroke-linejoin="round"/>
<path d="M12 6.75H14.25V11.25L18.75 6.75H22.5C22.6989 6.75 22.8897 6.67098 23.0303 6.53033C23.171 6.38968 23.25 6.19891 23.25 6V1.5C23.25 1.30109 23.171 1.11032 23.0303 0.96967C22.8897 0.829018 22.6989 0.75 22.5 0.75H12C11.8011 0.75 11.6103 0.829018 11.4697 0.96967C11.329 1.11032 11.25 1.30109 11.25 1.5V6C11.25 6.19891 11.329 6.38968 11.4697 6.53033C11.6103 6.67098 11.8011 6.75 12 6.75Z" stroke="currentColor" stroke-linecap="round" stroke-linejoin="round"/>
</g>
<defs>
<clipPath id="clip0_12_78917">
<rect width="24" height="24" fill="white"/>
</clipPath>
</defs>
</svg>
