<svg width="26" height="26" viewBox="0 0 26 26" fill="none" xmlns="http://www.w3.org/2000/svg">
<g clip-path="url(#clip0_12_80339)">
<path d="M13.7333 22.5333C11.7778 22.5333 9.92 21.9467 8.35556 20.9689L2 24L5.03112 17.6444C4.05334 16.08 3.46667 14.2222 3.46667 12.2667C3.46667 6.59555 8.06222 2 13.7333 2C19.4044 2 24 6.59555 24 12.2667" stroke="currentColor" stroke-width="1.01701" stroke-miterlimit="10" stroke-linecap="round" stroke-linejoin="round"/>
<mask id="mask0_12_80339" style="mask-type:alpha" maskUnits="userSpaceOnUse" x="15" y="13" width="10" height="11">
<path d="M24.4331 15.901C22.2705 18.2251 21.9421 19.7277 22.6553 22.671C20.6487 20.4028 19.2281 19.813 16.0849 20.258C18.2473 17.9339 18.5758 16.4312 17.8625 13.488C19.8693 15.7562 21.2898 16.346 24.4331 15.901Z" fill="currentColor" stroke="currentColor" stroke-width="0.94168" stroke-linecap="round" stroke-linejoin="round"/>
</mask>
<g mask="url(#mask0_12_80339)">
<path opacity="0.85" d="M23.0072 16.5645C21.36 18.3273 21.108 19.4688 21.6453 21.7067C20.124 19.9797 19.0453 19.5292 16.6559 19.8624C18.303 18.0996 18.5551 16.9581 18.0177 14.7202C19.5391 16.4472 20.6177 16.8977 23.0072 16.5645Z" fill="currentColor" stroke="currentColor" stroke-width="0.94168" stroke-linecap="round" stroke-linejoin="round"/>
<g filter="url(#filter0_f_12_80339)">
<rect x="19.5002" y="40.689" width="8" height="35.6296" transform="rotate(-135 19.5002 40.689)" fill="white" style="mix-blend-mode:lighten"/>
</g>
</g>
</g>
<defs>
<filter id="filter0_f_12_80339" x="12.1435" y="8.13838" width="34.2506" height="34.2506" filterUnits="userSpaceOnUse" color-interpolation-filters="sRGB">
<feFlood flood-opacity="0" result="BackgroundImageFix"/>
<feBlend mode="normal" in="SourceGraphic" in2="BackgroundImageFix" result="shape"/>
<feGaussianBlur stdDeviation="0.85" result="effect1_foregroundBlur_12_80339"/>
</filter>
<clipPath id="clip0_12_80339">
<rect width="26" height="26" fill="white"/>
</clipPath>
</defs>
</svg>
