<svg width="24" height="24" viewBox="0 0 24 24" fill="none" xmlns="http://www.w3.org/2000/svg">
<path d="M14.8125 15.2044V4.26562C14.8125 3.5197 14.5162 2.80433 13.9887 2.27689C13.4613 1.74944 12.7459 1.45313 12 1.45312C11.2541 1.45313 10.5387 1.74944 10.0113 2.27689C9.48382 2.80433 9.1875 3.5197 9.1875 4.26562V15.2044C8.55067 15.774 8.10179 16.5235 7.90027 17.3538C7.69875 18.1841 7.75409 19.056 8.05896 19.8542C8.36383 20.6523 8.90386 21.3391 9.6076 21.8236C10.3113 22.3082 11.1456 22.5676 12 22.5676C12.8544 22.5676 13.6887 22.3082 14.3924 21.8236C15.0961 21.3391 15.6362 20.6523 15.941 19.8542C16.2459 19.056 16.3012 18.1841 16.0997 17.3538C15.8982 16.5235 15.4493 15.774 14.8125 15.2044Z" stroke="currentColor" stroke-linecap="round" stroke-linejoin="round"/>
<path d="M12 5.67188V16.9219" stroke="currentColor" stroke-linecap="round" stroke-linejoin="round"/>
<path d="M10.5938 18.3281C10.5938 18.7011 10.7419 19.0588 11.0056 19.3225C11.2694 19.5862 11.627 19.7344 12 19.7344C12.373 19.7344 12.7306 19.5862 12.9944 19.3225C13.2581 19.0588 13.4062 18.7011 13.4062 18.3281C13.4062 17.9552 13.2581 17.5975 12.9944 17.3338C12.7306 17.07 12.373 16.9219 12 16.9219C11.627 16.9219 11.2694 17.07 11.0056 17.3338C10.7419 17.5975 10.5938 17.9552 10.5938 18.3281Z" stroke="currentColor" stroke-linecap="round" stroke-linejoin="round"/>
</svg>
