<svg width="24" height="24" viewBox="0 0 24 24" fill="none" xmlns="http://www.w3.org/2000/svg">
<path d="M6.75112 9.14307L6.22412 13.5471L10.6701 14.2121" stroke="currentColor" stroke-linecap="round" stroke-linejoin="round"/>
<path d="M14.25 0.75H21.75C22.1478 0.75 22.5294 0.908035 22.8107 1.18934C23.092 1.47064 23.25 1.85218 23.25 2.25V21.75C23.25 22.1478 23.092 22.5294 22.8107 22.8107C22.5294 23.092 22.1478 23.25 21.75 23.25H14.25" stroke="currentColor" stroke-linecap="round" stroke-linejoin="round"/>
<path d="M11.25 0.75V5.25" stroke="currentColor" stroke-linecap="round" stroke-linejoin="round"/>
<path d="M11.25 17.25V23.25" stroke="currentColor" stroke-linecap="round" stroke-linejoin="round"/>
<path d="M6.75 0.75H8.25" stroke="currentColor" stroke-linecap="round" stroke-linejoin="round"/>
<path d="M6.75 23.25H8.25" stroke="currentColor" stroke-linecap="round" stroke-linejoin="round"/>
<path d="M0.75 5.25V6.75" stroke="currentColor" stroke-linecap="round" stroke-linejoin="round"/>
<path d="M0.75 11.25V12.75" stroke="currentColor" stroke-linecap="round" stroke-linejoin="round"/>
<path d="M0.75 17.25V18.75" stroke="currentColor" stroke-linecap="round" stroke-linejoin="round"/>
<path d="M0.749756 2.24951C0.749756 1.85169 0.907791 1.47016 1.1891 1.18885C1.4704 0.907547 1.85193 0.749512 2.24976 0.749512" stroke="currentColor" stroke-linecap="round" stroke-linejoin="round"/>
<path d="M2.25 23.25C1.85218 23.25 1.47064 23.092 1.18934 22.8107C0.908035 22.5294 0.75 22.1478 0.75 21.75" stroke="currentColor" stroke-linecap="round" stroke-linejoin="round"/>
<path d="M18.365 15.0001C17.9451 13.8126 17.2013 12.7663 16.2177 11.9794C15.2341 11.1926 14.0501 10.6965 12.7994 10.5475C11.5486 10.3984 10.2812 10.6022 9.1402 11.1358C7.99925 11.6694 7.03034 12.5116 6.34302 13.5671" stroke="currentColor" stroke-linecap="round" stroke-linejoin="round"/>
</svg>
