<svg width="24" height="24" viewBox="0 0 24 24" fill="none" xmlns="http://www.w3.org/2000/svg">
<path d="M8.66675 4.5H16.0001C16.3537 4.5 16.6939 4.5692 17.0206 4.7076C17.3473 4.846 17.6356 5.04307 17.8857 5.2988C18.1357 5.55453 18.3284 5.84946 18.4638 6.18359C18.5991 6.51772 18.6667 6.86561 18.6667 7.22727V13.3636" stroke="currentColor" stroke-width="1.25" stroke-linecap="round" stroke-linejoin="round"/>
<path d="M15.3333 19.4999H7.99992C7.6463 19.4999 7.30613 19.4307 6.97943 19.2923C6.65272 19.1539 6.36435 18.9568 6.1143 18.7011C5.86425 18.4453 5.67156 18.1504 5.53624 17.8163C5.40091 17.4821 5.33325 17.1343 5.33325 16.7726V10.6362" stroke="currentColor" stroke-width="1.25" stroke-linecap="round" stroke-linejoin="round"/>
<path d="M15.3333 9.95166L18.6666 13.3608L21.9999 9.95166" stroke="currentColor" stroke-width="1.25" stroke-linecap="round" stroke-linejoin="round"/>
<path d="M8.66667 14.0429L5.33333 10.6338L2 14.0429" stroke="currentColor" stroke-width="1.25" stroke-linecap="round" stroke-linejoin="round"/>
</svg>
