<svg width="32" height="32" viewBox="0 0 32 32" fill="none" xmlns="http://www.w3.org/2000/svg">
<g clip-path="url(#clip0_12_78143)">
<g clip-path="url(#clip1_12_78143)">
<g clip-path="url(#clip2_12_78143)">
<path d="M-5.81836 -0.363632H37.818V32.3636H-5.81836V-0.363632Z" fill="currentColor"/>
<path d="M-0.704723 -0.363632L15.9316 11.9773L32.4998 -0.363632H37.818V3.86364L21.4544 16.0682L37.818 28.2045V32.3636H32.3635L15.9998 20.1591L-0.295632 32.3636H-5.81836V28.2727L10.4771 16.1364L-5.81836 4V-0.363632H-0.704723Z" fill="white"/>
<path d="M23.0907 18.7955L37.818 29.6364V32.3636L19.3407 18.7955H23.0907ZM10.5453 20.1591L10.9544 22.5455L-2.13654 32.3636H-5.81836L10.5453 20.1591ZM37.818 -0.363632V-0.159087L20.8407 12.6591L20.9771 9.6591L34.4089 -0.363632H37.818ZM-5.81836 -0.363632L10.4771 11.6364H6.38619L-5.81836 2.5V-0.363632Z" fill="currentColor"/>
<path d="M10.6135 -0.363632V32.3636H21.5226V-0.363632H10.6135ZM-5.81836 10.5455V21.4545H37.818V10.5455H-5.81836Z" fill="white"/>
<path d="M-5.81836 12.7955V19.3409H37.818V12.7955H-5.81836ZM12.7953 -0.363632V32.3636H19.3407V-0.363632H12.7953Z" fill="currentColor"/>
</g>
</g>
</g>
<defs>
<clipPath id="clip0_12_78143">
<rect width="32" height="32" rx="16" fill="white"/>
</clipPath>
<clipPath id="clip1_12_78143">
<rect width="32" height="32" rx="16" fill="white"/>
</clipPath>
<clipPath id="clip2_12_78143">
<rect width="43.6364" height="32.7273" fill="white" transform="translate(-5.81836 -0.363632)"/>
</clipPath>
</defs>
</svg>
