<svg width="32" height="32" viewBox="0 0 32 32" fill="none" xmlns="http://www.w3.org/2000/svg">
<g clip-path="url(#clip0_12_78670)">
<path d="M32 15.9982C32 14.1306 31.6781 12.3338 31.0839 10.6643H0.916105C0.321875 12.3338 0 14.1306 0 15.9982C0 17.8658 0.321875 19.6662 0.916105 21.3322H31.0839C31.6746 19.6662 32 17.8693 32 15.9982Z" fill="white"/>
<path d="M16.0017 0C9.04777 0 3.11608 4.46026 0.916016 10.6678H31.0838C28.8837 4.46026 22.952 0 16.0017 0Z" fill="currentColor"/>
<path d="M0.916016 21.3322C3.11608 27.5433 9.04777 32 16.0017 32C22.9556 32 28.8837 27.5433 31.0838 21.3322H0.916016Z" fill="currentColor"/>
</g>
<defs>
<clipPath id="clip0_12_78670">
<rect width="32" height="32" fill="white"/>
</clipPath>
</defs>
</svg>
