<svg width="32" height="32" viewBox="0 0 32 32" fill="none" xmlns="http://www.w3.org/2000/svg">
<g clip-path="url(#clip0_12_78145)">
<g clip-path="url(#clip1_12_78145)">
<g clip-path="url(#clip2_12_78145)">
<path fill-rule="evenodd" clip-rule="evenodd" d="M-5.81836 -0.363632H56.3635V2.1591H-5.81836V-0.363632ZM-5.81836 4.675H56.3635V7.19773H-5.81836V4.675ZM-5.81836 9.70682H56.3635V12.2295H-5.81836V9.70682ZM-5.81836 14.7386H56.3635V17.2614H-5.81836V14.7386ZM-5.81836 19.7841H56.3635V22.2932H-5.81836V19.7841ZM-5.81836 24.8091H56.3635V27.3318H-5.81836V24.8091ZM-5.81836 29.8409H56.3635V32.3636H-5.81836V29.8409Z" fill="currentColor"/>
<path fill-rule="evenodd" clip-rule="evenodd" d="M-5.81836 2.15909H56.3635V4.675H-5.81836V2.15909ZM-5.81836 7.19091H56.3635V9.70682H-5.81836V7.19091ZM-5.81836 12.2227H56.3635V14.7455H-5.81836V12.2227ZM-5.81836 17.2614H56.3635V19.7841H-5.81836V17.2614ZM-5.81836 22.2932H56.3635V24.8159H-5.81836V22.2932ZM-5.81836 27.325H56.3635V29.8477H-5.81836V27.325Z" fill="white"/>
<path fill-rule="evenodd" clip-rule="evenodd" d="M-5.81836 -0.363632H19.0544V17.2614H-5.81836V-0.363632Z" fill="currentColor"/>
<path fill-rule="evenodd" clip-rule="evenodd" d="M-3.74567 0.386368L-3.51385 1.08864H-2.79112L-3.37749 1.51819L-3.15249 2.22046L-3.74567 1.7841L-4.33203 2.21364L-4.11385 1.51819L-4.70703 1.08864H-3.96385L-3.74567 0.386368ZM0.399786 0.386368L0.624787 1.08864H1.36115L0.767969 1.51819L0.986151 2.22046L0.399786 1.7841L-0.193395 2.21364L0.0316052 1.51819L-0.554759 1.08864H0.167969L0.399786 0.386368ZM4.54524 0.386368L4.77024 1.08864H5.49979L4.91342 1.51819L5.13842 2.22046L4.54524 1.7841L3.95206 2.21364L4.17706 1.51819L3.58388 1.08864H4.32024L4.54524 0.386368ZM8.6907 0.386368L8.9157 1.08864H9.65206L9.05888 1.51819L9.28388 2.22046L8.6907 1.7841L8.09752 2.21364L8.32933 1.51819L7.72933 1.08864H8.45888L8.6907 0.386368ZM12.8362 0.386368L13.0612 1.08864H13.7907L13.2043 1.51819L13.4293 2.22046L12.8362 1.7841L12.243 2.21364L12.468 1.51819L11.8816 1.08864H12.6112L12.8362 0.386368ZM16.9816 0.386368L17.2066 1.08864H17.943L17.343 1.51819L17.5748 2.22046L16.9816 1.7841L16.3884 2.21364L16.6202 1.51819L16.0202 1.08864H16.7566L16.9816 0.386368ZM-1.67294 2.1591L-1.44794 2.85455H-0.704758L-1.29794 3.27728L-1.07976 3.97955L-1.6593 3.55L-2.25249 3.97955L-2.04112 3.27728L-2.61385 2.85455H-1.8843L-1.67294 2.1591ZM2.47251 2.1591L2.70433 2.85455H3.43388L2.83388 3.27728L3.0657 3.97955L2.47251 3.55L1.87933 3.97955L2.10433 3.27728L1.51115 2.85455H2.24751L2.47251 2.1591ZM6.61797 2.1591L6.84297 2.85455H7.57933L6.98615 3.27728L7.21115 3.97955L6.61797 3.55L6.02479 3.97955L6.24979 3.27728L5.66342 2.85455H6.38615L6.61797 2.1591ZM10.7634 2.1591L10.9952 2.85455H11.7248L11.1248 3.27728L11.3566 3.97955L10.7634 3.55L10.1771 3.97955L10.3952 3.27728L9.80206 2.85455H10.5452L10.7634 2.1591ZM14.9089 2.1591L15.1339 2.85455H15.8702L15.2771 3.27728L15.5021 3.97955L14.9089 3.55L14.3157 3.97955L14.5407 3.27728L13.9543 2.85455H14.6839L14.9089 2.1591ZM-3.74567 3.90455L-3.51385 4.61364H-2.79112L-3.37749 5.04319L-3.15249 5.73864L-3.74567 5.30909L-4.33203 5.73864L-4.11385 5.04319L-4.70703 4.61364H-3.96385L-3.74567 3.90455ZM0.399786 3.90455L0.624787 4.61364H1.36115L0.767969 5.04319L0.986151 5.73864L0.399786 5.30909L-0.193395 5.73864L0.0316052 5.03637L-0.554759 4.60682H0.167969L0.399786 3.90455ZM4.54524 3.90455L4.77024 4.60682H5.49979L4.91342 5.03637L5.13842 5.73182L4.54524 5.30228L3.95206 5.73182L4.17706 5.02955L3.58388 4.6H4.32024L4.54524 3.90455ZM8.6907 3.90455L8.9157 4.60682H9.65206L9.05888 5.03637L9.28388 5.73182L8.6907 5.30228L8.09752 5.73182L8.32933 5.02955L7.72933 4.6H8.45888L8.6907 3.90455ZM12.8362 3.90455L13.0612 4.60682H13.7907L13.2043 5.03637L13.4293 5.73182L12.8362 5.30228L12.243 5.73182L12.468 5.02955L11.8816 4.6H12.6112L12.8362 3.90455ZM16.9816 3.90455L17.2066 4.60682H17.943L17.343 5.03637L17.5748 5.73182L16.9816 5.30228L16.3884 5.73182L16.6202 5.02955L16.0202 4.6H16.7566L16.9816 3.90455ZM-1.67294 5.67728L-1.44794 6.37273H-0.704758L-1.29794 6.80228L-1.07294 7.50455L-1.66612 7.06819L-2.2593 7.49773L-2.0343 6.80228L-2.62067 6.37273H-1.89112L-1.67294 5.67728ZM2.47251 5.67728L2.70433 6.37273H3.43388L2.83388 6.80228L3.0657 7.50455L2.47251 7.06819L1.87933 7.49773L2.10433 6.80228L1.51115 6.37273H2.24751L2.47251 5.67728ZM6.61797 5.67728L6.84297 6.37273H7.57933L6.98615 6.80228L7.21115 7.50455L6.61797 7.06819L6.02479 7.49773L6.24979 6.80228L5.66342 6.37273H6.38615L6.61797 5.67728ZM10.7634 5.67728L10.9952 6.37273H11.7248L11.1316 6.80228L11.3566 7.50455L10.7634 7.06819L10.1771 7.49773L10.3952 6.80228L9.80206 6.37273H10.5452L10.7634 5.67728ZM14.9089 5.67728L15.1339 6.37273H15.8702L15.2771 6.80228L15.5021 7.50455L14.9089 7.06819L14.3157 7.49773L14.5407 6.80228L13.9543 6.37273H14.6839L14.9089 5.67728ZM-3.74567 7.44319L-3.51385 8.13864H-2.79112L-3.37749 8.56819L-3.15249 9.27046L-3.74567 8.8341L-4.33203 9.26364L-4.11385 8.56819L-4.70703 8.13864H-3.96385L-3.74567 7.44319ZM0.399786 7.44319L0.624787 8.13864H1.36115L0.767969 8.56819L0.986151 9.26364L0.399786 8.8341L-0.193395 9.26364L0.0316052 8.56819L-0.554759 8.13864H0.167969L0.399786 7.44319ZM4.54524 7.44319L4.77024 8.13864H5.49979L4.91342 8.56819L5.13842 9.27046L4.54524 8.8341L3.95206 9.26364L4.17706 8.56819L3.58388 8.13864H4.32024L4.54524 7.44319ZM8.6907 7.44319L8.9157 8.13864H9.65206L9.05888 8.56819L9.28388 9.27046L8.6907 8.8341L8.09752 9.26364L8.32933 8.56819L7.72933 8.13864H8.45888L8.6907 7.44319ZM12.8362 7.44319L13.0612 8.13864H13.7907L13.2043 8.56819L13.4293 9.27046L12.8362 8.8341L12.243 9.26364L12.468 8.56819L11.8816 8.13864H12.6112L12.8362 7.44319ZM16.9816 7.44319L17.2066 8.13864H17.943L17.343 8.56819L17.5748 9.27046L16.9816 8.8341L16.3884 9.26364L16.6134 8.56819L16.0134 8.13864H16.7498L16.9816 7.44319ZM-1.67294 9.20228L-1.44794 9.90455H-0.704758L-1.29794 10.3273L-1.07294 11.0296L-1.66612 10.5932L-2.2593 11.0296L-2.0343 10.3273L-2.62067 9.89773H-1.89112L-1.67294 9.20228ZM2.47251 9.20228L2.70433 9.90455H3.43388L2.83388 10.3273L3.0657 11.0296L2.47251 10.5932L1.87933 11.0296L2.10433 10.3273L1.51115 9.89773H2.24751L2.47251 9.20228ZM6.61797 9.20228L6.84297 9.90455H7.57933L6.98615 10.3273L7.21115 11.0296L6.61797 10.5932L6.02479 11.0296L6.24979 10.3273L5.66342 9.89773H6.38615L6.61797 9.20228ZM10.7634 9.20228L10.9952 9.90455H11.7248L11.1316 10.3273L11.3566 11.0296L10.7634 10.5932L10.1771 11.0296L10.3952 10.3273L9.80206 9.89773H10.5452L10.7634 9.20228ZM14.9089 9.20228L15.1339 9.90455H15.8702L15.2771 10.3273L15.5021 11.0296L14.9089 10.5932L14.3157 11.0296L14.5407 10.3273L13.9543 9.89773H14.6839L14.9089 9.20228ZM-3.74567 10.9614L-3.51385 11.6636H-2.79112L-3.37749 12.0932L-3.15249 12.7818L-3.74567 12.3591L-4.33203 12.7818L-4.11385 12.0864L-4.70703 11.6568H-3.96385L-3.74567 10.9614ZM0.399786 10.9614L0.624787 11.6636H1.36115L0.767969 12.0932L0.99297 12.7818L0.399786 12.3591L-0.193395 12.7818L0.038424 12.0864L-0.554759 11.6568H0.167969L0.399786 10.9614ZM4.54524 10.9614L4.77024 11.6636H5.49979L4.91342 12.0932L5.13842 12.7818L4.54524 12.3591L3.95206 12.7818L4.17706 12.0864L3.58388 11.6568H4.32024L4.54524 10.9614ZM8.6907 10.9614L8.9157 11.6636H9.65206L9.05888 12.0932L9.28388 12.7818L8.6907 12.3591L8.09752 12.7818L8.32933 12.0864L7.72933 11.6568H8.45888L8.6907 10.9614ZM12.8362 10.9614L13.0612 11.6636H13.7907L13.2043 12.0932L13.4293 12.7818L12.8362 12.3591L12.243 12.7818L12.468 12.0864L11.8816 11.6568H12.6112L12.8362 10.9614ZM16.9816 10.9614L17.2066 11.6636H17.943L17.343 12.0932L17.5748 12.7818L16.9816 12.3591L16.3884 12.7818L16.6202 12.0864L16.0202 11.6568H16.7566L16.9816 10.9614ZM-1.67294 12.7273L-1.44794 13.4227H-0.704758L-1.29794 13.8523L-1.07294 14.5546L-1.66612 14.1182L-2.2593 14.5477L-2.0343 13.8523L-2.62067 13.4227H-1.89112L-1.67294 12.7273ZM2.47251 12.7273L2.70433 13.4227H3.43388L2.83388 13.8523L3.0657 14.5546L2.47251 14.1182L1.87933 14.5477L2.10433 13.8523L1.51115 13.4227H2.24751L2.47251 12.7273ZM6.61797 12.7273L6.84297 13.4227H7.57933L6.98615 13.8523L7.21115 14.5546L6.61797 14.1182L6.02479 14.5477L6.24979 13.8523L5.66342 13.4227H6.38615L6.61797 12.7273ZM10.7634 12.7273L10.9952 13.4227H11.7248L11.1316 13.8523L11.3566 14.5546L10.7634 14.1182L10.1771 14.5477L10.3952 13.8523L9.80206 13.4227H10.5452L10.7634 12.7273ZM14.9089 12.7273L15.1339 13.4227H15.8702L15.2771 13.8523L15.5021 14.5546L14.9089 14.1182L14.3157 14.5477L14.5407 13.8523L13.9543 13.4227H14.6839L14.9089 12.7273ZM-3.74567 14.4932L-3.51385 15.1886H-2.79112L-3.37749 15.6182L-3.15249 16.3136L-3.74567 15.8841L-4.33203 16.3136L-4.11385 15.6114L-4.70703 15.1818H-3.96385L-3.74567 14.4932ZM0.399786 14.4932L0.624787 15.1886H1.36115L0.767969 15.6182L0.99297 16.3136L0.399786 15.8841L-0.193395 16.3136L0.038424 15.6114L-0.554759 15.1818H0.167969L0.399786 14.4932ZM4.54524 14.4932L4.77024 15.1886H5.49979L4.92706 15.6182L5.15206 16.3136L4.55888 15.8841L3.9657 16.3136L4.1907 15.6114L3.59752 15.1818H4.33388L4.54524 14.4932ZM8.6907 14.4932L8.9157 15.1886H9.65206L9.05888 15.6182L9.28388 16.3136L8.6907 15.8841L8.09752 16.3136L8.32933 15.6114L7.72933 15.1818H8.45888L8.6907 14.4932ZM12.8362 14.4932L13.0612 15.1886H13.7907L13.2043 15.6182L13.4293 16.3136L12.8362 15.8841L12.243 16.3136L12.468 15.6114L11.8816 15.1818H12.6112L12.8362 14.4932ZM16.9816 14.4932L17.2066 15.1886H17.943L17.343 15.6182L17.5748 16.3136L16.9816 15.8841L16.3884 16.3136L16.6202 15.6114L16.0202 15.1818H16.7566L16.9816 14.4932Z" fill="white"/>
</g>
</g>
</g>
<defs>
<clipPath id="clip0_12_78145">
<rect width="32" height="32" rx="16" fill="white"/>
</clipPath>
<clipPath id="clip1_12_78145">
<rect width="32" height="32" rx="16" fill="white"/>
</clipPath>
<clipPath id="clip2_12_78145">
<rect width="43.6364" height="32.7273" fill="white" transform="translate(-5.81836 -0.363632)"/>
</clipPath>
</defs>
</svg>
