<svg width="32" height="32" viewBox="0 0 32 32" fill="none" xmlns="http://www.w3.org/2000/svg">
<g clip-path="url(#clip0_12_78157)">
<g clip-path="url(#clip1_12_78157)">
<g clip-path="url(#clip2_12_78157)">
<path d="M-8.72754 -0.363556H40.727V32.3637H-8.72754V-0.363556Z" fill="white"/>
<path d="M-1.14551 9.57683L3.43336 2.76292L4.57468 3.51777L-0.00418866 10.3317L-1.14551 9.57683ZM0.566471 10.7091L5.14534 3.8952L6.28666 4.65005L1.70779 11.464L0.566471 10.7091ZM2.27845 11.8414L6.85732 5.02748L7.99864 5.78233L3.41977 12.5962L2.27845 11.8414Z" fill="black"/>
<path d="M24.0005 26.2178L28.5794 19.4039L29.7207 20.1588L25.1418 26.9727L24.0005 26.2178ZM25.7125 27.3501L30.2913 20.5362L31.4327 21.2911L26.8538 28.105L25.7125 27.3501ZM27.4244 28.4824L32.0033 21.6685L33.1446 22.4233L28.5658 29.2372L27.4244 28.4824Z" fill="black"/>
<path d="M25.7153 22.4296L31.4304 26.2116L25.7153 22.4296Z" fill="black"/>
<path d="M25.7153 22.4296L25.5126 22.7314L31.2277 26.5135L31.4304 26.2116L31.6332 25.9097L25.9181 22.1277L25.7153 22.4296Z" fill="white"/>
<path d="M9.1416 11.4727C10.3568 9.66423 12.2442 8.40744 14.3887 7.97877C16.5332 7.5501 18.7591 7.98467 20.5767 9.18688C22.3943 10.3891 23.6547 12.2605 24.0806 14.3893C24.5066 16.5182 24.0633 18.7301 22.8481 20.5385L9.1416 11.4727Z" fill="currentColor"/>
<path d="M9.15007 11.4662C7.93518 13.2741 7.49192 15.4854 7.91779 17.6137C8.34367 19.7419 9.60379 21.6127 11.421 22.8146C13.2381 24.0165 15.4635 24.4509 17.6074 24.0224C19.7514 23.5938 21.6384 22.3374 22.8533 20.5295C23.4607 19.6255 23.6824 18.5198 23.4694 17.4557C23.2565 16.3916 22.6264 15.4562 21.7179 14.8552C20.8093 14.2543 19.6966 14.0371 18.6246 14.2514C17.5526 14.4656 16.6091 15.0939 16.0017 15.9978L9.15007 11.4662Z" fill="currentColor"/>
<path d="M15.9957 15.9962C17.2604 14.1142 16.7522 11.5743 14.8605 10.3232C12.9688 9.07203 10.4101 9.58347 9.1454 11.4655C7.88071 13.3475 8.38897 15.8874 10.2806 17.1386C12.1723 18.3897 14.731 17.8782 15.9957 15.9962Z" fill="currentColor"/>
<path d="M3.43359 29.2372L-1.14528 22.4233L-0.0039598 21.6685L4.57491 28.4824L3.43359 29.2372ZM5.14557 28.105L0.5667 21.2911L1.70802 20.5362L6.28689 27.3501L5.14557 28.105ZM6.85755 26.9727L2.27868 20.1588L3.42 19.4039L7.99887 26.2178L6.85755 26.9727Z" fill="black"/>
<path d="M28.5801 12.5962L24.0012 5.78233L25.1425 5.02747L29.7214 11.8414L28.5801 12.5962ZM30.2921 11.464L25.7132 4.65005L26.8545 3.89519L31.4334 10.7091L30.2921 11.464ZM32.004 10.3317L27.4252 3.51777L28.5665 2.76291L33.1454 9.57683L32.004 10.3317Z" fill="black"/>
<path d="M2.56934 24.8879L4.28386 23.7533L2.56934 24.8879ZM25.7155 9.57059L27.7157 8.24687L25.7155 9.57059ZM29.4303 7.11226L31.1448 5.97764L29.4303 7.11226Z" fill="black"/>
<path d="M2.56934 24.8879L2.77208 25.1898L4.4866 24.0551L4.28386 23.7533L4.08112 23.4514L2.3666 24.586L2.56934 24.8879ZM25.7155 9.57059L25.9182 9.87246L27.9185 8.54875L27.7157 8.24687L27.513 7.945L25.5127 9.26871L25.7155 9.57059ZM29.4303 7.11226L29.633 7.41413L31.3475 6.27952L31.1448 5.97764L30.9421 5.67577L29.2275 6.81038L29.4303 7.11226Z" fill="white"/>
</g>
</g>
</g>
<defs>
<clipPath id="clip0_12_78157">
<rect width="32" height="32" rx="16" fill="white"/>
</clipPath>
<clipPath id="clip1_12_78157">
<rect width="32" height="32" rx="16" fill="white"/>
</clipPath>
<clipPath id="clip2_12_78157">
<rect width="43.6364" height="32.7273" fill="white" transform="translate(-5.81836 -0.363632)"/>
</clipPath>
</defs>
</svg>
