<svg width="32" height="32" viewBox="0 0 32 32" fill="none" xmlns="http://www.w3.org/2000/svg">
<g clip-path="url(#clip0_12_78678)">
<path d="M16.0017 0C9.04777 0 3.11608 4.46026 0.916016 10.6678H31.0838C28.8837 4.46026 22.952 0 16.0017 0Z" fill="white"/>
<path d="M16.0017 32C22.9556 32 28.8837 27.5433 31.0873 21.3322H0.916016C3.11608 27.5433 9.04777 32 16.0017 32Z" fill="currentColor"/>
<path d="M31.0839 10.6678H0.916105C0.321875 12.3374 0 14.1342 0 16.0018C0 17.8694 0.321875 19.6697 0.916105 21.3357H31.0839C31.6746 19.6697 32 17.8729 32 16.0018C32 14.1307 31.6781 12.3374 31.0839 10.6678Z" fill="currentColor"/>
</g>
<defs>
<clipPath id="clip0_12_78678">
<rect width="32" height="32" fill="white"/>
</clipPath>
</defs>
</svg>
