<svg width="24" height="24" viewBox="0 0 24 24" fill="none" xmlns="http://www.w3.org/2000/svg">
<g clip-path="url(#clip0_12_79536)">
<path d="M2.25 3.75C2.25 4.54565 2.56607 5.30871 3.12868 5.87132C3.69129 6.43393 4.45435 6.75 5.25 6.75C6.04565 6.75 6.80871 6.43393 7.37132 5.87132C7.93393 5.30871 8.25 4.54565 8.25 3.75C8.25 2.95435 7.93393 2.19129 7.37132 1.62868C6.80871 1.06607 6.04565 0.75 5.25 0.75C4.45435 0.75 3.69129 1.06607 3.12868 1.62868C2.56607 2.19129 2.25 2.95435 2.25 3.75Z" stroke="currentColor" stroke-linecap="round" stroke-linejoin="round"/>
<path d="M7.5 23.25L8.25 15.75H9.75V12.75C9.75 11.5565 9.27589 10.4119 8.43198 9.56802C7.58807 8.72411 6.44347 8.25 5.25 8.25C4.05653 8.25 2.91193 8.72411 2.06802 9.56802C1.22411 10.4119 0.75 11.5565 0.75 12.75V15.75H2.25L3 23.25H7.5Z" stroke="currentColor" stroke-linecap="round" stroke-linejoin="round"/>
<path d="M23.25 6.75C23.25 7.93669 22.8981 9.09673 22.2388 10.0834C21.5795 11.0701 20.6425 11.8392 19.5461 12.2933C18.4497 12.7474 17.2433 12.8662 16.0795 12.6347C14.9156 12.4032 13.8465 11.8318 13.0074 10.9926C12.1682 10.1535 11.5968 9.08443 11.3653 7.92054C11.1338 6.75666 11.2526 5.55026 11.7067 4.4539C12.1609 3.35754 12.9299 2.42047 13.9166 1.76118C14.9033 1.10189 16.0633 0.75 17.25 0.75" stroke="currentColor" stroke-linecap="round" stroke-linejoin="round"/>
<path d="M23.25 2.24902L17.78 7.71902C17.7104 7.78869 17.6278 7.84395 17.5369 7.88166C17.4459 7.91937 17.3484 7.93878 17.25 7.93878C17.1516 7.93878 17.0541 7.91937 16.9631 7.88166C16.8722 7.84395 16.7896 7.78869 16.72 7.71902L15 6.00002" stroke="currentColor" stroke-linecap="round" stroke-linejoin="round"/>
</g>
<defs>
<clipPath id="clip0_12_79536">
<rect width="24" height="24" fill="white"/>
</clipPath>
</defs>
</svg>
