<svg width="24" height="24" viewBox="0 0 24 24" fill="none" xmlns="http://www.w3.org/2000/svg">
<g clip-path="url(#clip0_12_79563)">
<path d="M2.25 3.75C2.25 4.54565 2.56607 5.30871 3.12868 5.87132C3.69129 6.43393 4.45435 6.75 5.25 6.75C6.04565 6.75 6.80871 6.43393 7.37132 5.87132C7.93393 5.30871 8.25 4.54565 8.25 3.75C8.25 2.95435 7.93393 2.19129 7.37132 1.62868C6.80871 1.06607 6.04565 0.75 5.25 0.75C4.45435 0.75 3.69129 1.06607 3.12868 1.62868C2.56607 2.19129 2.25 2.95435 2.25 3.75Z" stroke="currentColor" stroke-linecap="round" stroke-linejoin="round"/>
<path d="M7.5 23.25L8.25 15.75H9.75V12.75C9.75 11.5565 9.27589 10.4119 8.43198 9.56802C7.58807 8.72411 6.44347 8.25 5.25 8.25C4.05653 8.25 2.91193 8.72411 2.06802 9.56802C1.22411 10.4119 0.75 11.5565 0.75 12.75V15.75H2.25L3 23.25H7.5Z" stroke="currentColor" stroke-linecap="round" stroke-linejoin="round"/>
<path d="M16.5 11.25H12.75" stroke="currentColor" stroke-linecap="round" stroke-linejoin="round"/>
<path d="M16.5 2.25H15.75C15.3522 2.25 14.9706 2.40804 14.6893 2.68934C14.408 2.97064 14.25 3.35218 14.25 3.75V18.75C14.25 19.1478 14.408 19.5294 14.6893 19.8107C14.9706 20.092 15.3522 20.25 15.75 20.25H16.5" stroke="currentColor" stroke-linecap="round" stroke-linejoin="round"/>
<path d="M18.75 2.25L20.25 3.75L23.25 0.75" stroke="currentColor" stroke-linecap="round" stroke-linejoin="round"/>
<path d="M18.75 11.25L20.25 12.75L23.25 9.75" stroke="currentColor" stroke-linecap="round" stroke-linejoin="round"/>
<path d="M18.75 18.75L23.25 23.25" stroke="currentColor" stroke-linecap="round" stroke-linejoin="round"/>
<path d="M23.25 18.75L18.75 23.25" stroke="currentColor" stroke-linecap="round" stroke-linejoin="round"/>
</g>
<defs>
<clipPath id="clip0_12_79563">
<rect width="24" height="24" fill="white"/>
</clipPath>
</defs>
</svg>
