<svg width="24" height="24" viewBox="0 0 24 24" fill="none" xmlns="http://www.w3.org/2000/svg">
<g clip-path="url(#clip0_12_79499)">
<path d="M3.375 4.875C3.375 5.96902 3.8096 7.01823 4.58318 7.79182C5.35677 8.5654 6.40598 9 7.5 9C8.59402 9 9.64323 8.5654 10.4168 7.79182C11.1904 7.01823 11.625 5.96902 11.625 4.875C11.625 3.78098 11.1904 2.73177 10.4168 1.95818C9.64323 1.1846 8.59402 0.75 7.5 0.75C6.40598 0.75 5.35677 1.1846 4.58318 1.95818C3.8096 2.73177 3.375 3.78098 3.375 4.875Z" stroke="currentColor" stroke-linecap="round" stroke-linejoin="round"/>
<path d="M8.25 10.558C8.00135 10.524 7.75092 10.5046 7.5 10.5C5.70979 10.5 3.9929 11.2112 2.72703 12.477C1.46116 13.7429 0.75 15.4598 0.75 17.25" stroke="currentColor" stroke-linecap="round" stroke-linejoin="round"/>
<path d="M21.75 20.25H18.75L14.25 23.25V20.25H12.75C12.3522 20.25 11.9706 20.092 11.6893 19.8107C11.408 19.5294 11.25 19.1478 11.25 18.75V12.75C11.25 12.3522 11.408 11.9706 11.6893 11.6893C11.9706 11.408 12.3522 11.25 12.75 11.25H21.75C22.1478 11.25 22.5294 11.408 22.8107 11.6893C23.092 11.9706 23.25 12.3522 23.25 12.75V18.75C23.25 19.1478 23.092 19.5294 22.8107 19.8107C22.5294 20.092 22.1478 20.25 21.75 20.25Z" stroke="currentColor" stroke-linecap="round" stroke-linejoin="round"/>
<path d="M14.25 14.25H20.25" stroke="currentColor" stroke-linecap="round" stroke-linejoin="round"/>
<path d="M14.25 17.25H20.25" stroke="currentColor" stroke-linecap="round" stroke-linejoin="round"/>
</g>
<defs>
<clipPath id="clip0_12_79499">
<rect width="24" height="24" fill="white"/>
</clipPath>
</defs>
</svg>
