<svg width="24" height="24" viewBox="0 0 24 24" fill="none" xmlns="http://www.w3.org/2000/svg">
<g clip-path="url(#clip0_12_79488)">
<path d="M0.75 17.2489C0.75076 16.133 1.02804 15.0347 1.55706 14.0521C2.08607 13.0696 2.85033 12.2334 3.78149 11.6185C4.71265 11.0035 5.7817 10.6289 6.89305 10.5281C8.00439 10.4273 9.12339 10.6035 10.15 11.0409" stroke="currentColor" stroke-linecap="round" stroke-linejoin="round"/>
<path d="M7.5 8.99902C9.77817 8.99902 11.625 7.1522 11.625 4.87402C11.625 2.59585 9.77817 0.749023 7.5 0.749023C5.22183 0.749023 3.375 2.59585 3.375 4.87402C3.375 7.1522 5.22183 8.99902 7.5 8.99902Z" stroke="currentColor" stroke-linecap="round" stroke-linejoin="round"/>
<path d="M18 12C18.9946 12 19.9484 12.3951 20.6517 13.0983C21.3549 13.8016 21.75 14.7554 21.75 15.75V18.75C21.75 19.1478 21.908 19.5294 22.1893 19.8107C22.4706 20.092 22.8522 20.25 23.25 20.25H12.75C13.1478 20.25 13.5294 20.092 13.8107 19.8107C14.092 19.5294 14.25 19.1478 14.25 18.75V15.75C14.25 14.7554 14.6451 13.8016 15.3483 13.0983C16.0516 12.3951 17.0054 12 18 12Z" stroke="currentColor" stroke-linecap="round" stroke-linejoin="round"/>
<path d="M18 23.25C17.7929 23.25 17.625 23.0821 17.625 22.875C17.625 22.6679 17.7929 22.5 18 22.5" stroke="currentColor"/>
<path d="M18 23.25C18.2071 23.25 18.375 23.0821 18.375 22.875C18.375 22.6679 18.2071 22.5 18 22.5" stroke="currentColor"/>
</g>
<defs>
<clipPath id="clip0_12_79488">
<rect width="24" height="24" fill="white"/>
</clipPath>
</defs>
</svg>
