<svg width="24" height="24" viewBox="0 0 24 24" fill="none" xmlns="http://www.w3.org/2000/svg">
<g clip-path="url(#clip0_12_79480)">
<path d="M8.57185 9.42861C10.9388 9.42861 12.8576 7.50982 12.8576 5.14289C12.8576 2.77596 10.9388 0.857178 8.57185 0.857178C6.20492 0.857178 4.28613 2.77596 4.28613 5.14289C4.28613 7.50982 6.20492 9.42861 8.57185 9.42861Z" stroke="currentColor" stroke-linecap="round" stroke-linejoin="round"/>
<path d="M8.57171 21.4285H0.857422V20.4991C0.871069 19.1923 1.21567 17.9106 1.85903 16.7732C2.5024 15.6359 3.42354 14.6801 4.5364 13.9953C5.64928 13.3104 6.91758 12.9188 8.22282 12.857C8.33918 12.8515 8.45551 12.8486 8.57171 12.8484C8.6879 12.8486 8.80425 12.8515 8.92062 12.857C10.2259 12.9188 11.4942 13.3104 12.607 13.9953C13.247 14.3891 13.8235 14.8725 14.3203 15.4285" stroke="currentColor" stroke-linecap="round" stroke-linejoin="round"/>
<path d="M23.1424 13.7144L16.0795 23.1429L11.3652 19.6115" stroke="currentColor" stroke-linecap="round" stroke-linejoin="round"/>
</g>
<defs>
<clipPath id="clip0_12_79480">
<rect width="24" height="24" fill="white"/>
</clipPath>
</defs>
</svg>
