<svg width="24" height="24" viewBox="0 0 24 24" fill="none" xmlns="http://www.w3.org/2000/svg">
<g clip-path="url(#clip0_12_78990)">
<path d="M21.6837 9.39005C21.5917 9.72766 21.4046 10.0317 21.1447 10.266L20.1727 11.144C19.9828 11.3154 19.831 11.5248 19.7271 11.7585C19.6232 11.9923 19.5695 12.2452 19.5695 12.501C19.5695 12.7569 19.6232 13.0098 19.7271 13.2436C19.831 13.4773 19.9828 13.6867 20.1727 13.858L21.1447 14.736C21.4251 14.989 21.6204 15.3226 21.7035 15.6909C21.7867 16.0593 21.7537 16.4444 21.6092 16.7933C21.4646 17.1422 21.2155 17.4377 20.8961 17.6393C20.5768 17.8409 20.2028 17.9386 19.8257 17.919L18.5177 17.852C18.2623 17.8391 18.0071 17.8799 17.7685 17.9718C17.5298 18.0637 17.3132 18.2046 17.1324 18.3855C16.9516 18.5663 16.8108 18.7831 16.7191 19.0217C16.6273 19.2604 16.5866 19.5157 16.5997 19.771L16.6667 21.079C16.687 21.4566 16.5897 21.8311 16.3882 22.1511C16.1868 22.471 15.8911 22.7206 15.5419 22.8655C15.1926 23.0104 14.8071 23.0434 14.4383 22.9601C14.0695 22.8767 13.7357 22.6811 13.4827 22.4L12.6047 21.428C12.4333 21.2382 12.224 21.0863 11.9902 20.9824C11.7565 20.8785 11.5035 20.8248 11.2477 20.8248C10.9919 20.8248 10.7389 20.8785 10.5052 20.9824C10.2714 21.0863 10.0621 21.2382 9.89071 21.428L9.0127 22.4C8.75967 22.6807 8.42589 22.876 8.0573 22.9591C7.68871 23.0422 7.30342 23.0091 6.95444 22.8642C6.60545 22.7194 6.30992 22.47 6.1085 22.1503C5.90709 21.8306 5.80969 21.4564 5.8297 21.079L5.8997 19.771C5.91277 19.5156 5.87208 19.2602 5.78027 19.0215C5.68845 18.7828 5.54755 18.5659 5.36668 18.3851C5.18581 18.2042 4.969 18.0633 4.73026 17.9715C4.49151 17.8797 4.23616 17.839 3.9807 17.852L2.67271 17.919C2.29556 17.9386 1.92161 17.8409 1.60226 17.6393C1.28291 17.4377 1.03383 17.1422 0.889254 16.7933C0.74468 16.4444 0.711711 16.0593 0.794878 15.6909C0.878045 15.3226 1.07326 14.989 1.3537 14.736L2.3257 13.858C2.5156 13.6867 2.66741 13.4773 2.77131 13.2436C2.87522 13.0098 2.9289 12.7569 2.9289 12.501C2.9289 12.2452 2.87522 11.9923 2.77131 11.7585C2.66741 11.5248 2.5156 11.3154 2.3257 11.144L1.3537 10.266C1.07351 10.0133 0.878419 9.67999 0.795193 9.31192C0.711967 8.94385 0.74469 8.55905 0.888871 8.21032C1.03305 7.86159 1.28162 7.56603 1.60047 7.36419C1.91932 7.16236 2.29282 7.06416 2.66971 7.08305L3.9777 7.15005C4.2334 7.16355 4.48909 7.12318 4.72819 7.03156C4.96729 6.93994 5.18448 6.79911 5.36568 6.61819C5.54688 6.43727 5.68805 6.22031 5.78005 5.98135C5.87204 5.74239 5.91281 5.48677 5.8997 5.23105L5.8297 3.92305C5.80924 3.54556 5.90632 3.17101 6.10756 2.85098C6.30881 2.53096 6.60433 2.2812 6.95342 2.1361C7.30251 1.991 7.688 1.9577 8.0568 2.04079C8.4256 2.12388 8.75956 2.31927 9.0127 2.60005L9.89071 3.57205C10.0619 3.76222 10.2712 3.91428 10.505 4.01836C10.7388 4.12245 10.9918 4.17624 11.2477 4.17624C11.5036 4.17624 11.7566 4.12245 11.9904 4.01836C12.2242 3.91428 12.4335 3.76222 12.6047 3.57205L13.4827 2.60005C13.7362 2.32054 14.07 2.12629 14.4383 2.04394C14.8065 1.96158 15.1913 1.99515 15.5397 2.14005" stroke="currentColor" stroke-linecap="round" stroke-linejoin="round"/>
<path d="M7.59961 10.641L10.1126 13.992C10.2481 14.1725 10.4225 14.3201 10.6229 14.4238C10.8234 14.5275 11.0446 14.5847 11.2702 14.591C11.4958 14.5974 11.7199 14.5527 11.9258 14.4605C12.1318 14.3682 12.3142 14.2306 12.4596 14.058L23.2476 1.25098" stroke="currentColor" stroke-linecap="round" stroke-linejoin="round"/>
</g>
<defs>
<clipPath id="clip0_12_78990">
<rect width="24" height="24" fill="white"/>
</clipPath>
</defs>
</svg>
