<svg width="24" height="24" viewBox="0 0 24 24" fill="none" xmlns="http://www.w3.org/2000/svg">
<path d="M16.2853 11.1429C16.2853 12.2795 15.8338 13.3696 15.03 14.1733C14.2263 14.9771 13.1362 15.4286 11.9996 15.4286C10.8629 15.4286 9.77285 14.9771 8.96912 14.1733C8.1654 13.3696 7.71387 12.2795 7.71387 11.1429V5.14289C7.71387 4.00625 8.1654 2.91616 8.96912 2.11243C9.77285 1.30871 10.8629 0.857178 11.9996 0.857178C13.1362 0.857178 14.2263 1.30871 15.03 2.11243C15.8338 2.91616 16.2853 4.00625 16.2853 5.14289V11.1429Z" stroke="currentColor" stroke-linecap="round" stroke-linejoin="round"/>
<path d="M20.5713 12C20.5732 13.0136 20.3748 14.0175 19.9878 14.9543C19.6008 15.891 19.0326 16.7422 18.3159 17.4589C17.5992 18.1756 16.7481 18.7437 15.8113 19.1307C14.8746 19.5178 13.8706 19.7161 12.8571 19.7143H11.1428C10.1291 19.7165 9.12493 19.5186 8.18797 19.1317C7.25101 18.7448 6.3997 18.1767 5.68291 17.4599C4.96612 16.7431 4.39798 15.8918 4.0111 14.9548C3.62422 14.0178 3.42623 13.0137 3.42849 12" stroke="currentColor" stroke-linecap="round" stroke-linejoin="round"/>
<path d="M12 19.7142V23.1428" stroke="currentColor" stroke-linecap="round" stroke-linejoin="round"/>
</svg>
