<svg width="24" height="24" viewBox="0 0 24 24" fill="none" xmlns="http://www.w3.org/2000/svg">
<path d="M20.4615 11.8809V8.84115C20.4615 8.6396 20.4225 8.44572 20.3444 8.25952C20.2664 8.07332 20.1552 7.90896 20.0109 7.76644C19.8667 7.62393 19.7003 7.51411 19.5118 7.43698C19.3233 7.35985 19.1271 7.32129 18.9231 7.32129H3.53846C3.33445 7.32129 3.1382 7.35985 2.94972 7.43698C2.76123 7.51411 2.59486 7.62393 2.4506 7.76644C2.30635 7.90896 2.19518 8.07332 2.11711 8.25952C2.03904 8.44573 2 8.6396 2 8.84115V19.4801C2 19.6817 2.03904 19.8756 2.11711 20.0618C2.19518 20.248 2.30635 20.4123 2.4506 20.5548C2.59486 20.6974 2.76123 20.8072 2.94972 20.8843C3.1382 20.9614 3.33445 21 3.53846 21H18.9231C19.1271 21 19.3233 20.9614 19.5118 20.8843C19.7003 20.8072 19.8667 20.6974 20.0109 20.5548C20.1552 20.4123 20.2664 20.248 20.3444 20.0618C20.4225 19.8756 20.4615 19.6817 20.4615 19.4801V15.6805" stroke="currentColor" stroke-width="1.25" stroke-linecap="round" stroke-linejoin="round"/>
<path d="M5.84619 4.86824L16.6293 2.02763C16.8368 1.97292 17.0332 1.99946 17.2182 2.10725C17.4033 2.21504 17.5219 2.3719 17.5739 2.57782L18.1539 4.86824" stroke="currentColor" stroke-width="1.25" stroke-linecap="round" stroke-linejoin="round"/>
<path fill-rule="evenodd" clip-rule="evenodd" d="M16.6155 11.8809H22.0001V15.6805H16.6155V11.8809Z" stroke="currentColor" stroke-width="1.25" stroke-linecap="round" stroke-linejoin="round"/>
</svg>
