<svg width="24" height="24" viewBox="0 0 24 24" fill="none" xmlns="http://www.w3.org/2000/svg">
<path d="M12.0001 16.8003C11.7334 16.8003 11.6001 16.9336 11.6001 17.2003C11.6001 17.4669 11.7334 17.6003 12.0001 17.6003C12.2667 17.6003 12.4001 17.4669 12.4001 17.2003C12.4001 16.9336 12.2667 16.8003 12.0001 16.8003V16.8003" stroke="currentColor" stroke-linecap="round" stroke-linejoin="round"/>
<path d="M12.0001 13.6001V5.6001" stroke="currentColor" stroke-linecap="round"/>
<path d="M12 0.5C12.1904 0.5 12.372 0.536412 12.5479 0.609375C12.6796 0.664085 12.7992 0.73509 12.9072 0.824219L13.0117 0.919922L23.0811 10.9883C23.2156 11.123 23.3178 11.2772 23.3906 11.4531C23.4634 11.6291 23.5 11.8105 23.5 12.001C23.5 12.1914 23.4634 12.3729 23.3906 12.5488C23.3178 12.7246 23.2154 12.8781 23.0811 13.0127L13.0117 23.0811C12.8771 23.2156 12.7237 23.3188 12.5479 23.3916C12.3719 23.4644 12.1904 23.5 12 23.5L11.8584 23.4932C11.719 23.4796 11.5839 23.4462 11.4521 23.3916C11.2763 23.3188 11.1229 23.2156 10.9883 23.0811L0.917969 13.0127C0.783838 12.8782 0.682069 12.7243 0.609375 12.5488C0.53657 12.3729 0.50004 12.1914 0.5 12.001C0.5 11.8105 0.53657 11.6291 0.609375 11.4531C0.66403 11.3211 0.735083 11.2012 0.824219 11.0928L0.918945 10.9883L10.9883 0.919922C11.1226 0.785248 11.2765 0.682328 11.4521 0.609375C11.628 0.536412 11.8096 0.5 12 0.5Z" stroke="currentColor" stroke-linecap="round" stroke-linejoin="round"/>
</svg>
