<svg width="24" height="24" viewBox="0 0 24 24" fill="none" xmlns="http://www.w3.org/2000/svg">
<path d="M2.97437 14.4614V21.846C2.97437 22.2992 3.34172 22.6665 3.79488 22.6665H20.2051C20.6583 22.6665 21.0256 22.2992 21.0256 21.846V14.4614" stroke="currentColor" stroke-linecap="round" stroke-linejoin="round"/>
<path fill-rule="evenodd" clip-rule="evenodd" d="M21.8461 10.3592H2.15376C1.70061 10.3592 1.33325 9.9918 1.33325 9.53865V6.2566L3.3353 2.2361C3.61603 1.67897 4.18838 1.32919 4.81223 1.33354H19.1876C19.8115 1.32919 20.3838 1.67897 20.6645 2.2361L22.6666 6.2566V9.53865C22.6666 9.9918 22.2992 10.3592 21.8461 10.3592Z" stroke="currentColor" stroke-linecap="round" stroke-linejoin="round"/>
<path d="M13.6411 14.4614V22.6665" stroke="currentColor" stroke-linecap="round" stroke-linejoin="round"/>
<path d="M2.97437 16.9231H13.641" stroke="currentColor" stroke-linecap="round" stroke-linejoin="round"/>
<path d="M1.33325 6.25655H22.6666" stroke="currentColor" stroke-linecap="round" stroke-linejoin="round"/>
</svg>
