<svg width="24" height="24" viewBox="0 0 24 24" fill="none" xmlns="http://www.w3.org/2000/svg">
<path d="M9.11995 12.72H2.63995C2.25804 12.72 1.89177 12.5683 1.62172 12.2982C1.35166 12.0282 1.19995 11.6618 1.19995 11.28V2.63995C1.19995 2.25804 1.35166 1.89177 1.62172 1.62172C1.89177 1.35166 2.25804 1.19995 2.63995 1.19995H19.92C20.3018 1.19995 20.6682 1.35166 20.9382 1.62172C21.2083 1.89177 21.36 2.25804 21.36 2.63995V8.39995" stroke="currentColor" stroke-linecap="round" stroke-linejoin="round"/>
<path fill-rule="evenodd" clip-rule="evenodd" d="M17.0405 22.8C20.2217 22.8 22.8005 20.2212 22.8005 17.04C22.8005 13.8589 20.2217 11.28 17.0405 11.28C13.8594 11.28 11.2805 13.8589 11.2805 17.04C11.2805 20.2212 13.8594 22.8 17.0405 22.8Z" stroke="currentColor" stroke-linecap="round" stroke-linejoin="round"/>
<path d="M19.2009 14.8789L14.8809 19.1989" stroke="currentColor" stroke-linecap="round" stroke-linejoin="round"/>
<path d="M14.8809 14.8789L19.2009 19.1989" stroke="currentColor" stroke-linecap="round" stroke-linejoin="round"/>
<path d="M11.2791 7.31998C11.0803 7.31998 10.9191 7.15881 10.9191 6.95998C10.9191 6.76115 11.0803 6.59998 11.2791 6.59998" stroke="currentColor"/>
<path d="M11.2805 7.31998C11.4793 7.31998 11.6405 7.15881 11.6405 6.95998C11.6405 6.76115 11.4793 6.59998 11.2805 6.59998" stroke="currentColor"/>
<path d="M17.0409 7.31998C16.842 7.31998 16.6809 7.15881 16.6809 6.95998C16.6809 6.76115 16.842 6.59998 17.0409 6.59998" stroke="currentColor"/>
<path d="M17.04 7.31998C17.2388 7.31998 17.4 7.15881 17.4 6.95998C17.4 6.76115 17.2388 6.59998 17.04 6.59998" stroke="currentColor"/>
<path d="M5.52035 7.31998C5.32153 7.31998 5.16035 7.15881 5.16035 6.95998C5.16035 6.76115 5.32153 6.59998 5.52035 6.59998" stroke="currentColor"/>
<path d="M5.51973 7.31998C5.71855 7.31998 5.87973 7.15881 5.87973 6.95998C5.87973 6.76115 5.71855 6.59998 5.51973 6.59998" stroke="currentColor"/>
</svg>
