<svg width="44" height="34" viewBox="0 0 44 34" fill="none" xmlns="http://www.w3.org/2000/svg">
<rect width="44" height="34" rx="8" fill="#D90007"/>
<mask id="mask0_12_75587" style="mask-type:luminance" maskUnits="userSpaceOnUse" x="0" y="0" width="44" height="34">
<rect width="44" height="34" rx="8" fill="white"/>
</mask>
<g mask="url(#mask0_12_75587)">
<path fill-rule="evenodd" clip-rule="evenodd" d="M25.5108 16.891H26.3984L25.5108 15.431L25.5048 15.4194L24.6292 16.891H25.5108ZM25.5108 14.029H26.8146L29.643 19H27.6657L27.1697 18.1599H25.5108H23.8825L23.3928 18.9827H21.3236L24.2192 14.029H25.5108ZM29.9549 14.029V18.9827H31.8465V15.6453L34.5217 18.9884H37.4539V14.029H35.5872V17.4995L32.8565 14.0173L29.9549 14.029ZM17.6628 15.8249H18.9177C19.077 15.8249 19.2056 15.7035 19.2056 15.5584C19.2056 15.4137 19.077 15.2919 18.9177 15.2919L17.6628 15.2976L16.1202 15.3036V15.8249H17.6628ZM17.6628 17.6153H18.9912C19.1504 17.6153 19.2851 17.4935 19.2851 17.3488C19.2851 17.204 19.1504 17.0879 18.9912 17.0879H17.6628L16.1202 17.0939V17.6153H17.6628ZM17.6628 14.0173H19.7931C20.1115 14.0173 20.7116 14.2898 20.9134 14.8747C21.0786 15.3672 20.9626 16.1786 20.5155 16.474C20.8399 16.6012 21.0603 17.0823 21.0909 17.5806V17.7776C21.0849 17.8644 21.0726 17.9513 21.0543 18.0325C20.938 18.5828 20.4789 19 20.1115 19H17.6628H14.4367C14.4307 17.3431 14.4307 15.6802 14.4244 14.0173H17.6628ZM6.59499 14.0173V18.9884H8.46802V17.2097H9.09264L11.3699 18.9884H14.0571L10.8556 16.5317L13.8552 14H11.2167L9.11094 15.7614H8.39482V14.029L6.59499 14.0173ZM2.18743 16.891H3.06877L2.18743 15.431L2.18114 15.4194L1.30581 16.891H2.18743ZM2.18743 14.029H3.49129L6.31941 19H4.33604L3.84634 18.1599H2.18743H0.559104L0.0691326 18.9827H-2L0.895857 14.029H2.18743ZM38.5439 14.0173V18.9884H40.4109V17.2097H41.0353L43.3125 18.9884H46L42.8043 16.5317L45.7979 14H43.1593L41.0536 15.7614H40.3435V14.029L38.5439 14.0173Z" fill="#E3E3E3"/>
</g>
</svg>
