<svg width="44" height="34" viewBox="0 0 44 34" fill="none" xmlns="http://www.w3.org/2000/svg">
<rect y="3" width="44" height="28" rx="4" fill="#F3F4F9"/>
<mask id="mask0_12_75698" style="mask-type:luminance" maskUnits="userSpaceOnUse" x="0" y="3" width="44" height="28">
<rect y="3" width="44" height="28" rx="4" fill="white"/>
</mask>
<g mask="url(#mask0_12_75698)">
</g>
<rect opacity="0.2" x="4" y="21" width="24" height="2" rx="0.923077" fill="black"/>
<rect opacity="0.2" x="4" y="25" width="9" height="2" rx="0.923077" fill="black"/>
<rect opacity="0.2" x="4" y="10" width="7" height="4" rx="1" fill="black"/>
<path fill-rule="evenodd" clip-rule="evenodd" d="M37.9936 15H36.5066C35.3983 15 34.5 14.1019 34.5 12.9936V9.50088C34.4997 9.50035 37.9936 9.5 37.9936 9.5C39.1015 9.5 40 10.3983 40 11.5063V12.9936C40 14.1019 39.1015 15 37.9936 15Z" fill="#0F7AD1"/>
<path fill-rule="evenodd" clip-rule="evenodd" d="M30.0065 7H31.4935C32.6016 7 33.5 7.89821 33.5 9.00636V12.4989L30.0065 12.5C28.8985 12.5 28 11.6015 28 10.4934V9.00636C28 7.89821 28.8985 7 30.0065 7Z" fill="#221E1F"/>
</svg>
