<svg width="79" height="79" viewBox="0 0 79 79" fill="none" xmlns="http://www.w3.org/2000/svg">
<g clip-path="url(#clip0_12_82650)">
<path fill-rule="evenodd" clip-rule="evenodd" d="M45.4186 60.9938C48.4035 58.6014 51.0802 55.8693 53.4847 52.8748C55.8608 49.8001 57.9991 46.4555 59.5094 42.7344C60.0615 41.389 60.5629 40.0102 60.9673 38.5938C63.713 38.6138 66.4751 38.7519 69.2397 39.0027C66.6868 38.118 64.0735 37.3919 61.4163 36.8157C61.8476 34.808 62.1024 32.6806 62.0234 30.4734C61.9499 28.2102 61.457 25.8373 60.4275 23.5642C60.1336 22.9249 59.7848 22.3 59.3901 21.6976C66.749 24.6842 71.8216 29.7492 72.6884 36.0079C74.2123 47.0041 62.2171 57.7619 45.4186 60.9938ZM10.7805 53.7974C8.07971 51.224 6.3298 48.1423 5.85302 44.7003C4.29447 33.4578 16.8712 22.4631 34.2632 19.5084C33.5312 19.9845 32.8222 20.4814 32.1354 20.9925C29.2406 23.2351 26.6834 25.7326 24.505 28.5272C27.6924 26.9576 30.8349 25.4687 34.0336 24.4001C37.1867 23.2774 40.4205 22.5521 43.3627 22.5122C44.8282 22.5098 46.2103 22.6772 47.3665 23.0623C48.5204 23.4605 49.4353 24.0172 50.0665 24.6946C50.6817 25.395 51.0773 26.1802 51.3452 27.1098C51.5882 28.0613 51.6161 29.1639 51.5152 30.3427C51.4069 31.5252 51.1097 32.7691 50.6657 34.038C50.5259 34.4523 50.3733 34.8635 50.2123 35.2738C49.5916 35.235 48.9685 35.2003 48.3455 35.1751C41.1654 34.9303 33.7317 35.8292 26.6641 38.6962C24.9222 39.4562 23.1872 40.2817 21.542 41.2966C20.7047 41.7804 19.8981 42.3167 19.1094 42.8876C18.3272 43.4398 17.4726 44.0255 16.6903 44.7093C15.1114 46.0627 13.5712 47.6434 12.3618 49.7366C11.6813 50.9152 11.1086 52.2886 10.7805 53.7974ZM23.6586 58.1498C22.7758 58.0262 22.0341 57.7808 21.5627 57.4497C21.0757 57.1181 20.8274 56.808 20.6204 56.3005C20.1903 55.2955 20.8951 52.8876 22.7276 50.7788C23.5928 49.7222 24.7698 48.655 25.9896 47.7431C27.1911 46.7845 28.5197 45.9651 29.8723 45.1631C35.26 42.0982 41.6229 40.3312 48.1914 39.4083C47.0055 41.4598 45.6217 43.4518 44.0074 45.2956C42.0916 47.6204 39.8586 49.7334 37.5097 51.6645C35.1678 53.5936 32.6026 55.2774 30.0945 56.5637C28.8467 57.2052 27.5757 57.6661 26.5717 57.941C25.6717 58.1878 24.5076 58.2703 23.6586 58.1498Z" fill="url(#paint0_linear_12_82650)"/>
</g>
<defs>
<linearGradient id="paint0_linear_12_82650" x1="76.7384" y1="25.1313" x2="14.4343" y2="8.43699" gradientUnits="userSpaceOnUse">
<stop stop-color="#3D59A7"/>
<stop offset="0.280694" stop-color="#4169B1"/>
<stop offset="0.74141" stop-color="#49C7EE"/>
<stop offset="1" stop-color="#6FCBDC"/>
</linearGradient>
<clipPath id="clip0_12_82650">
<rect width="64" height="64" fill="white" transform="translate(62.3053 79) scale(1.00786) rotate(-165)"/>
</clipPath>
</defs>
</svg>
