<svg width="64" height="64" viewBox="0 0 64 64" fill="none" xmlns="http://www.w3.org/2000/svg">
<path fill-rule="evenodd" clip-rule="evenodd" d="M31.9944 0.00152588C49.6704 0.00152588 64 14.328 64 32.0008C64 49.6733 49.6704 64 31.9944 64C14.6035 64 0.452307 50.1321 0 32.8539L0 31.1476C0.452307 13.8693 14.6035 0.00152588 31.9944 0.00152588Z" fill="#E3E3E3"/>
<mask id="mask0_12_76138" style="mask-type:luminance" maskUnits="userSpaceOnUse" x="0" y="0" width="64" height="64">
<path fill-rule="evenodd" clip-rule="evenodd" d="M31.9944 0.00152588C49.6704 0.00152588 64 14.328 64 32.0008C64 49.6733 49.6704 64 31.9944 64C14.6035 64 0.452307 50.1321 0 32.8539L0 31.1476C0.452307 13.8693 14.6035 0.00152588 31.9944 0.00152588Z" fill="white"/>
</mask>
<g mask="url(#mask0_12_76138)">
<path fill-rule="evenodd" clip-rule="evenodd" d="M38.2875 37.4347L35.0124 34.1582L34.2198 33.3672C34.3732 33.1182 34.4855 32.8434 34.5493 32.5489H35.0124H40.1277C40.0169 34.3981 39.3442 36.088 38.2875 37.4347ZM35.0124 39.952C34.2411 40.2769 33.4136 40.4804 32.5466 40.5441L32.5481 34.553C32.8624 34.4862 33.1555 34.3617 33.4166 34.1916L35.0124 35.7889L37.5161 38.291C36.7919 38.994 35.9431 39.5603 35.0124 39.952ZM32.5496 23.4559C33.4151 23.5196 34.2426 23.7261 35.0124 24.051C35.9264 24.4336 36.7615 24.9848 37.4782 25.6695L35.0124 28.1352L33.368 29.7795C33.119 29.6246 32.8427 29.5123 32.5481 29.4485L32.5496 23.4559ZM40.1247 31.3965H35.0124H34.5356C34.4658 31.105 34.3489 30.8302 34.191 30.5857L35.0124 29.7628L38.2556 26.5228C39.3199 27.8634 40.0017 29.5487 40.1247 31.3965ZM31.3957 29.4607C31.1224 29.526 30.8643 29.6338 30.632 29.7795L28.9269 28.0714L26.4975 25.6422C27.2051 24.9726 28.025 24.4321 28.9269 24.0525C29.6982 23.7261 30.5302 23.5196 31.3972 23.4559L31.3957 29.4607ZM31.3957 40.5441C30.5302 40.4804 29.6982 40.2754 28.9269 39.9505C28.0083 39.5633 27.1747 39.0061 26.4565 38.3183L28.9269 35.8496L30.5849 34.1916C30.8294 34.3511 31.1042 34.4695 31.3957 34.5393V40.5441ZM23.8191 32.5489H28.9269H29.4507C29.5145 32.8434 29.6268 33.1182 29.7787 33.3672L28.9269 34.2205L25.6806 37.4651C24.6117 36.1123 23.9315 34.4118 23.8191 32.5489ZM25.7171 26.4909L28.9269 29.7006L29.8105 30.5857C29.6526 30.8302 29.5327 31.105 29.4628 31.3965H28.9269H23.8222C23.9467 29.5351 24.6375 27.8361 25.7171 26.4909ZM47.8485 30.8135C47.0574 30.8089 46.3681 31.0458 45.9946 31.398H44.0648C43.9312 28.448 42.838 25.7606 41.104 23.673L42.2443 22.5327C42.7681 22.5479 43.462 22.2215 44.0496 21.6339C44.8892 20.7973 45.1929 19.7361 44.7268 19.273C44.2637 18.8084 43.2054 19.1136 42.3673 19.9547C41.804 20.5119 41.4851 21.1663 41.4699 21.6795L40.3281 22.8212C38.8599 21.353 37.0379 20.2675 35.0124 19.7194C34.2183 19.5038 33.3969 19.3702 32.5496 19.3277V18.0614C32.9292 17.7031 33.1904 16.9819 33.1904 16.1499C33.1904 14.9656 32.6559 14 31.9985 14C31.3426 14.0015 30.8111 14.9656 30.8111 16.1529C30.8081 16.9439 31.045 17.6332 31.3972 18.0067V19.3277C30.5469 19.3702 29.7194 19.5038 28.9269 19.7209C26.9151 20.266 25.1082 21.3394 23.6461 22.7924L22.5346 21.681C22.5149 21.1678 22.1915 20.5119 21.6358 19.9562C20.7961 19.1136 19.7348 18.8084 19.2717 19.2745C18.8086 19.7391 19.1123 20.7958 19.955 21.6339C20.541 22.2215 21.2349 22.5479 21.7572 22.5327L22.8687 23.6426C21.1195 25.7333 20.0142 28.4313 19.8821 31.3965H18.01C17.6319 31.0473 16.9395 30.8119 16.153 30.8119C14.9642 30.8104 13.9985 31.3449 14 32.0023C14.0015 32.6582 14.9642 33.1896 16.1515 33.1881C16.982 33.1896 17.7017 32.9299 18.0616 32.5473H19.879C19.999 35.5125 21.0922 38.2151 22.8307 40.3134L21.6798 41.4657C21.1666 41.4839 20.5107 41.8073 19.955 42.3661C19.1123 43.2042 18.8071 44.2654 19.2732 44.7285C19.7378 45.1931 20.7946 44.8879 21.6327 44.0468C22.2203 43.4607 22.5468 42.7669 22.5301 42.2431L23.6066 41.1666C25.0763 42.6409 26.8968 43.731 28.9269 44.2821C29.7194 44.4977 30.5469 44.6313 31.3957 44.6739V45.9917C31.045 46.3667 30.8111 47.0591 30.8111 47.8471C30.8096 49.0359 31.3441 50.0015 32 50C32.6574 49.9985 33.1904 49.0359 33.1889 47.8486C33.1889 47.0181 32.9292 46.2969 32.5466 45.9386V44.6739C33.3938 44.6313 34.2183 44.4993 35.0124 44.2852C37.0546 43.7295 38.8903 42.6287 40.3646 41.1408L41.4699 42.2461C41.4547 42.7684 41.7812 43.4623 42.3688 44.0498C43.2039 44.8879 44.2667 45.1931 44.7298 44.7285C45.1929 44.2624 44.8892 43.2057 44.0466 42.3676C43.4908 41.8058 42.8349 41.4855 42.3217 41.4703L41.1389 40.2845C42.8638 38.1923 43.9463 35.5019 44.0663 32.5504H45.9399C46.2983 32.9299 47.0195 33.1911 47.8515 33.1911C49.0358 33.1911 50.0015 32.6567 50 31.9992C49.9985 31.3433 49.0358 30.8119 47.8485 30.8135Z" fill="#ED1C24"/>
</g>
</svg>
