<svg width="44" height="34" viewBox="0 0 44 34" fill="none" xmlns="http://www.w3.org/2000/svg">
<rect width="44" height="34" rx="8" fill="#F3F4F9"/>
<path fill-rule="evenodd" clip-rule="evenodd" d="M26.1916 20.6231L24.0083 18.4388L23.4799 17.9115C23.5821 17.7455 23.657 17.5623 23.6995 17.3659H24.0083H27.4185C27.3446 18.5987 26.8962 19.7253 26.1916 20.6231ZM24.0083 22.3013C23.4941 22.5179 22.9424 22.6536 22.3644 22.6961L22.3654 18.702C22.5749 18.6575 22.7703 18.5745 22.9444 18.4611L24.0083 19.5259L25.6774 21.194C25.1946 21.6626 24.6288 22.0402 24.0083 22.3013ZM22.3664 11.3039C22.9434 11.3464 23.4951 11.4841 24.0083 11.7007C24.6176 11.9558 25.1744 12.3232 25.6521 12.7797L24.0083 14.4235L22.912 15.5197C22.746 15.4164 22.5618 15.3415 22.3654 15.299L22.3664 11.3039ZM27.4164 16.5977H24.0083H23.6904C23.6439 16.4033 23.5659 16.2201 23.4606 16.0571L24.0083 15.5085L26.1704 13.3485C26.88 14.2423 27.3345 15.3658 27.4164 16.5977ZM21.5971 15.3071C21.4149 15.3506 21.2428 15.4225 21.088 15.5197L19.9512 14.381L18.3317 12.7615C18.8034 12.3151 19.35 11.9547 19.9512 11.7017C20.4655 11.4841 21.0202 11.3464 21.5981 11.3039L21.5971 15.3071ZM21.5971 22.6961C21.0202 22.6536 20.4655 22.5169 19.9512 22.3003C19.3388 22.0422 18.7831 21.6707 18.3043 21.2122L19.9512 19.5664L21.0566 18.4611C21.2196 18.5674 21.4028 18.6463 21.5971 18.6929V22.6961ZM16.5461 17.3659H19.9512H20.3005C20.343 17.5623 20.4179 17.7455 20.5191 17.9115L19.9512 18.4803L17.7871 20.6434C17.0745 19.7415 16.621 18.6079 16.5461 17.3659ZM17.8114 13.3273L19.9512 15.467L20.5404 16.0571C20.4351 16.2201 20.3551 16.4033 20.3086 16.5977H19.9512H16.5481C16.6311 15.3567 17.0917 14.2241 17.8114 13.3273ZM32.5657 16.209C32.0383 16.2059 31.5787 16.3638 31.3297 16.5987H30.0432C29.9541 14.632 29.2253 12.8404 28.0693 11.4487L28.8295 10.6885C29.1787 10.6986 29.6413 10.481 30.0331 10.0893C30.5928 9.53157 30.7953 8.82405 30.4845 8.51533C30.1758 8.2056 29.4703 8.40905 28.9115 8.9698C28.536 9.34128 28.3234 9.77753 28.3133 10.1196L27.5521 10.8808C26.5733 9.90203 25.3586 9.17831 24.0083 8.81291C23.4789 8.66918 22.9313 8.58011 22.3664 8.55177V7.7076C22.6195 7.46873 22.7936 6.98794 22.7936 6.43326C22.7936 5.64375 22.4373 5 21.999 5C21.5617 5.00101 21.2074 5.64375 21.2074 6.43528C21.2054 6.96263 21.3633 7.42217 21.5981 7.67116V8.55177C21.0313 8.58011 20.4796 8.66918 19.9512 8.81393C18.61 9.1773 17.4055 9.89292 16.4307 10.8616L15.6898 10.1207C15.6766 9.77854 15.461 9.34128 15.0905 8.97081C14.5307 8.40905 13.8232 8.2056 13.5145 8.51634C13.2057 8.82607 13.4082 9.53055 13.97 10.0893C14.3607 10.481 14.8233 10.6986 15.1715 10.6885L15.9124 11.4284C14.7464 12.8222 14.0094 14.6208 13.9214 16.5977H12.6733C12.4213 16.3649 11.9597 16.208 11.4353 16.208C10.6428 16.2069 9.99899 16.5632 10 17.0015C10.001 17.4388 10.6428 17.793 11.4343 17.792C11.988 17.793 12.4678 17.62 12.7077 17.3649H13.9194C13.9993 19.3417 14.7281 21.1434 15.8871 22.5422L15.1199 23.3105C14.7777 23.3226 14.3404 23.5382 13.97 23.9107C13.4082 24.4694 13.2047 25.177 13.5155 25.4857C13.8252 25.7954 14.5297 25.592 15.0885 25.0312C15.4802 24.6405 15.6978 24.1779 15.6867 23.8287L16.4044 23.1111C17.3842 24.0939 18.5979 24.8207 19.9512 25.1881C20.4796 25.3318 21.0313 25.4209 21.5971 25.4492V26.3278C21.3633 26.5778 21.2074 27.0394 21.2074 27.5647C21.2064 28.3573 21.5627 29.001 22 29C22.4383 28.999 22.7936 28.3573 22.7926 27.5657C22.7926 27.0121 22.6195 26.5313 22.3644 26.2924V25.4492C22.9292 25.4209 23.4789 25.3328 24.0083 25.1901C25.3697 24.8197 26.5935 24.0858 27.5764 23.0939L28.3133 23.8308C28.3032 24.1789 28.5208 24.6415 28.9125 25.0332C29.4692 25.592 30.1778 25.7954 30.4865 25.4857C30.7953 25.1749 30.5928 24.4705 30.031 23.9117C29.6606 23.5372 29.2233 23.3236 28.8811 23.3135L28.0926 22.523C29.2425 21.1282 29.9642 19.3346 30.0442 17.3669H31.2933C31.5322 17.62 32.013 17.7941 32.5677 17.7941C33.3572 17.7941 34.001 17.4378 34 16.9995C33.999 16.5622 33.3572 16.208 32.5657 16.209Z" fill="#ED1C24"/>
</svg>
