<svg width="32" height="32" viewBox="0 0 32 32" fill="none" xmlns="http://www.w3.org/2000/svg">
<path fill-rule="evenodd" clip-rule="evenodd" d="M22.8564 26.5684C23.2412 26.5684 23.5242 26.6542 23.666 26.8887C24.1522 27.6136 23.0993 29.2551 21.3369 30.5771C19.5745 31.8992 17.7509 32.39 17.2646 31.665C16.7785 30.9401 17.8323 29.2976 19.5947 27.9756C20.8101 27.0588 22.0462 26.547 22.8564 26.5684ZM14.915 23.9248C15.9885 23.9248 16.738 24.2016 16.9609 24.7559C17.4471 26.0139 15.0769 28.232 11.6533 29.7246C8.23025 31.1956 5.05024 31.3874 4.56347 30.1299C4.07728 28.8718 6.44753 26.6537 9.87108 25.1611C11.7549 24.3296 13.5781 23.9035 14.915 23.9248ZM27.1914 21.8135C27.2318 21.8135 27.2721 21.8138 27.3125 21.835C27.6771 22.0269 27.4954 23.1782 26.8877 24.3936C26.28 25.6089 25.4897 26.4406 25.125 26.2275C24.7604 26.0356 24.9431 24.8843 25.5508 23.6689C26.0977 22.5815 26.7862 21.7922 27.1914 21.8135ZM22.2685 19.7881C22.8155 19.7881 23.2615 19.9796 23.4844 20.3848C23.8893 21.1524 23.2813 22.3462 22.1064 23.0498C20.9316 23.7534 19.656 23.7322 19.2305 22.9648C18.8253 22.1973 19.4327 21.0035 20.6074 20.2998C21.1746 19.9587 21.7621 19.7881 22.2685 19.7881ZM25.956 17.8906C26.0571 17.8907 26.1379 17.9116 26.2187 17.9541C26.6036 18.1887 26.6237 18.8709 26.2793 19.4893C25.9552 20.1075 25.3685 20.4484 25.0039 20.2139C24.619 19.9793 24.598 19.2971 24.9424 18.6787C25.226 18.2097 25.6319 17.8906 25.956 17.8906ZM14.8945 13.0068C17.1026 13.0068 18.8857 14.3505 18.8857 16.0137C18.8855 17.698 17.1027 19.0408 14.915 19.0195C12.7071 19.0195 10.924 17.6767 10.9238 16.0137C10.9238 14.3505 12.7068 13.0069 14.8945 13.0068ZM22.0254 14.6699C22.8357 14.6699 23.4844 15.2674 23.4844 16.0137C23.4841 16.7598 22.8153 17.3564 22.0254 17.3564C21.2356 17.3563 20.5871 16.7597 20.5869 16.0137C20.5869 15.2888 21.2354 14.6701 22.0254 14.6699ZM25.3076 11.7061C25.6519 11.7062 26.057 12.0049 26.3203 12.4951C26.6443 13.1133 26.624 13.7955 26.2598 14.0303C25.8951 14.2435 25.3278 13.9239 24.9834 13.3057C24.6593 12.6874 24.6794 12.0051 25.0439 11.7705C25.125 11.7279 25.2063 11.6847 25.3076 11.7061ZM20.5058 8.42285C21.0123 8.42285 21.5998 8.5934 22.167 8.93457C23.3419 9.63823 23.9703 10.832 23.5449 11.5996C23.1195 12.3672 21.8429 12.3882 20.668 11.6846C19.4932 10.9809 18.8656 9.78711 19.291 9.01953C19.4936 8.61449 19.959 8.4229 20.5058 8.42285ZM25.2461 5.73633C25.6512 5.73633 26.3407 6.50335 26.8877 7.59082C27.4954 8.80623 27.6771 9.93618 27.3125 10.1494C26.9478 10.341 26.1584 9.53136 25.5508 8.31641C24.943 7.10099 24.7604 5.97007 25.125 5.75684C25.1653 5.73566 25.2058 5.73633 25.2461 5.73633ZM6.60937 1.02344C7.94636 1.02346 9.74915 1.45049 11.6533 2.26074C15.0768 3.75333 17.447 5.97045 16.9609 7.22852C16.4545 8.48655 13.2945 8.31577 9.87108 6.82324C6.44768 5.33069 4.07754 3.11356 4.56347 1.85547C4.7863 1.30107 5.53571 1.02344 6.60937 1.02344ZM18.0547 0C18.865 0 20.101 0.511699 21.3164 1.40723C23.0788 2.72926 24.1327 4.3717 23.6465 5.09668C23.1601 5.82144 21.3365 5.33073 19.5742 4.00879C17.8119 2.68684 16.7591 1.04535 17.2451 0.320312C17.3869 0.107137 17.6699 5.48537e-05 18.0547 0Z" fill="#005FAE"/>
</svg>
