<svg width="44" height="34" viewBox="0 0 44 34" fill="none" xmlns="http://www.w3.org/2000/svg">
<rect y="3" width="44" height="28" rx="4" fill="#009142"/>
<mask id="mask0_12_75939" style="mask-type:luminance" maskUnits="userSpaceOnUse" x="0" y="3" width="44" height="28">
<rect y="3" width="44" height="28" rx="4" fill="white"/>
</mask>
<g mask="url(#mask0_12_75939)">
<path fill-rule="evenodd" clip-rule="evenodd" d="M34.7495 11.2117C33.7003 10.768 33 9.89584 33 9.03767V9.01481C33.0102 8.31413 33.4706 7.74936 34.2961 7.4223C34.3929 7.4712 34.9638 7.77561 35.6667 8.43119C36.5401 9.24618 37.2059 10.2155 37.646 11.3129C37.5754 11.3611 37.3449 11.5 36.9523 11.5679C36.512 11.645 35.7718 11.6458 34.7495 11.2117ZM35.2056 6.13399C35.4189 6.00211 35.6622 5.96739 35.9292 6.03068C36.4855 6.16256 36.9643 6.60012 37.3136 7.29529C37.6844 8.03365 37.8913 9.03725 37.9126 10.1973C37.9126 10.1979 37.9128 10.2125 37.9128 10.2381C37.9128 10.3628 37.9015 10.75 37.7802 11.1361C37.7019 10.916 37.4987 10.402 37.1197 9.78577C36.6578 9.03661 35.8341 7.98009 34.5281 7.18754C34.5631 7.05228 34.7527 6.41383 35.2056 6.13399ZM38.2783 10.4867C38.2783 10.3925 38.2804 10.2991 38.2854 10.2098L38.292 10.0984C38.3233 9.47967 38.4078 7.83699 39.0648 7.26015C39.2298 7.11472 39.4232 7.0491 39.6401 7.06455C39.6653 7.06731 40.3063 7.15283 40.3884 8.18289C40.3726 8.24745 40.2455 8.72988 39.9434 9.33848C39.6529 9.92273 39.1392 10.7426 38.3267 11.3783C38.3109 11.2155 38.2783 10.8476 38.2783 10.4867ZM40.1186 9.42717C40.3696 8.91299 40.4863 8.50825 40.5264 8.34927C40.6353 8.43627 40.8714 8.6632 40.9539 9.0364C40.9742 9.12679 40.9838 9.22078 40.9838 9.31625C40.9838 9.67421 40.8445 10.0686 40.5675 10.4913C40.1615 11.1118 39.6518 11.4843 39.0944 11.5692C38.8016 11.6135 38.5649 11.5675 38.4461 11.5358C39.3111 10.8457 39.8325 10.0121 40.1186 9.42717ZM35.8183 15.6306C36.4256 14.9699 37.2609 13.8707 37.8328 12.3599C37.9608 12.7864 38.0109 13.2297 38.0109 13.6566C38.0109 14.2485 37.9173 14.8097 37.8115 15.2542C37.6079 16.1156 37.3164 16.7369 37.3134 16.7432C37.307 16.7566 36.76 18 35.8432 18C35.0033 18 34.665 16.9011 34.6149 16.7199C34.7252 16.6418 35.2216 16.2796 35.8183 15.6306ZM33.0902 14.8812C33.0885 14.8522 33.0876 14.8235 33.0876 14.7945C33.0876 14.1537 33.5365 13.5252 34.3921 12.9716C35.479 12.2682 36.3299 12.0965 36.8534 12.0762C37.3114 12.0582 37.6034 12.1507 37.6993 12.1871C37.0259 13.7913 36.1533 14.8666 35.5366 15.4871C34.9327 16.0963 34.4524 16.3973 34.3575 16.4543C33.6026 16.0842 33.129 15.4966 33.0902 14.8812ZM38.9573 16.0747C38.399 15.522 38.3623 14.0972 38.3623 13.3973C38.3623 13.3378 38.3625 13.2837 38.3625 13.2352L38.363 13.0758C38.3628 13.0603 38.3628 13.0451 38.3628 13.0322C38.3628 12.6041 38.4135 12.2777 38.4389 12.1433C39.6629 13.0425 40.2694 15.3139 40.3123 15.479C40.1626 16.3891 39.551 16.3091 39.5252 16.305L39.5209 16.3042H39.5175C39.3015 16.3061 39.1132 16.2286 38.9573 16.0747ZM40.434 12.8088C40.8104 13.1859 41 13.5942 41 14.0277C41 14.1717 40.9789 14.3186 40.9373 14.4674C40.8275 14.8603 40.5989 15.1645 40.4773 15.3057C39.95 13.2561 38.9379 12.3 38.5894 12.0216C38.875 11.9843 39.6162 11.9898 40.434 12.8088Z" fill="#E3E3E3"/>
</g>
<rect opacity="0.197056" x="4" y="21" width="24" height="2" rx="0.923077" fill="#E3E3E3"/>
<rect opacity="0.197056" x="4" y="25" width="9" height="2" rx="0.923077" fill="#E3E3E3"/>
<rect opacity="0.197056" x="15" y="25" width="6" height="2" rx="0.923077" fill="#E3E3E3"/>
<rect opacity="0.197056" x="4" y="10" width="7" height="4" rx="1" fill="#E3E3E3"/>
</svg>
