<svg width="64" height="64" viewBox="0 0 64 64" fill="none" xmlns="http://www.w3.org/2000/svg">
<path fill-rule="evenodd" clip-rule="evenodd" d="M31.9944 0.00152588C49.6704 0.00152588 64 14.328 64 32.0008C64 49.6733 49.6704 64 31.9944 64C14.6035 64 0.452307 50.1321 0 32.8539L0 31.1476C0.452307 13.8693 14.6035 0.00152588 31.9944 0.00152588Z" fill="#E3E3E3"/>
<mask id="mask0_12_76129" style="mask-type:luminance" maskUnits="userSpaceOnUse" x="0" y="0" width="64" height="64">
<path fill-rule="evenodd" clip-rule="evenodd" d="M31.9944 0.00152588C49.6704 0.00152588 64 14.328 64 32.0008C64 49.6733 49.6704 64 31.9944 64C14.6035 64 0.452307 50.1321 0 32.8539L0 31.1476C0.452307 13.8693 14.6035 0.00152588 31.9944 0.00152588Z" fill="white"/>
</mask>
<g mask="url(#mask0_12_76129)">
<rect x="23" y="23" width="18" height="18" fill="white"/>
<path d="M32 32L41 23H23L32 32Z" fill="#DB0011"/>
<path d="M14 32.0106L23 41V23L14 32.0106Z" fill="#DB0011"/>
<path d="M32 32L23 41H41L32 32Z" fill="#DB0011"/>
<path d="M50 32.0106L41 23V41L50 32.0106Z" fill="#DB0011"/>
</g>
</svg>
