<svg width="44" height="34" viewBox="0 0 44 34" fill="none" xmlns="http://www.w3.org/2000/svg">
<rect y="3" width="44" height="28" rx="4" fill="#F3F4F9"/>
<mask id="mask0_12_75612" style="mask-type:luminance" maskUnits="userSpaceOnUse" x="0" y="3" width="44" height="28">
<rect y="3" width="44" height="28" rx="4" fill="white"/>
</mask>
<g mask="url(#mask0_12_75612)">
</g>
<rect opacity="0.2" x="4" y="21" width="24" height="2" rx="0.923077" fill="black"/>
<rect opacity="0.2" x="4" y="25" width="9" height="2" rx="0.923077" fill="black"/>
<rect opacity="0.2" x="4" y="10" width="7" height="4" rx="1" fill="black"/>
<rect x="29" y="6" width="8" height="8" fill="white"/>
<path d="M33 10L37 6H29L33 10Z" fill="#DB0011"/>
<path d="M25 10.0047L29 14V6L25 10.0047Z" fill="#DB0011"/>
<path d="M33 10L29 14H37L33 10Z" fill="#DB0011"/>
<path d="M41 10.0047L37 6V14L41 10.0047Z" fill="#DB0011"/>
</svg>
