<svg width="262" height="51" viewBox="0 0 262 51" fill="none" xmlns="http://www.w3.org/2000/svg">
<path d="M247.888 11C249.943 11 251.852 11.3668 253.562 12.0908C255.269 12.8142 256.768 13.8296 258.02 15.1074C259.268 16.3837 260.254 17.9281 260.95 19.6982C261.647 21.4723 262 23.4237 262 25.5C262 27.5764 261.647 29.5289 260.95 31.3027C260.254 33.0723 259.268 34.6161 258.02 35.8916C256.768 37.1705 255.268 38.1858 253.562 38.9092C251.851 39.6332 249.941 40 247.888 40C245.834 40 243.926 39.6331 242.215 38.9092C240.508 38.1858 239.007 37.1705 237.756 35.8916C236.506 34.6155 235.521 33.0716 234.825 31.3027C234.128 29.5296 233.775 27.5768 233.775 25.5C233.775 23.4237 234.128 21.472 234.825 19.6982C235.521 17.9292 236.506 16.3847 237.756 15.1074C239.006 13.8295 240.507 12.8142 242.215 12.0908C243.924 11.3669 245.833 11 247.888 11ZM198.794 11.7256C200.042 11.7256 201.25 11.8514 202.382 12.0986C203.488 12.3405 204.482 12.7511 205.333 13.3184C206.166 13.8736 206.841 14.6262 207.339 15.5557C207.836 16.4847 208.087 17.658 208.087 19.043C208.087 20.5041 207.818 21.7214 207.286 22.6611C206.75 23.607 206.054 24.3618 205.219 24.9062C204.365 25.4629 203.416 25.8611 202.398 26.0889C201.358 26.3223 200.358 26.4404 199.426 26.4404H193.315V39.2734H191V11.7256H198.794ZM219.489 11.7266C220.804 11.7266 222.133 11.8062 223.439 11.9648C224.703 12.1182 225.85 12.4546 226.849 12.9639C227.816 13.4587 228.614 14.1931 229.22 15.1455C229.821 16.0925 230.126 17.4179 230.126 19.083C230.126 21.0598 229.565 22.6054 228.413 23.8096C227.257 25.0153 225.624 25.7939 223.56 26.124L222.814 26.2432L230.678 39.2734H227.79L220.207 26.4404H215.157V39.2734H212.842V11.7266H219.489ZM247.888 13.123C246.191 13.1231 244.614 13.4505 243.2 14.0957C241.787 14.7401 240.557 15.6362 239.542 16.7578C238.528 17.8764 237.73 19.2023 237.17 20.6963C236.611 22.1858 236.327 23.8018 236.327 25.5C236.327 27.198 236.611 28.8147 237.17 30.3037C237.73 31.798 238.527 33.123 239.541 34.2412C240.557 35.365 241.788 36.2602 243.2 36.9033C244.613 37.5492 246.19 37.8769 247.888 37.877C249.584 37.877 251.161 37.5497 252.575 36.9043C253.987 36.2608 255.219 35.3648 256.234 34.2412C257.247 33.123 258.045 31.798 258.604 30.3037C259.164 28.8124 259.448 27.196 259.448 25.5C259.448 23.8038 259.164 22.1879 258.604 20.6963C258.044 19.202 257.247 17.8764 256.234 16.7578C255.218 15.636 253.987 14.7405 252.575 14.0957C251.16 13.4509 249.583 13.123 247.888 13.123ZM215.157 24.3174H218.621C219.559 24.3174 220.531 24.2897 221.511 24.2363C222.544 24.1796 223.508 23.9938 224.374 23.6836C225.283 23.3598 226.046 22.8424 226.642 22.1445C227.26 21.4188 227.574 20.3885 227.574 19.083C227.574 17.9649 227.347 17.0426 226.9 16.3418C226.458 15.6503 225.869 15.1092 225.147 14.7324C224.454 14.3715 223.668 14.1301 222.812 14.0146C221.989 13.905 221.15 13.8496 220.319 13.8496H215.157V24.3174ZM193.315 24.3164H199.426C201.185 24.3163 202.646 23.8969 203.768 23.0703C204.941 22.2051 205.535 20.8638 205.535 19.084C205.535 17.3036 204.941 15.962 203.768 15.0967C202.645 14.2694 201.184 13.8497 199.426 13.8496H193.315V24.3164Z" fill="white"/>
<rect x="173" width="2" height="51" fill="white"/>
<path fill-rule="evenodd" clip-rule="evenodd" d="M148.077 18.7944H154.795L146.158 29.488L155.72 41.4156H149.003L139.44 29.488L148.077 18.7944ZM133.476 41.4499H138.858V9.09473H133.476V41.4499ZM129.843 23.9355C129.603 23.7984 129.158 23.7984 128.472 23.7984C124.462 23.7984 122.063 26.8829 122.063 31.5102V41.5183H116.682V18.7944H121.995V22.6331C123.16 20.0284 125.833 18.3146 128.849 18.3146C129.466 18.3146 129.775 18.3829 129.843 18.4516V23.9355ZM104.411 18.7944H109.896V41.4499H104.411V38.4338C102.938 40.593 100.641 41.9637 97.3855 41.9637C91.9013 41.9637 88.6111 38.3308 88.6111 32.4015V18.76H94.0949V31.4072C94.0949 34.9375 95.8774 37.0284 99.0989 37.0284C102.321 37.0284 104.411 34.5607 104.411 30.722V18.7944ZM64.4818 9.09473H88.371V14.2701H79.2885V41.484H73.5989V14.2701H64.5161V9.09473H64.4818ZM58.3124 18.2459C60.6087 18.2459 62.6309 18.7944 64.4818 19.8567V25.1695C62.6309 23.8668 60.7801 23.1816 58.7922 23.1816C54.7134 23.1816 51.6289 26.2661 51.6289 30.2075C51.6289 34.1493 54.6451 37.2341 58.7922 37.2341C61.0201 37.2341 62.9393 36.3085 64.5845 35.2462V40.5587C62.6653 41.621 60.5744 42.1695 58.2781 42.1695C51.1148 42.1695 46.1791 37.1654 46.1791 30.3106C46.1451 23.3186 51.1491 18.2459 58.3124 18.2459ZM40.5925 37.1311C41.5178 37.1311 42.4434 36.9941 43.1289 36.4456V41.2099C42.2033 41.7584 40.901 42.0668 38.9814 42.0668C34.3545 42.0668 31.5784 39.2907 31.5784 34.5264V23.353H27.4996V22.5988L36.8222 12.9678H36.9592V18.8287H43.0602V23.3873H37.0622V33.5668C37.0622 36.0345 38.1245 37.1311 40.5925 37.1311ZM13.7895 36.6513C17.4228 36.6513 19.7878 34.9718 19.7878 31.7843C19.7878 28.7681 17.3198 27.0203 13.6868 27.0203H7.51745V36.6513H13.7895ZM12.7959 22.4961C15.8804 22.4961 18.04 20.9536 18.04 18.1772C18.04 15.4011 15.8804 13.8587 12.7959 13.8587H7.55179V22.4961H12.7959ZM2.06795 9.09473H13.1727C19.2737 9.09473 23.4895 12.4193 23.4895 17.7318C23.4895 20.6452 22.1185 22.9759 19.5481 24.2095C23.3181 25.4435 25.4087 28.22 25.4087 32.1614C25.4087 37.9536 20.9531 41.484 13.9269 41.484H1.99927L2.06795 9.09473Z" fill="white"/>
</svg>
