<svg width="158" height="51" viewBox="0 0 158 51" fill="none" xmlns="http://www.w3.org/2000/svg">
<path fill-rule="evenodd" clip-rule="evenodd" d="M148.077 18.7939H154.795L146.158 29.4875L155.721 41.4151H149.003L139.44 29.4875L148.077 18.7939ZM133.477 41.4495H138.858V9.09424H133.477V41.4495ZM129.843 23.935C129.603 23.7979 129.158 23.7979 128.472 23.7979C124.462 23.7979 122.063 26.8825 122.063 31.5097V41.5178H116.682V18.7939H121.995V22.6326C123.16 20.0279 125.833 18.3141 128.85 18.3141C129.466 18.3141 129.775 18.3825 129.843 18.4511V23.935ZM104.412 18.7939H109.896V41.4495H104.412V38.4333C102.938 40.5926 100.641 41.9633 97.3856 41.9633C91.9014 41.9633 88.6112 38.3303 88.6112 32.401V18.7596H94.095V31.4067C94.095 34.937 95.8775 37.0279 99.0991 37.0279C102.321 37.0279 104.412 34.5602 104.412 30.7215V18.7939ZM64.4819 9.09424H88.3711V14.2697H79.2886V41.4835H73.5991V14.2697H64.5162V9.09424H64.4819ZM58.3125 18.2454C60.6088 18.2454 62.631 18.7939 64.4819 19.8562V25.169C62.631 23.8663 60.7802 23.1811 58.7923 23.1811C54.7135 23.1811 51.629 26.2656 51.629 30.207C51.629 34.1488 54.6452 37.2336 58.7923 37.2336C61.0203 37.2336 62.9395 36.308 64.5846 35.2458V40.5582C62.6654 41.6205 60.5745 42.169 58.2782 42.169C51.1149 42.169 46.1792 37.1649 46.1792 30.3101C46.1452 23.3181 51.1492 18.2454 58.3125 18.2454ZM40.5927 37.1306C41.5179 37.1306 42.4435 36.9936 43.129 36.4451V41.2094C42.2034 41.7579 40.9011 42.0663 38.9815 42.0663C34.3546 42.0663 31.5785 39.2902 31.5785 34.5259V23.3525H27.4997V22.5983L36.8223 12.9673H36.9593V18.8282H43.0603V23.3868H37.0624V33.5663C37.0624 36.034 38.1246 37.1306 40.5927 37.1306ZM13.7896 36.6508C17.423 36.6508 19.7879 34.9713 19.7879 31.7838C19.7879 28.7676 17.3199 27.0198 13.6869 27.0198H7.51757V36.6508H13.7896ZM12.796 22.4956C15.8805 22.4956 18.0401 20.9532 18.0401 18.1767C18.0401 15.4006 15.8805 13.8582 12.796 13.8582H7.55191V22.4956H12.796ZM2.06808 9.09424H13.1728C19.2738 9.09424 23.4896 12.4188 23.4896 17.7313C23.4896 20.6447 22.1186 22.9754 19.5482 24.2091C23.3182 25.4431 25.4088 28.2195 25.4088 32.1609C25.4088 37.9532 20.9533 41.4835 13.927 41.4835H1.99939L2.06808 9.09424Z" fill="white"/>
</svg>
