<svg width="44" height="34" viewBox="0 0 44 34" fill="none" xmlns="http://www.w3.org/2000/svg">
<rect width="44" height="34" rx="8" fill="#061922"/>
<mask id="mask0_12_75408" style="mask-type:luminance" maskUnits="userSpaceOnUse" x="0" y="0" width="44" height="34">
<rect width="44" height="34" rx="8" fill="white"/>
</mask>
<g mask="url(#mask0_12_75408)">
<mask id="mask1_12_75408" style="mask-type:luminance" maskUnits="userSpaceOnUse" x="4" y="14" width="36" height="7">
<path fill-rule="evenodd" clip-rule="evenodd" d="M4 14H40V21H4V14Z" fill="white"/>
</mask>
<g mask="url(#mask1_12_75408)">
<path fill-rule="evenodd" clip-rule="evenodd" d="M38.2569 18.4033L39.8971 16.268L38.4467 16.2637L37.0831 18.2134L37.0937 14.075L35.9013 14.0711L35.8832 20.9299L37.0758 20.9332L37.0817 18.6238L38.5096 20.9375L40 20.9423L38.2569 18.4033ZM34.1097 20.9249L35.306 20.9279L35.3147 17.6528C35.317 16.8378 34.9707 16.1617 33.9282 16.1588C33.1749 16.1564 32.6331 16.5376 32.3516 17.0911L32.3429 17.0806L32.345 16.2455L31.2879 16.2431L31.281 20.9165L32.4755 20.9193L32.4812 18.6674C32.4833 17.8517 32.947 17.1591 33.5513 17.1605C33.9888 17.162 34.1191 17.4526 34.1178 17.9396L34.1097 20.9249ZM29.6514 20.9112L30.7057 20.9143C30.7057 20.8197 30.7034 19.9952 30.7034 19.9952L30.7098 17.7696C30.7121 16.7487 30.298 16.1483 28.8086 16.1437C28.2139 16.142 27.6157 16.2598 27.1479 16.4275L27.2492 17.4322C27.6417 17.2082 28.1991 17.0686 28.6187 17.07C29.2893 17.0715 29.5216 17.3267 29.5202 17.8146L29.5195 18.0667C27.9473 18.0622 26.8453 18.6506 26.8423 19.7668C26.8402 20.5166 27.3225 20.9979 28.1601 21C28.8495 21.0026 29.4196 20.639 29.6448 20.1125H29.6532L29.6514 20.9112ZM29.5175 18.9595C29.5158 19.5221 29.1142 20.0828 28.5282 20.0814C28.1836 20.0799 27.9786 19.8829 27.9793 19.5824C27.98 19.2078 28.2617 18.8417 29.5175 18.8455V18.9595ZM26.6518 18.3301C26.6564 16.9517 26.0617 16.1361 24.9541 16.132C24.3562 16.1306 23.8769 16.3963 23.62 16.8287L23.6219 16.0516L23.6257 14.6203L23.6271 14.0348L22.4322 14.0311L22.4141 20.758C22.9435 20.9088 23.4693 20.9866 24.1391 20.9888C25.7322 20.9936 26.6483 19.9062 26.6518 18.3301ZM25.394 18.45C25.3912 19.603 24.9059 20.0347 24.2269 20.032C23.9762 20.0316 23.7809 20.0019 23.6113 19.9456L23.615 18.6319C23.617 17.8531 23.9913 17.1328 24.6056 17.1342C25.1472 17.1366 25.3963 17.5771 25.394 18.45ZM20.6567 20.8848L21.7097 20.8877C21.7097 20.7934 21.709 19.9689 21.709 19.9689L21.7153 17.7432C21.7176 16.7224 21.3013 16.1215 19.8125 16.1171C19.2171 16.1157 18.6204 16.2335 18.1541 16.4009L18.2541 17.4057C18.6451 17.1821 19.2056 17.0423 19.6226 17.043C20.2925 17.0454 20.5249 17.3001 20.5235 17.7885L20.5228 18.0406C18.9508 18.0358 17.8498 18.6243 17.847 19.7402C17.8448 20.4903 18.3287 20.9715 19.1635 20.9739C19.8551 20.9761 20.4228 20.6124 20.648 20.0859H20.6588L20.6567 20.8848ZM20.5204 18.9322C20.5191 19.4958 20.1172 20.0563 19.5298 20.055C19.1861 20.0531 18.9833 19.8556 18.984 19.5561C18.9847 19.1805 19.2649 18.8154 20.5204 18.8192V18.9322ZM17.4886 18.7368C17.5169 18.5391 17.5277 18.3507 17.5284 18.1919C17.5312 17.037 16.9383 16.109 15.5885 16.1052C14.2003 16.1009 13.4161 17.1479 13.4116 18.574C13.4073 20.214 14.225 20.9596 15.695 20.9638C16.2736 20.9656 16.8602 20.8621 17.3517 20.6684L17.2439 19.738C16.8441 19.925 16.3503 20.0268 15.8948 20.0256C15.0373 20.023 14.6103 19.5999 14.6231 18.7285L17.4886 18.7368ZM16.346 17.9166L14.6426 17.9123C14.7079 17.3492 15.0546 16.9834 15.5486 16.9848C16.0497 16.9862 16.3663 17.3344 16.346 17.9166ZM11.9539 20.86L13.0171 20.8631L13.0351 14.0041L11.8395 14L11.8339 16.1306C11.6318 16.1013 11.4463 16.0925 11.2487 16.0925C9.71433 16.088 8.79902 17.172 8.79449 18.7491C8.79108 20.0804 9.34415 20.9452 10.4732 20.9481C11.18 20.9505 11.6935 20.5861 11.9367 20.0699L11.9562 20.0708L11.9539 20.86ZM11.828 18.4289C11.826 19.2247 11.4515 19.9559 10.8287 19.9545C10.2893 19.9521 10.0379 19.502 10.0402 18.6289C10.043 17.4758 10.5296 17.0461 11.209 17.048C11.4153 17.048 11.6196 17.0767 11.8316 17.1268L11.828 18.4289ZM8.53242 18.4237C8.53689 16.8182 7.69099 16.0817 6.37519 16.0779C4.96833 16.0736 4.00455 17.1222 4.00002 18.579C3.99578 20.2428 4.84292 20.9318 6.15725 20.9354C7.54699 20.9399 8.52819 19.8889 8.53242 18.4237ZM7.30369 18.4847C7.30092 19.4345 6.8495 19.9131 6.2639 19.9114C5.57282 19.909 5.22663 19.4201 5.22975 18.4606C5.23181 17.5019 5.75688 17.0896 6.28972 17.0911C6.98933 17.0935 7.30586 17.5833 7.30369 18.4847Z" fill="white"/>
</g>
</g>
</svg>
