<svg width="64" height="64" viewBox="0 0 64 64" fill="none" xmlns="http://www.w3.org/2000/svg">
<path fill-rule="evenodd" clip-rule="evenodd" d="M31.9944 0.00152588C49.6704 0.00152588 64 14.328 64 32.0008C64 49.6733 49.6704 64 31.9944 64C14.6035 64 0.452307 50.1321 0 32.8539L0 31.1476C0.452307 13.8693 14.6035 0.00152588 31.9944 0.00152588Z" fill="#061922"/>
<mask id="mask0_12_76290" style="mask-type:luminance" maskUnits="userSpaceOnUse" x="0" y="0" width="64" height="64">
<path fill-rule="evenodd" clip-rule="evenodd" d="M31.9944 0.00152588C49.6704 0.00152588 64 14.328 64 32.0008C64 49.6733 49.6704 64 31.9944 64C14.6035 64 0.452307 50.1321 0 32.8539L0 31.1476C0.452307 13.8693 14.6035 0.00152588 31.9944 0.00152588Z" fill="white"/>
</mask>
<g mask="url(#mask0_12_76290)">
<mask id="mask1_12_76290" style="mask-type:luminance" maskUnits="userSpaceOnUse" x="12" y="28" width="40" height="8">
<path fill-rule="evenodd" clip-rule="evenodd" d="M12 28H52V36H12V28Z" fill="white"/>
</mask>
<g mask="url(#mask1_12_76290)">
<path fill-rule="evenodd" clip-rule="evenodd" d="M50.0632 33.0324L51.8856 30.592L50.2741 30.5871L48.759 32.8154L48.7708 28.0857L47.4459 28.0813L47.4257 35.9199L48.7509 35.9237L48.7575 33.2844L50.344 35.9286L52 35.9341L50.0632 33.0324ZM45.4552 35.9141L46.7844 35.9176L46.7941 32.1746C46.7966 31.2432 46.4119 30.4705 45.2535 30.4672C44.4166 30.4645 43.8145 30.9001 43.5018 31.5327L43.4921 31.5206L43.4944 30.5663L42.3199 30.5635L42.3123 35.9045L43.6394 35.9078L43.6458 33.3342C43.6481 32.402 44.1633 31.6104 44.8348 31.6121C45.3209 31.6137 45.4657 31.9458 45.4642 32.5024L45.4552 35.9141ZM40.5016 35.8985L41.673 35.9021C41.673 35.794 41.6704 34.8517 41.6704 34.8517L41.6776 32.3081C41.6801 31.1414 41.22 30.4552 39.5651 30.45C38.9043 30.448 38.2397 30.5827 37.7199 30.7742L37.8325 31.9226C38.2686 31.6665 38.8879 31.507 39.3542 31.5086C40.0992 31.5103 40.3573 31.8019 40.3558 32.3596L40.355 32.6477C38.6081 32.6425 37.3837 33.315 37.3803 34.5906C37.378 35.4476 37.9139 35.9976 38.8445 36C39.6105 36.003 40.244 35.5874 40.4942 34.9857H40.5036L40.5016 35.8985ZM40.3527 33.668C40.3509 34.311 39.9046 34.9518 39.2536 34.9502C38.8706 34.9485 38.6428 34.7233 38.6436 34.3799C38.6444 33.9517 38.9574 33.5333 40.3527 33.5378V33.668ZM37.1687 32.9487C37.1738 31.3734 36.513 30.4412 35.2824 30.4365C34.618 30.4349 34.0855 30.7387 33.8 31.2328L33.8021 30.3446L33.8064 28.7089L33.8079 28.0397L32.4803 28.0356L32.4601 35.7234C33.0484 35.8958 33.6325 35.9847 34.3768 35.9872C36.1469 35.9927 37.1648 34.7499 37.1687 32.9487ZM35.7711 33.0857C35.768 34.4035 35.2288 34.8968 34.4743 34.8938C34.1957 34.8932 33.9787 34.8593 33.7903 34.795L33.7944 33.2936C33.7967 32.4036 34.2126 31.5803 34.8951 31.5819C35.4969 31.5847 35.7736 32.0882 35.7711 33.0857ZM30.5075 35.8684L31.6774 35.8717C31.6774 35.7639 31.6767 34.8216 31.6767 34.8216L31.6837 32.278C31.6863 31.1113 31.2236 30.4246 29.5694 30.4196C28.9079 30.418 28.2449 30.5526 27.7268 30.7438L27.8379 31.8922C28.2724 31.6366 28.8951 31.4769 29.3584 31.4777C30.1028 31.4804 30.361 31.7715 30.3595 32.3297L30.3587 32.6178C28.612 32.6124 27.3886 33.2849 27.3856 34.5602C27.3831 35.4175 27.9207 35.9674 28.8483 35.9702C29.6168 35.9727 30.2475 35.557 30.4977 34.9553H30.5098L30.5075 35.8684ZM30.356 33.6368C30.3545 34.2809 29.908 34.9214 29.2553 34.92C28.8734 34.9179 28.6481 34.6921 28.6489 34.3499C28.6496 33.9206 28.961 33.5033 30.356 33.5076V33.6368ZM26.9874 33.4135C27.0188 33.1875 27.0308 32.9722 27.0316 32.7908C27.0346 31.4708 26.3759 30.4103 24.8762 30.4059C23.3337 30.401 22.4623 31.5976 22.4573 33.2275C22.4526 35.1017 23.3611 35.9538 24.9944 35.9587C25.6373 35.9606 26.2891 35.8424 26.8352 35.6211L26.7155 34.5578C26.2712 34.7715 25.7226 34.8877 25.2164 34.8864C24.2637 34.8834 23.7892 34.3999 23.8034 33.404L26.9874 33.4135ZM25.7178 32.4761L23.8251 32.4712C23.8977 31.8277 24.2829 31.4096 24.8318 31.4112C25.3886 31.4128 25.7403 31.8107 25.7178 32.4761ZM20.8377 35.84L22.019 35.8435L22.039 28.0047L20.7106 28L20.7043 30.4349C20.4798 30.4015 20.2737 30.3914 20.0541 30.3914C18.3493 30.3863 17.3322 31.6252 17.3272 33.4275C17.3234 34.949 17.9379 35.9374 19.1924 35.9407C19.9778 35.9434 20.5483 35.5269 20.8185 34.937L20.8402 34.9381L20.8377 35.84ZM20.6978 33.0617C20.6955 33.9711 20.2794 34.8068 19.5874 34.8052C18.9882 34.8024 18.7087 34.288 18.7113 33.2901C18.7145 31.9724 19.2551 31.4812 20.01 31.4834C20.2392 31.4834 20.4662 31.5162 20.7017 31.5735L20.6978 33.0617ZM17.036 33.0556C17.041 31.2208 16.1011 30.3791 14.6391 30.3748C13.0759 30.3698 12.0051 31.5683 12 33.2332C11.9953 35.1346 12.9366 35.922 14.3969 35.9262C15.9411 35.9314 17.0313 34.7301 17.036 33.0556ZM15.6708 33.1254C15.6677 34.2108 15.1661 34.7578 14.5154 34.7559C13.7476 34.7531 13.3629 34.1944 13.3664 33.0978C13.3687 32.0022 13.9521 31.531 14.5441 31.5327C15.3215 31.5354 15.6732 32.0952 15.6708 33.1254Z" fill="white"/>
</g>
</g>
</svg>
