<svg width="64" height="64" viewBox="0 0 64 64" fill="none" xmlns="http://www.w3.org/2000/svg">
<path fill-rule="evenodd" clip-rule="evenodd" d="M31.9944 0.00152588C49.6704 0.00152588 64 14.328 64 32.0008C64 49.6733 49.6704 64 31.9944 64C14.6035 64 0.452307 50.1321 0 32.8539L0 31.1476C0.452307 13.8693 14.6035 0.00152588 31.9944 0.00152588Z" fill="#005AD9"/>
<mask id="mask0_12_75972" style="mask-type:luminance" maskUnits="userSpaceOnUse" x="0" y="0" width="64" height="64">
<path fill-rule="evenodd" clip-rule="evenodd" d="M31.9944 0.00152588C49.6704 0.00152588 64 14.328 64 32.0008C64 49.6733 49.6704 64 31.9944 64C14.6035 64 0.452307 50.1321 0 32.8539L0 31.1476C0.452307 13.8693 14.6035 0.00152588 31.9944 0.00152588Z" fill="white"/>
</mask>
<g mask="url(#mask0_12_75972)">
<path d="M43.3843 18.5999C45.4503 20.3909 46.589 22.8779 46.8096 25.5755C47.0612 29.6937 45.6763 33.4323 42.9347 36.51C40.683 38.9479 37.4052 40.5488 34.0678 40.6979C31.3823 40.7678 28.8661 40.3173 26.6798 38.6587C26.3578 38.3551 26.0464 38.0424 25.7387 37.7246C24.9856 41.1424 24.2899 44.5715 23.5877 48C21.4137 48 19.2398 48 17 48C17.1608 46.9626 17.323 45.9354 17.527 44.9072C17.5514 44.7832 17.5757 44.6592 17.6007 44.5315C17.6803 44.1263 17.7605 43.7213 17.8408 43.3163C17.8687 43.1752 17.8966 43.0341 17.9254 42.8887C18.0737 42.139 18.2224 41.3893 18.3715 40.6397C18.4925 40.0308 18.6128 39.4218 18.7324 38.8126C19.3085 35.8791 19.8842 32.9481 20.6205 30.0493C20.645 29.9527 20.6695 29.8562 20.6948 29.7567C21.8096 25.399 23.3764 21.2106 27.2176 18.5082C27.4071 18.3748 27.4071 18.3748 27.6004 18.2387C32.2018 15.2188 39.0067 15.1721 43.3843 18.5999ZM29.4469 24.3856C27.9147 26.2669 27.2688 28.3915 27.4865 30.7853C27.7766 32.064 28.4628 33.1752 29.5031 33.9881C31.0396 34.8392 32.6251 35.0184 34.3514 34.647C36.363 34.0734 38.0537 32.8261 39.1162 31.0329C40.0969 29.175 40.6138 27.3249 39.9859 25.2697C39.572 24.1428 38.9508 23.1589 37.8669 22.5773C34.9496 21.2402 31.6348 22.0448 29.4469 24.3856Z" fill="white"/>
<path d="M36.4947 24.6462C37.1652 25.2777 37.6486 25.8633 37.7498 26.7986C37.7694 28.5039 37.3746 29.8875 36.2258 31.1851C35.2161 32.102 34.1543 32.5738 32.7839 32.5467C31.9173 32.4739 31.3141 32.247 30.7221 31.6022C29.9941 30.681 29.8242 29.7534 29.9606 28.5949C30.2396 27.0979 30.802 25.9822 31.9945 25.0059C33.2585 24.1457 35.1461 23.7896 36.4947 24.6462Z" fill="#F4BF08"/>
</g>
</svg>
