<svg width="130" height="55" viewBox="0 0 130 55" fill="none" xmlns="http://www.w3.org/2000/svg">
<path d="M21.5114 20.0177C23.1959 21.4779 24.1243 23.5056 24.3042 25.705C24.5093 29.0626 23.3801 32.1108 21.1449 34.62C19.309 36.6076 16.6367 37.9129 13.9156 38.0345C11.7261 38.0915 9.67459 37.7241 7.89209 36.3719C7.62956 36.1244 7.37566 35.8694 7.1248 35.6103C6.5108 38.3969 5.94351 41.1927 5.37101 43.988C3.59857 43.988 1.82614 43.988 0 43.988C0.131093 43.1422 0.26334 42.3047 0.429699 41.4664C0.449528 41.3653 0.469358 41.2642 0.489788 41.16C0.554693 40.8297 0.620053 40.4995 0.685505 40.1693C0.708259 40.0543 0.731013 39.9392 0.754456 39.8207C0.875368 39.2094 0.996636 38.5982 1.1182 37.987C1.21689 37.4906 1.31497 36.9941 1.41246 36.4974C1.88212 34.1056 2.35149 31.716 2.95183 29.3525C2.97182 29.2738 2.99182 29.1951 3.01242 29.114C3.92131 25.5611 5.19873 22.1462 8.33054 19.9429C8.48505 19.8341 8.48505 19.8341 8.64268 19.7232C12.3942 17.2611 17.9423 17.223 21.5114 20.0177ZM10.1481 24.7348C8.89892 26.2687 8.37227 28.0009 8.54976 29.9526C8.7863 30.9952 9.34578 31.9011 10.194 32.5638C11.4466 33.2578 12.7393 33.4039 14.1468 33.1011C15.7869 32.6335 17.1654 31.6165 18.0317 30.1545C18.8312 28.6397 19.2526 27.1313 18.7407 25.4556C18.4033 24.5369 17.8968 23.7347 17.013 23.2605C14.6346 22.1704 11.9319 22.8264 10.1481 24.7348Z" fill="#001ECE"/>
<path d="M106.981 19.834C107.069 19.8997 107.157 19.9655 107.247 20.0333C108.637 21.1652 109.623 22.9583 109.831 24.73C109.846 24.8466 109.86 24.9631 109.875 25.0832C110.021 26.5978 109.941 28.2999 109.393 29.7349C109.283 29.8437 109.283 29.8437 109.04 29.8571C108.932 29.857 108.824 29.8569 108.712 29.8568C108.589 29.8569 108.465 29.8571 108.337 29.8572C108.2 29.8568 108.063 29.8564 107.922 29.856C107.779 29.856 107.636 29.8561 107.488 29.8561C107.094 29.8561 106.7 29.8555 106.306 29.8547C105.895 29.854 105.483 29.854 105.072 29.8538C104.292 29.8535 103.513 29.8526 102.733 29.8515C101.846 29.8503 100.959 29.8497 100.072 29.8491C98.2461 29.848 96.4206 29.8461 94.595 29.8437C94.6258 30.0494 94.6577 30.2549 94.6901 30.4604C94.7077 30.5748 94.7254 30.6893 94.7435 30.8072C94.915 31.6368 95.3102 32.3167 95.9853 32.8387C97.2531 33.6387 98.9372 33.6225 100.379 33.3585C101.076 33.1473 101.975 32.7918 102.388 32.1624C102.621 31.8246 102.795 31.6159 103.205 31.5172C103.551 31.4964 103.89 31.4989 104.237 31.5101C104.362 31.5112 104.488 31.5123 104.617 31.5134C105.017 31.5176 105.417 31.5272 105.817 31.5369C106.088 31.5407 106.36 31.5442 106.631 31.5473C107.296 31.5557 107.961 31.5684 108.625 31.5845C108.424 32.7024 107.708 33.6689 106.981 34.5221C106.897 34.6269 106.814 34.7317 106.727 34.8396C105.196 36.657 102.618 37.6999 100.296 37.9732C97.3511 38.2094 94.519 37.8743 92.1086 36.039C90.5801 34.7435 89.6736 32.9966 89.3336 31.0405C89.104 27.5096 89.795 24.4048 92.136 21.65C95.7469 17.6862 102.566 16.5136 106.981 19.834ZM98.4314 22.7716C98.3331 22.8154 98.2348 22.8591 98.1334 22.9042C96.8816 23.5187 96.0626 24.4598 95.4719 25.7092C95.4357 25.8888 95.3996 26.0683 95.3623 26.2532C98.3646 26.2532 101.367 26.2532 104.46 26.2532C104.597 25.3053 104.52 24.6461 103.97 23.8503C103.367 23.1023 102.675 22.6253 101.72 22.4452C100.628 22.3471 99.4431 22.3049 98.4314 22.7716Z" fill="#00D5F1"/>
<path d="M44.301 20.0016C44.9914 20.5925 45.5693 21.2293 46.0368 22.0101C46.0871 22.0934 46.1374 22.1768 46.1892 22.2626C48.177 25.8641 46.5342 30.5795 45.7901 34.3455C45.7751 34.4216 45.7601 34.4977 45.7446 34.5761C45.6435 35.0873 45.5415 35.5983 45.439 36.1092C45.4126 36.2422 45.3861 36.3753 45.3588 36.5123C45.322 36.6949 45.322 36.6949 45.2844 36.8812C45.2629 36.9881 45.2414 37.095 45.2193 37.2052C45.1599 37.4599 45.1599 37.4599 45.0503 37.6775C43.314 37.6775 41.5777 37.6775 39.7889 37.6775C39.8518 36.9903 39.9133 36.3234 40.0149 35.6443C40.0343 35.5137 40.0537 35.3831 40.0736 35.2486C40.0882 35.1525 40.1027 35.0565 40.1177 34.9575C40.0776 35.0168 40.0374 35.0761 39.9961 35.1373C38.9275 36.6147 37.1906 37.634 35.3932 37.9567C32.9074 38.2312 30.7118 37.8282 28.718 36.2631C28.5485 36.1419 28.5485 36.1419 28.3755 36.0183C26.6852 34.4135 25.883 32.2223 25.8165 29.9372C25.7896 27.012 26.6533 24.2468 28.6084 22.0101C28.68 21.9221 28.7517 21.834 28.8255 21.7432C30.6445 19.5888 33.5494 18.3026 36.3314 18.0078C39.1588 17.7717 42.0425 18.1547 44.301 20.0016ZM33.6506 23.9686C33.5812 24.015 33.5118 24.0614 33.4403 24.1092C32.2439 24.9925 31.5839 26.6037 31.3213 28.0078C31.1272 29.3582 31.2591 30.6056 32.0304 31.7746C32.676 32.5856 33.5144 33.017 34.5275 33.2167C36.2889 33.38 37.803 32.9573 39.2185 31.8996C40.667 30.6688 41.5249 29.0358 41.6874 27.1518C41.7243 25.958 41.5521 24.9754 40.7754 24.0366C39.9551 23.1981 38.935 22.7667 37.7724 22.7399C36.1837 22.7273 34.9555 23.0125 33.6506 23.9686Z" fill="#005AD9"/>
<path d="M48.12 18.3105C49.9286 18.3105 51.7372 18.3105 53.6007 18.3105C53.7729 18.7379 53.8755 19.0732 53.9586 19.5175C53.9835 19.6491 54.0084 19.7808 54.034 19.9164C54.0606 20.0598 54.0871 20.2033 54.1136 20.3467C54.1417 20.4963 54.1698 20.6459 54.198 20.7955C54.2722 21.1903 54.3457 21.5853 54.4191 21.9803C54.4923 22.3732 54.5661 22.7659 54.6398 23.1587C54.7673 23.8381 54.8939 24.5177 55.02 25.1973C55.1032 25.6456 55.1869 26.0939 55.2711 26.542C55.3106 26.7541 55.3501 26.9662 55.3896 27.1782C55.407 27.2704 55.4244 27.3625 55.4423 27.4574C55.5895 28.2527 55.7005 29.0399 55.6901 29.8502C55.6892 29.9525 55.6882 30.0547 55.6871 30.1601C55.6859 30.2351 55.6846 30.3101 55.6833 30.3874C55.7162 30.3356 55.7492 30.2838 55.7832 30.2305C59.9582 23.669 59.9582 23.669 60.1226 23.4105C60.2321 23.2385 60.3415 23.0665 60.4509 22.8945C60.7276 22.4597 61.0043 22.0249 61.2812 21.5903C61.3373 21.5022 61.3934 21.4141 61.4512 21.3234C61.5551 21.1603 61.659 20.9972 61.7629 20.8342C61.812 20.7572 61.861 20.6802 61.9115 20.6009C61.967 20.5197 62.0225 20.4386 62.0797 20.355C62.2304 20.1012 62.3299 19.8775 62.4339 19.6044C62.655 19.0861 62.8807 18.6379 63.3562 18.3105C64.3604 18.0163 65.4623 18.148 66.4938 18.2017C66.7845 18.2114 67.0752 18.2184 67.366 18.2255C68.076 18.2446 68.7851 18.2737 69.4944 18.3105C69.3997 18.7428 69.2145 19.0342 68.9669 19.4045C68.9235 19.4698 68.8801 19.5352 68.8353 19.6025C68.6902 19.8205 68.5443 20.0379 68.3983 20.2553C68.2948 20.4105 68.1914 20.5657 68.0881 20.721C67.8676 21.052 67.6468 21.3829 67.4258 21.7136C66.9145 22.4792 66.4066 23.2471 65.8983 24.0147C65.6092 24.4514 65.3197 24.8879 65.0303 25.3244C63.5281 27.5903 62.0278 29.8575 60.5287 32.1254C59.672 33.4214 58.8147 34.717 57.9569 36.0123C57.8511 36.172 57.7454 36.3317 57.6396 36.4914C57.5608 36.6103 57.5608 36.6103 57.4804 36.7317C57.1002 37.3059 56.7203 37.8804 56.3405 38.4549C55.3804 39.907 54.4197 41.3586 53.4499 42.8044C53.3769 42.9134 53.3039 43.0224 53.2286 43.1347C53.1629 43.2324 53.0972 43.3301 53.0295 43.4308C52.9726 43.5154 52.9158 43.6 52.8572 43.6872C52.7238 43.8788 52.7238 43.8788 52.6141 43.9876C52.4325 43.9977 52.2504 44.0004 52.0684 43.9999C51.9521 43.9999 51.8358 43.9999 51.716 43.9999C51.5262 43.9991 51.5262 43.9991 51.3326 43.9982C51.2038 43.9981 51.075 43.9979 50.9423 43.9977C50.5291 43.9971 50.1158 43.9958 49.7026 43.9944C49.4232 43.9938 49.1438 43.9933 48.8644 43.9929C48.1778 43.9917 47.4913 43.9899 46.8047 43.9876C46.9682 43.5667 47.1593 43.2136 47.4106 42.8367C47.5263 42.6621 47.5263 42.6621 47.6444 42.484C47.7276 42.3596 47.8108 42.2352 47.894 42.1108C47.9793 41.9823 48.0646 41.8538 48.1499 41.7252C48.3188 41.4706 48.4879 41.2161 48.6571 40.9617C48.9464 40.5257 49.2327 40.0879 49.5176 39.6491C49.8347 39.1615 50.1524 38.6743 50.4716 38.188C50.5685 38.0403 50.5685 38.0403 50.6673 37.8896C50.7928 37.6984 50.9183 37.5074 51.0439 37.3163C51.1294 37.1861 51.1294 37.1861 51.2166 37.0532C51.2669 36.9767 51.3172 36.9001 51.369 36.8213C51.4182 36.7446 51.4674 36.668 51.518 36.5891C51.6106 36.4847 51.6106 36.4847 51.7051 36.3783C51.932 35.8449 51.761 35.3846 51.6332 34.8342C51.6071 34.714 51.581 34.5938 51.5541 34.47C51.4986 34.2155 51.4421 33.9613 51.3848 33.7072C51.3028 33.3428 51.2234 32.9778 51.1452 32.6126C50.9864 31.8728 50.8239 31.134 50.6612 30.3951C50.6016 30.1234 50.542 29.8517 50.4824 29.58C50.343 28.9444 50.2034 28.3089 50.0636 27.6734C49.7987 26.4685 49.5342 25.2635 49.2698 24.0585C49.1839 23.6673 49.0979 23.2762 49.0119 22.885C48.8836 22.3014 48.7558 21.7176 48.6285 21.1336C48.5822 20.9215 48.5357 20.7093 48.4892 20.4972C48.4258 20.2078 48.363 19.9184 48.3003 19.6288C48.2818 19.5448 48.2633 19.4607 48.2442 19.3741C48.1655 19.0076 48.12 18.6875 48.12 18.3105Z" fill="#0084E1"/>
<path d="M85.6692 20.2421C86.9923 21.4563 87.8787 23.0605 88.1282 24.839C88.1282 25.2339 88.1282 25.6289 88.1282 26.0358C86.2834 26.0358 84.4386 26.0358 82.538 26.0358C82.4294 25.6408 82.3209 25.2459 82.2091 24.839C81.7207 23.9708 81.1591 23.3617 80.2087 23.003C78.7078 22.6184 77.0037 22.7751 75.6375 23.4836C74.1055 24.3915 73.2441 25.6476 72.7525 27.3406C72.4122 28.7388 72.4846 30.0262 73.1464 31.3245C73.7352 32.2762 74.4959 32.7386 75.5712 33.0322C76.7944 33.2695 77.8789 33.1198 79.0304 32.6727C79.1099 32.6438 79.1895 32.6149 79.2714 32.5851C80.0154 32.2706 80.8659 31.6209 81.2398 30.9075C81.4499 30.5112 81.6044 30.2217 82.0496 30.0839C82.3975 30.0568 82.733 30.0601 83.0817 30.0746C83.2073 30.076 83.3329 30.0774 83.4623 30.0788C83.8623 30.0843 84.2618 30.0966 84.6617 30.109C84.9333 30.1139 85.2049 30.1184 85.4765 30.1224C86.1414 30.1332 86.8059 30.1496 87.4705 30.1702C87.42 30.3425 87.369 30.5146 87.3179 30.6867C87.2896 30.7825 87.2613 30.8784 87.2321 30.9772C87.104 31.3753 86.935 31.7432 86.7443 32.1151C86.6872 32.2267 86.6872 32.2267 86.6288 32.3406C85.2943 34.8706 83.0737 36.5467 80.3971 37.4871C77.4042 38.3971 73.9283 38.311 71.128 36.8475C70.3994 36.4097 69.7719 35.8747 69.1652 35.2839C69.0603 35.1837 69.0603 35.1837 68.9533 35.0816C67.3817 33.4556 67.0248 31.1467 67.0522 28.9925C67.1359 26.3371 68.1785 23.9639 69.8229 21.9013C69.878 21.8297 69.9331 21.758 69.9899 21.6842C71.6522 19.6193 74.4932 18.3503 77.0976 18.0257C80.1889 17.7286 83.2541 18.1824 85.6692 20.2421Z" fill="#00AEEA"/>
<path d="M116.189 12C117.925 12 119.662 12 121.45 12C121.327 13.2239 121.327 13.2239 121.201 13.7542C121.172 13.8756 121.144 13.9971 121.114 14.1222C121.083 14.253 121.051 14.3838 121.019 14.5186C120.985 14.6628 120.951 14.807 120.917 14.9512C120.842 15.2652 120.768 15.5792 120.693 15.8931C120.571 16.4043 120.45 16.9157 120.329 17.4272C120.308 17.5164 120.287 17.6056 120.265 17.6975C120.221 17.8828 120.177 18.0681 120.134 18.2533C120.065 18.5436 119.996 18.8339 119.928 19.1242C119.359 21.5262 118.799 23.93 118.239 26.3338C118.092 26.9621 117.946 27.5904 117.799 28.2186C117.659 28.8198 117.518 29.4211 117.378 30.0223C117.351 30.1382 117.324 30.2541 117.296 30.3735C116.999 31.6471 116.704 32.9212 116.415 34.1964C116.389 34.3094 116.363 34.4223 116.337 34.5387C116.215 35.0742 116.094 35.6098 115.973 36.1456C115.93 36.3338 115.888 36.5219 115.845 36.7101C115.826 36.7962 115.807 36.8823 115.787 36.971C115.653 37.5559 115.653 37.5559 115.531 37.6771C115.367 37.6872 115.201 37.6899 115.036 37.6894C114.878 37.6894 114.878 37.6894 114.717 37.6894C114.602 37.6888 114.488 37.6883 114.37 37.6877C114.195 37.6875 114.195 37.6875 114.016 37.6872C113.642 37.6866 113.268 37.6853 112.894 37.6839C112.641 37.6833 112.388 37.6828 112.135 37.6824C111.513 37.6812 110.892 37.6794 110.27 37.6771C110.327 36.7478 110.531 35.863 110.748 34.9596C110.786 34.8 110.823 34.6403 110.861 34.4807C110.941 34.141 111.022 33.8014 111.103 33.4619C111.231 32.9225 111.359 32.3827 111.486 31.843C111.637 31.2038 111.789 30.5647 111.94 29.9257C112.249 28.6216 112.555 27.3168 112.86 26.0117C112.942 25.6593 113.025 25.3069 113.107 24.9545C113.427 23.5893 113.745 22.2238 114.062 20.8582C114.228 20.1472 114.393 19.4363 114.559 18.7255C114.698 18.1259 114.838 17.5263 114.977 16.9266C115.064 16.5498 115.152 16.1732 115.24 15.7965C115.281 15.6215 115.321 15.4465 115.362 15.2714C115.418 15.0274 115.475 14.7835 115.532 14.5396C115.564 14.4031 115.596 14.2666 115.628 14.126C115.804 13.4146 115.999 12.7078 116.189 12Z" fill="#00EBF5"/>
<path d="M124.629 12C126.401 12 128.174 12 130 12C129.856 12.786 129.705 13.5605 129.522 14.3371C129.497 14.4443 129.472 14.5515 129.446 14.662C129.364 15.0146 129.281 15.3671 129.198 15.7196C129.14 15.9709 129.081 16.2221 129.023 16.4734C128.868 17.1345 128.713 17.7955 128.559 18.4566C128.408 19.0987 128.258 19.741 128.108 20.3832C127.93 21.1458 127.751 21.9084 127.573 22.671C127.204 24.2463 126.836 25.8217 126.47 27.3974C126.417 27.6261 126.363 27.8547 126.31 28.0834C125.992 29.4504 125.676 30.8178 125.363 32.186C125.257 32.6476 125.151 33.1092 125.045 33.5707C124.942 34.019 124.84 34.4674 124.738 34.9159C124.659 35.2595 124.58 35.603 124.501 35.9465C124.459 36.1339 124.459 36.1339 124.416 36.3251C124.389 36.4399 124.363 36.5547 124.335 36.673C124.313 36.7729 124.29 36.8727 124.266 36.9756C124.191 37.2419 124.191 37.2419 123.971 37.6771C122.235 37.6771 120.499 37.6771 118.71 37.6771C118.957 36.2083 118.957 36.2083 119.107 35.5683C119.124 35.4974 119.14 35.4266 119.157 35.3536C119.211 35.1209 119.266 34.8883 119.321 34.6557C119.361 34.4859 119.401 34.3161 119.441 34.1464C119.526 33.7811 119.612 33.4158 119.698 33.0506C119.836 32.4647 119.973 31.8786 120.111 31.2925C120.257 30.6681 120.403 30.0438 120.55 29.4194C120.916 27.8602 121.28 26.3006 121.644 24.7408C121.67 24.6281 121.696 24.5154 121.723 24.3992C121.931 23.5074 122.139 22.6155 122.347 21.7236C123.102 18.4812 123.864 15.2402 124.629 12Z" fill="#00F3F6"/>
<path d="M15.8942 24.9474C16.4409 25.4622 16.8351 25.9397 16.9175 26.7022C16.9335 28.0926 16.6117 29.2206 15.675 30.2786C14.8518 31.0262 13.9861 31.4108 12.8687 31.3887C12.1623 31.3293 11.6704 31.1443 11.1877 30.6186C10.5942 29.8676 10.4557 29.1113 10.5669 28.1668C10.7943 26.9462 11.2529 26.0366 12.2252 25.2406C13.2557 24.5393 14.7947 24.2489 15.8942 24.9474Z" fill="#F4BF08"/>
</svg>
