<svg width="51" height="20" viewBox="0 0 51 20" fill="none" xmlns="http://www.w3.org/2000/svg">
<path d="M5.35254 15.1367C4.4821 15.1367 3.70508 14.9271 3.02148 14.5078C2.34245 14.084 1.80697 13.4824 1.41504 12.7031C1.02767 11.9193 0.833984 10.9896 0.833984 9.91406C0.833984 8.83398 1.02767 7.9043 1.41504 7.125C1.80697 6.34115 2.34245 5.7373 3.02148 5.31348C3.70508 4.88965 4.4821 4.67773 5.35254 4.67773C5.86751 4.67773 6.35286 4.75293 6.80859 4.90332C7.26888 5.05371 7.68132 5.27474 8.0459 5.56641C8.41048 5.85352 8.71354 6.20443 8.95508 6.61914C9.20117 7.0293 9.36979 7.49642 9.46094 8.02051H8.16211C8.08919 7.6696 7.96387 7.36198 7.78613 7.09766C7.61296 6.83333 7.39876 6.61003 7.14355 6.42773C6.8929 6.24544 6.61491 6.10872 6.30957 6.01758C6.00423 5.92643 5.68522 5.88086 5.35254 5.88086C4.74186 5.88086 4.19043 6.03581 3.69824 6.3457C3.20605 6.6556 2.81641 7.11133 2.5293 7.71289C2.24219 8.3099 2.09863 9.04362 2.09863 9.91406C2.09863 10.7799 2.24219 11.5137 2.5293 12.1152C2.82096 12.7122 3.21289 13.1657 3.70508 13.4756C4.19727 13.7809 4.74642 13.9336 5.35254 13.9336C5.68522 13.9336 6.00423 13.888 6.30957 13.7969C6.61491 13.7012 6.8929 13.5645 7.14355 13.3867C7.39876 13.2044 7.61296 12.9811 7.78613 12.7168C7.96387 12.4479 8.08919 12.1403 8.16211 11.7939H9.46094C9.37435 12.3135 9.20801 12.7783 8.96191 13.1885C8.72038 13.5986 8.41732 13.9495 8.05273 14.2412C7.68815 14.5329 7.27572 14.7562 6.81543 14.9111C6.3597 15.0615 5.87207 15.1367 5.35254 15.1367ZM13.8875 15.0957C13.3725 15.0957 12.919 14.9909 12.5271 14.7812C12.1397 14.5671 11.8367 14.2458 11.6179 13.8174C11.4037 13.389 11.2966 12.8535 11.2966 12.2109V7.35742H12.5271V12.1084C12.5271 12.6963 12.6821 13.1566 12.992 13.4893C13.3018 13.8219 13.7234 13.9883 14.2566 13.9883C14.6212 13.9883 14.947 13.9085 15.2341 13.749C15.5258 13.5895 15.756 13.3571 15.9246 13.0518C16.0932 12.7419 16.1775 12.3704 16.1775 11.9375V7.35742H17.4148V15H16.2254V13.1475H16.3894C16.1524 13.863 15.8152 14.3665 15.3777 14.6582C14.9448 14.9499 14.448 15.0957 13.8875 15.0957ZM15.7947 6.10645C15.5714 6.10645 15.38 6.02669 15.2205 5.86719C15.061 5.70768 14.9812 5.51628 14.9812 5.29297C14.9812 5.06966 15.061 4.88053 15.2205 4.72559C15.38 4.56608 15.5714 4.48633 15.7947 4.48633C16.018 4.48633 16.2071 4.56608 16.3621 4.72559C16.5216 4.88053 16.6013 5.06966 16.6013 5.29297C16.6013 5.51628 16.5216 5.70768 16.3621 5.86719C16.2071 6.02669 16.018 6.10645 15.7947 6.10645ZM12.9168 6.10645C12.6935 6.10645 12.502 6.02669 12.3425 5.86719C12.183 5.70768 12.1033 5.51628 12.1033 5.29297C12.1033 5.06966 12.183 4.88053 12.3425 4.72559C12.502 4.56608 12.6935 4.48633 12.9168 4.48633C13.1401 4.48633 13.3292 4.56608 13.4841 4.72559C13.6436 4.88053 13.7234 5.06966 13.7234 5.29297C13.7234 5.51628 13.6436 5.70768 13.4841 5.86719C13.3292 6.02669 13.1401 6.10645 12.9168 6.10645ZM19.353 15V14.084L23.6392 8.57422V8.49902H19.4898V7.35742H25.2251V8.33496L21.062 13.7832V13.8584H25.3618V15H19.353ZM29.9593 15.1641C29.3258 15.1641 28.7652 15.0023 28.2776 14.6787C27.79 14.3551 27.4095 13.8971 27.136 13.3047C26.8626 12.7122 26.7259 12.0104 26.7259 11.1992C26.7259 10.3926 26.8626 9.69531 27.136 9.10742C27.414 8.51497 27.7968 8.05924 28.2845 7.74023C28.7721 7.42122 29.3326 7.26172 29.9661 7.26172C30.4628 7.26172 30.857 7.34375 31.1487 7.50781C31.4404 7.67188 31.6637 7.85872 31.8186 8.06836C31.9781 8.27344 32.0989 8.44434 32.1809 8.58105H32.2766V4.81445H33.5071V15H32.3177V13.8174H32.1809C32.0989 13.9587 31.9759 14.1364 31.8118 14.3506C31.6523 14.5602 31.4244 14.7493 31.1282 14.918C30.8365 15.082 30.4469 15.1641 29.9593 15.1641ZM30.1438 14.0635C30.6087 14.0635 31.0006 13.9427 31.3196 13.7012C31.6386 13.4551 31.8802 13.1156 32.0442 12.6826C32.2083 12.2497 32.2903 11.7507 32.2903 11.1855C32.2903 10.6204 32.2083 10.1283 32.0442 9.70898C31.8847 9.28516 31.6455 8.95475 31.3264 8.71777C31.0074 8.48079 30.6132 8.3623 30.1438 8.3623C29.6608 8.3623 29.2574 8.48763 28.9339 8.73828C28.6149 8.98893 28.3756 9.32845 28.2161 9.75684C28.0566 10.1807 27.9768 10.6569 27.9768 11.1855C27.9768 11.7188 28.0566 12.2041 28.2161 12.6416C28.3802 13.0745 28.624 13.4209 28.9475 13.6807C29.2711 13.9359 29.6699 14.0635 30.1438 14.0635ZM37.7969 15.1777C37.3138 15.1777 36.8741 15.0866 36.4776 14.9043C36.0857 14.722 35.7735 14.4554 35.5411 14.1045C35.3086 13.7536 35.1924 13.3275 35.1924 12.8262C35.1924 12.3887 35.279 12.0332 35.4522 11.7598C35.6254 11.4863 35.8555 11.2721 36.1426 11.1172C36.4343 10.9577 36.7556 10.8392 37.1065 10.7617C37.4574 10.6842 37.8106 10.6227 38.1661 10.5771C38.6218 10.5179 38.9932 10.4723 39.2803 10.4404C39.5674 10.4085 39.7793 10.3538 39.9161 10.2764C40.0573 10.1989 40.128 10.0667 40.128 9.87988V9.83887C40.128 9.51986 40.0687 9.25098 39.9502 9.03223C39.8317 8.80892 39.654 8.63802 39.417 8.51953C39.1801 8.40104 38.8838 8.3418 38.5284 8.3418C38.1638 8.3418 37.8516 8.39876 37.5918 8.5127C37.3321 8.62663 37.1202 8.77018 36.9561 8.94336C36.7966 9.11198 36.6758 9.28516 36.5938 9.46289L35.4112 9.07324C35.6071 8.6084 35.8715 8.24609 36.2041 7.98633C36.5368 7.72201 36.9037 7.53516 37.3047 7.42578C37.7058 7.31641 38.1023 7.26172 38.4942 7.26172C38.7494 7.26172 39.0388 7.29362 39.3623 7.35742C39.6905 7.41667 40.0049 7.53743 40.3057 7.71973C40.611 7.90202 40.8617 8.17318 41.0577 8.5332C41.2582 8.88867 41.3584 9.36491 41.3584 9.96191V15H40.1485V13.9609H40.0664C39.9799 14.1387 39.8409 14.3232 39.6495 14.5146C39.458 14.7015 39.2097 14.8587 38.9043 14.9863C38.599 15.1139 38.2299 15.1777 37.7969 15.1777ZM38.0088 14.0908C38.4646 14.0908 38.8496 14.002 39.1641 13.8242C39.4786 13.6465 39.7178 13.4163 39.8819 13.1338C40.0459 12.8467 40.128 12.5482 40.128 12.2383V11.1787C40.0778 11.238 39.9685 11.2926 39.7998 11.3428C39.6312 11.3883 39.4375 11.4294 39.2188 11.4658C39.0046 11.5023 38.795 11.5342 38.5899 11.5615C38.3894 11.5843 38.2299 11.6025 38.1114 11.6162C37.8151 11.6527 37.5371 11.7165 37.2774 11.8076C37.0222 11.8942 36.8171 12.0241 36.6621 12.1973C36.5072 12.3659 36.4297 12.596 36.4297 12.8877C36.4297 13.152 36.4981 13.373 36.6348 13.5508C36.7715 13.7285 36.9584 13.863 37.1954 13.9541C37.4323 14.0452 37.7035 14.0908 38.0088 14.0908ZM44.7391 10.4199V15H43.5086V7.35742H44.6912L44.698 9.20996H44.5271C44.7596 8.50358 45.09 8.00228 45.5184 7.70605C45.9513 7.40983 46.4572 7.26172 47.0359 7.26172C47.5509 7.26172 48.0021 7.36882 48.3895 7.58301C48.7768 7.79264 49.0776 8.11165 49.2918 8.54004C49.5105 8.96387 49.6199 9.49935 49.6199 10.1465V15H48.3895V10.249C48.3895 9.66113 48.2345 9.20085 47.9246 8.86816C47.6193 8.53548 47.2 8.36914 46.6668 8.36914C46.3022 8.36914 45.9741 8.44889 45.6824 8.6084C45.3908 8.7679 45.1606 9.00033 44.992 9.30566C44.8234 9.611 44.7391 9.98242 44.7391 10.4199Z" fill="#005FAE"/>
</svg>
