<svg width="60" height="60" viewBox="0 0 60 60" fill="none" xmlns="http://www.w3.org/2000/svg">
<g clip-path="url(#clip0_12_83481)">
<circle cx="30" cy="30" r="30" fill="#0B0F1A"/>
<path fill-rule="evenodd" clip-rule="evenodd" d="M37.7747 41.0596C38.2109 41.0596 38.5328 41.1529 38.6937 41.4092C39.2449 42.2021 38.0504 43.9984 36.0521 45.4443C34.054 46.89 31.9873 47.4264 31.4358 46.6338C30.8846 45.8408 32.0791 44.0446 34.0774 42.5986C35.4553 41.5961 36.856 41.0364 37.7747 41.0596ZM28.7698 38.168C29.9872 38.168 30.8374 38.4708 31.0901 39.0771C31.6414 40.4531 28.9543 42.8792 25.0726 44.5117C21.1908 46.1209 17.5838 46.3301 17.0325 44.9541C16.4819 43.578 19.1696 41.1529 23.0511 39.5205C25.187 38.6111 27.2539 38.1447 28.7698 38.168ZM42.6907 35.8584C42.7365 35.8584 42.7826 35.8586 42.8284 35.8818C43.2415 36.0921 43.0349 37.3516 42.346 38.6807C41.6569 40.01 40.7604 40.9197 40.347 40.6865C39.9339 40.4763 40.1405 39.2167 40.8294 37.8877C41.4496 36.6983 42.2313 35.8351 42.6907 35.8584ZM37.1087 33.6426C37.7287 33.6427 38.234 33.8529 38.4866 34.2959C38.9459 35.1355 38.2563 36.4413 36.9241 37.2109C35.5922 37.9803 34.146 37.9573 33.6634 37.1182C33.204 36.2786 33.8927 34.9718 35.2249 34.2021C35.868 33.8291 36.5345 33.6426 37.1087 33.6426ZM41.2894 31.5674C41.4042 31.5674 41.4963 31.5911 41.5882 31.6377C42.0245 31.8942 42.0477 32.6402 41.6575 33.3164C41.29 33.9927 40.6237 34.3659 40.2103 34.1094C39.7739 33.8529 39.7506 33.107 40.1409 32.4307C40.4624 31.9177 40.9219 31.5675 41.2894 31.5674ZM28.7474 26.2266C31.251 26.2266 33.2728 27.6965 33.2728 29.5156C33.2724 31.3577 31.2511 32.8269 28.7708 32.8037C26.2674 32.8037 24.2458 31.3345 24.2454 29.5156C24.2454 27.6965 26.2667 26.2266 28.7474 26.2266ZM36.8333 28.0459C37.752 28.0459 38.4865 28.6985 38.4866 29.5146C38.4866 30.3309 37.7291 30.9844 36.8333 30.9844C35.9375 30.9844 35.2024 30.3309 35.2024 29.5146C35.2026 28.7218 35.9376 28.0459 36.8333 28.0459ZM40.554 24.8047C40.9445 24.8047 41.4039 25.1307 41.7024 25.667C42.07 26.3433 42.0466 27.0901 41.6331 27.3467C41.2197 27.5793 40.5772 27.2295 40.1868 26.5537C39.8193 25.8774 39.8418 25.1306 40.2552 24.874C40.3471 24.8274 40.4392 24.7814 40.554 24.8047ZM35.1097 21.2129C35.6839 21.2129 36.3503 21.3993 36.9935 21.7725C38.3255 22.5421 39.0373 23.848 38.555 24.6875C38.0726 25.527 36.6255 25.5508 35.2933 24.7812C33.9611 24.0116 33.2494 22.7048 33.7317 21.8652C33.9615 21.4223 34.4897 21.2129 35.1097 21.2129ZM40.4857 18.2734C40.9451 18.274 41.726 19.1137 42.346 20.3027C43.0349 21.6319 43.2417 22.8681 42.8284 23.1016C42.415 23.3115 41.5185 22.4251 40.8294 21.0957C40.1405 19.7667 39.9339 18.5305 40.347 18.2969C40.3929 18.2736 40.4397 18.2734 40.4857 18.2734ZM19.3528 13.1201C20.8688 13.1201 22.9135 13.5864 25.0726 14.4727C28.954 16.1052 31.6412 18.5303 31.0901 19.9062C30.5159 21.2822 26.9329 21.0954 23.0511 19.4629C19.1695 17.8304 16.4816 15.4053 17.0325 14.0293C17.2852 13.4229 18.1355 13.1201 19.3528 13.1201ZM32.3314 12C33.2501 12.0002 34.6508 12.5598 36.0286 13.5391C38.027 14.985 39.2215 16.7813 38.6702 17.5742C38.1187 18.3668 36.052 17.8304 34.054 16.3848C32.0557 14.9388 30.8611 13.1426 31.4124 12.3496C31.5733 12.1166 31.8951 12 32.3314 12Z" fill="#005FAE"/>
</g>
<defs>
<clipPath id="clip0_12_83481">
<rect width="60" height="60" fill="white"/>
</clipPath>
</defs>
</svg>
