<svg width="44" height="34" viewBox="0 0 44 34" fill="none" xmlns="http://www.w3.org/2000/svg">
<rect width="44" height="34" rx="8" fill="white"/>
<mask id="mask0_12_76022" style="mask-type:luminance" maskUnits="userSpaceOnUse" x="0" y="0" width="44" height="34">
<rect width="44" height="34" rx="8" fill="white"/>
</mask>
<g mask="url(#mask0_12_76022)">
<path fill-rule="evenodd" clip-rule="evenodd" d="M14.9309 15.3721L11.2707 11.7119L11.4132 11.4186C11.795 10.6323 12.3134 9.90113 12.8681 9.22808L13.1889 8.83898L19.9419 15.592C20.3161 15.9662 20.5233 16.4713 20.5233 17C20.5233 17.5288 20.3161 18.0338 19.9419 18.408L13.1889 25.161L12.8681 24.7719C12.3134 24.0989 11.795 23.3678 11.4132 22.5814L11.2707 22.2881L14.9309 18.6279H10.1695L10.1046 18.2467C10.0344 17.8346 10 17.418 10 17C10 16.582 10.0344 16.1654 10.1046 15.7533L10.1695 15.3721H14.9309ZM23.6279 9.93097L27.2881 6.27075L27.5814 6.41321C28.3678 6.79504 29.0989 7.31336 29.7719 7.86813L30.161 8.18888L23.408 14.9419C23.0338 15.3161 22.5287 15.5233 22 15.5233C21.4712 15.5233 20.9662 15.3161 20.592 14.9419L13.839 8.18888L14.2281 7.86813C14.9011 7.31336 15.6322 6.79504 16.4186 6.41321L16.7119 6.27075L20.3721 9.93097V5.16948L20.7533 5.10457C21.1654 5.03441 21.582 5 22 5C22.418 5 22.8346 5.03441 23.2467 5.10457L23.6279 5.16948V9.93097ZM29.0691 18.6279L32.7293 22.2881L32.5868 22.5814C32.205 23.3678 31.6866 24.0989 31.1319 24.7719L30.8111 25.161L24.0581 18.408C23.6839 18.0338 23.4767 17.5287 23.4767 17C23.4767 16.4713 23.6839 15.9662 24.0581 15.592L30.8111 8.83898L31.1319 9.22808C31.6866 9.90113 32.205 10.6323 32.5868 11.4186L32.7293 11.7119L29.0691 15.3721H33.8305L33.8954 15.7533C33.9656 16.1654 34 16.582 34 17C34 17.418 33.9656 17.8346 33.8954 18.2467L33.8305 18.6279H29.0691ZM20.3721 24.0691L16.7119 27.7293L16.4186 27.5868C15.6322 27.205 14.9011 26.6866 14.2281 26.1319L13.839 25.8111L20.592 19.0581C20.9662 18.684 21.4712 18.4767 22 18.4767C22.5287 18.4767 23.0338 18.684 23.408 19.0581L30.161 25.8111L29.7719 26.1319C29.0989 26.6866 28.3678 27.205 27.5814 27.5868L27.2881 27.7293L23.6279 24.0691V28.8305L23.2467 28.8954C22.8346 28.9656 22.418 29 22 29C21.582 29 21.1654 28.9656 20.7533 28.8954L20.3721 28.8305V24.0691Z" fill="#878786"/>
<mask id="mask1_12_76022" style="mask-type:luminance" maskUnits="userSpaceOnUse" x="10" y="9" width="11" height="16">
<path d="M10.458 17C10.4574 16.6197 10.488 16.2304 10.5561 15.8301H16.0367L11.8252 11.6186C12.165 10.9189 12.6448 10.2191 13.2216 9.51941L19.618 15.9159C19.9162 16.214 20.0652 16.607 20.0652 17C20.0652 17.393 19.9162 17.786 19.618 18.0841L13.2216 24.4806C12.6448 23.7809 12.165 23.0811 11.8252 22.3814L16.0367 18.1698H10.5561C10.488 17.7696 10.4574 17.3803 10.458 17Z" fill="white"/>
</mask>
<g mask="url(#mask1_12_76022)">
<path fill-rule="evenodd" clip-rule="evenodd" d="M10.458 17C10.4574 16.6197 10.488 16.2304 10.5561 15.8301H16.0367L11.8252 11.6186C12.165 10.9189 12.6448 10.2191 13.2216 9.51941L19.618 15.9159C19.9162 16.214 20.0652 16.607 20.0652 17C20.0652 17.393 19.9162 17.786 19.618 18.0841L13.2216 24.4806C12.6448 23.7809 12.165 23.0811 11.8252 22.3814L16.0367 18.1698H10.5561C10.488 17.7696 10.4574 17.3803 10.458 17Z" fill="url(#paint0_linear_12_76022)"/>
</g>
<mask id="mask2_12_76022" style="mask-type:luminance" maskUnits="userSpaceOnUse" x="14" y="5" width="16" height="11">
<path d="M21.9996 5.45811C22.3799 5.45744 22.7693 5.48803 23.1695 5.55618V11.0368L27.381 6.82528C28.0808 7.16508 28.7805 7.64488 29.4802 8.22165L23.0838 14.6181C22.7856 14.9162 22.3926 15.0653 21.9996 15.0653C21.6067 15.0653 21.2136 14.9162 20.9155 14.6181L14.519 8.22165C15.2188 7.64488 15.9185 7.16508 16.6183 6.82528L20.8298 11.0368V5.55618C21.23 5.48803 21.6194 5.45744 21.9996 5.45811Z" fill="white"/>
</mask>
<g mask="url(#mask2_12_76022)">
<path fill-rule="evenodd" clip-rule="evenodd" d="M21.9996 5.45811C22.3799 5.45744 22.7693 5.48803 23.1695 5.55618V11.0368L27.381 6.82528C28.0808 7.16508 28.7805 7.64488 29.4802 8.22165L23.0838 14.6181C22.7856 14.9162 22.3926 15.0653 21.9996 15.0653C21.6067 15.0653 21.2136 14.9162 20.9155 14.6181L14.519 8.22165C15.2188 7.64488 15.9185 7.16508 16.6183 6.82528L20.8298 11.0368V5.55618C21.23 5.48803 21.6194 5.45744 21.9996 5.45811Z" fill="url(#paint1_linear_12_76022)"/>
</g>
<mask id="mask3_12_76022" style="mask-type:luminance" maskUnits="userSpaceOnUse" x="23" y="9" width="11" height="16">
<path d="M33.5418 17C33.5425 17.3803 33.5118 17.7696 33.4437 18.1698H27.9631L32.1746 22.3814C31.8348 23.0811 31.355 23.7809 30.7782 24.4806L24.3818 18.0841C24.0836 17.786 23.9346 17.393 23.9346 17C23.9346 16.607 24.0836 16.214 24.3818 15.9159L30.7782 9.51941C31.355 10.2191 31.8348 10.9189 32.1746 11.6186L27.9631 15.8301H33.4437C33.5118 16.2304 33.5424 16.6197 33.5418 17Z" fill="white"/>
</mask>
<g mask="url(#mask3_12_76022)">
<path fill-rule="evenodd" clip-rule="evenodd" d="M33.5418 17C33.5425 17.3803 33.5118 17.7696 33.4437 18.1698H27.9631L32.1746 22.3814C31.8348 23.0811 31.355 23.7809 30.7782 24.4806L24.3818 18.0841C24.0836 17.786 23.9346 17.393 23.9346 17C23.9346 16.607 24.0836 16.214 24.3818 15.9159L30.7782 9.51941C31.355 10.2191 31.8348 10.9189 32.1746 11.6186L27.9631 15.8301H33.4437C33.5118 16.2304 33.5424 16.6197 33.5418 17Z" fill="url(#paint2_linear_12_76022)"/>
</g>
<mask id="mask4_12_76022" style="mask-type:luminance" maskUnits="userSpaceOnUse" x="14" y="18" width="16" height="11">
<path d="M21.9996 28.542C21.6194 28.5426 21.23 28.512 20.8298 28.4439V22.9633L16.6183 27.1748C15.9185 26.835 15.2188 26.3552 14.519 25.7784L20.9155 19.382C21.2136 19.0838 21.6067 18.9348 21.9996 18.9348C22.3926 18.9348 22.7856 19.0838 23.0838 19.382L29.4802 25.7784C28.7805 26.3552 28.0808 26.835 27.381 27.1748L23.1695 22.9633V28.4439C22.7693 28.512 22.3799 28.5426 21.9996 28.542Z" fill="white"/>
</mask>
<g mask="url(#mask4_12_76022)">
<path fill-rule="evenodd" clip-rule="evenodd" d="M21.9996 28.542C21.6194 28.5426 21.23 28.512 20.8298 28.4439V22.9633L16.6183 27.1748C15.9185 26.835 15.2188 26.3552 14.519 25.7784L20.9155 19.382C21.2136 19.0838 21.6067 18.9348 21.9996 18.9348C22.3926 18.9348 22.7856 19.0838 23.0838 19.382L29.4802 25.7784C28.7805 26.3552 28.0808 26.835 27.381 27.1748L23.1695 22.9633V28.4439C22.7693 28.512 22.3799 28.5426 21.9996 28.542Z" fill="url(#paint3_linear_12_76022)"/>
</g>
</g>
<defs>
<linearGradient id="paint0_linear_12_76022" x1="10.4579" y1="17.0001" x2="20.0653" y2="17.0001" gradientUnits="userSpaceOnUse">
<stop stop-color="#003A73"/>
<stop offset="0.35" stop-color="#003A73"/>
<stop offset="0.73" stop-color="#0062AF"/>
<stop offset="1" stop-color="#0062AF"/>
</linearGradient>
<linearGradient id="paint1_linear_12_76022" x1="14.5192" y1="10.2615" x2="29.4799" y2="10.2615" gradientUnits="userSpaceOnUse">
<stop stop-color="#AB004C"/>
<stop offset="0.35" stop-color="#AB004C"/>
<stop offset="0.61" stop-color="#760030"/>
<stop offset="1" stop-color="#1A1A18"/>
</linearGradient>
<linearGradient id="paint2_linear_12_76022" x1="23.9344" y1="17.0001" x2="33.5417" y2="17.0001" gradientUnits="userSpaceOnUse">
<stop stop-color="#0062AF"/>
<stop offset="0.27" stop-color="#0062AF"/>
<stop offset="0.65" stop-color="#003A73"/>
<stop offset="1" stop-color="#003A73"/>
</linearGradient>
<linearGradient id="paint3_linear_12_76022" x1="21.9996" y1="28.5421" x2="21.9996" y2="18.9347" gradientUnits="userSpaceOnUse">
<stop stop-color="#003A73"/>
<stop offset="0.35" stop-color="#003A73"/>
<stop offset="0.73" stop-color="#0062AF"/>
<stop offset="1" stop-color="#0062AF"/>
</linearGradient>
</defs>
</svg>
