<svg width="44" height="34" viewBox="0 0 44 34" fill="none" xmlns="http://www.w3.org/2000/svg">
<rect y="3" width="44" height="28" rx="4" fill="white"/>
<mask id="mask0_12_76051" style="mask-type:luminance" maskUnits="userSpaceOnUse" x="0" y="3" width="44" height="28">
<rect y="3" width="44" height="28" rx="4" fill="white"/>
</mask>
<g mask="url(#mask0_12_76051)">
</g>
<rect opacity="0.2" x="4" y="21" width="24" height="2" rx="0.923077" fill="black"/>
<rect opacity="0.2" x="4" y="25" width="9" height="2" rx="0.923077" fill="black"/>
<rect opacity="0.2" x="4" y="10" width="7" height="4" rx="1" fill="black"/>
<path fill-rule="evenodd" clip-rule="evenodd" d="M31.4655 11.1861L29.6354 9.35595L29.7066 9.20927C29.8975 8.81613 30.1567 8.45056 30.4341 8.11404L30.5944 7.91949L33.9709 11.296C34.158 11.4831 34.2616 11.7356 34.2616 12C34.2616 12.2644 34.158 12.5169 33.9709 12.704L30.5944 16.0805L30.4341 15.886C30.1567 15.5494 29.8975 15.1839 29.7066 14.7907L29.6354 14.6441L31.4655 12.8139H29.0847L29.0523 12.6234C29.0172 12.4173 29 12.209 29 12C29 11.791 29.0172 11.5827 29.0523 11.3766L29.0847 11.1861H31.4655ZM35.8139 8.46548L37.6441 6.63537L37.7907 6.7066C38.1839 6.89752 38.5494 7.15668 38.886 7.43406L39.0805 7.59444L35.704 10.971C35.5169 11.158 35.2644 11.2616 35 11.2616C34.7356 11.2616 34.4831 11.158 34.296 10.971L30.9195 7.59444L31.114 7.43406C31.4506 7.15668 31.8161 6.89752 32.2093 6.7066L32.3559 6.63537L34.1861 8.46548V6.08474L34.3766 6.05229C34.5827 6.0172 34.791 6 35 6C35.209 6 35.4173 6.0172 35.6234 6.05229L35.8139 6.08474V8.46548ZM38.5345 12.8139L40.3646 14.6441L40.2934 14.7907C40.1025 15.1839 39.8433 15.5494 39.5659 15.886L39.4056 16.0805L36.0291 12.704C35.842 12.5169 35.7384 12.2644 35.7384 12C35.7384 11.7356 35.842 11.4831 36.0291 11.296L39.4056 7.91949L39.5659 8.11404C39.8433 8.45056 40.1025 8.81613 40.2934 9.20927L40.3646 9.35595L38.5345 11.1861H40.9153L40.9477 11.3766C40.9828 11.5827 41 11.791 41 12C41 12.209 40.9828 12.4173 40.9477 12.6234L40.9153 12.8139H38.5345ZM34.1861 15.5345L32.3559 17.3646L32.2093 17.2934C31.8161 17.1025 31.4506 16.8433 31.114 16.5659L30.9195 16.4056L34.296 13.0291C34.4831 12.842 34.7356 12.7384 35 12.7384C35.2644 12.7384 35.5169 12.842 35.704 13.0291L39.0805 16.4056L38.886 16.5659C38.5494 16.8433 38.1839 17.1025 37.7907 17.2934L37.6441 17.3646L35.8139 15.5345V17.9153L35.6234 17.9477C35.4173 17.9828 35.209 18 35 18C34.791 18 34.5827 17.9828 34.3766 17.9477L34.1861 17.9153V15.5345Z" fill="#878786"/>
<mask id="mask1_12_76051" style="mask-type:luminance" maskUnits="userSpaceOnUse" x="29" y="8" width="6" height="8">
<path d="M29.229 11.9999C29.2287 11.8098 29.244 11.6151 29.2781 11.415H32.0184L29.9126 9.30925C30.0825 8.95938 30.3224 8.6095 30.6108 8.25964L33.809 11.4579C33.9581 11.6069 34.0326 11.8034 34.0326 11.9999C34.0326 12.1964 33.9581 12.3929 33.809 12.542L30.6108 15.7402C30.3224 15.3904 30.0825 15.0405 29.9126 14.6906L32.0184 12.5849H29.2781C29.244 12.3847 29.2287 12.1901 29.229 11.9999Z" fill="white"/>
</mask>
<g mask="url(#mask1_12_76051)">
<path fill-rule="evenodd" clip-rule="evenodd" d="M29.229 11.9999C29.2287 11.8098 29.244 11.6151 29.2781 11.415H32.0184L29.9126 9.30925C30.0825 8.95938 30.3224 8.6095 30.6108 8.25964L33.809 11.4579C33.9581 11.6069 34.0326 11.8034 34.0326 11.9999C34.0326 12.1964 33.9581 12.3929 33.809 12.542L30.6108 15.7402C30.3224 15.3904 30.0825 15.0405 29.9126 14.6906L32.0184 12.5849H29.2781C29.244 12.3847 29.2287 12.1901 29.229 11.9999Z" fill="url(#paint0_linear_12_76051)"/>
</g>
<mask id="mask2_12_76051" style="mask-type:luminance" maskUnits="userSpaceOnUse" x="31" y="6" width="8" height="6">
<path d="M35.0001 6.22899C35.1902 6.22866 35.3849 6.24395 35.585 6.27803V9.01834L37.6908 6.91258C38.0406 7.08248 38.3905 7.32238 38.7404 7.61076L35.5421 10.809C35.3931 10.9581 35.1966 11.0326 35.0001 11.0326C34.8036 11.0326 34.6071 10.9581 34.458 10.809L31.2598 7.61076C31.6096 7.32238 31.9595 7.08248 32.3094 6.91258L34.4151 9.01834V6.27803C34.6153 6.24395 34.8099 6.22866 35.0001 6.22899Z" fill="white"/>
</mask>
<g mask="url(#mask2_12_76051)">
<path fill-rule="evenodd" clip-rule="evenodd" d="M35.0001 6.22899C35.1902 6.22866 35.3849 6.24395 35.585 6.27803V9.01834L37.6908 6.91258C38.0406 7.08248 38.3905 7.32238 38.7404 7.61076L35.5421 10.809C35.3931 10.9581 35.1966 11.0326 35.0001 11.0326C34.8036 11.0326 34.6071 10.9581 34.458 10.809L31.2598 7.61076C31.6096 7.32238 31.9595 7.08248 32.3094 6.91258L34.4151 9.01834V6.27803C34.6153 6.24395 34.8099 6.22866 35.0001 6.22899Z" fill="url(#paint1_linear_12_76051)"/>
</g>
<mask id="mask3_12_76051" style="mask-type:luminance" maskUnits="userSpaceOnUse" x="35" y="8" width="6" height="8">
<path d="M40.7709 11.9999C40.7712 12.1901 40.7559 12.3847 40.7219 12.5849H37.9815L40.0873 14.6906C39.9174 15.0405 39.6775 15.3904 39.3891 15.7402L36.1909 12.542C36.0418 12.3929 35.9673 12.1964 35.9673 11.9999C35.9673 11.8034 36.0418 11.6069 36.1909 11.4579L39.3891 8.25964C39.6775 8.6095 39.9174 8.95938 40.0873 9.30925L37.9815 11.415H40.7219C40.7559 11.6151 40.7712 11.8098 40.7709 11.9999Z" fill="white"/>
</mask>
<g mask="url(#mask3_12_76051)">
<path fill-rule="evenodd" clip-rule="evenodd" d="M40.7709 11.9999C40.7712 12.1901 40.7559 12.3847 40.7219 12.5849H37.9815L40.0873 14.6906C39.9174 15.0405 39.6775 15.3904 39.3891 15.7402L36.1909 12.542C36.0418 12.3929 35.9673 12.1964 35.9673 11.9999C35.9673 11.8034 36.0418 11.6069 36.1909 11.4579L39.3891 8.25964C39.6775 8.6095 39.9174 8.95938 40.0873 9.30925L37.9815 11.415H40.7219C40.7559 11.6151 40.7712 11.8098 40.7709 11.9999Z" fill="url(#paint2_linear_12_76051)"/>
</g>
<mask id="mask4_12_76051" style="mask-type:luminance" maskUnits="userSpaceOnUse" x="31" y="12" width="8" height="6">
<path d="M35.0001 17.771C34.8099 17.7713 34.6153 17.756 34.4151 17.722V14.9816L32.3094 17.0874C31.9595 16.9175 31.6096 16.6776 31.2598 16.3892L34.458 13.191C34.6071 13.0419 34.8036 12.9674 35.0001 12.9674C35.1966 12.9674 35.3931 13.0419 35.5421 13.191L38.7404 16.3892C38.3905 16.6776 38.0406 16.9175 37.6908 17.0874L35.585 14.9816V17.722C35.3849 17.756 35.1902 17.7713 35.0001 17.771Z" fill="white"/>
</mask>
<g mask="url(#mask4_12_76051)">
<path fill-rule="evenodd" clip-rule="evenodd" d="M35.0001 17.771C34.8099 17.7713 34.6153 17.756 34.4151 17.722V14.9816L32.3094 17.0874C31.9595 16.9175 31.6096 16.6776 31.2598 16.3892L34.458 13.191C34.6071 13.0419 34.8036 12.9674 35.0001 12.9674C35.1966 12.9674 35.3931 13.0419 35.5421 13.191L38.7404 16.3892C38.3905 16.6776 38.0406 16.9175 37.6908 17.0874L35.585 14.9816V17.722C35.3849 17.756 35.1902 17.7713 35.0001 17.771Z" fill="url(#paint3_linear_12_76051)"/>
</g>
<defs>
<linearGradient id="paint0_linear_12_76051" x1="29.229" y1="12" x2="34.0326" y2="12" gradientUnits="userSpaceOnUse">
<stop stop-color="#003A73"/>
<stop offset="0.35" stop-color="#003A73"/>
<stop offset="0.73" stop-color="#0062AF"/>
<stop offset="1" stop-color="#0062AF"/>
</linearGradient>
<linearGradient id="paint1_linear_12_76051" x1="31.2598" y1="8.6307" x2="38.7402" y2="8.6307" gradientUnits="userSpaceOnUse">
<stop stop-color="#AB004C"/>
<stop offset="0.35" stop-color="#AB004C"/>
<stop offset="0.61" stop-color="#760030"/>
<stop offset="1" stop-color="#1A1A18"/>
</linearGradient>
<linearGradient id="paint2_linear_12_76051" x1="35.9672" y1="12" x2="40.7708" y2="12" gradientUnits="userSpaceOnUse">
<stop stop-color="#0062AF"/>
<stop offset="0.27" stop-color="#0062AF"/>
<stop offset="0.65" stop-color="#003A73"/>
<stop offset="1" stop-color="#003A73"/>
</linearGradient>
<linearGradient id="paint3_linear_12_76051" x1="35" y1="17.771" x2="35" y2="12.9674" gradientUnits="userSpaceOnUse">
<stop stop-color="#003A73"/>
<stop offset="0.35" stop-color="#003A73"/>
<stop offset="0.73" stop-color="#0062AF"/>
<stop offset="1" stop-color="#0062AF"/>
</linearGradient>
</defs>
</svg>
