<svg width="64" height="64" viewBox="0 0 64 64" fill="none" xmlns="http://www.w3.org/2000/svg">
<path fill-rule="evenodd" clip-rule="evenodd" d="M31.9944 0.00152588C49.6704 0.00152588 64 14.328 64 32.0008C64 49.6733 49.6704 64 31.9944 64C14.6035 64 0.452307 50.1321 0 32.8539L0 31.1476C0.452307 13.8693 14.6035 0.00152588 31.9944 0.00152588Z" fill="#00A66C"/>
<mask id="mask0_12_76183" style="mask-type:luminance" maskUnits="userSpaceOnUse" x="0" y="0" width="64" height="64">
<path fill-rule="evenodd" clip-rule="evenodd" d="M31.9944 0.00152588C49.6704 0.00152588 64 14.328 64 32.0008C64 49.6733 49.6704 64 31.9944 64C14.6035 64 0.452307 50.1321 0 32.8539L0 31.1476C0.452307 13.8693 14.6035 0.00152588 31.9944 0.00152588Z" fill="white"/>
</mask>
<g mask="url(#mask0_12_76183)">
<path d="M36.6182 43.2275C35.5411 44.3407 34.5817 45.2672 33.2676 46.2949C33.379 46.854 33.4671 47.1696 33.584 47.6045C33.0864 47.696 32.406 47.7415 31.6846 47.7188C30.2986 48.543 28.4161 49.1583 26.9961 49.5C27.8416 48.9548 28.5879 48.3852 29.457 47.582C28.588 47.4062 27.7743 47.1369 26.9365 46.7021C28.3 46.696 29.4146 46.55 30.8154 46.165C31.6333 45.2412 32.2577 44.4476 32.9961 43.4473C33.0263 44.1466 33.0683 44.6713 33.1309 45.2969C34.457 44.6585 35.4627 44.0439 36.6182 43.2275ZM16.6455 36.0479C17.1174 38.2309 17.5272 39.7931 18.4551 41.4287C19.5881 41.2035 20.5432 41.0584 21.8633 40.8682C21.1445 41.9264 20.706 42.7718 20.3252 43.834C21.6015 45.042 22.7663 45.7488 24.3877 46.3545C22.6884 46.299 21.4112 46.0757 19.9121 45.6309C19.8074 46.6995 19.8755 47.5151 20.1602 48.5283C18.9596 47.3408 18.2147 46.2808 17.502 44.7256C16.1595 44.1039 15.1922 43.528 14 42.7832C14.8526 42.3988 15.59 42.14 16.627 41.8555C16.3005 40.0102 16.3898 38.3574 16.6455 36.0479ZM28.5918 23.2979C28.081 23.9546 27.4955 25.1831 27.3457 25.7588C31.4345 26.3262 34.7393 28.423 34.8398 28.4873C31.1878 27.8386 29.2822 27.9175 27.9277 28.04C26.5958 28.1726 26.3099 28.3307 26.3008 28.3359C25.3219 30.4941 24.7344 34.2351 24.7344 34.2373C24.0721 32.6255 23.1152 29.3936 23.1152 29.3936C21.2793 30.3897 17.0615 34.3994 17.0615 34.3994H17.0596C19.3784 29.7054 21.7295 27.5508 21.7295 27.5508H21.7314C20.922 26.7322 18.7992 26.3241 17.252 26.252C18.0574 25.9164 20.1272 25.525 21.7129 25.4551C23.3008 25.4052 24.2627 25.5039 24.2627 25.5039H24.2666C25.6865 24.3698 27.8361 23.4128 28.5918 23.2979ZM35.2852 14.5C39.2357 14.8095 44.0696 16.2935 46.4082 17.75C47.3481 17.4605 48.293 17.4398 50 17.2861C49.566 18.0466 49.5575 18.4868 47.873 19.6094C48.3384 20.872 47.2294 27.8005 46.3115 29.6475C46.2709 26.7407 46.0139 23.0736 44.9551 21.4883C42.1364 23.1572 41.2723 23.2901 38.2314 25.1377C39.9998 23.1904 40.6161 22.3673 41.7227 20.7324C38.9041 20.8816 34.8157 21.2268 31.8857 21.8779C34.4372 20.5129 39.4813 18.9749 42.1396 18.6172C41.5207 17.7569 36.5285 15.0203 35.2852 14.5ZM34.8467 28.4893H34.8418C34.8416 28.4891 34.8411 28.4881 34.8398 28.4873C34.8421 28.4877 34.8444 28.4889 34.8467 28.4893Z" fill="#FEFEFE"/>
</g>
</svg>
