<svg width="130" height="55" viewBox="0 0 130 55" fill="none" xmlns="http://www.w3.org/2000/svg">
<path d="M63.4609 17.7958C63.4609 17.7958 60.5732 18.2346 60.5732 20.8007C60.5702 20.8294 60.37 22.8465 63.8369 24.5887L68.1611 26.9423C68.1611 26.9423 71.2769 28.3388 72.2305 30.8251C73.1838 33.3111 72.5659 36.6346 69.3965 38.2167C68.1074 38.8679 66.9525 38.9339 66.5361 38.9872C66.5361 38.9872 67.584 39.5065 67.584 40.7694C67.5838 42.0323 66.1597 43.9868 65.542 43.9999H65.1797C65.1797 43.9999 65.1255 43.9333 65.3135 43.7206C65.5017 43.5078 66.3747 42.4712 66.1602 41.8729C66.152 41.8765 65.6473 42.0965 65.1475 42.0966C64.6433 42.0966 63.6699 41.6659 63.6699 40.5302C63.6701 39.3949 64.5387 38.9306 64.8516 38.9305C64.845 38.9298 64.3547 38.8748 62.8184 38.328C61.2714 37.7773 60.0712 37.2444 59.2891 38.5692H58.8721V32.9247H59.376C59.376 32.9247 60.5233 38.2938 66.1377 38.2938C70.0306 38.2768 70.5008 35.0945 70.501 34.5087C70.501 33.9235 70.5006 32.1335 67.5977 30.4989C64.7011 28.8678 61.9258 27.3744 61.9141 27.368C61.9141 27.368 58.6641 25.8707 58.6641 22.326C58.6642 18.7818 61.9482 17.1444 63.4609 17.1444V17.7958ZM67.0059 30.6913V34.3348C67.0052 34.3542 66.9771 35.4381 68.2412 35.4384V35.9296H62.5742V35.3983C62.587 35.3986 63.823 35.4187 63.8232 34.2684V28.91L67.0059 30.6913ZM123.008 23.1825C125.054 23.1825 126.406 24.4766 126.421 24.4911L125.016 25.6835C124.999 25.468 123.911 24.8055 123.008 24.8055C122.105 24.8056 121.553 25.0044 121.553 25.5507C121.553 26.0906 122.222 26.2595 122.238 26.2635L123.777 26.578C125.283 26.9422 126.672 27.3895 126.639 29.0956C126.605 30.8014 125.19 31.6962 122.857 31.6962C120.525 31.6961 119.193 30.2382 119.193 30.2382L120.599 29.1122C121.502 30.0233 122.396 30.0399 122.791 30.0721C123.186 30.1043 124.503 30.0401 124.664 29.41C124.825 28.7799 124.447 28.4162 122.557 28.0516C120.666 27.6874 119.528 27.0912 119.528 25.6503C119.528 24.2096 120.95 23.1826 123.008 23.1825ZM10.5391 28.1854C10.5391 28.1854 10.5932 30.08 12.4531 30.08C14.313 30.0799 14.4336 28.1786 14.4336 28.1786V23.3192H16.3545V27.9725C16.3545 27.9725 16.5021 31.6591 12.5469 31.6591C8.59182 31.659 8.59863 28.3982 8.59863 27.9794V23.3134H10.5391V28.1854ZM94.9453 23.3055L98.96 28.5575V23.3231H100.903V31.5594H99.1709L95.0518 26.2645V31.5692H93.168V23.3026L94.9453 23.3055ZM92.3887 31.5507H90.25L89.4707 29.7264H86.0205L85.2539 31.5253H83.2139L86.8613 23.3241H88.7656L92.3887 31.5507ZM43.8418 26.7743L46.2314 23.328H48.4424L44.7666 28.2655V31.5487H42.874V28.2655L39.2402 23.3143H41.5195L43.8418 26.7743ZM55.7383 24.9686H50.999V26.3915H53.707V27.9647H50.999V29.9208H55.9316V31.5477H49.0645L49.0781 23.2997H55.7383V24.9686ZM29.0977 26.8427L32.458 23.3104H34.7715L32.002 26.1493L35.4854 31.5458H33.208L30.6113 27.5868L29.0977 29.0848V31.5458H27.1914V23.3104H29.0977V26.8427ZM7.4834 25.0214H4.71094V31.5428H2.70312V25.0282H0V23.3094H7.4834V25.0214ZM130 31.5428H128.092V23.3251L130 23.3231V31.5428ZM38.4766 31.5419H36.5205V23.3339H38.4766V31.5419ZM79.6631 23.3309C81.2977 23.331 82.5996 24.0407 82.5996 25.3993C82.5994 26.7576 81.5 27.1073 81.5303 27.1073C81.5711 27.1096 82.9531 27.4028 82.9531 28.8954C82.9528 31.5225 79.867 31.5418 79.8447 31.5419H75.2031V23.3212C75.2245 23.3212 78.0345 23.3309 79.6631 23.3309ZM104.583 26.9149L107.989 23.3192H110.342L107.468 26.1854L110.485 30.7626L113.811 23.3094H115.661L119.283 31.5419H117.155L116.419 29.7294H112.931L112.174 31.5419H108.685L106.097 27.6132L104.583 29.1425V31.5419H102.649V23.3094H104.583V26.9149ZM22.8145 23.3134C24.0836 23.3134 25.7148 24.0512 25.7148 25.9921C25.7146 27.9216 23.9299 28.3639 23.9092 28.369L25.752 31.5399H23.5664L21.8408 28.5936H19.8965V31.538H18.0225V23.3124C18.0526 23.3124 21.5508 23.3134 22.8145 23.3134ZM77.0801 29.9735H79.8955C79.9131 29.9728 80.9501 29.9249 80.9502 28.9296C80.9498 27.9324 79.8682 27.8476 79.8545 27.8466H77.0801V29.9735ZM113.573 28.2001H115.824L114.698 25.3973L113.573 28.2001ZM86.6387 28.1346H88.8896L87.7646 25.3319L86.6387 28.1346ZM19.9004 27.0819H22.667C22.6932 27.0808 23.7613 27.0291 23.7617 25.9725C23.7617 24.9156 22.6474 24.8957 22.6201 24.8954H19.9004V27.0819ZM77.0703 26.3983H79.9053C79.9164 26.3983 80.6823 26.392 80.6826 25.619C80.6826 25.619 80.7585 24.8693 79.8525 24.869H77.0693L77.0703 26.3983ZM68.2422 15.1532C66.9664 15.1532 67.0225 16.2762 67.0225 16.2762V25.7889L63.834 24.0077V16.3182C63.834 15.2214 62.6125 15.1545 62.5869 15.1532V14.6903H68.2422V15.1532ZM37.5059 20.7245C38.0947 20.7247 38.5723 21.1973 38.5723 21.7802C38.5723 22.3628 38.0947 22.8356 37.5059 22.8358C36.9171 22.8358 36.4395 22.3629 36.4395 21.7802C36.4395 21.1972 36.9171 20.7245 37.5059 20.7245ZM11.0283 20.7059C11.6173 20.706 12.0947 21.1787 12.0947 21.7616C12.0947 22.3443 11.6173 22.8172 11.0283 22.8173C10.4396 22.8173 9.96199 22.3443 9.96191 21.7616C9.96191 21.1786 10.4396 20.7059 11.0283 20.7059ZM13.9766 20.7059C14.5656 20.7059 15.043 21.1786 15.043 21.7616C15.0429 22.3443 14.5656 22.8173 13.9766 22.8173C13.3881 22.817 12.9112 22.3442 12.9111 21.7616C12.9111 21.1788 13.388 20.7062 13.9766 20.7059ZM67.3936 17.4335C67.4089 17.4421 68.7054 18.1688 69.4707 18.1688C70.2327 18.1688 70.5216 17.4575 70.5273 17.4432H70.9639V22.7587H70.4717C70.2873 19.3848 67.432 18.1935 67.3936 18.1776V17.4335ZM65.4102 9.99988C66.3844 9.99988 67.1738 10.7816 67.1738 11.746C67.1738 12.7102 66.3844 13.4921 65.4102 13.4921C64.436 13.492 63.6465 12.7102 63.6465 11.746C63.6465 10.7816 64.436 9.99996 65.4102 9.99988Z" fill="#E3E3E3"/>
</svg>
