<svg width="130" height="55" viewBox="0 0 130 55" fill="none" xmlns="http://www.w3.org/2000/svg">
<path fill-rule="evenodd" clip-rule="evenodd" d="M74.5084 29.0947H76.9124L74.5084 25.0068L74.4921 24.9743L72.1206 29.0947H74.5084ZM74.5084 21.0811H78.0396L85.6999 35H80.3445L79.0013 32.6477H74.5084H70.0983L68.7721 34.9515H63.1682L71.0104 21.0811H74.5084ZM86.5446 21.0811V34.9515H91.6677V25.6068L98.913 34.9674H106.854V21.0811H101.799V30.7985L94.4031 21.0485L86.5446 21.0811ZM53.2533 26.1099H56.6522C57.0835 26.1099 57.4319 25.7697 57.4319 25.3636C57.4319 24.9583 57.0835 24.6174 56.6522 24.6174L53.2533 24.6334L49.0756 24.65V26.1099H53.2533ZM53.2533 31.1227H56.8512C57.2824 31.1227 57.6471 30.7818 57.6471 30.3765C57.6471 29.9712 57.2824 29.6462 56.8512 29.6462H53.2533L49.0756 29.6629V31.1227H53.2533ZM53.2533 21.0485H59.0229C59.8854 21.0485 61.5105 21.8114 62.0571 23.4493C62.5047 24.8281 62.1903 27.1 60.9794 27.9273C61.8582 28.2834 62.4551 29.6303 62.5379 31.0257V31.5773C62.5217 31.8205 62.4884 32.0636 62.4388 32.2909C62.1237 33.8318 60.8803 35 59.8854 35H53.2533H44.5161C44.4998 30.3606 44.4998 25.7045 44.4828 21.0485H53.2533ZM23.2781 21.0485V34.9674H28.3509V29.9871H30.0426L36.2101 34.9674H43.4879L34.8173 28.0887L42.9413 21H35.7951L30.0921 25.9318H28.1526V21.0811L23.2781 21.0485ZM11.3409 29.0947H13.7279L11.3409 25.0068L11.3239 24.9743L8.95322 29.0947H11.3409ZM11.3409 21.0811H14.8722L22.5317 35H17.1601L15.8338 32.6477H11.3409H6.93091L5.6039 34.9515H0L7.84295 21.0811H11.3409ZM109.806 21.0485V34.9674H114.863V29.9871H116.554L122.721 34.9674H130L121.345 28.0887L129.453 21H122.306L116.603 25.9318H114.68V21.0811L109.806 21.0485Z" fill="#EC1D24"/>
</svg>
