<svg width="180" height="90" viewBox="0 0 180 90" fill="none" xmlns="http://www.w3.org/2000/svg">
<path fill-rule="evenodd" clip-rule="evenodd" d="M117.72 26.2758L117.769 25.9886L117.545 25.8013C116.483 24.9272 115.634 23.8033 114.985 22.6045C113.561 19.9571 112.974 16.7603 113.099 13.7757C113.236 10.3791 114.285 7.05739 116.246 4.27265C116.833 3.43598 117.507 2.64926 118.244 1.92498L119.68 0.526367L117.757 1.1008C115.459 1.78762 113.261 2.8116 111.301 4.19773C108.466 6.19574 106.256 8.88058 104.87 12.0649C103.446 15.3367 103.009 18.9706 103.409 22.5171C103.933 27.2249 105.856 31.6705 108.479 35.5791L108.716 35.9163L109.091 35.7539C109.44 35.5916 109.79 35.4292 110.14 35.2419C112.612 33.9432 114.922 31.9951 116.396 29.5975C117.02 28.586 117.507 27.4497 117.72 26.2758Z" fill="url(#paint0_linear_12_83490)"/>
<path fill-rule="evenodd" clip-rule="evenodd" d="M107.255 35.7788C104.67 31.8202 102.796 27.3497 102.272 22.6293C101.86 18.8956 102.322 15.0619 103.82 11.6028C105.281 8.23113 107.629 5.38396 110.626 3.26106C111.788 2.43688 113.036 1.73757 114.335 1.15066L114.735 0.97583L114.485 0.13916L114.06 0.214086C112.062 0.551251 110.102 1.12568 108.229 1.92489C101.897 4.62221 96.9397 9.66721 94.3673 16.0609C92.2943 21.2058 91.9197 26.8377 93.3183 32.2073C94.3548 36.1909 97.2769 36.8153 100.936 37.14C102.971 37.3273 105.007 37.1025 106.955 36.5156L107.592 36.3283L107.255 35.7788Z" fill="url(#paint1_linear_12_83490)"/>
<path fill-rule="evenodd" clip-rule="evenodd" d="M140.01 37.602C140.609 35.2418 140.859 32.7943 140.659 30.3717C140.372 26.9126 139.198 23.6409 137.15 20.8436C135.039 17.934 132.167 15.7487 128.896 14.2752C124.5 12.2896 119.58 11.7027 114.81 12.0149L114.397 12.0399L114.347 12.452C114.298 12.914 114.26 13.376 114.235 13.8381C114.123 16.6228 114.66 19.6074 115.996 22.0674C116.558 23.1164 117.295 24.1029 118.219 24.8771L118.443 25.0644L118.718 24.9645C120.004 24.4775 121.403 24.3152 122.764 24.3527C125.761 24.4401 128.833 25.5265 131.343 27.1249C134.215 28.9481 136.575 31.5081 138.011 34.605C138.461 35.5665 138.811 36.578 139.06 37.602L139.535 39.5126L140.01 37.602Z" fill="url(#paint2_linear_12_83490)"/>
<path fill-rule="evenodd" clip-rule="evenodd" d="M142.707 34.4302C144.917 28.2863 144.705 21.5804 142.157 15.5864C139.46 9.25514 134.415 4.29756 128.021 1.72511C122.602 -0.460219 120.579 0.064261 117.17 4.92194C116.046 6.53284 115.234 8.33106 114.747 10.2292L114.585 10.8785L115.259 10.8411C120.054 10.5913 124.962 11.2407 129.358 13.2262C132.804 14.7747 135.826 17.0974 138.061 20.1693C140.222 23.1414 141.483 26.6129 141.783 30.2718C141.895 31.583 141.883 32.9067 141.745 34.2179L141.708 34.6549L142.557 34.8423L142.707 34.4302Z" fill="url(#paint3_linear_12_83490)"/>
<path fill-rule="evenodd" clip-rule="evenodd" d="M131.693 28.7357C131.381 28.511 131.056 28.2862 130.731 28.0864C128.371 26.5879 125.524 25.5639 122.714 25.489C121.528 25.4515 120.304 25.6013 119.18 26.0009L118.905 26.1008L118.855 26.3881C118.631 27.7367 118.081 29.0354 117.369 30.1968C115.796 32.7567 113.311 34.8672 110.664 36.2533C107.654 37.8267 104.245 38.5885 100.861 38.2888C99.8368 38.2013 98.8253 38.014 97.8263 37.7268L95.8907 37.1774L97.3518 38.5635C99.1001 40.2119 101.073 41.6105 103.258 42.6095C106.405 44.058 109.839 44.645 113.286 44.2453C116.857 43.8333 120.179 42.4097 123.064 40.2868C126.885 37.4771 129.77 33.5934 131.843 29.3601L132.03 28.9855L131.693 28.7357Z" fill="url(#paint4_linear_12_83490)"/>
<path fill-rule="evenodd" clip-rule="evenodd" d="M136.963 35.0796C136.101 33.2315 134.89 31.5706 133.416 30.172L132.929 29.71L132.63 30.2969C130.507 34.5177 127.56 38.3639 123.738 41.1736C120.692 43.4089 117.182 44.9074 113.424 45.3445C109.765 45.769 106.143 45.1571 102.797 43.6212C101.498 43.0218 100.262 42.2975 99.1004 41.4608L98.7508 41.2111L98.1514 41.8479L98.4261 42.1851C101.173 45.5193 104.695 48.0917 108.703 49.7026C115.085 52.2751 122.165 52.2001 128.496 49.5028C131.244 48.329 133.779 46.6931 135.964 44.6576C139.41 41.4733 138.786 39.0007 136.963 35.0796Z" fill="url(#paint5_linear_12_83490)"/>
<ellipse cx="104.098" cy="22.1687" rx="9.71534" ry="7.89215" transform="rotate(-65.6442 104.098 22.1687)" fill="white"/>
<path d="M85.0011 31.9201C81.6544 45.8063 67.6933 54.3478 53.8071 51.0011C39.9208 47.6544 31.3793 33.6933 34.726 19.8071C38.0727 5.92084 52.0338 -2.62068 65.9201 0.725998C79.7938 4.07268 88.3353 18.0338 85.0011 31.9201Z" fill="url(#paint6_radial_12_83490)"/>
<path d="M41.4443 8.05615C41.4443 8.05615 44.0542 14.1751 45.9524 15.1991L49.0618 14.5372C49.0618 14.5372 46.1896 10.7285 45.9773 9.60462C45.9773 9.59213 42.9928 8.206 41.4443 8.05615Z" fill="url(#paint7_linear_12_83490)"/>
<path d="M65.1583 3.86035C65.1583 3.86035 67.481 11.0282 67.1438 13.3884L71.0899 15.1991C71.0899 15.1991 68.4675 6.24549 66.7317 4.0102L65.1583 3.86035Z" fill="url(#paint8_linear_12_83490)"/>
<path d="M70.1409 12.0897C70.1409 12.0897 77.1589 7.71906 77.9207 7.84393L76.7343 12.7391L73.9621 14.5123L71.0774 15.1742L70.1409 12.0897Z" fill="url(#paint9_linear_12_83490)"/>
<path d="M80.7674 18.0217C80.7674 18.0217 83.4897 17.4223 84.5262 18.0717C84.5262 18.0717 84.8759 19.1456 85.0007 19.7325C85.0007 19.7325 74.8983 27.3375 71.3018 28.349L80.7674 18.0217Z" fill="url(#paint10_linear_12_83490)"/>
<path d="M77.9331 7.85645C77.9331 7.85645 74.4616 15.8985 67.7557 21.0559L71.2897 28.3361C71.2897 28.3361 77.5835 24.2152 80.9926 17.5843C82.6285 14.1127 81.6295 11.6402 77.9331 7.85645Z" fill="url(#paint11_linear_12_83490)"/>
<path d="M41.4443 8.05655C41.4443 8.05655 46.1397 3.12394 48.862 2.64941C48.862 2.64941 56.929 5.27181 62.5734 14.5626L55.1682 18.3588C55.1682 18.3588 51.4844 11.8528 44.6537 9.08053C43.6546 8.66844 42.5932 8.26884 41.4443 8.05655Z" fill="url(#paint12_linear_12_83490)"/>
<path d="M52.2091 4.24768L51.4473 2.19971L54.9688 2.44946C54.9688 2.44946 59.352 8.24371 62.5988 14.5749C62.5863 14.5624 57.4664 7.20724 52.2091 4.24768Z" fill="url(#paint13_linear_12_83490)"/>
<path d="M51.4344 2.18699L54.4314 1.27539C54.4314 1.27539 65.458 1.72494 66.7317 3.99769L65.1583 3.86033C65.1583 3.86033 54.5313 2.33684 51.4344 2.18699Z" fill="url(#paint14_linear_12_83490)"/>
<path d="M57.0411 37.5896C57.0411 37.5896 61.4492 48.1666 67.0561 50.0897C67.0561 50.0897 70.3154 49.0532 72.6506 47.6046C75.8474 45.6191 77.3834 43.8583 77.3834 43.8583C77.3834 43.8583 67.8054 39.5127 64.7085 33.6685L57.0411 37.5896Z" fill="url(#paint15_linear_12_83490)"/>
<path d="M72.0512 40.8364C72.0512 40.8364 69.7659 37.9518 71.0272 36.6406L73.4872 36.2285C73.4872 36.2285 75.0981 38.8634 76.0472 40.4119C76.9963 41.9603 77.5707 43.2466 77.3834 43.8335C77.3834 43.8335 76.3469 43.3465 75.1231 42.6721C74.0242 42.0977 72.7755 41.3484 72.0512 40.8364Z" fill="url(#paint16_linear_12_83490)"/>
<path d="M44.8534 38.3514C44.8534 38.3514 47.3635 36.8903 49.299 37.0776L49.7111 39.8998C49.7111 39.8998 44.791 43.8459 42.4933 43.5837C42.5058 43.5837 42.818 39.8249 44.8534 38.3514Z" fill="url(#paint17_linear_12_83490)"/>
<path d="M49.299 37.0776C49.299 37.0776 49.4613 44.4204 53.3575 47.2925L54.6312 47.5922C54.6312 47.5922 51.7466 40.4992 52.8954 38.5012L49.299 37.0776Z" fill="url(#paint18_linear_12_83490)"/>
<path d="M81.6544 31.3955C81.6544 31.3955 77.2588 33.2312 71.8267 33.1687C71.8267 33.1687 70.3032 37.1273 70.6653 37.989C70.6653 37.989 75.2358 35.916 75.4606 35.916C75.6854 35.916 80.056 33.7432 81.7294 32.4445" fill="url(#paint19_linear_12_83490)"/>
<path d="M37.4857 19.6821C35.0007 25.876 36.1745 31.4579 36.1745 31.4579L37.3484 31.7452L37.3733 30.3715C35.8748 26.2256 38.1101 20.6187 38.1101 20.6187L37.6481 19.7196L37.4857 19.6821Z" fill="url(#paint20_linear_12_83490)"/>
<path d="M48.625 23.4414C48.625 23.4414 46.2149 23.9034 40.1085 28.1992C38.2853 29.4854 36.1749 31.4585 36.1749 31.4585L37.6984 33.956C37.6984 33.956 38.585 34.7552 42.8183 32.1952C47.0766 29.6353 48.625 23.4414 48.625 23.4414Z" fill="url(#paint21_linear_12_83490)"/>
<path d="M37.6485 37.4525C37.6485 37.4525 43.9173 24.1157 48.6126 23.4414L51.8969 30.8091C51.8969 30.8091 43.1056 38.1643 42.4937 43.5964C42.5062 43.5839 38.4977 39.5754 37.6485 37.4525Z" fill="url(#paint22_linear_12_83490)"/>
<path d="M49.0614 14.5371L47.6378 18.7954C44.1788 18.5207 38.1098 20.6186 38.1098 20.6186L37.4854 19.6695C37.4854 19.6695 43.492 15.7234 45.952 15.199C48.4121 14.6745 49.0614 14.5371 49.0614 14.5371Z" fill="url(#paint23_linear_12_83490)"/>
<path d="M41.444 8.05664C41.444 8.05664 36.3616 12.1651 38.984 18.7211L38.0724 19.283C38.0724 19.283 36.0993 15.8739 37.5479 13.1641C39.0214 10.4792 41.444 8.05664 41.444 8.05664Z" fill="url(#paint24_linear_12_83490)"/>
<path d="M82.8153 21.3057C82.8153 21.3057 83.8393 27.6869 81.629 31.4207C81.629 31.4207 82.2658 37.0901 81.6539 39.7874C81.6539 39.7874 82.8652 38.0141 83.652 35.9911C83.652 35.9911 83.14 33.1689 82.2783 31.9077C82.2783 31.9077 83.5021 29.8597 84.0141 26.9126C84.4137 24.565 84.3638 21.543 84.089 20.3691L82.8153 21.3057Z" fill="url(#paint25_linear_12_83490)"/>
<path d="M67.2187 4.77229C67.2187 4.77229 71.5519 3.26129 74.2867 4.39766C74.2867 4.39766 72.9255 3.38616 71.5394 2.6494C71.5394 2.6494 70.3531 2.54949 66.7317 4.01054L67.2187 4.77229Z" fill="url(#paint26_linear_12_83490)"/>
<path d="M71.5267 2.64921C71.5267 2.64921 64.7834 -0.9722 56.2044 0.264073C56.092 0.264073 64.0466 0.201635 70.3903 2.79906L71.5267 2.64921Z" fill="url(#paint27_linear_12_83490)"/>
<path fill-rule="evenodd" clip-rule="evenodd" d="M107.105 24.5974C107.222 24.5548 107.318 24.5483 107.386 24.6012C107.612 24.7602 107.466 25.3596 107.071 25.9431C106.676 26.5262 106.174 26.8718 105.948 26.7134C105.723 26.5544 105.867 25.9552 106.262 25.3718C106.534 24.968 106.856 24.6811 107.105 24.5974ZM104.405 24.7008C104.732 24.5819 104.99 24.58 105.117 24.7182C105.4 25.0338 104.915 25.9479 104.032 26.7654C103.147 27.5767 102.2 27.9849 101.917 27.6694C101.635 27.3535 102.12 26.4404 103.002 25.623C103.487 25.1701 103.996 24.8427 104.405 24.7008ZM107.956 22.7132C108.088 22.7293 108.156 23.0877 108.1 23.5118C108.045 23.9359 107.893 24.2679 107.76 24.2459C107.628 24.2299 107.56 23.8714 107.616 23.4472C107.666 23.0677 107.791 22.7597 107.916 22.7204C107.929 22.7159 107.942 22.7114 107.956 22.7132ZM106.201 22.6712C106.368 22.6106 106.525 22.6173 106.636 22.7116C106.841 22.8921 106.784 23.3102 106.501 23.647C106.219 23.9838 105.828 24.1194 105.616 23.9412C105.411 23.7607 105.468 23.3425 105.751 23.0057C105.887 22.8428 106.047 22.7274 106.201 22.6712ZM107.122 21.7054C107.153 21.6943 107.179 21.6912 107.208 21.6947C107.351 21.7209 107.429 21.9189 107.391 22.1386C107.358 22.3561 107.216 22.5212 107.08 22.4927C106.938 22.4664 106.859 22.2685 106.898 22.0488C106.934 21.8798 107.023 21.7413 107.122 21.7054ZM103.232 21.4968C103.904 21.2523 104.59 21.4493 104.768 21.9374C104.948 22.4321 104.55 23.0249 103.881 23.261C103.209 23.5057 102.522 23.3079 102.345 22.8195C102.167 22.3313 102.566 21.7393 103.232 21.4968ZM105.581 21.1948C105.827 21.1051 106.089 21.2088 106.169 21.4277C106.248 21.6469 106.109 21.8964 105.868 21.984C105.628 22.0715 105.367 21.9679 105.287 21.7487C105.21 21.5359 105.34 21.2823 105.581 21.1948ZM106.264 19.9611C106.368 19.9232 106.524 19.9664 106.656 20.0811C106.821 20.2267 106.887 20.4295 106.801 20.5386C106.713 20.6413 106.506 20.6103 106.335 20.467C106.171 20.3215 106.104 20.1191 106.19 20.0098C106.21 19.9883 106.23 19.9661 106.264 19.9611ZM104.451 19.5296C104.605 19.4736 104.802 19.4579 105.011 19.4952C105.444 19.5716 105.763 19.8528 105.715 20.1253C105.668 20.3978 105.282 20.5451 104.849 20.4687C104.416 20.3923 104.098 20.112 104.145 19.8395C104.163 19.6981 104.284 19.5902 104.451 19.5296ZM105.606 18.2145C105.729 18.1696 106.022 18.3188 106.305 18.5775C106.619 18.867 106.796 19.1789 106.707 19.282C106.617 19.3788 106.289 19.2283 105.975 18.9387C105.66 18.6491 105.483 18.3373 105.572 18.2342C105.582 18.2236 105.594 18.2189 105.606 18.2145ZM99.4293 18.8954C99.8363 18.7474 100.431 18.6731 101.097 18.7C102.298 18.759 103.257 19.1477 103.244 19.571C103.224 19.9965 102.244 20.2962 101.042 20.2372C99.8407 20.1783 98.8824 19.7904 98.8954 19.3672C98.904 19.1797 99.1024 19.0144 99.4293 18.8954ZM102.804 17.3271C103.051 17.2375 103.482 17.2504 103.948 17.3787C104.625 17.5716 105.121 17.9379 105.051 18.2046C104.98 18.471 104.373 18.5289 103.695 18.3362C103.018 18.1432 102.521 17.7774 102.592 17.5106C102.612 17.4324 102.687 17.3697 102.804 17.3271Z" fill="url(#paint28_linear_12_83490)"/>
<path d="M33.3613 62L36.9472 66.3047L40.5331 62H42.416V72.9141H40.3066V65.25H40.2441L37.0878 69.0938H36.791L33.6347 65.25H33.5722V72.9141H31.4628V62H33.3613Z" fill="#0066B1"/>
<path fill-rule="evenodd" clip-rule="evenodd" d="M46.0977 62.5625C45.8841 62.349 45.6289 62.2422 45.332 62.2422C45.0456 62.2422 44.793 62.3477 44.5742 62.5586C44.3555 62.7695 44.2461 63.026 44.2461 63.3281C44.2461 63.6146 44.3542 63.8685 44.5703 64.0898C44.7865 64.3112 45.0404 64.4219 45.332 64.4219C45.6341 64.4219 45.8906 64.3112 46.1016 64.0898C46.3125 63.8685 46.418 63.6146 46.418 63.3281C46.418 63.0312 46.3112 62.776 46.0977 62.5625ZM46.293 72.9141V65.6172H44.3711V72.9141H46.293Z" fill="#0066B1"/>
<path d="M50.3575 62V71.2656H55.6544V72.9141H48.2481V62H50.3575Z" fill="#0066B1"/>
<path d="M58.9376 62V71.2656H64.2345V72.9141H56.8282V62H58.9376Z" fill="#0066B1"/>
<path fill-rule="evenodd" clip-rule="evenodd" d="M66.9553 62.5625C66.7417 62.349 66.4865 62.2422 66.1896 62.2422C65.9032 62.2422 65.6506 62.3477 65.4318 62.5586C65.2131 62.7695 65.1037 63.026 65.1037 63.3281C65.1037 63.6146 65.2118 63.8685 65.4279 64.0898C65.6441 64.3112 65.898 64.4219 66.1896 64.4219C66.4917 64.4219 66.7482 64.3112 66.9592 64.0898C67.1701 63.8685 67.2756 63.6146 67.2756 63.3281C67.2756 63.0312 67.1688 62.776 66.9553 62.5625ZM67.1506 72.9141V65.6172H65.2287V72.9141H67.1506Z" fill="#0066B1"/>
<path d="M81.2168 62V63.6484H77.3418V72.9141H75.2324V63.6484H71.3574V62H81.2168Z" fill="#0066B1"/>
<path fill-rule="evenodd" clip-rule="evenodd" d="M91.6172 72.9141L86.7969 62H84.6406L80.1406 72.9141H82.3516L83.4062 70.2578H88.2578L89.3906 72.9141H91.6172ZM87.5703 68.6562H84.0469L85.7266 64.3359L87.5703 68.6562Z" fill="#0066B1"/>
<path d="M94.7363 62V67.0391H94.7832L98.7832 62H101.182L97.1191 67.1406L102.385 72.9141H99.6816L94.7363 67.5547V72.9141H92.627V62H94.7363Z" fill="#0066B1"/>
<path d="M105.395 62V72.9141H103.285V62H105.395Z" fill="#0066B1"/>
<path d="M109.476 62L113.062 66.3047L116.647 62H118.53V72.9141H116.421V65.25H116.358L113.202 69.0938H112.905L109.749 65.25H109.687V72.9141H107.577V62H109.476Z" fill="#0066B1"/>
<path d="M122.774 62V71.2656H128.071V72.9141H120.665V62H122.774Z" fill="#0066B1"/>
<path fill-rule="evenodd" clip-rule="evenodd" d="M139.597 72.9141L134.776 62H132.62L128.12 72.9141H130.331L131.386 70.2578H136.237L137.37 72.9141H139.597ZM135.55 68.6562H132.026L133.706 64.3359L135.55 68.6562Z" fill="#0066B1"/>
<path fill-rule="evenodd" clip-rule="evenodd" d="M147.044 62.8516C146.398 62.2839 145.562 62 144.536 62H140.606V72.9141H142.716V68.3047H143.481C143.82 68.3047 144.119 68.3893 144.38 68.5586C144.64 68.7279 144.911 69.0143 145.192 69.418C145.474 69.8216 145.916 70.6042 146.521 71.7656C146.797 72.2917 147.015 72.6745 147.177 72.9141H149.528C149.205 72.4141 148.711 71.5026 148.044 70.1797C147.643 69.4141 147.307 68.8698 147.036 68.5469C146.765 68.224 146.455 67.9688 146.106 67.7812C146.737 67.5156 147.212 67.1523 147.532 66.6914C147.853 66.2305 148.013 65.6901 148.013 65.0703C148.013 64.1589 147.69 63.4193 147.044 62.8516ZM145.36 66.2422C145.045 66.5182 144.612 66.6562 144.06 66.6562H142.716V63.6172H144.028C144.606 63.6172 145.052 63.7409 145.364 63.9883C145.677 64.2357 145.833 64.6094 145.833 65.1094C145.833 65.5885 145.675 65.9661 145.36 66.2422Z" fill="#0066B1"/>
<path fill-rule="evenodd" clip-rule="evenodd" d="M38.4766 88.9141L33.6562 78H31.5L27 88.9141H29.2109L30.2656 86.2578H35.1172L36.25 88.9141H38.4766ZM34.4297 84.6562H30.9063L32.5859 80.3359L34.4297 84.6562Z" fill="#0066B1"/>
<path d="M41.338 78L47.8223 85.6172V78H49.8848V88.9141H48.0723L41.5489 81.1719V88.9141H39.4864V78H41.338Z" fill="#0066B1"/>
<path fill-rule="evenodd" clip-rule="evenodd" d="M62.3634 88.9141L57.5431 78H55.3868L50.8868 88.9141H53.0978L54.1525 86.2578H59.004L60.1368 88.9141H62.3634ZM58.3165 84.6562H54.7931L56.4728 80.3359L58.3165 84.6562Z" fill="#0066B1"/>
<path d="M70.7112 77.8594C71.7737 77.8594 72.7971 78.125 73.7815 78.6562V80.5312C72.6513 79.849 71.6487 79.5078 70.7737 79.5078C70.2424 79.5078 69.8271 79.6107 69.5276 79.8164C69.2281 80.0221 69.0784 80.2969 69.0784 80.6406C69.0784 81.0521 69.357 81.4323 69.9143 81.7812C70.0706 81.8854 70.6721 82.1771 71.719 82.6562C72.6148 83.0781 73.2607 83.5469 73.6565 84.0625C74.0523 84.5781 74.2502 85.1979 74.2502 85.9219C74.2502 86.8594 73.913 87.6159 73.2385 88.1914C72.564 88.7669 71.6903 89.0547 70.6174 89.0547C69.9195 89.0547 69.3193 88.9779 68.8167 88.8242C68.314 88.6706 67.7502 88.4062 67.1252 88.0312V85.9531C68.2919 86.9219 69.3909 87.4062 70.4221 87.4062C70.9377 87.4062 71.3544 87.2943 71.6721 87.0703C71.9898 86.8464 72.1487 86.5495 72.1487 86.1797C72.1487 85.6745 71.8726 85.263 71.3206 84.9453C70.8622 84.6953 70.2711 84.3958 69.5471 84.0469C68.6877 83.6562 68.0458 83.2005 67.6213 82.6797C67.1969 82.1589 66.9846 81.5547 66.9846 80.8672C66.9846 79.9505 67.3258 79.2201 68.0081 78.6758C68.6903 78.1315 69.5914 77.8594 70.7112 77.8594Z" fill="#0066B1"/>
<path fill-rule="evenodd" clip-rule="evenodd" d="M82.5293 78.8867C81.8913 78.2956 81.0618 78 80.041 78H75.8223V88.9141H77.9316V84.3359H79.9629C81.0202 84.3359 81.8717 84.0443 82.5176 83.4609C83.1634 82.8776 83.4863 82.1146 83.4863 81.1719C83.4863 80.2396 83.1673 79.4779 82.5293 78.8867ZM80.834 82.3008C80.5189 82.5586 80.0801 82.6875 79.5176 82.6875H77.9316V79.6484H79.3691C80.6608 79.6484 81.3066 80.151 81.3066 81.1562C81.3066 81.6615 81.1491 82.043 80.834 82.3008Z" fill="#0066B1"/>
<path fill-rule="evenodd" clip-rule="evenodd" d="M93.5391 78.5586C92.6354 78.0924 91.6185 77.8594 90.4883 77.8594C89.3112 77.8594 88.2695 78.1029 87.3633 78.5898C86.457 79.0768 85.7461 79.7604 85.2305 80.6406C84.7148 81.5208 84.457 82.4609 84.457 83.4609C84.457 84.4974 84.7148 85.444 85.2305 86.3008C85.7461 87.1576 86.4661 87.8307 87.3906 88.3203C88.3151 88.8099 89.3424 89.0547 90.4727 89.0547C91.6185 89.0547 92.6484 88.8138 93.5625 88.332C94.4766 87.8503 95.1953 87.1732 95.7188 86.3008C96.2422 85.4284 96.5039 84.4818 96.5039 83.4609C96.5039 82.4141 96.2357 81.4518 95.6992 80.5742C95.1628 79.6966 94.4427 79.0247 93.5391 78.5586ZM87.1289 85.4141C86.8008 84.8359 86.6367 84.1849 86.6367 83.4609C86.6367 82.7318 86.7956 82.0794 87.1133 81.5039C87.431 80.9284 87.8854 80.4805 88.4766 80.1602C89.0677 79.8398 89.7331 79.6797 90.4727 79.6797C91.2122 79.6797 91.8776 79.8385 92.4688 80.1562C93.0599 80.474 93.5182 80.9232 93.8438 81.5039C94.1693 82.0846 94.332 82.737 94.332 83.4609C94.332 84.5703 93.9714 85.4766 93.25 86.1797C92.5286 86.8828 91.6081 87.2344 90.4883 87.2344C89.7487 87.2344 89.0859 87.0755 88.5 86.7578C87.9141 86.4401 87.457 85.9922 87.1289 85.4141Z" fill="#0066B1"/>
<path d="M100.061 78L106.545 85.6172V78H108.607V88.9141H106.795L100.271 81.1719V88.9141H98.209V78H100.061Z" fill="#0066B1"/>
<path d="M113.898 77.8594C114.961 77.8594 115.984 78.125 116.969 78.6562V80.5312C115.839 79.849 114.836 79.5078 113.961 79.5078C113.43 79.5078 113.014 79.6107 112.715 79.8164C112.415 80.0221 112.266 80.2969 112.266 80.6406C112.266 81.0521 112.544 81.4323 113.102 81.7812C113.258 81.8854 113.859 82.1771 114.906 82.6562C115.802 83.0781 116.448 83.5469 116.844 84.0625C117.24 84.5781 117.438 85.1979 117.438 85.9219C117.438 86.8594 117.1 87.6159 116.426 88.1914C115.751 88.7669 114.878 89.0547 113.805 89.0547C113.107 89.0547 112.507 88.9779 112.004 88.8242C111.501 88.6706 110.938 88.4062 110.312 88.0312V85.9531C111.479 86.9219 112.578 87.4062 113.609 87.4062C114.125 87.4062 114.542 87.2943 114.859 87.0703C115.177 86.8464 115.336 86.5495 115.336 86.1797C115.336 85.6745 115.06 85.263 114.508 84.9453C114.049 84.6953 113.458 84.3958 112.734 84.0469C111.875 83.6562 111.233 83.2005 110.809 82.6797C110.384 82.1589 110.172 81.5547 110.172 80.8672C110.172 79.9505 110.513 79.2201 111.195 78.6758C111.878 78.1315 112.779 77.8594 113.898 77.8594Z" fill="#0066B1"/>
<path fill-rule="evenodd" clip-rule="evenodd" d="M127.655 78.5586C126.752 78.0924 125.735 77.8594 124.604 77.8594C123.427 77.8594 122.386 78.1029 121.479 78.5898C120.573 79.0768 119.862 79.7604 119.347 80.6406C118.831 81.5208 118.573 82.4609 118.573 83.4609C118.573 84.4974 118.831 85.444 119.347 86.3008C119.862 87.1576 120.582 87.8307 121.507 88.3203C122.431 88.8099 123.459 89.0547 124.589 89.0547C125.735 89.0547 126.765 88.8138 127.679 88.332C128.593 87.8503 129.312 87.1732 129.835 86.3008C130.358 85.4284 130.62 84.4818 130.62 83.4609C130.62 82.4141 130.352 81.4518 129.815 80.5742C129.279 79.6966 128.559 79.0247 127.655 78.5586ZM121.245 85.4141C120.917 84.8359 120.753 84.1849 120.753 83.4609C120.753 82.7318 120.912 82.0794 121.229 81.5039C121.547 80.9284 122.002 80.4805 122.593 80.1602C123.184 79.8398 123.849 79.6797 124.589 79.6797C125.328 79.6797 125.994 79.8385 126.585 80.1562C127.176 80.474 127.634 80.9232 127.96 81.5039C128.285 82.0846 128.448 82.737 128.448 83.4609C128.448 84.5703 128.088 85.4766 127.366 86.1797C126.645 86.8828 125.724 87.2344 124.604 87.2344C123.865 87.2344 123.202 87.0755 122.616 86.7578C122.03 86.4401 121.573 85.9922 121.245 85.4141Z" fill="#0066B1"/>
<path fill-rule="evenodd" clip-rule="evenodd" d="M138.763 78.8516C138.117 78.2839 137.281 78 136.255 78H132.325V88.9141H134.435V84.3047H135.2C135.539 84.3047 135.838 84.3893 136.099 84.5586C136.359 84.7279 136.63 85.0143 136.911 85.418C137.192 85.8216 137.635 86.6042 138.239 87.7656C138.515 88.2917 138.734 88.6745 138.896 88.9141H141.247C140.924 88.4141 140.429 87.5026 139.763 86.1797C139.362 85.4141 139.026 84.8698 138.755 84.5469C138.484 84.224 138.174 83.9688 137.825 83.7812C138.455 83.5156 138.931 83.1523 139.251 82.6914C139.571 82.2305 139.731 81.6901 139.731 81.0703C139.731 80.1589 139.409 79.4193 138.763 78.8516ZM137.079 82.2422C136.764 82.5182 136.33 82.6562 135.778 82.6562H134.435V79.6172H135.747C136.325 79.6172 136.771 79.7409 137.083 79.9883C137.396 80.2357 137.552 80.6094 137.552 81.1094C137.552 81.5885 137.394 81.9661 137.079 82.2422Z" fill="#0066B1"/>
<path d="M144.069 78V84.3516C144.069 85.0026 144.167 85.5208 144.362 85.9062C144.558 86.2917 144.877 86.6094 145.319 86.8594C145.762 87.1094 146.278 87.2344 146.866 87.2344C147.512 87.2344 148.06 87.1159 148.511 86.8789C148.961 86.6419 149.291 86.319 149.499 85.9102C149.707 85.5013 149.812 84.9349 149.812 84.2109V78H151.921V84.4844C151.921 85.9531 151.481 87.082 150.601 87.8711C149.72 88.6602 148.476 89.0547 146.866 89.0547C145.856 89.0547 144.979 88.875 144.237 88.5156C143.495 88.1562 142.929 87.6367 142.538 86.957C142.147 86.2773 141.952 85.4792 141.952 84.5625V78H144.069Z" fill="#0066B1"/>
<defs>
<linearGradient id="paint0_linear_12_83490" x1="102.527" y1="31.5323" x2="119.112" y2="32.969" gradientUnits="userSpaceOnUse">
<stop stop-color="#3252A4"/>
<stop offset="0.2471" stop-color="#4169B2"/>
<stop offset="0.8035" stop-color="#47C7EF"/>
<stop offset="1" stop-color="#6FCCDD"/>
</linearGradient>
<linearGradient id="paint1_linear_12_83490" x1="92.9734" y1="29.369" x2="112.061" y2="32.1388" gradientUnits="userSpaceOnUse">
<stop stop-color="#3252A4"/>
<stop offset="0.2471" stop-color="#4169B2"/>
<stop offset="0.8035" stop-color="#47C7EF"/>
<stop offset="1" stop-color="#6FCCDD"/>
</linearGradient>
<linearGradient id="paint2_linear_12_83490" x1="105.992" y1="34.1441" x2="137.448" y2="45.8485" gradientUnits="userSpaceOnUse">
<stop stop-color="#3252A4"/>
<stop offset="0.2471" stop-color="#4169B2"/>
<stop offset="0.8035" stop-color="#47C7EF"/>
<stop offset="1" stop-color="#6FCCDD"/>
</linearGradient>
<linearGradient id="paint3_linear_12_83490" x1="109.005" y1="28.9382" x2="142.518" y2="38.9912" gradientUnits="userSpaceOnUse">
<stop stop-color="#3252A4"/>
<stop offset="0.2471" stop-color="#4169B2"/>
<stop offset="0.8035" stop-color="#47C7EF"/>
<stop offset="1" stop-color="#6FCCDD"/>
</linearGradient>
<linearGradient id="paint4_linear_12_83490" x1="88.6377" y1="35.537" x2="102.817" y2="56.4521" gradientUnits="userSpaceOnUse">
<stop stop-color="#3252A4"/>
<stop offset="0.2471" stop-color="#4169B2"/>
<stop offset="0.8035" stop-color="#47C7EF"/>
<stop offset="1" stop-color="#6FCCDD"/>
</linearGradient>
<linearGradient id="paint5_linear_12_83490" x1="89.3127" y1="41.4753" x2="107.883" y2="66.8592" gradientUnits="userSpaceOnUse">
<stop stop-color="#3252A4"/>
<stop offset="0.2471" stop-color="#4169B2"/>
<stop offset="0.8035" stop-color="#47C7EF"/>
<stop offset="1" stop-color="#6FCCDD"/>
</linearGradient>
<radialGradient id="paint6_radial_12_83490" cx="0" cy="0" r="1" gradientTransform="matrix(25.1345 6.05481 -6.05427 25.1367 59.862 25.8611)" gradientUnits="userSpaceOnUse">
<stop stop-color="#F4F8FB"/>
<stop offset="0.2789" stop-color="#F1F7FB"/>
<stop offset="0.456" stop-color="#E9F4FB"/>
<stop offset="0.6047" stop-color="#DAF0FA"/>
<stop offset="0.7378" stop-color="#C5E9F9"/>
<stop offset="0.8604" stop-color="#AAE0F8"/>
<stop offset="0.9738" stop-color="#8AD6F6"/>
<stop offset="1" stop-color="#81D3F6"/>
</radialGradient>
<linearGradient id="paint7_linear_12_83490" x1="39.8047" y1="10.0125" x2="43.1034" y2="17.5183" gradientUnits="userSpaceOnUse">
<stop stop-color="#497ABB"/>
<stop offset="0.2471" stop-color="#2B99D5"/>
<stop offset="0.8035" stop-color="#00C0F1"/>
<stop offset="1" stop-color="#36C3F1"/>
</linearGradient>
<linearGradient id="paint8_linear_12_83490" x1="63.5447" y1="16.259" x2="71.826" y2="16.8049" gradientUnits="userSpaceOnUse">
<stop stop-color="#497ABB"/>
<stop offset="0.2471" stop-color="#2B99D5"/>
<stop offset="0.8035" stop-color="#00C0F1"/>
<stop offset="1" stop-color="#36C3F1"/>
</linearGradient>
<linearGradient id="paint9_linear_12_83490" x1="69.697" y1="13.575" x2="76.0407" y2="15.2952" gradientUnits="userSpaceOnUse">
<stop stop-color="#497ABB"/>
<stop offset="0.2471" stop-color="#2B99D5"/>
<stop offset="0.8035" stop-color="#00C0F1"/>
<stop offset="1" stop-color="#36C3F1"/>
</linearGradient>
<linearGradient id="paint10_linear_12_83490" x1="77.2106" y1="33.1556" x2="88.7859" y2="19.906" gradientUnits="userSpaceOnUse">
<stop stop-color="#497ABB"/>
<stop offset="0.2471" stop-color="#2B99D5"/>
<stop offset="0.8035" stop-color="#00C0F1"/>
<stop offset="1" stop-color="#36C3F1"/>
</linearGradient>
<linearGradient id="paint11_linear_12_83490" x1="67.8161" y1="25.4138" x2="79.9023" y2="26.7738" gradientUnits="userSpaceOnUse">
<stop stop-color="#497ABB"/>
<stop offset="0.2471" stop-color="#2B99D5"/>
<stop offset="0.8035" stop-color="#00C0F1"/>
<stop offset="1" stop-color="#36C3F1"/>
</linearGradient>
<linearGradient id="paint12_linear_12_83490" x1="37.9962" y1="15.937" x2="57.9217" y2="24.6202" gradientUnits="userSpaceOnUse">
<stop stop-color="#497ABB"/>
<stop offset="0.2471" stop-color="#2B99D5"/>
<stop offset="0.8035" stop-color="#00C0F1"/>
<stop offset="1" stop-color="#36C3F1"/>
</linearGradient>
<linearGradient id="paint13_linear_12_83490" x1="51.0547" y1="3.53816" x2="54.3846" y2="12.0327" gradientUnits="userSpaceOnUse">
<stop stop-color="#497ABB"/>
<stop offset="0.2471" stop-color="#2B99D5"/>
<stop offset="0.8035" stop-color="#00C0F1"/>
<stop offset="1" stop-color="#36C3F1"/>
</linearGradient>
<linearGradient id="paint14_linear_12_83490" x1="41.6791" y1="2.24399" x2="42.3945" y2="7.68588" gradientUnits="userSpaceOnUse">
<stop stop-color="#497ABB"/>
<stop offset="0.2471" stop-color="#2B99D5"/>
<stop offset="0.8035" stop-color="#00C0F1"/>
<stop offset="1" stop-color="#36C3F1"/>
</linearGradient>
<linearGradient id="paint15_linear_12_83490" x1="76.7509" y1="43.6992" x2="71.8185" y2="33.1248" gradientUnits="userSpaceOnUse">
<stop stop-color="#497ABB"/>
<stop offset="0.2471" stop-color="#2B99D5"/>
<stop offset="0.8035" stop-color="#00C0F1"/>
<stop offset="1" stop-color="#36C3F1"/>
</linearGradient>
<linearGradient id="paint16_linear_12_83490" x1="70.3769" y1="42.8098" x2="77.7873" y2="44.7689" gradientUnits="userSpaceOnUse">
<stop stop-color="#497ABB"/>
<stop offset="0.2471" stop-color="#2B99D5"/>
<stop offset="0.8035" stop-color="#00C0F1"/>
<stop offset="1" stop-color="#36C3F1"/>
</linearGradient>
<linearGradient id="paint17_linear_12_83490" x1="45.7609" y1="44.1792" x2="52.2791" y2="40.4065" gradientUnits="userSpaceOnUse">
<stop stop-color="#497ABB"/>
<stop offset="0.2471" stop-color="#2B99D5"/>
<stop offset="0.8035" stop-color="#00C0F1"/>
<stop offset="1" stop-color="#36C3F1"/>
</linearGradient>
<linearGradient id="paint18_linear_12_83490" x1="47.7944" y1="48.7712" x2="55.3047" y2="49.2364" gradientUnits="userSpaceOnUse">
<stop stop-color="#497ABB"/>
<stop offset="0.2471" stop-color="#2B99D5"/>
<stop offset="0.8035" stop-color="#00C0F1"/>
<stop offset="1" stop-color="#36C3F1"/>
</linearGradient>
<linearGradient id="paint19_linear_12_83490" x1="80.9777" y1="36.1496" x2="80.8786" y2="30.5276" gradientUnits="userSpaceOnUse">
<stop stop-color="#497ABB"/>
<stop offset="0.2471" stop-color="#2B99D5"/>
<stop offset="0.8035" stop-color="#00C0F1"/>
<stop offset="1" stop-color="#36C3F1"/>
</linearGradient>
<linearGradient id="paint20_linear_12_83490" x1="38.245" y1="27.2787" x2="32.6645" y2="23.5334" gradientUnits="userSpaceOnUse">
<stop stop-color="#497ABB"/>
<stop offset="0.2471" stop-color="#2B99D5"/>
<stop offset="0.4717" stop-color="#00C0F1"/>
<stop offset="0.7456" stop-color="#497ABB"/>
<stop offset="1" stop-color="#36C3F1"/>
</linearGradient>
<linearGradient id="paint21_linear_12_83490" x1="48.1086" y1="31.1865" x2="47.7643" y2="21.77" gradientUnits="userSpaceOnUse">
<stop stop-color="#497ABB"/>
<stop offset="0.2471" stop-color="#2B99D5"/>
<stop offset="0.8035" stop-color="#00C0F1"/>
<stop offset="1" stop-color="#36C3F1"/>
</linearGradient>
<linearGradient id="paint22_linear_12_83490" x1="46.5321" y1="44.6857" x2="53.7863" y2="34.3487" gradientUnits="userSpaceOnUse">
<stop stop-color="#497ABB"/>
<stop offset="0.2471" stop-color="#2B99D5"/>
<stop offset="0.8035" stop-color="#00C0F1"/>
<stop offset="1" stop-color="#36C3F1"/>
</linearGradient>
<linearGradient id="paint23_linear_12_83490" x1="48.2762" y1="18.941" x2="48.2048" y2="13.7857" gradientUnits="userSpaceOnUse">
<stop stop-color="#497ABB"/>
<stop offset="0.2471" stop-color="#2B99D5"/>
<stop offset="0.8035" stop-color="#00C0F1"/>
<stop offset="1" stop-color="#36C3F1"/>
</linearGradient>
<linearGradient id="paint24_linear_12_83490" x1="41.5054" y1="15.8749" x2="38.4491" y2="6.39226" gradientUnits="userSpaceOnUse">
<stop stop-color="#497ABB"/>
<stop offset="0.2471" stop-color="#2B99D5"/>
<stop offset="0.8035" stop-color="#00C0F1"/>
<stop offset="1" stop-color="#36C3F1"/>
</linearGradient>
<linearGradient id="paint25_linear_12_83490" x1="81.9737" y1="16.84" x2="77.2903" y2="17.2137" gradientUnits="userSpaceOnUse">
<stop stop-color="#497ABB"/>
<stop offset="0.2471" stop-color="#2B99D5"/>
<stop offset="0.8035" stop-color="#00C0F1"/>
<stop offset="1" stop-color="#36C3F1"/>
</linearGradient>
<linearGradient id="paint26_linear_12_83490" x1="63.845" y1="4.13615" x2="65.0641" y2="7.85052" gradientUnits="userSpaceOnUse">
<stop stop-color="#497ABB"/>
<stop offset="0.2471" stop-color="#2B99D5"/>
<stop offset="0.8035" stop-color="#00C0F1"/>
<stop offset="1" stop-color="#36C3F1"/>
</linearGradient>
<linearGradient id="paint27_linear_12_83490" x1="42.7213" y1="-1.17005" x2="42.8412" y2="6.05748" gradientUnits="userSpaceOnUse">
<stop stop-color="#497ABB"/>
<stop offset="0.2471" stop-color="#2B99D5"/>
<stop offset="0.8035" stop-color="#00C0F1"/>
<stop offset="1" stop-color="#36C3F1"/>
</linearGradient>
<linearGradient id="paint28_linear_12_83490" x1="102.087" y1="28.1947" x2="109.042" y2="25.6633" gradientUnits="userSpaceOnUse">
<stop stop-color="#3455A6"/>
<stop offset="0.244378" stop-color="#416EB5"/>
<stop offset="0.784127" stop-color="#48C7EF"/>
<stop offset="1" stop-color="#6DCCDF"/>
</linearGradient>
</defs>
</svg>
