<svg width="64" height="64" viewBox="0 0 64 64" fill="none" xmlns="http://www.w3.org/2000/svg">
<path fill-rule="evenodd" clip-rule="evenodd" d="M31.9944 0.00152588C49.6704 0.00152588 64 14.328 64 32.0008C64 49.6733 49.6704 64 31.9944 64C14.6035 64 0.452307 50.1321 0 32.8539L0 31.1476C0.452307 13.8693 14.6035 0.00152588 31.9944 0.00152588Z" fill="#00C5B3"/>
<mask id="mask0_12_76336" style="mask-type:luminance" maskUnits="userSpaceOnUse" x="0" y="0" width="64" height="64">
<path fill-rule="evenodd" clip-rule="evenodd" d="M31.9944 0.00152588C49.6704 0.00152588 64 14.328 64 32.0008C64 49.6733 49.6704 64 31.9944 64C14.6035 64 0.452307 50.1321 0 32.8539L0 31.1476C0.452307 13.8693 14.6035 0.00152588 31.9944 0.00152588Z" fill="white"/>
</mask>
<g mask="url(#mask0_12_76336)">
<path d="M29.3574 42.2734L31.5605 39.9199C31.6345 39.979 31.7083 40.0405 31.7812 40.1035C31.8548 40.1664 31.9279 40.2304 32 40.2969C32.0729 40.3635 32.1444 40.4319 32.2158 40.501C32.2868 40.571 32.3567 40.6423 32.4258 40.7158C33.0305 41.3493 33.5205 42.0414 33.8857 42.7451C34.249 43.4462 34.485 44.1538 34.5869 44.8203C34.6867 45.4791 34.6561 46.0944 34.4912 46.627C34.3308 47.148 34.0411 47.5863 33.624 47.9053L30.8848 50L27.25 45.9727C26.7596 45.4288 26.3535 44.8502 26.0361 44.2656C25.7185 43.6791 25.488 43.0813 25.3516 42.5039C25.2138 41.9199 25.172 41.3521 25.2363 40.833C25.3021 40.3052 25.4781 39.8241 25.7764 39.4277C25.8115 39.3813 25.8476 39.336 25.8857 39.293C25.923 39.2493 25.9617 39.2071 26.002 39.167C26.042 39.1269 26.0843 39.0887 26.127 39.0518C26.1699 39.0154 26.2137 38.9789 26.2588 38.9453L29.3574 42.2734ZM36.3555 28.8193C36.8053 28.8114 37.2672 28.8505 37.7334 28.9385C38.2052 29.028 38.6815 29.1673 39.1533 29.3564C39.6297 29.5477 40.1007 29.7895 40.5576 30.082C41.0179 30.3774 41.4616 30.7239 41.8809 31.1201L48 36.9062L42.6035 41.0352C42.2843 41.2797 41.9409 41.4805 41.5811 41.6377C41.2264 41.7928 40.8552 41.9071 40.4736 41.9814C40.0974 42.0549 39.7106 42.09 39.3193 42.0889C38.933 42.0885 38.5407 42.0524 38.1494 41.9834C37.7416 41.9104 37.3335 41.8023 36.9307 41.6582C36.5326 41.5163 36.1387 41.3393 35.7549 41.1299C35.374 40.9218 35.0025 40.6808 34.6455 40.4082C34.2907 40.1379 33.9493 39.8351 33.626 39.501C33.5532 39.4259 33.4814 39.3496 33.4121 39.2725C33.3426 39.1951 33.2744 39.1172 33.208 39.0391C33.1423 38.9608 33.0774 38.882 33.0146 38.8027C32.952 38.7227 32.8911 38.6427 32.832 38.5615L35.6133 35.5879L31.7373 31.708C31.7734 31.6277 31.8121 31.5482 31.8535 31.4697C31.8944 31.3909 31.9377 31.313 31.9834 31.2363C32.029 31.1591 32.0771 31.0835 32.127 31.0088C32.1772 30.9336 32.2305 30.859 32.2852 30.7861C32.5175 30.4773 32.7809 30.2038 33.0703 29.9668C33.3643 29.7257 33.685 29.5221 34.0273 29.3564C34.3749 29.1878 34.7448 29.0582 35.1318 28.9688C35.5242 28.8776 35.9346 28.8273 36.3555 28.8193ZM19.3291 28.7656C19.5758 28.7595 19.8349 28.7885 20.1016 28.8535C20.3708 28.9192 20.6477 29.0212 20.9277 29.1602C21.2103 29.3004 21.4962 29.4768 21.7803 29.6914C22.0657 29.9071 22.3486 30.1597 22.625 30.4492C22.6872 30.5144 22.7485 30.5811 22.8086 30.6484C22.8693 30.716 22.9291 30.7854 22.9873 30.8555C23.0453 30.9251 23.1025 30.9956 23.1582 31.0674C23.2142 31.1389 23.2689 31.2118 23.3232 31.2852L21.7646 34.1172L24.7041 37.2734C24.6827 37.3326 24.6598 37.3905 24.6357 37.4463C24.6118 37.5027 24.5858 37.5574 24.5586 37.6113C24.5321 37.6646 24.5029 37.7178 24.4727 37.7686C24.4429 37.8196 24.4113 37.8698 24.3779 37.918C24.2409 38.1189 24.0843 38.2872 23.9121 38.4229C23.7415 38.5575 23.5561 38.6613 23.3584 38.7354C23.1627 38.8084 22.9544 38.8519 22.7383 38.8672C22.5247 38.8821 22.3024 38.8698 22.0752 38.8311C21.838 38.7898 21.5942 38.7202 21.3486 38.6221C21.105 38.525 20.8592 38.3996 20.6133 38.248C20.3691 38.0975 20.125 37.9196 19.8848 37.7158C19.6457 37.5129 19.4096 37.2835 19.1797 37.0283L16 33.5039L17.29 30.2627C17.3845 30.0258 17.4998 29.8159 17.6348 29.6348C17.7712 29.4508 17.9273 29.2963 18.0996 29.1699C18.2733 29.0431 18.4647 28.9454 18.6689 28.8779C18.8761 28.8096 19.0971 28.7723 19.3291 28.7656ZM28.7617 18.7217C29.4753 19.3958 30.0627 20.2154 30.5098 21.1133C30.9549 22.007 31.2555 22.9682 31.4023 23.9307C31.547 24.8781 31.5422 25.8196 31.3818 26.6924C31.2256 27.5445 30.923 28.3259 30.4736 28.9844C30.4223 29.0604 30.3693 29.1332 30.3154 29.2041C30.262 29.2741 30.2068 29.3424 30.1504 29.4072C30.0941 29.4724 30.0376 29.5347 29.9795 29.5947C29.9211 29.6544 29.8621 29.7122 29.8018 29.7676L26.1631 26.124L24.2168 29.6602C24.1483 29.6079 24.0796 29.5529 24.0117 29.4971C23.9438 29.4413 23.8763 29.3826 23.8096 29.3232C23.7424 29.2634 23.6759 29.2022 23.6104 29.1387C23.5442 29.0748 23.4787 29.0089 23.4141 28.9414C22.8551 28.3645 22.3844 27.6984 22.0078 26.9854C21.6297 26.2689 21.3425 25.4977 21.1572 24.7119C20.9694 23.9158 20.8851 23.0987 20.916 22.3027C20.9476 21.4902 21.0994 20.6939 21.3906 19.9629L23.7656 14L28.7617 18.7217Z" fill="#E3E3E3"/>
</g>
</svg>
