<svg width="44" height="34" viewBox="0 0 44 34" fill="none" xmlns="http://www.w3.org/2000/svg">
<rect width="44" height="34" rx="8" fill="#00C5B3"/>
<mask id="mask0_12_75374" style="mask-type:luminance" maskUnits="userSpaceOnUse" x="0" y="0" width="44" height="34">
<rect width="44" height="34" rx="8" fill="white"/>
</mask>
<g mask="url(#mask0_12_75374)">
<path d="M20.6006 24.4199L22.1846 22.7197C22.2377 22.7624 22.2903 22.807 22.3428 22.8525C22.3957 22.8979 22.4482 22.9442 22.5 22.9922C22.5524 23.0403 22.6039 23.0897 22.6553 23.1396C22.7064 23.1903 22.757 23.2418 22.8066 23.2949C23.2413 23.7525 23.593 24.2525 23.8555 24.7607C24.1165 25.267 24.2861 25.7775 24.3594 26.2588C24.4311 26.7346 24.4095 27.1788 24.291 27.5635C24.1758 27.9398 23.9676 28.2559 23.668 28.4863L21.6982 30L19.0859 27.0918C18.7334 26.699 18.442 26.2807 18.2139 25.8584C17.9855 25.4348 17.8197 25.003 17.7217 24.5859C17.6227 24.1642 17.5925 23.7538 17.6387 23.3789C17.686 22.9979 17.8121 22.6504 18.0264 22.3643C18.0516 22.3308 18.0781 22.2987 18.1055 22.2676C18.1323 22.236 18.1605 22.2057 18.1895 22.1768C18.2182 22.1479 18.2477 22.1194 18.2783 22.0928C18.3093 22.0665 18.3416 22.0409 18.374 22.0166L20.6006 24.4199ZM25.6299 14.7031C25.9533 14.6974 26.2859 14.7255 26.6211 14.7891C26.9601 14.8537 27.3026 14.9543 27.6416 15.0908C27.9838 15.2289 28.3222 15.4031 28.6504 15.6143C28.9813 15.8276 29.3011 16.078 29.6025 16.3643L34 20.543L30.1211 23.5254C29.8917 23.7019 29.6453 23.8464 29.3867 23.96C29.1318 24.072 28.8651 24.1553 28.5908 24.209C28.3204 24.2621 28.042 24.2879 27.7607 24.2871C27.4831 24.2869 27.2011 24.2607 26.9199 24.2109C26.6268 24.1582 26.3336 24.0787 26.0439 23.9746C25.7579 23.8722 25.475 23.7449 25.1992 23.5938C24.9254 23.4435 24.658 23.2692 24.4014 23.0723C24.1464 22.8771 23.9013 22.6583 23.6689 22.417C23.6166 22.3627 23.5645 22.3077 23.5146 22.252C23.4647 22.1962 23.4159 22.1404 23.3682 22.084C23.3209 22.0275 23.2746 21.9703 23.2295 21.9131C23.1843 21.8552 23.1402 21.797 23.0977 21.7383L25.0967 19.5908L22.3115 16.7891C22.3374 16.7312 22.3649 16.6737 22.3945 16.6172C22.4239 16.5602 22.4555 16.5036 22.4883 16.4482C22.521 16.3925 22.556 16.3381 22.5918 16.2842C22.6279 16.2299 22.6658 16.1757 22.7051 16.123C22.872 15.9001 23.0616 15.7023 23.2695 15.5312C23.4807 15.3573 23.7111 15.2104 23.957 15.0908C24.2069 14.969 24.4728 14.8752 24.751 14.8105C25.0329 14.7447 25.3275 14.7089 25.6299 14.7031ZM13.3926 14.6641C13.5698 14.6596 13.7557 14.6806 13.9473 14.7275C14.1408 14.775 14.3406 14.8488 14.542 14.9492C14.745 15.0505 14.9502 15.1781 15.1543 15.333C15.3595 15.4888 15.563 15.6708 15.7617 15.8799C15.8065 15.9271 15.8503 15.9757 15.8936 16.0244C15.9372 16.0732 15.9796 16.1233 16.0215 16.1738C16.0632 16.2241 16.1054 16.2743 16.1455 16.3262C16.1857 16.3778 16.2246 16.4304 16.2637 16.4834L15.1436 18.5293L17.2559 20.8086C17.2405 20.8513 17.2243 20.8933 17.207 20.9336C17.1898 20.9744 17.171 21.0137 17.1514 21.0527C17.1323 21.0911 17.1116 21.1294 17.0898 21.166C17.0684 21.2029 17.0455 21.2386 17.0215 21.2734C16.923 21.4185 16.8112 21.5407 16.6875 21.6387C16.5648 21.736 16.4303 21.8108 16.2881 21.8643C16.1477 21.9168 15.9988 21.9479 15.8438 21.959C15.6902 21.9698 15.5296 21.9616 15.3662 21.9336C15.1958 21.9038 15.0211 21.8531 14.8447 21.7822C14.6695 21.7121 14.4923 21.6223 14.3154 21.5127C14.14 21.404 13.9646 21.2751 13.792 21.1279C13.6202 20.9814 13.4503 20.816 13.2852 20.6318L11 18.0859L11.9268 15.7451C11.9946 15.5741 12.0778 15.4228 12.1748 15.292C12.2729 15.1591 12.385 15.0474 12.5088 14.9561C12.6336 14.8645 12.7712 14.7939 12.918 14.7451C13.0669 14.6957 13.2258 14.6689 13.3926 14.6641ZM20.1729 7.41016C20.6857 7.89704 21.1084 8.48925 21.4297 9.1377C21.7496 9.78315 21.9648 10.4778 22.0703 11.1729C22.1742 11.8569 22.1708 12.5359 22.0557 13.166C21.9433 13.7816 21.7254 14.3467 21.4023 14.8223C21.3655 14.877 21.3277 14.9294 21.2891 14.9805C21.2507 15.0309 21.2114 15.0802 21.1709 15.127C21.1305 15.174 21.0896 15.2193 21.0479 15.2627C21.0059 15.3058 20.9633 15.3477 20.9199 15.3877L18.3047 12.7568L16.9062 15.3096C16.8571 15.2719 16.8075 15.2327 16.7588 15.1924C16.71 15.1521 16.6613 15.1093 16.6133 15.0664C16.565 15.0232 16.5168 14.9794 16.4697 14.9336C16.4222 14.8875 16.3756 14.8398 16.3291 14.791C15.9273 14.3743 15.5891 13.893 15.3184 13.3779C15.0466 12.8605 14.8402 12.3038 14.707 11.7363C14.572 11.1613 14.511 10.571 14.5332 9.99609C14.5559 9.40925 14.6657 8.83462 14.875 8.30664L16.582 4L20.1729 7.41016Z" fill="#E3E3E3"/>
</g>
</svg>
