<svg width="51" height="51" viewBox="0 0 51 51" fill="none" xmlns="http://www.w3.org/2000/svg">
<path fill-rule="evenodd" clip-rule="evenodd" d="M36.3271 42.3438C36.963 42.3438 37.4317 42.4797 37.666 42.8535C38.4691 44.009 36.7291 46.6255 33.8173 48.7324C30.9056 50.8393 27.8932 51.6211 27.0898 50.4658C26.2866 49.3104 28.0269 46.6938 30.9384 44.5869C32.9465 43.1257 34.9883 42.3099 36.3271 42.3438ZM23.207 38.1299C24.9809 38.1299 26.2197 38.5715 26.5878 39.4551C27.391 41.4601 23.4746 44.9942 17.8183 47.373C12.1621 49.7178 6.9077 50.0236 6.10445 48.0186C5.30164 46.0135 9.21708 42.4793 14.873 40.1006C17.9855 38.7753 20.998 38.096 23.207 38.1299ZM43.4902 34.7656C43.5569 34.7656 43.6237 34.7651 43.6904 34.7988C44.2928 35.1047 43.9922 36.94 42.9882 38.877C41.9842 40.814 40.6786 42.1396 40.0761 41.7998C39.4737 41.4939 39.7752 39.6587 40.7793 37.7217C41.6829 35.9886 42.8208 34.7316 43.4902 34.7656ZM35.3564 31.5371C36.2601 31.5371 36.997 31.8426 37.3652 32.4883C38.0345 33.7117 37.03 35.6149 35.0888 36.7363C33.1477 37.8577 31.0387 37.8239 30.3359 36.6006C29.6665 35.3772 30.6711 33.474 32.6123 32.3525C33.5493 31.8089 34.5198 31.5372 35.3564 31.5371ZM41.4482 28.5117C41.6155 28.5117 41.7499 28.5463 41.8837 28.6143C42.5193 28.9882 42.553 30.0753 41.9843 31.0605C41.4488 32.0461 40.4774 32.5906 39.875 32.2168C39.2391 31.8429 39.2064 30.755 39.7753 29.7695C40.2439 29.0221 40.9128 28.5118 41.4482 28.5117ZM23.1738 20.7295C26.8219 20.7295 29.7675 22.8708 29.7675 25.5215C29.7675 28.2062 26.8217 30.3475 23.207 30.3135C19.559 30.3133 16.6142 28.1721 16.6142 25.5215C16.6143 22.8708 19.5592 20.7296 23.1738 20.7295ZM34.955 23.3809C36.2938 23.3809 37.3651 24.3321 37.3652 25.5215C37.3652 26.7109 36.2603 27.6621 34.955 27.6621C33.6498 27.662 32.5791 26.7108 32.5791 25.5215C32.5791 24.3662 33.6499 23.381 34.955 23.3809ZM40.3769 18.6572C40.9458 18.6572 41.6156 19.1326 42.0507 19.9141C42.5863 20.8996 42.5526 21.9875 41.9502 22.3613C41.3477 22.7008 40.4107 22.1913 39.8418 21.2061C39.3062 20.2205 39.3399 19.1326 39.9423 18.7588C40.0761 18.6909 40.2098 18.6234 40.3769 18.6572ZM32.4453 13.4238C33.2819 13.4239 34.2524 13.6956 35.1894 14.2393C37.1306 15.3607 38.1686 17.2639 37.4658 18.4873C36.7629 19.7107 34.654 19.7444 32.7128 18.623C30.7717 17.5016 29.7338 15.5984 30.4365 14.375C30.7712 13.7293 31.5416 13.4238 32.4453 13.4238ZM40.2773 9.1416C40.9467 9.14206 42.0847 10.3658 42.9882 12.0986C43.9921 14.0355 44.2928 15.836 43.6904 16.1758C43.0879 16.4813 41.7832 15.1906 40.7793 13.2539C39.7752 11.3169 39.4738 9.51571 40.0761 9.17578C40.1431 9.1418 40.2104 9.1416 40.2773 9.1416ZM9.48531 1.63086C11.6943 1.63093 14.6733 2.31123 17.8193 3.60254C23.4754 5.98139 27.3911 9.51553 26.5878 11.5205C25.7509 13.5253 20.53 13.2536 14.874 10.875C9.21763 8.49615 5.30118 4.96109 6.10445 2.95605C6.47279 2.0727 7.71165 1.63086 9.48531 1.63086ZM28.3955 0C29.7342 8.05094e-05 31.7761 0.815922 33.7841 2.24316C36.6958 4.35011 38.436 6.96667 37.6328 8.12207C36.8295 9.27747 33.8171 8.49564 30.9052 6.38867C27.9936 4.28172 26.2534 1.66517 27.0566 0.509766C27.2909 0.169959 27.7596 0 28.3955 0Z" fill="#8042A8"/>
</svg>
