<svg width="71" height="49" viewBox="0 0 71 49" fill="none" xmlns="http://www.w3.org/2000/svg">
<path fill-rule="evenodd" clip-rule="evenodd" d="M22.9117 3.2393C20.4383 6.63329 18.3868 10.3009 16.6961 14.1696C15.0581 18.1156 13.7463 22.2801 13.2047 26.6666C13.0025 28.2544 12.8642 29.8631 12.8378 31.4843C9.93447 32.2453 6.97979 32.8851 3.99116 33.4061C6.93553 33.6194 9.89913 33.6476 12.8663 33.5032C12.9788 35.7607 13.3114 38.095 14.0189 40.4192C14.7364 42.8046 15.9273 45.1872 17.6565 47.3108C18.1475 47.9067 18.6921 48.4721 19.2791 49C10.6687 47.9211 3.8828 43.9807 1.19825 37.5733C-3.51909 26.3161 6.0981 11.4613 22.9117 3.2393ZM61.5004 1.02322C65.078 2.98973 67.7964 5.76666 69.2728 9.29012C74.0969 20.7995 63.9333 36.0733 46.4145 44.1696C47.0525 43.4548 47.6608 42.7242 48.2412 41.9849C50.6618 38.776 52.6539 35.3928 54.1625 31.8011C51.2427 34.378 48.347 36.8561 45.2736 38.9036C42.2637 40.9954 39.0563 42.6867 35.963 43.5673C34.4168 43.9873 32.9109 44.2045 31.5818 44.1245C30.2514 44.0298 29.1286 43.6977 28.2709 43.1572C27.4235 42.5878 26.7849 41.8651 26.2393 40.9529C25.7139 40.0105 25.3722 38.8474 25.1455 37.5655C24.9254 36.2772 24.8875 34.8701 24.9973 33.3943C25.0277 32.9138 25.0718 32.4325 25.1258 31.9502C25.7918 31.8147 26.4586 31.6742 27.1232 31.5235C34.7696 29.7383 42.3605 26.6653 49.0083 21.6036C50.6316 20.2994 52.2296 18.9273 53.6788 17.3794C54.4257 16.6265 55.1249 15.8262 55.7958 14.9946C56.4651 14.1847 57.2012 13.3185 57.8334 12.3685C59.1169 10.4798 60.296 8.36098 60.9804 5.79089C61.3652 4.34408 61.5807 2.72071 61.5004 1.02322ZM46.6804 0.0638056C47.6469 -0.0561878 48.4986 -0.00682467 49.0897 0.210956C49.6976 0.424702 50.0472 0.683824 50.4092 1.16449C51.1472 2.11043 51.0845 4.87112 49.747 7.63517C49.1327 9.00514 48.1925 10.4756 47.163 11.7926C46.1661 13.1542 44.9958 14.4031 43.7953 15.6411C38.9762 20.4349 32.7611 24.127 26.0902 26.9795C26.7616 24.4604 27.6587 21.9482 28.8409 19.5278C30.2052 16.5104 31.9643 13.6281 33.897 10.9058C35.823 8.18751 38.054 5.66582 40.3372 3.58364C41.4725 2.54623 42.6831 1.69374 43.6648 1.11544C44.5448 0.596669 45.7504 0.177606 46.6804 0.0638056Z" fill="url(#paint0_linear_12_83228)"/>
<defs>
<linearGradient id="paint0_linear_12_83228" x1="1.37104e-09" y1="50.2924" x2="70.4713" y2="50.2924" gradientUnits="userSpaceOnUse">
<stop stop-color="#3D59A7"/>
<stop offset="0.280694" stop-color="#4169B1"/>
<stop offset="0.74141" stop-color="#49C7EE"/>
<stop offset="1" stop-color="#6FCBDC"/>
</linearGradient>
</defs>
</svg>
