<svg width="64" height="64" viewBox="0 0 64 64" fill="none" xmlns="http://www.w3.org/2000/svg">
<rect width="64" height="64" rx="32" fill="#070910"/>
<g clip-path="url(#clip0_12_76465)">
<path d="M33.04 26.9792L29.6299 31.5261L29.6143 31.5457L29.6289 31.5662L33.3818 36.6755H29.791L26.4863 31.5457L29.5732 26.9792H33.04Z" fill="#F0F4F7" stroke="#F0F4F7" stroke-width="0.0668032"/>
<path d="M26.1216 26.8944V36.6034H23.0327V26.8944H26.1216Z" fill="#F0F4F7" stroke="#F0F4F7" stroke-width="0.0668032"/>
<path d="M17.8306 26.9792L21.9419 36.6755H18.7104L17.6313 33.8699L17.6235 33.8484H13.9478L13.939 33.8679L12.6997 36.6755H9.39502L14.2368 26.9792H17.8306ZM15.9331 29.1873L14.7036 31.7429L14.7329 31.7566V31.7917H17.0308L17.0132 31.7458L15.9946 29.1892L15.9663 29.1179L15.9331 29.1873Z" fill="#F0F4F7" stroke="#F0F4F7" stroke-width="0.0668032"/>
<path d="M37.3403 26.9792V32.8523C37.3403 32.8531 37.3394 32.854 37.3394 32.8552C37.3391 32.8588 37.3387 32.8642 37.3384 32.8708C37.3377 32.8842 37.3375 32.9038 37.3374 32.9285C37.3371 32.9777 37.3393 33.0477 37.3481 33.1316C37.3658 33.2996 37.4109 33.5248 37.522 33.7498C37.6332 33.9749 37.81 34.2009 38.0903 34.3699C38.3702 34.5386 38.7512 34.6487 39.2681 34.6492V34.6501H39.2739C39.2775 34.6504 39.283 34.6507 39.2896 34.6511C39.303 34.652 39.3226 34.6535 39.3472 34.6541C39.3968 34.6552 39.4675 34.6541 39.5522 34.6472C39.7216 34.6335 39.9483 34.5948 40.1753 34.4939C40.4025 34.3928 40.6303 34.2293 40.8013 33.9666C40.9723 33.7037 41.0854 33.3435 41.0854 32.8523V26.9792H44.0894V33.865C44.0895 33.8662 44.0901 33.8683 44.0903 33.8708C44.0908 33.8759 44.0908 33.8835 44.0913 33.8933C44.0924 33.9134 44.0938 33.9432 44.0933 33.9812C44.0922 34.0573 44.0848 34.1665 44.0601 34.2976C44.0105 34.5599 43.891 34.91 43.6108 35.2605C43.0513 35.9605 41.8438 36.6696 39.2456 36.6697H39.2397C39.2375 36.6698 39.2343 36.6705 39.23 36.6707C39.2209 36.6711 39.2067 36.672 39.189 36.6726C39.1536 36.6739 39.1017 36.6748 39.0356 36.6755C38.9029 36.6771 38.7127 36.676 38.4849 36.6648C38.0292 36.6423 37.4223 36.58 36.8159 36.4207C36.209 36.2611 35.6045 36.0045 35.1528 35.5964C34.7024 35.1894 34.4019 34.6299 34.4019 33.8591V26.9792H37.3403Z" fill="#F0F4F7" stroke="#F0F4F7" stroke-width="0.0668032"/>
<path d="M54.5029 26.9792V29.1013H51.374V36.6755H48.332V29.1013H45.248V26.9792H54.5029Z" fill="#F0F4F7" stroke="#F0F4F7" stroke-width="0.0668032"/>
<path d="M8.81389 35.2303C8.71502 35.0546 8.56872 34.9658 8.379 34.9658C8.2494 34.9658 8.13583 35.0152 8.04164 35.1121C7.95079 35.2063 7.86795 35.3713 7.78779 35.6164C7.70696 35.8603 7.66086 35.9498 7.63548 35.9825C7.60475 36.0226 7.57402 36.042 7.54195 36.042C7.52792 36.042 7.48317 36.042 7.44308 35.9558C7.41169 35.887 7.39499 35.7921 7.39499 35.6752C7.39499 35.4695 7.43507 35.2871 7.5139 35.1348L7.54663 35.0713H7.07968L7.07032 35.1034C7.02356 35.2637 6.99951 35.4648 6.99951 35.6999C6.99951 35.9838 7.04828 36.2156 7.14381 36.39C7.24468 36.5724 7.38897 36.6652 7.57335 36.6652C7.82253 36.6652 8.01158 36.4675 8.13784 36.0774C8.22802 35.7908 8.28013 35.6886 8.30752 35.6538C8.34226 35.6104 8.37699 35.5884 8.41173 35.5884C8.42576 35.5884 8.46985 35.5884 8.51194 35.6685C8.54467 35.7313 8.56137 35.8295 8.56137 35.9598C8.56137 36.1936 8.50258 36.4054 8.38701 36.5884L8.34493 36.6559H8.84061L8.85196 36.6278C8.9201 36.4495 8.95484 36.219 8.95484 35.9431C8.95484 35.6391 8.90674 35.4 8.81255 35.2323L8.81389 35.2303Z" fill="#D11242"/>
<path d="M7.03027 32.7766V34.2169H8.92414V32.7212H8.52132V33.6224H8.17261V32.8368H7.77045V33.6224H7.4331V32.7766H7.03027Z" fill="#D11242"/>
<path d="M8.92414 30.5448V29.8941L7.03027 30.7893V31.4399L8.92414 32.3531V31.7045L8.50996 31.5294V30.7231L8.92414 30.5448ZM8.12451 30.8808V31.3805L7.55601 31.136C7.55201 31.134 7.548 31.1326 7.54399 31.1306C7.54933 31.1286 7.55535 31.126 7.56002 31.124L8.12384 30.8801L8.12451 30.8808Z" fill="#D11242"/>
<path d="M8.26079 28.9889C8.28617 28.9448 8.34496 28.886 8.43782 28.8125L8.92414 28.4264V27.7277L8.31623 28.2374C8.20534 28.3329 8.12585 28.4217 8.07708 28.5059C8.03833 28.3877 7.98355 28.2895 7.91274 28.214C7.81655 28.1104 7.69897 28.0577 7.56403 28.0577C7.20997 28.0577 7.03027 28.3583 7.03027 28.9502V29.8273H8.92414V29.2327H8.22471V29.1232C8.22471 29.0751 8.23674 29.031 8.26079 28.9882V28.9889ZM7.41105 29.2334V29.0196C7.41105 28.6783 7.56203 28.6783 7.61146 28.6783C7.67559 28.6783 7.72837 28.7077 7.77179 28.7685C7.81855 28.8326 7.8426 28.9201 7.8426 29.029V29.2341H7.41105V29.2334Z" fill="#D11242"/>
<path d="M8.01608 27.399C8.30066 27.399 8.5318 27.2874 8.70214 27.0663C8.87049 26.8492 8.95533 26.5533 8.95533 26.1865C8.95533 25.9039 8.92193 25.6715 8.85646 25.4944L8.84577 25.4657H8.39351L8.42157 25.5272C8.49639 25.6948 8.53447 25.8839 8.53447 26.0876C8.53447 26.2914 8.48303 26.4724 8.38216 26.596C8.28195 26.7183 8.15302 26.7777 7.98869 26.7777C7.82435 26.7777 7.68607 26.7149 7.58119 26.5853C7.47564 26.4551 7.4222 26.2767 7.4222 26.0556C7.4222 25.8592 7.45693 25.6815 7.52507 25.5272L7.55246 25.4657H7.0795L7.07014 25.4978C7.02338 25.6574 7 25.8578 7 26.093C7 26.4731 7.09419 26.7877 7.28124 27.0296C7.47029 27.2747 7.71747 27.399 8.01608 27.399Z" fill="#D11242"/>
<path d="M8.92414 24.5491H8.17929V23.6239H8.92414V23.03H7.03027V23.6239H7.7591V24.5491H7.03027V25.1437H8.92414V24.5491Z" fill="#D11242"/>
<path d="M27.5303 38.6541L26.7173 40.578H27.3065L27.4621 40.1578H28.1689L28.3272 40.578H28.9185L28.1215 38.6541H27.5303ZM27.8109 39.1918L28.028 39.7657H27.5937L27.8109 39.1918Z" fill="#939598"/>
<path d="M31.5907 38.6541L30.8425 40.4243L30.5031 39.9627C30.417 39.8478 30.3368 39.7663 30.26 39.7162C30.3669 39.6761 30.455 39.62 30.5238 39.5479C30.616 39.4503 30.6621 39.3321 30.6621 39.1965C30.6621 38.8371 30.3929 38.6541 29.8612 38.6541H29.0742V40.578H29.6153V39.8679H29.7068C29.7469 39.8679 29.785 39.8792 29.8217 39.9033C29.8485 39.92 29.8966 39.9654 29.9774 40.0816L30.3228 40.578H31.3662L31.5219 40.1578H32.2287L32.3877 40.578H32.9782L32.1812 38.6541H31.59H31.5907ZM31.8713 39.1918L32.0884 39.7657H31.6542L31.8713 39.1918ZM30.0976 39.2446C30.0976 39.3114 30.0716 39.3648 30.0175 39.4103C29.962 39.4564 29.8859 39.4797 29.7917 39.4797H29.6153V39.0415H29.7997C30.0669 39.0415 30.0976 39.1577 30.0976 39.2453V39.2446Z" fill="#939598"/>
<path d="M34.4253 39.7877C34.4099 39.8258 34.3945 39.8672 34.3792 39.9133C34.3665 39.8732 34.3511 39.8325 34.3338 39.7904L33.8655 38.654H33.1333V40.578H33.631V39.4958C33.631 39.4483 33.631 39.4009 33.6296 39.3535L34.1467 40.5773H34.5662L35.0726 39.3515C35.0726 39.3755 35.0719 39.3982 35.0719 39.4196V40.5773H35.6084V38.6534H34.8942L34.4246 39.787L34.4253 39.7877Z" fill="#939598"/>
<path d="M36.5742 38.6541L35.7612 40.578H36.3504L36.5061 40.1578H37.2129L37.3712 40.578H37.9624L37.1654 38.6541H36.5742ZM36.8548 39.1925L37.0719 39.7663H36.6377L36.8548 39.1925Z" fill="#939598"/>
<path d="M40.7587 38.6541H40.0993L39.4928 39.423V38.6541H38.9517V40.578H39.4928V39.7817L40.1301 40.578H40.8208L39.9624 39.5746L40.7587 38.6541Z" fill="#939598"/>
<path d="M42.1489 39.785C42.1489 40.0556 42.0333 40.1818 41.7842 40.1818C41.535 40.1818 41.4127 40.0502 41.4127 39.7683V38.6547H40.8696V39.7663C40.8696 40.3261 41.1709 40.6101 41.7655 40.6101C42.36 40.6101 42.6914 40.3188 42.6914 39.745V38.6547H42.1496V39.7857L42.1489 39.785Z" fill="#939598"/>
<path d="M44.2512 39.7169C44.3581 39.6768 44.4463 39.6207 44.5151 39.5486C44.6072 39.451 44.6533 39.3328 44.6533 39.1972C44.6533 38.8378 44.3841 38.6547 43.8524 38.6547H43.0654V40.5787H43.6065V39.8685H43.6981C43.7381 39.8685 43.7762 39.8799 43.813 39.9039C43.8397 39.9206 43.8878 39.9661 43.9686 40.0823L44.314 40.5787H44.9459L44.4944 39.9634C44.4082 39.8485 44.328 39.767 44.2512 39.7169ZM43.6065 39.0415H43.7909C44.0581 39.0415 44.0889 39.1578 44.0889 39.2453C44.0889 39.3121 44.0628 39.3655 44.0087 39.4109C43.9532 39.457 43.8771 39.4804 43.7829 39.4804H43.6065V39.0422V39.0415Z" fill="#939598"/>
<path d="M46.5098 38.6541H44.7603V39.0642H45.3628V40.578H45.9053V39.0642H46.5098V38.6541Z" fill="#939598"/>
<path d="M47.0591 38.6541L46.2461 40.578H46.8346L46.9903 40.1578H47.6971L47.8561 40.578H48.4473L47.6496 38.6541H47.0591ZM47.3397 39.1925L47.5568 39.7663H47.1226L47.339 39.1925H47.3397Z" fill="#939598"/>
<path d="M49.7883 39.7169C49.8952 39.6768 49.9834 39.6207 50.0522 39.5486C50.1444 39.451 50.1905 39.3328 50.1905 39.1972C50.1905 38.8378 49.9212 38.6547 49.3895 38.6547H48.6025V40.5787H49.1436V39.8685H49.2352C49.2752 39.8685 49.3133 39.8799 49.3501 39.9039C49.3768 39.9206 49.4249 39.9661 49.5057 40.0823L49.8511 40.5787H50.483L50.0315 39.9634C49.9453 39.8485 49.8651 39.767 49.7883 39.7169ZM49.626 39.2453C49.626 39.3121 49.5999 39.3655 49.5458 39.4109C49.4904 39.457 49.4142 39.4804 49.32 39.4804H49.1436V39.0422H49.328C49.5952 39.0422 49.626 39.1584 49.626 39.2459V39.2453Z" fill="#939598"/>
<path d="M51.8479 39.7877C51.8326 39.8258 51.8172 39.8672 51.8019 39.9133C51.7898 39.8732 51.7745 39.8325 51.7571 39.7904L51.2888 38.654H50.5566V40.578H51.0543V39.4958C51.0543 39.4483 51.0543 39.4009 51.053 39.3535L51.57 40.5773H51.9896L52.4959 39.3515C52.4959 39.3755 52.4953 39.3982 52.4953 39.4196V40.5773H53.031V38.6534H52.3169L51.8473 39.787L51.8479 39.7877Z" fill="#939598"/>
<path d="M53.9976 38.6541L53.1846 40.578H53.7738L53.9294 40.1578H54.6362L54.7952 40.578H55.3864L54.5888 38.6541H53.9982H53.9976ZM54.0617 39.7657L54.2788 39.1918L54.4959 39.7657H54.0617Z" fill="#939598"/>
<path d="M55.4037 28.1706L55.3576 28.1653V28.4846L55.3917 28.4899C55.4458 28.4993 55.5173 28.528 55.5173 28.6703C55.5173 28.8126 55.4505 28.844 55.393 28.8514L55.3569 28.856V29.1733L55.4004 29.1713C55.5193 29.1653 55.6161 29.1146 55.6876 29.0197C55.7571 28.9275 55.7925 28.8113 55.7925 28.6737C55.7925 28.536 55.7578 28.4198 55.6896 28.3303C55.6201 28.2381 55.5233 28.1847 55.403 28.17L55.4037 28.1706Z" fill="#939598"/>
<path d="M56.9075 38.6341C56.2942 38.6341 55.9829 39.0316 55.9829 39.8165V40.5981H57.8768V39.8192C57.8768 39.4745 57.7886 39.1892 57.6136 38.9694C57.4365 38.747 57.1987 38.6341 56.9068 38.6341H56.9075ZM57.474 40.055H56.3864V39.8526C56.3864 39.6575 56.4345 39.4979 56.528 39.3776C56.6209 39.2587 56.7465 39.2013 56.9135 39.2013C57.0805 39.2013 57.2214 39.2574 57.3223 39.3716C57.4232 39.4858 57.4746 39.6475 57.4746 39.8519V40.0563L57.474 40.055Z" fill="#939598"/>
<path d="M57.474 37.5866H57.1252V36.8798H56.7231V37.5866H56.3864V36.8264H55.9829V38.1297H57.8774V36.7769H57.474V37.5866Z" fill="#939598"/>
<path d="M57.0294 35.0434C56.9906 34.9359 56.9352 34.847 56.8644 34.7782C56.7682 34.6853 56.6519 34.6379 56.5176 34.6379C56.1636 34.6379 55.9839 34.9098 55.9839 35.4449V36.2379H57.8778V35.6947H57.1783V35.6006C57.1783 35.5591 57.1897 35.5211 57.2131 35.4836C57.2304 35.4563 57.2745 35.4075 57.3894 35.326L57.8771 34.9773V34.342L57.2712 34.7982C57.159 34.8844 57.0788 34.9653 57.0294 35.0427V35.0434ZM56.7962 35.6947H56.3647V35.507C56.3647 35.2358 56.4789 35.2044 56.5651 35.2044C56.6299 35.2044 56.6826 35.2305 56.7274 35.2846C56.7728 35.3414 56.7962 35.4188 56.7962 35.515V35.6941V35.6947Z" fill="#939598"/>
<path d="M55.9829 32.5116H57.0564C57.0965 32.5116 57.1326 32.5116 57.1647 32.5102C57.1553 32.5169 57.146 32.5242 57.1359 32.5323L55.9829 33.4174V33.9799H57.8768V33.4602H56.8059C56.7538 33.4602 56.7071 33.4608 56.6663 33.4622C56.675 33.4555 56.6837 33.4488 56.6924 33.4428L57.8774 32.5242V31.9925H55.9836V32.5122L55.9829 32.5116Z" fill="#939598"/>
<path d="M57.474 30.9904H57.1252V30.2843H56.7231V30.9904H56.3864V30.2302H55.9829V31.5336H57.8774V30.1808H57.474V30.9904Z" fill="#939598"/>
<path d="M56.9592 29.78C57.2524 29.78 57.4869 29.6751 57.6566 29.4687C57.8236 29.2642 57.9091 28.9843 57.9091 28.6349C57.9091 28.325 57.8564 28.0598 57.7515 27.846L57.7394 27.8206H56.7701V28.7959H57.1669V28.3644H57.4629C57.4849 28.4299 57.4956 28.5134 57.4956 28.6116C57.4956 28.7986 57.4462 28.9476 57.3486 29.0545C57.2511 29.1614 57.1175 29.2128 56.9398 29.2128C56.7621 29.2128 56.6298 29.1553 56.5243 29.0358C56.4187 28.9169 56.3653 28.7579 56.3653 28.5641C56.3653 28.333 56.4054 28.1353 56.4829 27.9763L56.5143 27.9135H56.046L56.0366 27.9442C55.9812 28.1179 55.9531 28.3236 55.9531 28.5541C55.9531 28.9175 56.0467 29.2148 56.231 29.4386C56.4167 29.6651 56.6619 29.7793 56.9592 29.7793V29.78Z" fill="#939598"/>
<path d="M57.8767 26.8574H55.9849V27.3758H57.8767V26.8574Z" fill="#939598"/>
<path d="M55.7885 26.9107H55.3623V27.3135H55.7885V26.9107Z" fill="#939598"/>
<path d="M13.5149 24.0609C13.6205 24.0228 13.708 23.9674 13.7755 23.8979C13.8663 23.8031 13.9124 23.6888 13.9124 23.5559C13.9124 23.2072 13.6465 23.0295 13.1221 23.0295H12.3452V24.8966H12.8783V24.2072H12.9698C13.0099 24.2072 13.0473 24.2186 13.0834 24.2413C13.1094 24.258 13.1575 24.3021 13.2377 24.415L13.5784 24.8966H14.2017L13.7554 24.2994C13.6706 24.1885 13.5918 24.109 13.5156 24.0609H13.5149ZM13.3559 23.6033C13.3559 23.6675 13.3299 23.7196 13.2765 23.763C13.2217 23.8077 13.1462 23.8305 13.0527 23.8305H12.8783V23.4056H13.0613C13.3259 23.4056 13.3566 23.5185 13.3566 23.6033H13.3559Z" fill="#D11242"/>
<path d="M14.8091 24.1557H15.5006V23.7596H14.8091V23.4276H15.5527V23.0301H14.2754V24.8972H15.6014V24.4998H14.8091V24.1557Z" fill="#D11242"/>
<path d="M16.6832 23.7776C16.4694 23.6975 16.3906 23.6527 16.3625 23.6287C16.3271 23.5979 16.3104 23.5672 16.3104 23.5345C16.3104 23.5091 16.3178 23.471 16.3852 23.4363C16.444 23.4056 16.5262 23.3902 16.6284 23.3902C16.8081 23.3902 16.9664 23.4289 17.0987 23.5058L17.1648 23.5438V23.0796L17.1348 23.0695C16.9925 23.0234 16.8141 22.9994 16.6064 22.9994C16.3552 22.9994 16.1494 23.0482 15.9951 23.1437C15.8341 23.2432 15.752 23.3848 15.752 23.5659C15.752 23.8104 15.9263 23.9974 16.2717 24.1217C16.5229 24.2105 16.6117 24.2613 16.6418 24.2874C16.6812 24.3221 16.6999 24.3562 16.6999 24.3916C16.6999 24.417 16.6925 24.455 16.6297 24.4911C16.5756 24.5225 16.4908 24.5392 16.3779 24.5392C16.1741 24.5392 15.9898 24.4818 15.8294 24.3689L15.76 24.3201V24.8131L15.7867 24.8245C15.9443 24.8926 16.1488 24.9267 16.3926 24.9267C16.6618 24.9267 16.8736 24.8792 17.0225 24.785C17.1775 24.6875 17.2564 24.5439 17.2564 24.3582C17.2564 24.2312 17.2136 24.1197 17.1281 24.0275C17.0446 23.9373 16.8983 23.8551 16.6825 23.7763L16.6832 23.7776Z" fill="#D11242"/>
<path d="M18.5429 23.0001C18.2068 23.0001 17.9283 23.0943 17.7145 23.2793C17.4987 23.4657 17.3892 23.7088 17.3892 24.0021C17.3892 24.2954 17.488 24.5085 17.6818 24.6768C17.8742 24.8438 18.136 24.9287 18.4607 24.9287C18.7105 24.9287 18.9163 24.8953 19.0733 24.8298L19.1 24.8184V24.3709L19.0365 24.4023C18.8902 24.4757 18.7259 24.5125 18.5475 24.5125C18.3692 24.5125 18.2135 24.4631 18.106 24.3649C17.9984 24.266 17.9456 24.1384 17.9456 23.9747C17.9456 23.8111 18.0011 23.6748 18.1153 23.5719C18.2289 23.469 18.3839 23.4169 18.5763 23.4169C18.7473 23.4169 18.9029 23.451 19.0372 23.5178L19.1007 23.5492V23.0796L19.0706 23.0702C18.929 23.0234 18.7519 23.0001 18.5435 23.0001H18.5429Z" fill="#D11242"/>
<path d="M20.6238 24.127C20.6238 24.3895 20.5089 24.5118 20.2624 24.5118C20.0159 24.5118 19.8943 24.3849 19.8943 24.111V23.0301H19.3599V24.109C19.3599 24.6521 19.6571 24.928 20.243 24.928C20.8289 24.928 21.1562 24.6454 21.1562 24.0883V23.0301H20.6231V24.127H20.6238Z" fill="#D11242"/>
<path d="M22.0621 24.1557H22.7535V23.7596H22.0621V23.4276H22.8056V23.0301H21.5283V24.8972H22.8544V24.4998H22.0621V24.1557Z" fill="#D11242"/>
<path d="M24.488 23.0301L23.6851 24.8972H24.2649L24.4192 24.4897H25.1187L25.2756 24.8972H25.8575L25.0699 23.0301H24.488ZM24.7646 23.5498C24.7646 23.5498 24.7646 23.5505 24.7646 23.5512L24.9797 24.109H24.5495L24.7646 23.5498Z" fill="#D11242"/>
<path d="M26.8378 23.7776C26.624 23.6975 26.5459 23.6527 26.5178 23.6287C26.4824 23.5979 26.4657 23.5672 26.4657 23.5345C26.4657 23.5091 26.4737 23.471 26.5405 23.4363C26.5993 23.4056 26.6815 23.3902 26.7837 23.3902C26.9634 23.3902 27.1217 23.4289 27.254 23.5058L27.3201 23.5438V23.0796L27.2901 23.0695C27.1478 23.0234 26.9701 22.9994 26.7616 22.9994C26.5105 22.9994 26.3047 23.0482 26.1504 23.1437C25.9894 23.2432 25.9072 23.3848 25.9072 23.5659C25.9072 23.8104 26.0823 23.9974 26.427 24.1217C26.6781 24.2105 26.767 24.2613 26.797 24.2874C26.8365 24.3221 26.8558 24.3562 26.8558 24.3916C26.8558 24.417 26.8485 24.455 26.7857 24.4911C26.7316 24.5225 26.6467 24.5392 26.5338 24.5392C26.3294 24.5392 26.145 24.4818 25.9854 24.3689L25.9159 24.3201V24.8131L25.9426 24.8245C26.101 24.8926 26.3047 24.9267 26.5485 24.9267C26.8178 24.9267 27.0295 24.8792 27.1785 24.785C27.3335 24.6875 27.4123 24.5439 27.4123 24.3582C27.4123 24.2312 27.3695 24.1197 27.284 24.0275C27.2005 23.9373 27.0542 23.8551 26.8378 23.7763V23.7776Z" fill="#D11242"/>
<path d="M28.5019 23.7776C28.2881 23.6975 28.2093 23.6527 28.1812 23.6287C28.1458 23.5979 28.1291 23.5672 28.1291 23.5345C28.1291 23.5091 28.1364 23.471 28.2039 23.4363C28.2627 23.4056 28.3449 23.3902 28.4471 23.3902C28.6268 23.3902 28.7851 23.4289 28.9174 23.5058L28.9835 23.5438V23.0796L28.9534 23.0695C28.8105 23.0234 28.6328 22.9994 28.425 22.9994C28.1739 22.9994 27.9681 23.0482 27.8138 23.1437C27.6528 23.2432 27.5713 23.3848 27.5713 23.5659C27.5713 23.8104 27.7456 23.9974 28.0903 24.1217C28.3415 24.2105 28.4304 24.2613 28.4604 24.2874C28.4999 24.3221 28.5186 24.3562 28.5186 24.3916C28.5186 24.417 28.5112 24.455 28.4484 24.4911C28.3943 24.5225 28.3095 24.5392 28.1966 24.5392C27.9928 24.5392 27.8084 24.4818 27.6481 24.3689L27.5793 24.3201V24.8131L27.606 24.8245C27.7637 24.8926 27.9681 24.9267 28.2119 24.9267C28.4811 24.9267 28.6929 24.8792 28.8419 24.785C28.9969 24.6875 29.0757 24.5439 29.0757 24.3582C29.0757 24.2312 29.0329 24.1197 28.9474 24.0275C28.8639 23.9373 28.7183 23.8551 28.5019 23.7763V23.7776Z" fill="#D11242"/>
<path d="M30.2969 23.0001C29.9722 23.0001 29.7077 23.0922 29.5086 23.2746C29.3089 23.4577 29.208 23.6975 29.208 23.9874C29.208 24.2773 29.3069 24.4911 29.5033 24.6661C29.6983 24.8405 29.9535 24.9287 30.2628 24.9287C30.5721 24.9287 30.84 24.8378 31.0371 24.6581C31.2348 24.4777 31.3357 24.2399 31.3357 23.9507C31.3357 23.6614 31.2395 23.4436 31.0484 23.2666C30.8587 23.0902 30.6055 23.0007 30.2969 23.0007V23.0001ZM30.6463 24.3682C30.5568 24.4651 30.4338 24.5118 30.2708 24.5118C30.1078 24.5118 29.9903 24.4631 29.9001 24.3615C29.8099 24.2606 29.7638 24.127 29.7638 23.966C29.7638 23.805 29.8106 23.6681 29.9034 23.5666C29.9956 23.465 30.1199 23.4156 30.2829 23.4156C30.4459 23.4156 30.5628 23.4637 30.6496 23.5619C30.7365 23.6607 30.7806 23.799 30.7806 23.972C30.7806 24.1451 30.7351 24.2707 30.6463 24.3669V24.3682Z" fill="#D11242"/>
<path d="M32.6242 23.0001C32.2882 23.0001 32.0096 23.0943 31.7959 23.2793C31.5801 23.4657 31.4712 23.7088 31.4712 24.0021C31.4712 24.2954 31.5694 24.5085 31.7638 24.6768C31.9562 24.8438 32.218 24.9287 32.5427 24.9287C32.7926 24.9287 32.9983 24.8953 33.1553 24.8298L33.182 24.8184V24.3709L33.1186 24.4023C32.9723 24.4757 32.8079 24.5125 32.6296 24.5125C32.4512 24.5125 32.2955 24.4631 32.188 24.3649C32.0804 24.266 32.0277 24.1384 32.0277 23.9747C32.0277 23.8111 32.0831 23.6748 32.1973 23.5719C32.3109 23.469 32.4659 23.4169 32.6583 23.4169C32.8293 23.4169 32.985 23.451 33.1192 23.5178L33.1827 23.5492V23.0796L33.1526 23.0702C33.011 23.0234 32.834 23.0001 32.6256 23.0001H32.6242Z" fill="#D11242"/>
<path d="M33.9304 23.0314H33.4214V24.8966H33.9304V23.0314Z" fill="#D11242"/>
<path d="M34.8293 23.0301L34.0264 24.8972H34.6069L34.7612 24.4897H35.4606L35.617 24.8972H36.1995L35.4112 23.0301H34.8293ZM35.1059 23.5498C35.1059 23.5498 35.1059 23.5505 35.1059 23.5512L35.321 24.109H34.8908L35.1059 23.5498Z" fill="#D11242"/>
<path d="M35.9482 23.4276H36.5435V24.8972H37.0786V23.4276H37.6751V23.0301H35.9482V23.4276Z" fill="#D11242"/>
<path d="M38.3413 23.0314H37.8315V24.8966H38.3413V23.0314Z" fill="#D11242"/>
<path d="M39.6426 23.0001C39.3186 23.0001 39.0534 23.0922 38.855 23.2746C38.6553 23.4577 38.5537 23.6975 38.5537 23.9874C38.5537 24.2773 38.6532 24.4911 38.849 24.6661C39.0434 24.8405 39.2992 24.9287 39.6085 24.9287C39.9178 24.9287 40.1857 24.8378 40.3828 24.6581C40.5805 24.4777 40.6814 24.2399 40.6814 23.9507C40.6814 23.6614 40.5845 23.4436 40.3941 23.2666C40.2044 23.0902 39.9512 23.0007 39.6426 23.0007V23.0001ZM40.1263 23.9734C40.1263 24.1391 40.0815 24.272 39.9927 24.3682C39.9031 24.4651 39.7802 24.5118 39.6172 24.5118C39.4542 24.5118 39.3366 24.4631 39.2465 24.3615C39.1563 24.2606 39.1102 24.127 39.1102 23.966C39.1102 23.805 39.1569 23.6681 39.2491 23.5666C39.342 23.465 39.4662 23.4156 39.6292 23.4156C39.7922 23.4156 39.9091 23.4637 39.996 23.5619C40.0828 23.6607 40.1269 23.799 40.1269 23.972L40.1263 23.9734Z" fill="#D11242"/>
<path d="M42.3837 23.0301V24.0883C42.3837 24.127 42.3844 24.1617 42.385 24.1925C42.379 24.1844 42.3717 24.1758 42.365 24.1664L41.4986 23.0301H40.9468V24.8972H41.4572V23.8417C41.4572 23.7916 41.4572 23.7462 41.4552 23.7061C41.4612 23.7135 41.4672 23.7208 41.4732 23.7295L42.3717 24.8979H42.8934V23.0301H42.383H42.3837Z" fill="#D11242"/>
<path d="M11.2933 23.9681L11.1323 24.1992H11.0923L10.9339 23.9995V23.9814C11.153 23.8659 11.2138 23.6581 11.2138 23.6581V23.4243C11.2138 23.1096 10.7723 23.0669 10.7723 23.0669H10.6954C10.2753 23.0669 10.2145 23.5051 10.2145 23.5051V23.5973C10.2252 23.765 10.3708 23.9413 10.3708 23.9413V23.9594C10.0321 24.0696 9.99268 24.3822 9.99268 24.3822V24.5132C9.99268 24.8779 10.4763 24.9548 10.4763 24.9548H10.6747C10.8117 24.9548 11.0154 24.8178 11.0154 24.8178H11.0742L11.1377 24.9334H11.6741V24.8786L11.3515 24.4978L11.7289 23.9701L11.2933 23.9674V23.9681ZM10.6834 24.6194H10.5872C10.5872 24.6194 10.4576 24.6328 10.4129 24.4564V24.3989C10.4129 24.3989 10.5004 24.2286 10.5872 24.2206L10.8357 24.5225C10.8357 24.5225 10.7957 24.5987 10.6834 24.6201V24.6194ZM10.8792 23.5632C10.8792 23.5632 10.8591 23.7049 10.7562 23.7436H10.7335C10.6306 23.7055 10.6106 23.5632 10.6106 23.5632V23.5238C10.6106 23.5238 10.6253 23.451 10.6974 23.4343L10.6961 23.4243H10.7736C10.8725 23.4243 10.8792 23.5245 10.8792 23.5245V23.5639V23.5632Z" fill="#D11242"/>
<path d="M10.7471 23.7282L10.7484 23.7309L10.7477 23.7275L10.7471 23.7282Z" fill="#D11242"/>
</g>
<defs>
<clipPath id="clip0_12_76465">
<rect width="50.9087" height="17.61" fill="white" transform="translate(7 23)"/>
</clipPath>
</defs>
</svg>
