<svg width="186" height="60" viewBox="0 0 186 60" fill="none" xmlns="http://www.w3.org/2000/svg">
<g clip-path="url(#clip0_12_82428)">
<path d="M4.185 14.59H17.1C19.71 14.59 21.75 15.325 23.22 16.795C24.72 18.265 25.47 20.23 25.47 22.69C25.47 23.86 25.305 24.85 24.975 25.66C24.645 26.47 24.225 27.145 23.715 27.685C23.205 28.195 22.65 28.585 22.05 28.855C21.45 29.095 20.895 29.26 20.385 29.35V29.62C20.955 29.65 21.585 29.8 22.275 30.07C22.995 30.34 23.67 30.775 24.3 31.375C24.93 31.945 25.455 32.695 25.875 33.625C26.325 34.525 26.55 35.62 26.55 36.91C26.55 38.2 26.34 39.4 25.92 40.51C25.53 41.62 24.975 42.58 24.255 43.39C23.535 44.2 22.68 44.845 21.69 45.325C20.7 45.775 19.62 46 18.45 46H4.185V14.59ZM7.965 42.67H17.28C18.9 42.67 20.175 42.265 21.105 41.455C22.035 40.615 22.5 39.4 22.5 37.81V36.28C22.5 34.69 22.035 33.49 21.105 32.68C20.175 31.84 18.9 31.42 17.28 31.42H7.965V42.67ZM7.965 28.18H16.65C18.15 28.18 19.32 27.805 20.16 27.055C21 26.305 21.42 25.225 21.42 23.815V22.285C21.42 20.875 21 19.795 20.16 19.045C19.32 18.295 18.15 17.92 16.65 17.92H7.965V28.18ZM34.5744 17.335C33.7944 17.335 33.2244 17.155 32.8644 16.795C32.5344 16.405 32.3694 15.91 32.3694 15.31V14.725C32.3694 14.125 32.5344 13.645 32.8644 13.285C33.2244 12.895 33.7944 12.7 34.5744 12.7C35.3544 12.7 35.9094 12.895 36.2394 13.285C36.5994 13.645 36.7794 14.125 36.7794 14.725V15.31C36.7794 15.91 36.5994 16.405 36.2394 16.795C35.9094 17.155 35.3544 17.335 34.5744 17.335ZM32.7744 22.78H36.3744V46H32.7744V22.78ZM63.1494 48.565C63.1494 50.965 62.2044 52.72 60.3144 53.83C58.4544 54.97 55.6494 55.54 51.8994 55.54C48.2694 55.54 45.6594 55.045 44.0694 54.055C42.4794 53.065 41.6844 51.655 41.6844 49.825C41.6844 48.565 42.0144 47.575 42.6744 46.855C43.3344 46.165 44.2344 45.655 45.3744 45.325V44.83C43.9944 44.17 43.3044 43.09 43.3044 41.59C43.3044 40.42 43.6794 39.535 44.4294 38.935C45.1794 38.305 46.1394 37.84 47.3094 37.54V37.36C45.9294 36.7 44.8494 35.755 44.0694 34.525C43.3194 33.295 42.9444 31.87 42.9444 30.25C42.9444 29.08 43.1544 28 43.5744 27.01C43.9944 26.02 44.5794 25.18 45.3294 24.49C46.1094 23.77 47.0244 23.215 48.0744 22.825C49.1544 22.435 50.3544 22.24 51.6744 22.24C53.3244 22.24 54.7944 22.54 56.0844 23.14V22.735C56.0844 21.835 56.2944 21.1 56.7144 20.53C57.1344 19.93 57.8244 19.63 58.7844 19.63H62.2494V22.78H57.8394V24.265C58.6794 24.985 59.3244 25.855 59.7744 26.875C60.2544 27.865 60.4944 28.99 60.4944 30.25C60.4944 31.42 60.2844 32.5 59.8644 33.49C59.4444 34.48 58.8444 35.335 58.0644 36.055C57.3144 36.745 56.3994 37.285 55.3194 37.675C54.2394 38.065 53.0394 38.26 51.7194 38.26C50.9694 38.26 50.2194 38.185 49.4694 38.035C48.6894 38.245 47.9844 38.56 47.3544 38.98C46.7244 39.37 46.4094 39.925 46.4094 40.645C46.4094 41.335 46.7394 41.8 47.3994 42.04C48.0594 42.28 48.9144 42.4 49.9644 42.4H54.9144C57.7944 42.4 59.8794 42.955 61.1694 44.065C62.4894 45.145 63.1494 46.645 63.1494 48.565ZM59.7744 48.835C59.7744 47.905 59.4144 47.155 58.6944 46.585C58.0044 46.045 56.7594 45.775 54.9594 45.775H47.2194C45.7794 46.435 45.0594 47.485 45.0594 48.925C45.0594 49.945 45.4344 50.815 46.1844 51.535C46.9644 52.255 48.2694 52.615 50.0994 52.615H53.4294C55.4394 52.615 56.9994 52.3 58.1094 51.67C59.2194 51.04 59.7744 50.095 59.7744 48.835ZM51.7194 35.38C53.2494 35.38 54.4644 35.02 55.3644 34.3C56.2644 33.55 56.7144 32.41 56.7144 30.88V29.62C56.7144 28.09 56.2644 26.965 55.3644 26.245C54.4644 25.495 53.2494 25.12 51.7194 25.12C50.1894 25.12 48.9744 25.495 48.0744 26.245C47.1744 26.965 46.7244 28.09 46.7244 29.62V30.88C46.7244 32.41 47.1744 33.55 48.0744 34.3C48.9744 35.02 50.1894 35.38 51.7194 35.38ZM67.2588 14.59H80.1738C82.7838 14.59 84.8238 15.325 86.2938 16.795C87.7938 18.265 88.5438 20.23 88.5438 22.69C88.5438 23.86 88.3788 24.85 88.0488 25.66C87.7188 26.47 87.2988 27.145 86.7888 27.685C86.2788 28.195 85.7238 28.585 85.1238 28.855C84.5238 29.095 83.9688 29.26 83.4588 29.35V29.62C84.0288 29.65 84.6588 29.8 85.3488 30.07C86.0688 30.34 86.7438 30.775 87.3738 31.375C88.0038 31.945 88.5288 32.695 88.9488 33.625C89.3988 34.525 89.6238 35.62 89.6238 36.91C89.6238 38.2 89.4138 39.4 88.9938 40.51C88.6038 41.62 88.0488 42.58 87.3288 43.39C86.6088 44.2 85.7538 44.845 84.7638 45.325C83.7738 45.775 82.6938 46 81.5238 46H67.2588V14.59ZM71.0388 42.67H80.3538C81.9738 42.67 83.2488 42.265 84.1788 41.455C85.1088 40.615 85.5738 39.4 85.5738 37.81V36.28C85.5738 34.69 85.1088 33.49 84.1788 32.68C83.2488 31.84 81.9738 31.42 80.3538 31.42H71.0388V42.67ZM71.0388 28.18H79.7238C81.2238 28.18 82.3938 27.805 83.2338 27.055C84.0738 26.305 84.4938 25.225 84.4938 23.815V22.285C84.4938 20.875 84.0738 19.795 83.2338 19.045C82.3938 18.295 81.2238 17.92 79.7238 17.92H71.0388V28.18ZM112.723 46C111.373 46 110.398 45.64 109.798 44.92C109.228 44.2 108.868 43.3 108.718 42.22H108.493C107.983 43.66 107.143 44.74 105.973 45.46C104.803 46.18 103.408 46.54 101.788 46.54C99.3282 46.54 97.4082 45.91 96.0282 44.65C94.6782 43.39 94.0032 41.68 94.0032 39.52C94.0032 37.33 94.7982 35.65 96.3882 34.48C98.0082 33.31 100.513 32.725 103.903 32.725H108.493V30.43C108.493 28.78 108.043 27.52 107.143 26.65C106.243 25.78 104.863 25.345 103.003 25.345C101.593 25.345 100.408 25.66 99.4482 26.29C98.5182 26.92 97.7382 27.76 97.1082 28.81L94.9482 26.785C95.5782 25.525 96.5832 24.46 97.9632 23.59C99.3432 22.69 101.083 22.24 103.183 22.24C106.003 22.24 108.193 22.93 109.753 24.31C111.313 25.69 112.093 27.61 112.093 30.07V42.85H114.748V46H112.723ZM102.373 43.48C103.273 43.48 104.098 43.375 104.848 43.165C105.598 42.955 106.243 42.655 106.783 42.265C107.323 41.875 107.743 41.425 108.043 40.915C108.343 40.405 108.493 39.85 108.493 39.25V35.425H103.723C101.653 35.425 100.138 35.725 99.1782 36.325C98.2482 36.925 97.7832 37.795 97.7832 38.935V39.88C97.7832 41.02 98.1882 41.905 98.9982 42.535C99.8382 43.165 100.963 43.48 102.373 43.48ZM119.436 46V22.78H123.036V26.56H123.216C123.786 25.24 124.581 24.19 125.601 23.41C126.651 22.63 128.046 22.24 129.786 22.24C132.186 22.24 134.076 23.02 135.456 24.58C136.866 26.11 137.571 28.285 137.571 31.105V46H133.971V31.735C133.971 27.565 132.216 25.48 128.706 25.48C127.986 25.48 127.281 25.57 126.591 25.75C125.931 25.93 125.331 26.2 124.791 26.56C124.251 26.92 123.816 27.385 123.486 27.955C123.186 28.495 123.036 29.14 123.036 29.89V46H119.436ZM144.563 12.7H148.163V33.805H148.343L151.898 29.845L158.468 22.78H162.833L154.238 31.96L163.688 46H159.323L151.628 34.165L148.163 37.72V46H144.563V12.7Z" fill="#005FAE"/>
<path d="M177.76 23.22C176.827 23.22 175.953 23.0533 175.14 22.72C174.327 22.3867 173.62 21.9133 173.02 21.3C172.42 20.6733 171.947 19.9133 171.6 19.02C171.253 18.1267 171.08 17.1267 171.08 16.02C171.08 14.9133 171.253 13.9133 171.6 13.02C171.947 12.1267 172.42 11.3733 173.02 10.76C173.62 10.1333 174.327 9.65333 175.14 9.32C175.953 8.98667 176.827 8.82 177.76 8.82C178.693 8.82 179.567 8.98667 180.38 9.32C181.193 9.65333 181.9 10.1333 182.5 10.76C183.1 11.3733 183.573 12.1267 183.92 13.02C184.267 13.9133 184.44 14.9133 184.44 16.02C184.44 17.1267 184.267 18.1267 183.92 19.02C183.573 19.9133 183.1 20.6733 182.5 21.3C181.9 21.9133 181.193 22.3867 180.38 22.72C179.567 23.0533 178.693 23.22 177.76 23.22ZM177.76 22.02C178.533 22.02 179.247 21.8867 179.9 21.62C180.553 21.34 181.113 20.96 181.58 20.48C182.06 20 182.427 19.4333 182.68 18.78C182.947 18.1133 183.08 17.3933 183.08 16.62V15.42C183.08 14.6467 182.947 13.9333 182.68 13.28C182.427 12.6133 182.06 12.04 181.58 11.56C181.113 11.08 180.553 10.7067 179.9 10.44C179.247 10.16 178.533 10.02 177.76 10.02C176.973 10.02 176.253 10.16 175.6 10.44C174.96 10.7067 174.4 11.08 173.92 11.56C173.453 12.04 173.087 12.6133 172.82 13.28C172.567 13.9333 172.44 14.6467 172.44 15.42V16.62C172.44 17.3933 172.567 18.1133 172.82 18.78C173.087 19.4333 173.453 20 173.92 20.48C174.4 20.96 174.96 21.34 175.6 21.62C176.253 21.8867 176.973 22.02 177.76 22.02ZM177.92 19.9C176.88 19.9 176.067 19.5533 175.48 18.86C174.907 18.1533 174.62 17.2067 174.62 16.02C174.62 14.8333 174.907 13.8933 175.48 13.2C176.067 12.4933 176.88 12.14 177.92 12.14C178.6 12.14 179.153 12.3 179.58 12.62C180.02 12.94 180.353 13.36 180.58 13.88L179.44 14.52C179.293 14.1733 179.1 13.9 178.86 13.7C178.62 13.5 178.307 13.4 177.92 13.4C177.333 13.4 176.887 13.5867 176.58 13.96C176.287 14.32 176.14 14.7933 176.14 15.38V16.68C176.14 17.2667 176.287 17.7467 176.58 18.12C176.887 18.48 177.333 18.66 177.92 18.66C178.347 18.66 178.687 18.5533 178.94 18.34C179.193 18.1133 179.42 17.82 179.62 17.46L180.7 18.14C180.473 18.6467 180.127 19.0667 179.66 19.4C179.207 19.7333 178.627 19.9 177.92 19.9Z" fill="#005FAE"/>
</g>
<defs>
<clipPath id="clip0_12_82428">
<rect width="186" height="58" fill="white"/>
</clipPath>
</defs>
</svg>
