<svg width="200" height="59" viewBox="0 0 200 59" fill="none" xmlns="http://www.w3.org/2000/svg">
<path fill-rule="evenodd" clip-rule="evenodd" d="M22.5358 3.20979C20.103 6.57302 18.0854 10.2072 16.4225 14.0408C14.8113 17.9513 13.5206 22.0786 12.9879 26.4256C12.789 27.999 12.6525 29.5927 12.6266 31.1991C9.77096 31.9532 6.86586 32.5881 3.92638 33.1043C6.82247 33.3158 9.73738 33.3432 12.6559 33.2C12.7665 35.4374 13.0927 37.7511 13.7887 40.0545C14.4944 42.4182 15.6661 44.7784 17.3668 46.8826C17.8499 47.4734 18.386 48.0341 18.9635 48.5574C10.4943 47.4883 3.81989 43.5837 1.17931 37.2342C-3.46107 26.0786 5.99781 11.3576 22.5358 3.20979ZM60.4908 1.0135C64.0101 2.96235 66.6841 5.71489 68.1363 9.20686C72.881 20.6123 62.8842 35.7473 45.6529 43.7703C46.2805 43.062 46.8789 42.3379 47.4498 41.6053C49.8307 38.4253 51.7902 35.0727 53.274 31.5135C50.4021 34.0672 47.5539 36.5226 44.5309 38.5516C41.5702 40.6246 38.4154 42.301 35.3727 43.1737C33.8519 43.5899 32.3704 43.8047 31.0631 43.7254C29.7548 43.6316 28.6507 43.3029 27.8072 42.7674C26.9738 42.2031 26.3458 41.4868 25.8092 40.5828C25.2924 39.6491 24.9561 38.4967 24.733 37.2264C24.5165 35.9498 24.4795 34.5551 24.5875 33.0926C24.6174 32.6164 24.6604 32.1399 24.7135 31.6619C25.3685 31.5276 26.0246 31.3884 26.6783 31.2391C34.1994 29.47 41.6659 26.4242 48.2047 21.408C49.8013 20.1156 51.3721 18.7563 52.7975 17.2225C53.5321 16.4763 54.2205 15.6834 54.8805 14.8592C55.5387 14.0566 56.2626 13.1981 56.8844 12.2567C58.1468 10.385 59.3069 8.28504 59.9801 5.73811C60.3586 4.30434 60.5699 2.69568 60.4908 1.0135ZM45.9137 0.0633094C46.8643 -0.055609 47.7024 -0.0069382 48.2838 0.208817C48.8819 0.420706 49.2265 0.677491 49.5826 1.15413C50.3084 2.09162 50.2467 4.82731 48.9313 7.56624C48.327 8.92387 47.4019 10.3811 46.3893 11.6864C45.4087 13.0356 44.2576 14.273 43.0768 15.4998C38.3368 20.2503 32.2232 23.9084 25.6617 26.7352C26.3222 24.239 27.2051 21.7498 28.3678 19.3514C29.7098 16.3612 31.4394 13.5042 33.3404 10.8065C35.2347 8.11295 37.4289 5.61485 39.6744 3.55159C40.791 2.52355 41.9823 1.67841 42.9479 1.1053C43.8133 0.591295 44.999 0.176155 45.9137 0.0633094Z" fill="#E3E3E3"/>
<path d="M167.624 59H166.096L165.127 56.6211H160.526L159.571 59H158.043L162.302 49.3779H163.489L167.624 59ZM174.067 50.6016H170.955V59H169.645V50.6016H166.532V49.3779H174.067V50.6016ZM176.77 59H175.46V49.3779H176.77V59ZM182.106 49.3779C182.725 49.378 183.234 49.4622 183.635 49.6299C184.035 49.7975 184.351 50.0102 184.583 50.2686C184.815 50.5265 184.976 50.817 185.067 51.1387C185.158 51.4603 185.205 51.7707 185.205 52.0693C185.205 52.3769 185.15 52.6741 185.041 52.96C184.932 53.2444 184.774 53.503 184.569 53.7344C184.365 53.9648 184.115 54.16 183.819 54.3184C183.524 54.4767 183.193 54.5745 182.83 54.6104L185.573 59H183.935L181.479 54.7598H180.018V59H178.707V49.3779H182.106ZM188.084 59H186.774V49.3779H188.084V59ZM194.95 56.6631H195.005L198.048 49.3779H200V59H198.69V51.0908H198.662L195.4 59H194.527L191.265 51.0908H191.237V59H189.928V49.3779H191.879L194.95 56.6631ZM155.408 53.6045L158.124 49.3779H159.722L156.063 54.8955V58.999H154.754V54.8955L151.096 49.3779H152.774L155.408 53.6045ZM160.991 55.4805H164.649L162.848 51.0635H162.819L160.991 55.4805ZM180.018 53.6182H181.737C181.992 53.6182 182.245 53.5974 182.495 53.5566C182.746 53.5155 182.969 53.4418 183.164 53.333C183.36 53.2246 183.516 53.0681 183.635 52.8643C183.753 52.6607 183.812 52.395 183.812 52.0693C183.812 51.7432 183.753 51.478 183.635 51.2744C183.516 51.0701 183.36 50.9145 183.164 50.8057C182.969 50.6968 182.746 50.6222 182.495 50.5811C182.245 50.5399 181.992 50.5195 181.737 50.5195H180.018V53.6182ZM138.574 23.6104C140.055 23.6104 141.4 23.8642 142.607 24.3691C143.814 24.8745 144.849 25.5849 145.713 26.499C146.577 27.414 147.241 28.4993 147.708 29.7549C148.174 31.0116 148.408 32.3916 148.408 33.8936C148.408 35.2859 148.195 36.6169 147.771 37.8867C147.345 39.1567 146.741 40.2829 145.96 41.2666C145.178 42.2494 144.224 43.0349 143.101 43.6221C141.976 44.2088 140.7 44.5029 139.274 44.5029C137.985 44.5029 136.784 44.3048 135.674 43.9092C134.563 43.5136 133.651 42.8375 132.938 41.8818H132.855V53.3525H126.685V24.1025H132.362V26.7236H132.444C132.691 26.3692 133.013 26.0077 133.411 25.6387C133.808 25.2701 134.276 24.9357 134.811 24.6348C135.345 24.3344 135.927 24.0895 136.559 23.8975C137.189 23.7068 137.861 23.6104 138.574 23.6104ZM159.967 24.1025H165.398V29.0176H159.967V35.6553C159.967 36.2012 159.995 36.6986 160.05 37.1494C160.104 37.6003 160.228 37.9891 160.421 38.3174C160.612 38.6447 160.907 38.8973 161.305 39.0752C161.702 39.2522 162.23 39.3418 162.889 39.3418C163.218 39.3418 163.65 39.3078 164.185 39.2393C164.72 39.1716 165.124 39.014 165.398 38.7676V43.8887C164.713 44.1333 164 44.298 163.259 44.3799C162.519 44.4618 161.791 44.5029 161.078 44.5029C160.036 44.5029 159.075 44.3934 158.198 44.1748C157.32 43.9567 156.553 43.6095 155.895 43.1309C155.237 42.6529 154.722 42.0313 154.352 41.2666C153.981 40.502 153.797 39.5739 153.797 38.4814V29.0176H149.847V27.4541L159.967 18.2031V24.1025ZM99.6123 20.9072H86.2402V26.3145H98.8721V32.2129H86.2402V38.1123H100.353V44.0117H79.8223V15.0078H99.6123V20.9072ZM110.968 44.0117H104.797V14.9932H110.968V44.0117ZM121.665 44.0117H115.493V24.1025H121.665V44.0117ZM174.779 44.0117H168.608V24.1025H174.779V44.0117ZM185.394 31.9668L192.225 24.1025H199.795L191.854 33.0732L200 44.0117H192.225L185.477 33.9346H185.394V44.0117H179.223V14.9922H185.394V31.9668ZM137.299 29.0176C135.736 29.0176 134.522 29.4827 133.658 30.4111C132.794 31.3395 132.362 32.5553 132.362 34.0566C132.362 35.5589 132.794 36.7742 133.658 37.7021C134.522 38.6314 135.736 39.0957 137.299 39.0957C138.863 39.0957 140.076 38.6314 140.94 37.7021C141.805 36.7742 142.236 35.5589 142.236 34.0566C142.236 32.5553 141.805 31.3395 140.94 30.4111C140.076 29.4828 138.863 29.0176 137.299 29.0176ZM118.579 14.2705C119.566 14.2705 120.409 14.6182 121.109 15.3145C121.808 16.0109 122.158 16.8512 122.158 17.834C122.158 18.8173 121.808 19.657 121.109 20.3535C120.409 21.0496 119.567 21.3984 118.579 21.3984C117.592 21.3984 116.748 21.0496 116.049 20.3535C115.349 19.657 115 18.8172 115 17.834C115 16.8512 115.349 16.0109 116.049 15.3145C116.748 14.618 117.592 14.2705 118.579 14.2705ZM171.693 14.2705C172.681 14.2705 173.524 14.6182 174.224 15.3145C174.923 16.0109 175.272 16.8512 175.272 17.834C175.272 18.8173 174.923 19.657 174.224 20.3535C173.524 21.0496 172.681 21.3984 171.693 21.3984C170.706 21.3984 169.862 21.0496 169.163 20.3535C168.463 19.6571 168.114 18.8171 168.114 17.834C168.114 16.8512 168.463 16.0109 169.163 15.3145C169.862 14.6179 170.706 14.2705 171.693 14.2705Z" fill="white"/>
</svg>
