<svg width="44" height="34" viewBox="0 0 44 34" fill="none" xmlns="http://www.w3.org/2000/svg">
<rect y="3" width="44" height="28" rx="4" fill="#F3F4F9"/>
<mask id="mask0_12_75883" style="mask-type:luminance" maskUnits="userSpaceOnUse" x="0" y="3" width="44" height="28">
<rect y="3" width="44" height="28" rx="4" fill="white"/>
</mask>
<g mask="url(#mask0_12_75883)">
</g>
<rect opacity="0.2" x="4" y="21" width="24" height="2" rx="0.923077" fill="black"/>
<rect opacity="0.2" x="4" y="25" width="9" height="2" rx="0.923077" fill="black"/>
<rect opacity="0.2" x="4" y="10" width="7" height="4" rx="1" fill="black"/>
<path fill-rule="evenodd" clip-rule="evenodd" d="M31.4165 11.6934C32.7505 11.1162 34.3942 11.6152 35.2665 12.8389C36.1664 14.1012 36.0351 15.8392 34.961 16.9903C33.919 18.107 32.2345 18.1989 31.423 17.7425C33.0227 17.4477 34.0672 16.3726 34.1419 14.9436C34.2274 13.3073 33.3584 12.2607 31.4165 11.6934Z" fill="black"/>
<path fill-rule="evenodd" clip-rule="evenodd" d="M36.5428 8.99281C37.6245 8.4141 39.2975 8.8119 40.1767 9.82959C41.1983 11.0122 41.2767 12.6691 40.3708 13.9309C39.5216 15.1138 37.8923 15.6012 36.5293 15.0265C37.4401 14.8724 38.1695 14.5064 38.6896 13.7994C39.2077 13.0952 39.3908 12.3063 39.2392 11.4467C39.0135 10.1674 37.9638 9.20499 36.5428 8.99281Z" fill="black"/>
<path fill-rule="evenodd" clip-rule="evenodd" d="M38.5815 6.24177C36.7321 6.7686 35.7736 7.85624 35.8328 9.32537C35.8829 10.571 36.647 11.9722 38.5608 12.2941C37.5467 12.8779 35.8871 12.4808 34.9389 11.4275C33.9479 10.3266 33.8609 8.59801 34.735 7.37892C35.6116 6.15667 37.2528 5.66238 38.5815 6.24177Z" fill="black"/>
<path fill-rule="evenodd" clip-rule="evenodd" d="M33.4317 15.0417C32.1352 15.6056 30.5056 15.1254 29.6306 13.9414C28.7474 12.7463 28.7968 11.0571 29.7481 9.91569C30.6564 8.82604 32.2922 8.40283 33.4594 8.99045C32.6725 9.09717 32.0235 9.40382 31.5066 9.96266C30.9808 10.5311 30.718 11.2123 30.6986 11.9776C30.6615 13.4385 31.5341 14.4166 33.4317 15.0417Z" fill="black"/>
</svg>
