<svg width="64" height="64" viewBox="0 0 64 64" fill="none" xmlns="http://www.w3.org/2000/svg">
<path fill-rule="evenodd" clip-rule="evenodd" d="M31.9944 0.00152588C49.6704 0.00152588 64 14.328 64 32.0008C64 49.6733 49.6704 64 31.9944 64C14.6035 64 0.452307 50.1321 0 32.8539L0 31.1476C0.452307 13.8693 14.6035 0.00152588 31.9944 0.00152588Z" fill="#E3E3E3"/>
<mask id="mask0_12_76191" style="mask-type:luminance" maskUnits="userSpaceOnUse" x="0" y="0" width="64" height="64">
<path fill-rule="evenodd" clip-rule="evenodd" d="M31.9944 0.00152588C49.6704 0.00152588 64 14.328 64 32.0008C64 49.6733 49.6704 64 31.9944 64C14.6035 64 0.452307 50.1321 0 32.8539L0 31.1476C0.452307 13.8693 14.6035 0.00152588 31.9944 0.00152588Z" fill="white"/>
</mask>
<g mask="url(#mask0_12_76191)">
<path fill-rule="evenodd" clip-rule="evenodd" d="M42.6498 42H38.6844C35.729 42 33.3335 39.6424 33.3335 36.7331V27.5648C33.3326 27.5634 42.6498 27.5625 42.6498 27.5625C45.6042 27.5625 48.0002 29.9206 48.0002 32.829V36.7331C48.0002 39.6424 45.6042 42 42.6498 42Z" fill="#0F7AD1"/>
<path fill-rule="evenodd" clip-rule="evenodd" d="M21.3507 21H25.316C28.2708 21 30.6667 23.3578 30.6667 26.2667V35.4347L21.3507 35.4375C18.3959 35.4375 16 33.079 16 30.1701V26.2667C16 23.3578 18.3959 21 21.3507 21Z" fill="#221E1F"/>
</g>
</svg>
