<svg width="24" height="24" viewBox="0 0 24 24" fill="none" xmlns="http://www.w3.org/2000/svg">
<g clip-path="url(#clip0_12_76711)">
<path fill-rule="evenodd" clip-rule="evenodd" d="M11.9979 0.000610352C18.6264 0.000610352 24 5.37305 24 12.0003C24 18.6275 18.6264 24 11.9979 24C5.47631 24 0.169615 18.7996 0 12.3202L0 11.6804C0.169615 5.20101 5.47631 0.000610352 11.9979 0.000610352Z" fill="#007E34"/>
<mask id="mask0_12_76711" style="mask-type:luminance" maskUnits="userSpaceOnUse" x="0" y="0" width="24" height="24">
<path fill-rule="evenodd" clip-rule="evenodd" d="M11.9979 0.000610352C18.6264 0.000610352 24 5.37305 24 12.0003C24 18.6275 18.6264 24 11.9979 24C5.47631 24 0.169615 18.7996 0 12.3202L0 11.6804C0.169615 5.20101 5.47631 0.000610352 11.9979 0.000610352Z" fill="white"/>
</mask>
<g mask="url(#mask0_12_76711)">
<path fill-rule="evenodd" clip-rule="evenodd" d="M9.46817 11.1131C8.28784 10.614 7.5 9.63282 7.5 8.66738V8.64166C7.51152 7.8534 8.02947 7.21803 8.95814 6.85009C9.06705 6.9051 9.70928 7.24756 10.5 7.98509C11.4826 8.90196 12.2316 9.99243 12.7268 11.227C12.6474 11.2813 12.388 11.4375 11.9464 11.5139C11.451 11.6006 10.6183 11.6016 9.46817 11.1131ZM9.98133 5.40074C10.2212 5.25237 10.495 5.21331 10.7953 5.28452C11.4212 5.43288 11.9598 5.92513 12.3528 6.7072C12.77 7.53786 13.0027 8.66691 13.0267 9.97194C13.0267 9.97266 13.0269 9.98909 13.0269 10.0179C13.0269 10.1582 13.0142 10.5937 12.8777 11.0281C12.7896 10.7804 12.561 10.2022 12.1347 9.50899C11.6151 8.66619 10.6883 7.4776 9.21915 6.58599C9.2585 6.43381 9.47177 5.71556 9.98133 5.40074ZM13.4381 10.2975C13.4381 10.1915 13.4405 10.0865 13.446 9.98599L13.4535 9.86073C13.4887 9.16463 13.5837 7.31662 14.3229 6.66767C14.5086 6.50406 14.7261 6.43024 14.9701 6.44762C14.9984 6.45072 15.7196 6.54693 15.812 7.70575C15.7942 7.77838 15.6512 8.32112 15.3113 9.00579C14.9845 9.66307 14.4066 10.5854 13.4926 11.3006C13.4748 11.1174 13.4381 10.7035 13.4381 10.2975ZM15.5085 9.10557C15.7908 8.52711 15.9221 8.07178 15.9672 7.89293C16.0898 7.99081 16.3553 8.2461 16.4482 8.66595C16.471 8.76764 16.4818 8.87338 16.4818 8.98078C16.4818 9.38349 16.3251 9.82715 16.0135 10.3027C15.5567 11.0007 14.9833 11.4199 14.3562 11.5154C14.0268 11.5651 13.7605 11.5135 13.6269 11.4777C14.6 10.7014 15.1865 9.76357 15.5085 9.10557ZM10.6706 16.0844C11.3538 15.3412 12.2935 14.1045 12.9369 12.4048C13.0809 12.8847 13.1373 13.3834 13.1373 13.8637C13.1373 14.5296 13.0319 15.1609 12.913 15.661C12.6838 16.63 12.3559 17.329 12.3525 17.3361C12.3453 17.3511 11.73 18.75 10.6986 18.75C9.75366 18.75 9.37317 17.5138 9.31679 17.3099C9.44082 17.2221 9.99932 16.8146 10.6706 16.0844ZM7.60148 15.2414C7.59956 15.2088 7.5986 15.1764 7.5986 15.1438C7.5986 14.4229 8.1036 13.7158 9.06609 13.0931C10.2889 12.3017 11.2461 12.1086 11.8351 12.0857C12.3504 12.0655 12.6788 12.1696 12.7868 12.2105C12.0291 14.0152 11.0475 15.225 10.3537 15.923C9.67425 16.6084 9.13399 16.947 9.02723 17.0111C8.17797 16.5948 7.64514 15.9337 7.60148 15.2414ZM14.202 16.5841C13.5739 15.9623 13.5326 14.3593 13.5326 13.572C13.5326 13.5051 13.5329 13.4441 13.5329 13.3896L13.5333 13.2103C13.5331 13.1929 13.5331 13.1757 13.5331 13.1612C13.5331 12.6797 13.5902 12.3124 13.6188 12.1612C14.9958 13.1729 15.6781 15.7282 15.7263 15.9139C15.5579 16.9377 14.8699 16.8477 14.8408 16.8432L14.836 16.8422H14.8322C14.5892 16.8444 14.3773 16.7572 14.202 16.5841ZM15.8633 12.9099C16.2867 13.3341 16.5 13.7935 16.5 14.2812C16.5 14.4431 16.4762 14.6084 16.4295 14.7758C16.3059 15.2178 16.0487 15.56 15.912 15.7189C15.3187 13.4132 14.1801 12.3374 13.7881 12.0243C14.1094 11.9824 14.9433 11.9886 15.8633 12.9099Z" fill="white"/>
</g>
</g>
<defs>
<clipPath id="clip0_12_76711">
<rect width="24" height="24" fill="white"/>
</clipPath>
</defs>
</svg>
