<svg width="318" height="66" viewBox="0 0 318 66" fill="none" xmlns="http://www.w3.org/2000/svg">
<g clip-path="url(#clip0_12_83436)">
<path d="M65.6425 30.4793C68.5858 32.01 70.0574 34.5312 70.0574 38.1328C70.0574 41.1492 69.0317 43.4452 66.9804 44.9759C64.929 46.5066 62.2534 47.272 58.9534 47.272H46.9577C46.8239 47.272 46.6901 47.2269 46.5563 47.0919C46.4671 47.0018 46.3779 46.8668 46.3779 46.6867V15.0823C46.3779 14.9473 46.4225 14.8122 46.5563 14.6772C46.6455 14.5871 46.7793 14.4971 46.9577 14.4971H58.5967C65.9101 14.4971 69.5668 17.5134 69.5668 23.5012C69.5668 26.6076 68.2736 28.8586 65.6425 30.2092C65.4642 30.2993 65.4642 30.3893 65.6425 30.4793ZM52.9332 20.3948V27.6881C52.9332 27.8231 53.0224 27.9132 53.1562 27.9132H58.5967C60.0683 27.9132 61.1831 27.553 61.9858 26.8777C62.7885 26.2024 63.1899 25.257 63.1899 24.0864C63.1899 22.8709 62.7885 21.9254 61.9858 21.2051C61.1831 20.4848 60.0683 20.1696 58.5967 20.1696H53.1562C53.0224 20.1696 52.9332 20.2597 52.9332 20.3948ZM62.298 40.4739C63.1007 39.7536 63.502 38.7181 63.502 37.4575C63.502 36.1969 63.1007 35.1615 62.298 34.4411C61.4953 33.7208 60.3805 33.3606 58.9089 33.3606H53.1562C53.0224 33.3606 52.9332 33.4507 52.9332 33.5857V41.3743C52.9332 41.5093 53.0224 41.5994 53.1562 41.5994H58.9534C60.3805 41.5544 61.4953 41.1942 62.298 40.4739Z" fill="white"/>
<path d="M86.1111 28.3631C86.0219 28.4532 85.8882 28.5432 85.7098 28.5432H81.2504C81.1166 28.5432 81.0274 28.6333 81.0274 28.7683V38.6728C81.0274 39.7083 81.2504 40.4736 81.6517 40.9689C82.0531 41.4641 82.722 41.7342 83.6585 41.7342H85.1747C85.3084 41.7342 85.4422 41.7792 85.576 41.9143C85.6652 42.0043 85.7544 42.1394 85.7544 42.3195V46.7765C85.7544 47.1367 85.576 47.3167 85.2193 47.4068C83.926 47.4518 82.9895 47.4968 82.4544 47.4968C79.868 47.4968 77.9504 47.0466 76.7018 46.1912C75.4532 45.3358 74.7842 43.7151 74.7397 41.329V28.7233C74.7397 28.5882 74.6505 28.4982 74.5167 28.4982H71.8856C71.7518 28.4982 71.6181 28.4532 71.4843 28.3181C71.3951 28.2281 71.3059 28.093 71.3059 27.9129V23.726C71.3059 23.591 71.3505 23.4559 71.4843 23.3208C71.5735 23.2308 71.7073 23.1408 71.8856 23.1408H74.5167C74.6505 23.1408 74.7397 23.0507 74.7397 22.9157V17.4232C74.7397 17.2881 74.7842 17.153 74.918 17.018C75.0072 16.9279 75.141 16.8379 75.3194 16.8379H80.4923C80.6261 16.8379 80.7598 16.8829 80.8936 17.018C80.9828 17.108 81.072 17.2431 81.072 17.4232V23.0057C81.072 23.1408 81.1612 23.2308 81.295 23.2308H85.7544C85.8882 23.2308 86.0219 23.2758 86.1557 23.4109C86.2449 23.5009 86.3341 23.636 86.3341 23.8161V28.003C86.2895 28.093 86.2003 28.2281 86.1111 28.3631Z" fill="white"/>
<path d="M92.0869 45.7866C90.2586 44.526 88.9653 42.8153 88.2072 40.6543C87.6721 39.0786 87.4045 37.2327 87.4045 35.1168C87.4045 33.0458 87.6721 31.2 88.2072 29.6693C88.9653 27.5533 90.214 25.8876 92.0423 24.672C93.8707 23.4565 96.0112 22.8262 98.5085 22.8262C100.961 22.8262 103.146 23.4565 105.019 24.717C106.892 25.9776 108.141 27.5533 108.765 29.4442C109.033 30.2095 109.122 30.7498 109.122 31.1099V31.2C109.122 31.4701 108.988 31.6502 108.676 31.6952L103.325 32.5056H103.235C102.968 32.5056 102.789 32.3705 102.7 32.0554L102.567 31.29C102.344 30.4797 101.853 29.8043 101.14 29.2641C100.381 28.7239 99.5341 28.4537 98.5085 28.4537C97.5274 28.4537 96.6801 28.7239 96.0112 29.2191C95.3423 29.7143 94.8517 30.3896 94.5842 31.29C94.2274 32.2354 94.0936 33.496 94.0936 35.1168C94.0936 36.7375 94.2274 37.9981 94.5396 38.9435C94.8071 39.8889 95.2977 40.6093 96.0112 41.1495C96.7247 41.6897 97.5274 41.9599 98.553 41.9599C99.4895 41.9599 100.337 41.6897 101.095 41.1945C101.808 40.6993 102.344 39.979 102.611 39.0786C102.656 39.0335 102.656 38.9435 102.656 38.8084C102.7 38.7634 102.7 38.7184 102.7 38.6734C102.745 38.3132 102.968 38.1331 103.369 38.2232L108.72 39.0786C109.033 39.1236 109.166 39.3037 109.166 39.5738C109.166 39.8439 109.077 40.2941 108.899 40.9694C108.23 43.0404 106.981 44.7061 105.108 45.8766C103.235 47.0472 101.095 47.6775 98.6422 47.6775C96.0558 47.6775 93.9153 47.0472 92.0869 45.7866Z" fill="white"/>
<path d="M134.317 14.6772C134.406 14.7672 134.496 14.9023 134.496 15.0823V19.6744C134.496 19.8095 134.451 19.9445 134.317 20.0796C134.228 20.1696 134.094 20.2597 133.916 20.2597H125.621C125.488 20.2597 125.398 20.3497 125.398 20.4848V46.7317C125.398 46.8668 125.354 47.0018 125.22 47.1369C125.131 47.2269 124.997 47.317 124.819 47.317H119.378C119.244 47.317 119.111 47.272 118.977 47.1369C118.888 47.0469 118.799 46.9118 118.799 46.7317V20.4398C118.799 20.3047 118.709 20.2147 118.576 20.2147H110.504C110.37 20.2147 110.236 20.1696 110.103 20.0346C110.014 19.9445 109.924 19.8095 109.924 19.6294V15.0823C109.924 14.9473 109.969 14.8122 110.103 14.6772C110.192 14.5871 110.326 14.4971 110.504 14.4971H133.871C134.05 14.4971 134.183 14.5871 134.317 14.6772Z" fill="white"/>
<path d="M148.275 23.3656C148.365 23.2756 148.498 23.1855 148.677 23.1855H154.117C154.251 23.1855 154.385 23.2306 154.519 23.3656C154.608 23.4557 154.697 23.5907 154.697 23.7708V46.7312C154.697 46.8663 154.652 47.0014 154.519 47.1364C154.429 47.2265 154.296 47.3165 154.117 47.3165H148.677C148.543 47.3165 148.409 47.2715 148.275 47.1364C148.186 47.0464 148.097 46.9113 148.097 46.7312V45.1555C148.097 45.0655 148.052 45.0205 148.008 44.9755C147.963 44.9755 147.874 45.0205 147.83 45.1105C146.581 46.7763 144.663 47.6317 142.077 47.6317C139.713 47.6317 137.796 46.9113 136.28 45.4707C134.763 44.03 134.005 42.0041 134.005 39.4379V23.7708C134.005 23.6358 134.05 23.5007 134.184 23.3656C134.273 23.2756 134.407 23.1855 134.585 23.1855H139.981C140.115 23.1855 140.249 23.2306 140.382 23.3656C140.471 23.4557 140.561 23.5907 140.561 23.7708V37.7722C140.561 39.0328 140.873 40.0232 141.542 40.8336C142.211 41.5989 143.147 42.0041 144.307 42.0041C145.377 42.0041 146.224 41.689 146.893 41.0587C147.562 40.4284 148.008 39.573 148.142 38.5375V23.7708C148.097 23.6358 148.142 23.5007 148.275 23.3656Z" fill="white"/>
<path d="M172.133 23.5462C172.401 23.6813 172.49 23.9064 172.401 24.2666L171.42 29.624C171.375 29.9842 171.152 30.1192 170.751 29.9391C170.305 29.8041 169.725 29.714 169.145 29.714C168.878 29.714 168.566 29.7591 168.12 29.8041C167.005 29.8941 166.068 30.2993 165.31 31.0647C164.552 31.785 164.151 32.7754 164.151 33.991V46.7768C164.151 46.9119 164.106 47.0469 163.972 47.182C163.883 47.272 163.749 47.3621 163.571 47.3621H158.131C157.997 47.3621 157.863 47.317 157.729 47.182C157.64 47.0919 157.551 46.9569 157.551 46.7768V23.8164C157.551 23.6813 157.595 23.5462 157.729 23.4112C157.818 23.3211 157.952 23.2311 158.131 23.2311H163.571C163.705 23.2311 163.839 23.2761 163.972 23.4112C164.062 23.5012 164.151 23.6363 164.151 23.8164V25.6172C164.151 25.7072 164.195 25.7522 164.24 25.7973C164.284 25.8423 164.329 25.7973 164.374 25.7522C165.622 23.8614 167.361 22.961 169.457 22.961C170.617 22.8709 171.464 23.096 172.133 23.5462Z" fill="white"/>
<path d="M174.363 47.1369C174.274 47.0469 174.185 46.9118 174.185 46.7317V15.0823C174.185 14.9473 174.229 14.8122 174.363 14.6772C174.452 14.5871 174.586 14.4971 174.764 14.4971H180.205C180.339 14.4971 180.472 14.5421 180.606 14.6772C180.695 14.7672 180.784 14.9023 180.784 15.0823V30.8845C180.784 30.9746 180.829 31.0196 180.874 31.0646C180.918 31.0646 181.007 31.0646 181.052 30.9746L187.34 23.5912C187.563 23.3661 187.786 23.2761 188.053 23.2761H194.207C194.519 23.2761 194.653 23.3661 194.653 23.5912C194.653 23.6812 194.609 23.8163 194.519 23.9514L188.633 31.4698C188.588 31.6048 188.544 31.6949 188.588 31.7849L195.501 46.6417C195.545 46.7767 195.59 46.8668 195.59 46.9118C195.59 47.1819 195.411 47.272 195.099 47.272H189.391C189.079 47.272 188.856 47.1369 188.722 46.8668L184.129 35.9268C184.084 35.8818 184.04 35.8368 183.951 35.7917C183.861 35.7917 183.817 35.7917 183.772 35.8818L180.784 39.6185C180.74 39.7535 180.695 39.8436 180.695 39.8886V46.7317C180.695 46.8668 180.651 47.0018 180.517 47.1369C180.428 47.2269 180.294 47.317 180.116 47.317H174.675C174.631 47.272 174.497 47.2269 174.363 47.1369Z" fill="white"/>
<path d="M237.062 15.5766C237.151 15.4865 237.285 15.3965 237.463 15.3965H242.726C242.859 15.3965 242.993 15.4415 243.127 15.5766C243.216 15.6666 243.305 15.8017 243.305 15.9818V46.7757C243.305 46.9108 243.261 47.0459 243.127 47.1809C243.038 47.271 242.904 47.361 242.726 47.361H237.463C237.33 47.361 237.196 47.316 237.062 47.1809C236.973 47.0909 236.884 46.9558 236.884 46.7757V34.17C236.884 34.035 236.795 33.9449 236.661 33.9449H226.716C226.583 33.9449 226.493 34.035 226.493 34.17V46.7307C226.493 46.8658 226.449 47.0009 226.315 47.1359C226.226 47.226 226.092 47.316 225.914 47.316H220.651C220.518 47.316 220.384 47.271 220.25 47.1359C220.161 47.0459 220.072 46.9108 220.072 46.7307V15.9818C220.072 15.8467 220.116 15.7116 220.25 15.5766C220.339 15.4865 220.473 15.3965 220.651 15.3965H225.914C226.047 15.3965 226.181 15.4415 226.315 15.5766C226.404 15.6666 226.493 15.8017 226.493 15.9818V28.2273C226.493 28.3624 226.583 28.4524 226.716 28.4524H236.661C236.795 28.4524 236.884 28.3624 236.884 28.2273V15.9818C236.884 15.8017 236.928 15.6666 237.062 15.5766Z" fill="#07AC92"/>
<path d="M247.096 20.2137C246.427 19.5384 246.07 18.683 246.07 17.6475C246.07 16.567 246.382 15.7117 247.051 15.0363C247.72 14.361 248.568 14.0459 249.638 14.0459C250.708 14.0459 251.555 14.361 252.224 15.0363C252.893 15.7117 253.205 16.567 253.205 17.6475C253.205 18.683 252.849 19.5384 252.18 20.2137C251.511 20.889 250.663 21.2492 249.638 21.2492C248.612 21.2492 247.765 20.889 247.096 20.2137ZM246.561 47.1359C246.472 47.0459 246.382 46.9108 246.382 46.7308V24.4006C246.382 24.2655 246.427 24.1305 246.561 23.9954C246.65 23.9054 246.784 23.8153 246.962 23.8153H252.224C252.358 23.8153 252.492 23.8604 252.626 23.9954C252.715 24.0855 252.804 24.2205 252.804 24.4006V46.7758C252.804 46.9108 252.759 47.0459 252.626 47.181C252.536 47.271 252.403 47.361 252.224 47.361H246.962C246.784 47.271 246.65 47.226 246.561 47.1359Z" fill="#07AC92"/>
<path d="M259.894 46.7305C258.378 46.1452 257.219 45.3348 256.416 44.2994C255.569 43.2639 255.167 42.0934 255.167 40.7878V40.3376C255.167 40.2025 255.212 40.0674 255.346 39.9324C255.435 39.8423 255.569 39.7523 255.747 39.7523H260.742C260.876 39.7523 261.009 39.7973 261.143 39.9324C261.232 40.0224 261.321 40.1575 261.321 40.3376V40.3826C261.321 41.0579 261.678 41.5981 262.436 42.0934C263.194 42.5436 264.086 42.8137 265.201 42.8137C266.227 42.8137 267.029 42.5886 267.698 42.1834C268.323 41.7782 268.635 41.283 268.635 40.6527C268.635 40.1125 268.367 39.7073 267.832 39.4371C267.297 39.167 266.405 38.8969 265.157 38.5818C263.73 38.2216 262.615 37.8614 261.812 37.5463C259.894 36.871 258.334 36.0606 257.219 35.0702C256.059 34.0797 255.524 32.6841 255.524 30.8833C255.524 28.6322 256.372 26.8764 258.111 25.5258C259.85 24.2202 262.124 23.5449 264.978 23.5449C266.896 23.5449 268.59 23.8601 270.017 24.4904C271.444 25.1206 272.559 25.976 273.362 27.1015C274.165 28.2271 274.566 29.4876 274.566 30.9283C274.566 31.0633 274.521 31.1984 274.387 31.3335C274.298 31.4235 274.165 31.5135 273.986 31.5135H269.17C269.036 31.5135 268.902 31.4685 268.769 31.3335C268.679 31.2434 268.59 31.1084 268.59 30.9283C268.59 30.253 268.234 29.7127 267.565 29.2625C266.896 28.8123 266.004 28.5872 264.889 28.5872C263.908 28.5872 263.105 28.7673 262.436 29.1275C261.812 29.4876 261.5 29.9828 261.5 30.6131C261.5 31.1984 261.812 31.6936 262.436 31.9637C263.061 32.2789 264.086 32.594 265.513 32.9092C265.825 32.9992 266.227 33.0893 266.628 33.2243C267.029 33.3144 267.52 33.4494 267.966 33.6295C270.106 34.2598 271.801 35.0702 273.005 36.1056C274.254 37.0961 274.833 38.5818 274.833 40.4726C274.833 42.7236 273.942 44.4794 272.202 45.74C270.463 47.0006 268.055 47.6309 265.112 47.6309C263.15 47.5858 261.411 47.3157 259.894 46.7305Z" fill="#07AC92"/>
<path d="M280.408 46.7305C278.891 46.1452 277.732 45.3348 276.929 44.2994C276.082 43.2639 275.681 42.0934 275.681 40.7878V40.3376C275.681 40.2025 275.725 40.0674 275.859 39.9324C275.948 39.8423 276.082 39.7523 276.26 39.7523H281.255C281.389 39.7523 281.522 39.7973 281.656 39.9324C281.745 40.0224 281.835 40.1575 281.835 40.3376V40.3826C281.835 41.0579 282.191 41.5981 282.949 42.0934C283.708 42.5436 284.599 42.8137 285.714 42.8137C286.74 42.8137 287.543 42.5886 288.212 42.1834C288.836 41.7782 289.148 41.283 289.148 40.6527C289.148 40.1125 288.88 39.7073 288.345 39.4371C287.81 39.167 286.918 38.8969 285.67 38.5818C284.243 38.2216 283.128 37.8614 282.325 37.5463C280.408 36.871 278.847 36.0606 277.732 35.0702C276.573 34.0797 276.037 32.6841 276.037 30.8833C276.037 28.6322 276.885 26.8764 278.624 25.5258C280.363 24.2202 282.637 23.5449 285.491 23.5449C287.409 23.5449 289.103 23.8601 290.53 24.4904C291.957 25.1206 293.072 25.976 293.875 27.1015C294.678 28.2271 295.079 29.4876 295.079 30.9283C295.079 31.0633 295.034 31.1984 294.901 31.3335C294.811 31.4235 294.678 31.5135 294.499 31.5135H289.683C289.549 31.5135 289.416 31.4685 289.282 31.3335C289.193 31.2434 289.103 31.1084 289.103 30.9283C289.103 30.253 288.747 29.7127 288.078 29.2625C287.409 28.8123 286.517 28.5872 285.402 28.5872C284.421 28.5872 283.618 28.7673 282.949 29.1275C282.325 29.4876 282.013 29.9828 282.013 30.6131C282.013 31.1984 282.325 31.6936 282.949 31.9637C283.574 32.2789 284.599 32.594 286.026 32.9092C286.339 32.9992 286.74 33.0893 287.141 33.2243C287.543 33.3144 288.033 33.4494 288.479 33.6295C290.62 34.2598 292.314 35.0702 293.518 36.1056C294.767 37.0961 295.347 38.5818 295.347 40.4726C295.347 42.7236 294.455 44.4794 292.716 45.74C290.976 47.0006 288.568 47.6309 285.625 47.6309C283.663 47.5858 281.924 47.3157 280.408 46.7305Z" fill="#07AC92"/>
<path d="M317.955 37.0511C317.911 37.4112 317.732 37.5913 317.376 37.5913H303.462C303.284 37.5913 303.239 37.6813 303.284 37.8164C303.373 38.4017 303.552 39.032 303.775 39.6172C304.577 41.328 306.138 42.1834 308.546 42.1834C310.464 42.1384 311.98 41.373 313.095 39.7973C313.228 39.6172 313.362 39.5272 313.496 39.5272C313.585 39.5272 313.674 39.5722 313.808 39.7073L317.064 42.9487C317.197 43.0838 317.287 43.2189 317.287 43.3539C317.287 43.3989 317.242 43.534 317.108 43.7141C316.127 44.9747 314.834 45.9201 313.273 46.5954C311.712 47.2707 310.018 47.6309 308.145 47.6309C305.558 47.6309 303.373 47.0456 301.589 45.8751C299.806 44.7045 298.512 43.0388 297.754 40.9228C297.13 39.3921 296.818 37.4112 296.818 34.9801C296.818 33.3144 297.041 31.8287 297.487 30.5681C298.2 28.4071 299.404 26.6964 301.099 25.4358C302.838 24.1752 304.889 23.5449 307.253 23.5449C310.241 23.5449 312.649 24.4453 314.477 26.2011C316.305 27.9569 317.42 30.298 317.777 33.2693C317.955 34.3498 318.045 35.6104 317.955 37.0511ZM303.552 31.7386C303.418 32.1438 303.329 32.6391 303.239 33.1793C303.239 33.3144 303.329 33.4044 303.462 33.4044H311.266C311.445 33.4044 311.489 33.3144 311.445 33.1793C311.311 32.2789 311.222 31.8737 311.222 31.9187C310.954 31.0183 310.464 30.298 309.795 29.8028C309.126 29.3075 308.279 29.0374 307.297 29.0374C305.38 29.0374 304.131 29.9378 303.552 31.7386Z" fill="#07AC92"/>
<path d="M23.635 48.4417C20.8702 50.4226 19.2202 52.8987 19.9783 53.9792C20.7364 55.0597 23.5904 54.3394 26.3553 52.3585C29.1201 50.3776 30.7701 47.9014 30.012 46.821C29.789 46.4608 29.3431 46.3257 28.7634 46.3257C28.7188 46.3257 28.7188 46.3257 28.6742 46.3257C27.4255 46.3257 25.508 47.0911 23.635 48.4417ZM8.42848 44.2098C3.07719 46.4608 -0.624111 49.7923 0.133987 51.6832C0.892086 53.574 5.88662 53.3039 11.2379 51.0529C16.5892 48.8019 20.2905 45.4703 19.5324 43.5795C19.1756 42.7241 18.0162 42.3189 16.3216 42.3189C16.277 42.3189 16.2324 42.3189 16.1878 42.3189C14.0919 42.3639 11.2825 42.9942 8.42848 44.2098ZM32.9552 41.9587C32.0187 43.8046 31.7066 45.5154 32.2863 45.7855C32.866 46.1006 34.1146 44.8401 35.0511 43.0392C35.9876 41.1934 36.2997 39.4826 35.72 39.2125C35.6754 39.1675 35.5862 39.1675 35.5416 39.1675C35.5416 39.1675 35.5416 39.1675 35.4971 39.1675C34.8727 39.1675 33.8025 40.338 32.9552 41.9587ZM25.2404 36.9165C23.4121 37.9969 22.431 39.7527 23.0999 40.9233C23.7688 42.0938 25.7756 42.0938 27.6039 41.0583C29.4323 40.0229 30.4133 38.222 29.7444 37.0515C29.3877 36.4212 28.7188 36.1511 27.8269 36.1511C27.0242 36.1511 26.1323 36.3762 25.2404 36.9165ZM32.0187 34.4853C31.4836 35.4308 31.5282 36.4212 32.1079 36.7814C32.6876 37.1416 33.5795 36.6013 34.1146 35.7009C34.6498 34.7555 34.6052 33.765 34.0254 33.4049C33.8917 33.3598 33.7579 33.3148 33.6241 33.3148C33.089 33.2698 32.4647 33.765 32.0187 34.4853ZM25.1958 30.4785C25.1958 31.604 26.2215 32.5044 27.4701 32.5044C28.7188 32.5044 29.7444 31.604 29.7444 30.4785C29.7444 29.353 28.7188 28.4526 27.4701 28.4526C26.2215 28.4526 25.1958 29.398 25.1958 30.4785ZM10.0785 30.4785C10.0785 32.9997 12.8879 34.9806 16.3216 34.9806C19.7554 35.0256 22.5202 32.9997 22.5202 30.4785C22.5202 27.9574 19.7108 25.9765 16.277 25.9765C12.8433 25.9315 10.0785 27.9574 10.0785 30.4785ZM32.1971 24.0856C31.6174 24.4458 31.5728 25.4813 32.1079 26.3817C32.643 27.3271 33.5349 27.7773 34.1146 27.4622C34.6944 27.102 34.739 26.0665 34.2038 25.1661C33.8025 24.4458 33.1782 23.9956 32.5984 23.9956C32.5538 23.9956 32.5538 23.9956 32.5093 23.9956C32.3755 23.9956 32.2863 24.0406 32.1971 24.0856ZM23.1891 19.9437C22.5202 21.1143 23.5013 22.8701 25.3296 23.9506C27.158 24.986 29.1647 24.986 29.8336 23.8155C30.5025 22.645 29.5215 20.8892 27.6931 19.8087C26.8012 19.3135 25.8647 19.0433 25.1066 19.0433C24.2148 19.0433 23.5013 19.3585 23.1891 19.9437ZM32.2863 15.0365C31.7066 15.3517 32.0187 17.0624 32.9552 18.8632C33.8917 20.7091 35.1403 21.9246 35.72 21.6095C36.2997 21.2944 35.9876 19.5836 35.0511 17.7828C34.2038 16.162 33.1336 14.9915 32.4647 14.9915C32.4201 15.0365 32.3755 15.0365 32.2863 15.0365ZM0.0893932 9.18385C-0.668705 11.0747 3.0326 14.4062 8.42848 16.6572C13.7798 18.9083 18.7297 19.1784 19.5324 17.2425C20.2905 15.3517 16.5892 12.0201 11.2379 9.76911C8.2501 8.55356 5.44068 7.92327 3.34476 7.92327C1.60559 7.96829 0.446145 8.37348 0.0893932 9.18385ZM19.9783 6.8878C19.2202 7.96829 20.8702 10.4444 23.635 12.4253C26.3999 14.4062 29.2539 15.1265 30.012 14.0461C30.7701 12.9656 29.1201 10.4894 26.3553 8.50854C24.4377 7.15793 22.5202 6.39258 21.227 6.39258C20.6472 6.39258 20.2013 6.57266 19.9783 6.8878Z" fill="white"/>
<mask id="mask0_12_83436" style="mask-type:luminance" maskUnits="userSpaceOnUse" x="-1" y="6" width="38" height="49">
<path d="M23.635 48.4417C20.8702 50.4226 19.2202 52.8987 19.9783 53.9792C20.7364 55.0597 23.5904 54.3394 26.3553 52.3585C29.1201 50.3776 30.7701 47.9014 30.012 46.821C29.789 46.4608 29.3431 46.3257 28.7634 46.3257C28.7188 46.3257 28.7188 46.3257 28.6742 46.3257C27.4255 46.3257 25.508 47.0911 23.635 48.4417ZM8.42848 44.2098C3.07719 46.4608 -0.624111 49.7923 0.133987 51.6832C0.892086 53.574 5.88662 53.3039 11.2379 51.0529C16.5892 48.8019 20.2905 45.4703 19.5324 43.5795C19.1756 42.7241 18.0162 42.3189 16.3216 42.3189C16.277 42.3189 16.2324 42.3189 16.1878 42.3189C14.0919 42.3639 11.2825 42.9942 8.42848 44.2098ZM32.9552 41.9587C32.0187 43.8046 31.7066 45.5154 32.2863 45.7855C32.866 46.1006 34.1146 44.8401 35.0511 43.0392C35.9876 41.1934 36.2997 39.4826 35.72 39.2125C35.6754 39.1675 35.5862 39.1675 35.5416 39.1675C35.5416 39.1675 35.5416 39.1675 35.4971 39.1675C34.8727 39.1675 33.8025 40.338 32.9552 41.9587ZM25.2404 36.9165C23.4121 37.9969 22.431 39.7527 23.0999 40.9233C23.7688 42.0938 25.7756 42.0938 27.6039 41.0583C29.4323 40.0229 30.4133 38.222 29.7444 37.0515C29.3877 36.4212 28.7188 36.1511 27.8269 36.1511C27.0242 36.1511 26.1323 36.3762 25.2404 36.9165ZM32.0187 34.4853C31.4836 35.4308 31.5282 36.4212 32.1079 36.7814C32.6876 37.1416 33.5795 36.6013 34.1146 35.7009C34.6498 34.7555 34.6052 33.765 34.0254 33.4049C33.8917 33.3598 33.7579 33.3148 33.6241 33.3148C33.089 33.2698 32.4647 33.765 32.0187 34.4853ZM25.1958 30.4785C25.1958 31.604 26.2215 32.5044 27.4701 32.5044C28.7188 32.5044 29.7444 31.604 29.7444 30.4785C29.7444 29.353 28.7188 28.4526 27.4701 28.4526C26.2215 28.4526 25.1958 29.398 25.1958 30.4785ZM10.0785 30.4785C10.0785 32.9997 12.8879 34.9806 16.3216 34.9806C19.7554 35.0256 22.5202 32.9997 22.5202 30.4785C22.5202 27.9574 19.7108 25.9765 16.277 25.9765C12.8433 25.9315 10.0785 27.9574 10.0785 30.4785ZM32.1971 24.0856C31.6174 24.4458 31.5728 25.4813 32.1079 26.3817C32.643 27.3271 33.5349 27.7773 34.1146 27.4622C34.6944 27.102 34.739 26.0665 34.2038 25.1661C33.8025 24.4458 33.1782 23.9956 32.5984 23.9956C32.5538 23.9956 32.5538 23.9956 32.5093 23.9956C32.3755 23.9956 32.2863 24.0406 32.1971 24.0856ZM23.1891 19.9437C22.5202 21.1143 23.5013 22.8701 25.3296 23.9506C27.158 24.986 29.1647 24.986 29.8336 23.8155C30.5025 22.645 29.5215 20.8892 27.6931 19.8087C26.8012 19.3135 25.8647 19.0433 25.1066 19.0433C24.2148 19.0433 23.5013 19.3585 23.1891 19.9437ZM32.2863 15.0365C31.7066 15.3517 32.0187 17.0624 32.9552 18.8632C33.8917 20.7091 35.1403 21.9246 35.72 21.6095C36.2997 21.2944 35.9876 19.5836 35.0511 17.7828C34.2038 16.162 33.1336 14.9915 32.4647 14.9915C32.4201 15.0365 32.3755 15.0365 32.2863 15.0365ZM0.0893932 9.18385C-0.668705 11.0747 3.0326 14.4062 8.42848 16.6572C13.7798 18.9083 18.7297 19.1784 19.5324 17.2425C20.2905 15.3517 16.5892 12.0201 11.2379 9.76911C8.2501 8.55356 5.44068 7.92327 3.34476 7.92327C1.60559 7.96829 0.446145 8.37348 0.0893932 9.18385ZM19.9783 6.8878C19.2202 7.96829 20.8702 10.4444 23.635 12.4253C26.3999 14.4062 29.2539 15.1265 30.012 14.0461C30.7701 12.9656 29.1201 10.4894 26.3553 8.50854C24.4377 7.15793 22.5202 6.39258 21.227 6.39258C20.6472 6.39258 20.2013 6.57266 19.9783 6.8878Z" fill="white"/>
</mask>
<g mask="url(#mask0_12_83436)">
<path d="M36.2997 6.39258H-0.668701V55.0597H36.2997V6.39258Z" fill="white"/>
</g>
<path d="M210.083 0H205.043V66H210.083V0Z" fill="#07AC92"/>
</g>
<defs>
<clipPath id="clip0_12_83436">
<rect width="318" height="66" fill="white"/>
</clipPath>
</defs>
</svg>
