<svg width="486" height="51" viewBox="0 0 486 51" fill="none" xmlns="http://www.w3.org/2000/svg">
<rect x="216" width="2" height="51" fill="white"/>
<path fill-rule="evenodd" clip-rule="evenodd" d="M192.295 18.7939H199.012L190.375 29.4875L199.938 41.4151H193.22L183.658 29.4875L192.295 18.7939ZM177.694 41.4494H183.075V9.09423H177.694V41.4494ZM174.061 23.935C173.821 23.7979 173.375 23.7979 172.69 23.7979C168.679 23.7979 166.28 26.8824 166.28 31.5097V41.5178H160.899V18.7939H166.212V22.6326C167.377 20.0279 170.051 18.3141 173.067 18.3141C173.684 18.3141 173.992 18.3824 174.061 18.4511V23.935ZM148.629 18.7939H154.113V41.4494H148.629V38.4333C147.155 40.5925 144.859 41.9632 141.603 41.9632C136.119 41.9632 132.828 38.3302 132.828 32.4009V18.7595H138.312V31.4067C138.312 34.937 140.095 37.0279 143.316 37.0279C146.538 37.0279 148.629 34.5602 148.629 30.7215V18.7939ZM108.699 9.09423H132.588V14.2696H123.506V41.4834H117.816V14.2696H108.733V9.09423H108.699ZM102.53 18.2454C104.826 18.2454 106.848 18.7939 108.699 19.8562V25.169C106.848 23.8663 104.997 23.1811 103.01 23.1811C98.9307 23.1811 95.8462 26.2656 95.8462 30.207C95.8462 34.1488 98.8624 37.2336 103.01 37.2336C105.237 37.2336 107.157 36.308 108.802 35.2457V40.5582C106.883 41.6205 104.792 42.1689 102.495 42.1689C95.3321 42.1689 90.3964 37.1649 90.3964 30.31C90.3624 23.3181 95.3664 18.2454 102.53 18.2454ZM84.8099 37.1306C85.7351 37.1306 86.6607 36.9935 87.3462 36.445V41.2093C86.4206 41.7578 85.1183 42.0662 83.1987 42.0662C78.5718 42.0662 75.7957 39.2902 75.7957 34.5259V23.3525H71.7169V22.5983L81.0395 12.9673H81.1765V18.8282H87.2775V23.3868H81.2796V33.5663C81.2796 36.0339 82.3418 37.1306 84.8099 37.1306ZM58.0069 36.6508C61.6402 36.6508 64.0052 34.9713 64.0052 31.7838C64.0052 28.7676 61.5372 27.0198 57.9042 27.0198H51.7348V36.6508H58.0069ZM57.0133 22.4956C60.0978 22.4956 62.2574 20.9531 62.2574 18.1767C62.2574 15.4006 60.0978 13.8582 57.0133 13.8582H51.7691V22.4956H57.0133ZM46.2853 9.09423H57.39C63.491 9.09423 67.7068 12.4188 67.7068 17.7313C67.7068 20.6447 66.3358 22.9754 63.7654 24.209C67.5355 25.443 69.626 28.2195 69.626 32.1609C69.626 37.9531 65.1705 41.4834 58.1442 41.4834H46.2166L46.2853 9.09423Z" fill="white"/>
<path d="M30.5094 41.9531C31.1491 41.9531 31.6204 42.0876 31.856 42.458C32.664 43.6028 30.9132 46.1947 27.984 48.2822C25.0547 50.3697 22.0245 51.1447 21.2164 49.9999C20.4083 48.8552 22.1593 46.2623 25.0885 44.1748C27.1086 42.727 29.1626 41.9195 30.5094 41.9531ZM17.3102 37.7773C19.0947 37.7773 20.3412 38.2154 20.7115 39.0908C21.5194 41.0773 17.5794 44.5786 11.8893 46.9355C6.1995 49.2585 0.913617 49.5623 0.105102 47.5761C-0.702956 45.5896 3.23636 42.0873 8.92638 39.7304C12.0575 38.4174 15.088 37.7437 17.3102 37.7773ZM37.7144 34.4443C37.7817 34.4443 37.8493 34.4449 37.9166 34.4785C38.5226 34.7815 38.2196 36.5993 37.2096 38.5185C36.1996 40.4375 34.887 41.7504 34.2808 41.414C33.6748 41.111 33.9778 39.2932 34.9879 37.374C35.8968 35.6572 37.041 34.4112 37.7144 34.4443ZM29.5328 31.2461C30.4419 31.2461 31.1829 31.5487 31.5533 32.1884C32.2265 33.4006 31.216 35.2864 29.2633 36.3974C27.3108 37.5082 25.1903 37.4743 24.483 36.2627C23.8096 35.0505 24.8192 33.1648 26.7721 32.0537C27.7148 31.515 28.6911 31.2461 29.5328 31.2461ZM35.6607 28.249C35.8291 28.249 35.9645 28.2822 36.0992 28.3496C36.7389 28.72 36.7722 29.798 36.1998 30.7744C35.6611 31.7507 34.6847 32.2893 34.0787 31.9189C33.439 31.5485 33.4058 30.4715 33.9781 29.4951C34.4494 28.7545 35.1221 28.2493 35.6607 28.249ZM17.277 20.539C20.947 20.539 23.9098 22.6599 23.9098 25.2861C23.9097 27.946 20.9464 30.0668 17.3102 30.0332C13.6404 30.033 10.6774 27.9122 10.6774 25.2861C10.6774 22.6599 13.6406 20.539 17.277 20.539ZM29.1295 23.165C30.4761 23.1652 31.5533 24.1078 31.5533 25.2861C31.5531 26.4643 30.4423 27.407 29.1295 27.4072C27.8165 27.4072 26.7391 26.4644 26.7389 25.2861C26.7389 24.1413 27.8164 23.165 29.1295 23.165ZM34.5836 18.4853C35.1559 18.4854 35.8295 18.9562 36.2672 19.7304C36.8059 20.7069 36.7717 21.7849 36.1656 22.1553C35.5596 22.4915 34.6168 21.9868 34.0445 21.0107C33.5058 20.0343 33.54 18.9563 34.1461 18.5859C34.2807 18.5186 34.4153 18.4517 34.5836 18.4853ZM26.6031 13.2998C27.4448 13.2998 28.4212 13.5688 29.3639 14.1074C31.3167 15.2185 32.361 17.1043 31.6539 18.3164C30.9468 19.5284 28.8254 19.5621 26.8727 18.4512C24.9198 17.34 23.8765 15.4543 24.5836 14.2422C24.9203 13.6026 25.6942 13.2998 26.6031 13.2998ZM34.483 9.05761C35.1564 9.05811 36.3007 10.2696 37.2096 11.9863C38.2196 13.9055 38.5226 15.6897 37.9166 16.0264C37.3105 16.3293 35.9979 15.05 34.9879 13.1308C33.9779 11.2117 33.6748 9.4275 34.2808 9.09081C34.3481 9.05725 34.4157 9.05761 34.483 9.05761ZM3.50647 1.61621C5.72863 1.61629 8.72548 2.28995 11.8902 3.56933C17.5799 5.92613 21.5191 9.42753 20.7115 11.4141C19.8698 13.4005 14.6174 13.1312 8.92736 10.7744C3.23751 8.41764 -0.702375 4.91627 0.105102 2.92968C0.475469 2.05427 1.72197 1.61621 3.50647 1.61621ZM22.5299 0C23.8767 0.000182648 25.9299 0.808716 27.9498 2.22265C30.8791 4.31019 32.6299 6.90209 31.8219 8.04687C31.0138 9.19162 27.9835 8.4176 25.0543 6.33007C22.1252 4.24261 20.3743 1.64968 21.1822 0.504882C21.4179 0.168183 21.8902 0 22.5299 0Z" fill="#005FAE"/>
<path d="M245.009 24.0348C244.913 23.7332 244.784 23.463 244.622 23.2244C244.463 22.9825 244.272 22.777 244.05 22.6079C243.828 22.4356 243.574 22.3047 243.289 22.2152C243.008 22.1257 242.698 22.0809 242.36 22.0809C241.786 22.0809 241.269 22.2284 240.808 22.5234C240.348 22.8184 239.983 23.2509 239.715 23.821C239.45 24.3878 239.317 25.0821 239.317 25.9041C239.317 26.7294 239.451 27.4271 239.72 27.9971C239.988 28.5672 240.356 28.9997 240.823 29.2947C241.291 29.5897 241.823 29.7372 242.419 29.7372C242.973 29.7372 243.455 29.6245 243.866 29.3991C244.28 29.1737 244.6 28.8556 244.826 28.4446C245.054 28.0303 245.169 27.5431 245.169 26.9829L245.566 27.0575H242.653V25.7897H246.655V26.9481C246.655 27.8032 246.473 28.5457 246.108 29.1754C245.747 29.8018 245.246 30.2857 244.607 30.6271C243.97 30.9685 243.241 31.1392 242.419 31.1392C241.498 31.1392 240.689 30.9271 239.993 30.5028C239.3 30.0786 238.76 29.477 238.372 28.6981C237.985 27.9159 237.791 26.9879 237.791 25.914C237.791 25.102 237.903 24.3728 238.129 23.7265C238.354 23.0802 238.671 22.5317 239.078 22.0809C239.489 21.6269 239.972 21.2805 240.525 21.0419C241.082 20.7999 241.69 20.679 242.35 20.679C242.9 20.679 243.412 20.7602 243.886 20.9226C244.363 21.085 244.787 21.3153 245.159 21.6136C245.533 21.9119 245.843 22.2665 246.088 22.6775C246.334 23.0852 246.499 23.5376 246.585 24.0348H245.009ZM251.767 31.1541C251.015 31.1541 250.367 30.9933 249.823 30.6718C249.283 30.347 248.865 29.8913 248.57 29.3047C248.279 28.7147 248.133 28.0236 248.133 27.2315C248.133 26.4493 248.279 25.7599 248.57 25.1633C248.865 24.5667 249.276 24.1011 249.803 23.7663C250.334 23.4316 250.953 23.2642 251.663 23.2642C252.094 23.2642 252.511 23.3354 252.915 23.478C253.32 23.6205 253.683 23.8442 254.004 24.1491C254.326 24.454 254.579 24.8501 254.765 25.3373C254.951 25.8212 255.043 26.4095 255.043 27.1022V27.6292H248.973V26.5156H253.587C253.587 26.1245 253.507 25.7781 253.348 25.4765C253.189 25.1716 252.965 24.9313 252.677 24.7557C252.392 24.58 252.057 24.4922 251.673 24.4922C251.255 24.4922 250.89 24.5949 250.579 24.8004C250.271 25.0026 250.032 25.2677 249.863 25.5959C249.697 25.9207 249.614 26.2736 249.614 26.6548V27.5248C249.614 28.0352 249.704 28.4694 249.883 28.8274C250.065 29.1853 250.319 29.4588 250.643 29.6477C250.968 29.8333 251.348 29.9261 251.782 29.9261C252.064 29.9261 252.321 29.8863 252.553 29.8068C252.785 29.7239 252.985 29.6013 253.154 29.4389C253.323 29.2765 253.452 29.076 253.542 28.8373L254.949 29.0909C254.836 29.5052 254.634 29.8681 254.342 30.1797C254.054 30.4879 253.691 30.7282 253.254 30.9005C252.819 31.0696 252.324 31.1541 251.767 31.1541ZM258.169 26.4659V31H256.683V23.3636H258.109V24.6065H258.204C258.38 24.2022 258.655 23.8773 259.029 23.6321C259.407 23.3868 259.883 23.2642 260.456 23.2642C260.976 23.2642 261.432 23.3736 261.823 23.5923C262.214 23.8077 262.518 24.1292 262.733 24.5568C262.949 24.9843 263.056 25.513 263.056 26.1427V31H261.57V26.3217C261.57 25.7682 261.426 25.3357 261.137 25.0241C260.849 24.7093 260.453 24.5518 259.949 24.5518C259.604 24.5518 259.298 24.6264 259.029 24.7755C258.764 24.9247 258.554 25.1434 258.398 25.4318C258.245 25.7168 258.169 26.0615 258.169 26.4659ZM268.331 31.1541C267.579 31.1541 266.931 30.9933 266.387 30.6718C265.847 30.347 265.429 29.8913 265.134 29.3047C264.843 28.7147 264.697 28.0236 264.697 27.2315C264.697 26.4493 264.843 25.7599 265.134 25.1633C265.429 24.5667 265.84 24.1011 266.367 23.7663C266.898 23.4316 267.517 23.2642 268.227 23.2642C268.657 23.2642 269.075 23.3354 269.479 23.478C269.884 23.6205 270.247 23.8442 270.568 24.1491C270.89 24.454 271.143 24.8501 271.329 25.3373C271.514 25.8212 271.607 26.4095 271.607 27.1022V27.6292H265.537V26.5156H270.151C270.151 26.1245 270.071 25.7781 269.912 25.4765C269.753 25.1716 269.529 24.9313 269.241 24.7557C268.956 24.58 268.621 24.4922 268.237 24.4922C267.819 24.4922 267.454 24.5949 267.143 24.8004C266.835 25.0026 266.596 25.2677 266.427 25.5959C266.261 25.9207 266.178 26.2736 266.178 26.6548V27.5248C266.178 28.0352 266.268 28.4694 266.447 28.8274C266.629 29.1853 266.883 29.4588 267.207 29.6477C267.532 29.8333 267.912 29.9261 268.346 29.9261C268.628 29.9261 268.885 29.8863 269.117 29.8068C269.349 29.7239 269.549 29.6013 269.718 29.4389C269.887 29.2765 270.016 29.076 270.106 28.8373L271.513 29.0909C271.4 29.5052 271.198 29.8681 270.906 30.1797C270.618 30.4879 270.255 30.7282 269.818 30.9005C269.383 31.0696 268.888 31.1541 268.331 31.1541ZM274.733 20.8182V31H273.247V20.8182H274.733ZM287.428 24.0348C287.332 23.7332 287.203 23.463 287.04 23.2244C286.881 22.9825 286.69 22.777 286.468 22.6079C286.246 22.4356 285.993 22.3047 285.708 22.2152C285.426 22.1257 285.116 22.0809 284.778 22.0809C284.205 22.0809 283.688 22.2284 283.227 22.5234C282.766 22.8184 282.402 23.2509 282.133 23.821C281.868 24.3878 281.735 25.0821 281.735 25.9041C281.735 26.7294 281.87 27.4271 282.138 27.9971C282.407 28.5672 282.775 28.9997 283.242 29.2947C283.709 29.5897 284.241 29.7372 284.838 29.7372C285.391 29.7372 285.873 29.6245 286.284 29.3991C286.699 29.1737 287.019 28.8556 287.244 28.4446C287.473 28.0303 287.587 27.5431 287.587 26.9829L287.985 27.0575H285.071V25.7897H289.074V26.9481C289.074 27.8032 288.891 28.5457 288.527 29.1754C288.165 29.8018 287.665 30.2857 287.025 30.6271C286.389 30.9685 285.66 31.1392 284.838 31.1392C283.916 31.1392 283.108 30.9271 282.412 30.5028C281.719 30.0786 281.179 29.477 280.791 28.6981C280.403 27.9159 280.209 26.9879 280.209 25.914C280.209 25.102 280.322 24.3728 280.547 23.7265C280.773 23.0802 281.089 22.5317 281.497 22.0809C281.908 21.6269 282.39 21.2805 282.944 21.0419C283.5 20.7999 284.109 20.679 284.768 20.679C285.318 20.679 285.83 20.7602 286.304 20.9226C286.782 21.085 287.206 21.3153 287.577 21.6136C287.952 21.9119 288.262 22.2665 288.507 22.6775C288.752 23.0852 288.918 23.5376 289.004 24.0348H287.428ZM291.373 31V23.3636H292.859V31H291.373ZM292.124 22.1853C291.865 22.1853 291.643 22.0992 291.457 21.9268C291.275 21.7512 291.184 21.5424 291.184 21.3004C291.184 21.0551 291.275 20.8463 291.457 20.674C291.643 20.4983 291.865 20.4105 292.124 20.4105C292.382 20.4105 292.602 20.4983 292.785 20.674C292.97 20.8463 293.063 21.0551 293.063 21.3004C293.063 21.5424 292.97 21.7512 292.785 21.9268C292.602 22.0992 292.382 22.1853 292.124 22.1853ZM294.849 31V23.3636H296.286V24.5767H296.366C296.505 24.1657 296.75 23.8425 297.101 23.6072C297.456 23.3686 297.857 23.2493 298.304 23.2493C298.397 23.2493 298.507 23.2526 298.633 23.2592C298.762 23.2658 298.863 23.2741 298.936 23.2841V24.7059C298.876 24.6894 298.77 24.6711 298.618 24.6513C298.465 24.6281 298.313 24.6165 298.16 24.6165C297.809 24.6165 297.496 24.691 297.221 24.8402C296.949 24.986 296.733 25.1898 296.574 25.4517C296.415 25.7102 296.336 26.0052 296.336 26.3366V31H294.849ZM300.212 31V23.3636H301.699V31H300.212ZM300.963 22.1853C300.704 22.1853 300.482 22.0992 300.297 21.9268C300.114 21.7512 300.023 21.5424 300.023 21.3004C300.023 21.0551 300.114 20.8463 300.297 20.674C300.482 20.4983 300.704 20.4105 300.963 20.4105C301.221 20.4105 301.442 20.4983 301.624 20.674C301.81 20.8463 301.903 21.0551 301.903 21.3004C301.903 21.5424 301.81 21.7512 301.624 21.9268C301.442 22.0992 301.221 22.1853 300.963 22.1853ZM309.411 25.228L308.064 25.4666C308.007 25.2942 307.918 25.1302 307.795 24.9744C307.676 24.8186 307.513 24.691 307.308 24.5916C307.102 24.4922 306.845 24.4424 306.537 24.4424C306.116 24.4424 305.765 24.5369 305.483 24.7258C305.202 24.9114 305.061 25.1517 305.061 25.4467C305.061 25.7019 305.155 25.9074 305.344 26.0632C305.533 26.219 305.838 26.3466 306.259 26.446L307.472 26.7244C308.175 26.8868 308.698 27.137 309.043 27.4751C309.388 27.8132 309.56 28.2523 309.56 28.7926C309.56 29.25 309.427 29.6576 309.162 30.0156C308.9 30.3702 308.534 30.6486 308.064 30.8508C307.596 31.053 307.054 31.1541 306.438 31.1541C305.583 31.1541 304.885 30.9718 304.345 30.6072C303.805 30.2393 303.473 29.7173 303.35 29.0412L304.787 28.8224C304.877 29.1969 305.061 29.4803 305.339 29.6726C305.618 29.8615 305.98 29.9559 306.428 29.9559C306.915 29.9559 307.305 29.8548 307.596 29.6527C307.888 29.4472 308.034 29.1969 308.034 28.902C308.034 28.6633 307.944 28.4628 307.765 28.3004C307.59 28.138 307.319 28.0154 306.955 27.9325L305.662 27.6491C304.95 27.4867 304.423 27.2282 304.081 26.8736C303.743 26.5189 303.574 26.0698 303.574 25.5263C303.574 25.0755 303.7 24.6811 303.952 24.343C304.204 24.0049 304.552 23.7415 304.996 23.5525C305.44 23.3603 305.949 23.2642 306.522 23.2642C307.348 23.2642 307.997 23.4432 308.471 23.8011C308.945 24.1558 309.258 24.6314 309.411 25.228ZM305.99 30.9602H306.965L306.885 31.3679C307.174 31.4143 307.426 31.5303 307.641 31.7159C307.856 31.9015 307.964 32.1815 307.964 32.5561C307.967 33.0035 307.774 33.3664 307.382 33.6449C306.995 33.9233 306.433 34.0625 305.697 34.0625L305.667 33.2322C306.012 33.2322 306.29 33.1825 306.502 33.0831C306.718 32.9836 306.827 32.8229 306.831 32.6008C306.834 32.3788 306.751 32.223 306.582 32.1335C306.416 32.044 306.151 31.981 305.787 31.9446L305.99 30.9602Z" fill="white"/>
</svg>
