<svg width="64" height="64" viewBox="0 0 64 64" fill="none" xmlns="http://www.w3.org/2000/svg">
<g clip-path="url(#clip0_12_82652)">
<path fill-rule="evenodd" clip-rule="evenodd" d="M37.8505 53.4927C40.812 51.1189 43.4679 48.4081 45.8537 45.437C48.2112 42.3862 50.3329 39.0678 51.8313 35.3757C52.3792 34.0407 52.8766 32.6727 53.2779 31.2673C56.0022 31.2872 58.7427 31.4243 61.4858 31.6731C58.9528 30.7953 56.3598 30.0748 53.7233 29.5032C54.1513 27.5111 54.4041 25.4003 54.3257 23.2103C54.2528 20.9647 53.7638 18.6103 52.7423 16.355C52.4507 15.7207 52.1046 15.1006 51.713 14.503C59.0144 17.4663 64.0475 22.4917 64.9076 28.7016C66.4195 39.6121 54.518 50.2859 37.8505 53.4927ZM3.48257 46.3524C0.802818 43.7991 -0.93344 40.7414 -1.4065 37.3263C-2.9529 26.1715 9.5257 15.2625 26.7821 12.3309C26.0558 12.8032 25.3523 13.2962 24.6708 13.8034C21.7986 16.0285 19.2614 18.5065 17.1 21.2793C20.2625 19.7219 23.3806 18.2447 26.5543 17.1844C29.6828 16.0704 32.8914 15.3508 35.8106 15.3112C37.2647 15.3088 38.636 15.475 39.7832 15.857C40.928 16.2521 41.8359 16.8045 42.4621 17.4766C43.0726 18.1716 43.465 18.9506 43.7308 19.873C43.9719 20.817 43.9997 21.9111 43.8995 23.0806C43.792 24.2539 43.4972 25.4881 43.0566 26.7471C42.9179 27.1582 42.7666 27.5662 42.6067 27.9733C41.9909 27.9348 41.3727 27.9004 40.7545 27.8753C33.6304 27.6324 26.2547 28.5243 19.2423 31.369C17.514 32.123 15.7925 32.9421 14.1601 33.9491C13.3293 34.4292 12.529 34.9613 11.7465 35.5276C10.9704 36.0755 10.1225 36.6567 9.34626 37.3352C7.77969 38.678 6.25147 40.2463 5.05148 42.3233C4.37634 43.4926 3.80813 44.8554 3.48257 46.3524ZM16.2602 50.6709C15.3843 50.5482 14.6484 50.3047 14.1807 49.9761C13.6974 49.6472 13.451 49.3395 13.2457 48.8359C12.819 47.8388 13.5182 45.4496 15.3364 43.3574C16.1949 42.309 17.3627 41.2501 18.573 40.3453C19.7652 39.3941 21.0834 38.5812 22.4254 37.7855C27.7711 34.7444 34.0844 32.9912 40.6017 32.0756C39.425 34.111 38.052 36.0874 36.4503 37.9169C34.5494 40.2235 32.3339 42.3201 30.0033 44.2361C27.6796 46.1501 25.1344 47.8209 22.6458 49.0971C21.4079 49.7336 20.1467 50.1909 19.1506 50.4636C18.2576 50.7085 17.1026 50.7904 16.2602 50.6709Z" fill="url(#paint0_linear_12_82652)"/>
</g>
<defs>
<linearGradient id="paint0_linear_12_82652" x1="68.9259" y1="17.9099" x2="7.1078" y2="1.34578" gradientUnits="userSpaceOnUse">
<stop stop-color="#3D59A7"/>
<stop offset="0.280694" stop-color="#4169B1"/>
<stop offset="0.74141" stop-color="#49C7EE"/>
<stop offset="1" stop-color="#6FCBDC"/>
</linearGradient>
<clipPath id="clip0_12_82652">
<rect width="64" height="64" fill="white"/>
</clipPath>
</defs>
</svg>
