<svg width="64" height="64" viewBox="0 0 64 64" fill="none" xmlns="http://www.w3.org/2000/svg">
<path d="M43.3271 48.3438C43.963 48.3438 44.4317 48.4798 44.666 48.8535C45.4692 50.0089 43.7291 52.6255 40.8173 54.7324C37.9055 56.8394 34.8931 57.6213 34.0898 56.4658C33.2867 55.3104 35.0268 52.6938 37.9384 50.5869C39.9465 49.1257 41.9883 48.3099 43.3271 48.3438ZM30.207 44.1309C31.9807 44.1309 33.2195 44.5727 33.5879 45.4561C34.3911 47.4611 30.4747 50.9961 24.8183 53.375C19.1623 55.7196 13.9079 56.0253 13.1045 54.0205C12.3012 52.0155 16.2169 48.4814 21.873 46.1025C24.9855 44.7773 27.998 44.097 30.207 44.1309ZM50.4902 40.7666C50.5571 40.7666 50.6244 40.7658 50.6914 40.7998C51.2937 41.1058 50.9922 42.9411 49.9882 44.8779C48.9842 46.815 47.6786 48.1406 47.0761 47.8008C46.474 47.4946 46.7753 45.6595 47.7793 43.7227C48.6829 41.9896 49.8208 40.7326 50.4902 40.7666ZM42.3564 37.5381C43.26 37.5381 43.997 37.8437 44.3652 38.4893C45.0346 39.7127 44.03 41.6158 42.0888 42.7373C40.1476 43.8588 38.0388 43.825 37.3359 42.6016C36.6667 41.3781 37.6712 39.4749 39.6123 38.3535C40.5493 37.8099 41.5198 37.5381 42.3564 37.5381ZM48.4482 34.5117C48.6156 34.5117 48.7499 34.5453 48.8838 34.6133C49.5195 34.9872 49.5523 36.0751 48.9834 37.0605C48.4478 38.0459 47.4774 38.5896 46.875 38.2158C46.2393 37.842 46.2057 36.7548 46.7744 35.7695C47.243 35.0219 47.9127 34.5117 48.4482 34.5117ZM30.1738 26.7295C33.8219 26.7295 36.7675 28.8708 36.7675 31.5215C36.7673 34.2061 33.8216 36.3465 30.207 36.3125C26.559 36.3124 23.6135 34.172 23.6132 31.5215C23.6132 28.8708 26.5591 26.7295 30.1738 26.7295ZM41.955 29.3809C43.2937 29.3809 44.365 30.3322 44.3652 31.5215C44.3652 32.7109 43.2604 33.6631 41.955 33.6631C40.6498 33.663 39.5791 32.7109 39.5791 31.5215C39.5793 30.3662 40.6499 29.3809 41.955 29.3809ZM47.3769 24.6572C47.9459 24.6572 48.6156 25.1334 49.0507 25.915C49.5861 26.9004 49.5524 27.9874 48.9502 28.3613C48.3477 28.7012 47.4107 28.1916 46.8418 27.2061C46.3063 26.2205 46.3399 25.1336 46.9423 24.7598C47.0761 24.6919 47.2097 24.6233 47.3769 24.6572ZM39.4443 19.4238C40.281 19.4238 41.2523 19.6955 42.1894 20.2393C44.1305 21.3607 45.1676 23.2639 44.4648 24.4873C43.7619 25.7107 41.6531 25.7445 39.7119 24.623C37.7709 23.5016 36.7337 21.5983 37.4365 20.375C37.7712 19.7296 38.5409 19.4239 39.4443 19.4238ZM47.2773 15.1416C47.9467 15.1416 49.0846 16.3655 49.9882 18.0986C50.992 20.0352 51.2934 21.8355 50.6914 22.1758C50.0889 22.4816 48.7833 21.1909 47.7793 19.2539C46.7754 17.3172 46.4742 15.5161 47.0761 15.1758C47.1431 15.1418 47.2104 15.1416 47.2773 15.1416ZM16.4853 7.63086C18.6941 7.63096 21.6726 8.31041 24.8183 9.60156C30.4747 11.9804 34.3911 15.5155 33.5879 17.5205C32.7507 19.5252 27.5291 19.2527 21.873 16.874C16.2169 14.4952 12.3012 10.961 13.1045 8.95605C13.4727 8.07258 14.7115 7.63086 16.4853 7.63086ZM35.3945 6C36.7333 6 38.775 6.8159 40.7832 8.24316C43.6949 10.3501 45.4358 12.9666 44.6328 14.1221C43.8295 15.2775 40.8171 14.4957 37.9052 12.3887C34.9934 10.2817 33.2533 7.6652 34.0566 6.50977C34.2909 6.17014 34.7589 6.00008 35.3945 6Z" fill="white"/>
</svg>
