<svg width="80" height="17" viewBox="0 0 80 17" fill="none" xmlns="http://www.w3.org/2000/svg">
<g clip-path="url(#clip0_12_76353)">
<path d="M18.522 2.44611C18.522 2.20257 18.5278 1.95792 18.5522 1.71661C18.6046 1.19574 18.9038 0.819978 19.312 0.520325C20.0905 -0.0508344 20.9883 -0.0298704 21.8804 0.0847778C22.698 0.189581 23.3195 0.648344 23.6899 1.3963C23.893 1.80592 24.0534 2.237 24.2271 2.6629C24.4178 3.13064 24.6031 3.60085 24.7876 4.07111C24.9167 4.40134 25.0388 4.73319 25.1665 5.06427C25.2987 5.40709 25.4341 5.74936 25.5679 6.09161C25.6945 6.41562 25.8206 6.73928 25.9468 7.06329C26.0897 7.43017 26.2329 7.79667 26.3745 8.16388C26.4974 8.48147 26.6184 8.80307 26.7417 9.12091C26.8378 9.36848 26.9342 9.61585 27.0308 9.8631C27.1274 10.1106 27.2246 10.3585 27.3208 10.6063C27.4471 10.9319 27.5679 11.2553 27.6938 11.5809C27.8307 11.9357 27.9653 12.2923 28.1099 12.6443C28.2294 12.9354 28.3535 13.2266 28.4956 13.5076C28.5177 13.5512 28.5564 13.5966 28.6001 13.6317C28.6437 13.6665 28.6958 13.6941 28.7427 13.6971C28.7886 13.6997 28.8441 13.6777 28.8911 13.6473C28.9385 13.6166 28.9815 13.5738 29.0024 13.5311C29.1753 13.1778 29.3299 12.8155 29.4819 12.4529C29.6237 12.1139 29.7555 11.7703 29.8892 11.4285C30.0158 11.1044 30.1388 10.7778 30.2642 10.4539C30.4015 10.0993 30.5401 9.7451 30.6782 9.39044C30.74 9.23131 30.8021 9.07203 30.8638 8.9129C30.9254 8.75384 30.9866 8.59442 31.0483 8.43536C31.1907 8.06874 31.335 7.70246 31.4771 7.33575C31.5998 7.01848 31.7206 6.69618 31.8433 6.37872L32.2651 5.29669C32.3278 5.13447 32.3905 4.97176 32.4526 4.80939C32.5147 4.64704 32.5765 4.48418 32.6392 4.32208C32.7765 3.96709 32.9154 3.61333 33.0532 3.25861C33.179 2.93465 33.308 2.61127 33.4292 2.28497C33.7005 1.55534 34.0321 0.870999 34.7026 0.424622C34.9932 0.231091 35.3209 0.104171 35.6665 0.0759888C36.2969 0.0245564 36.9227 -0.00496776 37.5396 0.195129C38.2837 0.436788 38.9316 0.974586 38.9673 1.85236C38.98 2.16292 39.0044 2.47144 39.0044 2.78009C39.0068 7.23953 39.0063 11.6986 39.0063 16.158V16.3358L38.9966 16.5125C38.9896 16.5559 38.9782 16.5832 38.9604 16.6014C38.9428 16.6195 38.9166 16.6314 38.8745 16.6385C38.8321 16.6456 38.7759 16.6472 38.7017 16.6473H36.1284C36.0656 16.6484 36.0227 16.6336 35.9956 16.6072C35.9687 16.581 35.9531 16.5394 35.9546 16.4764C35.9558 16.4235 35.9546 16.3692 35.9546 16.3172C35.9752 12.2472 35.9967 8.1772 36.0161 4.10724C36.0169 3.95557 36.0113 3.80248 35.9946 3.65118C35.9874 3.58687 35.973 3.5131 35.9399 3.45685C35.9233 3.42865 35.9012 3.4043 35.8726 3.38751C35.858 3.37903 35.8422 3.3728 35.8247 3.36896L35.7681 3.36505C35.7152 3.36834 35.6569 3.39423 35.606 3.4295C35.5548 3.46493 35.5081 3.51135 35.481 3.55841C35.356 3.77453 35.257 4.00705 35.1655 4.23907C34.9553 4.77007 34.7541 5.30475 34.5522 5.83868C34.3711 6.3182 34.199 6.79889 34.0161 7.27716C33.833 7.75601 33.6401 8.22829 33.4556 8.70685C33.3261 9.04284 33.2038 9.38571 33.0757 9.7215C32.9447 10.0649 32.8089 10.4059 32.6763 10.7488C32.5485 11.0793 32.4234 11.4113 32.2964 11.742C32.1579 12.1033 32.0175 12.4646 31.8794 12.826C31.7526 13.1572 31.6295 13.4891 31.5005 13.8192C31.3091 14.3086 31.1312 14.8021 30.9165 15.2801C30.77 15.6059 30.5985 15.9271 30.3901 16.2147C30.141 16.5585 29.7682 16.7513 29.3452 16.7869C28.9665 16.8189 28.5791 16.8339 28.2056 16.7859C27.5616 16.7033 27.0792 16.3331 26.8013 15.7547C26.5436 15.2188 26.3498 14.6523 26.1284 14.0965C25.9392 13.6211 25.7481 13.1462 25.5649 12.6688C25.4734 12.4301 25.384 12.19 25.2954 11.95C25.2068 11.71 25.1183 11.4694 25.0269 11.2303C24.8442 10.7528 24.6509 10.2763 24.4673 9.79962C24.3373 9.4623 24.2164 9.12419 24.0874 8.78595C23.9564 8.44293 23.821 8.10096 23.689 7.75861C23.5591 7.4218 23.4313 7.08423 23.3022 6.74689C23.1661 6.39154 23.0286 6.03673 22.8921 5.68146C22.7652 5.35098 22.6439 5.01643 22.5112 4.68732C22.3593 4.31067 22.2066 3.93236 22.0317 3.56525C22.0081 3.51573 21.9604 3.47956 21.9106 3.44904C21.8855 3.43363 21.8579 3.41863 21.8325 3.40411C21.807 3.38954 21.7829 3.37469 21.7612 3.35919L21.7446 3.34845L21.7329 3.36407C21.6992 3.4122 21.6591 3.45606 21.6206 3.50568C21.5834 3.55368 21.5499 3.60543 21.5356 3.6629C21.5171 3.73683 21.5124 3.81441 21.5122 3.89142C21.5121 3.92982 21.513 3.96843 21.5142 4.00665C21.5153 4.0451 21.5169 4.0833 21.5171 4.12091C21.5317 8.158 21.547 12.1952 21.562 16.2322C21.562 16.2543 21.5634 16.2767 21.5649 16.2986C21.5665 16.3208 21.5689 16.3428 21.5698 16.3641C21.5716 16.4071 21.5691 16.4468 21.5562 16.4803C21.5434 16.5127 21.5179 16.5526 21.4888 16.5848C21.4744 16.6007 21.4599 16.6144 21.4458 16.6238C21.4313 16.6334 21.4188 16.6384 21.4097 16.6385C20.4999 16.6496 19.5896 16.6471 18.6792 16.6463C18.6218 16.6463 18.5826 16.63 18.5581 16.6033C18.5337 16.5764 18.5205 16.5353 18.521 16.4783C18.5218 16.4123 18.52 16.3454 18.52 16.2801V9.1004L18.521 9.10138V9.09552C18.521 6.87928 18.52 4.66232 18.522 2.44611Z" fill="#F0F4F7" stroke="#F0F4F7" stroke-width="0.0395838"/>
<path d="M59.3506 0.363403C60.1793 -0.0588037 61.0492 -0.0479292 61.9346 0.171021C62.5385 0.32072 62.9752 0.705714 63.3174 1.19641C63.7108 1.7611 64.0683 2.35127 64.4395 2.93274C64.7786 3.46377 65.115 3.99675 65.4521 4.52942C65.8557 5.16726 66.2573 5.80729 66.6621 6.44446C67.0605 7.07193 67.4625 7.69412 67.8604 8.32141L68.8682 9.92297C69.265 10.5496 69.6654 11.1748 70.0625 11.8009C70.1967 12.0121 70.3226 12.2259 70.4561 12.4386C70.501 12.5103 70.5488 12.5857 70.6084 12.6486C70.6754 12.719 70.7629 12.7482 70.8428 12.7355C70.9228 12.7226 70.9933 12.668 71.0273 12.5763C71.0747 12.4475 71.0904 12.301 71.0908 12.1642C71.0948 10.3302 71.0928 8.49573 71.0928 6.66223V0.527466C71.0928 0.442467 71.0933 0.380316 71.0986 0.334106C71.1039 0.28779 71.1143 0.261561 71.1309 0.245239C71.1475 0.228983 71.174 0.219181 71.2207 0.213989C71.2676 0.208813 71.331 0.20813 71.417 0.20813C72.1294 0.20813 72.8418 0.206944 73.5537 0.20813C73.7072 0.208528 73.8165 0.206944 73.8945 0.212036C73.973 0.217197 74.0131 0.229876 74.0361 0.254028C74.0593 0.27833 74.0697 0.318699 74.0723 0.394653C74.0748 0.470167 74.0702 0.571927 74.0703 0.714966C74.0731 3.95366 74.0713 7.19305 74.0713 10.4318C74.0713 11.3866 74.079 12.3414 74.0742 13.296L74.0645 14.2511C74.0577 14.6678 74.0087 15.0933 73.9043 15.4952C73.792 15.9275 73.4866 16.2436 73.0908 16.4747C72.5603 16.7845 71.9865 16.8742 71.3887 16.8116C71.0061 16.7717 70.6188 16.7163 70.2539 16.6046C69.8211 16.4721 69.4755 16.1725 69.2236 15.799C68.7286 15.0641 68.2596 14.3114 67.7812 13.5646C67.3811 12.9399 66.981 12.3146 66.584 11.6876C66.1869 11.0595 65.7972 10.4302 65.4004 9.80188C65.0675 9.27432 64.7294 8.74938 64.3955 8.22278C63.995 7.59041 63.5979 6.95568 63.1953 6.32434C62.7717 5.66009 62.3454 4.99679 61.9131 4.33801C61.8566 4.25206 61.7635 4.17087 61.668 4.13391C61.5882 4.10304 61.5035 4.12933 61.4365 4.1886C61.3694 4.24793 61.3181 4.34143 61.3008 4.44934C61.2775 4.59332 61.2783 4.74236 61.2783 4.88684C61.2771 8.67967 61.2773 12.4725 61.2773 16.2657C61.2773 16.3372 61.276 16.4115 61.2764 16.4835C61.2767 16.5415 61.2623 16.5812 61.2373 16.6066C61.2124 16.6319 61.1732 16.6466 61.1152 16.6466C60.2382 16.6458 59.3605 16.6447 58.4834 16.6447C58.416 16.6447 58.3706 16.6291 58.3428 16.6007C58.3151 16.5723 58.3007 16.5272 58.3047 16.4591V9.21497L58.3027 5.86047C58.3027 4.74232 58.3052 3.62402 58.3125 2.50598C58.3149 2.12459 58.3676 1.73083 58.4746 1.36633C58.6069 0.916296 58.9307 0.577582 59.3506 0.363403Z" fill="#F0F4F7" stroke="#F0F4F7" stroke-width="0.0395838"/>
<path d="M48.1396 0.0548706C48.4726 0.0264645 48.8125 0.026087 49.1455 0.0529175C49.9517 0.118277 50.6004 0.472884 50.9834 1.20038C51.2786 1.7608 51.5261 2.34628 51.7852 2.92694C52.0337 3.48407 52.2721 4.0461 52.5088 4.60858C52.6005 4.82597 52.6888 5.04497 52.7773 5.26385C52.8659 5.48282 52.9546 5.70211 53.0459 5.9201C53.1371 6.13799 53.2306 6.35485 53.3242 6.57147C53.4179 6.78827 53.5119 7.00523 53.6035 7.22284L54.1455 8.53241C54.3306 8.97376 54.5223 9.41459 54.708 9.85565C54.8888 10.285 55.0654 10.7154 55.2451 11.1457C55.43 11.5879 55.6151 12.0301 55.8008 12.4719C55.8923 12.6894 55.9845 12.9067 56.0762 13.1242C56.1679 13.3419 56.2599 13.5598 56.3516 13.7775C56.5424 14.2312 56.7325 14.6852 56.9229 15.1389C57.1011 15.5627 57.2856 15.9831 57.4541 16.4103C57.4742 16.4614 57.4857 16.5017 57.4893 16.5334C57.4927 16.565 57.4881 16.5863 57.4775 16.6008C57.4669 16.6153 57.4478 16.627 57.416 16.6349C57.3841 16.643 57.3412 16.6463 57.2861 16.6467C56.8349 16.6498 56.3841 16.6474 55.9326 16.6476H54.5947C54.4672 16.6476 54.392 16.6327 54.3369 16.592C54.2816 16.5509 54.2426 16.4805 54.1943 16.3586C53.9966 15.8586 53.7869 15.3622 53.5869 14.8635C53.406 14.4126 53.2312 13.9599 53.0518 13.508C52.9975 13.3712 52.9448 13.233 52.8896 13.0959L52.7148 12.6877C52.6962 12.6477 52.6612 12.614 52.623 12.5861C52.5848 12.5583 52.5411 12.5354 52.502 12.5168V12.5158C52.4705 12.501 52.4339 12.4988 52.3994 12.4992C52.3821 12.4994 52.3645 12.5002 52.3477 12.5012C52.3304 12.5021 52.3137 12.5031 52.2979 12.5031H45.0342C44.9434 12.5031 44.8724 12.5055 44.8154 12.5139C44.7582 12.5222 44.7132 12.5367 44.6758 12.5646C44.6385 12.5925 44.6102 12.6319 44.583 12.6848C44.5559 12.7375 44.5291 12.806 44.4961 12.8928C44.3045 13.3955 44.0957 13.8907 43.8975 14.3918C43.7164 14.8487 43.5405 15.3102 43.3604 15.7668C43.2564 16.03 43.1621 16.296 43.0322 16.5432C43.0253 16.5563 43.0123 16.5699 42.9932 16.5822C42.9743 16.5944 42.9508 16.6055 42.9248 16.6144C42.8724 16.6323 42.8118 16.6412 42.7646 16.6418C42.0196 16.6509 41.2746 16.6476 40.5293 16.6476C40.3438 16.6476 40.1594 16.652 39.9756 16.6437C39.927 16.6415 39.8916 16.6364 39.8662 16.6291C39.8412 16.6219 39.829 16.613 39.8232 16.6027C39.8173 16.5919 39.8153 16.5747 39.8213 16.5471C39.8272 16.5197 39.8404 16.4852 39.8594 16.4406C40.0491 15.9944 40.2281 15.54 40.416 15.0939C40.5089 14.8735 40.6048 14.6543 40.7002 14.4348C40.7956 14.2152 40.8907 13.9953 40.9834 13.7746C41.0749 13.5568 41.1642 13.3373 41.2529 13.1183L41.5215 12.4631C41.614 12.2424 41.7087 12.0227 41.8037 11.8029C41.8988 11.5831 41.994 11.3626 42.0869 11.1418C42.2694 10.7074 42.4445 10.2656 42.626 9.83124C42.8081 9.39542 42.9965 8.96225 43.1807 8.52655C43.3619 8.09757 43.5413 7.66715 43.7217 7.23749C43.9124 6.78413 44.1036 6.33094 44.2939 5.87714C44.3575 5.72588 44.4205 5.57356 44.4834 5.42206C44.5463 5.27064 44.6094 5.11902 44.6729 4.96796C44.81 4.64196 44.9501 4.31564 45.0869 3.98944C45.2671 3.55928 45.4418 3.12758 45.625 2.6994C45.8931 2.07143 46.1232 1.43196 46.542 0.882019C46.9479 0.349362 47.4975 0.10958 48.1396 0.0548706ZM48.666 2.89374C48.5726 2.89365 48.4888 2.96607 48.4219 3.08026C48.3056 3.27818 48.213 3.49092 48.124 3.70135C47.991 4.01538 47.8698 4.33591 47.7422 4.65155C47.5531 5.11951 47.3616 5.58776 47.1729 6.05585C47.1091 6.214 47.0461 6.37286 46.9834 6.53143C46.9207 6.68992 46.8576 6.84813 46.7939 7.00604C46.6566 7.34679 46.5165 7.68644 46.3779 8.02655C46.2442 8.3545 46.1101 8.68248 45.9775 9.01093C45.8456 9.33873 45.7021 9.6656 45.5879 10.0012C45.5644 10.0702 45.5485 10.1252 45.542 10.1682C45.5356 10.2109 45.5383 10.247 45.5596 10.2736C45.5805 10.2998 45.6152 10.3119 45.6592 10.3185C45.7037 10.3252 45.7627 10.3272 45.8369 10.3273H51.5742C51.6454 10.3275 51.7092 10.3174 51.7471 10.2814C51.7873 10.2431 51.792 10.1836 51.7637 10.1037C51.7065 9.94252 51.6377 9.78476 51.5742 9.62714C51.4392 9.29256 51.3037 8.95807 51.1699 8.62323C51.0412 8.30106 50.9154 7.97559 50.7861 7.6535C50.654 7.32406 50.5169 6.99948 50.3857 6.6701C50.3203 6.50582 50.2562 6.34023 50.1924 6.17499C50.1285 6.0097 50.0644 5.84366 49.999 5.67889C49.8059 5.19143 49.6126 4.70324 49.4131 4.21796C49.2615 3.84897 49.1245 3.46622 48.9326 3.11542C48.8516 2.96746 48.7599 2.89407 48.666 2.89374Z" fill="#F0F4F7" stroke="#F0F4F7" stroke-width="0.0395838"/>
<path d="M7.98975 0.104492C8.71894 -0.00538067 9.44792 -0.0337472 10.144 0.242188C10.6335 0.43645 10.995 0.80702 11.2271 1.27344C11.5217 1.86501 11.7773 2.47655 12.0435 3.08301C12.2888 3.64174 12.5291 4.20272 12.7661 4.76465C12.8579 4.98215 12.9469 5.20103 13.0356 5.41992C13.1243 5.63882 13.2129 5.85816 13.3042 6.07617C13.4863 6.5112 13.6787 6.94475 13.8618 7.37891C14.0432 7.80861 14.2176 8.24048 14.3979 8.6709C14.5853 9.11802 14.7786 9.56579 14.9663 10.0127C15.1467 10.442 15.3241 10.8729 15.5034 11.3027C15.6851 11.7389 15.8668 12.1755 16.0493 12.6113C16.2393 13.0652 16.4303 13.5188 16.6206 13.9727C16.7108 14.1872 16.801 14.4017 16.8911 14.6162C16.9813 14.831 17.0714 15.046 17.1616 15.2607C17.2962 15.5814 17.4308 15.9021 17.5649 16.2227C17.5734 16.2428 17.581 16.2638 17.5884 16.2861C17.5956 16.3081 17.603 16.3318 17.6138 16.3535C17.6505 16.428 17.6764 16.4839 17.6899 16.5264C17.7037 16.5697 17.7025 16.5929 17.6938 16.6064C17.6849 16.6202 17.6634 16.6318 17.6167 16.6387C17.5711 16.6454 17.5071 16.6473 17.4214 16.6475C16.9862 16.6486 16.551 16.6475 16.1157 16.6475L14.7896 16.6494C14.6865 16.651 14.6102 16.6361 14.5503 16.5967C14.4907 16.5574 14.4445 16.4915 14.4067 16.3828C14.2475 15.9249 14.035 15.4831 13.8521 15.0352L13.3188 13.6992C13.2484 13.526 13.1752 13.3536 13.1021 13.1816C13.0289 13.0097 12.9556 12.8379 12.8853 12.665C12.8601 12.6031 12.8255 12.5595 12.7798 12.5332C12.7343 12.507 12.6799 12.4994 12.6187 12.5029H5.21826C5.12966 12.5029 5.06162 12.5033 5.0083 12.5098C4.95467 12.5163 4.91322 12.529 4.87939 12.5537C4.84584 12.5783 4.82094 12.6133 4.79736 12.6611C4.77381 12.709 4.75024 12.7719 4.71924 12.8525C4.63096 13.0821 4.53749 13.3093 4.44287 13.5361L4.16064 14.2178C3.97695 14.6746 3.80061 15.135 3.62061 15.5928C3.50506 15.887 3.4026 16.1847 3.26611 16.4668C3.24712 16.506 3.20539 16.5486 3.15674 16.582C3.10793 16.6156 3.05522 16.6372 3.01416 16.6377C2.07122 16.6511 1.12824 16.6481 0.185059 16.6445C0.0988474 16.6441 0.0524403 16.6239 0.0327148 16.5928C0.0128391 16.5613 0.0138761 16.5086 0.0483398 16.4258C0.227237 15.996 0.417412 15.5718 0.600098 15.1426C0.777371 14.7259 0.949318 14.3069 1.12451 13.8896C1.31999 13.4239 1.51805 12.9585 1.7124 12.4922C1.89192 12.0614 2.06638 11.6303 2.24658 11.2002C2.43144 10.7584 2.62101 10.3181 2.80713 9.87695C2.93449 9.57477 3.06009 9.27181 3.18701 8.96973C3.37777 8.51617 3.56986 8.06299 3.76025 7.60938C3.85025 7.39478 3.93932 7.17971 4.02881 6.96484C4.11837 6.7498 4.2083 6.53405 4.29834 6.31934C4.48592 5.87177 4.6748 5.42378 4.86279 4.97656C4.95293 4.76209 5.04317 4.54757 5.1333 4.33301C5.2235 4.1183 5.31361 3.90309 5.40381 3.68848C5.59465 3.23472 5.78313 2.78008 5.97705 2.32812C6.09615 2.05115 6.21828 1.77508 6.34912 1.50391C6.60814 0.968135 6.95455 0.510914 7.50537 0.251953C7.65679 0.180742 7.82429 0.129547 7.98975 0.104492ZM8.80811 2.89746C8.71602 2.91571 8.63651 3.00145 8.57568 3.12109C8.37693 3.51308 8.22722 3.93055 8.06104 4.33594C7.93169 4.65119 7.80721 4.96987 7.6792 5.28516C7.54644 5.6127 7.40895 5.9403 7.27686 6.26855C7.14662 6.59178 7.02197 6.91452 6.89111 7.2373C6.70671 7.6922 6.51664 8.14836 6.33252 8.60352C6.14308 9.07196 5.96357 9.54377 5.76807 10.0088C5.74326 10.0676 5.72517 10.1169 5.71729 10.1572C5.70951 10.1972 5.71105 10.2319 5.72803 10.2598C5.74517 10.2878 5.77539 10.304 5.81494 10.3135C5.85461 10.323 5.90697 10.327 5.97217 10.3271C6.92139 10.3283 7.87162 10.3277 8.8208 10.3281H11.0552C11.2787 10.3281 11.5038 10.3313 11.728 10.3262C11.7813 10.325 11.8252 10.3217 11.8589 10.3145C11.8924 10.3073 11.9197 10.2952 11.937 10.2734C11.9545 10.2514 11.9588 10.223 11.9556 10.1904C11.9523 10.1578 11.9409 10.1175 11.9243 10.0693C11.832 9.80313 11.7173 9.54332 11.6157 9.28223C11.3827 8.68366 11.1556 8.08192 10.9165 7.48535L10.0317 5.31738C9.9135 5.02258 9.79882 4.72617 9.68408 4.42969C9.56933 4.13316 9.4548 3.83635 9.33643 3.54102C9.27076 3.37705 9.18946 3.2141 9.09033 3.06738C8.99959 2.93329 8.90275 2.87888 8.80811 2.89746Z" fill="#F0F4F7" stroke="#F0F4F7" stroke-width="0.0395838"/>
<path d="M77.2168 0.209106C78.0476 0.208315 78.8791 0.208315 79.71 0.209106C79.7776 0.20911 79.8282 0.210179 79.8662 0.215942C79.904 0.221706 79.9265 0.232084 79.9414 0.247192C79.9563 0.262391 79.9669 0.285529 79.9727 0.324341C79.9784 0.363281 79.9795 0.415295 79.9795 0.484497V8.43665H79.9805V16.3302C79.9805 16.4129 79.9801 16.4741 79.9746 16.5197C79.9691 16.5652 79.9588 16.5917 79.9424 16.6085C79.9261 16.6252 79.8999 16.6351 79.8555 16.6407C79.8111 16.6464 79.7515 16.6476 79.6709 16.6476C78.8468 16.6476 78.0223 16.6484 77.1982 16.6476C77.1349 16.6476 77.0872 16.6452 77.0508 16.6388C77.0145 16.6324 76.9918 16.6221 76.9766 16.6066C76.9614 16.591 76.9505 16.5681 76.9443 16.5314C76.9381 16.4943 76.9365 16.4453 76.9365 16.381V0.494263C76.9365 0.421977 76.9376 0.367773 76.9434 0.327271C76.9491 0.287073 76.9592 0.26281 76.9746 0.247192C76.99 0.231569 77.0141 0.221755 77.0537 0.215942C77.0934 0.210134 77.146 0.209109 77.2168 0.209106Z" fill="#F0F4F7" stroke="#F0F4F7" stroke-width="0.0395838"/>
</g>
<defs>
<clipPath id="clip0_12_76353">
<rect width="80" height="16.85" fill="white"/>
</clipPath>
</defs>
</svg>
