<svg width="44" height="34" viewBox="0 0 44 34" fill="none" xmlns="http://www.w3.org/2000/svg">
<rect y="3" width="44" height="28" rx="4" fill="#F3F4F9"/>
<mask id="mask0_12_75625" style="mask-type:luminance" maskUnits="userSpaceOnUse" x="0" y="3" width="44" height="28">
<rect y="3" width="44" height="28" rx="4" fill="white"/>
</mask>
<g mask="url(#mask0_12_75625)">
</g>
<rect opacity="0.2" x="4" y="21" width="24" height="2" rx="0.923077" fill="black"/>
<rect opacity="0.2" x="4" y="25" width="9" height="2" rx="0.923077" fill="black"/>
<rect opacity="0.2" x="4" y="10" width="7" height="4" rx="1" fill="black"/>
<path fill-rule="evenodd" clip-rule="evenodd" d="M37.0958 13.8116L36.0041 12.7194L35.7399 12.4557C35.7911 12.3727 35.8285 12.2811 35.8498 12.183H36.0041H37.7092C37.6723 12.7994 37.4481 13.3627 37.0958 13.8116ZM36.0041 14.6507C35.747 14.759 35.4712 14.8268 35.1822 14.848L35.1827 12.851C35.2875 12.8287 35.3852 12.7872 35.4722 12.7305L36.0041 13.263L36.8387 14.097C36.5973 14.3313 36.3144 14.5201 36.0041 14.6507ZM35.1832 9.15195C35.4717 9.17321 35.7475 9.24204 36.0041 9.35034C36.3088 9.47788 36.5872 9.66159 36.8261 9.88984L36.0041 10.7117L35.456 11.2598C35.373 11.2082 35.2809 11.1708 35.1827 11.1495L35.1832 9.15195ZM37.7082 11.7988H36.0041H35.8452C35.8219 11.7017 35.783 11.6101 35.7303 11.5286L36.0041 11.2543L37.0852 10.1743C37.44 10.6211 37.6672 11.1829 37.7082 11.7988ZM34.7986 11.1536C34.7075 11.1753 34.6214 11.2113 34.544 11.2598L33.9756 10.6905L33.1658 9.88073C33.4017 9.65754 33.675 9.47737 33.9756 9.35085C34.2327 9.24204 34.5101 9.17321 34.7991 9.15195L34.7986 11.1536ZM34.7986 14.848C34.5101 14.8268 34.2327 14.7585 33.9756 14.6502C33.6694 14.5211 33.3916 14.3354 33.1522 14.1061L33.9756 13.2832L34.5283 12.7305C34.6098 12.7837 34.7014 12.8232 34.7986 12.8464V14.848ZM32.273 12.183H33.9756H34.1502C34.1715 12.2811 34.2089 12.3727 34.2596 12.4557L33.9756 12.7402L32.8935 13.8217C32.5372 13.3708 32.3105 12.8039 32.273 12.183ZM32.9057 10.1636L33.9756 11.2335L34.2702 11.5286C34.2175 11.6101 34.1776 11.7017 34.1543 11.7988H33.9756H32.2741C32.3156 11.1784 32.5458 10.612 32.9057 10.1636ZM40.2828 11.6045C40.0191 11.603 39.7894 11.6819 39.6649 11.7993H39.0216C38.9771 10.816 38.6126 9.92021 38.0347 9.22433L38.4148 8.84425C38.5894 8.84931 38.8207 8.7405 39.0165 8.54464C39.2964 8.26578 39.3976 7.91202 39.2423 7.75766C39.0879 7.6028 38.7351 7.70452 38.4558 7.9849C38.268 8.17064 38.1617 8.38876 38.1566 8.55982L37.776 8.94041C37.2866 8.45101 36.6793 8.08916 36.0041 7.90646C35.7394 7.83459 35.4656 7.79005 35.1832 7.77588V7.3538C35.3097 7.23436 35.3968 6.99397 35.3968 6.71663C35.3968 6.32188 35.2186 6 34.9995 6C34.7809 6.00051 34.6037 6.32188 34.6037 6.71764C34.6027 6.98132 34.6817 7.21108 34.7991 7.33558V7.77588C34.5156 7.79005 34.2398 7.83459 33.9756 7.90696C33.305 8.08865 32.7027 8.44646 32.2154 8.93079L31.8449 8.56033C31.8383 8.38927 31.7305 8.17064 31.5453 7.98541C31.2654 7.70452 30.9116 7.6028 30.7572 7.75817C30.6029 7.91304 30.7041 8.26528 30.985 8.54464C31.1803 8.7405 31.4116 8.84931 31.5857 8.84425L31.9562 9.2142C31.3732 9.9111 31.0047 10.8104 30.9607 11.7988H30.3367C30.2106 11.6824 29.9798 11.604 29.7177 11.604C29.3214 11.6035 28.9995 11.7816 29 12.0008C29.0005 12.2194 29.3214 12.3965 29.7172 12.396C29.994 12.3965 30.2339 12.31 30.3539 12.1824H30.9597C30.9997 13.1708 31.3641 14.0717 31.9436 14.7711L31.5599 15.1552C31.3889 15.1613 31.1702 15.2691 30.985 15.4554C30.7041 15.7347 30.6024 16.0885 30.7577 16.2428C30.9126 16.3977 31.2649 16.296 31.5442 16.0156C31.7401 15.8203 31.8489 15.589 31.8434 15.4144L32.2022 15.0555C32.6921 15.547 33.2989 15.9103 33.9756 16.094C34.2398 16.1659 34.5156 16.2104 34.7986 16.2246V16.6639C34.6817 16.7889 34.6037 17.0197 34.6037 17.2824C34.6032 17.6786 34.7814 18.0005 35 18C35.2191 17.9995 35.3968 17.6786 35.3963 17.2829C35.3963 17.006 35.3097 16.7656 35.1822 16.6462V16.2246C35.4646 16.2104 35.7394 16.1664 36.0041 16.0951C36.6849 15.9098 37.2968 15.5429 37.7882 15.0469L38.1566 15.4154C38.1516 15.5895 38.2604 15.8208 38.4563 16.0166C38.7346 16.296 39.0889 16.3977 39.2433 16.2428C39.3976 16.0875 39.2964 15.7352 39.0155 15.4559C38.8303 15.2686 38.6116 15.1618 38.4406 15.1568L38.0463 14.7615C38.6213 14.0641 38.9821 13.1673 39.0221 12.1835H39.6466C39.7661 12.31 40.0065 12.397 40.2838 12.397C40.6786 12.397 41.0005 12.2189 41 11.9997C40.9995 11.7811 40.6786 11.604 40.2828 11.6045Z" fill="#ED1C24"/>
</svg>
