<svg width="428" height="51" viewBox="0 0 428 51" fill="none" xmlns="http://www.w3.org/2000/svg">
<path d="M291.888 11C293.943 11 295.852 11.3668 297.562 12.0908C299.269 12.8142 300.768 13.8296 302.02 15.1074C303.268 16.3837 304.254 17.9281 304.95 19.6982C305.647 21.4723 306 23.4237 306 25.5C306 27.5764 305.647 29.5289 304.95 31.3027C304.254 33.0723 303.268 34.6161 302.02 35.8916C300.768 37.1705 299.268 38.1858 297.562 38.9092C295.851 39.6332 293.941 40 291.888 40C289.834 40 287.926 39.6331 286.215 38.9092C284.508 38.1858 283.007 37.1705 281.756 35.8916C280.506 34.6155 279.521 33.0716 278.825 31.3027C278.128 29.5296 277.775 27.5768 277.775 25.5C277.775 23.4237 278.128 21.472 278.825 19.6982C279.521 17.9292 280.506 16.3847 281.756 15.1074C283.006 13.8295 284.507 12.8142 286.215 12.0908C287.924 11.3669 289.833 11 291.888 11ZM242.794 11.7256C244.042 11.7256 245.25 11.8514 246.382 12.0986C247.488 12.3405 248.482 12.7511 249.333 13.3184C250.166 13.8736 250.841 14.6262 251.339 15.5557C251.836 16.4847 252.087 17.658 252.087 19.043C252.087 20.5041 251.818 21.7214 251.286 22.6611C250.75 23.607 250.054 24.3618 249.219 24.9062C248.365 25.4629 247.416 25.8611 246.398 26.0889C245.358 26.3223 244.358 26.4404 243.426 26.4404H237.315V39.2734H235V11.7256H242.794ZM263.489 11.7266C264.804 11.7266 266.133 11.8062 267.439 11.9648C268.703 12.1182 269.85 12.4546 270.849 12.9639C271.816 13.4587 272.614 14.1931 273.22 15.1455C273.821 16.0925 274.126 17.4179 274.126 19.083C274.126 21.0598 273.565 22.6054 272.413 23.8096C271.257 25.0153 269.624 25.7939 267.56 26.124L266.814 26.2432L274.678 39.2734H271.79L264.207 26.4404H259.157V39.2734H256.842V11.7266H263.489ZM291.888 13.123C290.191 13.1231 288.614 13.4505 287.2 14.0957C285.787 14.7401 284.557 15.6362 283.542 16.7578C282.528 17.8764 281.73 19.2023 281.17 20.6963C280.611 22.1858 280.327 23.8018 280.327 25.5C280.327 27.198 280.611 28.8147 281.17 30.3037C281.73 31.798 282.527 33.123 283.541 34.2412C284.557 35.365 285.788 36.2602 287.2 36.9033C288.613 37.5492 290.19 37.8769 291.888 37.877C293.584 37.877 295.161 37.5497 296.575 36.9043C297.987 36.2608 299.219 35.3648 300.234 34.2412C301.247 33.123 302.045 31.798 302.604 30.3037C303.164 28.8124 303.448 27.196 303.448 25.5C303.448 23.8038 303.164 22.1879 302.604 20.6963C302.044 19.202 301.247 17.8764 300.234 16.7578C299.218 15.636 297.987 14.7405 296.575 14.0957C295.16 13.4509 293.583 13.123 291.888 13.123ZM259.157 24.3174H262.621C263.559 24.3174 264.531 24.2897 265.511 24.2363C266.544 24.1796 267.508 23.9938 268.374 23.6836C269.283 23.3598 270.046 22.8424 270.642 22.1445C271.26 21.4188 271.574 20.3885 271.574 19.083C271.574 17.9649 271.347 17.0426 270.9 16.3418C270.458 15.6503 269.869 15.1092 269.147 14.7324C268.454 14.3715 267.668 14.1301 266.812 14.0146C265.989 13.905 265.15 13.8496 264.319 13.8496H259.157V24.3174ZM237.315 24.3164H243.426C245.185 24.3163 246.646 23.8969 247.768 23.0703C248.941 22.2051 249.535 20.8638 249.535 19.084C249.535 17.3036 248.941 15.962 247.768 15.0967C246.645 14.2694 245.184 13.8497 243.426 13.8496H237.315V24.3164Z" fill="white"/>
<rect x="217" width="2" height="51" fill="#525252"/>
<rect x="322" width="1" height="51" fill="white"/>
<path fill-rule="evenodd" clip-rule="evenodd" d="M192.294 18.7944H199.012L190.375 29.488L199.937 41.4156H193.219L183.657 29.488L192.294 18.7944ZM177.693 41.4499H183.074V9.09473H177.693V41.4499ZM174.06 23.9355C173.82 23.7984 173.375 23.7984 172.689 23.7984C168.679 23.7984 166.28 26.8829 166.28 31.5102V41.5183H160.899V18.7944H166.211V22.6331C167.377 20.0284 170.05 18.3146 173.066 18.3146C173.683 18.3146 173.992 18.3829 174.06 18.4516V23.9355ZM148.628 18.7944H154.112V41.4499H148.628V38.4338C147.155 40.593 144.858 41.9637 141.602 41.9637C136.118 41.9637 132.828 38.3308 132.828 32.4015V18.76H138.312V31.4072C138.312 34.9375 140.094 37.0284 143.316 37.0284C146.538 37.0284 148.628 34.5607 148.628 30.722V18.7944ZM108.699 9.09473H132.588V14.2701H123.505V41.484H117.816V14.2701H108.733V9.09473H108.699ZM102.529 18.2459C104.825 18.2459 106.848 18.7944 108.699 19.8567V25.1695C106.848 23.8668 104.997 23.1816 103.009 23.1816C98.9302 23.1816 95.8457 26.2661 95.8457 30.2075C95.8457 34.1493 98.8619 37.2341 103.009 37.2341C105.237 37.2341 107.156 36.3085 108.801 35.2462V40.5587C106.882 41.621 104.791 42.1695 102.495 42.1695C95.3316 42.1695 90.3959 37.1654 90.3959 30.3106C90.3619 23.3186 95.3659 18.2459 102.529 18.2459ZM84.8093 37.1311C85.7346 37.1311 86.6602 36.9941 87.3457 36.4456V41.2099C86.4201 41.7584 85.1177 42.0668 83.1982 42.0668C78.5713 42.0668 75.7952 39.2907 75.7952 34.5264V23.353H71.7164V22.5988L81.039 12.9678H81.176V18.8287H87.277V23.3873H81.279V33.5668C81.279 36.0345 82.3413 37.1311 84.8093 37.1311ZM58.0063 36.6513C61.6396 36.6513 64.0046 34.9718 64.0046 31.7843C64.0046 28.7681 61.5366 27.0203 57.9036 27.0203H51.7342V36.6513H58.0063ZM57.0127 22.4961C60.0972 22.4961 62.2568 20.9536 62.2568 18.1772C62.2568 15.4011 60.0972 13.8587 57.0127 13.8587H51.7686V22.4961H57.0127ZM46.2848 9.09473H57.3895C63.4905 9.09473 67.7063 12.4193 67.7063 17.7318C67.7063 20.6452 66.3353 22.9759 63.7649 24.2095C67.5349 25.4435 69.6255 28.22 69.6255 32.1614C69.6255 37.9536 65.1699 41.484 58.1437 41.484H46.2161L46.2848 9.09473Z" fill="white"/>
<path fill-rule="evenodd" clip-rule="evenodd" d="M30.5087 41.9531C31.1484 41.9531 31.6196 42.0876 31.8553 42.458C32.6634 43.6028 30.9125 46.1947 27.9833 48.2822C25.054 50.3697 22.0237 51.1448 21.2157 50C20.4077 48.8552 22.1586 46.2623 25.0878 44.1748C27.1078 42.7271 29.1619 41.9196 30.5087 41.9531ZM17.3104 37.7773C19.0948 37.7774 20.3404 38.2155 20.7108 39.0908C21.5189 41.0773 17.5795 44.5786 11.8895 46.9355C6.19985 49.2586 0.914143 49.5621 0.105332 47.5762C-0.702741 45.5896 3.23644 42.0874 8.92662 39.7305C12.0578 38.4174 15.0883 37.7437 17.3104 37.7773ZM37.7147 34.4443C37.782 34.4443 37.8495 34.4449 37.9169 34.4785C38.5225 34.7819 38.2197 36.5997 37.2098 38.5186C36.1997 40.4377 34.8862 41.7508 34.2801 41.4141C33.6744 41.1107 33.9773 39.2929 34.9872 37.374C35.8962 35.6569 37.0413 34.4107 37.7147 34.4443ZM29.5321 31.2461C30.4412 31.2461 31.1822 31.5487 31.5526 32.1885C32.2259 33.4006 31.2154 35.2864 29.2626 36.3975C27.31 37.5082 25.1895 37.4744 24.4823 36.2627C23.8089 35.0506 24.8186 33.1648 26.7713 32.0537C27.714 31.5151 28.6904 31.2462 29.5321 31.2461ZM35.661 28.249C35.8292 28.249 35.9639 28.2824 36.0985 28.3496C36.7382 28.72 36.7724 29.798 36.2001 30.7744C35.6613 31.7508 34.684 32.2893 34.078 31.9189C33.4387 31.5484 33.4053 30.4713 33.9774 29.4951C34.4488 28.7544 35.1223 28.249 35.661 28.249ZM17.2762 20.5391C20.9462 20.5391 23.909 22.6599 23.909 25.2861C23.909 27.9459 20.9465 30.0667 17.3104 30.0332C13.6405 30.0332 10.6777 27.9124 10.6776 25.2861C10.6776 22.6599 13.64 20.5391 17.2762 20.5391ZM29.1288 23.165C30.4756 23.165 31.5536 24.1077 31.5536 25.2861C31.5533 26.4644 30.4417 27.4072 29.1288 27.4072C27.8159 27.4071 26.7384 26.4643 26.7381 25.2861C26.7381 24.1414 27.8157 23.1651 29.1288 23.165ZM34.5829 18.4854C35.1552 18.4854 35.8288 18.9563 36.2665 19.7305C36.8052 20.7069 36.7719 21.7849 36.1659 22.1553C35.5599 22.4919 34.6172 21.9869 34.0448 21.0107C33.5061 20.0344 33.5395 18.9564 34.1454 18.5859C34.2799 18.5187 34.4147 18.4519 34.5829 18.4854ZM26.6024 13.2998C27.4441 13.2998 28.4214 13.5687 29.3641 14.1074C31.3168 15.2186 32.3602 17.1043 31.6532 18.3164C30.946 19.5283 28.8246 19.5622 26.8719 18.4512C24.9191 17.3401 23.8758 15.4543 24.5829 14.2422C24.9195 13.6026 25.6935 13.2999 26.6024 13.2998ZM34.4823 9.05762C35.1557 9.05762 36.3007 10.2692 37.2098 11.9863C38.2197 13.9052 38.5225 15.6892 37.9169 16.0264C37.3108 16.3294 35.9973 15.05 34.9872 13.1309C33.9773 11.212 33.6744 9.42775 34.2801 9.09082C34.3474 9.05717 34.415 9.05762 34.4823 9.05762ZM3.50572 1.61621C5.72791 1.61624 8.72462 2.2899 11.8895 3.56934C17.5794 5.92617 21.5186 9.42753 20.7108 11.4141C19.8691 13.4006 14.6168 13.1313 8.92662 10.7744C3.23653 8.41755 -0.702579 4.91623 0.105332 2.92969C0.475699 2.05427 1.72123 1.61621 3.50572 1.61621ZM22.5292 0C23.876 7.89182e-05 25.93 0.808585 27.9501 2.22266C30.8788 4.30995 32.6296 6.90198 31.8221 8.04688C31.0141 9.19162 27.9837 8.41746 25.0546 6.33008C22.1253 4.24254 20.3744 1.64966 21.1825 0.504883C21.4182 0.168353 21.8896 0 22.5292 0Z" fill="#005FAE"/>
<path d="M379.826 34.24C381.734 34.24 382.526 33.484 383.3 31.594L387.44 21.622H384.632L382.346 27.382L380.006 21.622H377.09L380.888 30.298L380.798 30.514C380.438 31.396 380.132 31.846 379.178 31.846C378.728 31.846 378.188 31.774 377.72 31.54L378.08 33.916C378.548 34.132 379.196 34.24 379.826 34.24ZM397.871 26.374C397.871 23.512 396.197 21.406 392.957 21.406C389.573 21.406 387.647 23.566 387.647 26.302C387.647 29.2 389.663 31.216 393.371 31.216C395.027 31.216 396.449 30.82 397.313 30.208L397.817 27.454C396.809 28.426 395.351 29.038 393.677 29.038C391.679 29.038 390.563 28.228 390.347 26.842H397.871V26.374ZM392.939 23.278C394.361 23.278 395.099 24.142 395.315 25.204H390.419C390.689 24.106 391.517 23.278 392.939 23.278ZM399.11 28.372C399.11 30.082 400.136 31.216 402.026 31.216C404.042 31.216 405.284 29.956 405.734 28.966V31H408.452V24.844C408.452 22.486 407.138 21.406 404.528 21.406C402.89 21.406 401.45 21.82 400.424 22.63L400.064 25.258C401.072 24.34 402.746 23.62 404.096 23.62C405.374 23.62 405.734 24.052 405.734 24.79V24.934L402.89 25.51C400.73 25.942 399.11 26.536 399.11 28.372ZM401.81 28.282C401.81 27.67 402.314 27.328 403.304 27.04L405.734 26.338V28.084C405.212 28.75 404.24 29.272 403.196 29.272C402.278 29.272 401.81 28.93 401.81 28.282ZM413.239 31V25.978C414.373 25.132 415.957 24.7 417.271 24.34L416.713 21.442C415.237 22.036 413.779 23.08 413.239 25.33V21.622H410.539V31H413.239ZM418.557 30.28C419.547 30.838 420.843 31.216 422.607 31.216C425.163 31.216 426.945 30.046 426.945 27.94C426.945 26.23 425.901 25.402 423.903 25.15L421.509 24.844C420.879 24.772 420.555 24.61 420.555 24.196C420.555 23.62 421.257 23.422 422.625 23.422C424.119 23.422 425.487 23.998 426.279 24.736L425.847 22.162C425.163 21.694 423.939 21.406 422.499 21.406C419.763 21.406 418.053 22.468 418.053 24.394C418.053 26.05 419.133 26.878 421.167 27.148L423.417 27.454C424.119 27.544 424.461 27.778 424.461 28.228C424.461 28.93 423.705 29.2 422.499 29.2C421.005 29.2 419.349 28.66 418.125 27.616L418.557 30.28Z" fill="#E3E3E3"/>
<path d="M342.844 46.876L343.03 47.93C344.332 47.868 348.548 47 350.842 46.07C359.646 42.474 367.148 34.786 367.148 23.378C367.148 14.574 362.808 7.63 354.128 7.63C345.2 7.63 340.736 15.132 340.736 20.65C340.736 26.912 344.518 32.244 351.214 32.244C352.268 32.244 353.57 31.872 354.996 31.252L358.592 29.64C356.732 38.444 351.648 44.644 342.844 46.876ZM359.274 22.758C359.274 24.494 359.026 26.54 358.778 28.4C358.034 28.71 357.104 29.02 355.554 29.02C351.214 29.02 348.362 24.06 348.362 17.674C348.362 13.458 349.416 9.18 352.95 9.18C357.662 9.18 359.274 16.186 359.274 22.758Z" fill="#E3E3E3"/>
</svg>
