<svg width="44" height="34" viewBox="0 0 44 34" fill="none" xmlns="http://www.w3.org/2000/svg">
<rect y="3" width="44" height="28" rx="4" fill="white"/>
<mask id="mask0_12_75992" style="mask-type:luminance" maskUnits="userSpaceOnUse" x="0" y="3" width="44" height="28">
<rect y="3" width="44" height="28" rx="4" fill="white"/>
</mask>
<g mask="url(#mask0_12_75992)">
</g>
<rect opacity="0.2" x="4" y="21" width="24" height="2" rx="0.923077" fill="black"/>
<rect opacity="0.2" x="4" y="25" width="9" height="2" rx="0.923077" fill="black"/>
<rect opacity="0.2" x="4" y="10" width="7" height="4" rx="1" fill="black"/>
<path d="M29.1026 12C29.373 10.5186 30.1842 9.22361 31.331 8.3292C32.2168 7.18324 33.5128 6.37268 34.9954 6.10249C34.6504 6.03727 34.2867 6.00932 33.9231 6.00932C32.5431 6.00932 31.2751 6.47516 30.2587 7.26709C29.4755 8.28261 29 9.54969 29 10.9379C29.0093 11.2919 29.0373 11.6553 29.1026 12Z" fill="#F99D1C"/>
<path d="M34.9953 17.8975C33.5128 17.6273 32.2168 16.8168 31.331 15.6708C30.1841 14.7857 29.3729 13.4907 29.1025 12C29.0372 12.3447 29.0093 12.7081 29.0093 13.0714C29.0093 14.4503 29.4755 15.7267 30.268 16.7422C31.2843 17.5248 32.5524 18 33.9324 18C34.296 17.9907 34.6503 17.9534 34.9953 17.8975Z" fill="#00AEEF"/>
<path d="M31.331 8.32917C30.1841 9.21426 29.3729 10.5093 29.1025 12C29.3729 13.4813 30.1841 14.7764 31.331 15.6708C30.5478 14.6552 30.0722 13.3789 30.0722 12C30.0722 10.6211 30.5478 9.3447 31.331 8.32917Z" fill="#C7EAFB"/>
<path d="M34.9956 6.10249C36.4781 6.37268 37.7742 7.18324 38.66 8.3292C39.8068 9.21429 40.618 10.5093 40.8884 12C40.9537 11.6553 40.9817 11.2919 40.9817 10.9286C40.9817 9.54969 40.5155 8.2733 39.7229 7.25777C38.7066 6.47516 37.4385 6.00001 36.0585 6.00001C35.7042 6.00932 35.3406 6.03727 34.9956 6.10249Z" fill="#AA55A1"/>
<path d="M31.3311 8.32922C32.3474 7.54662 33.6155 7.07146 34.9954 7.07146C36.3754 7.07146 37.6528 7.5373 38.6598 8.32922C37.774 7.18326 36.4779 6.3727 34.9954 6.10252C33.5129 6.3727 32.2168 7.18326 31.3311 8.32922Z" fill="#FFCE7B"/>
<path d="M40.8879 12.0001C40.6268 13.4815 39.8063 14.7765 38.6688 15.6616C37.783 16.8075 36.4869 17.6181 35.0044 17.8883C35.3494 17.9535 35.713 17.9814 36.0767 17.9814C37.4566 17.9814 38.734 17.5156 39.741 16.7237C40.5242 15.7082 40.9998 14.4411 40.9998 13.0529C40.9904 12.6988 40.9531 12.3448 40.8879 12.0001Z" fill="#9ACA3C"/>
<path d="M31.3311 15.6615C32.2168 16.8074 33.5129 17.618 34.9954 17.8882C36.4779 17.618 37.774 16.8074 38.6598 15.6615C37.6528 16.4534 36.3754 16.9192 34.9954 16.9192C33.6155 16.9192 32.3474 16.4534 31.3311 15.6615Z" fill="#C6DE89"/>
<path d="M38.669 15.6615C39.8065 14.7764 40.627 13.4814 40.8881 12C40.6177 10.5186 39.8065 9.22362 38.6597 8.32921C39.4429 9.34474 39.9184 10.6118 39.9184 12C39.9184 13.3789 39.4522 14.6553 38.669 15.6615Z" fill="#D3B6D7"/>
<path d="M31.331 8.32926C30.5478 9.34479 30.0723 10.6212 30.0723 12.0001C30.0723 13.3789 30.5385 14.6553 31.331 15.6709C32.3473 16.4535 33.6154 16.9193 34.9954 16.9193C36.3753 16.9193 37.6527 16.4535 38.6597 15.6615C39.4523 14.6553 39.9185 13.3789 39.9185 12.0001C39.9185 10.6212 39.4523 9.34479 38.6597 8.32926C37.6434 7.54665 36.3753 7.0715 34.9954 7.0715C33.6154 7.08082 32.3473 7.54665 31.331 8.32926Z" fill="white"/>
<path d="M35.3779 10.0249H35.9933C36.1332 10.0249 36.1798 10.0808 36.1798 10.2205L36.1984 10.4162C36.4222 10.2299 36.8325 9.96899 37.4758 9.96899C38.2124 9.96899 38.632 10.4162 38.632 11.0404V13.8075C38.632 13.9472 38.5761 14.0125 38.4362 14.0125H37.7928C37.653 14.0125 37.5877 13.9472 37.5877 13.8075V11.3106C37.5877 11.0218 37.5038 10.882 37.1588 10.8913C36.7579 10.8913 36.3942 11.1243 36.2357 11.2547V13.8168C36.2357 13.9566 36.1891 14.0218 36.0492 14.0218H35.3872C35.238 14.0218 35.1914 13.9566 35.1914 13.8168V10.2392C35.1821 10.0808 35.2287 10.0249 35.3779 10.0249ZM34.4548 11.1429V12.0653C34.4548 12.1957 34.4082 12.2516 34.2777 12.2516H32.2264V12.8385C32.2264 13.1181 32.3756 13.2764 32.8511 13.2764C33.3266 13.2764 33.4758 13.1181 33.4758 12.8385V12.8013C33.4758 12.6615 33.5317 12.6056 33.6716 12.6056H34.2311C34.3709 12.6056 34.4269 12.6708 34.4269 12.8013V12.8851C34.4269 13.6025 34.0073 14.0684 32.8324 14.0684C31.6576 14.0684 31.1914 13.6025 31.1914 12.8851V11.1336C31.1914 10.4255 31.6669 9.95967 32.8418 9.95967C34.0259 9.96899 34.4548 10.4255 34.4548 11.1429ZM32.2264 11.1988V11.5528H33.4758V11.1988C33.4758 10.9193 33.2986 10.7609 32.8511 10.7609C32.3942 10.7516 32.2264 10.9193 32.2264 11.1988Z" fill="#AA55A1"/>
</svg>
