<svg width="64" height="64" viewBox="0 0 64 64" fill="none" xmlns="http://www.w3.org/2000/svg">
<path fill-rule="evenodd" clip-rule="evenodd" d="M31.9944 0.00152588C49.6704 0.00152588 64 14.328 64 32.0008C64 49.6733 49.6704 64 31.9944 64C14.6035 64 0.452307 50.1321 0 32.8539L0 31.1476C0.452307 13.8693 14.6035 0.00152588 31.9944 0.00152588Z" fill="white"/>
<mask id="mask0_12_76008" style="mask-type:luminance" maskUnits="userSpaceOnUse" x="0" y="0" width="64" height="64">
<path fill-rule="evenodd" clip-rule="evenodd" d="M31.9944 0.00152588C49.6704 0.00152588 64 14.328 64 32.0008C64 49.6733 49.6704 64 31.9944 64C14.6035 64 0.452307 50.1321 0 32.8539L0 31.1476C0.452307 13.8693 14.6035 0.00152588 31.9944 0.00152588Z" fill="white"/>
</mask>
<g mask="url(#mask0_12_76008)">
<path d="M14.3077 32C15.1189 27.5559 17.5525 23.6708 20.993 20.9876C23.6504 17.5497 27.5385 15.118 31.9861 14.3075C30.9511 14.1118 29.8602 14.028 28.7693 14.028C24.6294 14.028 20.8252 15.4255 17.7762 17.8013C15.4266 20.8478 14 24.6491 14 28.8137C14.028 29.8758 14.1119 30.9658 14.3077 32Z" fill="#F99D1C"/>
<path d="M31.986 49.6925C27.5384 48.882 23.6503 46.4503 20.9929 43.0124C17.5523 40.3572 15.1187 36.4721 14.3076 32C14.1117 33.0342 14.0278 34.1242 14.0278 35.2143C14.0278 39.3509 15.4264 43.1801 17.8041 46.2267C20.853 48.5745 24.6573 50 28.7971 50C29.8881 49.972 30.951 49.8602 31.986 49.6925Z" fill="#00AEEF"/>
<path d="M20.9935 20.9876C17.5529 23.6429 15.1193 27.528 14.3081 32C15.1193 36.4441 17.5529 40.3292 20.9935 43.0125C18.6438 39.9659 17.2172 36.1367 17.2172 32C17.2172 27.8634 18.6438 24.0342 20.9935 20.9876Z" fill="#C7EAFB"/>
<path d="M31.9863 14.3075C36.4339 15.118 40.322 17.5497 42.9794 20.9876C46.42 23.6429 48.8536 27.528 49.6648 32C49.8606 30.9658 49.9445 29.8758 49.9445 28.7857C49.9445 24.6491 48.5459 20.8199 46.1682 17.7733C43.1193 15.4255 39.315 14 35.1752 14C34.1122 14.028 33.0213 14.1118 31.9863 14.3075Z" fill="#AA55A1"/>
<path d="M20.9932 20.9877C24.0421 18.6398 27.8464 17.2144 31.9862 17.2144C36.1261 17.2144 39.9583 18.6119 42.9793 20.9877C40.3219 17.5498 36.4338 15.1181 31.9862 14.3076C27.5387 15.1181 23.6505 17.5498 20.9932 20.9877Z" fill="#FFCE7B"/>
<path d="M49.6641 32.0003C48.8809 36.4444 46.4194 40.3294 43.0067 42.9847C40.3494 46.4226 36.4613 48.8543 32.0137 49.6648C33.0486 49.8605 34.1396 49.9443 35.2305 49.9443C39.3704 49.9443 43.2025 48.5468 46.2235 46.171C48.5732 43.1245 49.9998 39.3232 49.9998 35.1586C49.9718 34.0965 49.8599 33.0344 49.6641 32.0003Z" fill="#9ACA3C"/>
<path d="M20.9932 42.9846C23.6505 46.4224 27.5387 48.8541 31.9862 49.6647C36.4338 48.8541 40.3219 46.4224 42.9793 42.9846C39.9583 45.3603 36.1261 46.7578 31.9862 46.7578C27.8464 46.7578 24.0421 45.3603 20.9932 42.9846Z" fill="#C6DE89"/>
<path d="M43.0075 42.9846C46.4201 40.3293 48.8816 36.4443 49.6648 32.0002C48.8537 27.5561 46.4201 23.671 42.9795 20.9878C45.3292 24.0343 46.7557 27.8356 46.7557 32.0002C46.7557 36.1368 45.3571 39.966 43.0075 42.9846Z" fill="#D3B6D7"/>
<path d="M20.993 20.9877C18.6434 24.0342 17.2168 27.8634 17.2168 32.0001C17.2168 36.1367 18.6154 39.9659 20.993 43.0125C24.042 45.3603 27.8462 46.7578 31.9861 46.7578C36.126 46.7578 39.9582 45.3603 42.9792 42.9845C45.3568 39.9659 46.7554 36.1367 46.7554 32.0001C46.7554 27.8634 45.3568 24.0342 42.9792 20.9877C39.9302 18.6398 36.126 17.2144 31.9861 17.2144C27.8462 17.2423 24.042 18.6398 20.993 20.9877Z" fill="white"/>
<path d="M33.1332 26.0745H34.9794C35.399 26.0745 35.5388 26.2422 35.5388 26.6615L35.5948 27.2484C36.2661 26.6894 37.4969 25.9068 39.427 25.9068C41.6368 25.9068 42.8955 27.2484 42.8955 29.1211V37.4223C42.8955 37.8416 42.7277 38.0373 42.3081 38.0373H40.378C39.9585 38.0373 39.7626 37.8416 39.7626 37.4223V29.9317C39.7626 29.0652 39.5109 28.646 38.4759 28.6739C37.2731 28.6739 36.1822 29.3727 35.7067 29.764V37.4503C35.7067 37.8696 35.5668 38.0652 35.1472 38.0652H33.1612C32.7137 38.0652 32.5738 37.8696 32.5738 37.4503V26.7174C32.5458 26.2422 32.6857 26.0745 33.1332 26.0745ZM30.364 29.4286V32.1956C30.364 32.587 30.2241 32.7547 29.8325 32.7547H23.6786V34.5155C23.6786 35.354 24.1262 35.8292 25.5528 35.8292C26.9794 35.8292 27.4269 35.354 27.4269 34.5155V34.4037C27.4269 33.9845 27.5948 33.8168 28.0143 33.8168H29.6927C30.1122 33.8168 30.2801 34.0124 30.2801 34.4037V34.6553C30.2801 36.8074 29.0213 38.205 25.4968 38.205C21.9723 38.205 20.5737 36.8074 20.5737 34.6553V29.4006C20.5737 27.2764 22.0003 25.8789 25.5248 25.8789C29.0773 25.9068 30.364 27.2764 30.364 29.4286ZM23.6786 29.5963V30.6584H27.4269V29.5963C27.4269 28.7578 26.8954 28.2826 25.5528 28.2826C24.1821 28.2547 23.6786 28.7578 23.6786 29.5963Z" fill="#AA55A1"/>
</g>
</svg>
