<svg width="64" height="64" viewBox="0 0 64 64" fill="none" xmlns="http://www.w3.org/2000/svg">
<path fill-rule="evenodd" clip-rule="evenodd" d="M31.9944 0.00152588C49.6704 0.00152588 64 14.328 64 32.0008C64 49.6733 49.6704 64 31.9944 64C14.6035 64 0.452307 50.1321 0 32.8539L0 31.1476C0.452307 13.8693 14.6035 0.00152588 31.9944 0.00152588Z" fill="#007E34"/>
<mask id="mask0_12_75956" style="mask-type:luminance" maskUnits="userSpaceOnUse" x="0" y="0" width="64" height="64">
<path fill-rule="evenodd" clip-rule="evenodd" d="M31.9944 0.00152588C49.6704 0.00152588 64 14.328 64 32.0008C64 49.6733 49.6704 64 31.9944 64C14.6035 64 0.452307 50.1321 0 32.8539L0 31.1476C0.452307 13.8693 14.6035 0.00152588 31.9944 0.00152588Z" fill="white"/>
</mask>
<g mask="url(#mask0_12_75956)">
<path fill-rule="evenodd" clip-rule="evenodd" d="M25.2485 29.635C22.1009 28.304 20 25.6875 20 23.113V23.0444C20.0307 20.9424 21.4119 19.2481 23.8884 18.2669C24.1788 18.4136 25.8914 19.3268 28 21.2936C30.6204 23.7385 32.6177 26.6465 33.9381 29.9386C33.7263 30.0834 33.0348 30.5 31.857 30.7038C30.5359 30.935 28.3154 30.9375 25.2485 29.635ZM26.6169 14.402C27.2566 14.0063 27.9866 13.9022 28.7875 14.0921C30.4566 14.4877 31.8928 15.8004 32.9407 17.8859C34.0533 20.1009 34.6738 23.1117 34.7378 26.5919C34.7378 26.5938 34.7384 26.6376 34.7384 26.7144C34.7384 27.0885 34.7045 28.25 34.3405 29.4083C34.1057 28.7479 33.496 27.206 32.3592 25.3573C30.9735 23.1098 28.5022 19.9403 24.5844 17.5626C24.6893 17.1568 25.2581 15.2415 26.6169 14.402ZM35.8349 27.46C35.8349 27.1774 35.8413 26.8973 35.8561 26.6293L35.8759 26.2953C35.9699 24.439 36.2233 19.511 38.1943 17.7805C38.6895 17.3442 39.2697 17.1473 39.9204 17.1937C39.9958 17.2019 41.9189 17.4585 42.1652 20.5487C42.1179 20.7424 41.7366 22.1896 40.8301 24.0154C39.9587 25.7682 38.4176 28.2278 35.9802 30.1348C35.9328 29.6465 35.8349 28.5427 35.8349 27.46ZM41.3559 24.2815C42.1089 22.739 42.4589 21.5247 42.5791 21.0478C42.906 21.3088 43.6142 21.9896 43.8618 23.1092C43.9226 23.3804 43.9514 23.6623 43.9514 23.9488C43.9514 25.0226 43.5336 26.2057 42.7026 27.4739C41.4845 29.3353 39.9555 30.453 38.2832 30.7076C37.4049 30.8404 36.6948 30.7026 36.3384 30.6073C38.9332 28.537 40.4974 26.0362 41.3559 24.2815ZM28.4549 42.8918C30.2768 40.9098 32.7827 37.612 34.4985 33.0796C34.8824 34.3592 35.0327 35.689 35.0327 36.9699C35.0327 38.7455 34.7519 40.4291 34.4345 41.7627C33.8236 44.3467 32.9491 46.2106 32.9401 46.2297C32.9209 46.2697 31.28 50 28.5297 50C26.0098 50 24.9951 46.7034 24.8448 46.1598C25.1755 45.9255 26.6649 44.8389 28.4549 42.8918ZM20.2706 40.6437C20.2655 40.5567 20.2629 40.4704 20.2629 40.3834C20.2629 38.461 21.6096 36.5756 24.1762 34.9149C27.437 32.8046 29.9896 32.2896 31.5602 32.2286C32.9343 32.1746 33.8102 32.4521 34.098 32.5614C32.0777 37.3738 29.4599 40.5999 27.6098 42.4613C25.798 44.2889 24.3573 45.192 24.0726 45.3628C21.8079 44.2527 20.387 42.4898 20.2706 40.6437ZM37.8719 44.2242C36.197 42.566 36.087 38.2915 36.087 36.192C36.087 36.0135 36.0876 35.851 36.0876 35.7055L36.0889 35.2273C36.0883 35.181 36.0883 35.1353 36.0883 35.0965C36.0883 33.8124 36.2405 32.8332 36.3167 32.4299C39.9888 35.1276 41.8082 41.9418 41.9368 42.4371C41.4877 45.1672 39.6529 44.9272 39.5755 44.9151L39.5627 44.9126H39.5525C38.9044 44.9183 38.3395 44.6859 37.8719 44.2242ZM42.3021 34.4265C43.4313 35.5576 44 36.7826 44 38.0832C44 38.515 43.9367 38.9557 43.8119 39.4022C43.4824 40.5809 42.7966 41.4934 42.432 41.917C40.8499 35.7684 37.8137 32.8999 36.7683 32.0648C37.625 31.953 39.8487 31.9695 42.3021 34.4265Z" fill="#E3E3E3"/>
</g>
</svg>
