<svg width="44" height="34" viewBox="0 0 44 34" fill="none" xmlns="http://www.w3.org/2000/svg">
<rect y="3" width="44" height="28" rx="4" fill="#025DDF"/>
<mask id="mask0_12_75665" style="mask-type:luminance" maskUnits="userSpaceOnUse" x="0" y="3" width="44" height="28">
<rect y="3" width="44" height="28" rx="4" fill="white"/>
</mask>
<g mask="url(#mask0_12_75665)">
</g>
<rect opacity="0.2" x="4" y="21" width="24" height="2" rx="0.923077" fill="#E3E3E3"/>
<rect opacity="0.2" x="4" y="25" width="9" height="2" rx="0.923077" fill="#E3E3E3"/>
<rect opacity="0.2" x="4" y="10" width="7" height="4" rx="1" fill="#E3E3E3"/>
<path d="M33.417 11.832H38.583V6H38.9287V18H38.583V12.1846H33.417V18H33.0713V6H33.417V11.832ZM38.2383 16.9883H37.8926V12.8848H34.1045L34.1074 16.9883H33.7617V12.5352H38.2383V16.9883ZM39.6191 16.9863H39.2734V7.02539H39.6191V16.9863ZM32.7266 7.02441V16.9746H32.3809V7.02441H32.7266ZM32.0361 15.9482H31.6904V8.05176H32.0361V15.9482ZM37.5469 13.2432V15.9482H37.2012V13.5908H34.7979V15.9482H34.4531V13.2393L37.5469 13.2432ZM40.3096 15.9482H39.9639V8.05176H40.3096V15.9482ZM31.3457 14.9229H31V9.07715H31.3457V14.9229ZM36.8564 14.9229H36.5117V14.292H35.4883V14.9229H35.1436V13.9424H36.8564V14.9229ZM41 14.9229H40.6543V9.07715H41V14.9229ZM34.1074 11.1299H37.8955L37.8926 7.02539H38.2383V11.4795H33.7617V7.02539H34.1074V11.1299ZM34.7979 10.4268H37.2012V8.05176H37.5469V10.7764H34.4531V8.05176H34.7979V10.4268ZM35.4883 9.72266H36.5117V9.07715H36.8564V10.0723H35.1436V9.07715H35.4883V9.72266Z" fill="#E3E3E3"/>
</svg>
