<svg width="64" height="64" viewBox="0 0 64 64" fill="none" xmlns="http://www.w3.org/2000/svg">
<path fill-rule="evenodd" clip-rule="evenodd" d="M31.9944 0.00152588C49.6704 0.00152588 64 14.328 64 32.0008C64 49.6733 49.6704 64 31.9944 64C14.6035 64 0.452307 50.1321 0 32.8539L0 31.1476C0.452307 13.8693 14.6035 0.00152588 31.9944 0.00152588Z" fill="#025DDF"/>
<mask id="mask0_12_76166" style="mask-type:luminance" maskUnits="userSpaceOnUse" x="0" y="0" width="64" height="64">
<path fill-rule="evenodd" clip-rule="evenodd" d="M31.9944 0.00152588C49.6704 0.00152588 64 14.328 64 32.0008C64 49.6733 49.6704 64 31.9944 64C14.6035 64 0.452307 50.1321 0 32.8539L0 31.1476C0.452307 13.8693 14.6035 0.00152588 31.9944 0.00152588Z" fill="white"/>
</mask>
<g mask="url(#mask0_12_76166)">
<path d="M25.0254 31.5527H38.9746V16H39.9062V48H38.9746V32.4912H25.0254V48H24.0928V16H25.0254V31.5527ZM38.042 45.3018H37.1104V34.3594H26.8828L26.8896 45.3018H25.958V33.4268H38.042V45.3018ZM41.7715 45.2969H40.8389V18.7354H41.7715V45.2969ZM23.1611 18.7334V45.2656H22.2285V18.7334H23.1611ZM21.2969 42.5293H20.3643V21.4707H21.2969V42.5293ZM36.1748 35.3145V42.5293H35.2432V36.2412H28.7549V42.5293H27.8223V35.3037L36.1748 35.3145ZM43.6357 42.5293H42.7031V21.4707H43.6357V42.5293ZM19.4326 39.7939H18.5V24.207H19.4326V39.7939ZM34.3135 39.7939H33.3818V38.1123H30.6191V39.7939H29.6865V37.1807H34.3135V39.7939ZM45.5 39.793H44.5674V24.207H45.5V39.793ZM26.8896 29.6797H37.1172L37.1104 18.7354H38.042V30.6123H25.958V18.7354H26.8896V29.6797ZM28.7549 27.8037H35.2441V21.4707H36.1758V28.7363H27.8223V21.4707H28.7549V27.8037ZM30.6191 25.9268H33.3818V24.207H34.3135V26.8584H29.6865V24.207H30.6191V25.9268Z" fill="#E3E3E3"/>
</g>
</svg>
