<svg width="64" height="64" viewBox="0 0 64 64" fill="none" xmlns="http://www.w3.org/2000/svg">
<path fill-rule="evenodd" clip-rule="evenodd" d="M31.9944 0.00152588C49.6704 0.00152588 64 14.328 64 32.0008C64 49.6733 49.6704 64 31.9944 64C14.6035 64 0.452307 50.1321 0 32.8539L0 31.1476C0.452307 13.8693 14.6035 0.00152588 31.9944 0.00152588Z" fill="#FE6200"/>
<mask id="mask0_12_76220" style="mask-type:luminance" maskUnits="userSpaceOnUse" x="0" y="0" width="64" height="64">
<path fill-rule="evenodd" clip-rule="evenodd" d="M31.9944 0.00152588C49.6704 0.00152588 64 14.328 64 32.0008C64 49.6733 49.6704 64 31.9944 64C14.6035 64 0.452307 50.1321 0 32.8539L0 31.1476C0.452307 13.8693 14.6035 0.00152588 31.9944 0.00152588Z" fill="white"/>
</mask>
<g mask="url(#mask0_12_76220)">
<path fill-rule="evenodd" clip-rule="evenodd" d="M22.966 82.0284C21.5456 82.0284 21.9496 84.2128 21.5456 85.2054C21.342 85.4032 21.1322 85.799 21.342 86H24.3802C24.3802 86 24.5838 84.2128 24.5838 83.8171C24.3802 83.4198 23.771 82.4241 22.966 82.0284ZM26.6088 65.7585C25.5971 64.9685 23.9762 64.1739 21.5456 63.3792C20.9379 63.1814 19.5206 63.3792 18.9114 63.3792C17.2874 66.1543 16.6859 68.7361 15.4691 71.7089C15.2624 72.3088 14.8583 73.4977 14.8583 73.4977C13.8513 72.904 12.8334 72.5098 11.817 72.5098C10.193 72.5098 8.97923 73.1019 8.37469 74.6881C7.77171 74.4902 6.96047 74.0944 5.94721 74.2892C4.53299 74.4902 3.31148 75.2848 2.70228 76.4737C2.09774 77.2652 1.89416 78.0598 2.09774 78.8545C1.08758 79.2533 0.470613 80.2443 0.0712128 81.0358C-0.33285 82.622 1.08758 85.4032 1.69368 86H3.71865C3.31148 84.2128 2.5018 83.4198 3.10945 81.6326C3.51817 80.6401 4.93239 80.2443 5.33956 80.0449C5.33956 79.2533 4.32319 78.6566 4.53299 77.8588C4.93239 76.8725 6.14769 76.8725 7.36454 77.0673C7.16095 78.2608 6.96047 79.847 6.75689 81.4316C6.5533 83.2219 7.56812 86 7.56812 86H9.59154H9.79513C9.59154 85.4032 9.38951 84.8065 9.38951 84.2128C9.19214 83.6161 9.19214 83.2219 9.19214 82.622C9.38951 81.8305 9.38951 81.0358 9.38951 80.4453C11.416 79.4512 10.8068 80.838 11.2109 81.2337C11.2109 81.2337 12.0268 79.4512 11.0104 78.6566C10.8068 78.4587 9.59154 78.6566 9.59154 78.4587C9.59154 78.2608 9.79513 77.6641 9.9956 77.0673C10.4059 76.2742 10.6064 76.0795 11.0104 75.4827C11.2109 75.2848 11.817 75.2848 12.6344 75.4827C12.8334 75.4827 13.8513 75.6806 14.4543 75.8785C14.2522 76.4737 13.441 77.6641 13.2436 78.2608C12.434 80.6401 12.434 83.4198 12.6344 86H14.8583C14.8583 84.6055 14.6579 83.0209 14.8583 81.6326C15.2624 79.847 15.8669 79.6491 16.0783 79.6491C16.4761 79.6491 16.8833 80.0449 17.0931 80.4453C17.4925 82.4241 16.2788 84.2128 16.2788 86H17.8997C17.8997 86 18.5104 85.799 18.7109 85.2054C19.1134 84.0118 19.9247 82.8199 20.1313 81.6326C20.3287 80.6401 19.9247 79.847 19.3139 78.6566C18.7109 77.8588 18.1033 77.2652 16.6859 76.2742C16.2788 75.4827 16.6859 74.4902 16.6859 74.4902C16.6859 74.6881 17.4925 74.2892 17.8997 74.2892C19.5206 74.6881 19.9247 74.6881 20.7343 75.0838C21.342 75.2848 22.1501 75.6806 22.7593 76.0795C23.367 76.4737 23.9762 77.6641 24.5838 79.0524C24.5838 79.0524 24.9879 76.4737 24.9879 75.6806C24.1829 74.8891 23.367 74.0944 22.1501 73.4977C21.1322 72.7046 18.9114 72.1109 17.8997 71.7089C17.8997 71.7089 18.3037 71.1153 18.3037 70.7195C19.5206 70.5185 20.9379 70.5185 21.5456 70.7195C23.5737 71.3163 26.0011 72.5098 27.0175 73.2998C27.0175 73.2998 27.4185 72.5098 27.4185 72.1109C27.4185 72.1109 24.5838 70.3238 24.7843 69.727C23.9762 69.1349 23.367 68.5382 22.5588 68.3372C21.342 68.1424 18.9114 67.9445 18.9114 67.9445C18.9114 67.9445 19.5206 67.153 20.1313 66.5531H21.7523C22.5588 66.5531 24.5838 67.153 25.7975 67.7467C27.6252 68.5382 28.6322 69.1349 28.8389 69.5307C29.0363 68.9339 29.243 68.1424 29.4496 67.7467C27.218 66.952 27.4185 66.1543 26.6088 65.7585ZM21.9496 60.2022C22.1501 59.6086 21.9496 59.2128 22.1501 58.6176C22.1501 58.2219 22.1501 57.2294 22.3552 56.6357C21.9496 56.4347 21.1322 56.8336 20.5323 56.8336C19.9247 56.8336 18.5104 56.8336 18.5104 57.0315C18.7109 57.4304 18.7109 57.8261 18.9114 58.2219C19.1134 58.6176 19.3139 59.0134 19.3139 60.0075C19.3139 60.6011 19.5206 61.1979 19.3139 61.9894C19.3139 61.9894 21.9496 60.6011 21.9496 60.2022ZM19.5206 55.6432C19.9247 55.0464 21.1322 53.8576 21.5456 53.4587C21.1322 53.0629 20.9379 52.4662 20.7343 52.0704C19.9247 52.0704 16.8833 53.2577 16.8833 53.2577C17.4925 54.2533 17.8997 55.249 18.3037 56.4347C18.7109 56.2368 19.1134 56.039 19.5206 55.6432ZM27.218 56.6357H26.0011C26.0011 56.6357 25.5971 58.2219 25.5971 59.4107C25.3966 60.0075 25.1883 60.4032 25.1883 60.6011C24.7843 61.3958 24.5838 61.5936 24.1829 62.5846C24.7843 62.7825 25.3966 62.3867 25.7975 62.3867C26.2016 62.1904 26.8093 61.9894 27.0175 61.7946C27.218 61.5936 27.8256 60.2022 28.0292 59.8096V58.4229C27.8256 58.024 28.0292 57.2294 28.0292 56.6357C27.8256 56.2368 27.4185 56.4347 27.218 56.6357ZM38.1572 71.1153C37.9567 70.9174 37.9567 70.5185 37.7485 70.1259C37.3475 68.9339 37.5511 68.3372 37.3475 67.153H35.7266C35.3194 67.3478 35.1158 67.153 34.7133 67.3478C34.7133 68.1424 34.9154 68.7361 35.523 69.727C36.1276 70.9174 38.1572 71.1153 38.1572 71.1153ZM17.0931 52.2683C17.0931 52.2683 17.6992 51.8757 17.6992 51.4752C18.7109 50.2848 19.9247 49.2892 20.1313 49.0975C19.7211 48.1003 19.5206 47.9025 18.9114 47.3088C18.7109 47.5067 17.6992 48.1003 17.4925 48.4977C17.0931 48.6955 16.6859 48.8934 16.4761 49.0975C16.4761 49.4933 16.6859 49.6881 16.8833 50.0869C16.8833 50.4827 17.0931 51.4752 17.0931 52.2683ZM32.8888 59.2128C32.8888 59.0134 32.2781 59.0134 31.8771 59.0134C31.4684 59.0134 31.0706 59.2128 30.6572 59.2128C30.2531 59.8096 30.0542 60.4032 29.8506 61.1979C29.6501 61.7946 29.243 62.1904 29.0363 62.5846C29.0363 62.5846 30.8639 62.1904 31.2679 62.1904C31.8771 61.7946 32.2781 61.5936 32.6853 60.799C32.8888 60.2022 33.0955 60.0075 32.8888 59.2128ZM58.6183 74.8891C58.2158 74.6881 54.3632 72.904 53.7555 72.904C52.5387 73.1019 50.5168 73.1019 49.2938 73.6987C49.0964 73.1019 48.8975 72.1109 49.2938 71.5142C49.4942 71.1153 51.5254 71.1153 52.1331 71.1153C54.3632 71.3163 55.5769 71.7089 56.1846 71.7089C56.7953 72.3088 57.4045 72.3088 57.605 72.3088C57.605 72.3088 57.4045 71.1153 57.1978 70.7195C56.3913 70.3238 55.5769 70.1259 54.9677 69.928C53.956 69.5307 53.5535 69.3297 51.9326 69.1349C51.3281 69.1349 51.3281 69.3297 50.1112 69.3297C50.1112 69.1349 50.3117 68.9339 50.5168 68.7361C50.9147 68.1424 51.3281 67.7466 51.7321 67.3478H54.9677C55.7836 67.5457 56.1846 67.7466 57.1978 68.1424C57.8024 68.1424 57.1978 67.153 57.1978 66.5531C56.9974 66.3521 56.7953 66.1543 56.3913 65.9564C55.5769 65.7585 54.9677 65.5622 54.1565 65.1633C53.5535 64.9685 52.3413 64.5696 51.3281 64.7675C50.3117 65.1633 50.3117 64.9685 49.4942 65.3643C48.4872 66.7541 47.8795 68.3372 47.2735 69.928C47.2735 70.3238 46.2586 72.7046 46.2586 73.1019C46.2586 73.2998 46.0613 73.6987 46.0613 73.6987C45.2454 73.4977 41.5995 72.904 40.5893 73.8934C40.1884 74.2892 39.7781 74.6881 39.1658 75.8785C38.3577 75.2848 37.7485 75.0838 36.9403 75.0838C35.924 75.0838 34.7133 75.6806 34.1057 76.6684C34.1057 76.8725 32.4848 79.847 32.6853 82.622C32.8888 84.2128 33.498 84.8065 34.3062 86H36.5394C36.3358 85.2054 35.924 84.2128 35.523 83.0209C35.3194 82.0284 35.7266 80.2443 35.924 78.6566C35.924 78.6566 36.5394 78.2608 37.1408 78.0598C37.5511 77.6641 37.7485 77.8588 38.3577 77.8588C38.5644 77.8588 38.5644 78.0598 38.5644 78.0598C37.7485 78.8545 37.7485 79.6491 37.5511 80.838C37.5511 81.4316 38.3577 84.4107 39.1658 86H40.7929C40.7929 86 40.3857 82.0284 40.5893 81.6326C40.5893 80.838 40.7929 80.2443 40.9934 79.6491C41.399 79.847 41.8 79.847 42.2071 80.0449C42.8132 80.4453 42.8132 80.838 42.8132 81.4316C42.8132 82.4241 42.8132 82.622 42.6159 83.2219V84.2128C42.6159 85.2054 42.8132 86 42.8132 86H44.4404C44.4404 84.2128 44.6346 84.4107 44.8413 83.4198C45.0449 82.622 44.8413 82.2294 45.0449 81.6326C45.0449 81.2337 45.2454 80.838 45.4552 80.6401C46.0613 80.2443 46.4653 80.2443 47.2735 80.4453C47.2735 81.0358 47.2735 81.6326 47.0761 82.2294C46.8663 83.2219 46.6658 84.2128 46.2586 85.2054C46.2586 85.4032 46.0613 85.799 45.8546 86H48.2867C48.2867 86 48.6877 85.2054 48.8975 84.2128C49.4942 84.8065 50.3117 84.4107 50.7142 84.4107C51.3281 84.2128 51.7321 83.6161 52.1331 83.2219C51.3281 82.622 49.4942 82.8199 49.4942 82.0284C49.0964 80.6401 49.4942 80.4453 49.4942 79.6491C49.4942 78.4587 48.2867 78.0598 47.0761 77.8588C46.6658 77.6641 45.8546 77.6641 45.4552 77.6641C45.0449 77.8588 44.6346 78.4587 44.2399 78.4587C44.2399 78.4587 43.424 77.8588 42.8132 77.6641C42.4107 77.6641 41.1923 77.2652 41.1923 77.2652C41.399 76.8725 41.5995 76.4737 41.8 76.2742C42.0004 76.0795 42.6159 75.4827 42.8132 75.4827C43.2235 75.2848 43.828 75.4827 44.2399 75.6806C45.2454 75.8785 46.0613 76.0795 46.2586 76.0795C46.4653 76.0795 47.0761 76.4737 47.0761 76.4737C47.6729 76.0795 47.6729 75.6806 48.08 75.6806C49.2938 75.2848 49.704 75.0838 50.9147 75.0838C51.9326 75.0838 52.7454 76.8725 53.3468 77.4662C53.5535 77.8588 54.9677 79.6491 55.7836 81.2337C56.1846 81.0358 56.3913 80.6401 56.7953 80.6401C56.7953 80.2443 56.5918 78.6566 56.3913 78.4587C55.7836 76.6684 54.5699 76.2742 54.5699 75.8785C54.9677 75.8785 55.7836 76.2742 56.1846 76.2742C56.5918 76.4737 57.1978 76.6684 57.8024 77.0673C58.0091 77.2652 58.4162 77.4662 58.6183 77.6641C58.8188 78.4587 58.8188 79.0524 59.2259 79.847C59.2259 80.0449 59.2259 80.2443 59.4264 80.4453C60.0356 79.2533 60.6433 79.0524 61.0473 78.0598C60.6433 76.2742 59.6269 75.4827 58.6183 74.8891ZM56.9974 84.0118C56.5918 84.8065 56.1846 85.598 56.1846 86H58.4162C59.0255 85.2054 59.2259 84.4107 58.8188 83.2219C58.2158 83.4198 56.9974 82.8199 56.9974 84.0118ZM35.1158 64.1739C35.7266 63.976 36.1276 63.5771 36.7399 63.3792C37.1408 63.1814 37.5511 60.0075 37.5511 60.0075C37.5511 60.0075 36.3358 60.2022 36.1276 60.4032C35.924 60.4032 35.1158 60.4032 34.7133 60.799C34.7133 61.3958 34.7133 61.9894 34.5129 62.7825C34.1057 63.3792 33.0955 63.775 33.0955 64.7675C33.0955 64.7675 33.9052 64.9685 34.1057 64.9685C34.5129 64.7675 34.9154 64.3718 35.1158 64.1739ZM15.2624 41.3584V42.3478C15.2624 42.7467 15.4691 44.928 15.4691 45.5217C15.6696 46.1184 15.6696 46.7121 15.8669 47.3088C16.0783 47.7046 16.2788 48.1003 16.2788 48.4977C16.2788 48.4977 16.6859 48.3029 16.8833 47.9025C17.4925 47.3088 17.6992 46.7121 18.1033 45.9205C17.8997 44.5323 17.4925 43.3403 17.4925 42.9445C17.4925 41.3584 17.6992 40.961 17.8997 39.9685C17.0931 40.3643 16.0783 40.961 15.2624 41.3584ZM42.8132 69.5307C43.0168 69.5307 43.2235 69.1349 43.2235 69.1349C43.0168 68.3372 42.8132 67.3478 42.6159 66.5531C42.6159 66.5531 42.0004 66.1543 41.399 66.1543C40.9934 66.1543 40.5893 65.9564 40.1884 66.1543C40.3857 66.7541 40.3857 67.153 40.5893 67.7467C41.1923 68.5382 42.0004 68.9339 42.8132 69.5307ZM24.7843 48.1003C24.5838 47.7046 23.9762 47.5067 23.5736 47.3088C23.1665 47.3088 22.7593 48.1003 22.7593 48.8934C22.7593 49.2892 22.966 50.6837 23.1665 51.2773C23.1665 51.4752 23.5736 51.6747 23.9762 51.8757C24.5838 52.2683 25.1883 52.4662 25.7975 52.8651C25.7975 52.8651 25.1883 51.0826 24.9879 50.0869C24.7843 49.4933 25.1883 48.6955 24.7843 48.1003ZM29.0363 54.2533C29.243 53.4587 29.8506 53.0629 29.8506 51.6747C29.8506 51.6747 29.6501 50.6837 29.4496 50.2848C29.243 49.8891 29.0363 49.4933 28.4333 49.0975C28.2266 49.0975 27.8256 48.6955 27.6252 48.8934C27.6252 48.8934 27.4185 50.4827 27.218 50.6837C27.6252 51.2773 28.0292 51.6747 28.2266 52.2683C28.4333 52.8651 28.6322 53.6566 29.0363 54.2533ZM34.5129 57.4304C35.1158 56.8336 34.5129 55.8411 34.5129 55.249C34.3062 54.6522 34.5129 54.0555 34.3062 53.4587C34.1057 53.0629 33.6954 52.8651 33.2945 52.8651C32.8888 52.8651 31.8771 52.2683 31.8771 52.6641C30.8639 52.6641 31.6767 53.6566 31.6767 54.2533C31.6767 55.0464 33.6954 57.0315 33.6954 57.0315C34.1057 57.2294 34.1057 57.0315 34.5129 57.4304ZM15.0619 40.5653C15.4691 39.9685 16.6859 38.7781 17.2874 37.9804C17.6992 37.5862 18.5104 36.5936 20.5323 35.6011C20.7343 34.8065 20.9379 34.2144 20.9379 33.4229C18.9114 34.015 17.4925 34.4138 17.0931 34.8065C16.0783 35.4032 15.6696 35.8021 14.6579 36.3989C14.6579 37.5862 14.6579 37.5862 14.8583 38.1814L15.0619 40.5653ZM46.4653 62.9804C45.8546 62.5846 44.8413 61.3958 44.2399 60.799C43.828 60.4032 44.0285 59.8096 43.6245 59.4107C43.2235 59.4107 42.8132 59.4107 42.4107 59.6086C41.8 59.6086 41.399 59.6086 40.7929 59.8096C40.9934 60.2022 40.9934 60.6011 41.399 60.799C42.2071 61.5936 42.2071 61.7946 43.0168 62.9804C43.2235 63.3792 44.2399 63.5771 45.0449 63.5771C45.4552 63.5771 46.2586 63.1814 46.4653 62.9804ZM38.5644 52.0704C37.7485 52.2683 36.1276 52.4662 36.1276 53.0629C35.924 53.6566 36.1276 54.2533 36.1276 54.6522C36.3358 55.0464 36.3358 55.4438 36.3358 56.039C36.3358 56.4347 36.1276 56.8336 36.3358 57.4304C36.5394 57.0315 37.5511 56.6357 37.7485 56.2368C38.1572 55.6432 38.5644 55.249 38.7648 54.6522C38.9684 54.0555 38.7648 53.0629 38.5644 52.0704ZM41.1923 51.6747C40.5893 52.0704 40.1884 52.2683 40.1884 52.6641C40.1884 53.4587 40.3857 54.2533 40.3857 54.6522C40.3857 55.249 40.3857 55.6432 40.5893 55.8411C41.1923 56.039 41.399 56.039 42.2071 56.4347C42.2071 56.6357 43.0168 57.0315 43.0168 57.0315C43.0168 57.0315 42.6159 55.249 42.4107 54.4512V51.2773C41.5995 51.4752 41.399 51.6747 41.1923 51.6747ZM17.6992 33.024C17.8997 32.823 20.1313 31.2368 20.3287 31.039C20.7343 30.6432 20.9379 30.8411 21.1322 30.4453C21.1322 29.2533 21.5456 29.2533 21.342 28.8607C21.1322 28.4587 19.5206 28.8607 19.1134 28.8607C18.1033 29.0555 16.2788 29.6491 16.2788 30.048C16.0783 30.6432 16.0783 32.0284 16.0783 32.2325C16.2788 32.823 16.2788 33.4229 16.4761 34.015C17.0931 33.4229 17.2874 33.225 17.6992 33.024ZM61.0473 68.3372C60.8468 68.1424 60.4428 67.9445 60.0356 67.7467V68.5382C60.0356 69.3297 60.233 69.5307 60.233 69.928C60.233 70.3238 60.8468 73.1019 60.8468 73.8934C61.857 74.0944 61.857 74.8891 62.4646 75.2848C62.4646 75.2848 62.0575 72.904 62.0575 69.928C62.0575 69.727 61.4576 68.5382 61.0473 68.3372ZM49.0964 61C49.9076 61.5936 51.5254 61.3958 52.949 61.1979C52.1331 60.6011 51.9326 60.2022 51.5254 59.8096C50.9147 59.4107 50.5168 59.2128 49.704 58.4229H47.0761C47.4755 59.4107 47.6729 60.0075 49.0964 61ZM41.1923 48.1003C41.5995 47.7046 42.0004 46.9131 42.0004 46.7121C42.4107 45.9205 42.4107 44.928 42.4107 44.1349C40.7929 43.1393 38.7648 42.9445 36.7399 42.9445C34.9154 42.9445 32.8888 43.1393 30.8639 44.5323C31.0706 45.3269 31.2679 45.9205 31.6767 46.7121C31.8771 46.7121 32.0807 47.1109 32.2781 47.1109C32.6853 46.7121 33.0955 46.1184 33.6954 45.9205V46.7121C33.6954 47.3088 33.6954 47.7046 33.9052 48.3029C33.9052 48.8934 34.5129 48.8934 35.3194 48.8934C36.1276 48.8934 36.3358 47.5067 36.3358 47.3088C36.3358 47.3088 36.5394 48.1003 37.7485 48.6955C37.7485 48.6955 39.1658 48.6955 39.1658 48.4977C39.3725 47.5067 39.5776 47.3088 39.3725 46.5142C39.3725 46.5142 40.5893 47.3088 41.1923 48.1003ZM47.4755 55.4438C46.6658 54.2533 46.4653 53.0629 46.4653 52.8651C46.0613 52.4662 46.8663 51.0826 45.8546 51.0826C45.4552 50.8785 44.2399 50.4827 44.2399 50.4827C44.0285 51.0826 44.0285 52.2683 44.2399 52.8651C44.2399 53.4587 45.2454 55.249 45.6525 55.4438C45.8546 55.6432 46.8663 55.6432 47.0761 55.6432C47.2735 55.4438 47.4755 55.4438 47.4755 55.4438ZM16.4761 29.4512C16.8833 28.8607 16.8833 28.8607 17.2874 28.4587C18.1033 27.8651 18.5104 27.4662 19.5206 26.6731C19.7211 26.2742 19.9247 26.4752 20.5323 26.0795C20.7343 25.8816 20.9379 25.6806 20.9379 25.4827C20.9379 25.0869 20.7343 24.6881 20.5323 24.2954C20.3287 23.8965 19.9247 22.9056 19.9247 22.7046C19.9247 21.1184 20.1313 20.7227 20.3287 19.3328C19.5206 19.1349 18.5104 19.1349 18.1033 19.928C17.6992 20.5248 17.6992 21.1184 17.6992 21.7183C17.6992 22.7046 17.8997 23.5008 18.1033 24.6881C17.2874 25.2879 16.8833 25.6806 16.0783 26.0795C16.2788 27.2683 16.4761 29.4512 16.4761 29.4512ZM57.1978 58.2219C56.7953 57.8261 56.3913 57.4304 55.7836 57.0315C54.9677 56.8336 54.5699 56.4347 54.1565 55.6432C53.956 55.249 53.7555 54.8501 53.3468 54.4512C52.949 54.4512 52.7454 54.6522 52.3413 54.8501C51.9326 55.249 51.1183 55.249 50.7142 55.8411C50.9147 56.2368 51.1183 56.6357 51.5254 57.0315C51.7321 57.2294 51.9326 57.6282 52.7454 58.024C54.1565 58.8155 54.5699 59.0134 54.5699 59.0134C55.7836 59.2128 57.1978 58.2219 57.1978 58.2219ZM47.4755 49.2892C47.4755 49.2892 47.6729 50.2848 48.08 51.2773C48.2867 51.6747 48.6877 52.0704 48.8975 52.0704C49.2938 52.2683 50.1112 52.4662 50.7142 52.4662V52.0704C50.1112 51.4752 49.2938 50.0869 49.2938 49.6881C48.8975 49.4933 48.8975 49.4933 48.2867 49.4933C48.08 49.2892 47.6729 49.2892 47.4755 49.2892ZM65.7034 63.5771C65.506 64.1739 64.8952 64.5696 64.8952 65.3643C64.8952 65.3643 65.91 66.3521 66.1136 66.952C66.3157 67.3478 66.1136 69.1349 66.3157 69.5307C66.9233 68.9339 67.3305 68.7361 67.3305 67.9445C67.1238 67.7466 66.9233 66.1543 66.7197 64.9685C66.7197 64.5696 66.1136 63.976 65.7034 63.5771ZM81.9156 77.4662C80.8977 77.4662 79.6839 78.6566 78.8773 82.4241C78.6738 83.8171 78.4702 85.0106 78.6738 85.799L80.492 86C80.8977 85.4032 80.8977 84.4107 81.3048 83.6161C81.3048 83.2219 81.7151 83.2219 82.1129 83.2219C82.5217 83.4198 83.336 84.4107 83.7354 84.8065C83.939 84.4107 84.3431 83.6161 84.3431 83.0209C84.3431 82.8199 83.7354 82.4241 83.5334 82.4241C82.9288 82.0284 82.5217 81.6326 81.7151 81.6326C81.5084 80.838 82.7221 79.847 82.7221 79.847C84.1395 79.847 85.5599 81.4316 85.5599 81.4316C85.964 81.2337 86.1644 80.6401 86.5747 80.2443C85.3563 78.0598 83.1293 77.4662 81.9156 77.4662ZM71.3851 66.952C71.1784 66.5531 70.9764 65.9564 70.7759 65.5622C70.7759 65.3643 70.7759 64.9685 70.5692 64.3718C70.5692 64.3718 69.1488 65.3643 68.9483 65.5622C69.758 66.5531 69.3555 67.153 69.5528 67.9445C69.5528 68.3372 70.3687 68.5382 70.5692 69.1349C70.5692 69.3297 70.1714 71.1153 70.1714 71.1153C71.3851 69.5307 71.3851 67.5457 71.3851 66.952ZM87.5849 84.4107C87.3875 85.0106 87.1808 85.4032 86.7752 85.799C86.9803 86 87.3875 86 87.5849 86H89.6192C89.8103 85.799 89.8103 85.2054 90.0155 84.8065C90.0155 84.4107 90.2159 84.0118 90.2159 83.4198H88.9991C88.3961 83.4198 87.7885 83.8171 87.5849 84.4107ZM60.0356 55.4438H61.0473C61.4576 55.4438 61.4576 54.6522 61.0473 54.6522C59.6269 54.2533 58.4162 53.8576 57.605 52.6641C57.4045 52.8651 56.1846 53.2577 55.7836 53.6566C55.7836 53.6566 56.1846 54.6522 57.1978 55.6432C57.8024 56.2368 59.0254 55.8411 60.0356 55.4438ZM51.1183 48.6955C51.7321 49.4933 52.3413 50.0869 52.949 50.6837C53.1463 51.0826 53.7555 51.0826 54.1565 51.0826H56.1846C56.7953 50.8785 57.1978 50.8785 57.605 50.4827C56.7953 50.0869 55.7836 49.6881 54.9677 49.2892C54.1565 48.8934 53.5535 48.4977 52.949 47.9025C52.5387 47.9025 52.3413 48.1003 52.1331 48.1003C51.7321 48.3029 51.5254 48.4977 51.1183 48.6955ZM29.8506 39.177C29.8506 39.177 30.6572 38.9791 31.2679 38.9791C31.6767 38.9791 32.0807 38.9791 32.4848 39.177C32.2781 39.3749 31.4684 39.7706 31.4684 39.7706C31.0706 39.9685 30.8639 40.1664 30.2531 40.3643C30.0542 39.9685 29.8506 39.177 29.8506 39.177ZM29.8506 34.8065C30.2531 34.2144 31.0706 33.8171 31.6767 33.6208C32.4848 33.4229 32.2781 31.8336 32.2781 31.6357C32.4848 31.2368 32.2781 30.6432 32.2781 30.2459C31.8771 30.4453 31.8771 30.2459 31.0706 30.4453C30.2531 30.4453 29.8506 30.048 29.4496 29.6491C29.0363 29.2533 28.0292 28.4587 27.6252 27.6703C28.6322 27.4662 29.4496 27.4662 30.4598 27.4662H33.0955C33.6954 27.6703 34.1057 28.0661 34.1057 28.4587C34.1057 28.6566 33.9052 29.8501 33.9052 30.048C33.6954 31.2368 33.6954 31.6357 33.498 33.4229V34.015C33.2945 34.4138 32.4848 34.6117 32.0807 35.0075C31.8771 35.6011 31.8771 36 31.2679 36.1979C30.6572 36.3989 30.2531 36.9925 29.8506 36.7946C29.243 36.3989 29.4496 35.4032 29.8506 34.8065ZM26.4083 24.6881C26.0011 24.2954 25.1883 23.6987 24.7843 22.9056C24.1829 22.1109 24.3802 21.3194 24.3802 21.1184C24.7843 19.928 26.2016 19.5307 27.0175 19.3328C27.4185 19.3328 27.8256 19.3328 28.4333 19.7317C29.243 20.1259 29.6501 20.1259 30.0542 21.5142C30.0542 21.7183 30.0542 21.9099 29.8506 21.9099C29.8506 21.9099 28.6322 22.7046 28.2266 23.105C27.218 23.6987 27.0175 24.6881 26.4083 24.6881ZM32.4848 24.4933C33.0955 24.0944 33.6954 23.6987 34.1057 23.6987C34.5129 23.5008 35.3194 23.2998 35.3194 23.6987C35.3194 24.4933 34.7133 24.8891 34.1057 25.6806C33.6954 26.2742 33.498 25.8816 32.4848 25.8816H31.4684C31.4684 25.2879 31.8771 25.0869 32.4848 24.4933ZM40.7929 23.6987C41.1923 23.6987 44.6346 24.4933 42.4107 25.4827C42.0004 25.8816 40.9934 25.6806 39.9786 25.6806C39.9786 25.2879 39.9786 24.4933 39.5776 24.4933C39.1658 24.0944 38.5644 24.0944 38.5644 23.6987C37.7485 22.9056 39.7781 23.5008 40.7929 23.6987ZM44.6346 19.7317C45.2454 19.1349 46.0613 18.9371 46.8663 19.1349C47.8796 19.3328 48.08 19.5307 48.4872 19.928C49.0964 20.7227 48.8975 22.3088 48.6877 23.2998C48.4872 23.8965 47.8796 24.2954 47.2735 24.2954C46.2586 23.105 45.2454 22.3088 43.828 21.9099C43.6245 21.1184 44.2399 20.3238 44.6346 19.7317ZM45.8546 28.0661C45.6525 28.4587 45.2454 28.6566 44.8413 28.8607C44.6346 28.8607 44.4404 29.2533 44.4404 29.4512C44.0285 30.048 43.424 30.2459 42.6159 30.2459C42.2071 30.2459 41.399 30.2459 40.9934 29.4512C40.9934 29.4512 41.1923 31.8336 41.1923 32.4272C41.1923 32.6251 41.399 32.6251 41.399 32.6251C42.2071 32.823 42.4107 33.6208 42.8132 34.015C42.8132 34.015 43.0168 34.2144 43.2235 34.2144C44.0285 34.8065 45.8546 35.6011 45.0449 35.6011C45.0449 36 44.4404 36.9925 44.2399 36.9925C43.6245 36.3989 42.6159 36 41.8 35.6011C41.5995 35.2054 41.399 34.8065 41.1923 34.4138C40.7929 34.015 40.5893 34.015 39.9786 33.6208C39.9786 32.2325 39.7781 32.2325 39.7781 30.8411C39.7781 30.6432 39.3725 28.4587 39.3725 28.4587C39.3725 28.2608 39.9786 27.6703 40.5893 27.4662C40.5893 27.4662 44.4404 27.4662 46.2586 27.6703C46.2586 27.6703 46.0613 28.0661 45.8546 28.0661ZM43.6245 40.3643C42.8132 40.1664 42.2071 39.5696 41.1923 39.5696C41.1923 38.9791 41.1923 38.9791 41.399 38.7781C42.6159 38.5802 43.2235 38.9791 43.828 39.177C43.828 39.3749 43.6245 40.3643 43.6245 40.3643ZM30.6572 43.1393C31.2679 43.1393 31.8771 42.5488 32.4848 42.3478C33.6954 41.952 34.7133 41.5562 35.924 41.3584C36.3358 41.1558 36.3358 40.7632 36.3358 40.3643C36.5394 39.9685 36.5394 39.9685 36.5394 39.3749C36.5394 39.177 35.7266 38.9791 35.3194 38.1814C34.9154 37.5862 35.3194 36.9925 35.1158 36.9925C34.5129 37.3883 33.6954 37.784 33.498 36.9925C33.2945 36.3989 33.2945 35.6011 33.9052 35.4032C35.924 34.6117 38.1572 34.6117 40.1884 35.4032C40.5893 35.4032 40.7929 35.8021 40.7929 36.1979C40.9934 36.5936 40.7929 36.9925 40.3857 37.3883C39.7781 37.5862 39.1658 36.7946 39.1658 37.3883C39.1658 37.9804 38.7648 38.7781 37.7485 39.177C37.5511 39.3749 37.7485 39.9685 37.9567 40.5653C37.9567 40.7632 37.9567 41.1558 38.1572 41.1558C38.9684 41.3584 40.1884 41.5562 40.7929 41.952C41.5995 42.3478 43.0168 43.5351 43.2235 43.3403C43.828 42.9445 44.0285 42.3478 44.4404 41.952C46.6658 42.9445 48.4872 43.5351 51.3281 45.3269C51.7321 45.3269 51.7321 44.5323 51.7321 44.1349C50.7142 43.5351 47.6729 41.952 47.2735 41.751C46.4653 41.5562 46.0613 41.1558 45.2454 40.961V39.3749C46.6658 39.7706 49.4942 39.9685 52.3413 41.5562C52.5387 40.961 52.949 40.5653 52.7454 40.3643C49.4942 38.7781 47.0761 38.1814 45.0449 38.1814C45.0449 37.9804 44.6346 37.784 45.0449 37.5862C45.6525 37.1904 45.8546 36.9925 46.0613 36.7946C46.6658 36 47.0761 35.2054 47.2735 34.4138C47.8795 33.225 48.4872 33.6208 48.8975 31.039C48.2867 31.039 48.08 31.4347 47.4755 31.6357C47.6729 31.039 47.8795 30.4453 47.8795 29.8501C48.08 28.6566 48.4872 27.8651 48.4872 26.4752C49.0964 26.2742 50.1112 25.6806 50.3117 24.8891C50.3117 24.6881 50.3117 24.0944 50.5168 23.2998C50.5168 22.1109 50.7142 21.1184 50.3117 20.3238C50.3117 20.1259 48.8975 18.1424 47.8795 17.5488C46.4653 16.952 45.8546 17.153 44.8413 17.3478C43.6245 17.3478 42.0004 18.5382 42.0004 20.7227C40.7929 20.7227 38.3577 20.9205 36.9403 22.1109C35.7266 21.5142 34.7133 21.3194 33.6954 21.1184H31.8771C31.6767 20.3238 31.2679 19.5307 30.4598 18.9371C29.4496 18.3434 28.2266 17.5488 26.8093 17.5488C26.2016 17.5488 25.5971 17.3478 24.9879 17.7498C24.3802 18.1424 23.367 18.5382 23.1665 19.3328C22.7593 20.3238 22.3552 21.1184 22.3552 22.1109C22.3552 23.105 22.966 23.8965 23.5736 24.8891C23.771 25.2879 23.9762 25.2879 24.3802 25.4827C24.5838 25.4827 25.3966 25.8816 25.5971 26.0795C25.7975 26.2742 25.3966 26.8741 25.3966 28.0661C25.3966 29.0555 25.3966 29.0555 25.5971 29.8501C25.5971 30.6432 25.7975 31.4347 26.0011 32.0284C25.3966 32.0284 24.9879 31.4347 24.5838 31.8336C24.5838 32.2325 24.9879 33.225 25.3966 34.015C26.4083 35.0075 27.4185 36 28.0292 37.1904C28.0292 37.3883 28.0292 37.784 28.2266 37.784C26.8093 37.9804 25.3966 37.9804 23.9762 38.3824C22.7593 38.7781 21.342 39.3749 20.1313 39.9685C20.1313 40.7632 20.3287 41.3584 20.3287 41.3584C20.5323 41.3584 22.3552 40.3643 23.9762 39.9685C26.6088 39.177 28.0292 39.3749 28.0292 39.3749C28.2266 39.7706 28.4333 40.3643 28.2266 40.5653C25.7975 41.5562 23.367 42.7467 21.1322 44.1349C21.342 44.5323 21.1322 45.1259 21.5456 45.5217C23.5736 44.3328 26.4083 42.9445 28.4333 42.1499C29.243 41.952 29.243 42.1499 29.6501 42.1499C29.8506 42.3478 30.2531 43.1393 30.6572 43.1393ZM69.1488 61C69.1488 61 68.7447 60.2022 68.7447 60.0075C68.5442 59.6086 68.3437 59.0134 67.7345 58.8155C67.7345 58.6176 67.531 59.6086 67.3305 60.0075C67.1238 60.4032 67.1238 60.2022 66.7197 61C67.1238 61.5936 67.3305 61.9894 67.7345 62.5846C67.7345 62.7825 68.3437 63.5771 68.3437 63.5771C68.3437 63.5771 69.1488 61.9894 69.1488 61.5936V61ZM95.0818 83.8171H94.0685C93.6645 83.6161 93.4609 83.6161 93.2604 83.8171C92.6512 84.4107 92.6512 85.4032 92.244 86H94.6777C95.0818 85.598 95.489 85.4032 95.489 84.6055C95.489 84.4107 95.489 84.0118 95.0818 83.8171ZM66.7197 56.6357C66.7197 54.8501 66.3157 54.8501 65.506 54.0555C65.506 54.0555 64.8952 55.249 64.4927 55.8411C65.3024 56.6357 65.506 57.6282 65.506 57.6282C66.3157 56.8336 66.3157 57.0315 66.7197 56.6357ZM74.6207 63.5771C74.6207 62.9804 74.4171 62.3867 74.0177 61.9894C73.811 61.3958 73.6105 60.6011 73.6105 60.2022C73.4007 59.8096 72.5973 58.6176 72.1901 58.024C71.786 57.6282 71.786 56.6357 71.5825 56.039L69.1488 56.4347C70.3687 58.024 71.3851 59.6086 71.9834 61.1979C72.1901 61.7946 74.0177 67.7467 74.0177 67.7467C74.6207 67.5457 73.811 64.5696 74.0177 64.3718C74.2151 63.976 74.2151 63.775 74.6207 63.5771ZM59.2259 47.9025C59.0255 47.5067 58.6183 46.7121 58.4162 46.5142C58.2158 46.1184 58.0091 45.7227 57.8024 45.5217C57.605 45.3269 56.7953 45.5217 56.3913 45.5217C55.9841 45.5217 55.7836 45.5217 55.3765 45.7227C55.7836 46.1184 56.1846 47.5067 56.3913 47.5067C56.5918 47.9025 56.5918 48.1003 56.9974 48.3029C58.0091 48.4977 58.8188 48.3029 59.8336 48.6955C60.233 48.1003 59.4264 48.1003 59.2259 47.9025ZM64.6963 52.2683C64.6963 52.2683 62.2642 50.8785 61.857 50.2848C61.2509 50.2848 61.2509 50.2848 60.6433 50.8785C60.233 50.8785 60.0356 51.0826 59.8336 51.4752C60.4428 51.8757 60.6433 52.0704 61.2509 52.4662C61.4576 52.6641 61.6565 52.6641 62.2642 52.4662H63.8882C64.286 52.4662 64.6963 52.6641 64.6963 52.2683ZM98.9313 81.6326C98.9313 81.6326 98.7277 82.2294 98.5241 82.622C98.12 83.6161 97.9195 84.0118 97.9195 84.6055C98.5241 85.0106 98.7277 84.8065 99.5405 84.8065C99.9445 84.8065 100.349 85.0106 100.552 85.0106C100.956 84.8065 100.552 84.4107 100.552 84.2128C100.349 84.2128 99.5405 82.4241 98.9313 81.6326ZM77.2595 64.5696C78.063 63.976 78.2666 62.7825 78.4702 62.1904C78.6738 61.5936 78.2666 60.4032 78.063 60.0075C77.4585 60.0075 77.0591 59.6086 76.6457 59.6086C76.2416 59.6086 76.0411 58.6176 75.4319 58.8155C75.6355 59.2128 76.0411 61.1979 76.2416 61.5936C76.4483 61.7946 77.2595 63.1814 77.2595 64.5696ZM92.8548 75.4827C92.8548 75.2848 92.244 74.8891 92.0498 74.8891C92.0498 74.6881 91.8369 73.8934 91.6348 73.6987C91.2339 73.4977 91.2339 73.2998 90.8267 73.2998C90.8267 73.4977 90.8267 73.6987 90.6231 74.0944C90.6231 74.4902 90.216 74.6881 90.4226 75.0838C90.6231 75.4827 90.8267 75.4827 91.2339 75.6806C91.4343 75.8785 92.0498 77.4662 92.244 77.6641C92.4476 77.4662 92.4476 76.2742 92.8548 75.4827ZM57.605 43.1393C58.2158 43.1393 58.6183 43.5351 59.0255 43.5351C59.0255 42.9445 58.8188 42.5488 58.6183 41.952C58.4162 40.961 58.0091 40.3643 57.8024 39.7706C57.8024 39.177 57.8024 38.7781 57.605 38.3824C57.4045 38.3824 57.1978 38.3824 56.9974 38.1814C56.3913 38.1814 55.5769 37.9804 55.5769 37.9804C55.5769 38.5802 55.7836 39.5696 55.7836 40.1664C55.7836 40.3643 56.5918 42.1499 56.7953 42.3478C56.9974 42.7467 57.1978 42.9445 57.605 43.1393ZM76.8462 56.2368C76.6457 55.6432 76.0411 55.4438 75.6355 55.0464C75.6355 55.0464 73.006 54.0555 72.5973 54.0555C72.1901 54.2533 73.6105 55.0464 73.811 55.4438C74.6207 56.2368 76.6457 58.024 76.6457 58.024L76.8462 56.2368ZM51.9326 31.2368C51.7321 31.4347 51.5254 31.8336 51.5254 32.0284C51.1183 32.6251 50.5168 33.024 50.9147 33.6208C51.1183 34.4138 51.1183 35.2054 51.7321 35.8021C52.3413 36.3989 53.1463 36.1979 53.956 36.7946C53.956 36.7946 53.3468 34.2144 52.949 33.024C52.7454 32.2325 52.3413 31.8336 51.9326 31.2368ZM90.8267 46.3163C88.1956 43.7423 85.3563 42.1499 82.5217 42.1499C80.0942 42.1499 78.2666 43.9339 78.2666 45.7227C78.2666 52.8651 81.1075 57.4304 82.9288 61.3958C83.5334 62.3867 83.7354 63.1814 83.7354 64.1739C83.939 66.7541 81.7151 71.5142 80.2947 74.0944C80.0942 73.8934 79.0763 73.6987 78.2666 73.6987C76.2416 73.6987 75.4319 75.0838 75.0248 76.2742C74.4171 76.2742 74.0177 75.8785 73.4007 75.8785C70.9764 75.6806 68.9483 77.8588 68.9483 80.2443C68.9483 82.8199 69.5528 84.2128 70.5692 86H72.5973C72.3906 85.4032 71.786 82.4241 71.5825 81.6326C71.3851 80.4453 71.786 79.6491 72.3906 79.0524C73.2034 77.8588 75.2252 78.2608 75.2252 78.2608C74.6207 79.2533 73.811 80.838 73.811 82.4241C74.0177 83.4198 74.2151 85.0106 74.8274 86H76.4483C76.8462 84.8065 76.4483 83.8171 76.4483 82.8199C76.4483 82.2294 76.4483 81.6326 76.6457 81.0358C76.6457 80.6401 77.6589 81.8305 77.6589 81.8305C77.6589 81.8305 78.4702 80.838 78.4702 80.0449C78.4702 79.4512 77.2595 79.6491 77.0591 79.0524C76.8462 78.4587 77.4585 77.0673 77.4585 77.0673C78.6738 76.2742 79.6839 76.4737 80.0942 76.4737C80.6972 76.4737 80.8977 76.6684 81.7151 76.6684C82.3181 76.6684 82.5217 75.4827 82.5217 74.8891C82.7221 75.0838 83.336 75.4827 83.5334 75.4827C84.1395 75.6806 84.3431 75.6806 84.9507 75.8785C85.7635 76.2742 86.5747 76.6684 87.3875 77.4662V77.2652C87.1808 76.4737 87.5849 75.4827 86.9803 75.0838C86.9803 75.0838 85.964 74.2892 85.1543 73.8934C84.7502 73.4977 84.1395 73.4977 83.939 73.1019C83.7354 72.904 83.7354 72.7046 83.7354 72.3088C83.7354 71.9099 83.939 71.3163 84.1395 71.3163C84.5435 71.1153 84.7502 71.3163 85.5599 71.7089C86.3711 72.1109 87.1808 72.7046 87.7885 73.1019C87.7885 73.1019 87.9889 73.4977 87.9889 73.2998C88.8017 72.904 88.8017 72.7046 88.8017 71.5142C87.9889 70.5185 88.8017 70.3238 87.5849 69.5307C87.1808 69.5307 84.9507 68.7361 84.9507 68.7361C84.9507 68.3372 85.5599 67.3478 85.5599 67.3478C85.7635 67.153 86.1645 67.153 86.3711 67.5457C87.5849 68.3372 88.3961 68.3372 89.6192 68.7361C89.8103 68.1424 89.8103 67.7467 89.4094 67.3478C88.9991 66.7541 88.3961 66.1543 87.9889 65.9564C87.1808 65.7585 86.7752 65.5622 86.1644 65.3643C86.1644 64.7675 85.964 64.1739 85.7635 63.3792C85.7635 62.9804 86.1644 63.1814 86.5747 63.1814C87.3875 62.9804 90.8267 64.1739 90.8267 64.1739C90.8267 63.3792 90.6231 62.7825 90.216 62.3867C89.8103 61.9894 89.4094 61.5936 88.3961 61.1979C86.9803 60.799 85.7635 61 84.7502 60.4032C83.939 59.6086 83.7354 59.4107 83.5334 58.6176C84.1395 58.4229 85.1543 58.2219 85.7635 58.2219C86.7752 58.2219 87.3875 58.024 88.6013 58.4229C88.9991 58.6176 90.4226 59.8096 91.0334 59.8096C91.0334 59.8096 90.6231 58.2219 90.216 57.6282C89.6192 57.6282 88.6013 56.4347 88.1956 56.2368C86.1645 55.4438 85.7635 55.8411 84.5435 56.039C83.939 56.2368 83.336 56.039 82.7222 56.039C82.5217 55.6432 83.1293 55.0464 82.9288 54.6522C82.9288 54.4512 82.1129 54.2533 82.1129 53.8576C82.1129 53.8576 85.3563 53.4587 86.5747 53.6566C86.9803 53.8576 88.1956 54.6522 88.6013 54.6522C88.6013 54.6522 88.9991 53.2577 88.3961 52.0704C87.3875 51.8757 86.3711 52.0704 85.5599 51.8757C84.7502 51.6747 83.939 51.8757 83.336 51.8757C82.7222 51.8757 82.1129 51.6747 81.5084 51.6747C81.1075 51.0826 80.8977 50.4827 80.8977 49.8891C80.8977 49.8891 85.964 49.6881 86.3711 49.4933C86.1645 49.2892 85.7635 49.0975 85.5599 48.6955C84.7502 47.3088 84.1395 47.1109 83.1293 47.1109C82.5217 47.1109 81.1075 47.7046 80.2947 47.5067C80.2947 45.9205 81.1075 44.5323 82.3181 44.5323C84.7502 44.5323 87.1808 45.5217 89.2058 47.7046C94.2752 52.8651 96.9032 62.5846 96.9032 69.5307C96.9032 72.7046 96.4991 75.6806 96.0966 78.0598C96.7027 78.2608 97.1037 78.2608 97.7144 78.2608C98.3267 75.8785 98.9313 72.7046 98.9313 69.727C98.9313 59.6086 95.2823 51.0826 90.8267 46.3163ZM60.233 37.9804C60.6433 39.5696 61.2509 41.5562 61.4576 43.9339C61.4576 44.5323 61.2509 45.1259 61.4576 45.7227L64.286 46.7121C64.286 46.7121 63.8882 44.3328 63.481 41.5562C63.0754 39.177 62.8718 38.3824 62.2642 37.3883C61.857 37.5862 61.6565 37.5862 61.2509 37.5862C60.6433 37.784 60.233 37.9804 60.233 37.9804ZM66.9233 49.4933C67.3305 49.8891 67.531 50.6837 67.7346 52.0704C67.9366 52.8651 68.3438 53.0629 68.7447 54.2533C69.3555 53.8576 70.3687 54.0555 70.3687 54.0555C70.3687 53.0629 69.758 52.0704 69.758 51.8757C69.5528 51.4752 68.9483 50.2848 68.7447 49.8891C68.9483 49.8891 69.5528 50.6837 70.5692 50.6837C70.7759 50.6837 71.3851 50.8785 71.786 50.6837C71.786 50.6837 72.3906 51.0826 72.3906 51.4752C72.7962 52.0704 72.7962 52.4662 73.006 53.0629C73.4007 53.0629 73.6105 53.0629 73.811 52.8651C74.6207 52.8651 75.0248 52.6641 75.0248 52.6641C74.8274 52.2683 74.6207 51.8757 74.6207 51.4752C74.4171 51.0826 74.0177 50.0869 74.0177 50.0869L77.6589 49.4933C77.6589 48.8934 77.4585 48.1003 76.8462 47.7046C75.0248 48.3029 73.006 48.4977 71.5825 48.4977C69.5528 48.4977 67.531 48.1003 64.6963 46.9131C64.4927 47.3088 64.6963 48.1003 64.6963 48.1003C65.91 49.0975 65.91 48.4977 66.9233 49.4933ZM22.1501 16.7572C23.5737 15.9642 26.0011 14.5696 26.8093 13.7781C27.0175 14.177 29.4496 15.5684 30.4598 16.1589C31.2679 16.7572 32.0807 16.952 32.8888 17.3478C33.2945 16.7572 33.6954 16.1589 34.1057 14.7706C34.7133 15.1695 35.523 15.1695 36.1276 15.3643C36.1276 16.1589 36.1276 16.952 36.3358 17.7498C36.3358 18.1424 36.7399 17.9445 37.5511 17.5488C38.7648 17.153 39.9786 16.952 40.5893 16.7572C42.0004 15.9642 42.8132 14.3749 44.0285 14.3749C45.0449 14.3749 46.8663 14.9685 47.2735 15.3643C47.8796 15.5684 48.2867 15.7632 48.8975 15.7632C49.704 15.7632 50.3117 14.9685 50.9147 14.5696C49.0964 13.3824 47.0761 12.1935 45.0449 11.3989C43.828 12.3883 43.0168 13.1814 42.4107 13.1814C41.8 13.1814 42.2071 11.9956 42.2071 11.1979C41.5995 11.1979 41.1923 11.1979 40.5893 11C40.1884 12.3883 39.9786 14.177 38.9684 14.5696C38.5644 14.7706 38.3577 14.7706 38.1572 14.7706V13.1814C38.1572 12.9835 38.9684 11.5968 38.7648 11.3989C38.7648 11.3989 36.9403 11.7946 36.5394 11.9956C36.3358 12.1935 35.1158 12.7887 34.9154 12.7887C34.9154 12.7887 34.3062 12.5877 34.1057 12.5877C33.498 12.1935 33.0955 12.1935 32.4848 11.7946C31.6767 14.177 31.4684 14.7706 31.4684 14.3749C31.4684 14.3749 28.6322 12.5877 27.6252 11.3989C24.9879 11.7946 24.9879 12.1935 22.7593 12.9835C21.9496 13.7781 20.7343 14.7706 19.9247 15.9642C19.5206 16.7572 19.1134 17.153 18.7109 17.9445L20.7343 18.7392C20.9379 18.5382 21.9496 17.153 22.1501 16.7572ZM92.0498 70.7195C92.6512 70.9174 93.0553 72.3088 93.4609 72.7046C94.0685 73.4977 93.868 71.3163 93.6645 70.9174C93.6645 70.7195 93.6645 69.1349 93.2604 69.1349C93.0553 68.9339 92.8548 68.3372 92.6512 68.1424C92.4476 68.7361 92.6512 69.1349 92.6512 69.727C92.6512 70.1259 91.8369 70.5185 92.0498 70.7195ZM56.5918 30.2459C56.3913 30.2459 55.7836 30.048 54.9677 29.8501H53.956C54.1565 30.4453 54.7673 31.039 54.9677 31.4347C54.9677 31.6357 54.9677 32.2325 55.1775 32.6251C55.5769 32.6251 56.1846 32.823 56.5918 33.024C56.7953 33.024 58.0091 33.225 58.4162 33.6208C58.8188 33.6208 60.233 35.2054 60.4428 35.4032C61.0473 35.8021 61.6565 36.1979 62.0575 36C62.4646 36 62.0575 35.4032 62.0575 35.2054C61.2509 34.015 60.6433 31.8336 60.4428 31.8336C59.8336 31.6357 59.4264 31.8336 58.6183 31.4347C58.2158 31.039 56.9974 30.4453 56.5918 30.2459ZM53.3468 25.4827C53.5535 25.8816 53.956 25.8816 54.3632 26.0795C54.7673 26.4752 55.1775 26.6731 55.7836 27.072C56.5918 27.8651 56.9974 28.8607 58.0091 29.6491C58.4163 29.8501 58.6183 30.048 58.8188 30.048C59.0255 30.048 59.8336 30.6432 60.0356 30.8411C60.0356 29.2533 59.4264 28.0661 59.0255 27.2683C59.0255 27.072 58.8188 26.8741 58.4163 26.6731C57.8024 26.0795 57.1978 25.4827 56.9974 25.4827C56.3913 24.8891 55.9841 24.2954 55.3765 23.6987C54.7673 23.6987 54.3632 24.2954 53.956 24.4933C53.7555 24.8891 52.949 25.2879 53.3468 25.4827ZM52.5387 20.5248C52.5387 21.1184 52.7454 21.7183 52.949 22.3088C53.956 22.9056 55.1775 23.2998 55.1775 23.2998C55.3765 22.7046 54.9677 22.1109 54.9677 21.5142C54.5699 20.1259 53.956 18.7392 53.7555 17.153V16.3568C52.949 15.9642 52.1331 15.7632 51.1183 15.3643C51.1183 15.3643 51.1183 16.5562 51.5254 17.153C51.9326 18.1424 52.5387 19.7317 52.5387 20.5248ZM95.489 25.6806L94.6777 24.6881L96.9032 24.0944L97.9195 27.4662L95.489 25.6806ZM88.1956 23.8965L86.9803 24.6881L85.3563 23.5008L87.1808 22.5098L89.2058 23.8965H88.1956ZM119.8 62.7825C120 61.5936 120 60.4032 120 59.6086C119.593 59.2128 118.982 59.0134 118.584 59.0134C118.584 58.4229 118.378 57.6282 118.584 56.8336C118.982 56.8336 119.8 57.0315 119.8 56.8336C119.8 55.6432 119.593 54.4512 119.395 53.8576C118.982 53.6566 118.378 53.4587 117.768 53.2577C117.768 52.6641 117.568 52.0704 117.364 51.6747C117.978 51.4752 118.378 51.4752 118.782 51.4752C118.782 51.4752 118.378 49.6881 118.179 48.8934C117.768 48.6955 117.161 48.6955 116.758 48.6955C116.555 48.3029 116.351 47.9025 116.147 47.3088C116.555 47.1109 116.963 47.1109 117.364 46.9131C116.963 45.9205 116.758 45.5217 116.351 44.928H114.937C114.736 44.5323 114.533 44.1349 114.533 43.7423C114.736 43.5351 115.137 43.3403 115.342 43.1393C115.137 42.5488 114.736 41.952 114.326 41.5562C113.922 41.5562 113.516 41.751 113.112 41.5562C112.912 41.5562 112.301 40.7632 112.505 40.7632C112.705 40.3643 113.112 40.1664 113.316 39.9685C112.705 39.177 112.505 38.5802 111.895 38.1814C111.491 38.1814 111.09 38.1814 110.68 38.3824C110.68 38.3824 110.275 37.784 110.074 37.5862C109.463 37.5862 110.481 36.5936 110.481 36.5936C109.87 35.8021 109.266 35.2054 108.456 34.4138C108.043 34.4138 107.639 34.8065 107.438 34.8065C107.438 34.8065 106.629 34.2144 106.629 34.015C106.629 33.6208 107.438 33.4229 107.438 33.4229C107.438 33.4229 106.018 31.8336 105.008 31.2368C104.604 31.4347 104.403 31.4347 103.991 31.4347C103.387 30.8411 102.577 30.4453 102.577 30.4453C102.577 30.4453 103.186 30.048 103.186 29.8501C102.173 29.2533 101.766 28.8607 100.956 28.2608C100.145 27.8651 99.7409 27.2683 99.3353 26.6731C97.9195 24.4933 96.0966 21.3194 91.6348 20.7227C91.6348 20.7227 92.6512 22.1109 93.2604 23.105C93.2604 23.2998 93.2604 23.2998 92.4476 23.2998H91.0334C90.6231 22.7046 90.4226 22.5098 90.216 22.1109C89.8103 21.3194 89.6192 21.1184 89.2058 20.7227C88.3961 20.1259 84.3431 22.3088 80.8977 23.105C81.7151 24.0944 82.5217 24.6881 82.7221 25.0869C83.7354 26.0795 85.1543 27.8651 86.1644 29.2533C86.3711 29.0555 86.5747 28.8607 86.9803 28.6566C89.6192 28.2608 89.6192 27.6703 89.6192 27.6703C89.6192 27.6703 87.5849 26.0795 88.9991 26.0795C88.9991 26.0795 90.0155 26.2742 90.4226 25.8816C91.4343 25.6806 92.6512 25.4827 93.2604 25.8816C94.0685 26.4752 94.4726 27.2683 95.0818 27.8651C94.6777 27.8651 94.2752 27.6703 93.868 27.6703C92.6512 27.4662 91.4343 27.6703 90.4226 27.8651C90.4226 27.8651 92.0498 29.2533 92.4476 29.8501C92.0498 29.6491 90.8267 29.8501 90.8267 29.8501C90.216 30.048 89.4094 30.2459 89.2058 30.2459C88.6013 30.4453 87.9889 30.2459 87.5849 30.4453C88.3961 30.8411 92.0498 32.2325 93.868 32.2325C95.489 32.2325 96.4991 32.0284 97.9196 31.4347C98.12 31.2368 98.5241 31.039 98.7277 31.2368C99.5405 31.4347 99.9445 31.6357 100.349 32.0284C105.618 35.2054 111.491 42.7467 113.316 46.7121C115.137 50.4827 116.147 54.6522 116.147 58.6176C116.351 63.976 114.533 69.1349 110.884 73.6987C108.851 76.2742 105.008 78.4587 100.956 78.8545C102.173 80.2443 102.776 82.4241 103.387 84.4107C103.387 84.4107 104.807 84.2128 105.618 83.8171C105.618 82.2294 104.604 80.4453 104.604 80.0449C104.604 80.0449 105.819 79.2533 106.832 79.2533C107.03 79.847 107.639 80.838 108.456 82.2294C109.266 81.8305 109.87 81.4316 110.481 80.838C110.481 79.847 109.87 78.6566 109.463 77.4662C110.884 76.8725 111.695 76.6684 111.695 76.6684C112.104 77.2652 113.112 77.8588 113.316 78.4587C113.316 78.4587 114.326 77.4662 114.736 76.4737C114.326 75.6806 113.718 75.0838 113.316 74.2892L114.937 72.5098C114.937 72.5098 115.947 73.2998 116.351 73.6987C116.963 72.904 117.568 72.1109 117.768 71.1153C116.758 70.1259 116.351 70.1259 116.147 69.5307C116.555 68.9339 116.758 68.1424 117.161 67.5457C117.768 67.7467 118.179 68.1424 118.584 68.3372C118.982 67.5457 119.395 66.3521 119.395 65.5622C118.982 65.1633 118.378 64.9685 117.978 64.5696C118.179 63.5771 118.378 62.5846 118.378 62.5846C118.378 62.5846 119.395 62.7825 119.8 62.7825Z" fill="#FEFEFE"/>
</g>
</svg>
