<svg width="44" height="34" viewBox="0 0 44 34" fill="none" xmlns="http://www.w3.org/2000/svg">
<rect y="3" width="44" height="28" rx="4" fill="#FE6200"/>
<mask id="mask0_12_75743" style="mask-type:luminance" maskUnits="userSpaceOnUse" x="0" y="3" width="44" height="28">
<rect y="3" width="44" height="28" rx="4" fill="white"/>
</mask>
<g mask="url(#mask0_12_75743)">
<path fill-rule="evenodd" clip-rule="evenodd" d="M30.2485 43.8818C29.491 43.8818 29.7065 45.0468 29.491 45.5762C29.3824 45.6817 29.2705 45.8928 29.3824 46H31.0028C31.0028 46 31.1114 45.0468 31.1114 44.8358C31.0028 44.6239 30.6779 44.0929 30.2485 43.8818ZM32.1913 35.2045C31.6518 34.7832 30.7873 34.3594 29.491 33.9356C29.1669 33.8301 28.411 33.9356 28.0861 33.9356C27.2199 35.4156 26.8992 36.7926 26.2502 38.3781C26.1399 38.698 25.9244 39.3321 25.9244 39.3321C25.3874 39.0155 24.8445 38.8052 24.3024 38.8052C23.4363 38.8052 22.7889 39.121 22.4665 39.967C22.1449 39.8614 21.7123 39.6504 21.1718 39.7542C20.4176 39.8614 19.7661 40.2852 19.4412 40.9193C19.1188 41.3414 19.0102 41.7652 19.1188 42.1891C18.58 42.4018 18.251 42.9303 18.038 43.3524C17.8225 44.1984 18.58 45.6817 18.9033 46H19.9833C19.7661 45.0468 19.3343 44.6239 19.6584 43.6707C19.8764 43.1414 20.6306 42.9303 20.8478 42.8239C20.8478 42.4018 20.3057 42.0835 20.4176 41.658C20.6306 41.132 21.2788 41.132 21.9278 41.2359C21.8192 41.8724 21.7123 42.7184 21.6037 43.5635C21.4951 44.5183 22.0363 46 22.0363 46H23.1155H23.2241C23.1155 45.6817 23.0077 45.3635 23.0077 45.0468C22.9025 44.7286 22.9025 44.5183 22.9025 44.1984C23.0077 43.7763 23.0077 43.3524 23.0077 43.0375C24.0886 42.5073 23.7636 43.2469 23.9791 43.458C23.9791 43.458 24.4143 42.5073 23.8722 42.0835C23.7636 41.978 23.1155 42.0835 23.1155 41.978C23.1155 41.8724 23.2241 41.5542 23.331 41.2359C23.5498 40.8129 23.6567 40.709 23.8722 40.3908C23.9791 40.2852 24.3024 40.2852 24.7384 40.3908C24.8445 40.3908 25.3874 40.4963 25.7089 40.6018C25.6012 40.9193 25.1685 41.5542 25.0633 41.8724C24.6314 43.1414 24.6314 44.6239 24.7384 46H25.9244C25.9244 45.2563 25.8175 44.4111 25.9244 43.6707C26.1399 42.7184 26.4624 42.6129 26.5751 42.6129C26.7873 42.6129 27.0044 42.8239 27.1163 43.0375C27.3293 44.0929 26.682 45.0468 26.682 46H27.5465C27.5465 46 27.8722 45.8928 27.9792 45.5762C28.1938 44.9396 28.6265 44.3039 28.7367 43.6707C28.842 43.1414 28.6265 42.7184 28.3007 42.0835C27.9792 41.658 27.6551 41.3414 26.8992 40.8129C26.682 40.3908 26.8992 39.8614 26.8992 39.8614C26.8992 39.967 27.3293 39.7542 27.5465 39.7542C28.411 39.967 28.6265 39.967 29.0583 40.178C29.3824 40.2852 29.8134 40.4963 30.1383 40.709C30.4624 40.9193 30.7873 41.5542 31.1114 42.2946C31.1114 42.2946 31.3269 40.9193 31.3269 40.4963C30.8975 40.0742 30.4624 39.6504 29.8134 39.3321C29.2705 38.9091 28.0861 38.5925 27.5465 38.3781C27.5465 38.3781 27.762 38.0615 27.762 37.8504C28.411 37.7432 29.1669 37.7432 29.491 37.8504C30.5726 38.1687 31.8673 38.8052 32.4093 39.2266C32.4093 39.2266 32.6232 38.8052 32.6232 38.5925C32.6232 38.5925 31.1114 37.6393 31.2183 37.3211C30.7873 37.0053 30.4624 36.687 30.0314 36.5798C29.3824 36.476 28.0861 36.3704 28.0861 36.3704C28.0861 36.3704 28.411 35.9483 28.7367 35.6283H29.6012C30.0314 35.6283 31.1114 35.9483 31.7587 36.2649C32.7334 36.687 33.2705 37.0053 33.3807 37.2164C33.486 36.8981 33.5962 36.476 33.7065 36.2649C32.5163 35.8411 32.6232 35.4156 32.1913 35.2045ZM29.7065 32.2412C29.8134 31.9246 29.7065 31.7135 29.8134 31.3961C29.8134 31.185 29.8134 30.6557 29.9228 30.339C29.7065 30.2318 29.2705 30.4446 28.9506 30.4446C28.6265 30.4446 27.8722 30.4446 27.8722 30.5501C27.9792 30.7629 27.9792 30.9739 28.0861 31.185C28.1938 31.3961 28.3007 31.6071 28.3007 32.1373C28.3007 32.4539 28.411 32.7722 28.3007 33.1943C28.3007 33.1943 29.7065 32.4539 29.7065 32.2412ZM28.411 29.8097C28.6265 29.4914 29.2705 28.8574 29.491 28.6446C29.2705 28.4336 29.1669 28.1153 29.0583 27.9042C28.6265 27.9042 27.0044 28.5374 27.0044 28.5374C27.3293 29.0685 27.5465 29.5995 27.762 30.2318C27.9792 30.1263 28.1938 30.0208 28.411 29.8097ZM32.5163 30.339H31.8673C31.8673 30.339 31.6518 31.185 31.6518 31.8191C31.5448 32.1373 31.4338 32.3484 31.4338 32.4539C31.2183 32.8777 31.1114 32.9833 30.8975 33.5118C31.2183 33.6173 31.5448 33.4063 31.7587 33.4063C31.9742 33.3015 32.2983 33.1943 32.4093 33.0905C32.5163 32.9833 32.8403 32.2412 32.9489 32.0318V31.2922C32.8403 31.0795 32.9489 30.6557 32.9489 30.339C32.8403 30.1263 32.6232 30.2318 32.5163 30.339ZM38.3505 38.0615C38.2436 37.956 38.2436 37.7432 38.1325 37.5338C37.9187 36.8981 38.0273 36.5798 37.9187 35.9483H37.0542C36.837 36.0521 36.7284 35.9483 36.5138 36.0521C36.5138 36.476 36.6215 36.7926 36.9456 37.3211C37.268 37.956 38.3505 38.0615 38.3505 38.0615ZM27.1163 28.0098C27.1163 28.0098 27.4396 27.8004 27.4396 27.5868C27.9792 26.9519 28.6265 26.4209 28.7367 26.3187C28.5179 25.7868 28.411 25.6813 28.0861 25.3647C27.9792 25.4702 27.4396 25.7868 27.3293 25.9988C27.1163 26.1043 26.8992 26.2098 26.7873 26.3187C26.7873 26.5298 26.8992 26.6336 27.0044 26.8464C27.0044 27.0574 27.1163 27.5868 27.1163 28.0098ZM35.5407 31.7135C35.5407 31.6071 35.215 31.6071 35.0011 31.6071C34.7831 31.6071 34.571 31.7135 34.3505 31.7135C34.135 32.0318 34.0289 32.3484 33.9203 32.7722C33.8134 33.0905 33.5962 33.3015 33.486 33.5118C33.486 33.5118 34.4607 33.3015 34.6762 33.3015C35.0011 33.0905 35.215 32.9833 35.4321 32.5595C35.5407 32.2412 35.651 32.1373 35.5407 31.7135ZM49.2631 40.0742C49.0484 39.967 46.9937 39.0155 46.6696 39.0155C46.0206 39.121 44.9423 39.121 44.29 39.4393C44.1847 39.121 44.0787 38.5925 44.29 38.2742C44.3969 38.0615 45.4802 38.0615 45.8043 38.0615C46.9937 38.1687 47.641 38.3781 47.9651 38.3781C48.2908 38.698 48.6158 38.698 48.7227 38.698C48.7227 38.698 48.6158 38.0615 48.5055 37.8504C48.0753 37.6393 47.641 37.5338 47.3161 37.4283C46.7765 37.2164 46.5619 37.1092 45.6974 37.0053C45.375 37.0053 45.375 37.1092 44.726 37.1092C44.726 37.0053 44.8329 36.8981 44.9423 36.7926C45.1545 36.476 45.375 36.2649 45.5905 36.0521H47.3161C47.7513 36.1577 47.9651 36.2649 48.5055 36.476C48.8279 36.476 48.5055 35.9483 48.5055 35.6283C48.3986 35.5211 48.2908 35.4156 48.0753 35.3101C47.641 35.2045 47.3161 35.0998 46.8835 34.8871C46.5619 34.7832 45.9154 34.5705 45.375 34.676C44.8329 34.8871 44.8329 34.7832 44.3969 34.9943C43.8598 35.7355 43.5358 36.5798 43.2125 37.4283C43.2125 37.6393 42.6713 38.9091 42.6713 39.121C42.6713 39.2266 42.566 39.4393 42.566 39.4393C42.1309 39.3321 40.1864 39.0155 39.6476 39.5432C39.4338 39.7542 39.215 39.967 38.8884 40.6018C38.4574 40.2852 38.1325 40.178 37.7015 40.178C37.1594 40.178 36.5138 40.4963 36.1897 41.0232C36.1897 41.132 35.3252 42.7184 35.4321 44.1984C35.5407 45.0468 35.8656 45.3635 36.2966 46H37.4877C37.3791 45.5762 37.1594 45.0468 36.9456 44.4111C36.837 43.8818 37.0542 42.9303 37.1594 42.0835C37.1594 42.0835 37.4877 41.8724 37.8084 41.7652C38.0273 41.5542 38.1325 41.658 38.4574 41.658C38.5677 41.658 38.5677 41.7652 38.5677 41.7652C38.1325 42.1891 38.1325 42.6129 38.0273 43.2469C38.0273 43.5635 38.4574 45.1524 38.8884 46H39.7562C39.7562 46 39.5391 43.8818 39.6476 43.6707C39.6476 43.2469 39.7562 42.9303 39.8631 42.6129C40.0795 42.7184 40.2933 42.7184 40.5105 42.8239C40.8337 43.0375 40.8337 43.2469 40.8337 43.5635C40.8337 44.0929 40.8337 44.1984 40.7285 44.5183V45.0468C40.7285 45.5762 40.8337 46 40.8337 46H41.7015C41.7015 45.0468 41.8051 45.1524 41.9154 44.6239C42.0239 44.1984 41.9154 43.989 42.0239 43.6707C42.0239 43.458 42.1309 43.2469 42.2428 43.1414C42.566 42.9303 42.7815 42.9303 43.2125 43.0375C43.2125 43.3524 43.2125 43.6707 43.1072 43.989C42.9954 44.5183 42.8884 45.0468 42.6713 45.5762C42.6713 45.6817 42.566 45.8928 42.4558 46H43.7529C43.7529 46 43.9668 45.5762 44.0787 45.0468C44.3969 45.3635 44.8329 45.1524 45.0476 45.1524C45.375 45.0468 45.5905 44.7286 45.8043 44.5183C45.375 44.1984 44.3969 44.3039 44.3969 43.8818C44.1847 43.1414 44.3969 43.0375 44.3969 42.6129C44.3969 41.978 43.7529 41.7652 43.1072 41.658C42.8884 41.5542 42.4558 41.5542 42.2428 41.5542C42.0239 41.658 41.8051 41.978 41.5946 41.978C41.5946 41.978 41.1595 41.658 40.8337 41.5542C40.6191 41.5542 39.9692 41.3414 39.9692 41.3414C40.0795 41.132 40.1864 40.9193 40.2933 40.8129C40.4002 40.709 40.7285 40.3908 40.8337 40.3908C41.0525 40.2852 41.375 40.3908 41.5946 40.4963C42.1309 40.6018 42.566 40.709 42.6713 40.709C42.7815 40.709 43.1072 40.9193 43.1072 40.9193C43.4255 40.709 43.4255 40.4963 43.6427 40.4963C44.29 40.2852 44.5088 40.178 45.1545 40.178C45.6974 40.178 46.1309 41.132 46.4516 41.4486C46.5619 41.658 47.3161 42.6129 47.7513 43.458C47.9651 43.3524 48.0753 43.1414 48.2908 43.1414C48.2908 42.9303 48.1823 42.0835 48.0753 41.978C47.7513 41.0232 47.1039 40.8129 47.1039 40.6018C47.3161 40.6018 47.7513 40.8129 47.9651 40.8129C48.1823 40.9193 48.5055 41.0232 48.8279 41.2359C48.9382 41.3414 49.1553 41.4486 49.2631 41.5542C49.37 41.978 49.37 42.2946 49.5872 42.7184C49.5872 42.8239 49.5872 42.9303 49.6941 43.0375C50.019 42.4018 50.3431 42.2946 50.5586 41.7652C50.3431 40.8129 49.801 40.3908 49.2631 40.0742ZM48.3986 44.9396C48.1823 45.3635 47.9651 45.7856 47.9651 46H49.1553C49.4802 45.5762 49.5872 45.1524 49.37 44.5183C49.0484 44.6239 48.3986 44.3039 48.3986 44.9396ZM36.7285 34.3594C37.0542 34.2539 37.268 34.0411 37.5946 33.9356C37.8084 33.8301 38.0273 32.1373 38.0273 32.1373C38.0273 32.1373 37.3791 32.2412 37.268 32.3484C37.1595 32.3484 36.7285 32.3484 36.5138 32.5595C36.5138 32.8777 36.5138 33.1943 36.4069 33.6173C36.1897 33.9356 35.651 34.1467 35.651 34.676C35.651 34.676 36.0828 34.7832 36.1897 34.7832C36.4069 34.676 36.6215 34.4649 36.7285 34.3594ZM26.1399 22.1911V22.7188C26.1399 22.9315 26.2502 24.0949 26.2502 24.4116C26.3571 24.7298 26.3571 25.0464 26.4624 25.3647C26.5751 25.5758 26.682 25.7868 26.682 25.9988C26.682 25.9988 26.8992 25.8949 27.0044 25.6813C27.3293 25.3647 27.4396 25.0464 27.6551 24.6243C27.5465 23.8839 27.3293 23.2482 27.3293 23.0371C27.3293 22.1911 27.4396 21.9792 27.5465 21.4499C27.1163 21.661 26.5751 21.9792 26.1399 22.1911ZM40.8337 37.2164C40.9423 37.2164 41.0525 37.0053 41.0525 37.0053C40.9423 36.5798 40.8337 36.0521 40.7285 35.6283C40.7285 35.6283 40.4002 35.4156 40.0795 35.4156C39.8631 35.4156 39.6476 35.3101 39.4338 35.4156C39.5391 35.7355 39.5391 35.9483 39.6476 36.2649C39.9692 36.687 40.4002 36.8981 40.8337 37.2164ZM31.2183 25.7868C31.1114 25.5758 30.7873 25.4702 30.5726 25.3647C30.3555 25.3647 30.1383 25.7868 30.1383 26.2098C30.1383 26.4209 30.2485 27.1646 30.3555 27.4813C30.3555 27.5868 30.5726 27.6932 30.7873 27.8004C31.1114 28.0098 31.4338 28.1153 31.7587 28.328C31.7587 28.328 31.4338 27.3774 31.3269 26.8464C31.2183 26.5298 31.4338 26.1043 31.2183 25.7868ZM33.486 29.0685C33.5962 28.6446 33.9203 28.4336 33.9203 27.6932C33.9203 27.6932 33.8134 27.1646 33.7065 26.9519C33.5962 26.7408 33.486 26.5298 33.1644 26.3187C33.0542 26.3187 32.8403 26.1043 32.7334 26.2098C32.7334 26.2098 32.6232 27.0574 32.5163 27.1646C32.7334 27.4813 32.9489 27.6932 33.0542 28.0098C33.1644 28.328 33.2705 28.7502 33.486 29.0685ZM36.4069 30.7629C36.7285 30.4446 36.4069 29.9152 36.4069 29.5995C36.2966 29.2812 36.4069 28.9629 36.2966 28.6446C36.1897 28.4336 35.9709 28.328 35.757 28.328C35.5407 28.328 35.0011 28.0098 35.0011 28.2208C34.4607 28.2208 34.8942 28.7502 34.8942 29.0685C34.8942 29.4914 35.9709 30.5501 35.9709 30.5501C36.1897 30.6557 36.1897 30.5501 36.4069 30.7629ZM26.033 21.7682C26.2502 21.4499 26.8992 20.815 27.2199 20.3895C27.4396 20.1793 27.8722 19.6499 28.9506 19.1206C29.0583 18.6968 29.1669 18.381 29.1669 17.9589C28.0861 18.2746 27.3293 18.4874 27.1163 18.6968C26.5751 19.0151 26.3571 19.2278 25.8175 19.5461C25.8175 20.1793 25.8175 20.1793 25.9244 20.4967L26.033 21.7682ZM42.7815 33.7229C42.4558 33.5118 41.9154 32.8777 41.5946 32.5595C41.375 32.3484 41.4819 32.0318 41.2664 31.819C41.0525 31.819 40.8337 31.819 40.6191 31.9246C40.2933 31.9246 40.0795 31.9246 39.7562 32.0318C39.8631 32.2412 39.8631 32.4539 40.0795 32.5595C40.5105 32.9833 40.5105 33.0905 40.9423 33.7229C41.0525 33.9356 41.5946 34.0411 42.0239 34.0411C42.2428 34.0411 42.6713 33.8301 42.7815 33.7229ZM38.5677 27.9042C38.1325 28.0098 37.268 28.1153 37.268 28.4336C37.1594 28.7502 37.268 29.0685 37.268 29.2812C37.3791 29.4914 37.3791 29.7033 37.3791 30.0208C37.3791 30.2318 37.268 30.4446 37.3791 30.7629C37.4877 30.5501 38.0273 30.339 38.1325 30.1263C38.3505 29.8097 38.5677 29.5995 38.6746 29.2812C38.7832 28.9629 38.6746 28.4336 38.5677 27.9042ZM39.9692 27.6932C39.6476 27.9042 39.4338 28.0098 39.4338 28.2208C39.4338 28.6446 39.5391 29.0685 39.5391 29.2812C39.5391 29.5995 39.5391 29.8097 39.6476 29.9152C39.9692 30.0208 40.0795 30.0208 40.5105 30.2318C40.5105 30.339 40.9423 30.5501 40.9423 30.5501C40.9423 30.5501 40.7285 29.5995 40.6191 29.174V27.4813C40.1864 27.5868 40.0795 27.6932 39.9692 27.6932ZM27.4396 17.7461C27.5465 17.6389 28.7367 16.793 28.842 16.6874C29.0583 16.4764 29.1669 16.5819 29.2705 16.3708C29.2705 15.7351 29.491 15.7351 29.3824 15.5257C29.2705 15.3113 28.411 15.5257 28.1938 15.5257C27.6551 15.6296 26.682 15.9462 26.682 16.1589C26.5751 16.4764 26.5751 17.2151 26.5751 17.324C26.682 17.6389 26.682 17.9589 26.7873 18.2746C27.1163 17.9589 27.2199 17.8533 27.4396 17.7461ZM50.5586 36.5798C50.4516 36.476 50.2361 36.3704 50.019 36.2649V36.687C50.019 37.1092 50.1243 37.2164 50.1243 37.4283C50.1243 37.6393 50.4516 39.121 50.4516 39.5432C50.9904 39.6504 50.9904 40.0742 51.3145 40.2852C51.3145 40.2852 51.0973 39.0155 51.0973 37.4283C51.0973 37.3211 50.7774 36.687 50.5586 36.5798ZM44.1847 32.6667C44.6174 32.9833 45.4802 32.8777 46.2395 32.7722C45.8043 32.4539 45.6974 32.2412 45.4802 32.0318C45.1545 31.819 44.9423 31.7135 44.5088 31.2922H43.1072C43.3203 31.819 43.4255 32.1373 44.1847 32.6667ZM39.9692 25.7868C40.1864 25.5758 40.4002 25.1536 40.4002 25.0464C40.6191 24.6243 40.6191 24.0949 40.6191 23.672C39.7562 23.141 38.6746 23.0371 37.5946 23.0371C36.6215 23.0371 35.5407 23.141 34.4607 23.8839C34.571 24.3077 34.6762 24.6243 34.8942 25.0464C35.0011 25.0464 35.1097 25.2592 35.215 25.2592C35.4321 25.0464 35.6509 24.7298 35.9709 24.6243V25.0464C35.9709 25.3647 35.9709 25.5758 36.0828 25.8949C36.0828 26.2098 36.4069 26.2098 36.837 26.2098C37.268 26.2098 37.3791 25.4702 37.3791 25.3647C37.3791 25.3647 37.4877 25.7868 38.1325 26.1043C38.1325 26.1043 38.8884 26.1043 38.8884 25.9988C38.9987 25.4702 39.1081 25.3647 38.9987 24.9409C38.9987 24.9409 39.6476 25.3647 39.9692 25.7868ZM43.3203 29.7033C42.8884 29.0685 42.7815 28.4336 42.7815 28.328C42.566 28.1153 42.9954 27.3774 42.4558 27.3774C42.2428 27.2685 41.5946 27.0574 41.5946 27.0574C41.4819 27.3774 41.4819 28.0098 41.5946 28.328C41.5946 28.6446 42.1309 29.5995 42.348 29.7033C42.4558 29.8097 42.9954 29.8097 43.1072 29.8097C43.2125 29.7033 43.3203 29.7033 43.3203 29.7033ZM26.7873 15.8407C27.0044 15.5257 27.0044 15.5257 27.2199 15.3113C27.6551 14.9947 27.8722 14.782 28.411 14.359C28.5179 14.1463 28.6265 14.2535 28.9506 14.0424C29.0583 13.9368 29.1669 13.8296 29.1669 13.7241C29.1669 13.513 29.0583 13.3003 28.9506 13.0909C28.842 12.8782 28.6265 12.3496 28.6265 12.2424C28.6265 11.3965 28.7367 11.1854 28.842 10.4442C28.411 10.3386 27.8722 10.3386 27.6551 10.7616C27.4396 11.0799 27.4396 11.3965 27.4396 11.7164C27.4396 12.2424 27.5465 12.6671 27.6551 13.3003C27.2199 13.6202 27.0044 13.8296 26.5751 14.0424C26.682 14.6764 26.7873 15.8407 26.7873 15.8407ZM48.5055 31.185C48.2908 30.9739 48.0753 30.7629 47.7513 30.5501C47.3161 30.4446 47.1039 30.2318 46.8835 29.8097C46.7765 29.5995 46.6696 29.3867 46.4516 29.174C46.2395 29.174 46.1309 29.2812 45.9154 29.3867C45.6974 29.5995 45.2631 29.5995 45.0476 29.9152C45.1545 30.1263 45.2631 30.339 45.4802 30.5501C45.5905 30.6557 45.6974 30.8684 46.1309 31.0795C46.8835 31.5016 47.1039 31.6071 47.1039 31.6071C47.7513 31.7135 48.5055 31.185 48.5055 31.185ZM43.3203 26.4209C43.3203 26.4209 43.4255 26.9519 43.6427 27.4813C43.7529 27.6932 43.9668 27.9042 44.0787 27.9042C44.29 28.0098 44.726 28.1153 45.0476 28.1153V27.9042C44.726 27.5868 44.29 26.8464 44.29 26.6336C44.0787 26.5298 44.0787 26.5298 43.7529 26.5298C43.6427 26.4209 43.4255 26.4209 43.3203 26.4209ZM53.0418 34.0411C52.9365 34.3594 52.6108 34.5705 52.6108 34.9943C52.6108 34.9943 53.152 35.5211 53.2606 35.8411C53.3684 36.0521 53.2606 37.0053 53.3684 37.2164C53.6924 36.8981 53.9096 36.7926 53.9096 36.3704C53.7994 36.2649 53.6924 35.4156 53.5839 34.7832C53.5839 34.5705 53.2606 34.2539 53.0418 34.0411ZM61.6883 41.4486C61.1454 41.4486 60.4981 42.0835 60.0679 44.0929C59.9593 44.8358 59.8508 45.4723 59.9593 45.8928L60.9291 46C61.1454 45.6817 61.1454 45.1524 61.3626 44.7286C61.3626 44.5183 61.5814 44.5183 61.7936 44.5183C62.0116 44.6239 62.4459 45.1524 62.6589 45.3635C62.7675 45.1524 62.983 44.7286 62.983 44.4111C62.983 44.3039 62.6589 44.0929 62.5511 44.0929C62.2287 43.8818 62.0116 43.6707 61.5814 43.6707C61.4711 43.2469 62.1185 42.7184 62.1185 42.7184C62.8744 42.7184 63.632 43.5635 63.632 43.5635C63.8475 43.458 63.9544 43.1414 64.1732 42.9303C63.5234 41.7652 62.3356 41.4486 61.6883 41.4486ZM56.072 35.8411C55.9618 35.6283 55.8541 35.3101 55.7471 35.0998C55.7471 34.9943 55.7471 34.7832 55.6369 34.4649C55.6369 34.4649 54.8793 34.9943 54.7724 35.0998C55.2042 35.6283 54.9896 35.9483 55.0948 36.3704C55.0948 36.5798 55.53 36.687 55.6369 37.0053C55.6369 37.1092 55.4247 38.0615 55.4247 38.0615C56.072 37.2164 56.072 36.1577 56.072 35.8411ZM64.7119 45.1524C64.6067 45.4723 64.4964 45.6817 64.2801 45.8928C64.3895 46 64.6067 46 64.7119 46H65.7969C65.8988 45.8928 65.8988 45.5762 66.0083 45.3635C66.0083 45.1524 66.1152 44.9396 66.1152 44.6239H65.4662C65.1446 44.6239 64.8205 44.8358 64.7119 45.1524ZM50.019 29.7033H50.5586C50.7774 29.7033 50.7774 29.2812 50.5586 29.2812C49.801 29.0685 49.1553 28.8574 48.7227 28.2208C48.6158 28.328 47.9651 28.5374 47.7513 28.7502C47.7513 28.7502 47.9651 29.2812 48.5055 29.8097C48.8279 30.1263 49.4802 29.9152 50.019 29.7033ZM45.2631 26.1043C45.5905 26.5298 45.9154 26.8464 46.2395 27.1646C46.3447 27.3774 46.6696 27.3774 46.8835 27.3774H47.9651C48.2908 27.2685 48.5055 27.2685 48.7227 27.0574C48.2908 26.8464 47.7513 26.6336 47.3161 26.4209C46.8835 26.2098 46.5619 25.9988 46.2395 25.6813C46.0206 25.6813 45.9154 25.7868 45.8043 25.7868C45.5905 25.8949 45.4802 25.9988 45.2631 26.1043ZM33.9203 21.0277C33.9203 21.0277 34.3505 20.9222 34.6762 20.9222C34.8942 20.9222 35.1097 20.9222 35.3252 21.0277C35.215 21.1333 34.7831 21.3443 34.7831 21.3443C34.571 21.4499 34.4607 21.5554 34.135 21.661C34.0289 21.4499 33.9203 21.0277 33.9203 21.0277ZM33.9203 18.6968C34.135 18.381 34.571 18.1691 34.8942 18.0644C35.3252 17.9589 35.215 17.1112 35.215 17.0057C35.3252 16.793 35.215 16.4764 35.215 16.2645C35.0011 16.3708 35.0011 16.2645 34.571 16.3708C34.135 16.3708 33.9203 16.1589 33.7065 15.9462C33.486 15.7351 32.9489 15.3113 32.7334 14.8908C33.2705 14.782 33.7065 14.782 34.2452 14.782H35.651C35.9709 14.8908 36.1897 15.1019 36.1897 15.3113C36.1897 15.4168 36.0828 16.0534 36.0828 16.1589C35.9709 16.793 35.9709 17.0057 35.8656 17.9589V18.2746C35.757 18.4874 35.3252 18.5929 35.1097 18.804C35.0011 19.1206 35.0011 19.3333 34.6762 19.4389C34.3505 19.5461 34.135 19.8627 33.9203 19.7571C33.5962 19.5461 33.7065 19.0151 33.9203 18.6968ZM32.0844 13.3003C31.8673 13.0909 31.4338 12.7726 31.2183 12.3496C30.8975 11.9258 31.0028 11.5037 31.0028 11.3965C31.2183 10.7616 31.9742 10.5497 32.4093 10.4442C32.6232 10.4442 32.8403 10.4442 33.1644 10.6569C33.5962 10.8671 33.8134 10.8671 34.0289 11.6076C34.0289 11.7164 34.0289 11.8186 33.9203 11.8186C33.9203 11.8186 33.2705 12.2424 33.0542 12.456C32.5163 12.7726 32.4093 13.3003 32.0844 13.3003ZM35.3252 13.1964C35.651 12.9837 35.9709 12.7726 36.1897 12.7726C36.4069 12.6671 36.837 12.5599 36.837 12.7726C36.837 13.1964 36.5138 13.4075 36.1897 13.8296C35.9709 14.1463 35.8656 13.9368 35.3252 13.9368H34.7831C34.7831 13.6202 35.0011 13.513 35.3252 13.1964ZM39.7562 12.7726C39.9692 12.7726 41.8051 13.1964 40.6191 13.7241C40.4002 13.9368 39.8631 13.8296 39.3219 13.8296C39.3219 13.6202 39.3219 13.1964 39.1081 13.1964C38.8884 12.9837 38.5677 12.9837 38.5677 12.7726C38.1325 12.3496 39.215 12.6671 39.7562 12.7726ZM41.8051 10.6569C42.1309 10.3386 42.566 10.2331 42.9954 10.3386C43.5358 10.4442 43.6427 10.5497 43.8598 10.7616C44.1847 11.1854 44.0787 12.0314 43.9668 12.5599C43.8598 12.8782 43.5358 13.0909 43.2125 13.0909C42.6713 12.456 42.1309 12.0314 41.375 11.8186C41.2664 11.3965 41.5946 10.9727 41.8051 10.6569ZM42.4558 15.1019C42.348 15.3113 42.1309 15.4168 41.9154 15.5257C41.8051 15.5257 41.7015 15.7351 41.7015 15.8407C41.4819 16.1589 41.1595 16.2645 40.7285 16.2645C40.5105 16.2645 40.0795 16.2645 39.8631 15.8407C39.8631 15.8407 39.9692 17.1112 39.9692 17.4279C39.9692 17.5334 40.0795 17.5334 40.0795 17.5334C40.5105 17.6389 40.6191 18.0644 40.8337 18.2746C40.8337 18.2746 40.9423 18.381 41.0525 18.381C41.4819 18.6968 42.4558 19.1206 42.0239 19.1206C42.0239 19.3333 41.7015 19.8627 41.5946 19.8627C41.2664 19.5461 40.7285 19.3333 40.2933 19.1206C40.1864 18.9095 40.0795 18.6968 39.9692 18.4874C39.7562 18.2746 39.6476 18.2746 39.3219 18.0644C39.3219 17.324 39.215 17.324 39.215 16.5819C39.215 16.4764 38.9987 15.3113 38.9987 15.3113C38.9987 15.2058 39.3219 14.8908 39.6476 14.782C39.6476 14.782 41.7015 14.782 42.6713 14.8908C42.6713 14.8908 42.566 15.1019 42.4558 15.1019ZM41.2664 21.661C40.8337 21.5554 40.5105 21.2371 39.9692 21.2371C39.9692 20.9222 39.9692 20.9222 40.0795 20.815C40.7285 20.7095 41.0525 20.9222 41.375 21.0277C41.375 21.1333 41.2664 21.661 41.2664 21.661ZM34.3505 23.141C34.6762 23.141 35.0011 22.826 35.3252 22.7188C35.9709 22.5077 36.5138 22.2967 37.1595 22.1911C37.3791 22.0831 37.3791 21.8737 37.3791 21.661C37.4877 21.4499 37.4877 21.4499 37.4877 21.1333C37.4877 21.0277 37.0542 20.9222 36.837 20.4967C36.6215 20.1793 36.837 19.8627 36.7285 19.8627C36.4069 20.0738 35.9709 20.2848 35.8656 19.8627C35.757 19.5461 35.757 19.1206 36.0828 19.0151C37.1595 18.5929 38.3505 18.5929 39.4338 19.0151C39.6476 19.0151 39.7562 19.2278 39.7562 19.4389C39.8631 19.6499 39.7562 19.8627 39.5391 20.0738C39.215 20.1793 38.8884 19.7571 38.8884 20.0738C38.8884 20.3895 38.6746 20.815 38.1325 21.0277C38.0273 21.1333 38.1325 21.4499 38.2436 21.7682C38.2436 21.8737 38.2436 22.0831 38.3505 22.0831C38.7832 22.1911 39.4338 22.2967 39.7562 22.5077C40.1864 22.7188 40.9423 23.352 41.0525 23.2482C41.375 23.0371 41.4819 22.7188 41.7015 22.5077C42.8884 23.0371 43.8598 23.352 45.375 24.3077C45.5905 24.3077 45.5905 23.8839 45.5905 23.672C45.0476 23.352 43.4255 22.5077 43.2125 22.4005C42.7815 22.2967 42.566 22.0831 42.1309 21.9792V21.1333C42.8884 21.3443 44.3969 21.4499 45.9154 22.2967C46.0206 21.9792 46.2395 21.7682 46.1309 21.661C44.3969 20.815 43.1072 20.4967 42.0239 20.4967C42.0239 20.3895 41.8051 20.2848 42.0239 20.1793C42.348 19.9682 42.4558 19.8627 42.566 19.7571C42.8884 19.3333 43.1072 18.9095 43.2125 18.4874C43.5358 17.8533 43.8598 18.0644 44.0787 16.6874C43.7529 16.6874 43.6427 16.8985 43.3203 17.0057C43.4255 16.6874 43.5358 16.3708 43.5358 16.0534C43.6427 15.4168 43.8598 14.9947 43.8598 14.2535C44.1847 14.1463 44.726 13.8296 44.8329 13.4075C44.8329 13.3003 44.8329 12.9837 44.9423 12.5599C44.9423 11.9258 45.0476 11.3965 44.8329 10.9727C44.8329 10.8671 44.0787 9.80929 43.5358 9.49268C42.7815 9.17441 42.4558 9.2816 41.9154 9.38548C41.2664 9.38548 40.4002 10.0204 40.4002 11.1854C39.7562 11.1854 38.4574 11.291 37.7015 11.9258C37.0542 11.6076 36.5138 11.5037 35.9709 11.3965H35.0011C34.8942 10.9727 34.6762 10.5497 34.2452 10.2331C33.7065 9.91649 33.0542 9.49268 32.2983 9.49268C31.9742 9.49268 31.6518 9.38548 31.3269 9.59988C31.0028 9.80929 30.4624 10.0204 30.3555 10.4442C30.1383 10.9727 29.9228 11.3965 29.9228 11.9258C29.9228 12.456 30.2485 12.8782 30.5726 13.4075C30.6779 13.6202 30.7873 13.6202 31.0028 13.7241C31.1114 13.7241 31.5448 13.9368 31.6518 14.0424C31.7587 14.1463 31.5448 14.4662 31.5448 15.1019C31.5448 15.6296 31.5448 15.6296 31.6518 16.0534C31.6518 16.4764 31.7587 16.8985 31.8673 17.2151C31.5448 17.2151 31.3269 16.8985 31.1114 17.1112C31.1114 17.324 31.3269 17.8533 31.5448 18.2746C32.0844 18.804 32.6232 19.3333 32.9489 19.9682C32.9489 20.0738 32.9489 20.2848 33.0542 20.2848C32.2983 20.3895 31.5448 20.3895 30.7873 20.6039C30.1383 20.815 29.3824 21.1333 28.7367 21.4499C28.7367 21.8737 28.842 22.1911 28.842 22.1911C28.9506 22.1911 29.9228 21.661 30.7873 21.4499C32.1913 21.0277 32.9489 21.1333 32.9489 21.1333C33.0542 21.3443 33.1644 21.661 33.0542 21.7682C31.7587 22.2967 30.4624 22.9315 29.2705 23.672C29.3824 23.8839 29.2705 24.2005 29.491 24.4116C30.5726 23.7775 32.0844 23.0371 33.1644 22.6133C33.5962 22.5077 33.5962 22.6133 33.8134 22.6133C33.9203 22.7188 34.135 23.141 34.3505 23.141ZM54.8793 32.6667C54.8793 32.6667 54.6638 32.2412 54.6638 32.1373C54.5569 31.9246 54.45 31.6071 54.1251 31.5016C54.1251 31.3961 54.0165 31.9246 53.9096 32.1373C53.7994 32.3484 53.7994 32.2412 53.5839 32.6667C53.7994 32.9833 53.9096 33.1943 54.1251 33.5118C54.1251 33.6173 54.45 34.0411 54.45 34.0411C54.45 34.0411 54.8793 33.1943 54.8793 32.9833V32.6667ZM68.7103 44.8358H68.1699C67.9544 44.7286 67.8458 44.7286 67.7389 44.8358C67.414 45.1524 67.414 45.6817 67.1968 46H68.4948C68.7103 45.7856 68.9274 45.6817 68.9274 45.2563C68.9274 45.1524 68.9274 44.9396 68.7103 44.8358ZM53.5839 30.339C53.5839 29.3867 53.3684 29.3867 52.9365 28.9629C52.9365 28.9629 52.6108 29.5995 52.3961 29.9152C52.8279 30.339 52.9365 30.8684 52.9365 30.8684C53.3684 30.4446 53.3684 30.5501 53.5839 30.339ZM57.7977 34.0411C57.7977 33.7229 57.6891 33.4063 57.4761 33.1943C57.3659 32.8777 57.259 32.4539 57.259 32.2412C57.1471 32.0318 56.7185 31.3961 56.5014 31.0795C56.2859 30.8684 56.2859 30.339 56.1773 30.0208L54.8793 30.2318C55.53 31.0795 56.072 31.9246 56.3912 32.7722C56.5014 33.0905 57.4761 36.2649 57.4761 36.2649C57.7977 36.1577 57.3659 34.5705 57.4761 34.4649C57.5814 34.2539 57.5814 34.1467 57.7977 34.0411ZM49.5872 25.6813C49.4802 25.4702 49.2631 25.0464 49.1553 24.9409C49.0484 24.7298 48.9382 24.5187 48.8279 24.4116C48.7227 24.3077 48.2908 24.4116 48.0753 24.4116C47.8582 24.4116 47.7513 24.4116 47.5341 24.5187C47.7513 24.7298 47.9651 25.4702 48.0753 25.4702C48.1823 25.6813 48.1823 25.7868 48.3986 25.8949C48.9382 25.9988 49.37 25.8949 49.9112 26.1043C50.1243 25.7868 49.6941 25.7868 49.5872 25.6813ZM52.5047 28.0098C52.5047 28.0098 51.2076 27.2685 50.9904 26.9519C50.6671 26.9519 50.6671 26.9519 50.3431 27.2685C50.1243 27.2685 50.019 27.3774 49.9112 27.5868C50.2361 27.8004 50.3431 27.9042 50.6671 28.1153C50.7774 28.2208 50.8835 28.2208 51.2076 28.1153H52.0737C52.2859 28.1153 52.5047 28.2208 52.5047 28.0098ZM70.7633 43.6707C70.7633 43.6707 70.6548 43.989 70.5462 44.1984C70.3307 44.7286 70.2238 44.9397 70.2238 45.2563C70.5462 45.4723 70.6548 45.3635 71.0882 45.3635C71.3037 45.3635 71.5192 45.4723 71.6278 45.4723C71.8433 45.3635 71.6278 45.1524 71.6278 45.0468C71.5192 45.0468 71.0882 44.0929 70.7633 43.6707ZM59.2051 34.5705C59.6336 34.2539 59.7422 33.6173 59.8508 33.3015C59.9593 32.9833 59.7422 32.3484 59.6336 32.1373C59.3112 32.1373 59.0982 31.9246 58.8777 31.9246C58.6622 31.9246 58.5553 31.3961 58.2304 31.5016C58.3389 31.7135 58.5553 32.7722 58.6622 32.9833C58.7724 33.0905 59.2051 33.8301 59.2051 34.5705ZM67.5226 40.3908C67.5226 40.2852 67.1968 40.0742 67.0932 40.0742C67.0932 39.967 66.9797 39.5432 66.8719 39.4393C66.6581 39.3321 66.6581 39.2266 66.4409 39.2266C66.4409 39.3321 66.4409 39.4393 66.3323 39.6504C66.3323 39.8614 66.1152 39.967 66.2254 40.178C66.3323 40.3908 66.4409 40.3908 66.6581 40.4963C66.765 40.6018 67.0932 41.4486 67.1968 41.5542C67.3054 41.4486 67.3054 40.8129 67.5226 40.3908ZM48.7227 23.141C49.0484 23.141 49.2631 23.352 49.4802 23.352C49.4802 23.0371 49.37 22.826 49.2631 22.5077C49.1553 21.9792 48.9382 21.661 48.8279 21.3443C48.8279 21.0277 48.8279 20.815 48.7227 20.6039C48.6158 20.6039 48.5055 20.6039 48.3986 20.4967C48.0753 20.4967 47.641 20.3895 47.641 20.3895C47.641 20.7095 47.7513 21.2371 47.7513 21.5554C47.7513 21.661 48.1823 22.6133 48.2908 22.7188C48.3986 22.9315 48.5055 23.0371 48.7227 23.141ZM58.9846 30.1263C58.8777 29.8097 58.5553 29.7033 58.3389 29.4914C58.3389 29.4914 56.9365 28.9629 56.7186 28.9629C56.5014 29.0685 57.259 29.4914 57.3659 29.7033C57.7977 30.1263 58.8777 31.0795 58.8777 31.0795L58.9846 30.1263ZM45.6974 16.793C45.5905 16.8985 45.4802 17.1112 45.4802 17.2151C45.2631 17.5334 44.9423 17.7461 45.1545 18.0644C45.2631 18.4874 45.2631 18.9095 45.5905 19.2278C45.9154 19.5461 46.3447 19.4389 46.7765 19.7571C46.7765 19.7571 46.4516 18.381 46.2395 17.7461C46.1309 17.324 45.9154 17.1112 45.6974 16.793ZM66.4409 24.8354C65.0377 23.4626 63.5234 22.6133 62.0116 22.6133C60.7169 22.6133 59.7422 23.5648 59.7422 24.5187C59.7422 28.328 61.2573 30.7629 62.2287 32.8777C62.5511 33.4063 62.6589 33.8301 62.6589 34.3594C62.7675 35.7355 61.5814 38.2742 60.8238 39.6504C60.7169 39.5432 60.174 39.4393 59.7422 39.4393C58.6622 39.4393 58.2304 40.178 58.0132 40.8129C57.6891 40.8129 57.4761 40.6018 57.1471 40.6018C55.8541 40.4963 54.7724 41.658 54.7724 42.9303C54.7724 44.3039 55.0948 45.0468 55.6369 46H56.7185C56.6083 45.6817 56.2859 44.0929 56.1773 43.6707C56.072 43.0375 56.2859 42.6129 56.6083 42.2946C57.0418 41.658 58.1201 41.8724 58.1201 41.8724C57.7977 42.4018 57.3659 43.2469 57.3659 44.0929C57.4761 44.6239 57.5814 45.4723 57.9079 46H58.7724C58.9846 45.3635 58.7724 44.8358 58.7724 44.3039C58.7724 43.989 58.7724 43.6707 58.8777 43.3524C58.8777 43.1414 59.4181 43.7763 59.4181 43.7763C59.4181 43.7763 59.8508 43.2469 59.8508 42.8239C59.8508 42.5073 59.2051 42.6129 59.0982 42.2946C58.9846 41.978 59.3112 41.2359 59.3112 41.2359C59.9593 40.8129 60.4981 40.9193 60.7169 40.9193C61.0385 40.9193 61.1454 41.0232 61.5814 41.0232C61.903 41.0232 62.0116 40.3908 62.0116 40.0742C62.1185 40.178 62.4459 40.3908 62.5511 40.3908C62.8744 40.4963 62.983 40.4963 63.307 40.6018C63.7405 40.8129 64.1732 41.0232 64.6067 41.4486V41.3414C64.4964 40.9193 64.7119 40.3908 64.3895 40.178C64.3895 40.178 63.8475 39.7542 63.4156 39.5432C63.2001 39.3321 62.8744 39.3321 62.7675 39.121C62.6589 39.0155 62.6589 38.9091 62.6589 38.698C62.6589 38.4853 62.7675 38.1687 62.8744 38.1687C63.0899 38.0615 63.2001 38.1687 63.632 38.3781C64.0646 38.5925 64.4964 38.9091 64.8205 39.121C64.8205 39.121 64.9274 39.3321 64.9274 39.2266C65.3609 39.0155 65.3609 38.9091 65.3609 38.2742C64.9274 37.7432 65.3609 37.6393 64.7119 37.2164C64.4964 37.2164 63.307 36.7926 63.307 36.7926C63.307 36.5798 63.632 36.0521 63.632 36.0521C63.7405 35.9483 63.9544 35.9483 64.0646 36.1577C64.7119 36.5798 65.1446 36.5798 65.7969 36.7926C65.8988 36.476 65.8988 36.2649 65.685 36.0521C65.4662 35.7355 65.1446 35.4156 64.9274 35.3101C64.4964 35.2045 64.2801 35.0998 63.9544 34.9943C63.9544 34.676 63.8475 34.3594 63.7405 33.9356C63.7405 33.7229 63.9544 33.8301 64.1732 33.8301C64.6067 33.7229 66.4409 34.3594 66.4409 34.3594C66.4409 33.9356 66.3323 33.6173 66.1152 33.4063C65.8988 33.1943 65.685 32.9833 65.1446 32.7722C64.3895 32.5595 63.7405 32.6667 63.2001 32.3484C62.7675 31.9246 62.6589 31.8191 62.5511 31.3961C62.8744 31.2922 63.4156 31.185 63.7405 31.185C64.2801 31.185 64.6067 31.0795 65.254 31.2922C65.4662 31.3961 66.2254 32.0318 66.5511 32.0318C66.5511 32.0318 66.3323 31.185 66.1152 30.8684C65.7969 30.8684 65.254 30.2318 65.0377 30.1263C63.9544 29.7033 63.7405 29.9152 63.0899 30.0208C62.7675 30.1263 62.4459 30.0208 62.1185 30.0208C62.0116 29.8097 62.3356 29.4914 62.2287 29.2812C62.2287 29.174 61.7936 29.0685 61.7936 28.8574C61.7936 28.8574 63.5234 28.6446 64.1732 28.7502C64.3895 28.8574 65.0377 29.2812 65.254 29.2812C65.254 29.2812 65.4662 28.5374 65.1446 27.9042C64.6067 27.8004 64.0646 27.9042 63.632 27.8004C63.2001 27.6932 62.7675 27.8004 62.4459 27.8004C62.1185 27.8004 61.7936 27.6932 61.4711 27.6932C61.2573 27.3774 61.1454 27.0574 61.1454 26.7408C61.1454 26.7408 63.8475 26.6336 64.0646 26.5298C63.9544 26.4209 63.7405 26.3187 63.632 26.1043C63.2001 25.3647 62.8744 25.2592 62.3356 25.2592C62.0116 25.2592 61.2573 25.5758 60.8238 25.4702C60.8238 24.6243 61.2573 23.8839 61.903 23.8839C63.2001 23.8839 64.4964 24.4116 65.5764 25.5758C68.2801 28.328 69.6817 33.5118 69.6817 37.2164C69.6817 38.9091 69.4662 40.4963 69.2515 41.7652C69.5748 41.8724 69.7886 41.8724 70.1144 41.8724C70.4409 40.6018 70.7633 38.9091 70.7633 37.3211C70.7633 31.9246 68.8172 27.3774 66.4409 24.8354ZM50.1243 20.3895C50.3431 21.2371 50.6671 22.2967 50.7774 23.5648C50.7774 23.8839 50.6671 24.2005 50.7774 24.5187L52.2859 25.0464C52.2859 25.0464 52.0737 23.7775 51.8565 22.2967C51.6402 21.0277 51.5316 20.6039 51.2076 20.0738C50.9904 20.1793 50.8835 20.1793 50.6671 20.1793C50.3431 20.2848 50.1243 20.3895 50.1243 20.3895ZM53.6924 26.5298C53.9096 26.7408 54.0165 27.1646 54.1251 27.9042C54.2328 28.328 54.45 28.4336 54.6638 29.0685C54.9896 28.8574 55.53 28.9629 55.53 28.9629C55.53 28.4336 55.2042 27.9042 55.2042 27.8004C55.0948 27.5868 54.7724 26.9519 54.6638 26.7408C54.7724 26.7408 55.0948 27.1646 55.6369 27.1646C55.7471 27.1646 56.072 27.2685 56.2859 27.1646C56.2859 27.1646 56.6083 27.3774 56.6083 27.5868C56.8246 27.9042 56.8246 28.1153 56.9365 28.4336C57.1471 28.4336 57.259 28.4336 57.3659 28.328C57.7977 28.328 58.0132 28.2208 58.0132 28.2208C57.9079 28.0098 57.7977 27.8004 57.7977 27.5868C57.6891 27.3774 57.4761 26.8464 57.4761 26.8464L59.4181 26.5298C59.4181 26.2098 59.3112 25.7868 58.9846 25.5758C58.0132 25.8949 56.9365 25.9988 56.1773 25.9988C55.0948 25.9988 54.0165 25.7868 52.5047 25.1536C52.3961 25.3647 52.5047 25.7868 52.5047 25.7868C53.152 26.3187 53.152 25.9988 53.6924 26.5298ZM29.8134 9.07053C30.5726 8.64755 31.8673 7.90381 32.2983 7.48167C32.4093 7.6944 33.7065 8.43648 34.2452 8.75143C34.6762 9.07053 35.1097 9.17441 35.5407 9.38548C35.757 9.07053 35.9709 8.75143 36.1897 8.01101C36.5138 8.22375 36.9456 8.22375 37.268 8.32762C37.268 8.75143 37.268 9.17441 37.3791 9.59988C37.3791 9.80929 37.5946 9.70375 38.0273 9.49268C38.6746 9.2816 39.3219 9.17441 39.6476 9.07053C40.4002 8.64755 40.8337 7.79994 41.4819 7.79994C42.0239 7.79994 42.9954 8.11655 43.2125 8.32762C43.5358 8.43648 43.7529 8.54036 44.0787 8.54036C44.5088 8.54036 44.8329 8.11655 45.1545 7.90381C44.1847 7.27059 43.1072 6.63654 42.0239 6.21274C41.375 6.74042 40.9423 7.16339 40.6191 7.16339C40.2933 7.16339 40.5105 6.53101 40.5105 6.10554C40.1864 6.10554 39.9692 6.10554 39.6476 6C39.4338 6.74042 39.3219 7.6944 38.7832 7.90381C38.5677 8.01101 38.4574 8.01101 38.3505 8.01101V7.16339C38.3505 7.05786 38.7832 6.31827 38.6746 6.21274C38.6746 6.21274 37.7015 6.42381 37.4877 6.53101C37.3791 6.63654 36.7284 6.95398 36.6215 6.95398C36.6215 6.95398 36.2966 6.84679 36.1897 6.84679C35.8656 6.63654 35.6509 6.63654 35.3252 6.42381C34.8942 7.6944 34.7831 8.01101 34.7831 7.79994C34.7831 7.79994 33.2705 6.84679 32.7334 6.21274C31.3269 6.42381 31.3269 6.63654 30.1383 7.05786C29.7065 7.48167 29.0583 8.01101 28.6265 8.64755C28.411 9.07053 28.1938 9.2816 27.9792 9.70375L29.0583 10.1276C29.1669 10.0204 29.7065 9.2816 29.8134 9.07053ZM67.0932 37.8504C67.414 37.956 67.6295 38.698 67.8458 38.9091C68.1699 39.3321 68.063 38.1687 67.9544 37.956C67.9544 37.8504 67.9544 37.0053 67.7389 37.0053C67.6295 36.8981 67.5226 36.5798 67.414 36.476C67.3054 36.7926 67.414 37.0053 67.414 37.3211C67.414 37.5338 66.9797 37.7432 67.0932 37.8504ZM48.1823 16.2645C48.0753 16.2645 47.7513 16.1589 47.3161 16.0534H46.7765C46.8835 16.3708 47.2092 16.6874 47.3161 16.8985C47.3161 17.0057 47.3161 17.324 47.428 17.5334C47.641 17.5334 47.9651 17.6389 48.1823 17.7461C48.2908 17.7461 48.9382 17.8533 49.1553 18.0644C49.37 18.0644 50.1243 18.9095 50.2361 19.0151C50.5586 19.2278 50.8835 19.4389 51.0973 19.3333C51.3145 19.3333 51.0973 19.0151 51.0973 18.9095C50.6671 18.2746 50.3431 17.1112 50.2361 17.1112C49.9112 17.0057 49.6941 17.1112 49.2631 16.8985C49.0484 16.6874 48.3986 16.3708 48.1823 16.2645ZM46.4516 13.7241C46.5619 13.9368 46.7765 13.9368 46.9937 14.0424C47.2092 14.2535 47.428 14.359 47.7513 14.5717C48.1823 14.9947 48.3986 15.5257 48.9382 15.9462C49.1553 16.0534 49.2631 16.1589 49.37 16.1589C49.4802 16.1589 49.9112 16.4764 50.019 16.5819C50.019 15.7351 49.6941 15.1019 49.4802 14.6764C49.4802 14.5717 49.37 14.4662 49.1553 14.359C48.8279 14.0424 48.5055 13.7241 48.3986 13.7241C48.0753 13.4075 47.8582 13.0909 47.5341 12.7726C47.2092 12.7726 46.9937 13.0909 46.7765 13.1964C46.6696 13.4075 46.2395 13.6202 46.4516 13.7241ZM46.0206 11.0799C46.0206 11.3965 46.1309 11.7164 46.2395 12.0314C46.7765 12.3496 47.428 12.5599 47.428 12.5599C47.5341 12.2424 47.3161 11.9258 47.3161 11.6076C47.1039 10.8671 46.7765 10.1276 46.6696 9.2816V8.85696C46.2395 8.64755 45.8043 8.54036 45.2631 8.32762C45.2631 8.32762 45.2631 8.96333 45.4802 9.2816C45.6974 9.80929 46.0206 10.6569 46.0206 11.0799ZM68.9274 13.8296L68.4948 13.3003L69.6817 12.9837L70.2238 14.782L68.9274 13.8296ZM65.0377 12.8782L64.3895 13.3003L63.5234 12.6671L64.4964 12.1386L65.5764 12.8782H65.0377ZM81.8931 33.6173C82 32.9833 82 32.3484 82 31.9246C81.7828 31.7135 81.4571 31.6071 81.2449 31.6071C81.2449 31.2922 81.1347 30.8684 81.2449 30.4446C81.4571 30.4446 81.8931 30.5501 81.8931 30.4446C81.8931 29.8097 81.7828 29.174 81.6776 28.8574C81.4571 28.7502 81.1347 28.6446 80.8098 28.5374C80.8098 28.2208 80.7029 27.9042 80.5943 27.6932C80.9217 27.5868 81.1347 27.5868 81.3502 27.5868C81.3502 27.5868 81.1347 26.6336 81.0286 26.2098C80.8098 26.1043 80.4857 26.1043 80.271 26.1043C80.1624 25.8949 80.0539 25.6813 79.9453 25.3647C80.1624 25.2592 80.3804 25.2592 80.5943 25.1536C80.3804 24.6243 80.271 24.4116 80.0539 24.0949H79.2996C79.1927 23.8839 79.0841 23.672 79.0841 23.4626C79.1927 23.352 79.4065 23.2482 79.5159 23.141C79.4065 22.826 79.1927 22.5077 78.9739 22.2967C78.7584 22.2967 78.5421 22.4005 78.3266 22.2967C78.2196 22.2967 77.8939 21.8737 78.0025 21.8737C78.1094 21.661 78.3266 21.5554 78.4351 21.4499C78.1094 21.0277 78.0025 20.7095 77.6776 20.4967C77.4621 20.4967 77.2482 20.4967 77.0294 20.6039C77.0294 20.6039 76.8131 20.2848 76.7062 20.1793C76.3804 20.1793 76.9233 19.6499 76.9233 19.6499C76.5976 19.2278 76.2752 18.9095 75.8433 18.4874C75.6229 18.4874 75.4074 18.6968 75.3004 18.6968C75.3004 18.6968 74.8686 18.381 74.8686 18.2746C74.8686 18.0644 75.3004 17.9589 75.3004 17.9589C75.3004 17.9589 74.5429 17.1112 74.0041 16.793C73.7886 16.8985 73.6817 16.8985 73.4621 16.8985C73.1396 16.5819 72.7078 16.3708 72.7078 16.3708C72.7078 16.3708 73.0327 16.1589 73.0327 16.0534C72.4923 15.7351 72.2752 15.5257 71.8433 15.2058C71.4107 14.9947 71.1952 14.6764 70.9788 14.359C70.2238 13.1964 69.2515 11.5037 66.8719 11.1854C66.8719 11.1854 67.414 11.9258 67.7389 12.456C67.7389 12.5599 67.7389 12.5599 67.3054 12.5599H66.5511C66.3323 12.2424 66.2254 12.1386 66.1152 11.9258C65.8988 11.5037 65.7969 11.3965 65.5764 11.1854C65.1446 10.8671 62.983 12.0314 61.1454 12.456C61.5814 12.9837 62.0116 13.3003 62.1185 13.513C62.6589 14.0424 63.4156 14.9947 63.9544 15.7351C64.0646 15.6296 64.1732 15.5257 64.3895 15.4168C65.7969 15.2058 65.7969 14.8908 65.7969 14.8908C65.7969 14.8908 64.7119 14.0424 65.4662 14.0424C65.4662 14.0424 66.0083 14.1463 66.2254 13.9368C66.765 13.8296 67.414 13.7241 67.7389 13.9368C68.1699 14.2535 68.3854 14.6764 68.7103 14.9947C68.4948 14.9947 68.2801 14.8908 68.063 14.8908C67.414 14.782 66.765 14.8908 66.2254 14.9947C66.2254 14.9947 67.0932 15.7351 67.3054 16.0534C67.0932 15.9462 66.4409 16.0534 66.4409 16.0534C66.1152 16.1589 65.685 16.2645 65.5764 16.2645C65.254 16.3708 64.9274 16.2645 64.7119 16.3708C65.1446 16.5819 67.0932 17.324 68.063 17.324C68.9274 17.324 69.4662 17.2151 70.2238 16.8985C70.3307 16.793 70.5462 16.6874 70.6548 16.793C71.0882 16.8985 71.3037 17.0057 71.5192 17.2151C74.3299 18.9095 77.4621 22.9315 78.4351 25.0464C79.4065 27.0574 79.9453 29.2812 79.9453 31.3961C80.0539 34.2539 79.0841 37.0053 77.138 39.4393C76.0539 40.8129 74.0041 41.978 71.8433 42.189C72.4923 42.9303 72.8139 44.0929 73.1396 45.1524C73.1396 45.1524 73.8972 45.0468 74.3299 44.8358C74.3299 43.989 73.7886 43.0375 73.7886 42.8239C73.7886 42.8239 74.4368 42.4018 74.9772 42.4018C75.0825 42.7184 75.4074 43.2469 75.8433 43.989C76.2752 43.7763 76.5976 43.5635 76.9233 43.2469C76.9233 42.7184 76.5976 42.0835 76.3804 41.4486C77.138 41.132 77.5706 41.0232 77.5706 41.0232C77.7886 41.3414 78.3266 41.658 78.4351 41.978C78.4351 41.978 78.9739 41.4486 79.1927 40.9193C78.9739 40.4963 78.6498 40.178 78.4351 39.7542L79.2996 38.8052C79.2996 38.8052 79.8384 39.2266 80.0539 39.4393C80.3804 39.0155 80.7029 38.5925 80.8098 38.0615C80.271 37.5338 80.0539 37.5338 79.9453 37.2164C80.1624 36.8981 80.271 36.476 80.4857 36.1577C80.8098 36.2649 81.0286 36.476 81.2449 36.5798C81.4571 36.1577 81.6776 35.5211 81.6776 35.0998C81.4571 34.8871 81.1347 34.7832 80.9217 34.5705C81.0286 34.0411 81.1347 33.5118 81.1347 33.5118C81.1347 33.5118 81.6776 33.6173 81.8931 33.6173Z" fill="#FEFEFE"/>
</g>
<rect opacity="0.2" x="4" y="21" width="24" height="2" rx="0.923077" fill="#E3E3E3"/>
<rect opacity="0.2" x="4" y="25" width="9" height="2" rx="0.923077" fill="#E3E3E3"/>
<rect opacity="0.2" x="4" y="10" width="7" height="4" rx="1" fill="#E3E3E3"/>
</svg>
