<svg width="64" height="64" viewBox="0 0 64 64" fill="none" xmlns="http://www.w3.org/2000/svg">
<path fill-rule="evenodd" clip-rule="evenodd" d="M31.9944 0.00152588C49.6704 0.00152588 64 14.328 64 32.0008C64 49.6733 49.6704 64 31.9944 64C14.6035 64 0.452307 50.1321 0 32.8539L0 31.1476C0.452307 13.8693 14.6035 0.00152588 31.9944 0.00152588Z" fill="#006747"/>
<mask id="mask0_12_76310" style="mask-type:luminance" maskUnits="userSpaceOnUse" x="0" y="0" width="64" height="64">
<path fill-rule="evenodd" clip-rule="evenodd" d="M31.9944 0.00152588C49.6704 0.00152588 64 14.328 64 32.0008C64 49.6733 49.6704 64 31.9944 64C14.6035 64 0.452307 50.1321 0 32.8539L0 31.1476C0.452307 13.8693 14.6035 0.00152588 31.9944 0.00152588Z" fill="white"/>
</mask>
<g mask="url(#mask0_12_76310)">
<path fill-rule="evenodd" clip-rule="evenodd" d="M30.3644 47.1456L35.3132 44.2193L34.3679 47.0617C33.6104 47.1767 32.8348 47.2369 32.0442 47.2369C31.4762 47.2369 30.9168 47.2063 30.3644 47.1456ZM31.4014 32.2013L24.2296 27.612C23.4687 27.1248 22.6296 26.7209 21.5753 26.7186L19.1815 26.7145L23.9563 23.844C25.1905 23.102 26.6002 23.5985 27.1513 24.5857L31.4014 32.2013ZM17.5762 32.8799L19.1125 30.9783C20.3686 29.4233 21.5061 27.9421 24.942 29.7106L31.1019 32.8818L17.5762 32.8799ZM32.601 32.2013L36.8505 24.5857C37.4015 23.5985 38.8119 23.102 40.0459 23.844L44.82 26.7145L42.4264 26.7186C41.3724 26.7209 40.5344 27.1248 39.7726 27.612L32.601 32.2013ZM46.4258 32.8799L32.9005 32.8818L39.0597 29.7106C42.4947 27.9421 43.6331 29.4233 44.8895 30.9783L46.4258 32.8799ZM32.0028 32.0381C32.0028 32.0381 29.4552 24.6788 28.9694 23.2072C28.7706 22.6065 28.6871 22.0895 29.0711 21.5877L32.0021 17.7473L34.9314 21.5877C35.3148 22.0895 35.2305 22.6065 35.0328 23.2072C34.547 24.6788 32.0028 32.0381 32.0028 32.0381ZM32.8417 43.0009L35.3601 41.4395L34.3794 44.0049L32.8417 43.0009ZM30.4256 33.8335H33.5925L32.0888 35.02L30.4256 33.8335ZM30.5736 36.5642L35.3176 33.7108L34.4599 36.1524L32.1481 37.55L30.5736 36.5642ZM28.7968 36.3993L33.558 39.136L31.9877 40.2075L29.6131 38.7679L28.7968 36.3993ZM30.6407 41.7315L35.3132 38.9065L34.5619 41.1779L32.1272 42.8244L30.6407 41.7315ZM28.7931 41.5641L33.5176 44.4308L32.0888 45.3545L29.6341 43.9798L28.7931 41.5641ZM32.8417 37.9077L35.3601 36.3444L34.3794 38.9118L32.8417 37.9077ZM28.7506 33.6544L31.3297 35.2133L29.8168 36.3042L28.7506 33.6544ZM28.8304 38.944L31.2904 40.4664L29.8368 41.4519L28.8304 38.944ZM31.2759 45.6775L29.741 46.6346L28.7297 44.1807L31.2759 45.6775Z" fill="#B88500"/>
<mask id="mask1_12_76310" style="mask-type:luminance" maskUnits="userSpaceOnUse" x="16" y="16" width="32" height="32">
<path fill-rule="evenodd" clip-rule="evenodd" d="M16 16H48V48H16V16Z" fill="white"/>
</mask>
<g mask="url(#mask1_12_76310)">
<path fill-rule="evenodd" clip-rule="evenodd" d="M31.9996 47.2381C23.5843 47.2381 16.7614 40.4159 16.7614 32.0005C16.7614 23.5839 23.5843 16.7621 31.9996 16.7621C40.4155 16.7621 47.2379 23.5839 47.2379 32.0005C47.2379 40.4159 40.4155 47.2381 31.9996 47.2381ZM31.9996 16C23.1631 16 16 23.1632 16 32.0005C16 40.8361 23.1631 48 31.9996 48C40.836 48 48 40.8361 48 32.0005C48 23.1632 40.836 16 31.9996 16Z" fill="white"/>
</g>
</g>
</svg>
