<svg width="44" height="34" viewBox="0 0 44 34" fill="none" xmlns="http://www.w3.org/2000/svg">
<rect y="3" width="44" height="28" rx="4" fill="#061922"/>
<mask id="mask0_12_75817" style="mask-type:luminance" maskUnits="userSpaceOnUse" x="0" y="3" width="44" height="28">
<rect y="3" width="44" height="28" rx="4" fill="white"/>
</mask>
<g mask="url(#mask0_12_75817)">
</g>
<rect opacity="0.2" x="4" y="21" width="24" height="2" rx="0.923077" fill="#E3E3E3"/>
<rect opacity="0.2" x="4" y="25" width="9" height="2" rx="0.923077" fill="#E3E3E3"/>
<rect opacity="0.2" x="4" y="10" width="7" height="4" rx="1" fill="#E3E3E3"/>
<mask id="mask1_12_75817" style="mask-type:luminance" maskUnits="userSpaceOnUse" x="24" y="10" width="16" height="3">
<path fill-rule="evenodd" clip-rule="evenodd" d="M24 10H40V13H24V10Z" fill="white"/>
</mask>
<g mask="url(#mask1_12_75817)">
<path fill-rule="evenodd" clip-rule="evenodd" d="M39.2253 11.8871L39.9543 10.972L39.3096 10.9702L38.7036 11.8058L38.7083 10.0321L38.1784 10.0305L38.1703 12.97L38.7003 12.9714L38.703 11.9816L39.3376 12.9732L40 12.9753L39.2253 11.8871ZM37.3821 12.9678L37.9138 12.9691L37.9176 11.5655C37.9187 11.2162 37.7648 10.9264 37.3014 10.9252C36.9666 10.9242 36.7258 11.0875 36.6007 11.3248L36.5968 11.3202L36.5978 10.9624L36.128 10.9613L36.1249 12.9642L36.6558 12.9654L36.6583 12.0003C36.6592 11.6507 36.8653 11.3539 37.1339 11.3545C37.3284 11.3551 37.3863 11.4797 37.3857 11.6884L37.3821 12.9678ZM35.4006 12.9619L35.8692 12.9633C35.8692 12.9227 35.8682 12.5694 35.8682 12.5694L35.871 11.6155C35.872 11.178 35.688 10.9207 35.026 10.9187C34.7617 10.918 34.4959 10.9685 34.2879 11.0403L34.333 11.471C34.5074 11.3749 34.7552 11.3151 34.9417 11.3157C35.2397 11.3164 35.3429 11.4257 35.3423 11.6348L35.342 11.7429C34.6433 11.7409 34.1535 11.9931 34.1521 12.4715C34.1512 12.7928 34.3656 12.9991 34.7378 13C35.0442 13.0011 35.2976 12.8453 35.3977 12.6197H35.4014L35.4006 12.9619ZM35.3411 12.1255C35.3404 12.3666 35.1619 12.6069 34.9014 12.6063C34.7482 12.6057 34.6571 12.5213 34.6574 12.3925C34.6578 12.2319 34.783 12.075 35.3411 12.0767V12.1255ZM34.0675 11.8558C34.0695 11.265 33.8052 10.9155 33.3129 10.9137C33.0472 10.9131 32.8342 11.027 32.72 11.2123L32.7208 10.8792L32.7226 10.2659L32.7232 10.0149L32.1921 10.0133L32.1841 12.8963C32.4194 12.9609 32.653 12.9942 32.9507 12.9952C33.6588 12.9972 34.0659 12.5312 34.0675 11.8558ZM33.5084 11.9072C33.5072 12.4013 33.2915 12.5863 32.9897 12.5852C32.8783 12.585 32.7915 12.5722 32.7161 12.5481L32.7178 11.9851C32.7187 11.6513 32.885 11.3426 33.158 11.3432C33.3988 11.3442 33.5094 11.5331 33.5084 11.9072ZM31.403 12.9506L31.871 12.9519C31.871 12.9115 31.8707 12.5581 31.8707 12.5581L31.8735 11.6042C31.8745 11.1667 31.6895 10.9092 31.0278 10.9073C30.7632 10.9067 30.498 10.9572 30.2907 11.0289L30.3351 11.4596C30.509 11.3637 30.7581 11.3038 30.9434 11.3041C31.2411 11.3052 31.3444 11.4143 31.3438 11.6237L31.3435 11.7317C30.6448 11.7296 30.1555 11.9818 30.1542 12.4601C30.1533 12.7816 30.3683 12.9878 30.7393 12.9888C31.0467 12.9898 31.299 12.8339 31.3991 12.6083H31.4039L31.403 12.9506ZM31.3424 12.1138C31.3418 12.3553 31.1632 12.5955 30.9021 12.595C30.7494 12.5942 30.6592 12.5095 30.6595 12.3812C30.6599 12.2202 30.7844 12.0637 31.3424 12.0654V12.1138ZM29.995 12.0301C30.0075 11.9453 30.0123 11.8646 30.0126 11.7965C30.0139 11.3016 29.7504 10.9039 29.1505 10.9022C28.5335 10.9004 28.1849 11.3491 28.1829 11.9603C28.181 12.6632 28.5445 12.9827 29.1978 12.9845C29.4549 12.9852 29.7157 12.9409 29.9341 12.8579L29.8862 12.4592C29.7085 12.5393 29.489 12.5829 29.2866 12.5824C28.9055 12.5813 28.7157 12.4 28.7214 12.0265L29.995 12.0301ZM29.4871 11.6786L28.7301 11.6767C28.7591 11.4354 28.9132 11.2786 29.1327 11.2792C29.3554 11.2798 29.4961 11.429 29.4871 11.6786ZM27.5351 12.94L28.0076 12.9413L28.0156 10.0018L27.4842 10L27.4817 10.9131C27.3919 10.9006 27.3095 10.8968 27.2217 10.8968C26.5397 10.8948 26.1329 11.3594 26.1309 12.0353C26.1294 12.6059 26.3752 12.9765 26.877 12.9778C27.1911 12.9788 27.4193 12.8226 27.5274 12.6014L27.5361 12.6018L27.5351 12.94ZM27.4791 11.8981C27.4782 12.2392 27.3118 12.5525 27.035 12.5519C26.7953 12.5509 26.6835 12.358 26.6845 11.9838C26.6858 11.4896 26.902 11.3055 27.204 11.3063C27.2957 11.3063 27.3865 11.3186 27.4807 11.34L27.4791 11.8981ZM26.0144 11.8959C26.0164 11.2078 25.6404 10.8922 25.0556 10.8905C24.4304 10.8887 24.002 11.3381 24 11.9624C23.9981 12.6755 24.3746 12.9708 24.9588 12.9723C25.5764 12.9743 26.0125 12.5238 26.0144 11.8959ZM25.4683 11.922C25.4671 12.3291 25.2664 12.5342 25.0062 12.5334C24.699 12.5324 24.5452 12.3229 24.5466 11.9117C24.5475 11.5008 24.7808 11.3241 25.0177 11.3248C25.3286 11.3258 25.4693 11.5357 25.4683 11.922Z" fill="white"/>
</g>
</svg>
