<svg width="44" height="34" viewBox="0 0 44 34" fill="none" xmlns="http://www.w3.org/2000/svg">
<rect width="44" height="34" rx="8" fill="#005AD9"/>
<mask id="mask0_12_75368" style="mask-type:luminance" maskUnits="userSpaceOnUse" x="0" y="0" width="44" height="34">
<rect width="44" height="34" rx="8" fill="white"/>
</mask>
<g mask="url(#mask0_12_75368)">
<path d="M30.7882 6.94996C32.3377 8.29321 33.1917 10.1584 33.3572 12.1816C33.5459 15.2702 32.5072 18.0743 30.451 20.3825C28.7622 22.2109 26.3039 23.4116 23.8009 23.5235C21.7867 23.5759 19.8996 23.2379 18.2599 21.994C18.0184 21.7663 17.7848 21.5318 17.5541 21.2934C16.9892 23.8568 16.4674 26.4287 15.9407 29C14.3103 29 12.6799 29 11 29C11.1206 28.222 11.2422 27.4516 11.3953 26.6804C11.4135 26.5874 11.4318 26.4944 11.4506 26.3986C11.5103 26.0948 11.5704 25.791 11.6306 25.4872C11.6515 25.3814 11.6725 25.2756 11.694 25.1665C11.8052 24.6042 11.9168 24.042 12.0286 23.4798C12.1194 23.0231 12.2096 22.5664 12.2993 22.1095C12.7313 19.9093 13.1631 17.7111 13.7154 15.537C13.7338 15.4645 13.7521 15.3921 13.7711 15.3175C14.6072 12.0492 15.7823 8.90794 18.6632 6.88115C18.8053 6.7811 18.8053 6.7811 18.9503 6.67902C22.4014 4.41413 27.505 4.37909 30.7882 6.94996ZM20.3352 11.2892C19.1861 12.7002 18.7016 14.2936 18.8649 16.089C19.0824 17.048 19.5971 17.8814 20.3773 18.491C21.5297 19.1294 22.7188 19.2638 24.0136 18.9852C25.5223 18.5551 26.7903 17.6196 27.5872 16.2747C28.3227 14.8813 28.7104 13.4937 28.2394 11.9523C27.929 11.1071 27.4631 10.3692 26.6502 9.93297C24.4622 8.93018 21.9761 9.53363 20.3352 11.2892Z" fill="white"/>
<path d="M25.6209 11.4846C26.1238 11.9582 26.4864 12.3974 26.5622 13.0989C26.5769 14.3779 26.2809 15.4156 25.4192 16.3888C24.662 17.0765 23.8656 17.4303 22.8378 17.41C22.1879 17.3553 21.7354 17.1852 21.2914 16.7016C20.7454 16.0107 20.618 15.315 20.7203 14.4461C20.9296 13.3233 21.3514 12.4866 22.2458 11.7544C23.1937 11.1092 24.6095 10.8421 25.6209 11.4846Z" fill="#F4BF08"/>
</g>
</svg>
