<svg width="59" height="20" viewBox="0 0 59 20" fill="none" xmlns="http://www.w3.org/2000/svg">
<path d="M0.669922 5.96289V4.81445H8.36719V5.96289H5.1748V15H3.87598V5.96289H0.669922ZM12.2263 15.1641C11.488 15.1641 10.85 15 10.3123 14.6719C9.77906 14.3438 9.36663 13.8857 9.07496 13.2979C8.78785 12.71 8.6443 12.0241 8.6443 11.2402C8.6443 10.4564 8.78557 9.76595 9.06812 9.16895C9.35068 8.57194 9.74944 8.10482 10.2644 7.76758C10.7839 7.43034 11.3901 7.26172 12.0828 7.26172C12.4884 7.26172 12.8871 7.33008 13.2791 7.4668C13.6755 7.59896 14.0333 7.81543 14.3523 8.11621C14.6759 8.41243 14.9334 8.80436 15.1248 9.29199C15.3162 9.77962 15.4119 10.3766 15.4119 11.083V11.5957H9.47828V10.5566H14.7488L14.1746 10.9395C14.1746 10.4382 14.0948 9.99382 13.9353 9.60645C13.7804 9.21452 13.5479 8.90918 13.238 8.69043C12.9282 8.46712 12.5431 8.35547 12.0828 8.35547C11.6225 8.35547 11.2283 8.4694 10.9002 8.69727C10.572 8.92057 10.3214 9.21452 10.1482 9.5791C9.97503 9.93913 9.88844 10.3265 9.88844 10.7412V11.4316C9.88844 11.9967 9.98642 12.4775 10.1824 12.874C10.3783 13.266 10.6518 13.5645 11.0027 13.7695C11.3582 13.9701 11.7683 14.0703 12.2332 14.0703C12.5339 14.0703 12.8074 14.027 13.0535 13.9404C13.2996 13.8538 13.5115 13.724 13.6892 13.5508C13.867 13.373 14.0037 13.1543 14.0994 12.8945L15.2888 13.2227C15.1703 13.6055 14.9698 13.9427 14.6873 14.2344C14.4047 14.526 14.0538 14.7539 13.6345 14.918C13.2198 15.082 12.7504 15.1641 12.2263 15.1641ZM18.3208 12.252V10.7275H18.5464L21.814 7.35742H23.3384L19.8042 10.9873H19.6675L18.3208 12.252ZM17.1655 15V4.81445H18.396V15H17.1655ZM21.9986 15L19.0728 11.2607L19.9478 10.3926L23.5777 15H21.9986ZM26.0696 10.4199V15H24.8391V7.35742H26.0218L26.0286 9.20996H25.8577C26.0901 8.50358 26.4205 8.00228 26.8489 7.70605C27.2818 7.40983 27.7877 7.26172 28.3665 7.26172C28.8815 7.26172 29.3326 7.36882 29.72 7.58301C30.1074 7.79264 30.4082 8.11165 30.6223 8.54004C30.8411 8.96387 30.9505 9.49935 30.9505 10.1465V15H29.72V10.249C29.72 9.66113 29.5651 9.20085 29.2552 8.86816C28.9498 8.53548 28.5305 8.36914 27.9973 8.36914C27.6328 8.36914 27.3046 8.44889 27.013 8.6084C26.7213 8.7679 26.4912 9.00033 26.3225 9.30566C26.1539 9.611 26.0696 9.98242 26.0696 10.4199ZM36.211 15.1641C35.5183 15.1641 34.9099 15 34.3858 14.6719C33.8662 14.3438 33.4607 13.8835 33.169 13.291C32.8773 12.6986 32.7315 12.0104 32.7315 11.2266C32.7315 10.429 32.8773 9.73405 33.169 9.1416C33.4607 8.5446 33.8662 8.08203 34.3858 7.75391C34.9099 7.42578 35.5183 7.26172 36.211 7.26172C36.9082 7.26172 37.5189 7.42578 38.043 7.75391C38.5671 8.08203 38.975 8.5446 39.2666 9.1416C39.5583 9.73405 39.7041 10.429 39.7041 11.2266C39.7041 12.0104 39.5583 12.6986 39.2666 13.291C38.975 13.8835 38.5671 14.3438 38.043 14.6719C37.5189 15 36.9082 15.1641 36.211 15.1641ZM36.211 14.0635C36.7259 14.0635 37.1498 13.9313 37.4825 13.667C37.8151 13.4027 38.0612 13.0563 38.2207 12.6279C38.3802 12.195 38.46 11.7279 38.46 11.2266C38.46 10.7207 38.3802 10.2513 38.2207 9.81836C38.0612 9.38086 37.8151 9.02995 37.4825 8.76562C37.1498 8.49674 36.7259 8.3623 36.211 8.3623C35.7006 8.3623 35.2813 8.49674 34.9532 8.76562C34.625 9.02995 34.3812 9.37858 34.2217 9.81152C34.0622 10.2445 33.9825 10.7161 33.9825 11.2266C33.9825 11.7279 34.0622 12.195 34.2217 12.6279C34.3812 13.0563 34.625 13.4027 34.9532 13.667C35.2813 13.9313 35.7006 14.0635 36.211 14.0635ZM42.7156 4.81445V15H41.4852V4.81445H42.7156ZM47.9761 15.1641C47.2834 15.1641 46.675 15 46.1509 14.6719C45.6314 14.3438 45.2258 13.8835 44.9341 13.291C44.6425 12.6986 44.4966 12.0104 44.4966 11.2266C44.4966 10.429 44.6425 9.73405 44.9341 9.1416C45.2258 8.5446 45.6314 8.08203 46.1509 7.75391C46.675 7.42578 47.2834 7.26172 47.9761 7.26172C48.6734 7.26172 49.2841 7.42578 49.8082 7.75391C50.3323 8.08203 50.7401 8.5446 51.0318 9.1416C51.3235 9.73405 51.4693 10.429 51.4693 11.2266C51.4693 12.0104 51.3235 12.6986 51.0318 13.291C50.7401 13.8835 50.3323 14.3438 49.8082 14.6719C49.2841 15 48.6734 15.1641 47.9761 15.1641ZM47.9761 14.0635C48.4911 14.0635 48.9149 13.9313 49.2476 13.667C49.5803 13.4027 49.8264 13.0563 49.9859 12.6279C50.1454 12.195 50.2252 11.7279 50.2252 11.2266C50.2252 10.7207 50.1454 10.2513 49.9859 9.81836C49.8264 9.38086 49.5803 9.02995 49.2476 8.76562C48.9149 8.49674 48.4911 8.3623 47.9761 8.3623C47.4657 8.3623 47.0464 8.49674 46.7183 8.76562C46.3902 9.02995 46.1464 9.37858 45.9869 9.81152C45.8274 10.2445 45.7476 10.7161 45.7476 11.2266C45.7476 11.7279 45.8274 12.195 45.9869 12.6279C46.1464 13.0563 46.3902 13.4027 46.7183 13.667C47.0464 13.9313 47.4657 14.0635 47.9761 14.0635ZM53.2435 7.35742H54.4808V15.5469C54.4853 16.0299 54.4033 16.4447 54.2347 16.791C54.0661 17.1374 53.8154 17.4017 53.4827 17.584C53.1501 17.7663 52.7353 17.8574 52.2386 17.8574H51.9925V16.7227H52.2181C52.5736 16.7227 52.8333 16.6201 52.9974 16.415C53.1614 16.2145 53.2435 15.9251 53.2435 15.5469V7.35742ZM53.8655 6.10645C53.6331 6.10645 53.4326 6.02669 53.264 5.86719C53.0954 5.70768 53.0111 5.51628 53.0111 5.29297C53.0111 5.0651 53.0954 4.8737 53.264 4.71875C53.4326 4.55924 53.6331 4.47949 53.8655 4.47949C54.1025 4.47949 54.3053 4.55924 54.4739 4.71875C54.6426 4.8737 54.7269 5.0651 54.7269 5.29297C54.7269 5.51628 54.6426 5.70768 54.4739 5.86719C54.3053 6.02669 54.1025 6.10645 53.8655 6.10645ZM56.6309 15V7.35742H57.8614V15H56.6309ZM57.253 6.10645C57.0206 6.10645 56.8201 6.02669 56.6514 5.86719C56.4828 5.70768 56.3985 5.51628 56.3985 5.29297C56.3985 5.0651 56.4828 4.8737 56.6514 4.71875C56.8201 4.55924 57.0206 4.47949 57.253 4.47949C57.49 4.47949 57.6928 4.55924 57.8614 4.71875C58.03 4.8737 58.1143 5.0651 58.1143 5.29297C58.1143 5.51628 58.03 5.70768 57.8614 5.86719C57.6928 6.02669 57.49 6.10645 57.253 6.10645Z" fill="white"/>
</svg>
