<svg width="44" height="34" viewBox="0 0 44 34" fill="none" xmlns="http://www.w3.org/2000/svg">
<rect width="44" height="34" rx="8" fill="#00A66C"/>
<mask id="mask0_12_75527" style="mask-type:luminance" maskUnits="userSpaceOnUse" x="0" y="0" width="44" height="34">
<rect width="44" height="34" rx="8" fill="white"/>
</mask>
<g mask="url(#mask0_12_75527)">
<path d="M25.0791 23.8779C24.3612 24.6093 23.7215 25.2183 22.8457 25.8936C22.9199 26.2608 22.9778 26.4683 23.0557 26.7539C22.724 26.814 22.2708 26.844 21.79 26.8291C20.866 27.3707 19.6107 27.7755 18.6641 28C19.2278 27.6417 19.7253 27.267 20.3047 26.7393C19.7253 26.6237 19.1826 26.4469 18.624 26.1611C19.533 26.1571 20.2761 26.0615 21.21 25.8086C21.7553 25.2014 22.1717 24.6799 22.6641 24.0225C22.6842 24.482 22.7122 24.8272 22.7539 25.2383C23.638 24.8188 24.3087 24.4145 25.0791 23.8779ZM11.7637 19.1602C12.0782 20.5947 12.3512 21.6215 12.9697 22.6963C13.7251 22.5483 14.3621 22.4522 15.2422 22.3271C14.763 23.0225 14.4706 23.5785 14.2168 24.2764C15.0676 25.0702 15.844 25.5346 16.9248 25.9326C15.792 25.8962 14.9407 25.7493 13.9414 25.457C13.8716 26.1593 13.9167 26.6956 14.1064 27.3613C13.3062 26.581 12.8101 25.8842 12.335 24.8623C11.4399 24.4537 10.7949 24.0754 10 23.5859C10.5683 23.3334 11.0599 23.1635 11.751 22.9766C11.5333 21.764 11.5932 20.6778 11.7637 19.1602ZM19.7275 10.7812C19.3871 11.2128 18.9974 12.0201 18.8975 12.3984C21.616 12.7704 23.8144 14.1422 23.8926 14.1914C21.4583 13.7652 20.188 13.817 19.2852 13.8975C18.3822 13.986 18.2002 14.0928 18.2002 14.0928C17.5528 15.5001 17.1623 17.9308 17.1562 17.9697C16.7147 16.9104 16.0762 14.7871 16.0762 14.7871C14.8575 15.439 12.0658 18.053 12.041 18.0762H12.04C13.5858 14.9919 15.1533 13.5762 15.1533 13.5762H15.1543C14.6147 13.0383 13.1994 12.77 12.168 12.7227C12.7049 12.5022 14.0845 12.2452 15.1416 12.1992C16.2002 12.1664 16.8418 12.2314 16.8418 12.2314H16.8447C17.7911 11.4863 19.2235 10.857 19.7275 10.7812ZM24.1904 5C26.8241 5.20339 30.0464 6.17862 31.6055 7.13574C32.2321 6.94549 32.862 6.93202 34 6.83105C33.7107 7.33075 33.7049 7.61975 32.582 8.35742C32.8924 9.18674 32.153 13.7404 31.541 14.9541C31.5139 13.0438 31.3427 10.6335 30.6367 9.5918C28.7576 10.6885 28.1815 10.7762 26.1543 11.9902C27.333 10.7108 27.7438 10.1699 28.4814 9.0957C26.6025 9.19376 23.877 9.41984 21.9238 9.84766C23.6249 8.9507 26.9876 7.94113 28.7598 7.70605C28.3472 7.14074 25.0194 5.34193 24.1904 5ZM23.8975 14.1924H23.8945C23.8942 14.1922 23.8935 14.192 23.8926 14.1914C23.8942 14.1917 23.8958 14.1921 23.8975 14.1924Z" fill="#FEFEFE"/>
</g>
</svg>
