<svg width="44" height="34" viewBox="0 0 44 34" fill="none" xmlns="http://www.w3.org/2000/svg">
<rect y="3" width="44" height="28" rx="4" fill="#00A66C"/>
<mask id="mask0_12_75686" style="mask-type:luminance" maskUnits="userSpaceOnUse" x="0" y="3" width="44" height="28">
<rect y="3" width="44" height="28" rx="4" fill="white"/>
</mask>
<g mask="url(#mask0_12_75686)">
</g>
<rect opacity="0.2" x="4" y="21" width="24" height="2" rx="0.923077" fill="#E3E3E3"/>
<rect opacity="0.2" x="4" y="25" width="9" height="2" rx="0.923077" fill="#E3E3E3"/>
<path d="M33.0791 23.8779C32.3612 24.6093 31.7215 25.2183 30.8457 25.8936C30.9199 26.2608 30.9778 26.4683 31.0557 26.7539C30.724 26.814 30.2708 26.844 29.79 26.8291C28.866 27.3707 27.6107 27.7755 26.6641 28C27.2278 27.6417 27.7253 27.267 28.3047 26.7393C27.7253 26.6237 27.1826 26.4469 26.624 26.1611C27.533 26.1571 28.2761 26.0615 29.21 25.8086C29.7553 25.2014 30.1717 24.6799 30.6641 24.0225C30.6842 24.482 30.7122 24.8272 30.7539 25.2383C31.638 24.8188 32.3087 24.4145 33.0791 23.8779ZM19.7637 19.1602C20.0782 20.5947 20.3512 21.6215 20.9697 22.6963C21.7251 22.5483 22.3621 22.4522 23.2422 22.3271C22.763 23.0225 22.4706 23.5785 22.2168 24.2764C23.0676 25.0702 23.844 25.5346 24.9248 25.9326C23.792 25.8962 22.9407 25.7493 21.9414 25.457C21.8716 26.1593 21.9167 26.6956 22.1064 27.3613C21.3062 26.581 20.8101 25.8842 20.335 24.8623C19.4399 24.4537 18.7949 24.0754 18 23.5859C18.5683 23.3334 19.0599 23.1635 19.751 22.9766C19.5333 21.764 19.5932 20.6778 19.7637 19.1602ZM27.7275 10.7812C27.3871 11.2128 26.9974 12.0201 26.8975 12.3984C29.616 12.7704 31.8144 14.1422 31.8926 14.1914C29.4583 13.7652 28.188 13.817 27.2852 13.8975C26.3822 13.986 26.2002 14.0928 26.2002 14.0928C25.5528 15.5001 25.1623 17.9308 25.1562 17.9697C24.7147 16.9104 24.0762 14.7871 24.0762 14.7871C22.8575 15.439 20.0658 18.053 20.041 18.0762H20.04C21.5858 14.9919 23.1533 13.5762 23.1533 13.5762H23.1543C22.6147 13.0383 21.1994 12.77 20.168 12.7227C20.7049 12.5022 22.0845 12.2452 23.1416 12.1992C24.2002 12.1664 24.8418 12.2314 24.8418 12.2314H24.8447C25.7911 11.4863 27.2235 10.857 27.7275 10.7812ZM32.1904 5C34.8241 5.20339 38.0464 6.17862 39.6055 7.13574C40.2321 6.94549 40.862 6.93202 42 6.83105C41.7107 7.33075 41.7049 7.61975 40.582 8.35742C40.8924 9.18674 40.153 13.7404 39.541 14.9541C39.5139 13.0438 39.3427 10.6335 38.6367 9.5918C36.7576 10.6885 36.1815 10.7762 34.1543 11.9902C35.333 10.7108 35.7438 10.1699 36.4814 9.0957C34.6025 9.19376 31.877 9.41984 29.9238 9.84766C31.6249 8.9507 34.9876 7.94113 36.7598 7.70605C36.3472 7.14074 33.0194 5.34193 32.1904 5ZM31.8975 14.1924H31.8945C31.8942 14.1922 31.8935 14.192 31.8926 14.1914C31.8942 14.1917 31.8958 14.1921 31.8975 14.1924Z" fill="#FEFEFE"/>
<rect opacity="0.2" x="4" y="10" width="7" height="4" rx="1" fill="#E3E3E3"/>
</svg>
