<svg width="130" height="55" viewBox="0 0 130 55" fill="none" xmlns="http://www.w3.org/2000/svg">
<path fill-rule="evenodd" clip-rule="evenodd" d="M121.866 28.001H121.908C122.624 29.0969 123.327 30.1994 124.015 31.3094C124.703 32.4053 125.406 33.4868 126.122 34.5544C126.431 34.5261 126.734 34.5122 127.029 34.5122H127.956H128.904C129.227 34.5122 129.593 34.5261 130 34.5544C129.719 34.2174 129.347 33.7187 128.883 33.0585C128.419 32.384 127.914 31.6535 127.366 30.8669C126.832 30.0661 126.291 29.2511 125.743 28.4227C125.195 27.5936 124.696 26.8351 124.247 26.1467C124.528 25.8093 124.921 25.3525 125.427 24.7767C125.933 24.1868 126.46 23.5827 127.007 22.9646C127.569 22.3462 128.096 21.7703 128.588 21.2366C129.08 20.7028 129.445 20.3163 129.684 20.0773C129.445 20.1057 129.22 20.1336 129.009 20.1616C128.813 20.1757 128.616 20.183 128.419 20.183C128.223 20.183 128.026 20.1757 127.829 20.1616C127.633 20.1336 127.436 20.1057 127.239 20.0773C127.057 20.3442 126.762 20.7449 126.354 21.2788C125.947 21.7983 125.49 22.3746 124.985 23.0066C124.479 23.6388 123.952 24.2923 123.404 24.9666C122.856 25.6267 122.343 26.2378 121.866 26.7998V24.7767C121.866 23.7511 121.873 22.817 121.887 21.9741C121.915 21.1312 121.964 20.4988 122.034 20.0773C121.795 20.1057 121.535 20.1336 121.255 20.1616C120.974 20.1757 120.657 20.183 120.306 20.183C119.955 20.183 119.639 20.1757 119.358 20.1616C119.077 20.1336 118.817 20.1057 118.578 20.0773C118.634 20.9905 118.677 21.9038 118.705 22.817C118.733 23.7162 118.747 24.7485 118.747 25.9147V28.7809C118.747 29.9466 118.733 30.9863 118.705 31.8994C118.677 32.7985 118.634 33.6838 118.578 34.5544C118.817 34.5261 119.077 34.5122 119.358 34.5122H120.306H121.255C121.535 34.5122 121.795 34.5261 122.034 34.5544C121.95 33.9084 121.901 33.0375 121.887 31.9417C121.873 30.8456 121.866 29.5321 121.866 28.001ZM103.258 24.2711C103.258 25.3387 103.237 26.4557 103.195 27.6215C103.167 28.7737 103.125 29.8483 103.069 30.8458C103.026 31.8294 102.984 32.6649 102.942 33.3535C102.9 34.042 102.865 34.4423 102.837 34.5544C103.16 34.5261 103.483 34.5122 103.806 34.5122H104.291C104.46 34.5122 104.628 34.5261 104.796 34.5544C104.782 34.4001 104.769 34.1962 104.754 33.9434C104.74 33.6767 104.727 33.3394 104.712 32.9318C104.698 32.5243 104.684 32.0258 104.67 31.4358V29.2866V26.8418V25.5988C104.684 25.1913 104.698 24.7838 104.712 24.3764C107.958 27.7905 111.027 31.1829 113.921 34.5544C114.16 34.5261 114.434 34.5122 114.743 34.5122C115.038 34.5122 115.326 34.5261 115.607 34.5544V32.0258V29.1811C115.621 28.282 115.642 27.3758 115.67 26.4627C115.698 25.5495 115.733 24.58 115.775 23.5546C115.817 22.5151 115.874 21.3558 115.944 20.0773C115.551 20.1477 115.235 20.183 114.996 20.183C114.757 20.183 114.441 20.1477 114.047 20.0773C114.076 20.2179 114.096 20.4919 114.111 20.8993C114.139 21.3068 114.153 21.7918 114.153 22.3533C114.167 22.9153 114.174 23.5334 114.174 24.2077C114.188 24.8682 114.195 25.5424 114.195 26.231V28.2749V30.108C112.622 28.4084 111.083 26.7366 109.58 25.0928C108.091 23.449 106.581 21.7774 105.05 20.0773C104.656 20.1477 104.34 20.183 104.101 20.183C103.862 20.183 103.546 20.1477 103.153 20.0773C103.167 20.5833 103.188 21.1662 103.216 21.8267C103.244 22.4867 103.258 23.3015 103.258 24.2711ZM101.425 34.5544C101.088 34.5261 100.765 34.5122 100.456 34.5122H99.5704H98.6642C98.3697 34.5122 98.0743 34.5261 97.7796 34.5544C97.5548 33.8663 97.3229 33.1638 97.084 32.4473C96.845 31.7309 96.5922 31.0145 96.3255 30.2976C95.8759 30.284 95.4262 30.2768 94.9765 30.2768C94.527 30.2627 94.0776 30.2557 93.6278 30.2557C93.2628 30.2557 92.8975 30.2627 92.5323 30.2768C92.1667 30.2768 91.8017 30.284 91.4362 30.2976C91.1556 31.0145 90.8955 31.7309 90.657 32.4473C90.418 33.1638 90.2002 33.8663 90.0034 34.5544C89.8352 34.5261 89.6662 34.5122 89.4978 34.5122H89.013H88.5074C88.3389 34.5122 88.156 34.5261 87.9595 34.5544C88.128 34.1895 88.3526 33.6838 88.6338 33.0375C88.9149 32.391 89.2238 31.6605 89.5612 30.8458C89.8981 30.0309 90.2562 29.1599 90.6356 28.2328C91.0289 27.2915 91.4154 26.343 91.7948 25.3878C92.1881 24.4325 92.5675 23.4914 92.9327 22.5643C93.3119 21.6369 93.6563 20.7729 93.9652 19.9724C94.1058 20.0003 94.2393 20.0281 94.3654 20.0565C94.492 20.0704 94.6255 20.0773 94.766 20.0773C94.9065 20.0773 95.0399 20.0704 95.1663 20.0565C95.293 20.0281 95.4262 20.0003 95.5669 19.9724C96.0164 21.1662 96.494 22.4447 96.9996 23.8074C97.5194 25.1701 98.0393 26.5117 98.5593 27.8326C99.0789 29.139 99.5845 30.382 100.076 31.562C100.568 32.7422 101.017 33.7398 101.425 34.5544ZM93.9652 24.0391C93.5999 24.8821 93.2555 25.7178 92.9327 26.5469C92.6097 27.3617 92.2937 28.1978 91.9841 29.0546H95.8404C95.5316 28.1978 95.2225 27.3617 94.9133 26.5469C94.6184 25.7178 94.3022 24.8821 93.9652 24.0391ZM77.1909 25.9147V28.7808C77.1909 29.9465 77.1773 30.9862 77.1487 31.8994C77.1209 32.7985 77.0787 33.6836 77.0225 34.5543C77.2612 34.5261 77.5774 34.5122 77.9707 34.5122H79.1509C79.6847 34.5122 80.1903 34.5191 80.6681 34.5333C81.1596 34.5472 81.6864 34.5543 82.2486 34.5543C82.8806 34.5543 83.4916 34.4914 84.0817 34.3649C84.6716 34.2244 85.1914 33.9857 85.6411 33.6485C86.1048 33.3112 86.4701 32.876 86.7369 32.3419C87.018 31.808 87.1586 31.1618 87.1586 30.4033C87.1586 29.7711 87.018 29.2372 86.7369 28.8017C86.4701 28.3521 86.1401 27.9868 85.7465 27.7059C85.353 27.4252 84.939 27.2211 84.5033 27.0947C84.0678 26.9542 83.6884 26.8771 83.3654 26.863V26.8209C83.6884 26.7646 84.0465 26.659 84.44 26.5047C84.8475 26.35 85.2195 26.1396 85.5569 25.8726C85.908 25.5918 86.2033 25.2476 86.4423 24.8398C86.6805 24.4185 86.8003 23.9199 86.8003 23.3436C86.8003 22.7679 86.6948 22.2761 86.4843 21.8688C86.2874 21.4472 85.9994 21.1102 85.6201 20.8572C85.2409 20.5903 84.7913 20.3934 84.2713 20.2671C83.7518 20.1408 83.1755 20.0773 82.5435 20.0773C81.9394 20.0773 81.3072 20.0985 80.6469 20.1408C79.9868 20.1688 79.3546 20.1829 78.7503 20.1829C78.3993 20.1829 78.0832 20.1757 77.8022 20.1616C77.5211 20.1335 77.2612 20.1057 77.0225 20.0773C77.0787 20.9906 77.1209 21.9038 77.1487 22.8169C77.1773 23.7162 77.1909 24.7485 77.1909 25.9147ZM83.6816 23.7442C83.6816 24.194 83.6115 24.5872 83.4709 24.9244C83.3305 25.2614 83.1478 25.5424 82.923 25.7672C82.6982 25.9777 82.4384 26.1397 82.1434 26.2517C81.8624 26.3643 81.5746 26.4206 81.2792 26.4206H80.3311C80.3311 26.0553 80.324 25.7037 80.3101 25.3669V24.2711C80.3101 23.9058 80.3168 23.4563 80.3311 22.9224C80.3452 22.3884 80.3662 21.8617 80.3943 21.3417C80.535 21.3138 80.6613 21.2996 80.7734 21.2996C80.9003 21.2858 81.1179 21.2788 81.427 21.2788C81.8484 21.2788 82.1995 21.3487 82.4805 21.4894C82.7618 21.6157 82.9932 21.7916 83.1758 22.0163C83.3582 22.227 83.4852 22.4867 83.5552 22.7958C83.6394 23.0909 83.6816 23.4069 83.6816 23.7442ZM83.829 30.5509C83.829 31.0145 83.7659 31.422 83.6394 31.7731C83.5129 32.1243 83.3446 32.426 83.1335 32.679C82.923 32.918 82.6769 33.1006 82.3962 33.2271C82.1152 33.3535 81.8201 33.4167 81.5109 33.4167H80.9003C80.7313 33.4028 80.5487 33.3885 80.3521 33.3746C80.3521 33.192 80.3452 32.9602 80.3311 32.679V31.7518C80.3311 31.4149 80.324 31.0705 80.3101 30.7192V29.6868V28.5698C80.324 28.2466 80.3311 27.9377 80.3311 27.6427H80.7313C80.872 27.6287 81.0403 27.6215 81.2372 27.6215C82.0802 27.6215 82.719 27.8675 83.1549 28.3591C83.6044 28.8366 83.829 29.5671 83.829 30.5509ZM67.7719 28.001H67.814C68.5305 29.0969 69.2328 30.1994 69.9209 31.3094C70.6095 32.4053 71.3119 33.4868 72.0284 34.5544C72.3375 34.5261 72.6398 34.5122 72.9344 34.5122H73.8618H74.8101C75.1333 34.5122 75.4985 34.5261 75.906 34.5544C75.6248 34.2174 75.2526 33.7186 74.7888 33.0585C74.3252 32.384 73.8196 31.6535 73.2718 30.8669C72.738 30.0661 72.1969 29.2511 71.6489 28.4226C71.1011 27.5936 70.6023 26.8351 70.1528 26.1467C70.4339 25.8093 70.8271 25.3525 71.3329 24.7767C71.8386 24.1868 72.3656 23.5827 72.9134 22.9646C73.4753 22.3462 74.0025 21.7703 74.494 21.2366C74.9858 20.7028 75.3509 20.3163 75.59 20.0773C75.3509 20.1057 75.1261 20.1336 74.9152 20.1616C74.7188 20.1757 74.522 20.183 74.3252 20.183C74.1288 20.183 73.9319 20.1757 73.7351 20.1616C73.5387 20.1336 73.342 20.1057 73.1452 20.0773C72.9623 20.3442 72.6677 20.7449 72.2603 21.2788C71.8529 21.7983 71.3963 22.3746 70.8905 23.0066C70.3845 23.6388 69.8579 24.2923 69.3101 24.9666C68.7621 25.6267 68.2492 26.2378 67.7719 26.7998V24.7767C67.7719 23.7511 67.7787 22.8169 67.7928 21.9741C67.8209 21.1312 67.8703 20.4988 67.9403 20.0773C67.7015 20.1057 67.4416 20.1336 67.1604 20.1616C66.8796 20.1757 66.5635 20.183 66.2123 20.183C65.8612 20.183 65.5451 20.1757 65.2642 20.1616C64.9831 20.1336 64.7232 20.1057 64.4842 20.0773C64.5406 20.9906 64.5828 21.9038 64.6107 22.8169C64.6391 23.7162 64.6527 24.7485 64.6527 25.9147V28.7809C64.6527 29.9466 64.6391 30.9862 64.6107 31.8994C64.5828 32.7985 64.5406 33.6837 64.4842 34.5544C64.7232 34.5261 64.9831 34.5122 65.2642 34.5122H66.2123H67.1604C67.4416 34.5122 67.7015 34.5261 67.9403 34.5544C67.856 33.9084 67.8069 33.0375 67.7928 31.9416C67.7787 30.8458 67.7719 29.5322 67.7719 28.001ZM54.8328 25.9147V28.7809C54.8328 29.9466 54.8189 30.9862 54.7906 31.8994C54.7628 32.7985 54.7205 33.6837 54.6644 34.5544C54.7764 34.5402 54.9104 34.5261 55.0646 34.5122H55.781H57.0453H59.1318H61.4075C61.9695 34.5261 62.4402 34.5402 62.8194 34.5544C62.7914 34.4701 62.7701 34.3649 62.7563 34.2387C62.7421 34.112 62.7351 33.9363 62.7351 33.7118C62.7351 33.4868 62.7421 33.3112 62.7563 33.1849C62.7701 33.0585 62.7914 32.9182 62.8194 32.7635C62.0045 32.8619 61.1969 32.9318 60.3961 32.9739C59.5952 33.0162 58.7945 33.0375 57.994 33.0375C57.9798 32.4895 57.9656 31.8433 57.9519 31.0986V28.7809V25.9147C57.9519 24.7485 57.9656 23.7162 57.994 22.8169C58.0218 21.9038 58.064 20.9906 58.1203 20.0773C57.8815 20.1057 57.6215 20.1336 57.3404 20.1616C57.0594 20.1757 56.7434 20.183 56.3923 20.183C56.0412 20.183 55.7251 20.1757 55.4441 20.1616C55.163 20.1336 54.9031 20.1057 54.6644 20.0773C54.7205 20.9906 54.7628 21.9038 54.7906 22.8169C54.8189 23.7162 54.8328 24.7485 54.8328 25.9147ZM53.1894 34.5544C52.852 34.5261 52.5289 34.5122 52.2198 34.5122H51.3347H50.4285C50.1337 34.5122 49.8386 34.5261 49.5437 34.5544C49.3188 33.8663 49.087 33.1638 48.8482 32.4473C48.6094 31.7309 48.3565 31.0145 48.0896 30.2976C47.6401 30.284 47.1906 30.2768 46.7409 30.2768C46.2913 30.2627 45.8417 30.2557 45.3921 30.2557C45.027 30.2557 44.6616 30.2627 44.2963 30.2768C43.931 30.2768 43.5659 30.284 43.2005 30.2976C42.9199 31.0145 42.6598 31.7309 42.4212 32.4473C42.1823 33.1638 41.9644 33.8663 41.7678 34.5544C41.5992 34.5261 41.4304 34.5122 41.262 34.5122H40.7773H40.2716C40.103 34.5122 39.9205 34.5261 39.7237 34.5544C39.8922 34.1895 40.1169 33.6837 40.3979 33.0375C40.679 32.391 40.9878 31.6605 41.3252 30.8458C41.6622 30.0309 42.0206 29.1599 42.3999 28.2328C42.7932 27.2914 43.1797 26.343 43.5591 25.3878C43.9523 24.4325 44.3317 23.4914 44.697 22.5643C45.0761 21.6369 45.4204 20.7729 45.7295 19.9724C45.8701 20.0003 46.0034 20.0281 46.1299 20.0565C46.2561 20.0704 46.3895 20.0773 46.5302 20.0773C46.6706 20.0773 46.804 20.0704 46.9304 20.0565C47.0572 20.0281 47.1906 20.0003 47.3311 19.9724C47.7807 21.1662 48.2581 22.4447 48.7638 23.8074C49.2839 25.1701 49.8036 26.512 50.3235 27.8326C50.843 29.139 51.349 30.382 51.8405 31.562C52.3321 32.7422 52.7817 33.7398 53.1894 34.5544ZM45.7295 24.0391C45.3641 24.8821 45.0199 25.718 44.697 26.5469C44.3739 27.3617 44.0578 28.1978 43.7484 29.0546H47.6049C47.2957 28.1978 46.9867 27.3617 46.6778 26.5469C46.3826 25.7178 46.0665 24.8821 45.7295 24.0391ZM34.961 27.5794V28.7809C34.961 29.9466 34.9471 30.9862 34.9188 31.8994C34.8909 32.7985 34.8488 33.6837 34.7924 34.5544C35.0314 34.5261 35.2912 34.5122 35.5723 34.5122H36.5205H37.4687C37.7497 34.5122 38.0096 34.5261 38.2483 34.5544C38.1922 33.6837 38.15 32.7985 38.1222 31.8994C38.0939 30.9862 38.0799 29.9466 38.0799 28.7809V25.9147C38.0799 24.7485 38.0939 23.7162 38.1222 22.8169C38.15 21.9038 38.1922 20.9906 38.2483 20.0773C38.0096 20.1057 37.7497 20.1336 37.4687 20.1616C37.1877 20.1757 36.8715 20.183 36.5205 20.183C36.1692 20.183 35.8533 20.1757 35.5723 20.1616C35.2912 20.1336 35.0314 20.1057 34.7924 20.0773C34.8488 20.9906 34.8909 21.8967 34.9188 22.7958C34.9471 23.681 34.961 24.7062 34.961 25.8727C34.5535 25.8864 34.1109 25.9006 33.6337 25.9147H31.7793H29.8614C29.3557 25.9006 28.92 25.8864 28.5551 25.8727C28.5551 24.7062 28.5619 23.681 28.576 22.7958C28.6039 21.8967 28.6531 20.9906 28.7236 20.0773C28.4846 20.1057 28.2249 20.1336 27.9438 20.1616C27.6628 20.1757 27.3467 20.183 26.9955 20.183C26.6446 20.183 26.3284 20.1757 26.0473 20.1616C25.7663 20.1336 25.5065 20.1057 25.2676 20.0773C25.3238 20.9906 25.3661 21.9038 25.394 22.8169C25.4222 23.7162 25.4361 24.7485 25.4361 25.9147V28.7809C25.4361 29.9466 25.4222 30.9862 25.394 31.8994C25.3661 32.7985 25.3238 33.6837 25.2676 34.5544C25.5065 34.5261 25.7663 34.5122 26.0473 34.5122H26.9955H27.9438C28.2249 34.5122 28.4846 34.5261 28.7236 34.5544C28.6673 33.6837 28.6252 32.7985 28.5972 31.8994C28.5689 30.9862 28.5551 29.9466 28.5551 28.7809V27.5794C29.0888 27.5515 29.6227 27.5302 30.1564 27.5165C30.6905 27.5022 31.2242 27.4952 31.7581 27.4952C32.2918 27.4952 32.8256 27.5094 33.3595 27.5374C33.8934 27.5515 34.4272 27.5651 34.961 27.5794ZM12.3414 31.4227V33.4489H11.614V32.1454H9.45801V33.4489H8.73047V31.4227H12.3414ZM13.7944 29.9761V35.5699H13.0668V30.6943H8.00293V35.5699H7.27539V29.9675L13.7944 29.9761ZM15.2514 28.5124V37.7195H14.5239L14.524 29.2352H6.5422L6.54773 37.7195H5.82031V28.5124H15.2514ZM8.73047 23.4195V21.3632H9.45801V22.6969H11.614V21.3632H12.3414V23.4195H8.73047ZM7.27539 24.8752V19.2421H8.00293V24.1523H13.0673V19.2421H13.795V24.8752H7.27539ZM5.82031 26.3298V17.1211H6.54773V25.607H14.5297L14.5239 17.1211H15.2514V26.3298H5.82031ZM20.3442 33.4487H21.0717V21.3632H20.3442V33.4487ZM18.8892 35.5699H19.6167V19.2421H18.8892V35.5699ZM17.4342 37.7159H18.1616V17.1211H17.4342V37.7159ZM15.9791 39.8119V27.787H5.09277V39.8119H4.36511V15H5.09277V27.0595H15.9791V15H16.7065V39.8119H15.9791ZM0 33.4489H0.727539V21.3633H0V33.4489ZM1.45508 35.5699H2.18262V19.2421H1.45508V35.5699ZM2.91016 37.6918H3.63782V17.1191H2.91016V37.6918Z" fill="#E3E3E3"/>
</svg>
