<svg width="130" height="55" viewBox="0 0 130 55" fill="none" xmlns="http://www.w3.org/2000/svg">
<path d="M18.1484 23.7764C19.0432 23.7923 19.8491 24.0581 20.5654 24.5713C21.3049 25.1029 21.9183 25.874 22.4121 26.8857C22.6639 27.4037 22.8546 27.9754 22.9805 28.5996C23.1064 29.2277 23.1689 29.9103 23.1689 30.6533C23.1689 30.845 23.1694 30.988 23.167 31.082C23.1645 31.1797 23.1582 31.2617 23.1533 31.335L18.1484 31.3457L17.1611 31.3467V31.5391C17.1611 32.1671 17.2413 32.6328 17.4014 32.9395C17.5591 33.245 17.803 33.4004 18.127 33.4004H18.1484C18.3355 33.3955 18.4991 33.3117 18.6396 33.1553C18.7863 32.9915 18.9013 32.7545 18.9844 32.4453L22.8916 32.8174C22.5506 34.1553 21.9627 35.188 21.1279 35.9102C20.3138 36.6201 19.3195 36.9817 18.1484 37H18.0586C17.3875 37 16.7584 36.8531 16.1729 36.5635C15.5887 36.2739 15.0647 35.8484 14.5967 35.29C14.0772 34.6448 13.6757 33.8981 13.3945 33.0537C13.1159 32.2082 12.9766 31.3187 12.9766 30.3877C12.9766 29.4494 13.1157 28.5513 13.4004 27.7021C13.684 26.8529 14.0833 26.1144 14.5967 25.4863C15.0648 24.9183 15.585 24.4937 16.168 24.2041C16.7522 23.9182 17.382 23.7754 18.0615 23.7754L18.1484 23.7764ZM66.8711 23.7754C67.4064 23.7754 67.8944 23.9423 68.3369 24.2734C68.3895 24.3125 68.4411 24.3554 68.4912 24.3994C68.8714 24.7281 69.2271 25.1976 69.5596 25.8086V24.1709H73.5996V36.5352H69.7109V34.6699C69.3199 35.4066 68.9128 35.9666 68.4912 36.3467L68.3906 36.4326C67.9323 36.8126 67.4236 36.999 66.8711 36.999C65.8615 36.9989 65.0263 36.3924 64.3613 35.1719C63.6988 33.9523 63.3652 32.3804 63.3652 30.4619C63.3652 28.4494 63.6908 26.8328 64.335 25.6133C64.9828 24.3889 65.8272 23.7755 66.8711 23.7754ZM3.5791 19.0283C4.41634 19.0283 5.16565 19.0778 5.82324 19.1768C6.05794 19.211 6.27974 19.2514 6.49121 19.2979C7.2942 19.4775 7.95078 19.7548 8.45312 20.1299C9.5202 20.9266 10.3344 21.984 10.9053 23.2988C11.4723 24.6124 11.7568 26.1107 11.7568 27.792C11.7568 29.4697 11.4719 30.9606 10.9072 32.2656C10.3425 33.5717 9.52621 34.6286 8.45312 35.4326C7.93367 35.8163 7.271 36.0987 6.47168 36.2734C6.27121 36.3174 6.05672 36.3569 5.82324 36.3887C5.12045 36.4876 4.26121 36.5352 3.25293 36.5352H0V19.0283H3.5791ZM31.2754 23.7754C32.2007 23.7754 32.9336 24.1762 33.4727 24.9717C34.0152 25.7671 34.2841 26.857 34.2842 28.2363V36.5352H30.0654V30.2949C30.0654 29.6778 30.0187 29.2566 29.9307 29.0244C29.8414 28.7925 29.6838 28.6777 29.459 28.6777C29.2158 28.6778 29.028 28.8124 28.8984 29.0859C28.7689 29.356 28.7061 29.7597 28.7061 30.2949V36.5352H24.4775V24.1709H28.5713V25.8818C28.9343 25.1719 29.339 24.64 29.7803 24.293C30.2227 23.9472 30.7217 23.7754 31.2754 23.7754ZM40.3447 36.5352H36.125V24.1719H40.3447V36.5352ZM47.5117 31.8369H50.5127V36.5352H41.3174L44.7783 28.7998H41.8877V24.1709H50.958L47.5117 31.8369ZM57.7832 19.0283C59.0471 19.0283 60.03 19.4493 60.7354 20.29C61.4417 21.1307 61.7939 22.3023 61.7939 23.7988C61.7939 24.7544 61.6274 25.5516 61.2949 26.1846C60.9588 26.8212 60.4881 27.233 59.877 27.4248C60.713 27.6692 61.3351 28.1349 61.7422 28.8203C62.1529 29.5058 62.3564 30.429 62.3564 31.585C62.3564 33.221 61.9685 34.454 61.1924 35.2861C60.4174 36.1182 59.2755 36.5352 57.7695 36.5352H51.8945V19.0283H57.7832ZM82.1797 23.7754C83.105 23.7754 83.8369 24.1762 84.376 24.9717C84.9187 25.7671 85.1865 26.8568 85.1865 28.2363V36.5352H80.9688V30.2949C80.9688 29.6778 80.922 29.2566 80.834 29.0244C80.746 28.7925 80.5868 28.6778 80.3633 28.6777C80.12 28.6777 79.9304 28.8122 79.8008 29.0859C79.6724 29.356 79.6094 29.7597 79.6094 30.2949V36.5352H75.3809V24.1709H79.4746V25.8818C79.8377 25.1719 80.2433 24.64 80.6846 24.293C81.1258 23.9472 81.6247 23.7754 82.1797 23.7754ZM91.1191 28.8945L92.8916 24.1709H97.8311L94.7471 30.1152L98 36.5352H93.0098L91.1191 31.9062V36.5352H86.9434V18H91.1191V28.8945ZM56.0459 32.2041H56.7852C56.8988 32.2041 57.0043 32.1965 57.1045 32.1807C57.3942 32.1342 57.6294 32.0192 57.8066 31.8408C58.0448 31.5952 58.1621 31.253 58.1621 30.8047C58.1621 30.3516 58.0448 30.0046 57.8066 29.7676C57.6294 29.5879 57.3942 29.4778 57.1045 29.4326C57.0043 29.4167 56.8988 29.4082 56.7852 29.4082H56.0459V32.2041ZM68.4912 28.5225C68.1673 28.5225 67.9029 28.6903 67.7061 29.0215C67.5081 29.3514 67.4062 29.784 67.4062 30.3154C67.4063 30.8408 67.508 31.2651 67.7061 31.5889C67.9028 31.9101 68.1673 32.0732 68.4912 32.0732C68.8211 32.0732 69.0847 31.9145 69.2803 31.5957C69.4771 31.278 69.5752 30.8493 69.5752 30.3154C69.5752 29.7754 69.4753 29.3389 69.2773 29.0127C69.0794 28.6865 68.815 28.5225 68.4912 28.5225ZM4.38477 31.1875C4.95063 31.1826 5.42967 31.0934 5.82324 30.915C6.12395 30.7794 6.37374 30.5925 6.57422 30.3555C7.03256 29.813 7.26266 28.9551 7.2627 27.792C7.2627 26.6532 7.04128 25.8036 6.60254 25.2451C6.39473 24.9824 6.13495 24.7807 5.82324 24.6426C5.47374 24.4863 5.05832 24.4082 4.57812 24.4082H4.38477V31.1875ZM18.1484 27.2334C17.8845 27.2371 17.6708 27.3598 17.5107 27.5967C17.3445 27.8411 17.2381 28.1921 17.1953 28.6455L18.1484 28.6514L19.1025 28.6572C19.0854 28.1712 18.9993 27.8122 18.8467 27.5801C18.6927 27.3479 18.4628 27.2324 18.1621 27.2324L18.1484 27.2334ZM56.0459 25.6406H56.625C56.8071 25.6406 56.9664 25.6136 57.1045 25.5586C57.2376 25.5061 57.3525 25.427 57.4453 25.3232C57.631 25.1144 57.7265 24.8088 57.7266 24.4131C57.7266 24.0123 57.6311 23.7097 57.4453 23.502C57.3525 23.3995 57.2376 23.3227 57.1045 23.2715C56.9664 23.219 56.8071 23.1914 56.625 23.1914H56.0459V25.6406ZM40.3486 20.2852V23.083H36.1885V20.2852H40.3486Z" fill="#0F3F76"/>
<path fill-rule="evenodd" clip-rule="evenodd" d="M120.565 30.8779L117.927 28.2386L117.288 27.6014C117.412 27.4008 117.502 27.1794 117.554 26.9421H117.927H122.047C121.958 28.4318 121.416 29.7931 120.565 30.8779ZM117.927 32.9058C117.305 33.1675 116.639 33.3314 115.94 33.3828L115.942 28.5566C116.195 28.5028 116.431 28.4025 116.641 28.2655L117.927 29.5521L119.944 31.5678C119.36 32.134 118.676 32.5902 117.927 32.9058ZM115.943 19.6172C116.64 19.6686 117.307 19.8349 117.927 20.0967C118.663 20.4049 119.336 20.8488 119.913 21.4004L117.927 23.3867L116.602 24.7113C116.401 24.5865 116.179 24.496 115.942 24.4446L115.943 19.6172ZM122.045 26.0138H117.927H117.543C117.486 25.779 117.392 25.5576 117.265 25.3607L117.927 24.6978L120.539 22.0878C121.397 23.1678 121.946 24.5254 122.045 26.0138ZM115.013 24.4544C114.793 24.507 114.585 24.5939 114.398 24.7113L113.024 23.3353L111.067 21.3784C111.637 20.8391 112.298 20.4037 113.024 20.0979C113.646 19.8349 114.316 19.6686 115.014 19.6172L115.013 24.4544ZM115.013 33.3828C114.316 33.3314 113.646 33.1663 113.024 32.9046C112.284 32.5927 111.613 32.1438 111.034 31.5898L113.024 29.6011L114.36 28.2655C114.557 28.3939 114.778 28.4893 115.013 28.5456V33.3828ZM108.91 26.9421H113.024H113.446C113.498 27.1794 113.588 27.4008 113.711 27.6014L113.024 28.2887L110.409 30.9024C109.548 29.8127 109 28.4428 108.91 26.9421ZM110.439 22.0621L113.024 24.6477L113.736 25.3607C113.609 25.5576 113.512 25.779 113.456 26.0138H113.024H108.912C109.013 24.5144 109.569 23.1458 110.439 22.0621ZM128.267 25.5442C127.63 25.5405 127.074 25.7313 126.773 26.0151H125.219C125.111 23.6386 124.231 21.4738 122.834 19.7921L123.752 18.8736C124.174 18.8858 124.733 18.6229 125.207 18.1496C125.883 17.4756 126.128 16.6207 125.752 16.2477C125.379 15.8734 124.527 16.1193 123.851 16.7968C123.398 17.2457 123.141 17.7728 123.129 18.1862L122.209 19.106C121.026 17.9233 119.558 17.0488 117.927 16.6073C117.287 16.4336 116.625 16.326 115.943 16.2917V15.2717C116.249 14.983 116.459 14.4021 116.459 13.7319C116.459 12.7779 116.028 12 115.499 12C114.97 12.0012 114.542 12.7779 114.542 13.7343C114.54 14.3715 114.731 14.9268 115.014 15.2277V16.2917C114.329 16.326 113.663 16.4336 113.024 16.6085C111.404 17.0476 109.948 17.9123 108.77 19.0827L107.875 18.1875C107.859 17.7741 107.599 17.2457 107.151 16.7981C106.475 16.1193 105.62 15.8734 105.247 16.2489C104.874 16.6232 105.118 17.4744 105.797 18.1496C106.269 18.6229 106.828 18.8858 107.249 18.8736L108.144 19.7677C106.735 21.4518 105.845 23.6252 105.738 26.0138H104.23C103.926 25.7325 103.368 25.543 102.734 25.543C101.777 25.5417 100.999 25.9722 101 26.5018C101.001 27.0302 101.777 27.4583 102.733 27.457C103.402 27.4583 103.982 27.2491 104.272 26.9409H105.736C105.833 29.3295 106.713 31.5066 108.114 33.1969L107.187 34.1252C106.773 34.1398 106.245 34.4004 105.797 34.8504C105.118 35.5256 104.872 36.3805 105.248 36.7535C105.622 37.1278 106.473 36.882 107.149 36.2044C107.622 35.7323 107.885 35.1733 107.871 34.7514L108.739 33.8842C109.923 35.0718 111.389 35.95 113.024 36.3939C113.663 36.5676 114.329 36.6753 115.013 36.7095V37.7711C114.731 38.0732 114.542 38.6309 114.542 39.2657C114.541 40.2234 114.972 41.0012 115.5 41C116.03 40.9988 116.459 40.2234 116.458 39.2669C116.458 38.5979 116.249 38.017 115.94 37.7283V36.7095C116.623 36.6753 117.287 36.5688 117.927 36.3964C119.572 35.9488 121.05 35.062 122.238 33.8634L123.129 34.7538C123.116 35.1746 123.379 35.7335 123.853 36.2068C124.525 36.882 125.382 37.1278 125.755 36.7535C126.128 36.3781 125.883 35.5268 125.204 34.8517C124.757 34.3991 124.228 34.1411 123.815 34.1288L122.862 33.1736C124.251 31.4883 125.123 29.321 125.22 26.9434H126.729C127.018 27.2491 127.599 27.4595 128.269 27.4595C129.223 27.4595 130.001 27.029 130 26.4994C129.999 25.971 129.223 25.543 128.267 25.5442Z" fill="#ED1C24"/>
</svg>
