<svg width="340" height="51" viewBox="0 0 340 51" fill="none" xmlns="http://www.w3.org/2000/svg">
<rect x="217" width="1" height="51" fill="#C5C8C9"/>
<path fill-rule="evenodd" clip-rule="evenodd" d="M192.294 18.7944H199.012L190.375 29.488L199.937 41.4156H193.219L183.657 29.488L192.294 18.7944ZM177.693 41.4499H183.074V9.09473H177.693V41.4499ZM174.06 23.9355C173.82 23.7984 173.375 23.7984 172.689 23.7984C168.679 23.7984 166.28 26.8829 166.28 31.5102V41.5183H160.899V18.7944H166.211V22.6331C167.377 20.0284 170.05 18.3146 173.066 18.3146C173.683 18.3146 173.992 18.3829 174.06 18.4516V23.9355ZM148.628 18.7944H154.112V41.4499H148.628V38.4338C147.155 40.593 144.858 41.9637 141.602 41.9637C136.118 41.9637 132.828 38.3308 132.828 32.4015V18.76H138.312V31.4072C138.312 34.9375 140.094 37.0284 143.316 37.0284C146.538 37.0284 148.628 34.5607 148.628 30.722V18.7944ZM108.699 9.09473H132.588V14.2701H123.505V41.484H117.816V14.2701H108.733V9.09473H108.699ZM102.529 18.2459C104.825 18.2459 106.848 18.7944 108.699 19.8567V25.1695C106.848 23.8668 104.997 23.1816 103.009 23.1816C98.9302 23.1816 95.8457 26.2661 95.8457 30.2075C95.8457 34.1493 98.8619 37.2341 103.009 37.2341C105.237 37.2341 107.156 36.3085 108.801 35.2462V40.5587C106.882 41.621 104.791 42.1695 102.495 42.1695C95.3316 42.1695 90.3959 37.1654 90.3959 30.3106C90.3619 23.3186 95.3659 18.2459 102.529 18.2459ZM84.8093 37.1311C85.7346 37.1311 86.6602 36.9941 87.3457 36.4456V41.2099C86.4201 41.7584 85.1177 42.0668 83.1982 42.0668C78.5713 42.0668 75.7952 39.2907 75.7952 34.5264V23.353H71.7164V22.5988L81.039 12.9678H81.176V18.8287H87.277V23.3873H81.279V33.5668C81.279 36.0345 82.3413 37.1311 84.8093 37.1311ZM58.0063 36.6513C61.6396 36.6513 64.0046 34.9718 64.0046 31.7843C64.0046 28.7681 61.5366 27.0203 57.9036 27.0203H51.7342V36.6513H58.0063ZM57.0127 22.4961C60.0972 22.4961 62.2568 20.9536 62.2568 18.1772C62.2568 15.4011 60.0972 13.8587 57.0127 13.8587H51.7686V22.4961H57.0127ZM46.2848 9.09473H57.3895C63.4905 9.09473 67.7063 12.4193 67.7063 17.7318C67.7063 20.6452 66.3353 22.9759 63.7649 24.2095C67.5349 25.4435 69.6255 28.22 69.6255 32.1614C69.6255 37.9536 65.1699 41.484 58.1437 41.484H46.2161L46.2848 9.09473Z" fill="#0B0B0B"/>
<path fill-rule="evenodd" clip-rule="evenodd" d="M30.5087 41.9531C31.1484 41.9531 31.6196 42.0876 31.8553 42.458C32.6634 43.6028 30.9125 46.1947 27.9833 48.2822C25.054 50.3697 22.0237 51.1448 21.2157 50C20.4077 48.8552 22.1586 46.2623 25.0878 44.1748C27.1078 42.7271 29.1619 41.9196 30.5087 41.9531ZM17.3104 37.7773C19.0948 37.7774 20.3404 38.2155 20.7108 39.0908C21.5189 41.0773 17.5795 44.5786 11.8895 46.9355C6.19985 49.2586 0.914143 49.5621 0.105332 47.5762C-0.702741 45.5896 3.23644 42.0874 8.92662 39.7305C12.0578 38.4174 15.0883 37.7437 17.3104 37.7773ZM37.7147 34.4443C37.782 34.4443 37.8495 34.4449 37.9169 34.4785C38.5225 34.7819 38.2197 36.5997 37.2098 38.5186C36.1997 40.4377 34.8862 41.7508 34.2801 41.4141C33.6744 41.1107 33.9773 39.2929 34.9872 37.374C35.8962 35.6569 37.0413 34.4107 37.7147 34.4443ZM29.5321 31.2461C30.4412 31.2461 31.1822 31.5487 31.5526 32.1885C32.2259 33.4006 31.2154 35.2864 29.2626 36.3975C27.31 37.5082 25.1895 37.4744 24.4823 36.2627C23.8089 35.0506 24.8186 33.1648 26.7713 32.0537C27.714 31.5151 28.6904 31.2462 29.5321 31.2461ZM35.661 28.249C35.8292 28.249 35.9639 28.2824 36.0985 28.3496C36.7382 28.72 36.7724 29.798 36.2001 30.7744C35.6613 31.7508 34.684 32.2893 34.078 31.9189C33.4387 31.5484 33.4053 30.4713 33.9774 29.4951C34.4488 28.7544 35.1223 28.249 35.661 28.249ZM17.2762 20.5391C20.9462 20.5391 23.909 22.6599 23.909 25.2861C23.909 27.9459 20.9465 30.0667 17.3104 30.0332C13.6405 30.0332 10.6777 27.9124 10.6776 25.2861C10.6776 22.6599 13.64 20.5391 17.2762 20.5391ZM29.1288 23.165C30.4756 23.165 31.5536 24.1077 31.5536 25.2861C31.5533 26.4644 30.4417 27.4072 29.1288 27.4072C27.8159 27.4071 26.7384 26.4643 26.7381 25.2861C26.7381 24.1414 27.8157 23.1651 29.1288 23.165ZM34.5829 18.4854C35.1552 18.4854 35.8288 18.9563 36.2665 19.7305C36.8052 20.7069 36.7719 21.7849 36.1659 22.1553C35.5599 22.4919 34.6172 21.9869 34.0448 21.0107C33.5061 20.0344 33.5395 18.9564 34.1454 18.5859C34.2799 18.5187 34.4147 18.4519 34.5829 18.4854ZM26.6024 13.2998C27.4441 13.2998 28.4214 13.5687 29.3641 14.1074C31.3168 15.2186 32.3602 17.1043 31.6532 18.3164C30.946 19.5283 28.8246 19.5622 26.8719 18.4512C24.9191 17.3401 23.8758 15.4543 24.5829 14.2422C24.9195 13.6026 25.6935 13.2999 26.6024 13.2998ZM34.4823 9.05762C35.1557 9.05762 36.3007 10.2692 37.2098 11.9863C38.2197 13.9052 38.5225 15.6892 37.9169 16.0264C37.3108 16.3294 35.9973 15.05 34.9872 13.1309C33.9773 11.212 33.6744 9.42775 34.2801 9.09082C34.3474 9.05717 34.415 9.05762 34.4823 9.05762ZM3.50572 1.61621C5.72791 1.61624 8.72462 2.2899 11.8895 3.56934C17.5794 5.92617 21.5186 9.42753 20.7108 11.4141C19.8691 13.4006 14.6168 13.1313 8.92662 10.7744C3.23653 8.41755 -0.702579 4.91623 0.105332 2.92969C0.475699 2.05427 1.72123 1.61621 3.50572 1.61621ZM22.5292 0C23.876 7.89182e-05 25.93 0.808585 27.9501 2.22266C30.8788 4.30995 32.6296 6.90198 31.8221 8.04688C31.0141 9.19162 27.9837 8.41746 25.0546 6.33008C22.1253 4.24254 20.3744 1.64966 21.1825 0.504883C21.4182 0.168353 21.8896 0 22.5292 0Z" fill="#005FAE"/>
</svg>
