<svg width="147" height="89" viewBox="0 0 147 89" fill="none" xmlns="http://www.w3.org/2000/svg">
<path fill-rule="evenodd" clip-rule="evenodd" d="M101.72 26.2758L101.769 25.9886L101.545 25.8013C100.483 24.9272 99.6341 23.8033 98.9848 22.6045C97.5612 19.9571 96.9743 16.7603 97.0991 13.7757C97.2365 10.3791 98.2855 7.05739 100.246 4.27265C100.833 3.43598 101.507 2.64926 102.244 1.92498L103.68 0.526367L101.757 1.1008C99.4593 1.78762 97.2615 2.8116 95.3009 4.19773C92.4662 6.19574 90.2559 8.88058 88.8698 12.0649C87.4462 15.3367 87.0091 18.9706 87.4087 22.5171C87.9332 27.2249 89.8563 31.6705 92.4787 35.5791L92.716 35.9163L93.0906 35.7539C93.4403 35.5916 93.7899 35.4292 94.1396 35.2419C96.6121 33.9432 98.9223 31.9951 100.396 29.5975C101.02 28.586 101.507 27.4497 101.72 26.2758Z" fill="url(#paint0_linear_12_83779)"/>
<path fill-rule="evenodd" clip-rule="evenodd" d="M91.2545 35.7788C88.6696 31.8202 86.7964 27.3497 86.2719 22.6293C85.8599 18.8956 86.3219 15.0619 87.8204 11.6028C89.2815 8.23113 91.6291 5.38396 94.6262 3.26106C95.7875 2.43688 97.0363 1.73757 98.335 1.15066L98.7346 0.97583L98.4848 0.13916L98.0603 0.214086C96.0622 0.551251 94.1017 1.12568 92.2285 1.92489C85.8973 4.62221 80.9397 9.66721 78.3673 16.0609C76.2943 21.2058 75.9197 26.8377 77.3183 32.2073C78.3548 36.1909 81.2769 36.8153 84.9358 37.14C86.9713 37.3273 89.0067 37.1025 90.9548 36.5156L91.5917 36.3283L91.2545 35.7788Z" fill="url(#paint1_linear_12_83779)"/>
<path fill-rule="evenodd" clip-rule="evenodd" d="M124.01 37.602C124.609 35.2418 124.859 32.7943 124.659 30.3717C124.372 26.9126 123.198 23.6409 121.15 20.8436C119.039 17.934 116.167 15.7487 112.896 14.2752C108.5 12.2896 103.58 11.7027 98.8095 12.0149L98.3974 12.0399L98.3475 12.452C98.2975 12.914 98.26 13.376 98.2351 13.8381C98.1227 16.6228 98.6597 19.6074 99.9958 22.0674C100.558 23.1164 101.295 24.1029 102.219 24.8771L102.443 25.0644L102.718 24.9645C104.004 24.4775 105.403 24.3152 106.764 24.3527C109.761 24.4401 112.833 25.5265 115.343 27.1249C118.215 28.9481 120.575 31.5081 122.011 34.605C122.461 35.5665 122.811 36.578 123.06 37.602L123.535 39.5126L124.01 37.602Z" fill="url(#paint2_linear_12_83779)"/>
<path fill-rule="evenodd" clip-rule="evenodd" d="M126.707 34.4302C128.917 28.2863 128.705 21.5804 126.157 15.5864C123.46 9.25514 118.415 4.29756 112.021 1.72511C106.602 -0.460219 104.579 0.064261 101.17 4.92194C100.046 6.53284 99.2341 8.33106 98.7471 10.2292L98.5847 10.8785L99.259 10.8411C104.054 10.5913 108.962 11.2407 113.358 13.2262C116.804 14.7747 119.826 17.0974 122.061 20.1693C124.222 23.1414 125.483 26.6129 125.783 30.2718C125.895 31.583 125.883 32.9067 125.745 34.2179L125.708 34.6549L126.557 34.8423L126.707 34.4302Z" fill="url(#paint3_linear_12_83779)"/>
<path fill-rule="evenodd" clip-rule="evenodd" d="M115.693 28.7357C115.381 28.511 115.056 28.2862 114.731 28.0864C112.371 26.5879 109.524 25.5639 106.714 25.489C105.528 25.4515 104.304 25.6013 103.18 26.0009L102.905 26.1008L102.855 26.3881C102.631 27.7367 102.081 29.0354 101.369 30.1968C99.796 32.7567 97.311 34.8672 94.6636 36.2533C91.6541 37.8267 88.245 38.5885 84.8608 38.2888C83.8369 38.2013 82.8254 38.014 81.8264 37.7268L79.8908 37.1774L81.3518 38.5635C83.1001 40.2119 85.0731 41.6105 87.2585 42.6095C90.4053 44.058 93.8394 44.645 97.286 44.2453C100.857 43.8333 104.179 42.4097 107.064 40.2868C110.885 37.4771 113.77 33.5934 115.843 29.3601L116.03 28.9855L115.693 28.7357Z" fill="url(#paint4_linear_12_83779)"/>
<path fill-rule="evenodd" clip-rule="evenodd" d="M120.963 35.0796C120.101 33.2315 118.89 31.5706 117.416 30.172L116.929 29.71L116.63 30.2969C114.507 34.5177 111.56 38.3639 107.738 41.1736C104.692 43.4089 101.182 44.9074 97.4237 45.3445C93.7648 45.769 90.1434 45.1571 86.7968 43.6212C85.498 43.0218 84.2618 42.2975 83.1004 41.4608L82.7508 41.2111L82.1514 41.8479L82.4261 42.1851C85.1734 45.5193 88.6949 48.0917 92.7034 49.7026C99.0846 52.2751 106.165 52.2001 112.496 49.5028C115.244 48.329 117.779 46.6931 119.964 44.6576C123.41 41.4733 122.786 39.0007 120.963 35.0796Z" fill="url(#paint5_linear_12_83779)"/>
<ellipse cx="88.0977" cy="22.1687" rx="9.71534" ry="7.89215" transform="rotate(-65.6442 88.0977 22.1687)" fill="white"/>
<path d="M69.0011 31.9201C65.6544 45.8063 51.6933 54.3478 37.8071 51.0011C23.9208 47.6544 15.3793 33.6933 18.726 19.8071C22.0727 5.92084 36.0338 -2.62068 49.9201 0.725998C63.7938 4.07268 72.3353 18.0338 69.0011 31.9201Z" fill="url(#paint6_radial_12_83779)"/>
<path d="M25.4443 8.05615C25.4443 8.05615 28.0542 14.1751 29.9524 15.1991L33.0618 14.5372C33.0618 14.5372 30.1896 10.7285 29.9773 9.60462C29.9773 9.59213 26.9928 8.206 25.4443 8.05615Z" fill="url(#paint7_linear_12_83779)"/>
<path d="M49.1583 3.86035C49.1583 3.86035 51.481 11.0282 51.1439 13.3884L55.0899 15.1991C55.0899 15.1991 52.4675 6.24549 50.7318 4.0102L49.1583 3.86035Z" fill="url(#paint8_linear_12_83779)"/>
<path d="M54.1409 12.0897C54.1409 12.0897 61.1589 7.71906 61.9207 7.84393L60.7343 12.7391L57.9621 14.5123L55.0774 15.1742L54.1409 12.0897Z" fill="url(#paint9_linear_12_83779)"/>
<path d="M64.7675 18.0217C64.7675 18.0217 67.4898 17.4223 68.5262 18.0717C68.5262 18.0717 68.8759 19.1456 69.0008 19.7325C69.0008 19.7325 58.8983 27.3375 55.3018 28.349L64.7675 18.0217Z" fill="url(#paint10_linear_12_83779)"/>
<path d="M61.9331 7.85645C61.9331 7.85645 58.4616 15.8985 51.7557 21.0559L55.2897 28.3361C55.2897 28.3361 61.5835 24.2152 64.9926 17.5843C66.6285 14.1127 65.6295 11.6402 61.9331 7.85645Z" fill="url(#paint11_linear_12_83779)"/>
<path d="M25.4443 8.05655C25.4443 8.05655 30.1397 3.12394 32.862 2.64941C32.862 2.64941 40.929 5.27181 46.5734 14.5626L39.1682 18.3588C39.1682 18.3588 35.4844 11.8528 28.6537 9.08053C27.6546 8.66844 26.5932 8.26884 25.4443 8.05655Z" fill="url(#paint12_linear_12_83779)"/>
<path d="M36.2091 4.24768L35.4474 2.19971L38.9689 2.44946C38.9689 2.44946 43.352 8.24371 46.5988 14.5749C46.5863 14.5624 41.4664 7.20724 36.2091 4.24768Z" fill="url(#paint13_linear_12_83779)"/>
<path d="M35.4344 2.18699L38.4314 1.27539C38.4314 1.27539 49.458 1.72494 50.7317 3.99769L49.1583 3.86033C49.1583 3.86033 38.5313 2.33684 35.4344 2.18699Z" fill="url(#paint14_linear_12_83779)"/>
<path d="M41.0411 37.5896C41.0411 37.5896 45.4492 48.1666 51.0562 50.0897C51.0562 50.0897 54.3154 49.0532 56.6506 47.6046C59.8475 45.6191 61.3834 43.8583 61.3834 43.8583C61.3834 43.8583 51.8054 39.5127 48.7085 33.6685L41.0411 37.5896Z" fill="url(#paint15_linear_12_83779)"/>
<path d="M56.0512 40.8364C56.0512 40.8364 53.766 37.9518 55.0272 36.6406L57.4873 36.2285C57.4873 36.2285 59.0982 38.8634 60.0472 40.4119C60.9963 41.9603 61.5707 43.2466 61.3834 43.8335C61.3834 43.8335 60.3469 43.3465 59.1232 42.6721C58.0242 42.0977 56.7755 41.3484 56.0512 40.8364Z" fill="url(#paint16_linear_12_83779)"/>
<path d="M28.8534 38.3514C28.8534 38.3514 31.3635 36.8903 33.299 37.0776L33.7111 39.8998C33.7111 39.8998 28.791 43.8459 26.4933 43.5837C26.5058 43.5837 26.818 39.8249 28.8534 38.3514Z" fill="url(#paint17_linear_12_83779)"/>
<path d="M33.299 37.0776C33.299 37.0776 33.4614 44.4204 37.3575 47.2925L38.6313 47.5922C38.6313 47.5922 35.7466 40.4992 36.8955 38.5012L33.299 37.0776Z" fill="url(#paint18_linear_12_83779)"/>
<path d="M65.6544 31.3955C65.6544 31.3955 61.2588 33.2312 55.8267 33.1687C55.8267 33.1687 54.3032 37.1273 54.6653 37.989C54.6653 37.989 59.2358 35.916 59.4606 35.916C59.6854 35.916 64.056 33.7432 65.7294 32.4445" fill="url(#paint19_linear_12_83779)"/>
<path d="M21.4858 19.6821C19.0007 25.876 20.1746 31.4579 20.1746 31.4579L21.3484 31.7452L21.3734 30.3715C19.8749 26.2256 22.1101 20.6187 22.1101 20.6187L21.6481 19.7196L21.4858 19.6821Z" fill="url(#paint20_linear_12_83779)"/>
<path d="M32.625 23.4414C32.625 23.4414 30.2149 23.9034 24.1085 28.1992C22.2853 29.4854 20.1749 31.4585 20.1749 31.4585L21.6984 33.956C21.6984 33.956 22.585 34.7552 26.8183 32.1952C31.0766 29.6353 32.625 23.4414 32.625 23.4414Z" fill="url(#paint21_linear_12_83779)"/>
<path d="M21.6485 37.4525C21.6485 37.4525 27.9173 24.1157 32.6127 23.4414L35.8969 30.8091C35.8969 30.8091 27.1056 38.1643 26.4937 43.5964C26.5062 43.5839 22.4977 39.5754 21.6485 37.4525Z" fill="url(#paint22_linear_12_83779)"/>
<path d="M33.0615 14.5371L31.6379 18.7954C28.1788 18.5207 22.1098 20.6186 22.1098 20.6186L21.4854 19.6695C21.4854 19.6695 27.492 15.7234 29.952 15.199C32.4121 14.6745 33.0615 14.5371 33.0615 14.5371Z" fill="url(#paint23_linear_12_83779)"/>
<path d="M25.4441 8.05664C25.4441 8.05664 20.3616 12.1651 22.984 18.7211L22.0724 19.283C22.0724 19.283 20.0994 15.8739 21.5479 13.1641C23.0215 10.4792 25.4441 8.05664 25.4441 8.05664Z" fill="url(#paint24_linear_12_83779)"/>
<path d="M66.8153 21.3057C66.8153 21.3057 67.8393 27.6869 65.629 31.4207C65.629 31.4207 66.2659 37.0901 65.654 39.7874C65.654 39.7874 66.8653 38.0141 67.652 35.9911C67.652 35.9911 67.14 33.1689 66.2784 31.9077C66.2784 31.9077 67.5021 29.8597 68.0141 26.9126C68.4137 24.565 68.3638 21.543 68.0891 20.3691L66.8153 21.3057Z" fill="url(#paint25_linear_12_83779)"/>
<path d="M51.2188 4.77229C51.2188 4.77229 55.552 3.26129 58.2868 4.39766C58.2868 4.39766 56.9256 3.38616 55.5395 2.6494C55.5395 2.6494 54.3532 2.54949 50.7318 4.01054L51.2188 4.77229Z" fill="url(#paint26_linear_12_83779)"/>
<path d="M55.5267 2.64921C55.5267 2.64921 48.7834 -0.9722 40.2044 0.264073C40.092 0.264073 48.0466 0.201635 54.3903 2.79906L55.5267 2.64921Z" fill="url(#paint27_linear_12_83779)"/>
<path fill-rule="evenodd" clip-rule="evenodd" d="M91.1051 24.5974C91.2221 24.5548 91.3178 24.5483 91.386 24.6012C91.6115 24.7602 91.4663 25.3596 91.0711 25.9431C90.6761 26.5262 90.1741 26.8718 89.9485 26.7134C89.723 26.5544 89.8673 25.9552 90.2625 25.3718C90.5344 24.968 90.8562 24.6811 91.1051 24.5974ZM88.4054 24.7008C88.7322 24.5819 88.9902 24.58 89.1173 24.7182C89.3996 25.0338 88.915 25.9479 88.0324 26.7654C87.1475 27.5767 86.1996 27.9849 85.9171 27.6694C85.6352 27.3535 86.12 26.4404 87.0024 25.623C87.487 25.1701 87.9961 24.8427 88.4054 24.7008ZM91.9563 22.7132C92.0877 22.7293 92.1555 23.0877 92.1005 23.5118C92.0454 23.9359 91.8935 24.2679 91.7597 24.2459C91.6282 24.2299 91.5605 23.8714 91.6155 23.4472C91.6658 23.0677 91.7909 22.7597 91.9163 22.7204C91.9287 22.7159 91.9417 22.7114 91.9563 22.7132ZM90.2014 22.6712C90.3679 22.6106 90.5248 22.6173 90.6359 22.7116C90.8411 22.8921 90.7837 23.3102 90.5014 23.647C90.219 23.9838 89.8276 24.1194 89.616 23.9412C89.4107 23.7607 89.4682 23.3425 89.7505 23.0057C89.8866 22.8428 90.0473 22.7274 90.2014 22.6712ZM91.1218 21.7054C91.1525 21.6943 91.1793 21.6912 91.2084 21.6947C91.3505 21.7209 91.4293 21.9189 91.3907 22.1386C91.3581 22.3561 91.2161 22.5212 91.08 22.4927C90.9378 22.4664 90.8589 22.2685 90.8977 22.0488C90.9339 21.8798 91.0232 21.7413 91.1218 21.7054ZM87.232 21.4968C87.9039 21.2523 88.5902 21.4493 88.7683 21.9374C88.9483 22.4321 88.5496 23.0249 87.8813 23.261C87.2092 23.5057 86.5225 23.3079 86.3447 22.8195C86.1674 22.3313 86.5663 21.7393 87.232 21.4968ZM89.5808 21.1948C89.8274 21.1051 90.0887 21.2088 90.1686 21.4277C90.2484 21.6469 90.1086 21.8964 89.8681 21.984C89.6276 22.0715 89.3665 21.9679 89.2867 21.7487C89.2095 21.5359 89.3405 21.2823 89.5808 21.1948ZM90.2636 19.9611C90.3684 19.9232 90.524 19.9664 90.6564 20.0811C90.8209 20.2267 90.887 20.4295 90.8011 20.5386C90.7128 20.6413 90.5062 20.6103 90.3355 20.467C90.1708 20.3215 90.1042 20.1191 90.1898 20.0098C90.2099 19.9883 90.2304 19.9661 90.2636 19.9611ZM88.451 19.5296C88.6051 19.4736 88.802 19.4579 89.0111 19.4952C89.4439 19.5716 89.7626 19.8528 89.7154 20.1253C89.6679 20.3978 89.2818 20.5451 88.8489 20.4687C88.4161 20.3923 88.0977 20.112 88.145 19.8395C88.1633 19.6981 88.2845 19.5902 88.451 19.5296ZM89.606 18.2145C89.7293 18.1696 90.0218 18.3188 90.3045 18.5775C90.6193 18.867 90.7956 19.1789 90.7075 19.282C90.617 19.3788 90.2895 19.2283 89.9746 18.9387C89.6597 18.6491 89.4834 18.3373 89.5716 18.2342C89.5816 18.2236 89.5938 18.2189 89.606 18.2145ZM83.4293 18.8954C83.8363 18.7474 84.4307 18.6731 85.0968 18.7C86.2984 18.759 87.2572 19.1477 87.2439 19.571C87.2242 19.9965 86.2438 20.2962 85.0421 20.2372C83.8407 20.1783 82.8824 19.7904 82.8954 19.3672C82.904 19.1797 83.1024 19.0144 83.4293 18.8954ZM86.8045 17.3271C87.0512 17.2375 87.4821 17.2504 87.9477 17.3787C88.6255 17.5716 89.1211 17.9379 89.0506 18.2046C88.9795 18.471 88.3728 18.5289 87.6955 18.3362C87.0177 18.1432 86.5212 17.7774 86.5917 17.5106C86.6122 17.4324 86.6875 17.3697 86.8045 17.3271Z" fill="url(#paint28_linear_12_83779)"/>
<path d="M17.8502 61.0859L21.4362 65.3906L25.0221 61.0859H26.9049V72H24.7955V64.3359H24.733L21.5768 68.1797H21.2799L18.1237 64.3359H18.0612V72H15.9518V61.0859H17.8502ZM29.821 61.3281C30.1179 61.3281 30.3731 61.4349 30.5866 61.6484C30.8002 61.862 30.9069 62.1172 30.9069 62.4141C30.9069 62.7005 30.8002 62.9557 30.5866 63.1797C30.3783 63.3984 30.1231 63.5078 29.821 63.5078C29.5293 63.5078 29.2741 63.3984 29.0554 63.1797C28.8418 62.9557 28.735 62.7005 28.735 62.4141C28.735 62.112 28.8444 61.8568 29.0632 61.6484C29.2819 61.4349 29.5345 61.3281 29.821 61.3281ZM30.7819 64.7031V72H28.86V64.7031H30.7819ZM34.8464 61.0859V70.3516H40.1433V72H32.7371V61.0859H34.8464ZM43.4344 61.0859V70.3516H48.7313V72H41.325V61.0859H43.4344ZM50.6942 61.3281C50.9911 61.3281 51.2463 61.4349 51.4598 61.6484C51.6734 61.862 51.7801 62.1172 51.7801 62.4141C51.7801 62.7005 51.6734 62.9557 51.4598 63.1797C51.2515 63.3984 50.9963 63.5078 50.6942 63.5078C50.4025 63.5078 50.1473 63.3984 49.9286 63.1797C49.715 62.9557 49.6083 62.7005 49.6083 62.4141C49.6083 62.112 49.7176 61.8568 49.9364 61.6484C50.1551 61.4349 50.4077 61.3281 50.6942 61.3281ZM51.6551 64.7031V72H49.7333V64.7031H51.6551ZM65.7217 61.0859V62.7344H61.8467V72H59.7373V62.7344H55.8623V61.0859H65.7217ZM71.3018 61.0859L76.1221 72H73.8955L72.7627 69.3438H67.9112L66.8565 72H64.6455L69.1455 61.0859H71.3018ZM68.5518 67.7422H72.0752L70.2315 63.4219L68.5518 67.7422ZM79.2491 61.0859V66.125H79.296L83.296 61.0859H85.6944L81.6319 66.2266L86.8975 72H84.1944L79.2491 66.6406V72H77.1397V61.0859H79.2491ZM89.9152 61.0859V72H87.8058V61.0859H89.9152ZM93.9953 61.0859L97.5813 65.3906L101.167 61.0859H103.05V72H100.941V64.3359H100.878L97.7219 68.1797H97.425L94.2688 64.3359H94.2063V72H92.0969V61.0859H93.9953ZM107.294 61.0859V70.3516H112.591V72H105.185V61.0859H107.294ZM119.304 61.0859L124.124 72H121.898L120.765 69.3438H115.913L114.859 72H112.648L117.148 61.0859H119.304ZM116.554 67.7422H120.077L118.234 63.4219L116.554 67.7422ZM129.072 61.0859C130.098 61.0859 130.934 61.3698 131.579 61.9375C132.225 62.5052 132.548 63.2448 132.548 64.1562C132.548 64.776 132.387 65.3177 132.064 65.7812C131.746 66.2396 131.272 66.6016 130.642 66.8672C130.991 67.0547 131.301 67.3099 131.572 67.6328C131.842 67.9557 132.178 68.5 132.579 69.2656C133.246 70.5885 133.741 71.5 134.064 72H131.712C131.551 71.7604 131.332 71.3776 131.056 70.8516C130.452 69.6901 130.009 68.9089 129.728 68.5078C129.447 68.1016 129.176 67.8151 128.915 67.6484C128.655 67.4766 128.356 67.3906 128.017 67.3906H127.251V72H125.142V61.0859H129.072ZM128.595 65.7422C129.147 65.7422 129.579 65.6042 129.892 65.3281C130.21 65.0521 130.369 64.6745 130.369 64.1953C130.369 63.6953 130.212 63.3229 129.9 63.0781C129.587 62.8281 129.142 62.7031 128.564 62.7031H127.251V65.7422H128.595ZM18.1491 77.0859L22.9694 88H20.7429L19.61 85.3438H14.7585L13.7038 88H11.4929L15.9929 77.0859H18.1491ZM15.3991 83.7422H18.9225L17.0788 79.4219L15.3991 83.7422ZM25.8386 77.0859L32.323 84.7031V77.0859H34.3855V88H32.573L26.0496 80.2578V88H23.9871V77.0859H25.8386ZM42.0438 77.0859L46.8641 88H44.6375L43.5047 85.3438H38.6531L37.5984 88H35.3875L39.8875 77.0859H42.0438ZM39.2938 83.7422H42.8172L40.9734 79.4219L39.2938 83.7422ZM55.2275 76.9453C56.29 76.9453 57.3134 77.2109 58.2978 77.7422V79.6172C57.1676 78.9349 56.165 78.5938 55.29 78.5938C54.7587 78.5938 54.342 78.6979 54.04 78.9062C53.7431 79.1094 53.5946 79.3828 53.5946 79.7266C53.5946 80.138 53.8733 80.5182 54.4306 80.8672C54.5868 80.9714 55.1884 81.263 56.2353 81.7422C57.1311 82.1641 57.7769 82.6328 58.1728 83.1484C58.5686 83.6641 58.7665 84.2839 58.7665 85.0078C58.7665 85.9453 58.428 86.7031 57.7509 87.2812C57.079 87.8542 56.2066 88.1406 55.1337 88.1406C54.4358 88.1406 53.8342 88.0651 53.329 87.9141C52.829 87.7578 52.2665 87.4922 51.6415 87.1172V85.0391C52.8082 86.0078 53.9071 86.4922 54.9384 86.4922C55.454 86.4922 55.8707 86.3802 56.1884 86.1562C56.5061 85.9323 56.665 85.6354 56.665 85.2656C56.665 84.7604 56.3889 84.349 55.8368 84.0312C55.3785 83.7812 54.7874 83.4818 54.0634 83.1328C53.204 82.7422 52.5608 82.2865 52.1337 81.7656C51.7118 81.2448 51.5009 80.6406 51.5009 79.9531C51.5009 79.0365 51.842 78.3073 52.5243 77.7656C53.2066 77.2188 54.1077 76.9453 55.2275 76.9453ZM64.5576 77.0859C65.5784 77.0859 66.4065 77.3828 67.042 77.9766C67.6826 78.5651 68.0029 79.3255 68.0029 80.2578C68.0029 81.2005 67.68 81.9635 67.0342 82.5469C66.3883 83.1302 65.5368 83.4219 64.4795 83.4219H62.4482V88H60.3388V77.0859H64.5576ZM64.0342 81.7734C64.5967 81.7734 65.0342 81.6458 65.3467 81.3906C65.6644 81.1302 65.8232 80.7474 65.8232 80.2422C65.8232 79.237 65.1774 78.7344 63.8857 78.7344H62.4482V81.7734H64.0342ZM75.0049 76.9453C76.1351 76.9453 77.1507 77.1797 78.0518 77.6484C78.958 78.112 79.6794 78.7839 80.2158 79.6641C80.7523 80.5391 81.0205 81.5 81.0205 82.5469C81.0205 83.5677 80.7575 84.5156 80.2315 85.3906C79.7106 86.2604 78.9919 86.9375 78.0752 87.4219C77.1638 87.901 76.1351 88.1406 74.9893 88.1406C73.8591 88.1406 72.8304 87.8958 71.9033 87.4062C70.9815 86.9167 70.2627 86.2448 69.7471 85.3906C69.2315 84.5312 68.9737 83.5833 68.9737 82.5469C68.9737 81.5469 69.2315 80.6068 69.7471 79.7266C70.2627 78.8464 70.9737 78.1641 71.8799 77.6797C72.7862 77.1901 73.8278 76.9453 75.0049 76.9453ZM71.1533 82.5469C71.1533 83.2708 71.3174 83.9219 71.6455 84.5C71.9737 85.0781 72.4294 85.526 73.0127 85.8438C73.6013 86.1615 74.2653 86.3203 75.0049 86.3203C76.1247 86.3203 77.044 85.9688 77.7627 85.2656C78.4867 84.5625 78.8487 83.6562 78.8487 82.5469C78.8487 81.8229 78.6846 81.1719 78.3565 80.5938C78.0336 80.0104 77.5752 79.5599 76.9815 79.2422C76.3929 78.9245 75.7289 78.7656 74.9893 78.7656C74.2497 78.7656 73.583 78.9271 72.9893 79.25C72.4007 79.5677 71.9476 80.0156 71.6299 80.5938C71.3122 81.1667 71.1533 81.8177 71.1533 82.5469ZM84.585 77.0859L91.0694 84.7031V77.0859H93.1319V88H91.3194L84.796 80.2578V88H82.7335V77.0859H84.585ZM98.423 76.9453C99.4855 76.9453 100.509 77.2109 101.493 77.7422V79.6172C100.363 78.9349 99.3605 78.5938 98.4855 78.5938C97.9542 78.5938 97.5376 78.6979 97.2355 78.9062C96.9386 79.1094 96.7902 79.3828 96.7902 79.7266C96.7902 80.138 97.0688 80.5182 97.6261 80.8672C97.7824 80.9714 98.3839 81.263 99.4308 81.7422C100.327 82.1641 100.972 82.6328 101.368 83.1484C101.764 83.6641 101.962 84.2839 101.962 85.0078C101.962 85.9453 101.624 86.7031 100.946 87.2812C100.275 87.8542 99.4022 88.1406 98.3292 88.1406C97.6313 88.1406 97.0298 88.0651 96.5246 87.9141C96.0246 87.7578 95.4621 87.4922 94.8371 87.1172V85.0391C96.0037 86.0078 97.1027 86.4922 98.1339 86.4922C98.6496 86.4922 99.0662 86.3802 99.3839 86.1562C99.7016 85.9323 99.8605 85.6354 99.8605 85.2656C99.8605 84.7604 99.5844 84.349 99.0324 84.0312C98.574 83.7812 97.9829 83.4818 97.2589 83.1328C96.3996 82.7422 95.7563 82.2865 95.3292 81.7656C94.9074 81.2448 94.6964 80.6406 94.6964 79.9531C94.6964 79.0365 95.0376 78.3073 95.7199 77.7656C96.4022 77.2188 97.3032 76.9453 98.423 76.9453ZM109.128 76.9453C110.258 76.9453 111.274 77.1797 112.175 77.6484C113.081 78.112 113.803 78.7839 114.339 79.6641C114.876 80.5391 115.144 81.5 115.144 82.5469C115.144 83.5677 114.881 84.5156 114.355 85.3906C113.834 86.2604 113.115 86.9375 112.198 87.4219C111.287 87.901 110.258 88.1406 109.112 88.1406C107.982 88.1406 106.954 87.8958 106.027 87.4062C105.105 86.9167 104.386 86.2448 103.87 85.3906C103.355 84.5312 103.097 83.5833 103.097 82.5469C103.097 81.5469 103.355 80.6068 103.87 79.7266C104.386 78.8464 105.097 78.1641 106.003 77.6797C106.909 77.1901 107.951 76.9453 109.128 76.9453ZM105.277 82.5469C105.277 83.2708 105.441 83.9219 105.769 84.5C106.097 85.0781 106.553 85.526 107.136 85.8438C107.724 86.1615 108.389 86.3203 109.128 86.3203C110.248 86.3203 111.167 85.9688 111.886 85.2656C112.61 84.5625 112.972 83.6562 112.972 82.5469C112.972 81.8229 112.808 81.1719 112.48 80.5938C112.157 80.0104 111.698 79.5599 111.105 79.2422C110.516 78.9245 109.852 78.7656 109.112 78.7656C108.373 78.7656 107.706 78.9271 107.112 79.25C106.524 79.5677 106.071 80.0156 105.753 80.5938C105.435 81.1667 105.277 81.8177 105.277 82.5469ZM120.786 77.0859C121.812 77.0859 122.648 77.3698 123.294 77.9375C123.94 78.5052 124.263 79.2448 124.263 80.1562C124.263 80.776 124.101 81.3177 123.779 81.7812C123.461 82.2396 122.987 82.6016 122.357 82.8672C122.706 83.0547 123.016 83.3099 123.286 83.6328C123.557 83.9557 123.893 84.5 124.294 85.2656C124.961 86.5885 125.456 87.5 125.779 88H123.427C123.266 87.7604 123.047 87.3776 122.771 86.8516C122.167 85.6901 121.724 84.9089 121.443 84.5078C121.161 84.1016 120.891 83.8151 120.63 83.6484C120.37 83.4766 120.07 83.3906 119.732 83.3906H118.966V88H116.857V77.0859H120.786ZM120.31 81.7422C120.862 81.7422 121.294 81.6042 121.607 81.3281C121.924 81.0521 122.083 80.6745 122.083 80.1953C122.083 79.6953 121.927 79.3229 121.615 79.0781C121.302 78.8281 120.857 78.7031 120.279 78.7031H118.966V81.7422H120.31ZM128.601 77.0859V83.4375C128.601 84.0885 128.697 84.6068 128.89 84.9922C129.088 85.3776 129.408 85.6953 129.851 85.9453C130.294 86.1953 130.809 86.3203 131.398 86.3203C132.044 86.3203 132.59 86.2031 133.038 85.9688C133.492 85.7292 133.822 85.4062 134.031 85C134.239 84.5885 134.343 84.0208 134.343 83.2969V77.0859H136.452V83.5703C136.452 85.0391 136.012 86.1693 135.132 86.9609C134.252 87.7474 133.007 88.1406 131.398 88.1406C130.387 88.1406 129.51 87.9609 128.765 87.6016C128.025 87.2422 127.46 86.724 127.07 86.0469C126.679 85.3646 126.484 84.5651 126.484 83.6484V77.0859H128.601Z" fill="#0066B1"/>
<defs>
<linearGradient id="paint0_linear_12_83779" x1="86.5269" y1="31.5323" x2="103.112" y2="32.969" gradientUnits="userSpaceOnUse">
<stop stop-color="#3252A4"/>
<stop offset="0.2471" stop-color="#4169B2"/>
<stop offset="0.8035" stop-color="#47C7EF"/>
<stop offset="1" stop-color="#6FCCDD"/>
</linearGradient>
<linearGradient id="paint1_linear_12_83779" x1="76.9734" y1="29.369" x2="96.0606" y2="32.1388" gradientUnits="userSpaceOnUse">
<stop stop-color="#3252A4"/>
<stop offset="0.2471" stop-color="#4169B2"/>
<stop offset="0.8035" stop-color="#47C7EF"/>
<stop offset="1" stop-color="#6FCCDD"/>
</linearGradient>
<linearGradient id="paint2_linear_12_83779" x1="89.9925" y1="34.1441" x2="121.448" y2="45.8485" gradientUnits="userSpaceOnUse">
<stop stop-color="#3252A4"/>
<stop offset="0.2471" stop-color="#4169B2"/>
<stop offset="0.8035" stop-color="#47C7EF"/>
<stop offset="1" stop-color="#6FCCDD"/>
</linearGradient>
<linearGradient id="paint3_linear_12_83779" x1="93.0055" y1="28.9382" x2="126.518" y2="38.9912" gradientUnits="userSpaceOnUse">
<stop stop-color="#3252A4"/>
<stop offset="0.2471" stop-color="#4169B2"/>
<stop offset="0.8035" stop-color="#47C7EF"/>
<stop offset="1" stop-color="#6FCCDD"/>
</linearGradient>
<linearGradient id="paint4_linear_12_83779" x1="72.6377" y1="35.537" x2="86.8174" y2="56.4521" gradientUnits="userSpaceOnUse">
<stop stop-color="#3252A4"/>
<stop offset="0.2471" stop-color="#4169B2"/>
<stop offset="0.8035" stop-color="#47C7EF"/>
<stop offset="1" stop-color="#6FCCDD"/>
</linearGradient>
<linearGradient id="paint5_linear_12_83779" x1="73.3127" y1="41.4753" x2="91.8827" y2="66.8592" gradientUnits="userSpaceOnUse">
<stop stop-color="#3252A4"/>
<stop offset="0.2471" stop-color="#4169B2"/>
<stop offset="0.8035" stop-color="#47C7EF"/>
<stop offset="1" stop-color="#6FCCDD"/>
</linearGradient>
<radialGradient id="paint6_radial_12_83779" cx="0" cy="0" r="1" gradientTransform="matrix(25.1345 6.05481 -6.05427 25.1367 43.862 25.8611)" gradientUnits="userSpaceOnUse">
<stop stop-color="#F4F8FB"/>
<stop offset="0.2789" stop-color="#F1F7FB"/>
<stop offset="0.456" stop-color="#E9F4FB"/>
<stop offset="0.6047" stop-color="#DAF0FA"/>
<stop offset="0.7378" stop-color="#C5E9F9"/>
<stop offset="0.8604" stop-color="#AAE0F8"/>
<stop offset="0.9738" stop-color="#8AD6F6"/>
<stop offset="1" stop-color="#81D3F6"/>
</radialGradient>
<linearGradient id="paint7_linear_12_83779" x1="23.8047" y1="10.0125" x2="27.1034" y2="17.5183" gradientUnits="userSpaceOnUse">
<stop stop-color="#497ABB"/>
<stop offset="0.2471" stop-color="#2B99D5"/>
<stop offset="0.8035" stop-color="#00C0F1"/>
<stop offset="1" stop-color="#36C3F1"/>
</linearGradient>
<linearGradient id="paint8_linear_12_83779" x1="47.5448" y1="16.259" x2="55.8261" y2="16.8049" gradientUnits="userSpaceOnUse">
<stop stop-color="#497ABB"/>
<stop offset="0.2471" stop-color="#2B99D5"/>
<stop offset="0.8035" stop-color="#00C0F1"/>
<stop offset="1" stop-color="#36C3F1"/>
</linearGradient>
<linearGradient id="paint9_linear_12_83779" x1="53.697" y1="13.575" x2="60.0407" y2="15.2952" gradientUnits="userSpaceOnUse">
<stop stop-color="#497ABB"/>
<stop offset="0.2471" stop-color="#2B99D5"/>
<stop offset="0.8035" stop-color="#00C0F1"/>
<stop offset="1" stop-color="#36C3F1"/>
</linearGradient>
<linearGradient id="paint10_linear_12_83779" x1="61.2106" y1="33.1556" x2="72.7859" y2="19.906" gradientUnits="userSpaceOnUse">
<stop stop-color="#497ABB"/>
<stop offset="0.2471" stop-color="#2B99D5"/>
<stop offset="0.8035" stop-color="#00C0F1"/>
<stop offset="1" stop-color="#36C3F1"/>
</linearGradient>
<linearGradient id="paint11_linear_12_83779" x1="51.8161" y1="25.4138" x2="63.9023" y2="26.7738" gradientUnits="userSpaceOnUse">
<stop stop-color="#497ABB"/>
<stop offset="0.2471" stop-color="#2B99D5"/>
<stop offset="0.8035" stop-color="#00C0F1"/>
<stop offset="1" stop-color="#36C3F1"/>
</linearGradient>
<linearGradient id="paint12_linear_12_83779" x1="21.9962" y1="15.937" x2="41.9217" y2="24.6202" gradientUnits="userSpaceOnUse">
<stop stop-color="#497ABB"/>
<stop offset="0.2471" stop-color="#2B99D5"/>
<stop offset="0.8035" stop-color="#00C0F1"/>
<stop offset="1" stop-color="#36C3F1"/>
</linearGradient>
<linearGradient id="paint13_linear_12_83779" x1="35.0547" y1="3.53816" x2="38.3846" y2="12.0327" gradientUnits="userSpaceOnUse">
<stop stop-color="#497ABB"/>
<stop offset="0.2471" stop-color="#2B99D5"/>
<stop offset="0.8035" stop-color="#00C0F1"/>
<stop offset="1" stop-color="#36C3F1"/>
</linearGradient>
<linearGradient id="paint14_linear_12_83779" x1="25.6791" y1="2.24399" x2="26.3946" y2="7.68588" gradientUnits="userSpaceOnUse">
<stop stop-color="#497ABB"/>
<stop offset="0.2471" stop-color="#2B99D5"/>
<stop offset="0.8035" stop-color="#00C0F1"/>
<stop offset="1" stop-color="#36C3F1"/>
</linearGradient>
<linearGradient id="paint15_linear_12_83779" x1="60.7509" y1="43.6992" x2="55.8186" y2="33.1248" gradientUnits="userSpaceOnUse">
<stop stop-color="#497ABB"/>
<stop offset="0.2471" stop-color="#2B99D5"/>
<stop offset="0.8035" stop-color="#00C0F1"/>
<stop offset="1" stop-color="#36C3F1"/>
</linearGradient>
<linearGradient id="paint16_linear_12_83779" x1="54.377" y1="42.8098" x2="61.7873" y2="44.7689" gradientUnits="userSpaceOnUse">
<stop stop-color="#497ABB"/>
<stop offset="0.2471" stop-color="#2B99D5"/>
<stop offset="0.8035" stop-color="#00C0F1"/>
<stop offset="1" stop-color="#36C3F1"/>
</linearGradient>
<linearGradient id="paint17_linear_12_83779" x1="29.7609" y1="44.1792" x2="36.2791" y2="40.4065" gradientUnits="userSpaceOnUse">
<stop stop-color="#497ABB"/>
<stop offset="0.2471" stop-color="#2B99D5"/>
<stop offset="0.8035" stop-color="#00C0F1"/>
<stop offset="1" stop-color="#36C3F1"/>
</linearGradient>
<linearGradient id="paint18_linear_12_83779" x1="31.7945" y1="48.7712" x2="39.3047" y2="49.2364" gradientUnits="userSpaceOnUse">
<stop stop-color="#497ABB"/>
<stop offset="0.2471" stop-color="#2B99D5"/>
<stop offset="0.8035" stop-color="#00C0F1"/>
<stop offset="1" stop-color="#36C3F1"/>
</linearGradient>
<linearGradient id="paint19_linear_12_83779" x1="64.9777" y1="36.1496" x2="64.8786" y2="30.5276" gradientUnits="userSpaceOnUse">
<stop stop-color="#497ABB"/>
<stop offset="0.2471" stop-color="#2B99D5"/>
<stop offset="0.8035" stop-color="#00C0F1"/>
<stop offset="1" stop-color="#36C3F1"/>
</linearGradient>
<linearGradient id="paint20_linear_12_83779" x1="22.2451" y1="27.2787" x2="16.6645" y2="23.5334" gradientUnits="userSpaceOnUse">
<stop stop-color="#497ABB"/>
<stop offset="0.2471" stop-color="#2B99D5"/>
<stop offset="0.4717" stop-color="#00C0F1"/>
<stop offset="0.7456" stop-color="#497ABB"/>
<stop offset="1" stop-color="#36C3F1"/>
</linearGradient>
<linearGradient id="paint21_linear_12_83779" x1="32.1086" y1="31.1865" x2="31.7643" y2="21.77" gradientUnits="userSpaceOnUse">
<stop stop-color="#497ABB"/>
<stop offset="0.2471" stop-color="#2B99D5"/>
<stop offset="0.8035" stop-color="#00C0F1"/>
<stop offset="1" stop-color="#36C3F1"/>
</linearGradient>
<linearGradient id="paint22_linear_12_83779" x1="30.5322" y1="44.6857" x2="37.7863" y2="34.3487" gradientUnits="userSpaceOnUse">
<stop stop-color="#497ABB"/>
<stop offset="0.2471" stop-color="#2B99D5"/>
<stop offset="0.8035" stop-color="#00C0F1"/>
<stop offset="1" stop-color="#36C3F1"/>
</linearGradient>
<linearGradient id="paint23_linear_12_83779" x1="32.2762" y1="18.941" x2="32.2049" y2="13.7857" gradientUnits="userSpaceOnUse">
<stop stop-color="#497ABB"/>
<stop offset="0.2471" stop-color="#2B99D5"/>
<stop offset="0.8035" stop-color="#00C0F1"/>
<stop offset="1" stop-color="#36C3F1"/>
</linearGradient>
<linearGradient id="paint24_linear_12_83779" x1="25.5055" y1="15.8749" x2="22.4492" y2="6.39226" gradientUnits="userSpaceOnUse">
<stop stop-color="#497ABB"/>
<stop offset="0.2471" stop-color="#2B99D5"/>
<stop offset="0.8035" stop-color="#00C0F1"/>
<stop offset="1" stop-color="#36C3F1"/>
</linearGradient>
<linearGradient id="paint25_linear_12_83779" x1="65.9737" y1="16.84" x2="61.2903" y2="17.2137" gradientUnits="userSpaceOnUse">
<stop stop-color="#497ABB"/>
<stop offset="0.2471" stop-color="#2B99D5"/>
<stop offset="0.8035" stop-color="#00C0F1"/>
<stop offset="1" stop-color="#36C3F1"/>
</linearGradient>
<linearGradient id="paint26_linear_12_83779" x1="47.845" y1="4.13615" x2="49.0641" y2="7.85052" gradientUnits="userSpaceOnUse">
<stop stop-color="#497ABB"/>
<stop offset="0.2471" stop-color="#2B99D5"/>
<stop offset="0.8035" stop-color="#00C0F1"/>
<stop offset="1" stop-color="#36C3F1"/>
</linearGradient>
<linearGradient id="paint27_linear_12_83779" x1="26.7213" y1="-1.17005" x2="26.8413" y2="6.05748" gradientUnits="userSpaceOnUse">
<stop stop-color="#497ABB"/>
<stop offset="0.2471" stop-color="#2B99D5"/>
<stop offset="0.8035" stop-color="#00C0F1"/>
<stop offset="1" stop-color="#36C3F1"/>
</linearGradient>
<linearGradient id="paint28_linear_12_83779" x1="86.0866" y1="28.1947" x2="93.0415" y2="25.6633" gradientUnits="userSpaceOnUse">
<stop stop-color="#3455A6"/>
<stop offset="0.244378" stop-color="#416EB5"/>
<stop offset="0.784127" stop-color="#48C7EF"/>
<stop offset="1" stop-color="#6DCCDF"/>
</linearGradient>
</defs>
</svg>
