<svg width="64" height="64" viewBox="0 0 64 64" fill="none" xmlns="http://www.w3.org/2000/svg">
<rect width="64" height="64" rx="32" fill="white"/>
<g clip-path="url(#clip0_12_76617)">
<path d="M29.4892 41.9693V42.4195H28.7285V44.5127H28.1938V42.4195H27.4292V41.9693H29.4892Z" fill="#231F20"/>
<path d="M29.7588 41.9695H30.2992V43.5318C30.2992 43.7066 30.3201 43.8338 30.3609 43.9146C30.4255 44.057 30.5651 44.1283 30.7807 44.1283C30.9963 44.1283 31.134 44.057 31.1986 43.9146C31.2395 43.8338 31.2604 43.7066 31.2604 43.5318V41.9695H31.8008V43.5328C31.8008 43.8034 31.759 44.0133 31.6754 44.1644C31.5196 44.4407 31.2214 44.5784 30.7817 44.5784C30.3419 44.5784 30.0428 44.4407 29.8861 44.1644C29.8025 44.0133 29.7607 43.8034 29.7607 43.5328V41.9695H29.7588ZM30.2109 41.3246H30.6611V41.7339H30.2109V41.3246ZM30.9013 41.3246H31.3515V41.7339H30.9013V41.3246Z" fill="#231F20"/>
<path d="M33.862 42.035C33.9561 42.0749 34.0349 42.1348 34.1004 42.2126C34.1546 42.2772 34.1973 42.3485 34.2286 42.4263C34.26 42.5042 34.2761 42.5935 34.2761 42.6942C34.2761 42.8148 34.2457 42.9335 34.185 43.0503C34.1242 43.1672 34.0235 43.2498 33.8829 43.2982C34.0007 43.3457 34.0833 43.4122 34.1327 43.4996C34.1812 43.586 34.2058 43.719 34.2058 43.8975V44.0685C34.2058 44.1843 34.2106 44.2632 34.2201 44.305C34.2343 44.3705 34.2666 44.4189 34.3179 44.4503V44.5139H33.731C33.7148 44.4579 33.7034 44.4123 33.6968 44.3781C33.6835 44.3069 33.6759 44.2337 33.674 44.1587L33.6702 43.9222C33.6683 43.7598 33.6398 43.6515 33.5857 43.5974C33.5315 43.5433 33.4308 43.5167 33.2827 43.5167H32.7632V44.5139H32.2437V41.9705H33.4603C33.6341 41.9743 33.768 41.9961 33.8611 42.036L33.862 42.035ZM32.7632 42.4111V43.095H33.3349C33.4489 43.095 33.5334 43.0807 33.5904 43.0532C33.6911 43.0047 33.7414 42.9098 33.7414 42.7664C33.7414 42.6125 33.693 42.509 33.5952 42.4558C33.541 42.4254 33.4584 42.4111 33.3492 42.4111H32.7622H32.7632Z" fill="#231F20"/>
<path d="M34.687 41.9693H35.2093V43.0169L36.1923 41.9693H36.879L35.8352 43.015L36.9322 44.5127H36.2484L35.4648 43.4025L35.2084 43.6618V44.5127H34.686V41.9693H34.687Z" fill="#231F20"/>
<path d="M20.3013 45.7009H21.2919V47.6869L23.1543 45.7009H24.4555L22.4781 47.6831L24.5571 50.52H23.2626L21.7781 48.4163L21.2928 48.9083V50.52H20.3013V45.7009Z" fill="#231F20"/>
<path d="M25.9059 50.52H24.9058V45.7009H25.9059V50.52Z" fill="#231F20"/>
<path d="M26.5068 49.6701L28.9705 46.5539H26.5695V45.7001H30.2213V46.5074L27.7263 49.6691H30.228V50.5191H26.5068V49.6691V49.6701Z" fill="#231F20"/>
<path d="M31.856 50.52H30.856V45.7009H31.856V50.52Z" fill="#231F20"/>
<path d="M32.5303 45.7009H33.537V49.6538H35.9437V50.52H32.5303V45.7009Z" fill="#231F20"/>
<path d="M37.864 45.7009H39.0037L40.7085 50.52H39.6163L39.2982 49.5294H37.5231L37.1963 50.52H36.1431L37.8631 45.7009H37.864ZM37.7975 48.6993H39.0322L38.4234 46.8026L37.7975 48.6993Z" fill="#231F20"/>
<path d="M42.9195 45.7009H44.0602L42.4484 48.7136V50.5209H41.4417V48.7136L39.7739 45.7009H40.9611L41.9612 47.7999L42.9195 45.7009Z" fill="#231F20"/>
<path d="M20.3013 19.3822C22.613 16.1938 26.4386 14.0778 30.8018 14.0018C38.0028 13.8764 43.9388 19.3594 44.0594 26.247C44.18 33.1346 38.4406 38.8199 31.2396 38.9452C26.7321 39.0231 22.7203 36.9042 20.3203 33.619C22.2388 35.1519 24.7794 36.0646 27.5517 36.0162C33.4136 35.9146 38.0892 31.558 37.9971 26.2859C37.904 21.0138 33.0783 16.8226 27.2164 16.9242C24.5552 16.9707 22.1381 17.8939 20.3013 19.3812" fill="#E01A22"/>
</g>
<defs>
<clipPath id="clip0_12_76617">
<rect width="23.76" height="36.52" fill="white" transform="translate(20.3013 14)"/>
</clipPath>
</defs>
</svg>
