<svg width="44" height="34" viewBox="0 0 44 34" fill="none" xmlns="http://www.w3.org/2000/svg">
<rect width="44" height="34" rx="8" fill="#FBBA02"/>
<mask id="mask0_12_75515" style="mask-type:luminance" maskUnits="userSpaceOnUse" x="0" y="0" width="44" height="34">
<rect width="44" height="34" rx="8" fill="white"/>
</mask>
<g mask="url(#mask0_12_75515)">
<path fill-rule="evenodd" clip-rule="evenodd" d="M35.9576 12.7908C36.3151 10.7892 34.4382 8 29.327 8H16.6271C13.1464 8 10.9639 10.3458 10.576 12.7083L8 26C10.2622 25.9945 25.1677 26 25.1364 26H26.1051C31.443 25.971 34.5162 24.7943 35.0772 20.9921C35.4488 18.4331 33.16 16.7815 31.2896 16.4302C33.181 16.0915 35.4801 15.4601 35.9576 12.7908ZM24.0316 13.5699C22.7363 15.1799 18.0288 20.7679 17.0773 21.828C14.9514 24.202 10.5675 23.8482 10.5379 23.7884C10.5379 23.7855 12.1182 16.4495 12.6309 14.381C14.0354 8.75682 18.8809 10.0879 18.8809 10.0879C18.8809 10.0879 17.5899 10.2709 16.6783 11.4122C15.7537 12.5691 14.7058 18.2059 14.1134 20.8403C16.8896 17.6552 20.6957 13.5459 21.3446 12.7769C24.1113 9.49008 28.4437 9.94316 28.4437 9.94316C28.4437 9.94316 26.7567 10.1745 24.0316 13.5699Z" fill="#E3E3E3"/>
</g>
</svg>
