<svg width="64" height="64" viewBox="0 0 64 64" fill="none" xmlns="http://www.w3.org/2000/svg">
<path fill-rule="evenodd" clip-rule="evenodd" d="M31.9944 0.00152588C49.6704 0.00152588 64 14.328 64 32.0008C64 49.6733 49.6704 64 31.9944 64C14.6035 64 0.452307 50.1321 0 32.8539L0 31.1476C0.452307 13.8693 14.6035 0.00152588 31.9944 0.00152588Z" fill="#FBBA02"/>
<mask id="mask0_12_76197" style="mask-type:luminance" maskUnits="userSpaceOnUse" x="0" y="0" width="64" height="64">
<path fill-rule="evenodd" clip-rule="evenodd" d="M31.9944 0.00152588C49.6704 0.00152588 64 14.328 64 32.0008C64 49.6733 49.6704 64 31.9944 64C14.6035 64 0.452307 50.1321 0 32.8539L0 31.1476C0.452307 13.8693 14.6035 0.00152588 31.9944 0.00152588Z" fill="white"/>
</mask>
<g mask="url(#mask0_12_76197)">
<path fill-rule="evenodd" clip-rule="evenodd" d="M49.9455 26.6216C50.4051 24.0639 47.9919 20.5 41.4204 20.5H25.092C20.6168 20.5 17.8107 23.4974 17.312 26.5162L14 43.5C16.9086 43.493 36.0727 43.5 36.0325 43.5H37.2779C44.141 43.4629 48.0922 41.9594 48.8136 37.101C49.2914 33.8312 46.3486 31.7207 43.9437 31.2719C46.3756 30.8392 49.3316 30.0323 49.9455 26.6216ZM34.612 27.6171C32.9467 29.6743 26.8942 36.8145 25.6708 38.1692C22.9375 41.2025 17.3011 40.7505 17.2631 40.6741C17.2631 40.6704 19.2949 31.2966 19.954 28.6535C21.7598 21.467 27.9897 23.1678 27.9897 23.1678C27.9897 23.1678 26.3299 23.4017 25.1578 24.86C23.9691 26.3383 22.6217 33.5409 21.8601 36.907C25.4295 32.8372 30.323 27.5865 31.1573 26.6038C34.7145 22.404 40.2848 22.9829 40.2848 22.9829C40.2848 22.9829 38.1157 23.2786 34.612 27.6171Z" fill="#E3E3E3"/>
</g>
</svg>
