<svg width="356" height="59" viewBox="0 0 356 59" fill="none" xmlns="http://www.w3.org/2000/svg">
<path fill-rule="evenodd" clip-rule="evenodd" d="M190.977 44.7626H192.677V1.09961H190.977V44.7626Z" fill="#F0F4F7"/>
<path fill-rule="evenodd" clip-rule="evenodd" d="M214.781 31.9656L203.426 14.7676H208.636L216.815 27.9396L225.246 14.7676H230.203L218.85 31.9656V44.7616H214.781V31.9656Z" fill="#F0F4F7"/>
<path fill-rule="evenodd" clip-rule="evenodd" d="M245.501 33.7886L239.905 20.0146H239.824L234.145 33.7886H245.501ZM238.215 14.7676H241.899L254.741 44.7616H249.992L246.983 37.3456H232.703L229.741 44.7616H224.99L238.215 14.7676Z" fill="#F0F4F7"/>
<path fill-rule="evenodd" clip-rule="evenodd" d="M261.008 18.5746H251.349V14.7666H274.739V18.5746H265.083V44.7616H261.008V18.5746Z" fill="#F0F4F7"/>
<path fill-rule="evenodd" clip-rule="evenodd" d="M279.06 44.7606H283.129V14.7666H279.06V44.7606Z" fill="#F0F4F7"/>
<path fill-rule="evenodd" clip-rule="evenodd" d="M293.211 27.9826H298.55C299.343 27.9826 300.125 27.9176 300.9 27.7876C301.675 27.6616 302.372 27.4336 302.979 27.0906C303.582 26.7526 304.072 26.2686 304.434 25.6296C304.806 24.9936 304.995 24.1676 304.995 23.1536C304.995 22.1326 304.806 21.3026 304.434 20.6736C304.072 20.0336 303.582 19.5496 302.979 19.2116C302.372 18.8726 301.675 18.6436 300.9 18.5106C300.125 18.3866 299.343 18.3266 298.55 18.3266H293.211V27.9826ZM289.142 14.7676H299.694C301.616 14.7676 303.194 15.0206 304.434 15.5486C305.682 16.0696 306.665 16.7336 307.387 17.5406C308.105 18.3436 308.611 19.2446 308.887 20.2536C309.169 21.2516 309.315 22.2266 309.315 23.1536C309.315 24.1156 309.148 25.0346 308.805 25.9266C308.466 26.8136 307.974 27.6266 307.341 28.3426C306.706 29.0636 305.929 29.6716 305.014 30.1666C304.095 30.6606 303.068 30.9616 301.944 31.0756L310.464 44.7616H305.371L297.743 31.5386H293.211V44.7616H289.142V14.7676Z" fill="#F0F4F7"/>
<mask id="mask0_12_82463" style="mask-type:luminance" maskUnits="userSpaceOnUse" x="0" y="0" width="356" height="59">
<path fill-rule="evenodd" clip-rule="evenodd" d="M0 58.409H355.247V0H0V58.409Z" fill="white"/>
</mask>
<g mask="url(#mask0_12_82463)">
<path fill-rule="evenodd" clip-rule="evenodd" d="M314.189 44.7606H318.25V14.7666H314.189V44.7606Z" fill="#F0F4F7"/>
<path fill-rule="evenodd" clip-rule="evenodd" d="M323.973 14.7676H330.035L339.568 37.4796H339.738L349.187 14.7676H355.248V44.7616H351.179V20.0966H351.092L340.963 44.7616H338.254L328.127 20.0966H328.043V44.7616H323.973V14.7676Z" fill="#F0F4F7"/>
<path fill-rule="evenodd" clip-rule="evenodd" d="M0 1.11133H29.665V9.99433H9.622V18.1323H28.555V27.0153H9.622V35.8963H30.773V44.7753H0V1.11133Z" fill="#F0F4F7"/>
<path fill-rule="evenodd" clip-rule="evenodd" d="M37.4341 44.776H46.6871V1.125H37.4341V44.776Z" fill="#F0F4F7"/>
<path fill-rule="evenodd" clip-rule="evenodd" d="M53.47 44.776H62.72V14.801H53.47V44.776ZM52.73 5.368C52.73 3.888 53.251 2.622 54.3 1.574C55.354 0.523 56.618 0 58.095 0C59.575 0 60.84 0.523 61.893 1.574C62.939 2.622 63.46 3.888 63.46 5.368C63.46 6.846 62.939 8.108 61.893 9.159C60.84 10.207 59.575 10.73 58.095 10.73C56.618 10.73 55.354 10.207 54.3 9.159C53.251 8.108 52.73 6.846 52.73 5.368Z" fill="#F0F4F7"/>
<path fill-rule="evenodd" clip-rule="evenodd" d="M78.7569 29.7875C78.7569 32.0475 79.4059 33.8815 80.6999 35.2775C81.9969 36.6765 83.8189 37.3775 86.1599 37.3775C88.5009 37.3775 90.3199 36.6765 91.6129 35.2775C92.9079 33.8815 93.5559 32.0475 93.5559 29.7875C93.5559 27.5255 92.9079 25.7015 91.6129 24.3025C90.3199 22.9025 88.5009 22.2035 86.1599 22.2035C83.8189 22.2035 81.9969 22.9025 80.6999 24.3025C79.4059 25.7015 78.7569 27.5255 78.7569 29.7875ZM70.2439 14.8015H78.7569V18.7505H78.8819C79.2489 18.2175 79.7329 17.6675 80.3269 17.1155C80.9259 16.5595 81.6249 16.0575 82.4269 15.6015C83.2289 15.1525 84.1009 14.7815 85.0489 14.4945C85.9959 14.2055 86.9969 14.0615 88.0659 14.0615C90.2879 14.0615 92.3059 14.4405 94.1159 15.2035C95.9229 15.9655 97.4769 17.0335 98.7689 18.4105C100.066 19.7865 101.064 21.4215 101.76 23.3145C102.46 25.2055 102.812 27.2805 102.812 29.5435C102.812 31.6385 102.491 33.6425 101.852 35.5555C101.216 37.4685 100.313 39.1655 99.1399 40.6435C97.9669 42.1235 96.5409 43.3075 94.8519 44.1875C93.1659 45.0735 91.2539 45.5135 89.1159 45.5135C87.1849 45.5135 85.3859 45.2175 83.7219 44.6215C82.0589 44.0265 80.6889 43.0055 79.6159 41.5675H79.4959V58.4095H70.2439V14.8015Z" fill="#F0F4F7"/>
<path fill-rule="evenodd" clip-rule="evenodd" d="M128.281 22.2029H120.138V32.1979C120.138 33.0169 120.176 33.7669 120.261 34.4429C120.34 35.1229 120.529 35.7099 120.816 36.2059C121.101 36.6959 121.545 37.0749 122.139 37.3439C122.735 37.6129 123.532 37.7459 124.514 37.7459C125.01 37.7459 125.659 37.6949 126.46 37.5899C127.26 37.4869 127.867 37.2489 128.281 36.8829V44.5929C127.252 44.9609 126.181 45.2069 125.072 45.3309C123.963 45.4539 122.872 45.5139 121.804 45.5139C120.239 45.5139 118.8 45.3549 117.487 45.0229C116.167 44.6929 115.018 44.1699 114.031 43.4509C113.046 42.7329 112.272 41.7929 111.719 40.6439C111.161 39.4909 110.885 38.0949 110.885 36.4489V22.2029H104.968V19.8489L120.138 5.91992V14.8009H128.281V22.2029Z" fill="#F0F4F7"/>
<path fill-rule="evenodd" clip-rule="evenodd" d="M133.091 44.776H142.342V14.801H133.091V44.776ZM132.349 5.368C132.349 3.888 132.873 2.622 133.927 1.574C134.968 0.523 136.234 0 137.715 0C139.195 0 140.458 0.523 141.504 1.574C142.553 2.622 143.083 3.888 143.083 5.368C143.083 6.846 142.553 8.108 141.504 9.159C140.458 10.207 139.195 10.73 137.715 10.73C136.234 10.73 134.968 10.207 133.927 9.159C132.873 8.108 132.349 6.846 132.349 5.368Z" fill="#F0F4F7"/>
<path fill-rule="evenodd" clip-rule="evenodd" d="M148.998 1.125H158.251V26.644L168.488 14.801H179.839L167.935 28.31L180.148 44.776H168.488L158.376 29.605H158.251V44.776H148.998V1.125Z" fill="#F0F4F7"/>
</g>
</svg>
