<svg width="64" height="64" viewBox="0 0 64 64" fill="none" xmlns="http://www.w3.org/2000/svg">
<path fill-rule="evenodd" clip-rule="evenodd" d="M31.9944 0.00152588C49.6704 0.00152588 64 14.328 64 32.0008C64 49.6733 49.6704 64 31.9944 64C14.6035 64 0.452307 50.1321 0 32.8539L0 31.1476C0.452307 13.8693 14.6035 0.00152588 31.9944 0.00152588Z" fill="#124B8C"/>
<mask id="mask0_12_76160" style="mask-type:luminance" maskUnits="userSpaceOnUse" x="0" y="0" width="64" height="64">
<path fill-rule="evenodd" clip-rule="evenodd" d="M31.9944 0.00152588C49.6704 0.00152588 64 14.328 64 32.0008C64 49.6733 49.6704 64 31.9944 64C14.6035 64 0.452307 50.1321 0 32.8539L0 31.1476C0.452307 13.8693 14.6035 0.00152588 31.9944 0.00152588Z" fill="white"/>
</mask>
<g mask="url(#mask0_12_76160)">
<path fill-rule="evenodd" clip-rule="evenodd" d="M49.5765 28.8619C47.624 23.3224 42.0313 23.0149 41.4562 23.002C38.9576 22.9531 36.1911 23.8103 34.0864 25.8407C33.2419 26.5908 32.6362 27.4594 32.0007 28.3999L31.9985 28.4027L31.997 28.3999C31.3622 27.4594 30.7594 26.5908 29.9134 25.8407C27.8087 23.8103 25.0415 22.9531 22.5437 23.002C21.9671 23.0156 16.3773 23.3224 14.424 28.8619C13.7273 30.8427 13.8853 33.4177 14.9264 35.3008C15.9558 37.4792 18.4165 39.2539 21.0126 39.0743C22.8975 39.0247 24.9556 37.8392 25.7142 35.9417C26.3512 34.2389 26.1554 32.4154 24.6862 30.9526C24.7241 31.3277 24.7401 31.8399 24.3674 32.3184C23.7747 33.1274 22.8385 33.3279 21.8702 32.983C21.0148 32.5986 20.693 31.9915 20.7797 31.1825C20.8416 30.4935 21.3985 29.9661 21.9794 29.7075C23.1159 29.2218 24.1635 29.469 25.1871 30.4324C26.8659 32.2825 27.0618 35.0853 27.8582 37.2134C28.421 38.9643 29.315 40.4868 31.2734 40.9222C31.5107 40.9753 31.7531 41.0019 31.997 40.9998H31.9985H32.0007C32.2467 41.0019 32.4892 40.9753 32.7258 40.9222C34.6849 40.4868 35.5789 38.9643 36.1431 37.2134C36.9388 35.0853 37.1339 32.2825 38.812 30.4324C39.8363 29.469 40.884 29.2218 42.0189 29.7075C42.6014 29.9661 43.159 30.4935 43.2202 31.1825C43.3054 31.9915 42.985 32.5986 42.1296 32.983C41.1628 33.3279 40.2258 33.1274 39.6339 32.3184C39.2605 31.8399 39.2772 31.3277 39.3136 30.9526C37.8445 32.4154 37.6479 34.2389 38.2849 35.9417C39.045 37.8392 41.1016 39.0247 42.9872 39.0743C45.5826 39.2539 48.0448 37.4792 49.0735 35.3008C50.1145 33.4177 50.2725 30.8427 49.5765 28.8619ZM45.6307 35.4718C44.4462 36.5 42.8642 36.8024 41.5792 36.2334C40.8075 35.872 40.244 35.2053 40.0729 34.5163C41.1526 35.5767 43.1001 36.1163 44.8844 34.259C44.8844 34.259 46.5574 32.7308 45.6081 29.8533C45.1378 28.4279 43.3687 27.2431 41.8988 27.0973C39.7053 26.7474 37.6341 27.4853 36.205 29.4661C34.5145 32.0411 34.3012 34.9057 33.0781 37.7702C32.8706 38.2415 32.4382 38.4492 32.0007 38.4248H31.9985H31.997C31.5617 38.4492 31.1292 38.2415 30.9232 37.7702C29.6979 34.9057 29.4868 32.0411 27.7963 29.4661C26.3658 27.4853 24.2946 26.7474 22.101 27.0973C20.6326 27.2431 18.8621 28.4279 18.391 29.8533C17.4424 32.7308 19.1154 34.259 19.1154 34.259C20.8998 36.1163 22.8472 35.5767 23.9276 34.5163C23.7558 35.2053 23.1923 35.872 22.4214 36.2334C21.1349 36.8024 19.5551 36.5 18.367 35.4718C16.6161 33.7554 16.3526 31.554 17.0457 29.5264C17.8865 27.0621 20.412 25.8277 22.4214 25.6718C24.7969 25.4663 28.0781 26.904 29.3885 29.3583C29.6936 29.9252 30.3342 31.3894 30.3342 31.3894L31.9985 31.388L33.6656 31.3894C33.6656 31.3894 34.3056 29.9252 34.6121 29.3583C35.9225 26.904 39.2022 25.4663 41.5792 25.6718C43.5871 25.8277 46.1133 27.0621 46.9549 29.5264C47.648 31.554 47.3845 33.7554 45.6307 35.4718Z" fill="#A7A9AC"/>
</g>
</svg>
