<svg width="44" height="34" viewBox="0 0 44 34" fill="none" xmlns="http://www.w3.org/2000/svg">
<rect y="3" width="44" height="28" rx="4" fill="#124B8C"/>
<mask id="mask0_12_75655" style="mask-type:luminance" maskUnits="userSpaceOnUse" x="0" y="3" width="44" height="28">
<rect y="3" width="44" height="28" rx="4" fill="white"/>
</mask>
<g mask="url(#mask0_12_75655)">
</g>
<rect opacity="0.2" x="4" y="21" width="24" height="2" rx="0.923077" fill="#E3E3E3"/>
<rect opacity="0.2" x="4" y="25" width="9" height="2" rx="0.923077" fill="#E3E3E3"/>
<rect opacity="0.2" x="4" y="10" width="7" height="4" rx="1" fill="#E3E3E3"/>
<path fill-rule="evenodd" clip-rule="evenodd" d="M39.8118 9.60527C38.944 7.14329 36.4584 7.00662 36.2027 7.00088C35.0923 6.97916 33.8627 7.36011 32.9273 8.26252C32.552 8.59589 32.2828 8.98195 32.0003 9.39994L31.9993 9.40122L31.9987 9.39994C31.7165 8.98195 31.4486 8.59589 31.0726 8.26252C30.1372 7.36011 28.9073 6.97916 27.7972 7.00088C27.5409 7.00694 25.0566 7.14329 24.1885 9.60527C23.8788 10.4856 23.949 11.6301 24.4117 12.467C24.8692 13.4352 25.9629 14.2239 27.1167 14.1441C27.9544 14.1221 28.8692 13.5952 29.2063 12.7519C29.4894 11.9951 29.4024 11.1846 28.7494 10.5345C28.7663 10.7012 28.7734 10.9289 28.6077 11.1415C28.3443 11.5011 27.9282 11.5902 27.4979 11.4369C27.1177 11.2661 26.9747 10.9962 27.0132 10.6367C27.0407 10.3304 27.2882 10.0961 27.5464 9.98111C28.0515 9.76525 28.5171 9.8751 28.972 10.3033C29.7182 11.1256 29.8052 12.3712 30.1592 13.3171C30.4093 14.0953 30.8067 14.7719 31.677 14.9654C31.7825 14.989 31.8903 15.0009 31.9987 14.9999H31.9993H32.0003C32.1097 15.0009 32.2174 14.989 32.3226 14.9654C33.1933 14.7719 33.5906 14.0953 33.8414 13.3171C34.195 12.3712 34.2817 11.1256 35.0276 10.3033C35.4828 9.8751 35.9484 9.76525 36.4529 9.98111C36.7117 10.0961 36.9596 10.3304 36.9867 10.6367C37.0246 10.9962 36.8822 11.2661 36.502 11.4369C36.0724 11.5902 35.6559 11.5011 35.3929 11.1415C35.2269 10.9289 35.2343 10.7012 35.2505 10.5345C34.5975 11.1846 34.5102 11.9951 34.7933 12.7519C35.1311 13.5952 36.0452 14.1221 36.8832 14.1441C38.0367 14.2239 39.131 13.4352 39.5882 12.467C40.0509 11.6301 40.1211 10.4856 39.8118 9.60527ZM38.0581 12.543C37.5316 13 36.8285 13.1344 36.2574 12.8815C35.9145 12.7209 35.664 12.4246 35.588 12.1183C36.0678 12.5897 36.9334 12.8295 37.7264 12.004C37.7264 12.004 38.47 11.3248 38.048 10.0459C37.839 9.4124 37.0528 8.88584 36.3995 8.82101C35.4246 8.6655 34.504 8.99345 33.8689 9.87382C33.1176 11.0183 33.0228 12.2914 32.4792 13.5645C32.3869 13.774 32.1948 13.8663 32.0003 13.8554H31.9993H31.9987C31.8052 13.8663 31.613 13.774 31.5214 13.5645C30.9769 12.2914 30.883 11.0183 30.1317 9.87382C29.4959 8.99345 28.5754 8.6655 27.6005 8.82101C26.9478 8.88584 26.1609 9.4124 25.9516 10.0459C25.53 11.3248 26.2735 12.004 26.2735 12.004C27.0666 12.8295 27.9321 12.5897 28.4123 12.1183C28.3359 12.4246 28.0855 12.7209 27.7428 12.8815C27.1711 13.1344 26.469 13 25.9409 12.543C25.1627 11.7802 25.0456 10.8018 25.3536 9.90064C25.7273 8.80537 26.8498 8.25677 27.7428 8.18748C28.7986 8.09615 30.2569 8.73512 30.8393 9.82592C30.9749 10.0779 31.2596 10.7286 31.2596 10.7286L31.9993 10.728L32.7403 10.7286C32.7403 10.7286 33.0247 10.0779 33.1609 9.82592C33.7433 8.73512 35.201 8.09615 36.2574 8.18748C37.1498 8.25677 38.2726 8.80537 38.6466 9.90064C38.9547 10.8018 38.8375 11.7802 38.0581 12.543Z" fill="#A7A9AC"/>
</svg>
