<svg width="44" height="34" viewBox="0 0 44 34" fill="none" xmlns="http://www.w3.org/2000/svg">
<rect width="44" height="34" rx="8" fill="#C12026"/>
<mask id="mask0_12_75498" style="mask-type:luminance" maskUnits="userSpaceOnUse" x="0" y="0" width="44" height="34">
<rect width="44" height="34" rx="8" fill="white"/>
</mask>
<g mask="url(#mask0_12_75498)">
<path d="M20.9424 11.6924L22.0625 12.6025V16.7764L21.0088 17.8525L22.0625 18.7148V22.8887L20.9424 21.9775L18.7227 20.1777L17.6582 21.2529L20.9424 23.915L22.0625 24.8252V29L20.9424 28.0898L17 24.9033V20.7285L18.0723 19.6533L17 18.792V14.6182L20.3594 17.3301L20.9424 16.7383L21.4131 16.2539L20.9424 15.876L17 12.6797V8.50586L20.9424 11.6924ZM28 16.1855C28 16.5345 27.9252 16.8545 27.5674 17.1543C27.7838 17.2995 28 17.611 28 17.9014V24.9033L25.751 26.7139L24.0576 28.0898L22.9277 29V24.8252L23.5117 24.3516V22.4141L22.9277 22.8887V18.7148L23.5117 18.249V16.3125L22.9277 16.7764V12.6025L24.0576 11.6924L25.751 10.3174L28 8.50586V16.1855ZM27.2002 20.0605C27.2002 19.7314 26.9085 19.6739 26.6172 19.916L25.751 20.6035L24.3115 21.7754V23.7119L25.751 22.54L26.749 21.7363C27.0596 21.4848 27.2002 21.3195 27.2002 20.9512V20.0605ZM27.2002 13.9492C27.2001 13.6202 26.9084 13.5617 26.6172 13.8037L25.751 14.4912L24.3115 15.6641V17.5996L25.751 16.4287L26.749 15.625C27.0595 15.3735 27.2001 15.2085 27.2002 14.8408V13.9492ZM25.1768 6.49121L24.0576 7.4209L23.7285 7.69238V9.25195L24.0576 8.98145L25.1768 8.05957V9.55078L24.0576 10.4814L22.9277 11.4111V6.85938L24.0576 5.92969L25.1768 5V6.49121ZM20.9424 5.92871L22.0625 6.85938V8.35156L21.3379 7.75V9.39746L21.6289 9.63867V11.1299L20.9424 10.5586L20.2646 9.98828V8.49609L20.5469 8.72852V7.0918L19.8232 6.49121V5L20.9424 5.92871Z" fill="#E3E3E3"/>
</g>
</svg>
