<svg width="64" height="64" viewBox="0 0 64 64" fill="none" xmlns="http://www.w3.org/2000/svg">
<path fill-rule="evenodd" clip-rule="evenodd" d="M31.9944 0.00152588C49.6704 0.00152588 64 14.328 64 32.0008C64 49.6733 49.6704 64 31.9944 64C14.6035 64 0.452307 50.1321 0 32.8539L0 31.1476C0.452307 13.8693 14.6035 0.00152588 31.9944 0.00152588Z" fill="#C12026"/>
<mask id="mask0_12_76209" style="mask-type:luminance" maskUnits="userSpaceOnUse" x="0" y="0" width="64" height="64">
<path fill-rule="evenodd" clip-rule="evenodd" d="M31.9944 0.00152588C49.6704 0.00152588 64 14.328 64 32.0008C64 49.6733 49.6704 64 31.9944 64C14.6035 64 0.452307 50.1321 0 32.8539L0 31.1476C0.452307 13.8693 14.6035 0.00152588 31.9944 0.00152588Z" fill="white"/>
</mask>
<g mask="url(#mask0_12_76209)">
<path d="M29.876 24.9229L31.4033 26.1367V31.7021L29.9668 33.1367L31.4033 34.2861V39.8516L29.876 38.6367L26.8486 36.2363L25.3975 37.6699L29.876 41.2207L31.4033 42.4346V48L29.876 46.7861L24.5 42.5371V36.9717L25.9629 35.5381L24.5 34.3896V28.8232L29.0811 32.4395L29.876 31.6514L30.5176 31.0059L29.876 30.502L24.5 26.2402V20.6738L29.876 24.9229ZM39.5 30.9141C39.5 31.3794 39.3981 31.8064 38.9102 32.2061C39.2052 32.3997 39.5 32.8141 39.5 33.2012V42.5371L36.4336 44.9521L34.124 46.7861L32.583 48V42.4346L33.3789 41.8018V39.2197L32.583 39.8506V34.2861L33.3789 33.666V31.084L32.583 31.7021V26.1367L34.124 24.9229L36.4336 23.0889L39.5 20.6738V30.9141ZM38.4102 36.0811C38.4102 35.6422 38.0114 35.565 37.6143 35.8877L36.4336 36.8047L34.4697 38.3662V40.9492L36.4336 39.3867L37.7939 38.3145C38.2173 37.9791 38.4102 37.7588 38.4102 37.2676V36.0811ZM38.4102 27.9326C38.4102 27.4938 38.0114 27.4155 37.6143 27.7383L36.4336 28.6553L34.4697 30.2188V32.7998L36.4336 31.2383L37.7939 30.166C38.2175 29.8306 38.4102 29.6107 38.4102 29.1201V27.9326ZM35.6504 17.9883L34.124 19.2285L33.6748 19.5898V21.6689L34.124 21.3076L35.6504 20.0801V22.0674L34.124 23.3086L32.583 24.5488V18.4785L34.124 17.2393L35.6504 16V17.9883ZM29.876 17.2383L31.4033 18.4795V20.4688L30.415 19.667V21.8633L30.8125 22.1855V24.1738L29.876 23.4121L28.9521 22.6504V20.6621L29.3369 20.9717V18.7891L28.3496 17.9883V16L29.876 17.2383Z" fill="#E3E3E3"/>
</g>
</svg>
