<svg width="44" height="34" viewBox="0 0 44 34" fill="none" xmlns="http://www.w3.org/2000/svg">
<rect y="3" width="44" height="28" rx="4" fill="#C12026"/>
<mask id="mask0_12_75728" style="mask-type:luminance" maskUnits="userSpaceOnUse" x="0" y="3" width="44" height="28">
<rect y="3" width="44" height="28" rx="4" fill="white"/>
</mask>
<g mask="url(#mask0_12_75728)">
</g>
<rect opacity="0.2" x="4" y="21" width="24" height="2" rx="0.923077" fill="#E3E3E3"/>
<rect opacity="0.2" x="4" y="25" width="9" height="2" rx="0.923077" fill="#E3E3E3"/>
<rect opacity="0.2" x="4" y="10" width="7" height="4" rx="1" fill="#E3E3E3"/>
<path d="M36.792 10.3457L37.3008 10.8008V12.8887L36.8223 13.4258L37.3008 13.8574V15.9443L36.792 15.4893L35.7832 14.5889L35.2988 15.126L36.792 16.458L37.3008 16.9131V19L36.792 18.5449L35 16.9512V14.8643L35.4873 14.3271L35 13.8965V11.8086L36.5273 13.165L36.792 12.8691L37.0059 12.627L36.792 12.4385L35 10.8398V8.75293L36.792 10.3457ZM40 12.5928C40 12.7672 39.9662 12.9273 39.8037 13.0771C39.9019 13.1498 39.9999 13.3052 40 13.4502V16.9512L38.9775 17.8574L38.208 18.5449L37.6943 19V16.9131L37.96 16.6758V15.707L37.6943 15.9443V13.8574L37.96 13.625V12.6562L37.6943 12.8887V10.8008L38.208 10.3457L38.9775 9.6582L40 8.75293V12.5928ZM39.6367 14.5303C39.6367 14.3657 39.5035 14.3369 39.3711 14.458L38.9775 14.8018L38.3232 15.3877V16.3564L38.9775 15.7695L39.4316 15.3682C39.5727 15.2425 39.6367 15.1597 39.6367 14.9756V14.5303ZM39.6367 11.4746C39.6367 11.3101 39.5034 11.2804 39.3711 11.4014L38.9775 11.7461L38.3232 12.332V13.2998L38.9775 12.7139L39.4316 12.3125C39.5728 12.1868 39.6367 12.1039 39.6367 11.9199V11.4746ZM38.7168 7.74609L38.208 8.21094L38.0586 8.3457V9.12598L38.208 8.99023L38.7168 8.53027V9.27539L38.208 9.74121L37.6943 10.2061V7.92969L38.208 7.46484L38.7168 7V7.74609ZM37.3008 7.92969V8.67578L36.9717 8.375V9.19824L37.1045 9.31934V10.0654L36.792 9.7793L36.4844 9.49414V8.74805L36.6123 8.86426V8.0459L36.2832 7.74609V7L37.3008 7.92969Z" fill="#E3E3E3"/>
</svg>
